<?xml version="1.0" encoding="UTF-8"?>
<svg xmlns="http://www.w3.org/2000/svg" viewBox="0 0 1000 360" role="img" aria-label="hordesmod/kek-ui release downloads chart">
  <defs>
    <linearGradient id="fill-total-trend-black" x1="0" y1="0" x2="0" y2="1">
      <stop offset="0%" stop-color="#22d3ee" stop-opacity="0.32"/>
      <stop offset="100%" stop-color="#22d3ee" stop-opacity="0.05"/>
    </linearGradient>
    <style>
      .bg { fill: #0b0b0d; }
      .title { font: 700 24px Arial, sans-serif; fill: #f8fafc; }
      .sub { font: 400 13px Arial, sans-serif; fill: #cbd5e1; }
      .grid { stroke: #1f2937; stroke-width: 1; }
      .axis { font: 400 12px Arial, sans-serif; fill: #94a3b8; }
      .line { fill: none; stroke: #22d3ee; stroke-width: 3; stroke-linecap: round; stroke-linejoin: round; }
      .dot { fill: #22d3ee; }
      .value { font: 600 11px Arial, sans-serif; fill: #cbd5e1; }
      .latest { font: 700 14px Arial, sans-serif; fill: #f8fafc; }
    </style>
  </defs>
  <rect class="bg" x="0" y="0" width="1000" height="360" rx="16" />
  <text class="title" x="64" y="34">hordesmod/kek-ui release downloads</text>
  <text class="sub" x="64" y="352">Generated 2026-05-18</text>
  <line x1="64" y1="52.00" x2="976" y2="52.00" class="grid"/>
  <text x="56" y="56.00" text-anchor="end" class="axis">67,545</text>
  <line x1="64" y1="94.00" x2="976" y2="94.00" class="grid"/>
  <text x="56" y="98.00" text-anchor="end" class="axis">56,288</text>
  <line x1="64" y1="136.00" x2="976" y2="136.00" class="grid"/>
  <text x="56" y="140.00" text-anchor="end" class="axis">45,030</text>
  <line x1="64" y1="178.00" x2="976" y2="178.00" class="grid"/>
  <text x="56" y="182.00" text-anchor="end" class="axis">33,773</text>
  <line x1="64" y1="220.00" x2="976" y2="220.00" class="grid"/>
  <text x="56" y="224.00" text-anchor="end" class="axis">22,515</text>
  <line x1="64" y1="262.00" x2="976" y2="262.00" class="grid"/>
  <text x="56" y="266.00" text-anchor="end" class="axis">11,258</text>
  <line x1="64" y1="304.00" x2="976" y2="304.00" class="grid"/>
  <text x="56" y="308.00" text-anchor="end" class="axis">0</text>
  <path d="M 64.00 304 L 64.00 71.43 L 77.22 71.17 L 90.43 70.89 L 103.65 70.65 L 116.87 70.53 L 130.09 70.42 L 143.30 70.29 L 156.52 70.16 L 169.74 70.00 L 182.96 69.89 L 196.17 69.79 L 209.39 69.68 L 222.61 69.55 L 235.83 69.39 L 249.04 69.29 L 262.26 69.17 L 275.48 68.93 L 288.70 68.63 L 301.91 68.33 L 315.13 67.83 L 328.35 67.48 L 341.57 67.18 L 354.78 66.82 L 368.00 66.51 L 381.22 66.23 L 394.43 65.92 L 407.65 65.58 L 420.87 65.21 L 434.09 64.92 L 447.30 64.63 L 460.52 64.30 L 473.74 63.99 L 486.96 63.66 L 500.17 63.31 L 513.39 62.99 L 526.61 62.70 L 539.83 62.37 L 553.04 62.07 L 566.26 61.76 L 579.48 61.43 L 592.70 61.09 L 605.91 60.76 L 619.13 60.45 L 632.35 60.17 L 645.57 59.86 L 658.78 59.56 L 672.00 59.23 L 685.22 58.93 L 698.43 58.61 L 711.65 58.30 L 724.87 57.98 L 738.09 57.69 L 751.30 57.38 L 764.52 57.09 L 777.74 56.73 L 790.96 56.40 L 804.17 56.04 L 817.39 55.68 L 830.61 55.39 L 843.83 55.12 L 857.04 54.78 L 870.26 54.48 L 883.48 54.16 L 896.70 53.84 L 909.91 53.55 L 923.13 53.25 L 936.35 52.98 L 949.57 52.65 L 962.78 52.32 L 976.00 52.00 L 976.00 304 Z" fill="url(#fill-total-trend-black)"/>
  <polyline class="line" points="64.00,71.43 77.22,71.17 90.43,70.89 103.65,70.65 116.87,70.53 130.09,70.42 143.30,70.29 156.52,70.16 169.74,70.00 182.96,69.89 196.17,69.79 209.39,69.68 222.61,69.55 235.83,69.39 249.04,69.29 262.26,69.17 275.48,68.93 288.70,68.63 301.91,68.33 315.13,67.83 328.35,67.48 341.57,67.18 354.78,66.82 368.00,66.51 381.22,66.23 394.43,65.92 407.65,65.58 420.87,65.21 434.09,64.92 447.30,64.63 460.52,64.30 473.74,63.99 486.96,63.66 500.17,63.31 513.39,62.99 526.61,62.70 539.83,62.37 553.04,62.07 566.26,61.76 579.48,61.43 592.70,61.09 605.91,60.76 619.13,60.45 632.35,60.17 645.57,59.86 658.78,59.56 672.00,59.23 685.22,58.93 698.43,58.61 711.65,58.30 724.87,57.98 738.09,57.69 751.30,57.38 764.52,57.09 777.74,56.73 790.96,56.40 804.17,56.04 817.39,55.68 830.61,55.39 843.83,55.12 857.04,54.78 870.26,54.48 883.48,54.16 896.70,53.84 909.91,53.55 923.13,53.25 936.35,52.98 949.57,52.65 962.78,52.32 976.00,52.00"/>
  <circle class="dot" cx="976.00" cy="52.00" r="4.5"/>
  
  <text class="axis" x="64.00" y="336" text-anchor="start">2026-03-10</text>
  <text class="axis" x="235.83" y="336" text-anchor="middle">2026-03-23</text>
  <text class="axis" x="407.65" y="336" text-anchor="middle">2026-04-05</text>
  <text class="axis" x="579.48" y="336" text-anchor="middle">2026-04-18</text>
  <text class="axis" x="751.30" y="336" text-anchor="middle">2026-05-01</text>
  <text class="axis" x="923.13" y="336" text-anchor="middle">2026-05-14</text>
  <text class="axis" x="976.00" y="336" text-anchor="end">2026-05-18</text>
  <text class="latest" x="976" y="34" text-anchor="end">Latest total: 67,545</text>
</svg>
