<?xml version="1.0" encoding="UTF-8"?>
<svg xmlns="http://www.w3.org/2000/svg" viewBox="0 0 1000 360" role="img" aria-label="hordesmod/kek-ui release downloads chart">
  <defs>
    <linearGradient id="fill-total-trend-black" x1="0" y1="0" x2="0" y2="1">
      <stop offset="0%" stop-color="#22d3ee" stop-opacity="0.32"/>
      <stop offset="100%" stop-color="#22d3ee" stop-opacity="0.05"/>
    </linearGradient>
    <style>
      .bg { fill: #0b0b0d; }
      .title { font: 700 24px Arial, sans-serif; fill: #f8fafc; }
      .sub { font: 400 13px Arial, sans-serif; fill: #cbd5e1; }
      .grid { stroke: #1f2937; stroke-width: 1; }
      .axis { font: 400 12px Arial, sans-serif; fill: #94a3b8; }
      .line { fill: none; stroke: #22d3ee; stroke-width: 3; stroke-linecap: round; stroke-linejoin: round; }
      .dot { fill: #22d3ee; }
      .value { font: 600 11px Arial, sans-serif; fill: #cbd5e1; }
      .latest { font: 700 14px Arial, sans-serif; fill: #f8fafc; }
    </style>
  </defs>
  <rect class="bg" x="0" y="0" width="1000" height="360" rx="16" />
  <text class="title" x="64" y="34">hordesmod/kek-ui release downloads</text>
  <text class="sub" x="64" y="352">Generated 2026-03-29</text>
  <line x1="64" y1="52.00" x2="976" y2="52.00" class="grid"/>
  <text x="56" y="56.00" text-anchor="end" class="axis">63,301</text>
  <line x1="64" y1="94.00" x2="976" y2="94.00" class="grid"/>
  <text x="56" y="98.00" text-anchor="end" class="axis">52,751</text>
  <line x1="64" y1="136.00" x2="976" y2="136.00" class="grid"/>
  <text x="56" y="140.00" text-anchor="end" class="axis">42,201</text>
  <line x1="64" y1="178.00" x2="976" y2="178.00" class="grid"/>
  <text x="56" y="182.00" text-anchor="end" class="axis">31,651</text>
  <line x1="64" y1="220.00" x2="976" y2="220.00" class="grid"/>
  <text x="56" y="224.00" text-anchor="end" class="axis">21,100</text>
  <line x1="64" y1="262.00" x2="976" y2="262.00" class="grid"/>
  <text x="56" y="266.00" text-anchor="end" class="axis">10,550</text>
  <line x1="64" y1="304.00" x2="976" y2="304.00" class="grid"/>
  <text x="56" y="308.00" text-anchor="end" class="axis">0</text>
  <path d="M 64.00 304 L 64.00 55.83 L 112.00 55.56 L 160.00 55.26 L 208.00 55.01 L 256.00 54.88 L 304.00 54.75 L 352.00 54.62 L 400.00 54.48 L 448.00 54.31 L 496.00 54.19 L 544.00 54.09 L 592.00 53.97 L 640.00 53.84 L 688.00 53.66 L 736.00 53.56 L 784.00 53.43 L 832.00 53.17 L 880.00 52.85 L 928.00 52.53 L 976.00 52.00 L 976.00 304 Z" fill="url(#fill-total-trend-black)"/>
  <polyline class="line" points="64.00,55.83 112.00,55.56 160.00,55.26 208.00,55.01 256.00,54.88 304.00,54.75 352.00,54.62 400.00,54.48 448.00,54.31 496.00,54.19 544.00,54.09 592.00,53.97 640.00,53.84 688.00,53.66 736.00,53.56 784.00,53.43 832.00,53.17 880.00,52.85 928.00,52.53 976.00,52.00"/>
  <circle class="dot" cx="976.00" cy="52.00" r="4.5"/>
  
  <text class="axis" x="64.00" y="336" text-anchor="start">2026-03-10</text>
  <text class="axis" x="208.00" y="336" text-anchor="middle">2026-03-13</text>
  <text class="axis" x="352.00" y="336" text-anchor="middle">2026-03-16</text>
  <text class="axis" x="496.00" y="336" text-anchor="middle">2026-03-19</text>
  <text class="axis" x="640.00" y="336" text-anchor="middle">2026-03-22</text>
  <text class="axis" x="784.00" y="336" text-anchor="middle">2026-03-25</text>
  <text class="axis" x="928.00" y="336" text-anchor="middle">2026-03-28</text>
  <text class="axis" x="976.00" y="336" text-anchor="end">2026-03-29</text>
  <text class="latest" x="976" y="34" text-anchor="end">Latest total: 63,301</text>
</svg>
