<?xml version="1.0" encoding="UTF-8"?>
<svg xmlns="http://www.w3.org/2000/svg" viewBox="0 0 1000 360" role="img" aria-label="hordesmod/kek-ui release downloads chart">
  <defs>
    <linearGradient id="fill-total-trend-black" x1="0" y1="0" x2="0" y2="1">
      <stop offset="0%" stop-color="#22d3ee" stop-opacity="0.32"/>
      <stop offset="100%" stop-color="#22d3ee" stop-opacity="0.05"/>
    </linearGradient>
    <style>
      .bg { fill: #0b0b0d; }
      .title { font: 700 24px Arial, sans-serif; fill: #f8fafc; }
      .sub { font: 400 13px Arial, sans-serif; fill: #cbd5e1; }
      .grid { stroke: #1f2937; stroke-width: 1; }
      .axis { font: 400 12px Arial, sans-serif; fill: #94a3b8; }
      .line { fill: none; stroke: #22d3ee; stroke-width: 3; stroke-linecap: round; stroke-linejoin: round; }
      .dot { fill: #22d3ee; }
      .value { font: 600 11px Arial, sans-serif; fill: #cbd5e1; }
      .latest { font: 700 14px Arial, sans-serif; fill: #f8fafc; }
    </style>
  </defs>
  <rect class="bg" x="0" y="0" width="1000" height="360" rx="16" />
  <text class="title" x="64" y="34">hordesmod/kek-ui release downloads</text>
  <text class="sub" x="64" y="352">Generated 2026-04-27</text>
  <line x1="64" y1="52.00" x2="976" y2="52.00" class="grid"/>
  <text x="56" y="56.00" text-anchor="end" class="axis">65,773</text>
  <line x1="64" y1="94.00" x2="976" y2="94.00" class="grid"/>
  <text x="56" y="98.00" text-anchor="end" class="axis">54,811</text>
  <line x1="64" y1="136.00" x2="976" y2="136.00" class="grid"/>
  <text x="56" y="140.00" text-anchor="end" class="axis">43,849</text>
  <line x1="64" y1="178.00" x2="976" y2="178.00" class="grid"/>
  <text x="56" y="182.00" text-anchor="end" class="axis">32,887</text>
  <line x1="64" y1="220.00" x2="976" y2="220.00" class="grid"/>
  <text x="56" y="224.00" text-anchor="end" class="axis">21,924</text>
  <line x1="64" y1="262.00" x2="976" y2="262.00" class="grid"/>
  <text x="56" y="266.00" text-anchor="end" class="axis">10,962</text>
  <line x1="64" y1="304.00" x2="976" y2="304.00" class="grid"/>
  <text x="56" y="308.00" text-anchor="end" class="axis">0</text>
  <path d="M 64.00 304 L 64.00 65.16 L 83.00 64.90 L 102.00 64.61 L 121.00 64.36 L 140.00 64.24 L 159.00 64.12 L 178.00 63.99 L 197.00 63.86 L 216.00 63.70 L 235.00 63.58 L 254.00 63.48 L 273.00 63.37 L 292.00 63.24 L 311.00 63.07 L 330.00 62.97 L 349.00 62.84 L 368.00 62.59 L 387.00 62.29 L 406.00 61.98 L 425.00 61.47 L 444.00 61.11 L 463.00 60.80 L 482.00 60.43 L 501.00 60.11 L 520.00 59.82 L 539.00 59.51 L 558.00 59.16 L 577.00 58.78 L 596.00 58.48 L 615.00 58.18 L 634.00 57.85 L 653.00 57.53 L 672.00 57.18 L 691.00 56.83 L 710.00 56.50 L 729.00 56.20 L 748.00 55.86 L 767.00 55.55 L 786.00 55.23 L 805.00 54.90 L 824.00 54.54 L 843.00 54.21 L 862.00 53.89 L 881.00 53.61 L 900.00 53.29 L 919.00 52.97 L 938.00 52.63 L 957.00 52.33 L 976.00 52.00 L 976.00 304 Z" fill="url(#fill-total-trend-black)"/>
  <polyline class="line" points="64.00,65.16 83.00,64.90 102.00,64.61 121.00,64.36 140.00,64.24 159.00,64.12 178.00,63.99 197.00,63.86 216.00,63.70 235.00,63.58 254.00,63.48 273.00,63.37 292.00,63.24 311.00,63.07 330.00,62.97 349.00,62.84 368.00,62.59 387.00,62.29 406.00,61.98 425.00,61.47 444.00,61.11 463.00,60.80 482.00,60.43 501.00,60.11 520.00,59.82 539.00,59.51 558.00,59.16 577.00,58.78 596.00,58.48 615.00,58.18 634.00,57.85 653.00,57.53 672.00,57.18 691.00,56.83 710.00,56.50 729.00,56.20 748.00,55.86 767.00,55.55 786.00,55.23 805.00,54.90 824.00,54.54 843.00,54.21 862.00,53.89 881.00,53.61 900.00,53.29 919.00,52.97 938.00,52.63 957.00,52.33 976.00,52.00"/>
  <circle class="dot" cx="976.00" cy="52.00" r="4.5"/>
  
  <text class="axis" x="64.00" y="336" text-anchor="start">2026-03-10</text>
  <text class="axis" x="235.00" y="336" text-anchor="middle">2026-03-19</text>
  <text class="axis" x="406.00" y="336" text-anchor="middle">2026-03-28</text>
  <text class="axis" x="577.00" y="336" text-anchor="middle">2026-04-06</text>
  <text class="axis" x="748.00" y="336" text-anchor="middle">2026-04-15</text>
  <text class="axis" x="919.00" y="336" text-anchor="middle">2026-04-24</text>
  <text class="axis" x="976.00" y="336" text-anchor="end">2026-04-27</text>
  <text class="latest" x="976" y="34" text-anchor="end">Latest total: 65,773</text>
</svg>
