<?xml version="1.0" encoding="UTF-8"?>
<svg xmlns="http://www.w3.org/2000/svg" viewBox="0 0 1000 360" role="img" aria-label="hordesmod/kek-ui release downloads chart">
  <defs>
    <linearGradient id="fill-total-trend-black" x1="0" y1="0" x2="0" y2="1">
      <stop offset="0%" stop-color="#22d3ee" stop-opacity="0.32"/>
      <stop offset="100%" stop-color="#22d3ee" stop-opacity="0.05"/>
    </linearGradient>
    <style>
      .bg { fill: #0b0b0d; }
      .title { font: 700 24px Arial, sans-serif; fill: #f8fafc; }
      .sub { font: 400 13px Arial, sans-serif; fill: #cbd5e1; }
      .grid { stroke: #1f2937; stroke-width: 1; }
      .axis { font: 400 12px Arial, sans-serif; fill: #94a3b8; }
      .line { fill: none; stroke: #22d3ee; stroke-width: 3; stroke-linecap: round; stroke-linejoin: round; }
      .dot { fill: #22d3ee; }
      .value { font: 600 11px Arial, sans-serif; fill: #cbd5e1; }
      .latest { font: 700 14px Arial, sans-serif; fill: #f8fafc; }
    </style>
  </defs>
  <rect class="bg" x="0" y="0" width="1000" height="360" rx="16" />
  <text class="title" x="64" y="34">hordesmod/kek-ui release downloads</text>
  <text class="sub" x="64" y="352">Generated 2026-04-14</text>
  <line x1="64" y1="52.00" x2="976" y2="52.00" class="grid"/>
  <text x="56" y="56.00" text-anchor="end" class="axis">64,676</text>
  <line x1="64" y1="94.00" x2="976" y2="94.00" class="grid"/>
  <text x="56" y="98.00" text-anchor="end" class="axis">53,897</text>
  <line x1="64" y1="136.00" x2="976" y2="136.00" class="grid"/>
  <text x="56" y="140.00" text-anchor="end" class="axis">43,117</text>
  <line x1="64" y1="178.00" x2="976" y2="178.00" class="grid"/>
  <text x="56" y="182.00" text-anchor="end" class="axis">32,338</text>
  <line x1="64" y1="220.00" x2="976" y2="220.00" class="grid"/>
  <text x="56" y="224.00" text-anchor="end" class="axis">21,559</text>
  <line x1="64" y1="262.00" x2="976" y2="262.00" class="grid"/>
  <text x="56" y="266.00" text-anchor="end" class="axis">10,779</text>
  <line x1="64" y1="304.00" x2="976" y2="304.00" class="grid"/>
  <text x="56" y="308.00" text-anchor="end" class="axis">0</text>
  <path d="M 64.00 304 L 64.00 61.11 L 90.06 60.84 L 116.11 60.55 L 142.17 60.30 L 168.23 60.17 L 194.29 60.05 L 220.34 59.92 L 246.40 59.78 L 272.46 59.62 L 298.51 59.50 L 324.57 59.40 L 350.63 59.29 L 376.69 59.15 L 402.74 58.98 L 428.80 58.88 L 454.86 58.75 L 480.91 58.50 L 506.97 58.19 L 533.03 57.87 L 559.09 57.36 L 585.14 56.99 L 611.20 56.68 L 637.26 56.29 L 663.31 55.97 L 689.37 55.68 L 715.43 55.36 L 741.49 55.00 L 767.54 54.62 L 793.60 54.32 L 819.66 54.01 L 845.71 53.67 L 871.77 53.35 L 897.83 53.00 L 923.89 52.64 L 949.94 52.30 L 976.00 52.00 L 976.00 304 Z" fill="url(#fill-total-trend-black)"/>
  <polyline class="line" points="64.00,61.11 90.06,60.84 116.11,60.55 142.17,60.30 168.23,60.17 194.29,60.05 220.34,59.92 246.40,59.78 272.46,59.62 298.51,59.50 324.57,59.40 350.63,59.29 376.69,59.15 402.74,58.98 428.80,58.88 454.86,58.75 480.91,58.50 506.97,58.19 533.03,57.87 559.09,57.36 585.14,56.99 611.20,56.68 637.26,56.29 663.31,55.97 689.37,55.68 715.43,55.36 741.49,55.00 767.54,54.62 793.60,54.32 819.66,54.01 845.71,53.67 871.77,53.35 897.83,53.00 923.89,52.64 949.94,52.30 976.00,52.00"/>
  <circle class="dot" cx="976.00" cy="52.00" r="4.5"/>
  
  <text class="axis" x="64.00" y="336" text-anchor="start">2026-03-10</text>
  <text class="axis" x="246.40" y="336" text-anchor="middle">2026-03-17</text>
  <text class="axis" x="428.80" y="336" text-anchor="middle">2026-03-24</text>
  <text class="axis" x="611.20" y="336" text-anchor="middle">2026-03-31</text>
  <text class="axis" x="793.60" y="336" text-anchor="middle">2026-04-07</text>
  <text class="axis" x="976.00" y="336" text-anchor="end">2026-04-14</text>
  <text class="latest" x="976" y="34" text-anchor="end">Latest total: 64,676</text>
</svg>
