<?xml version="1.0" encoding="UTF-8"?>
<svg xmlns="http://www.w3.org/2000/svg" viewBox="0 0 1000 360" role="img" aria-label="hordesmod/kek-ui release downloads chart">
  <defs>
    <linearGradient id="fill-total-trend-black" x1="0" y1="0" x2="0" y2="1">
      <stop offset="0%" stop-color="#22d3ee" stop-opacity="0.32"/>
      <stop offset="100%" stop-color="#22d3ee" stop-opacity="0.05"/>
    </linearGradient>
    <style>
      .bg { fill: #0b0b0d; }
      .title { font: 700 24px Arial, sans-serif; fill: #f8fafc; }
      .sub { font: 400 13px Arial, sans-serif; fill: #cbd5e1; }
      .grid { stroke: #1f2937; stroke-width: 1; }
      .axis { font: 400 12px Arial, sans-serif; fill: #94a3b8; }
      .line { fill: none; stroke: #22d3ee; stroke-width: 3; stroke-linecap: round; stroke-linejoin: round; }
      .dot { fill: #22d3ee; }
      .value { font: 600 11px Arial, sans-serif; fill: #cbd5e1; }
      .latest { font: 700 14px Arial, sans-serif; fill: #f8fafc; }
    </style>
  </defs>
  <rect class="bg" x="0" y="0" width="1000" height="360" rx="16" />
  <text class="title" x="64" y="34">hordesmod/kek-ui release downloads</text>
  <text class="sub" x="64" y="352">Generated 2026-05-08</text>
  <line x1="64" y1="52.00" x2="976" y2="52.00" class="grid"/>
  <text x="56" y="56.00" text-anchor="end" class="axis">66,710</text>
  <line x1="64" y1="94.00" x2="976" y2="94.00" class="grid"/>
  <text x="56" y="98.00" text-anchor="end" class="axis">55,592</text>
  <line x1="64" y1="136.00" x2="976" y2="136.00" class="grid"/>
  <text x="56" y="140.00" text-anchor="end" class="axis">44,473</text>
  <line x1="64" y1="178.00" x2="976" y2="178.00" class="grid"/>
  <text x="56" y="182.00" text-anchor="end" class="axis">33,355</text>
  <line x1="64" y1="220.00" x2="976" y2="220.00" class="grid"/>
  <text x="56" y="224.00" text-anchor="end" class="axis">22,237</text>
  <line x1="64" y1="262.00" x2="976" y2="262.00" class="grid"/>
  <text x="56" y="266.00" text-anchor="end" class="axis">11,118</text>
  <line x1="64" y1="304.00" x2="976" y2="304.00" class="grid"/>
  <text x="56" y="308.00" text-anchor="end" class="axis">0</text>
  <path d="M 64.00 304 L 64.00 68.52 L 79.46 68.25 L 94.92 67.97 L 110.37 67.73 L 125.83 67.61 L 141.29 67.49 L 156.75 67.36 L 172.20 67.23 L 187.66 67.07 L 203.12 66.96 L 218.58 66.86 L 234.03 66.75 L 249.49 66.62 L 264.95 66.45 L 280.41 66.35 L 295.86 66.23 L 311.32 65.98 L 326.78 65.68 L 342.24 65.38 L 357.69 64.88 L 373.15 64.52 L 388.61 64.22 L 404.07 63.85 L 419.53 63.54 L 434.98 63.25 L 450.44 62.94 L 465.90 62.60 L 481.36 62.23 L 496.81 61.93 L 512.27 61.63 L 527.73 61.30 L 543.19 60.99 L 558.64 60.65 L 574.10 60.30 L 589.56 59.97 L 605.02 59.68 L 620.47 59.34 L 635.93 59.04 L 651.39 58.73 L 666.85 58.40 L 682.31 58.05 L 697.76 57.72 L 713.22 57.41 L 728.68 57.12 L 744.14 56.81 L 759.59 56.50 L 775.05 56.16 L 790.51 55.86 L 805.97 55.54 L 821.42 55.23 L 836.88 54.90 L 852.34 54.60 L 867.80 54.29 L 883.25 54.00 L 898.71 53.64 L 914.17 53.30 L 929.63 52.94 L 945.08 52.57 L 960.54 52.28 L 976.00 52.00 L 976.00 304 Z" fill="url(#fill-total-trend-black)"/>
  <polyline class="line" points="64.00,68.52 79.46,68.25 94.92,67.97 110.37,67.73 125.83,67.61 141.29,67.49 156.75,67.36 172.20,67.23 187.66,67.07 203.12,66.96 218.58,66.86 234.03,66.75 249.49,66.62 264.95,66.45 280.41,66.35 295.86,66.23 311.32,65.98 326.78,65.68 342.24,65.38 357.69,64.88 373.15,64.52 388.61,64.22 404.07,63.85 419.53,63.54 434.98,63.25 450.44,62.94 465.90,62.60 481.36,62.23 496.81,61.93 512.27,61.63 527.73,61.30 543.19,60.99 558.64,60.65 574.10,60.30 589.56,59.97 605.02,59.68 620.47,59.34 635.93,59.04 651.39,58.73 666.85,58.40 682.31,58.05 697.76,57.72 713.22,57.41 728.68,57.12 744.14,56.81 759.59,56.50 775.05,56.16 790.51,55.86 805.97,55.54 821.42,55.23 836.88,54.90 852.34,54.60 867.80,54.29 883.25,54.00 898.71,53.64 914.17,53.30 929.63,52.94 945.08,52.57 960.54,52.28 976.00,52.00"/>
  <circle class="dot" cx="976.00" cy="52.00" r="4.5"/>
  
  <text class="axis" x="64.00" y="336" text-anchor="start">2026-03-10</text>
  <text class="axis" x="234.03" y="336" text-anchor="middle">2026-03-21</text>
  <text class="axis" x="404.07" y="336" text-anchor="middle">2026-04-01</text>
  <text class="axis" x="574.10" y="336" text-anchor="middle">2026-04-12</text>
  <text class="axis" x="744.14" y="336" text-anchor="middle">2026-04-23</text>
  <text class="axis" x="914.17" y="336" text-anchor="middle">2026-05-04</text>
  <text class="axis" x="976.00" y="336" text-anchor="end">2026-05-08</text>
  <text class="latest" x="976" y="34" text-anchor="end">Latest total: 66,710</text>
</svg>
