<?xml version="1.0" encoding="UTF-8"?>
<svg xmlns="http://www.w3.org/2000/svg" viewBox="0 0 1000 360" role="img" aria-label="hordesmod/kek-ui release downloads chart">
  <defs>
    <linearGradient id="fill-total-trend-black" x1="0" y1="0" x2="0" y2="1">
      <stop offset="0%" stop-color="#22d3ee" stop-opacity="0.32"/>
      <stop offset="100%" stop-color="#22d3ee" stop-opacity="0.05"/>
    </linearGradient>
    <style>
      .bg { fill: #0b0b0d; }
      .title { font: 700 24px Arial, sans-serif; fill: #f8fafc; }
      .sub { font: 400 13px Arial, sans-serif; fill: #cbd5e1; }
      .grid { stroke: #1f2937; stroke-width: 1; }
      .axis { font: 400 12px Arial, sans-serif; fill: #94a3b8; }
      .line { fill: none; stroke: #22d3ee; stroke-width: 3; stroke-linecap: round; stroke-linejoin: round; }
      .dot { fill: #22d3ee; }
      .value { font: 600 11px Arial, sans-serif; fill: #cbd5e1; }
      .latest { font: 700 14px Arial, sans-serif; fill: #f8fafc; }
    </style>
  </defs>
  <rect class="bg" x="0" y="0" width="1000" height="360" rx="16" />
  <text class="title" x="64" y="34">hordesmod/kek-ui release downloads</text>
  <text class="sub" x="64" y="352">Generated 2026-04-25</text>
  <line x1="64" y1="52.00" x2="976" y2="52.00" class="grid"/>
  <text x="56" y="56.00" text-anchor="end" class="axis">65,608</text>
  <line x1="64" y1="94.00" x2="976" y2="94.00" class="grid"/>
  <text x="56" y="98.00" text-anchor="end" class="axis">54,673</text>
  <line x1="64" y1="136.00" x2="976" y2="136.00" class="grid"/>
  <text x="56" y="140.00" text-anchor="end" class="axis">43,739</text>
  <line x1="64" y1="178.00" x2="976" y2="178.00" class="grid"/>
  <text x="56" y="182.00" text-anchor="end" class="axis">32,804</text>
  <line x1="64" y1="220.00" x2="976" y2="220.00" class="grid"/>
  <text x="56" y="224.00" text-anchor="end" class="axis">21,869</text>
  <line x1="64" y1="262.00" x2="976" y2="262.00" class="grid"/>
  <text x="56" y="266.00" text-anchor="end" class="axis">10,935</text>
  <line x1="64" y1="304.00" x2="976" y2="304.00" class="grid"/>
  <text x="56" y="308.00" text-anchor="end" class="axis">0</text>
  <path d="M 64.00 304 L 64.00 64.56 L 83.83 64.30 L 103.65 64.01 L 123.48 63.76 L 143.30 63.64 L 163.13 63.52 L 182.96 63.39 L 202.78 63.25 L 222.61 63.09 L 242.43 62.98 L 262.26 62.87 L 282.09 62.77 L 301.91 62.63 L 321.74 62.46 L 341.57 62.36 L 361.39 62.24 L 381.22 61.99 L 401.04 61.68 L 420.87 61.37 L 440.70 60.86 L 460.52 60.50 L 480.35 60.19 L 500.17 59.81 L 520.00 59.50 L 539.83 59.21 L 559.65 58.89 L 579.48 58.54 L 599.30 58.16 L 619.13 57.87 L 638.96 57.56 L 658.78 57.23 L 678.61 56.91 L 698.43 56.56 L 718.26 56.21 L 738.09 55.88 L 757.91 55.58 L 777.74 55.23 L 797.57 54.93 L 817.39 54.61 L 837.22 54.27 L 857.04 53.92 L 876.87 53.58 L 896.70 53.26 L 916.52 52.98 L 936.35 52.66 L 956.17 52.34 L 976.00 52.00 L 976.00 304 Z" fill="url(#fill-total-trend-black)"/>
  <polyline class="line" points="64.00,64.56 83.83,64.30 103.65,64.01 123.48,63.76 143.30,63.64 163.13,63.52 182.96,63.39 202.78,63.25 222.61,63.09 242.43,62.98 262.26,62.87 282.09,62.77 301.91,62.63 321.74,62.46 341.57,62.36 361.39,62.24 381.22,61.99 401.04,61.68 420.87,61.37 440.70,60.86 460.52,60.50 480.35,60.19 500.17,59.81 520.00,59.50 539.83,59.21 559.65,58.89 579.48,58.54 599.30,58.16 619.13,57.87 638.96,57.56 658.78,57.23 678.61,56.91 698.43,56.56 718.26,56.21 738.09,55.88 757.91,55.58 777.74,55.23 797.57,54.93 817.39,54.61 837.22,54.27 857.04,53.92 876.87,53.58 896.70,53.26 916.52,52.98 936.35,52.66 956.17,52.34 976.00,52.00"/>
  <circle class="dot" cx="976.00" cy="52.00" r="4.5"/>
  
  <text class="axis" x="64.00" y="336" text-anchor="start">2026-03-10</text>
  <text class="axis" x="242.43" y="336" text-anchor="middle">2026-03-19</text>
  <text class="axis" x="420.87" y="336" text-anchor="middle">2026-03-28</text>
  <text class="axis" x="599.30" y="336" text-anchor="middle">2026-04-06</text>
  <text class="axis" x="777.74" y="336" text-anchor="middle">2026-04-15</text>
  <text class="axis" x="956.17" y="336" text-anchor="middle">2026-04-24</text>
  <text class="axis" x="976.00" y="336" text-anchor="end">2026-04-25</text>
  <text class="latest" x="976" y="34" text-anchor="end">Latest total: 65,608</text>
</svg>
