<?xml version="1.0" encoding="UTF-8"?>
<svg xmlns="http://www.w3.org/2000/svg" viewBox="0 0 1000 360" role="img" aria-label="hordesmod/kek-ui release downloads chart">
  <defs>
    <linearGradient id="fill-daily-slate" x1="0" y1="0" x2="0" y2="1">
      <stop offset="0%" stop-color="#60a5fa" stop-opacity="0.32"/>
      <stop offset="100%" stop-color="#60a5fa" stop-opacity="0.05"/>
    </linearGradient>
    <style>
      .bg { fill: #0f172a; }
      .title { font: 700 24px Arial, sans-serif; fill: #e2e8f0; }
      .sub { font: 400 13px Arial, sans-serif; fill: #94a3b8; }
      .grid { stroke: #1e293b; stroke-width: 1; }
      .axis { font: 400 12px Arial, sans-serif; fill: #94a3b8; }
      .line { fill: none; stroke: #60a5fa; stroke-width: 3; stroke-linecap: round; stroke-linejoin: round; }
      .dot { fill: #60a5fa; }
      .value { font: 600 11px Arial, sans-serif; fill: #cbd5e1; }
      .latest { font: 700 14px Arial, sans-serif; fill: #e2e8f0; }
    </style>
  </defs>
  <rect class="bg" x="0" y="0" width="1000" height="360" rx="16" />
  <text class="title" x="64" y="34">hordesmod/kek-ui release downloads</text>
  <text class="sub" x="64" y="352">Generated 2026-05-07</text>
  <line x1="64" y1="52.00" x2="976" y2="52.00" class="grid"/>
  <text x="56" y="56.00" text-anchor="end" class="axis">132</text>
  <line x1="64" y1="94.00" x2="976" y2="94.00" class="grid"/>
  <text x="56" y="98.00" text-anchor="end" class="axis">110</text>
  <line x1="64" y1="136.00" x2="976" y2="136.00" class="grid"/>
  <text x="56" y="140.00" text-anchor="end" class="axis">88</text>
  <line x1="64" y1="178.00" x2="976" y2="178.00" class="grid"/>
  <text x="56" y="182.00" text-anchor="end" class="axis">66</text>
  <line x1="64" y1="220.00" x2="976" y2="220.00" class="grid"/>
  <text x="56" y="224.00" text-anchor="end" class="axis">44</text>
  <line x1="64" y1="262.00" x2="976" y2="262.00" class="grid"/>
  <text x="56" y="266.00" text-anchor="end" class="axis">22</text>
  <line x1="64" y1="304.00" x2="976" y2="304.00" class="grid"/>
  <text x="56" y="308.00" text-anchor="end" class="axis">0</text>
  <path d="M 64.00 304 L 64.00 304.00 L 79.72 172.27 L 95.45 160.82 L 111.17 181.82 L 126.90 242.91 L 142.62 244.82 L 158.34 239.09 L 174.07 237.18 L 189.79 223.82 L 205.52 246.73 L 221.24 252.45 L 236.97 250.55 L 252.69 237.18 L 268.41 220.00 L 284.14 254.36 L 299.86 241.00 L 315.59 179.91 L 331.31 151.27 L 347.03 149.36 L 362.76 52.00 L 378.48 124.55 L 394.21 149.36 L 409.93 116.91 L 425.66 147.45 L 441.38 160.82 L 457.10 147.45 L 472.83 128.36 L 488.55 116.91 L 504.28 155.09 L 520.00 153.18 L 535.72 137.91 L 551.45 145.55 L 567.17 132.18 L 582.90 126.45 L 598.62 139.82 L 614.34 157.00 L 630.07 132.18 L 645.79 151.27 L 661.52 145.55 L 677.24 136.00 L 692.97 128.36 L 708.69 136.00 L 724.41 147.45 L 740.14 160.82 L 755.86 145.55 L 771.59 147.45 L 787.31 134.09 L 803.03 151.27 L 818.76 141.73 L 834.48 145.55 L 850.21 139.82 L 865.93 153.18 L 881.66 145.55 L 897.38 157.00 L 913.10 122.64 L 928.83 134.09 L 944.55 120.73 L 960.28 118.82 L 976.00 155.09 L 976.00 304 Z" fill="url(#fill-daily-slate)"/>
  <polyline class="line" points="64.00,304.00 79.72,172.27 95.45,160.82 111.17,181.82 126.90,242.91 142.62,244.82 158.34,239.09 174.07,237.18 189.79,223.82 205.52,246.73 221.24,252.45 236.97,250.55 252.69,237.18 268.41,220.00 284.14,254.36 299.86,241.00 315.59,179.91 331.31,151.27 347.03,149.36 362.76,52.00 378.48,124.55 394.21,149.36 409.93,116.91 425.66,147.45 441.38,160.82 457.10,147.45 472.83,128.36 488.55,116.91 504.28,155.09 520.00,153.18 535.72,137.91 551.45,145.55 567.17,132.18 582.90,126.45 598.62,139.82 614.34,157.00 630.07,132.18 645.79,151.27 661.52,145.55 677.24,136.00 692.97,128.36 708.69,136.00 724.41,147.45 740.14,160.82 755.86,145.55 771.59,147.45 787.31,134.09 803.03,151.27 818.76,141.73 834.48,145.55 850.21,139.82 865.93,153.18 881.66,145.55 897.38,157.00 913.10,122.64 928.83,134.09 944.55,120.73 960.28,118.82 976.00,155.09"/>
  <circle class="dot" cx="976.00" cy="155.09" r="4.5"/>
  
  <text class="axis" x="64.00" y="336" text-anchor="start">2026-03-10</text>
  <text class="axis" x="236.97" y="336" text-anchor="middle">2026-03-21</text>
  <text class="axis" x="409.93" y="336" text-anchor="middle">2026-04-01</text>
  <text class="axis" x="582.90" y="336" text-anchor="middle">2026-04-12</text>
  <text class="axis" x="755.86" y="336" text-anchor="middle">2026-04-23</text>
  <text class="axis" x="928.83" y="336" text-anchor="middle">2026-05-04</text>
  <text class="axis" x="976.00" y="336" text-anchor="end">2026-05-07</text>
  <text class="latest" x="976" y="34" text-anchor="end">Latest day: 78</text>
</svg>
