<?xml version="1.0" encoding="UTF-8"?>
<svg xmlns="http://www.w3.org/2000/svg" viewBox="0 0 1000 360" role="img" aria-label="hordesmod/kek-ui release downloads chart">
  <defs>
    <linearGradient id="fill-daily-slate" x1="0" y1="0" x2="0" y2="1">
      <stop offset="0%" stop-color="#60a5fa" stop-opacity="0.32"/>
      <stop offset="100%" stop-color="#60a5fa" stop-opacity="0.05"/>
    </linearGradient>
    <style>
      .bg { fill: #0f172a; }
      .title { font: 700 24px Arial, sans-serif; fill: #e2e8f0; }
      .sub { font: 400 13px Arial, sans-serif; fill: #94a3b8; }
      .grid { stroke: #1e293b; stroke-width: 1; }
      .axis { font: 400 12px Arial, sans-serif; fill: #94a3b8; }
      .line { fill: none; stroke: #60a5fa; stroke-width: 3; stroke-linecap: round; stroke-linejoin: round; }
      .dot { fill: #60a5fa; }
      .value { font: 600 11px Arial, sans-serif; fill: #cbd5e1; }
      .latest { font: 700 14px Arial, sans-serif; fill: #e2e8f0; }
    </style>
  </defs>
  <rect class="bg" x="0" y="0" width="1000" height="360" rx="16" />
  <text class="title" x="64" y="34">hordesmod/kek-ui release downloads</text>
  <text class="sub" x="64" y="352">Generated 2026-04-25</text>
  <line x1="64" y1="52.00" x2="976" y2="52.00" class="grid"/>
  <text x="56" y="56.00" text-anchor="end" class="axis">132</text>
  <line x1="64" y1="94.00" x2="976" y2="94.00" class="grid"/>
  <text x="56" y="98.00" text-anchor="end" class="axis">110</text>
  <line x1="64" y1="136.00" x2="976" y2="136.00" class="grid"/>
  <text x="56" y="140.00" text-anchor="end" class="axis">88</text>
  <line x1="64" y1="178.00" x2="976" y2="178.00" class="grid"/>
  <text x="56" y="182.00" text-anchor="end" class="axis">66</text>
  <line x1="64" y1="220.00" x2="976" y2="220.00" class="grid"/>
  <text x="56" y="224.00" text-anchor="end" class="axis">44</text>
  <line x1="64" y1="262.00" x2="976" y2="262.00" class="grid"/>
  <text x="56" y="266.00" text-anchor="end" class="axis">22</text>
  <line x1="64" y1="304.00" x2="976" y2="304.00" class="grid"/>
  <text x="56" y="308.00" text-anchor="end" class="axis">0</text>
  <path d="M 64.00 304 L 64.00 304.00 L 83.83 172.27 L 103.65 160.82 L 123.48 181.82 L 143.30 242.91 L 163.13 244.82 L 182.96 239.09 L 202.78 237.18 L 222.61 223.82 L 242.43 246.73 L 262.26 252.45 L 282.09 250.55 L 301.91 237.18 L 321.74 220.00 L 341.57 254.36 L 361.39 241.00 L 381.22 179.91 L 401.04 151.27 L 420.87 149.36 L 440.70 52.00 L 460.52 124.55 L 480.35 149.36 L 500.17 116.91 L 520.00 147.45 L 539.83 160.82 L 559.65 147.45 L 579.48 128.36 L 599.30 116.91 L 619.13 155.09 L 638.96 153.18 L 658.78 137.91 L 678.61 145.55 L 698.43 132.18 L 718.26 126.45 L 738.09 139.82 L 757.91 157.00 L 777.74 132.18 L 797.57 151.27 L 817.39 145.55 L 837.22 136.00 L 857.04 128.36 L 876.87 136.00 L 896.70 147.45 L 916.52 160.82 L 936.35 145.55 L 956.17 147.45 L 976.00 134.09 L 976.00 304 Z" fill="url(#fill-daily-slate)"/>
  <polyline class="line" points="64.00,304.00 83.83,172.27 103.65,160.82 123.48,181.82 143.30,242.91 163.13,244.82 182.96,239.09 202.78,237.18 222.61,223.82 242.43,246.73 262.26,252.45 282.09,250.55 301.91,237.18 321.74,220.00 341.57,254.36 361.39,241.00 381.22,179.91 401.04,151.27 420.87,149.36 440.70,52.00 460.52,124.55 480.35,149.36 500.17,116.91 520.00,147.45 539.83,160.82 559.65,147.45 579.48,128.36 599.30,116.91 619.13,155.09 638.96,153.18 658.78,137.91 678.61,145.55 698.43,132.18 718.26,126.45 738.09,139.82 757.91,157.00 777.74,132.18 797.57,151.27 817.39,145.55 837.22,136.00 857.04,128.36 876.87,136.00 896.70,147.45 916.52,160.82 936.35,145.55 956.17,147.45 976.00,134.09"/>
  <circle class="dot" cx="976.00" cy="134.09" r="4.5"/>
  
  <text class="axis" x="64.00" y="336" text-anchor="start">2026-03-10</text>
  <text class="axis" x="242.43" y="336" text-anchor="middle">2026-03-19</text>
  <text class="axis" x="420.87" y="336" text-anchor="middle">2026-03-28</text>
  <text class="axis" x="599.30" y="336" text-anchor="middle">2026-04-06</text>
  <text class="axis" x="777.74" y="336" text-anchor="middle">2026-04-15</text>
  <text class="axis" x="956.17" y="336" text-anchor="middle">2026-04-24</text>
  <text class="axis" x="976.00" y="336" text-anchor="end">2026-04-25</text>
  <text class="latest" x="976" y="34" text-anchor="end">Latest day: 89</text>
</svg>
