<?xml version="1.0" encoding="UTF-8"?>
<svg xmlns="http://www.w3.org/2000/svg" viewBox="0 0 1000 360" role="img" aria-label="hordesmod/kek-ui release downloads chart">
  <defs>
    <linearGradient id="fill-daily-slate" x1="0" y1="0" x2="0" y2="1">
      <stop offset="0%" stop-color="#60a5fa" stop-opacity="0.32"/>
      <stop offset="100%" stop-color="#60a5fa" stop-opacity="0.05"/>
    </linearGradient>
    <style>
      .bg { fill: #0f172a; }
      .title { font: 700 24px Arial, sans-serif; fill: #e2e8f0; }
      .sub { font: 400 13px Arial, sans-serif; fill: #94a3b8; }
      .grid { stroke: #1e293b; stroke-width: 1; }
      .axis { font: 400 12px Arial, sans-serif; fill: #94a3b8; }
      .line { fill: none; stroke: #60a5fa; stroke-width: 3; stroke-linecap: round; stroke-linejoin: round; }
      .dot { fill: #60a5fa; }
      .value { font: 600 11px Arial, sans-serif; fill: #cbd5e1; }
      .latest { font: 700 14px Arial, sans-serif; fill: #e2e8f0; }
    </style>
  </defs>
  <rect class="bg" x="0" y="0" width="1000" height="360" rx="16" />
  <text class="title" x="64" y="34">hordesmod/kek-ui release downloads</text>
  <text class="sub" x="64" y="352">Generated 2026-04-05</text>
  <line x1="64" y1="52.00" x2="976" y2="52.00" class="grid"/>
  <text x="56" y="56.00" text-anchor="end" class="axis">132</text>
  <line x1="64" y1="94.00" x2="976" y2="94.00" class="grid"/>
  <text x="56" y="98.00" text-anchor="end" class="axis">110</text>
  <line x1="64" y1="136.00" x2="976" y2="136.00" class="grid"/>
  <text x="56" y="140.00" text-anchor="end" class="axis">88</text>
  <line x1="64" y1="178.00" x2="976" y2="178.00" class="grid"/>
  <text x="56" y="182.00" text-anchor="end" class="axis">66</text>
  <line x1="64" y1="220.00" x2="976" y2="220.00" class="grid"/>
  <text x="56" y="224.00" text-anchor="end" class="axis">44</text>
  <line x1="64" y1="262.00" x2="976" y2="262.00" class="grid"/>
  <text x="56" y="266.00" text-anchor="end" class="axis">22</text>
  <line x1="64" y1="304.00" x2="976" y2="304.00" class="grid"/>
  <text x="56" y="308.00" text-anchor="end" class="axis">0</text>
  <path d="M 64.00 304 L 64.00 304.00 L 99.08 172.27 L 134.15 160.82 L 169.23 181.82 L 204.31 242.91 L 239.38 244.82 L 274.46 239.09 L 309.54 237.18 L 344.62 223.82 L 379.69 246.73 L 414.77 252.45 L 449.85 250.55 L 484.92 237.18 L 520.00 220.00 L 555.08 254.36 L 590.15 241.00 L 625.23 179.91 L 660.31 151.27 L 695.38 149.36 L 730.46 52.00 L 765.54 124.55 L 800.62 149.36 L 835.69 116.91 L 870.77 147.45 L 905.85 160.82 L 940.92 147.45 L 976.00 128.36 L 976.00 304 Z" fill="url(#fill-daily-slate)"/>
  <polyline class="line" points="64.00,304.00 99.08,172.27 134.15,160.82 169.23,181.82 204.31,242.91 239.38,244.82 274.46,239.09 309.54,237.18 344.62,223.82 379.69,246.73 414.77,252.45 449.85,250.55 484.92,237.18 520.00,220.00 555.08,254.36 590.15,241.00 625.23,179.91 660.31,151.27 695.38,149.36 730.46,52.00 765.54,124.55 800.62,149.36 835.69,116.91 870.77,147.45 905.85,160.82 940.92,147.45 976.00,128.36"/>
  <circle class="dot" cx="976.00" cy="128.36" r="4.5"/>
  
  <text class="axis" x="64.00" y="336" text-anchor="start">2026-03-10</text>
  <text class="axis" x="239.38" y="336" text-anchor="middle">2026-03-15</text>
  <text class="axis" x="414.77" y="336" text-anchor="middle">2026-03-20</text>
  <text class="axis" x="590.15" y="336" text-anchor="middle">2026-03-25</text>
  <text class="axis" x="765.54" y="336" text-anchor="middle">2026-03-30</text>
  <text class="axis" x="940.92" y="336" text-anchor="middle">2026-04-04</text>
  <text class="axis" x="976.00" y="336" text-anchor="end">2026-04-05</text>
  <text class="latest" x="976" y="34" text-anchor="end">Latest day: 92</text>
</svg>
