<?xml version="1.0" encoding="UTF-8"?>
<svg xmlns="http://www.w3.org/2000/svg" viewBox="0 0 1000 360" role="img" aria-label="hordesmod/kek-ui release downloads chart">
  <defs>
    <linearGradient id="fill-daily-orange" x1="0" y1="0" x2="0" y2="1">
      <stop offset="0%" stop-color="#f97316" stop-opacity="0.32"/>
      <stop offset="100%" stop-color="#f97316" stop-opacity="0.05"/>
    </linearGradient>
    <style>
      .bg { fill: #fff7ed; }
      .title { font: 700 24px Arial, sans-serif; fill: #7c2d12; }
      .sub { font: 400 13px Arial, sans-serif; fill: #9a3412; }
      .grid { stroke: #fed7aa; stroke-width: 1; }
      .axis { font: 400 12px Arial, sans-serif; fill: #c2410c; }
      .line { fill: none; stroke: #ea580c; stroke-width: 3; stroke-linecap: round; stroke-linejoin: round; }
      .dot { fill: #ea580c; }
      .value { font: 600 11px Arial, sans-serif; fill: #9a3412; }
      .latest { font: 700 14px Arial, sans-serif; fill: #7c2d12; }
    </style>
  </defs>
  <rect class="bg" x="0" y="0" width="1000" height="360" rx="16" />
  <text class="title" x="64" y="34">hordesmod/kek-ui release downloads</text>
  <text class="sub" x="64" y="352">Generated 2026-05-09</text>
  <line x1="64" y1="52.00" x2="976" y2="52.00" class="grid"/>
  <text x="56" y="56.00" text-anchor="end" class="axis">132</text>
  <line x1="64" y1="94.00" x2="976" y2="94.00" class="grid"/>
  <text x="56" y="98.00" text-anchor="end" class="axis">110</text>
  <line x1="64" y1="136.00" x2="976" y2="136.00" class="grid"/>
  <text x="56" y="140.00" text-anchor="end" class="axis">88</text>
  <line x1="64" y1="178.00" x2="976" y2="178.00" class="grid"/>
  <text x="56" y="182.00" text-anchor="end" class="axis">66</text>
  <line x1="64" y1="220.00" x2="976" y2="220.00" class="grid"/>
  <text x="56" y="224.00" text-anchor="end" class="axis">44</text>
  <line x1="64" y1="262.00" x2="976" y2="262.00" class="grid"/>
  <text x="56" y="266.00" text-anchor="end" class="axis">22</text>
  <line x1="64" y1="304.00" x2="976" y2="304.00" class="grid"/>
  <text x="56" y="308.00" text-anchor="end" class="axis">0</text>
  <path d="M 64.00 304 L 64.00 304.00 L 79.20 172.27 L 94.40 160.82 L 109.60 181.82 L 124.80 242.91 L 140.00 244.82 L 155.20 239.09 L 170.40 237.18 L 185.60 223.82 L 200.80 246.73 L 216.00 252.45 L 231.20 250.55 L 246.40 237.18 L 261.60 220.00 L 276.80 254.36 L 292.00 241.00 L 307.20 179.91 L 322.40 151.27 L 337.60 149.36 L 352.80 52.00 L 368.00 124.55 L 383.20 149.36 L 398.40 116.91 L 413.60 147.45 L 428.80 160.82 L 444.00 147.45 L 459.20 128.36 L 474.40 116.91 L 489.60 155.09 L 504.80 153.18 L 520.00 137.91 L 535.20 145.55 L 550.40 132.18 L 565.60 126.45 L 580.80 139.82 L 596.00 157.00 L 611.20 132.18 L 626.40 151.27 L 641.60 145.55 L 656.80 136.00 L 672.00 128.36 L 687.20 136.00 L 702.40 147.45 L 717.60 160.82 L 732.80 145.55 L 748.00 147.45 L 763.20 134.09 L 778.40 151.27 L 793.60 141.73 L 808.80 145.55 L 824.00 139.82 L 839.20 153.18 L 854.40 145.55 L 869.60 157.00 L 884.80 122.64 L 900.00 134.09 L 915.20 120.73 L 930.40 118.82 L 945.60 155.09 L 960.80 162.73 L 976.00 132.18 L 976.00 304 Z" fill="url(#fill-daily-orange)"/>
  <polyline class="line" points="64.00,304.00 79.20,172.27 94.40,160.82 109.60,181.82 124.80,242.91 140.00,244.82 155.20,239.09 170.40,237.18 185.60,223.82 200.80,246.73 216.00,252.45 231.20,250.55 246.40,237.18 261.60,220.00 276.80,254.36 292.00,241.00 307.20,179.91 322.40,151.27 337.60,149.36 352.80,52.00 368.00,124.55 383.20,149.36 398.40,116.91 413.60,147.45 428.80,160.82 444.00,147.45 459.20,128.36 474.40,116.91 489.60,155.09 504.80,153.18 520.00,137.91 535.20,145.55 550.40,132.18 565.60,126.45 580.80,139.82 596.00,157.00 611.20,132.18 626.40,151.27 641.60,145.55 656.80,136.00 672.00,128.36 687.20,136.00 702.40,147.45 717.60,160.82 732.80,145.55 748.00,147.45 763.20,134.09 778.40,151.27 793.60,141.73 808.80,145.55 824.00,139.82 839.20,153.18 854.40,145.55 869.60,157.00 884.80,122.64 900.00,134.09 915.20,120.73 930.40,118.82 945.60,155.09 960.80,162.73 976.00,132.18"/>
  <circle class="dot" cx="976.00" cy="132.18" r="4.5"/>
  
  <text class="axis" x="64.00" y="336" text-anchor="start">2026-03-10</text>
  <text class="axis" x="246.40" y="336" text-anchor="middle">2026-03-22</text>
  <text class="axis" x="428.80" y="336" text-anchor="middle">2026-04-03</text>
  <text class="axis" x="611.20" y="336" text-anchor="middle">2026-04-15</text>
  <text class="axis" x="793.60" y="336" text-anchor="middle">2026-04-27</text>
  <text class="axis" x="976.00" y="336" text-anchor="end">2026-05-09</text>
  <text class="latest" x="976" y="34" text-anchor="end">Latest day: 90</text>
</svg>
