<?xml version="1.0" encoding="UTF-8"?>
<svg xmlns="http://www.w3.org/2000/svg" viewBox="0 0 1000 360" role="img" aria-label="hordesmod/kek-ui release downloads chart">
  <defs>
    <linearGradient id="fill-daily-slate" x1="0" y1="0" x2="0" y2="1">
      <stop offset="0%" stop-color="#60a5fa" stop-opacity="0.32"/>
      <stop offset="100%" stop-color="#60a5fa" stop-opacity="0.05"/>
    </linearGradient>
    <style>
      .bg { fill: #0f172a; }
      .title { font: 700 24px Arial, sans-serif; fill: #e2e8f0; }
      .sub { font: 400 13px Arial, sans-serif; fill: #94a3b8; }
      .grid { stroke: #1e293b; stroke-width: 1; }
      .axis { font: 400 12px Arial, sans-serif; fill: #94a3b8; }
      .line { fill: none; stroke: #60a5fa; stroke-width: 3; stroke-linecap: round; stroke-linejoin: round; }
      .dot { fill: #60a5fa; }
      .value { font: 600 11px Arial, sans-serif; fill: #cbd5e1; }
      .latest { font: 700 14px Arial, sans-serif; fill: #e2e8f0; }
    </style>
  </defs>
  <rect class="bg" x="0" y="0" width="1000" height="360" rx="16" />
  <text class="title" x="64" y="34">hordesmod/kek-ui release downloads</text>
  <text class="sub" x="64" y="352">Generated 2026-05-04</text>
  <line x1="64" y1="52.00" x2="976" y2="52.00" class="grid"/>
  <text x="56" y="56.00" text-anchor="end" class="axis">132</text>
  <line x1="64" y1="94.00" x2="976" y2="94.00" class="grid"/>
  <text x="56" y="98.00" text-anchor="end" class="axis">110</text>
  <line x1="64" y1="136.00" x2="976" y2="136.00" class="grid"/>
  <text x="56" y="140.00" text-anchor="end" class="axis">88</text>
  <line x1="64" y1="178.00" x2="976" y2="178.00" class="grid"/>
  <text x="56" y="182.00" text-anchor="end" class="axis">66</text>
  <line x1="64" y1="220.00" x2="976" y2="220.00" class="grid"/>
  <text x="56" y="224.00" text-anchor="end" class="axis">44</text>
  <line x1="64" y1="262.00" x2="976" y2="262.00" class="grid"/>
  <text x="56" y="266.00" text-anchor="end" class="axis">22</text>
  <line x1="64" y1="304.00" x2="976" y2="304.00" class="grid"/>
  <text x="56" y="308.00" text-anchor="end" class="axis">0</text>
  <path d="M 64.00 304 L 64.00 304.00 L 80.58 172.27 L 97.16 160.82 L 113.75 181.82 L 130.33 242.91 L 146.91 244.82 L 163.49 239.09 L 180.07 237.18 L 196.65 223.82 L 213.24 246.73 L 229.82 252.45 L 246.40 250.55 L 262.98 237.18 L 279.56 220.00 L 296.15 254.36 L 312.73 241.00 L 329.31 179.91 L 345.89 151.27 L 362.47 149.36 L 379.05 52.00 L 395.64 124.55 L 412.22 149.36 L 428.80 116.91 L 445.38 147.45 L 461.96 160.82 L 478.55 147.45 L 495.13 128.36 L 511.71 116.91 L 528.29 155.09 L 544.87 153.18 L 561.45 137.91 L 578.04 145.55 L 594.62 132.18 L 611.20 126.45 L 627.78 139.82 L 644.36 157.00 L 660.95 132.18 L 677.53 151.27 L 694.11 145.55 L 710.69 136.00 L 727.27 128.36 L 743.85 136.00 L 760.44 147.45 L 777.02 160.82 L 793.60 145.55 L 810.18 147.45 L 826.76 134.09 L 843.35 151.27 L 859.93 141.73 L 876.51 145.55 L 893.09 139.82 L 909.67 153.18 L 926.25 145.55 L 942.84 157.00 L 959.42 122.64 L 976.00 134.09 L 976.00 304 Z" fill="url(#fill-daily-slate)"/>
  <polyline class="line" points="64.00,304.00 80.58,172.27 97.16,160.82 113.75,181.82 130.33,242.91 146.91,244.82 163.49,239.09 180.07,237.18 196.65,223.82 213.24,246.73 229.82,252.45 246.40,250.55 262.98,237.18 279.56,220.00 296.15,254.36 312.73,241.00 329.31,179.91 345.89,151.27 362.47,149.36 379.05,52.00 395.64,124.55 412.22,149.36 428.80,116.91 445.38,147.45 461.96,160.82 478.55,147.45 495.13,128.36 511.71,116.91 528.29,155.09 544.87,153.18 561.45,137.91 578.04,145.55 594.62,132.18 611.20,126.45 627.78,139.82 644.36,157.00 660.95,132.18 677.53,151.27 694.11,145.55 710.69,136.00 727.27,128.36 743.85,136.00 760.44,147.45 777.02,160.82 793.60,145.55 810.18,147.45 826.76,134.09 843.35,151.27 859.93,141.73 876.51,145.55 893.09,139.82 909.67,153.18 926.25,145.55 942.84,157.00 959.42,122.64 976.00,134.09"/>
  <circle class="dot" cx="976.00" cy="134.09" r="4.5"/>
  
  <text class="axis" x="64.00" y="336" text-anchor="start">2026-03-10</text>
  <text class="axis" x="246.40" y="336" text-anchor="middle">2026-03-21</text>
  <text class="axis" x="428.80" y="336" text-anchor="middle">2026-04-01</text>
  <text class="axis" x="611.20" y="336" text-anchor="middle">2026-04-12</text>
  <text class="axis" x="793.60" y="336" text-anchor="middle">2026-04-23</text>
  <text class="axis" x="976.00" y="336" text-anchor="end">2026-05-04</text>
  <text class="latest" x="976" y="34" text-anchor="end">Latest day: 89</text>
</svg>
