<?xml version="1.0" encoding="UTF-8"?>
<svg xmlns="http://www.w3.org/2000/svg" viewBox="0 0 1000 360" role="img" aria-label="hordesmod/kek-ui release downloads chart">
  <defs>
    <linearGradient id="fill-daily-slate" x1="0" y1="0" x2="0" y2="1">
      <stop offset="0%" stop-color="#60a5fa" stop-opacity="0.32"/>
      <stop offset="100%" stop-color="#60a5fa" stop-opacity="0.05"/>
    </linearGradient>
    <style>
      .bg { fill: #0f172a; }
      .title { font: 700 24px Arial, sans-serif; fill: #e2e8f0; }
      .sub { font: 400 13px Arial, sans-serif; fill: #94a3b8; }
      .grid { stroke: #1e293b; stroke-width: 1; }
      .axis { font: 400 12px Arial, sans-serif; fill: #94a3b8; }
      .line { fill: none; stroke: #60a5fa; stroke-width: 3; stroke-linecap: round; stroke-linejoin: round; }
      .dot { fill: #60a5fa; }
      .value { font: 600 11px Arial, sans-serif; fill: #cbd5e1; }
      .latest { font: 700 14px Arial, sans-serif; fill: #e2e8f0; }
    </style>
  </defs>
  <rect class="bg" x="0" y="0" width="1000" height="360" rx="16" />
  <text class="title" x="64" y="34">hordesmod/kek-ui release downloads</text>
  <text class="sub" x="64" y="352">Generated 2026-03-31</text>
  <line x1="64" y1="52.00" x2="976" y2="52.00" class="grid"/>
  <text x="56" y="56.00" text-anchor="end" class="axis">132</text>
  <line x1="64" y1="94.00" x2="976" y2="94.00" class="grid"/>
  <text x="56" y="98.00" text-anchor="end" class="axis">110</text>
  <line x1="64" y1="136.00" x2="976" y2="136.00" class="grid"/>
  <text x="56" y="140.00" text-anchor="end" class="axis">88</text>
  <line x1="64" y1="178.00" x2="976" y2="178.00" class="grid"/>
  <text x="56" y="182.00" text-anchor="end" class="axis">66</text>
  <line x1="64" y1="220.00" x2="976" y2="220.00" class="grid"/>
  <text x="56" y="224.00" text-anchor="end" class="axis">44</text>
  <line x1="64" y1="262.00" x2="976" y2="262.00" class="grid"/>
  <text x="56" y="266.00" text-anchor="end" class="axis">22</text>
  <line x1="64" y1="304.00" x2="976" y2="304.00" class="grid"/>
  <text x="56" y="308.00" text-anchor="end" class="axis">0</text>
  <path d="M 64.00 304 L 64.00 304.00 L 107.43 172.27 L 150.86 160.82 L 194.29 181.82 L 237.71 242.91 L 281.14 244.82 L 324.57 239.09 L 368.00 237.18 L 411.43 223.82 L 454.86 246.73 L 498.29 252.45 L 541.71 250.55 L 585.14 237.18 L 628.57 220.00 L 672.00 254.36 L 715.43 241.00 L 758.86 179.91 L 802.29 151.27 L 845.71 149.36 L 889.14 52.00 L 932.57 124.55 L 976.00 149.36 L 976.00 304 Z" fill="url(#fill-daily-slate)"/>
  <polyline class="line" points="64.00,304.00 107.43,172.27 150.86,160.82 194.29,181.82 237.71,242.91 281.14,244.82 324.57,239.09 368.00,237.18 411.43,223.82 454.86,246.73 498.29,252.45 541.71,250.55 585.14,237.18 628.57,220.00 672.00,254.36 715.43,241.00 758.86,179.91 802.29,151.27 845.71,149.36 889.14,52.00 932.57,124.55 976.00,149.36"/>
  <circle class="dot" cx="976.00" cy="149.36" r="4.5"/>
  
  <text class="axis" x="64.00" y="336" text-anchor="start">2026-03-10</text>
  <text class="axis" x="237.71" y="336" text-anchor="middle">2026-03-14</text>
  <text class="axis" x="411.43" y="336" text-anchor="middle">2026-03-18</text>
  <text class="axis" x="585.14" y="336" text-anchor="middle">2026-03-22</text>
  <text class="axis" x="758.86" y="336" text-anchor="middle">2026-03-26</text>
  <text class="axis" x="932.57" y="336" text-anchor="middle">2026-03-30</text>
  <text class="axis" x="976.00" y="336" text-anchor="end">2026-03-31</text>
  <text class="latest" x="976" y="34" text-anchor="end">Latest day: 81</text>
</svg>
