<?xml version="1.0" encoding="UTF-8"?>
<svg xmlns="http://www.w3.org/2000/svg" viewBox="0 0 1000 360" role="img" aria-label="hordesmod/kek-ui release downloads chart">
  <defs>
    <linearGradient id="fill-daily-black" x1="0" y1="0" x2="0" y2="1">
      <stop offset="0%" stop-color="#22d3ee" stop-opacity="0.32"/>
      <stop offset="100%" stop-color="#22d3ee" stop-opacity="0.05"/>
    </linearGradient>
    <style>
      .bg { fill: #0b0b0d; }
      .title { font: 700 24px Arial, sans-serif; fill: #f8fafc; }
      .sub { font: 400 13px Arial, sans-serif; fill: #cbd5e1; }
      .grid { stroke: #1f2937; stroke-width: 1; }
      .axis { font: 400 12px Arial, sans-serif; fill: #94a3b8; }
      .line { fill: none; stroke: #22d3ee; stroke-width: 3; stroke-linecap: round; stroke-linejoin: round; }
      .dot { fill: #22d3ee; }
      .value { font: 600 11px Arial, sans-serif; fill: #cbd5e1; }
      .latest { font: 700 14px Arial, sans-serif; fill: #f8fafc; }
    </style>
  </defs>
  <rect class="bg" x="0" y="0" width="1000" height="360" rx="16" />
  <text class="title" x="64" y="34">hordesmod/kek-ui release downloads</text>
  <text class="sub" x="64" y="352">Generated 2026-05-08</text>
  <line x1="64" y1="52.00" x2="976" y2="52.00" class="grid"/>
  <text x="56" y="56.00" text-anchor="end" class="axis">132</text>
  <line x1="64" y1="94.00" x2="976" y2="94.00" class="grid"/>
  <text x="56" y="98.00" text-anchor="end" class="axis">110</text>
  <line x1="64" y1="136.00" x2="976" y2="136.00" class="grid"/>
  <text x="56" y="140.00" text-anchor="end" class="axis">88</text>
  <line x1="64" y1="178.00" x2="976" y2="178.00" class="grid"/>
  <text x="56" y="182.00" text-anchor="end" class="axis">66</text>
  <line x1="64" y1="220.00" x2="976" y2="220.00" class="grid"/>
  <text x="56" y="224.00" text-anchor="end" class="axis">44</text>
  <line x1="64" y1="262.00" x2="976" y2="262.00" class="grid"/>
  <text x="56" y="266.00" text-anchor="end" class="axis">22</text>
  <line x1="64" y1="304.00" x2="976" y2="304.00" class="grid"/>
  <text x="56" y="308.00" text-anchor="end" class="axis">0</text>
  <path d="M 64.00 304 L 64.00 304.00 L 79.46 172.27 L 94.92 160.82 L 110.37 181.82 L 125.83 242.91 L 141.29 244.82 L 156.75 239.09 L 172.20 237.18 L 187.66 223.82 L 203.12 246.73 L 218.58 252.45 L 234.03 250.55 L 249.49 237.18 L 264.95 220.00 L 280.41 254.36 L 295.86 241.00 L 311.32 179.91 L 326.78 151.27 L 342.24 149.36 L 357.69 52.00 L 373.15 124.55 L 388.61 149.36 L 404.07 116.91 L 419.53 147.45 L 434.98 160.82 L 450.44 147.45 L 465.90 128.36 L 481.36 116.91 L 496.81 155.09 L 512.27 153.18 L 527.73 137.91 L 543.19 145.55 L 558.64 132.18 L 574.10 126.45 L 589.56 139.82 L 605.02 157.00 L 620.47 132.18 L 635.93 151.27 L 651.39 145.55 L 666.85 136.00 L 682.31 128.36 L 697.76 136.00 L 713.22 147.45 L 728.68 160.82 L 744.14 145.55 L 759.59 147.45 L 775.05 134.09 L 790.51 151.27 L 805.97 141.73 L 821.42 145.55 L 836.88 139.82 L 852.34 153.18 L 867.80 145.55 L 883.25 157.00 L 898.71 122.64 L 914.17 134.09 L 929.63 120.73 L 945.08 118.82 L 960.54 155.09 L 976.00 162.73 L 976.00 304 Z" fill="url(#fill-daily-black)"/>
  <polyline class="line" points="64.00,304.00 79.46,172.27 94.92,160.82 110.37,181.82 125.83,242.91 141.29,244.82 156.75,239.09 172.20,237.18 187.66,223.82 203.12,246.73 218.58,252.45 234.03,250.55 249.49,237.18 264.95,220.00 280.41,254.36 295.86,241.00 311.32,179.91 326.78,151.27 342.24,149.36 357.69,52.00 373.15,124.55 388.61,149.36 404.07,116.91 419.53,147.45 434.98,160.82 450.44,147.45 465.90,128.36 481.36,116.91 496.81,155.09 512.27,153.18 527.73,137.91 543.19,145.55 558.64,132.18 574.10,126.45 589.56,139.82 605.02,157.00 620.47,132.18 635.93,151.27 651.39,145.55 666.85,136.00 682.31,128.36 697.76,136.00 713.22,147.45 728.68,160.82 744.14,145.55 759.59,147.45 775.05,134.09 790.51,151.27 805.97,141.73 821.42,145.55 836.88,139.82 852.34,153.18 867.80,145.55 883.25,157.00 898.71,122.64 914.17,134.09 929.63,120.73 945.08,118.82 960.54,155.09 976.00,162.73"/>
  <circle class="dot" cx="976.00" cy="162.73" r="4.5"/>
  
  <text class="axis" x="64.00" y="336" text-anchor="start">2026-03-10</text>
  <text class="axis" x="234.03" y="336" text-anchor="middle">2026-03-21</text>
  <text class="axis" x="404.07" y="336" text-anchor="middle">2026-04-01</text>
  <text class="axis" x="574.10" y="336" text-anchor="middle">2026-04-12</text>
  <text class="axis" x="744.14" y="336" text-anchor="middle">2026-04-23</text>
  <text class="axis" x="914.17" y="336" text-anchor="middle">2026-05-04</text>
  <text class="axis" x="976.00" y="336" text-anchor="end">2026-05-08</text>
  <text class="latest" x="976" y="34" text-anchor="end">Latest day: 74</text>
</svg>
