<?xml version="1.0" encoding="UTF-8"?>
<svg xmlns="http://www.w3.org/2000/svg" viewBox="0 0 1000 360" role="img" aria-label="hordesmod/kek-ui release downloads chart">
  <defs>
    <linearGradient id="fill-daily-slate" x1="0" y1="0" x2="0" y2="1">
      <stop offset="0%" stop-color="#60a5fa" stop-opacity="0.32"/>
      <stop offset="100%" stop-color="#60a5fa" stop-opacity="0.05"/>
    </linearGradient>
    <style>
      .bg { fill: #0f172a; }
      .title { font: 700 24px Arial, sans-serif; fill: #e2e8f0; }
      .sub { font: 400 13px Arial, sans-serif; fill: #94a3b8; }
      .grid { stroke: #1e293b; stroke-width: 1; }
      .axis { font: 400 12px Arial, sans-serif; fill: #94a3b8; }
      .line { fill: none; stroke: #60a5fa; stroke-width: 3; stroke-linecap: round; stroke-linejoin: round; }
      .dot { fill: #60a5fa; }
      .value { font: 600 11px Arial, sans-serif; fill: #cbd5e1; }
      .latest { font: 700 14px Arial, sans-serif; fill: #e2e8f0; }
    </style>
  </defs>
  <rect class="bg" x="0" y="0" width="1000" height="360" rx="16" />
  <text class="title" x="64" y="34">hordesmod/kek-ui release downloads</text>
  <text class="sub" x="64" y="352">Generated 2026-04-23</text>
  <line x1="64" y1="52.00" x2="976" y2="52.00" class="grid"/>
  <text x="56" y="56.00" text-anchor="end" class="axis">132</text>
  <line x1="64" y1="94.00" x2="976" y2="94.00" class="grid"/>
  <text x="56" y="98.00" text-anchor="end" class="axis">110</text>
  <line x1="64" y1="136.00" x2="976" y2="136.00" class="grid"/>
  <text x="56" y="140.00" text-anchor="end" class="axis">88</text>
  <line x1="64" y1="178.00" x2="976" y2="178.00" class="grid"/>
  <text x="56" y="182.00" text-anchor="end" class="axis">66</text>
  <line x1="64" y1="220.00" x2="976" y2="220.00" class="grid"/>
  <text x="56" y="224.00" text-anchor="end" class="axis">44</text>
  <line x1="64" y1="262.00" x2="976" y2="262.00" class="grid"/>
  <text x="56" y="266.00" text-anchor="end" class="axis">22</text>
  <line x1="64" y1="304.00" x2="976" y2="304.00" class="grid"/>
  <text x="56" y="308.00" text-anchor="end" class="axis">0</text>
  <path d="M 64.00 304 L 64.00 304.00 L 84.73 172.27 L 105.45 160.82 L 126.18 181.82 L 146.91 242.91 L 167.64 244.82 L 188.36 239.09 L 209.09 237.18 L 229.82 223.82 L 250.55 246.73 L 271.27 252.45 L 292.00 250.55 L 312.73 237.18 L 333.45 220.00 L 354.18 254.36 L 374.91 241.00 L 395.64 179.91 L 416.36 151.27 L 437.09 149.36 L 457.82 52.00 L 478.55 124.55 L 499.27 149.36 L 520.00 116.91 L 540.73 147.45 L 561.45 160.82 L 582.18 147.45 L 602.91 128.36 L 623.64 116.91 L 644.36 155.09 L 665.09 153.18 L 685.82 137.91 L 706.55 145.55 L 727.27 132.18 L 748.00 126.45 L 768.73 139.82 L 789.45 157.00 L 810.18 132.18 L 830.91 151.27 L 851.64 145.55 L 872.36 136.00 L 893.09 128.36 L 913.82 136.00 L 934.55 147.45 L 955.27 160.82 L 976.00 145.55 L 976.00 304 Z" fill="url(#fill-daily-slate)"/>
  <polyline class="line" points="64.00,304.00 84.73,172.27 105.45,160.82 126.18,181.82 146.91,242.91 167.64,244.82 188.36,239.09 209.09,237.18 229.82,223.82 250.55,246.73 271.27,252.45 292.00,250.55 312.73,237.18 333.45,220.00 354.18,254.36 374.91,241.00 395.64,179.91 416.36,151.27 437.09,149.36 457.82,52.00 478.55,124.55 499.27,149.36 520.00,116.91 540.73,147.45 561.45,160.82 582.18,147.45 602.91,128.36 623.64,116.91 644.36,155.09 665.09,153.18 685.82,137.91 706.55,145.55 727.27,132.18 748.00,126.45 768.73,139.82 789.45,157.00 810.18,132.18 830.91,151.27 851.64,145.55 872.36,136.00 893.09,128.36 913.82,136.00 934.55,147.45 955.27,160.82 976.00,145.55"/>
  <circle class="dot" cx="976.00" cy="145.55" r="4.5"/>
  
  <text class="axis" x="64.00" y="336" text-anchor="start">2026-03-10</text>
  <text class="axis" x="229.82" y="336" text-anchor="middle">2026-03-18</text>
  <text class="axis" x="395.64" y="336" text-anchor="middle">2026-03-26</text>
  <text class="axis" x="561.45" y="336" text-anchor="middle">2026-04-03</text>
  <text class="axis" x="727.27" y="336" text-anchor="middle">2026-04-11</text>
  <text class="axis" x="893.09" y="336" text-anchor="middle">2026-04-19</text>
  <text class="axis" x="976.00" y="336" text-anchor="end">2026-04-23</text>
  <text class="latest" x="976" y="34" text-anchor="end">Latest day: 83</text>
</svg>
