<?xml version="1.0" encoding="UTF-8"?>
<svg xmlns="http://www.w3.org/2000/svg" viewBox="0 0 1000 360" role="img" aria-label="hordesmod/kek-ui release downloads chart">
  <defs>
    <linearGradient id="fill-daily-black" x1="0" y1="0" x2="0" y2="1">
      <stop offset="0%" stop-color="#22d3ee" stop-opacity="0.32"/>
      <stop offset="100%" stop-color="#22d3ee" stop-opacity="0.05"/>
    </linearGradient>
    <style>
      .bg { fill: #0b0b0d; }
      .title { font: 700 24px Arial, sans-serif; fill: #f8fafc; }
      .sub { font: 400 13px Arial, sans-serif; fill: #cbd5e1; }
      .grid { stroke: #1f2937; stroke-width: 1; }
      .axis { font: 400 12px Arial, sans-serif; fill: #94a3b8; }
      .line { fill: none; stroke: #22d3ee; stroke-width: 3; stroke-linecap: round; stroke-linejoin: round; }
      .dot { fill: #22d3ee; }
      .value { font: 600 11px Arial, sans-serif; fill: #cbd5e1; }
      .latest { font: 700 14px Arial, sans-serif; fill: #f8fafc; }
    </style>
  </defs>
  <rect class="bg" x="0" y="0" width="1000" height="360" rx="16" />
  <text class="title" x="64" y="34">hordesmod/kek-ui release downloads</text>
  <text class="sub" x="64" y="352">Generated 2026-05-01</text>
  <line x1="64" y1="52.00" x2="976" y2="52.00" class="grid"/>
  <text x="56" y="56.00" text-anchor="end" class="axis">132</text>
  <line x1="64" y1="94.00" x2="976" y2="94.00" class="grid"/>
  <text x="56" y="98.00" text-anchor="end" class="axis">110</text>
  <line x1="64" y1="136.00" x2="976" y2="136.00" class="grid"/>
  <text x="56" y="140.00" text-anchor="end" class="axis">88</text>
  <line x1="64" y1="178.00" x2="976" y2="178.00" class="grid"/>
  <text x="56" y="182.00" text-anchor="end" class="axis">66</text>
  <line x1="64" y1="220.00" x2="976" y2="220.00" class="grid"/>
  <text x="56" y="224.00" text-anchor="end" class="axis">44</text>
  <line x1="64" y1="262.00" x2="976" y2="262.00" class="grid"/>
  <text x="56" y="266.00" text-anchor="end" class="axis">22</text>
  <line x1="64" y1="304.00" x2="976" y2="304.00" class="grid"/>
  <text x="56" y="308.00" text-anchor="end" class="axis">0</text>
  <path d="M 64.00 304 L 64.00 304.00 L 81.54 172.27 L 99.08 160.82 L 116.62 181.82 L 134.15 242.91 L 151.69 244.82 L 169.23 239.09 L 186.77 237.18 L 204.31 223.82 L 221.85 246.73 L 239.38 252.45 L 256.92 250.55 L 274.46 237.18 L 292.00 220.00 L 309.54 254.36 L 327.08 241.00 L 344.62 179.91 L 362.15 151.27 L 379.69 149.36 L 397.23 52.00 L 414.77 124.55 L 432.31 149.36 L 449.85 116.91 L 467.38 147.45 L 484.92 160.82 L 502.46 147.45 L 520.00 128.36 L 537.54 116.91 L 555.08 155.09 L 572.62 153.18 L 590.15 137.91 L 607.69 145.55 L 625.23 132.18 L 642.77 126.45 L 660.31 139.82 L 677.85 157.00 L 695.38 132.18 L 712.92 151.27 L 730.46 145.55 L 748.00 136.00 L 765.54 128.36 L 783.08 136.00 L 800.62 147.45 L 818.15 160.82 L 835.69 145.55 L 853.23 147.45 L 870.77 134.09 L 888.31 151.27 L 905.85 141.73 L 923.38 145.55 L 940.92 139.82 L 958.46 153.18 L 976.00 145.55 L 976.00 304 Z" fill="url(#fill-daily-black)"/>
  <polyline class="line" points="64.00,304.00 81.54,172.27 99.08,160.82 116.62,181.82 134.15,242.91 151.69,244.82 169.23,239.09 186.77,237.18 204.31,223.82 221.85,246.73 239.38,252.45 256.92,250.55 274.46,237.18 292.00,220.00 309.54,254.36 327.08,241.00 344.62,179.91 362.15,151.27 379.69,149.36 397.23,52.00 414.77,124.55 432.31,149.36 449.85,116.91 467.38,147.45 484.92,160.82 502.46,147.45 520.00,128.36 537.54,116.91 555.08,155.09 572.62,153.18 590.15,137.91 607.69,145.55 625.23,132.18 642.77,126.45 660.31,139.82 677.85,157.00 695.38,132.18 712.92,151.27 730.46,145.55 748.00,136.00 765.54,128.36 783.08,136.00 800.62,147.45 818.15,160.82 835.69,145.55 853.23,147.45 870.77,134.09 888.31,151.27 905.85,141.73 923.38,145.55 940.92,139.82 958.46,153.18 976.00,145.55"/>
  <circle class="dot" cx="976.00" cy="145.55" r="4.5"/>
  
  <text class="axis" x="64.00" y="336" text-anchor="start">2026-03-10</text>
  <text class="axis" x="239.38" y="336" text-anchor="middle">2026-03-20</text>
  <text class="axis" x="414.77" y="336" text-anchor="middle">2026-03-30</text>
  <text class="axis" x="590.15" y="336" text-anchor="middle">2026-04-09</text>
  <text class="axis" x="765.54" y="336" text-anchor="middle">2026-04-19</text>
  <text class="axis" x="940.92" y="336" text-anchor="middle">2026-04-29</text>
  <text class="axis" x="976.00" y="336" text-anchor="end">2026-05-01</text>
  <text class="latest" x="976" y="34" text-anchor="end">Latest day: 83</text>
</svg>
