<?xml version="1.0" encoding="UTF-8"?>
<svg xmlns="http://www.w3.org/2000/svg" viewBox="0 0 1000 360" role="img" aria-label="hordesmod/kek-ui release downloads chart">
  <defs>
    <linearGradient id="fill-daily-orange" x1="0" y1="0" x2="0" y2="1">
      <stop offset="0%" stop-color="#f97316" stop-opacity="0.32"/>
      <stop offset="100%" stop-color="#f97316" stop-opacity="0.05"/>
    </linearGradient>
    <style>
      .bg { fill: #fff7ed; }
      .title { font: 700 24px Arial, sans-serif; fill: #7c2d12; }
      .sub { font: 400 13px Arial, sans-serif; fill: #9a3412; }
      .grid { stroke: #fed7aa; stroke-width: 1; }
      .axis { font: 400 12px Arial, sans-serif; fill: #c2410c; }
      .line { fill: none; stroke: #ea580c; stroke-width: 3; stroke-linecap: round; stroke-linejoin: round; }
      .dot { fill: #ea580c; }
      .value { font: 600 11px Arial, sans-serif; fill: #9a3412; }
      .latest { font: 700 14px Arial, sans-serif; fill: #7c2d12; }
    </style>
  </defs>
  <rect class="bg" x="0" y="0" width="1000" height="360" rx="16" />
  <text class="title" x="64" y="34">hordesmod/kek-ui release downloads</text>
  <text class="sub" x="64" y="352">Generated 2026-04-02</text>
  <line x1="64" y1="52.00" x2="976" y2="52.00" class="grid"/>
  <text x="56" y="56.00" text-anchor="end" class="axis">132</text>
  <line x1="64" y1="94.00" x2="976" y2="94.00" class="grid"/>
  <text x="56" y="98.00" text-anchor="end" class="axis">110</text>
  <line x1="64" y1="136.00" x2="976" y2="136.00" class="grid"/>
  <text x="56" y="140.00" text-anchor="end" class="axis">88</text>
  <line x1="64" y1="178.00" x2="976" y2="178.00" class="grid"/>
  <text x="56" y="182.00" text-anchor="end" class="axis">66</text>
  <line x1="64" y1="220.00" x2="976" y2="220.00" class="grid"/>
  <text x="56" y="224.00" text-anchor="end" class="axis">44</text>
  <line x1="64" y1="262.00" x2="976" y2="262.00" class="grid"/>
  <text x="56" y="266.00" text-anchor="end" class="axis">22</text>
  <line x1="64" y1="304.00" x2="976" y2="304.00" class="grid"/>
  <text x="56" y="308.00" text-anchor="end" class="axis">0</text>
  <path d="M 64.00 304 L 64.00 304.00 L 103.65 172.27 L 143.30 160.82 L 182.96 181.82 L 222.61 242.91 L 262.26 244.82 L 301.91 239.09 L 341.57 237.18 L 381.22 223.82 L 420.87 246.73 L 460.52 252.45 L 500.17 250.55 L 539.83 237.18 L 579.48 220.00 L 619.13 254.36 L 658.78 241.00 L 698.43 179.91 L 738.09 151.27 L 777.74 149.36 L 817.39 52.00 L 857.04 124.55 L 896.70 149.36 L 936.35 116.91 L 976.00 147.45 L 976.00 304 Z" fill="url(#fill-daily-orange)"/>
  <polyline class="line" points="64.00,304.00 103.65,172.27 143.30,160.82 182.96,181.82 222.61,242.91 262.26,244.82 301.91,239.09 341.57,237.18 381.22,223.82 420.87,246.73 460.52,252.45 500.17,250.55 539.83,237.18 579.48,220.00 619.13,254.36 658.78,241.00 698.43,179.91 738.09,151.27 777.74,149.36 817.39,52.00 857.04,124.55 896.70,149.36 936.35,116.91 976.00,147.45"/>
  <circle class="dot" cx="976.00" cy="147.45" r="4.5"/>
  
  <text class="axis" x="64.00" y="336" text-anchor="start">2026-03-10</text>
  <text class="axis" x="222.61" y="336" text-anchor="middle">2026-03-14</text>
  <text class="axis" x="381.22" y="336" text-anchor="middle">2026-03-18</text>
  <text class="axis" x="539.83" y="336" text-anchor="middle">2026-03-22</text>
  <text class="axis" x="698.43" y="336" text-anchor="middle">2026-03-26</text>
  <text class="axis" x="857.04" y="336" text-anchor="middle">2026-03-30</text>
  <text class="axis" x="976.00" y="336" text-anchor="end">2026-04-02</text>
  <text class="latest" x="976" y="34" text-anchor="end">Latest day: 82</text>
</svg>
