<?xml version="1.0" encoding="UTF-8"?>
<svg xmlns="http://www.w3.org/2000/svg" viewBox="0 0 1000 360" role="img" aria-label="hordesmod/kek-ui release downloads chart">
  <defs>
    <linearGradient id="fill-daily-orange" x1="0" y1="0" x2="0" y2="1">
      <stop offset="0%" stop-color="#f97316" stop-opacity="0.32"/>
      <stop offset="100%" stop-color="#f97316" stop-opacity="0.05"/>
    </linearGradient>
    <style>
      .bg { fill: #fff7ed; }
      .title { font: 700 24px Arial, sans-serif; fill: #7c2d12; }
      .sub { font: 400 13px Arial, sans-serif; fill: #9a3412; }
      .grid { stroke: #fed7aa; stroke-width: 1; }
      .axis { font: 400 12px Arial, sans-serif; fill: #c2410c; }
      .line { fill: none; stroke: #ea580c; stroke-width: 3; stroke-linecap: round; stroke-linejoin: round; }
      .dot { fill: #ea580c; }
      .value { font: 600 11px Arial, sans-serif; fill: #9a3412; }
      .latest { font: 700 14px Arial, sans-serif; fill: #7c2d12; }
    </style>
  </defs>
  <rect class="bg" x="0" y="0" width="1000" height="360" rx="16" />
  <text class="title" x="64" y="34">hordesmod/kek-ui release downloads</text>
  <text class="sub" x="64" y="352">Generated 2026-05-02</text>
  <line x1="64" y1="52.00" x2="976" y2="52.00" class="grid"/>
  <text x="56" y="56.00" text-anchor="end" class="axis">132</text>
  <line x1="64" y1="94.00" x2="976" y2="94.00" class="grid"/>
  <text x="56" y="98.00" text-anchor="end" class="axis">110</text>
  <line x1="64" y1="136.00" x2="976" y2="136.00" class="grid"/>
  <text x="56" y="140.00" text-anchor="end" class="axis">88</text>
  <line x1="64" y1="178.00" x2="976" y2="178.00" class="grid"/>
  <text x="56" y="182.00" text-anchor="end" class="axis">66</text>
  <line x1="64" y1="220.00" x2="976" y2="220.00" class="grid"/>
  <text x="56" y="224.00" text-anchor="end" class="axis">44</text>
  <line x1="64" y1="262.00" x2="976" y2="262.00" class="grid"/>
  <text x="56" y="266.00" text-anchor="end" class="axis">22</text>
  <line x1="64" y1="304.00" x2="976" y2="304.00" class="grid"/>
  <text x="56" y="308.00" text-anchor="end" class="axis">0</text>
  <path d="M 64.00 304 L 64.00 304.00 L 81.21 172.27 L 98.42 160.82 L 115.62 181.82 L 132.83 242.91 L 150.04 244.82 L 167.25 239.09 L 184.45 237.18 L 201.66 223.82 L 218.87 246.73 L 236.08 252.45 L 253.28 250.55 L 270.49 237.18 L 287.70 220.00 L 304.91 254.36 L 322.11 241.00 L 339.32 179.91 L 356.53 151.27 L 373.74 149.36 L 390.94 52.00 L 408.15 124.55 L 425.36 149.36 L 442.57 116.91 L 459.77 147.45 L 476.98 160.82 L 494.19 147.45 L 511.40 128.36 L 528.60 116.91 L 545.81 155.09 L 563.02 153.18 L 580.23 137.91 L 597.43 145.55 L 614.64 132.18 L 631.85 126.45 L 649.06 139.82 L 666.26 157.00 L 683.47 132.18 L 700.68 151.27 L 717.89 145.55 L 735.09 136.00 L 752.30 128.36 L 769.51 136.00 L 786.72 147.45 L 803.92 160.82 L 821.13 145.55 L 838.34 147.45 L 855.55 134.09 L 872.75 151.27 L 889.96 141.73 L 907.17 145.55 L 924.38 139.82 L 941.58 153.18 L 958.79 145.55 L 976.00 157.00 L 976.00 304 Z" fill="url(#fill-daily-orange)"/>
  <polyline class="line" points="64.00,304.00 81.21,172.27 98.42,160.82 115.62,181.82 132.83,242.91 150.04,244.82 167.25,239.09 184.45,237.18 201.66,223.82 218.87,246.73 236.08,252.45 253.28,250.55 270.49,237.18 287.70,220.00 304.91,254.36 322.11,241.00 339.32,179.91 356.53,151.27 373.74,149.36 390.94,52.00 408.15,124.55 425.36,149.36 442.57,116.91 459.77,147.45 476.98,160.82 494.19,147.45 511.40,128.36 528.60,116.91 545.81,155.09 563.02,153.18 580.23,137.91 597.43,145.55 614.64,132.18 631.85,126.45 649.06,139.82 666.26,157.00 683.47,132.18 700.68,151.27 717.89,145.55 735.09,136.00 752.30,128.36 769.51,136.00 786.72,147.45 803.92,160.82 821.13,145.55 838.34,147.45 855.55,134.09 872.75,151.27 889.96,141.73 907.17,145.55 924.38,139.82 941.58,153.18 958.79,145.55 976.00,157.00"/>
  <circle class="dot" cx="976.00" cy="157.00" r="4.5"/>
  
  <text class="axis" x="64.00" y="336" text-anchor="start">2026-03-10</text>
  <text class="axis" x="236.08" y="336" text-anchor="middle">2026-03-20</text>
  <text class="axis" x="408.15" y="336" text-anchor="middle">2026-03-30</text>
  <text class="axis" x="580.23" y="336" text-anchor="middle">2026-04-09</text>
  <text class="axis" x="752.30" y="336" text-anchor="middle">2026-04-19</text>
  <text class="axis" x="924.38" y="336" text-anchor="middle">2026-04-29</text>
  <text class="axis" x="976.00" y="336" text-anchor="end">2026-05-02</text>
  <text class="latest" x="976" y="34" text-anchor="end">Latest day: 77</text>
</svg>
