<?xml version="1.0" encoding="UTF-8"?>
<svg xmlns="http://www.w3.org/2000/svg" viewBox="0 0 1000 360" role="img" aria-label="hordesmod/kek-ui release downloads chart">
  <defs>
    <linearGradient id="fill-daily-slate" x1="0" y1="0" x2="0" y2="1">
      <stop offset="0%" stop-color="#60a5fa" stop-opacity="0.32"/>
      <stop offset="100%" stop-color="#60a5fa" stop-opacity="0.05"/>
    </linearGradient>
    <style>
      .bg { fill: #0f172a; }
      .title { font: 700 24px Arial, sans-serif; fill: #e2e8f0; }
      .sub { font: 400 13px Arial, sans-serif; fill: #94a3b8; }
      .grid { stroke: #1e293b; stroke-width: 1; }
      .axis { font: 400 12px Arial, sans-serif; fill: #94a3b8; }
      .line { fill: none; stroke: #60a5fa; stroke-width: 3; stroke-linecap: round; stroke-linejoin: round; }
      .dot { fill: #60a5fa; }
      .value { font: 600 11px Arial, sans-serif; fill: #cbd5e1; }
      .latest { font: 700 14px Arial, sans-serif; fill: #e2e8f0; }
    </style>
  </defs>
  <rect class="bg" x="0" y="0" width="1000" height="360" rx="16" />
  <text class="title" x="64" y="34">hordesmod/kek-ui release downloads</text>
  <text class="sub" x="64" y="352">Generated 2026-04-06</text>
  <line x1="64" y1="52.00" x2="976" y2="52.00" class="grid"/>
  <text x="56" y="56.00" text-anchor="end" class="axis">132</text>
  <line x1="64" y1="94.00" x2="976" y2="94.00" class="grid"/>
  <text x="56" y="98.00" text-anchor="end" class="axis">110</text>
  <line x1="64" y1="136.00" x2="976" y2="136.00" class="grid"/>
  <text x="56" y="140.00" text-anchor="end" class="axis">88</text>
  <line x1="64" y1="178.00" x2="976" y2="178.00" class="grid"/>
  <text x="56" y="182.00" text-anchor="end" class="axis">66</text>
  <line x1="64" y1="220.00" x2="976" y2="220.00" class="grid"/>
  <text x="56" y="224.00" text-anchor="end" class="axis">44</text>
  <line x1="64" y1="262.00" x2="976" y2="262.00" class="grid"/>
  <text x="56" y="266.00" text-anchor="end" class="axis">22</text>
  <line x1="64" y1="304.00" x2="976" y2="304.00" class="grid"/>
  <text x="56" y="308.00" text-anchor="end" class="axis">0</text>
  <path d="M 64.00 304 L 64.00 304.00 L 97.78 172.27 L 131.56 160.82 L 165.33 181.82 L 199.11 242.91 L 232.89 244.82 L 266.67 239.09 L 300.44 237.18 L 334.22 223.82 L 368.00 246.73 L 401.78 252.45 L 435.56 250.55 L 469.33 237.18 L 503.11 220.00 L 536.89 254.36 L 570.67 241.00 L 604.44 179.91 L 638.22 151.27 L 672.00 149.36 L 705.78 52.00 L 739.56 124.55 L 773.33 149.36 L 807.11 116.91 L 840.89 147.45 L 874.67 160.82 L 908.44 147.45 L 942.22 128.36 L 976.00 116.91 L 976.00 304 Z" fill="url(#fill-daily-slate)"/>
  <polyline class="line" points="64.00,304.00 97.78,172.27 131.56,160.82 165.33,181.82 199.11,242.91 232.89,244.82 266.67,239.09 300.44,237.18 334.22,223.82 368.00,246.73 401.78,252.45 435.56,250.55 469.33,237.18 503.11,220.00 536.89,254.36 570.67,241.00 604.44,179.91 638.22,151.27 672.00,149.36 705.78,52.00 739.56,124.55 773.33,149.36 807.11,116.91 840.89,147.45 874.67,160.82 908.44,147.45 942.22,128.36 976.00,116.91"/>
  <circle class="dot" cx="976.00" cy="116.91" r="4.5"/>
  
  <text class="axis" x="64.00" y="336" text-anchor="start">2026-03-10</text>
  <text class="axis" x="232.89" y="336" text-anchor="middle">2026-03-15</text>
  <text class="axis" x="401.78" y="336" text-anchor="middle">2026-03-20</text>
  <text class="axis" x="570.67" y="336" text-anchor="middle">2026-03-25</text>
  <text class="axis" x="739.56" y="336" text-anchor="middle">2026-03-30</text>
  <text class="axis" x="908.44" y="336" text-anchor="middle">2026-04-04</text>
  <text class="axis" x="976.00" y="336" text-anchor="end">2026-04-06</text>
  <text class="latest" x="976" y="34" text-anchor="end">Latest day: 98</text>
</svg>
