<?xml version="1.0" encoding="UTF-8"?>
<svg xmlns="http://www.w3.org/2000/svg" viewBox="0 0 1000 360" role="img" aria-label="hordesmod/kek-ui release downloads chart">
  <defs>
    <linearGradient id="fill-daily-black" x1="0" y1="0" x2="0" y2="1">
      <stop offset="0%" stop-color="#22d3ee" stop-opacity="0.32"/>
      <stop offset="100%" stop-color="#22d3ee" stop-opacity="0.05"/>
    </linearGradient>
    <style>
      .bg { fill: #0b0b0d; }
      .title { font: 700 24px Arial, sans-serif; fill: #f8fafc; }
      .sub { font: 400 13px Arial, sans-serif; fill: #cbd5e1; }
      .grid { stroke: #1f2937; stroke-width: 1; }
      .axis { font: 400 12px Arial, sans-serif; fill: #94a3b8; }
      .line { fill: none; stroke: #22d3ee; stroke-width: 3; stroke-linecap: round; stroke-linejoin: round; }
      .dot { fill: #22d3ee; }
      .value { font: 600 11px Arial, sans-serif; fill: #cbd5e1; }
      .latest { font: 700 14px Arial, sans-serif; fill: #f8fafc; }
    </style>
  </defs>
  <rect class="bg" x="0" y="0" width="1000" height="360" rx="16" />
  <text class="title" x="64" y="34">hordesmod/kek-ui release downloads</text>
  <text class="sub" x="64" y="352">Generated 2026-04-04</text>
  <line x1="64" y1="52.00" x2="976" y2="52.00" class="grid"/>
  <text x="56" y="56.00" text-anchor="end" class="axis">132</text>
  <line x1="64" y1="94.00" x2="976" y2="94.00" class="grid"/>
  <text x="56" y="98.00" text-anchor="end" class="axis">110</text>
  <line x1="64" y1="136.00" x2="976" y2="136.00" class="grid"/>
  <text x="56" y="140.00" text-anchor="end" class="axis">88</text>
  <line x1="64" y1="178.00" x2="976" y2="178.00" class="grid"/>
  <text x="56" y="182.00" text-anchor="end" class="axis">66</text>
  <line x1="64" y1="220.00" x2="976" y2="220.00" class="grid"/>
  <text x="56" y="224.00" text-anchor="end" class="axis">44</text>
  <line x1="64" y1="262.00" x2="976" y2="262.00" class="grid"/>
  <text x="56" y="266.00" text-anchor="end" class="axis">22</text>
  <line x1="64" y1="304.00" x2="976" y2="304.00" class="grid"/>
  <text x="56" y="308.00" text-anchor="end" class="axis">0</text>
  <path d="M 64.00 304 L 64.00 304.00 L 100.48 172.27 L 136.96 160.82 L 173.44 181.82 L 209.92 242.91 L 246.40 244.82 L 282.88 239.09 L 319.36 237.18 L 355.84 223.82 L 392.32 246.73 L 428.80 252.45 L 465.28 250.55 L 501.76 237.18 L 538.24 220.00 L 574.72 254.36 L 611.20 241.00 L 647.68 179.91 L 684.16 151.27 L 720.64 149.36 L 757.12 52.00 L 793.60 124.55 L 830.08 149.36 L 866.56 116.91 L 903.04 147.45 L 939.52 160.82 L 976.00 147.45 L 976.00 304 Z" fill="url(#fill-daily-black)"/>
  <polyline class="line" points="64.00,304.00 100.48,172.27 136.96,160.82 173.44,181.82 209.92,242.91 246.40,244.82 282.88,239.09 319.36,237.18 355.84,223.82 392.32,246.73 428.80,252.45 465.28,250.55 501.76,237.18 538.24,220.00 574.72,254.36 611.20,241.00 647.68,179.91 684.16,151.27 720.64,149.36 757.12,52.00 793.60,124.55 830.08,149.36 866.56,116.91 903.04,147.45 939.52,160.82 976.00,147.45"/>
  <circle class="dot" cx="976.00" cy="147.45" r="4.5"/>
  
  <text class="axis" x="64.00" y="336" text-anchor="start">2026-03-10</text>
  <text class="axis" x="246.40" y="336" text-anchor="middle">2026-03-15</text>
  <text class="axis" x="428.80" y="336" text-anchor="middle">2026-03-20</text>
  <text class="axis" x="611.20" y="336" text-anchor="middle">2026-03-25</text>
  <text class="axis" x="793.60" y="336" text-anchor="middle">2026-03-30</text>
  <text class="axis" x="976.00" y="336" text-anchor="end">2026-04-04</text>
  <text class="latest" x="976" y="34" text-anchor="end">Latest day: 82</text>
</svg>
