<?xml version="1.0" encoding="UTF-8"?>
<svg xmlns="http://www.w3.org/2000/svg" viewBox="0 0 1000 360" role="img" aria-label="hordesmod/kek-ui release downloads chart">
  <defs>
    <linearGradient id="fill-daily-slate" x1="0" y1="0" x2="0" y2="1">
      <stop offset="0%" stop-color="#60a5fa" stop-opacity="0.32"/>
      <stop offset="100%" stop-color="#60a5fa" stop-opacity="0.05"/>
    </linearGradient>
    <style>
      .bg { fill: #0f172a; }
      .title { font: 700 24px Arial, sans-serif; fill: #e2e8f0; }
      .sub { font: 400 13px Arial, sans-serif; fill: #94a3b8; }
      .grid { stroke: #1e293b; stroke-width: 1; }
      .axis { font: 400 12px Arial, sans-serif; fill: #94a3b8; }
      .line { fill: none; stroke: #60a5fa; stroke-width: 3; stroke-linecap: round; stroke-linejoin: round; }
      .dot { fill: #60a5fa; }
      .value { font: 600 11px Arial, sans-serif; fill: #cbd5e1; }
      .latest { font: 700 14px Arial, sans-serif; fill: #e2e8f0; }
    </style>
  </defs>
  <rect class="bg" x="0" y="0" width="1000" height="360" rx="16" />
  <text class="title" x="64" y="34">hordesmod/kek-ui release downloads</text>
  <text class="sub" x="64" y="352">Generated 2026-05-16</text>
  <line x1="64" y1="52.00" x2="976" y2="52.00" class="grid"/>
  <text x="56" y="56.00" text-anchor="end" class="axis">132</text>
  <line x1="64" y1="94.00" x2="976" y2="94.00" class="grid"/>
  <text x="56" y="98.00" text-anchor="end" class="axis">110</text>
  <line x1="64" y1="136.00" x2="976" y2="136.00" class="grid"/>
  <text x="56" y="140.00" text-anchor="end" class="axis">88</text>
  <line x1="64" y1="178.00" x2="976" y2="178.00" class="grid"/>
  <text x="56" y="182.00" text-anchor="end" class="axis">66</text>
  <line x1="64" y1="220.00" x2="976" y2="220.00" class="grid"/>
  <text x="56" y="224.00" text-anchor="end" class="axis">44</text>
  <line x1="64" y1="262.00" x2="976" y2="262.00" class="grid"/>
  <text x="56" y="266.00" text-anchor="end" class="axis">22</text>
  <line x1="64" y1="304.00" x2="976" y2="304.00" class="grid"/>
  <text x="56" y="308.00" text-anchor="end" class="axis">0</text>
  <path d="M 64.00 304 L 64.00 304.00 L 77.61 172.27 L 91.22 160.82 L 104.84 181.82 L 118.45 242.91 L 132.06 244.82 L 145.67 239.09 L 159.28 237.18 L 172.90 223.82 L 186.51 246.73 L 200.12 252.45 L 213.73 250.55 L 227.34 237.18 L 240.96 220.00 L 254.57 254.36 L 268.18 241.00 L 281.79 179.91 L 295.40 151.27 L 309.01 149.36 L 322.63 52.00 L 336.24 124.55 L 349.85 149.36 L 363.46 116.91 L 377.07 147.45 L 390.69 160.82 L 404.30 147.45 L 417.91 128.36 L 431.52 116.91 L 445.13 155.09 L 458.75 153.18 L 472.36 137.91 L 485.97 145.55 L 499.58 132.18 L 513.19 126.45 L 526.81 139.82 L 540.42 157.00 L 554.03 132.18 L 567.64 151.27 L 581.25 145.55 L 594.87 136.00 L 608.48 128.36 L 622.09 136.00 L 635.70 147.45 L 649.31 160.82 L 662.93 145.55 L 676.54 147.45 L 690.15 134.09 L 703.76 151.27 L 717.37 141.73 L 730.99 145.55 L 744.60 139.82 L 758.21 153.18 L 771.82 145.55 L 785.43 157.00 L 799.04 122.64 L 812.66 134.09 L 826.27 120.73 L 839.88 118.82 L 853.49 155.09 L 867.10 162.73 L 880.72 132.18 L 894.33 151.27 L 907.94 141.73 L 921.55 137.91 L 935.16 155.09 L 948.78 149.36 L 962.39 168.45 L 976.00 136.00 L 976.00 304 Z" fill="url(#fill-daily-slate)"/>
  <polyline class="line" points="64.00,304.00 77.61,172.27 91.22,160.82 104.84,181.82 118.45,242.91 132.06,244.82 145.67,239.09 159.28,237.18 172.90,223.82 186.51,246.73 200.12,252.45 213.73,250.55 227.34,237.18 240.96,220.00 254.57,254.36 268.18,241.00 281.79,179.91 295.40,151.27 309.01,149.36 322.63,52.00 336.24,124.55 349.85,149.36 363.46,116.91 377.07,147.45 390.69,160.82 404.30,147.45 417.91,128.36 431.52,116.91 445.13,155.09 458.75,153.18 472.36,137.91 485.97,145.55 499.58,132.18 513.19,126.45 526.81,139.82 540.42,157.00 554.03,132.18 567.64,151.27 581.25,145.55 594.87,136.00 608.48,128.36 622.09,136.00 635.70,147.45 649.31,160.82 662.93,145.55 676.54,147.45 690.15,134.09 703.76,151.27 717.37,141.73 730.99,145.55 744.60,139.82 758.21,153.18 771.82,145.55 785.43,157.00 799.04,122.64 812.66,134.09 826.27,120.73 839.88,118.82 853.49,155.09 867.10,162.73 880.72,132.18 894.33,151.27 907.94,141.73 921.55,137.91 935.16,155.09 948.78,149.36 962.39,168.45 976.00,136.00"/>
  <circle class="dot" cx="976.00" cy="136.00" r="4.5"/>
  
  <text class="axis" x="64.00" y="336" text-anchor="start">2026-03-10</text>
  <text class="axis" x="240.96" y="336" text-anchor="middle">2026-03-23</text>
  <text class="axis" x="417.91" y="336" text-anchor="middle">2026-04-05</text>
  <text class="axis" x="594.87" y="336" text-anchor="middle">2026-04-18</text>
  <text class="axis" x="771.82" y="336" text-anchor="middle">2026-05-01</text>
  <text class="axis" x="948.78" y="336" text-anchor="middle">2026-05-14</text>
  <text class="axis" x="976.00" y="336" text-anchor="end">2026-05-16</text>
  <text class="latest" x="976" y="34" text-anchor="end">Latest day: 88</text>
</svg>
