<?xml version="1.0" encoding="UTF-8"?>
<svg xmlns="http://www.w3.org/2000/svg" viewBox="0 0 1000 360" role="img" aria-label="hordesmod/kek-ui release downloads chart">
  <defs>
    <linearGradient id="fill-daily-slate" x1="0" y1="0" x2="0" y2="1">
      <stop offset="0%" stop-color="#60a5fa" stop-opacity="0.32"/>
      <stop offset="100%" stop-color="#60a5fa" stop-opacity="0.05"/>
    </linearGradient>
    <style>
      .bg { fill: #0f172a; }
      .title { font: 700 24px Arial, sans-serif; fill: #e2e8f0; }
      .sub { font: 400 13px Arial, sans-serif; fill: #94a3b8; }
      .grid { stroke: #1e293b; stroke-width: 1; }
      .axis { font: 400 12px Arial, sans-serif; fill: #94a3b8; }
      .line { fill: none; stroke: #60a5fa; stroke-width: 3; stroke-linecap: round; stroke-linejoin: round; }
      .dot { fill: #60a5fa; }
      .value { font: 600 11px Arial, sans-serif; fill: #cbd5e1; }
      .latest { font: 700 14px Arial, sans-serif; fill: #e2e8f0; }
    </style>
  </defs>
  <rect class="bg" x="0" y="0" width="1000" height="360" rx="16" />
  <text class="title" x="64" y="34">hordesmod/kek-ui release downloads</text>
  <text class="sub" x="64" y="352">Generated 2026-04-20</text>
  <line x1="64" y1="52.00" x2="976" y2="52.00" class="grid"/>
  <text x="56" y="56.00" text-anchor="end" class="axis">132</text>
  <line x1="64" y1="94.00" x2="976" y2="94.00" class="grid"/>
  <text x="56" y="98.00" text-anchor="end" class="axis">110</text>
  <line x1="64" y1="136.00" x2="976" y2="136.00" class="grid"/>
  <text x="56" y="140.00" text-anchor="end" class="axis">88</text>
  <line x1="64" y1="178.00" x2="976" y2="178.00" class="grid"/>
  <text x="56" y="182.00" text-anchor="end" class="axis">66</text>
  <line x1="64" y1="220.00" x2="976" y2="220.00" class="grid"/>
  <text x="56" y="224.00" text-anchor="end" class="axis">44</text>
  <line x1="64" y1="262.00" x2="976" y2="262.00" class="grid"/>
  <text x="56" y="266.00" text-anchor="end" class="axis">22</text>
  <line x1="64" y1="304.00" x2="976" y2="304.00" class="grid"/>
  <text x="56" y="308.00" text-anchor="end" class="axis">0</text>
  <path d="M 64.00 304 L 64.00 304.00 L 86.24 172.27 L 108.49 160.82 L 130.73 181.82 L 152.98 242.91 L 175.22 244.82 L 197.46 239.09 L 219.71 237.18 L 241.95 223.82 L 264.20 246.73 L 286.44 252.45 L 308.68 250.55 L 330.93 237.18 L 353.17 220.00 L 375.41 254.36 L 397.66 241.00 L 419.90 179.91 L 442.15 151.27 L 464.39 149.36 L 486.63 52.00 L 508.88 124.55 L 531.12 149.36 L 553.37 116.91 L 575.61 147.45 L 597.85 160.82 L 620.10 147.45 L 642.34 128.36 L 664.59 116.91 L 686.83 155.09 L 709.07 153.18 L 731.32 137.91 L 753.56 145.55 L 775.80 132.18 L 798.05 126.45 L 820.29 139.82 L 842.54 157.00 L 864.78 132.18 L 887.02 151.27 L 909.27 145.55 L 931.51 136.00 L 953.76 128.36 L 976.00 136.00 L 976.00 304 Z" fill="url(#fill-daily-slate)"/>
  <polyline class="line" points="64.00,304.00 86.24,172.27 108.49,160.82 130.73,181.82 152.98,242.91 175.22,244.82 197.46,239.09 219.71,237.18 241.95,223.82 264.20,246.73 286.44,252.45 308.68,250.55 330.93,237.18 353.17,220.00 375.41,254.36 397.66,241.00 419.90,179.91 442.15,151.27 464.39,149.36 486.63,52.00 508.88,124.55 531.12,149.36 553.37,116.91 575.61,147.45 597.85,160.82 620.10,147.45 642.34,128.36 664.59,116.91 686.83,155.09 709.07,153.18 731.32,137.91 753.56,145.55 775.80,132.18 798.05,126.45 820.29,139.82 842.54,157.00 864.78,132.18 887.02,151.27 909.27,145.55 931.51,136.00 953.76,128.36 976.00,136.00"/>
  <circle class="dot" cx="976.00" cy="136.00" r="4.5"/>
  
  <text class="axis" x="64.00" y="336" text-anchor="start">2026-03-10</text>
  <text class="axis" x="241.95" y="336" text-anchor="middle">2026-03-18</text>
  <text class="axis" x="419.90" y="336" text-anchor="middle">2026-03-26</text>
  <text class="axis" x="597.85" y="336" text-anchor="middle">2026-04-03</text>
  <text class="axis" x="775.80" y="336" text-anchor="middle">2026-04-11</text>
  <text class="axis" x="953.76" y="336" text-anchor="middle">2026-04-19</text>
  <text class="axis" x="976.00" y="336" text-anchor="end">2026-04-20</text>
  <text class="latest" x="976" y="34" text-anchor="end">Latest day: 88</text>
</svg>
