<?xml version="1.0" encoding="UTF-8"?>
<svg xmlns="http://www.w3.org/2000/svg" viewBox="0 0 1000 360" role="img" aria-label="hordesmod/kek-ui release downloads chart">
  <defs>
    <linearGradient id="fill-daily-black" x1="0" y1="0" x2="0" y2="1">
      <stop offset="0%" stop-color="#22d3ee" stop-opacity="0.32"/>
      <stop offset="100%" stop-color="#22d3ee" stop-opacity="0.05"/>
    </linearGradient>
    <style>
      .bg { fill: #0b0b0d; }
      .title { font: 700 24px Arial, sans-serif; fill: #f8fafc; }
      .sub { font: 400 13px Arial, sans-serif; fill: #cbd5e1; }
      .grid { stroke: #1f2937; stroke-width: 1; }
      .axis { font: 400 12px Arial, sans-serif; fill: #94a3b8; }
      .line { fill: none; stroke: #22d3ee; stroke-width: 3; stroke-linecap: round; stroke-linejoin: round; }
      .dot { fill: #22d3ee; }
      .value { font: 600 11px Arial, sans-serif; fill: #cbd5e1; }
      .latest { font: 700 14px Arial, sans-serif; fill: #f8fafc; }
    </style>
  </defs>
  <rect class="bg" x="0" y="0" width="1000" height="360" rx="16" />
  <text class="title" x="64" y="34">hordesmod/kek-ui release downloads</text>
  <text class="sub" x="64" y="352">Generated 2026-03-19</text>
  <line x1="64" y1="52.00" x2="976" y2="52.00" class="grid"/>
  <text x="56" y="56.00" text-anchor="end" class="axis">75</text>
  <line x1="64" y1="94.00" x2="976" y2="94.00" class="grid"/>
  <text x="56" y="98.00" text-anchor="end" class="axis">63</text>
  <line x1="64" y1="136.00" x2="976" y2="136.00" class="grid"/>
  <text x="56" y="140.00" text-anchor="end" class="axis">50</text>
  <line x1="64" y1="178.00" x2="976" y2="178.00" class="grid"/>
  <text x="56" y="182.00" text-anchor="end" class="axis">38</text>
  <line x1="64" y1="220.00" x2="976" y2="220.00" class="grid"/>
  <text x="56" y="224.00" text-anchor="end" class="axis">25</text>
  <line x1="64" y1="262.00" x2="976" y2="262.00" class="grid"/>
  <text x="56" y="266.00" text-anchor="end" class="axis">13</text>
  <line x1="64" y1="304.00" x2="976" y2="304.00" class="grid"/>
  <text x="56" y="308.00" text-anchor="end" class="axis">0</text>
  <path d="M 64.00 304 L 64.00 304.00 L 165.33 72.16 L 266.67 52.00 L 368.00 88.96 L 469.33 196.48 L 570.67 199.84 L 672.00 189.76 L 773.33 186.40 L 874.67 162.88 L 976.00 203.20 L 976.00 304 Z" fill="url(#fill-daily-black)"/>
  <polyline class="line" points="64.00,304.00 165.33,72.16 266.67,52.00 368.00,88.96 469.33,196.48 570.67,199.84 672.00,189.76 773.33,186.40 874.67,162.88 976.00,203.20"/>
  <circle class="dot" cx="976.00" cy="203.20" r="4.5"/>
  
  <text class="axis" x="64.00" y="336" text-anchor="start">2026-03-10</text>
  <text class="axis" x="165.33" y="336" text-anchor="middle">2026-03-11</text>
  <text class="axis" x="266.67" y="336" text-anchor="middle">2026-03-12</text>
  <text class="axis" x="368.00" y="336" text-anchor="middle">2026-03-13</text>
  <text class="axis" x="469.33" y="336" text-anchor="middle">2026-03-14</text>
  <text class="axis" x="570.67" y="336" text-anchor="middle">2026-03-15</text>
  <text class="axis" x="672.00" y="336" text-anchor="middle">2026-03-16</text>
  <text class="axis" x="773.33" y="336" text-anchor="middle">2026-03-17</text>
  <text class="axis" x="874.67" y="336" text-anchor="middle">2026-03-18</text>
  <text class="axis" x="976.00" y="336" text-anchor="end">2026-03-19</text>
  <text class="latest" x="976" y="34" text-anchor="end">Latest day: 30</text>
</svg>
