<?xml version="1.0" encoding="UTF-8"?>
<svg xmlns="http://www.w3.org/2000/svg" viewBox="0 0 1000 360" role="img" aria-label="hordesmod/kek-ui release downloads chart">
  <defs>
    <linearGradient id="fill-daily-black" x1="0" y1="0" x2="0" y2="1">
      <stop offset="0%" stop-color="#22d3ee" stop-opacity="0.32"/>
      <stop offset="100%" stop-color="#22d3ee" stop-opacity="0.05"/>
    </linearGradient>
    <style>
      .bg { fill: #0b0b0d; }
      .title { font: 700 24px Arial, sans-serif; fill: #f8fafc; }
      .sub { font: 400 13px Arial, sans-serif; fill: #cbd5e1; }
      .grid { stroke: #1f2937; stroke-width: 1; }
      .axis { font: 400 12px Arial, sans-serif; fill: #94a3b8; }
      .line { fill: none; stroke: #22d3ee; stroke-width: 3; stroke-linecap: round; stroke-linejoin: round; }
      .dot { fill: #22d3ee; }
      .value { font: 600 11px Arial, sans-serif; fill: #cbd5e1; }
      .latest { font: 700 14px Arial, sans-serif; fill: #f8fafc; }
    </style>
  </defs>
  <rect class="bg" x="0" y="0" width="1000" height="360" rx="16" />
  <text class="title" x="64" y="34">hordesmod/kek-ui release downloads</text>
  <text class="sub" x="64" y="352">Generated 2026-04-16</text>
  <line x1="64" y1="52.00" x2="976" y2="52.00" class="grid"/>
  <text x="56" y="56.00" text-anchor="end" class="axis">132</text>
  <line x1="64" y1="94.00" x2="976" y2="94.00" class="grid"/>
  <text x="56" y="98.00" text-anchor="end" class="axis">110</text>
  <line x1="64" y1="136.00" x2="976" y2="136.00" class="grid"/>
  <text x="56" y="140.00" text-anchor="end" class="axis">88</text>
  <line x1="64" y1="178.00" x2="976" y2="178.00" class="grid"/>
  <text x="56" y="182.00" text-anchor="end" class="axis">66</text>
  <line x1="64" y1="220.00" x2="976" y2="220.00" class="grid"/>
  <text x="56" y="224.00" text-anchor="end" class="axis">44</text>
  <line x1="64" y1="262.00" x2="976" y2="262.00" class="grid"/>
  <text x="56" y="266.00" text-anchor="end" class="axis">22</text>
  <line x1="64" y1="304.00" x2="976" y2="304.00" class="grid"/>
  <text x="56" y="308.00" text-anchor="end" class="axis">0</text>
  <path d="M 64.00 304 L 64.00 304.00 L 88.65 172.27 L 113.30 160.82 L 137.95 181.82 L 162.59 242.91 L 187.24 244.82 L 211.89 239.09 L 236.54 237.18 L 261.19 223.82 L 285.84 246.73 L 310.49 252.45 L 335.14 250.55 L 359.78 237.18 L 384.43 220.00 L 409.08 254.36 L 433.73 241.00 L 458.38 179.91 L 483.03 151.27 L 507.68 149.36 L 532.32 52.00 L 556.97 124.55 L 581.62 149.36 L 606.27 116.91 L 630.92 147.45 L 655.57 160.82 L 680.22 147.45 L 704.86 128.36 L 729.51 116.91 L 754.16 155.09 L 778.81 153.18 L 803.46 137.91 L 828.11 145.55 L 852.76 132.18 L 877.41 126.45 L 902.05 139.82 L 926.70 157.00 L 951.35 132.18 L 976.00 151.27 L 976.00 304 Z" fill="url(#fill-daily-black)"/>
  <polyline class="line" points="64.00,304.00 88.65,172.27 113.30,160.82 137.95,181.82 162.59,242.91 187.24,244.82 211.89,239.09 236.54,237.18 261.19,223.82 285.84,246.73 310.49,252.45 335.14,250.55 359.78,237.18 384.43,220.00 409.08,254.36 433.73,241.00 458.38,179.91 483.03,151.27 507.68,149.36 532.32,52.00 556.97,124.55 581.62,149.36 606.27,116.91 630.92,147.45 655.57,160.82 680.22,147.45 704.86,128.36 729.51,116.91 754.16,155.09 778.81,153.18 803.46,137.91 828.11,145.55 852.76,132.18 877.41,126.45 902.05,139.82 926.70,157.00 951.35,132.18 976.00,151.27"/>
  <circle class="dot" cx="976.00" cy="151.27" r="4.5"/>
  
  <text class="axis" x="64.00" y="336" text-anchor="start">2026-03-10</text>
  <text class="axis" x="236.54" y="336" text-anchor="middle">2026-03-17</text>
  <text class="axis" x="409.08" y="336" text-anchor="middle">2026-03-24</text>
  <text class="axis" x="581.62" y="336" text-anchor="middle">2026-03-31</text>
  <text class="axis" x="754.16" y="336" text-anchor="middle">2026-04-07</text>
  <text class="axis" x="926.70" y="336" text-anchor="middle">2026-04-14</text>
  <text class="axis" x="976.00" y="336" text-anchor="end">2026-04-16</text>
  <text class="latest" x="976" y="34" text-anchor="end">Latest day: 80</text>
</svg>
