<?xml version="1.0" encoding="UTF-8"?>
<svg xmlns="http://www.w3.org/2000/svg" viewBox="0 0 1000 360" role="img" aria-label="hordesmod/kek-ui release downloads chart">
  <defs>
    <linearGradient id="fill-daily-orange" x1="0" y1="0" x2="0" y2="1">
      <stop offset="0%" stop-color="#f97316" stop-opacity="0.32"/>
      <stop offset="100%" stop-color="#f97316" stop-opacity="0.05"/>
    </linearGradient>
    <style>
      .bg { fill: #fff7ed; }
      .title { font: 700 24px Arial, sans-serif; fill: #7c2d12; }
      .sub { font: 400 13px Arial, sans-serif; fill: #9a3412; }
      .grid { stroke: #fed7aa; stroke-width: 1; }
      .axis { font: 400 12px Arial, sans-serif; fill: #c2410c; }
      .line { fill: none; stroke: #ea580c; stroke-width: 3; stroke-linecap: round; stroke-linejoin: round; }
      .dot { fill: #ea580c; }
      .value { font: 600 11px Arial, sans-serif; fill: #9a3412; }
      .latest { font: 700 14px Arial, sans-serif; fill: #7c2d12; }
    </style>
  </defs>
  <rect class="bg" x="0" y="0" width="1000" height="360" rx="16" />
  <text class="title" x="64" y="34">hordesmod/kek-ui release downloads</text>
  <text class="sub" x="64" y="352">Generated 2026-04-18</text>
  <line x1="64" y1="52.00" x2="976" y2="52.00" class="grid"/>
  <text x="56" y="56.00" text-anchor="end" class="axis">132</text>
  <line x1="64" y1="94.00" x2="976" y2="94.00" class="grid"/>
  <text x="56" y="98.00" text-anchor="end" class="axis">110</text>
  <line x1="64" y1="136.00" x2="976" y2="136.00" class="grid"/>
  <text x="56" y="140.00" text-anchor="end" class="axis">88</text>
  <line x1="64" y1="178.00" x2="976" y2="178.00" class="grid"/>
  <text x="56" y="182.00" text-anchor="end" class="axis">66</text>
  <line x1="64" y1="220.00" x2="976" y2="220.00" class="grid"/>
  <text x="56" y="224.00" text-anchor="end" class="axis">44</text>
  <line x1="64" y1="262.00" x2="976" y2="262.00" class="grid"/>
  <text x="56" y="266.00" text-anchor="end" class="axis">22</text>
  <line x1="64" y1="304.00" x2="976" y2="304.00" class="grid"/>
  <text x="56" y="308.00" text-anchor="end" class="axis">0</text>
  <path d="M 64.00 304 L 64.00 304.00 L 87.38 172.27 L 110.77 160.82 L 134.15 181.82 L 157.54 242.91 L 180.92 244.82 L 204.31 239.09 L 227.69 237.18 L 251.08 223.82 L 274.46 246.73 L 297.85 252.45 L 321.23 250.55 L 344.62 237.18 L 368.00 220.00 L 391.38 254.36 L 414.77 241.00 L 438.15 179.91 L 461.54 151.27 L 484.92 149.36 L 508.31 52.00 L 531.69 124.55 L 555.08 149.36 L 578.46 116.91 L 601.85 147.45 L 625.23 160.82 L 648.62 147.45 L 672.00 128.36 L 695.38 116.91 L 718.77 155.09 L 742.15 153.18 L 765.54 137.91 L 788.92 145.55 L 812.31 132.18 L 835.69 126.45 L 859.08 139.82 L 882.46 157.00 L 905.85 132.18 L 929.23 151.27 L 952.62 145.55 L 976.00 136.00 L 976.00 304 Z" fill="url(#fill-daily-orange)"/>
  <polyline class="line" points="64.00,304.00 87.38,172.27 110.77,160.82 134.15,181.82 157.54,242.91 180.92,244.82 204.31,239.09 227.69,237.18 251.08,223.82 274.46,246.73 297.85,252.45 321.23,250.55 344.62,237.18 368.00,220.00 391.38,254.36 414.77,241.00 438.15,179.91 461.54,151.27 484.92,149.36 508.31,52.00 531.69,124.55 555.08,149.36 578.46,116.91 601.85,147.45 625.23,160.82 648.62,147.45 672.00,128.36 695.38,116.91 718.77,155.09 742.15,153.18 765.54,137.91 788.92,145.55 812.31,132.18 835.69,126.45 859.08,139.82 882.46,157.00 905.85,132.18 929.23,151.27 952.62,145.55 976.00,136.00"/>
  <circle class="dot" cx="976.00" cy="136.00" r="4.5"/>
  
  <text class="axis" x="64.00" y="336" text-anchor="start">2026-03-10</text>
  <text class="axis" x="227.69" y="336" text-anchor="middle">2026-03-17</text>
  <text class="axis" x="391.38" y="336" text-anchor="middle">2026-03-24</text>
  <text class="axis" x="555.08" y="336" text-anchor="middle">2026-03-31</text>
  <text class="axis" x="718.77" y="336" text-anchor="middle">2026-04-07</text>
  <text class="axis" x="882.46" y="336" text-anchor="middle">2026-04-14</text>
  <text class="axis" x="976.00" y="336" text-anchor="end">2026-04-18</text>
  <text class="latest" x="976" y="34" text-anchor="end">Latest day: 88</text>
</svg>
