<?xml version="1.0" encoding="UTF-8"?>
<svg xmlns="http://www.w3.org/2000/svg" viewBox="0 0 1000 360" role="img" aria-label="hordesmod/kek-ui release downloads chart">
  <defs>
    <linearGradient id="fill-daily-black" x1="0" y1="0" x2="0" y2="1">
      <stop offset="0%" stop-color="#22d3ee" stop-opacity="0.32"/>
      <stop offset="100%" stop-color="#22d3ee" stop-opacity="0.05"/>
    </linearGradient>
    <style>
      .bg { fill: #0b0b0d; }
      .title { font: 700 24px Arial, sans-serif; fill: #f8fafc; }
      .sub { font: 400 13px Arial, sans-serif; fill: #cbd5e1; }
      .grid { stroke: #1f2937; stroke-width: 1; }
      .axis { font: 400 12px Arial, sans-serif; fill: #94a3b8; }
      .line { fill: none; stroke: #22d3ee; stroke-width: 3; stroke-linecap: round; stroke-linejoin: round; }
      .dot { fill: #22d3ee; }
      .value { font: 600 11px Arial, sans-serif; fill: #cbd5e1; }
      .latest { font: 700 14px Arial, sans-serif; fill: #f8fafc; }
    </style>
  </defs>
  <rect class="bg" x="0" y="0" width="1000" height="360" rx="16" />
  <text class="title" x="64" y="34">hordesmod/kek-ui release downloads</text>
  <text class="sub" x="64" y="352">Generated 2026-04-10</text>
  <line x1="64" y1="52.00" x2="976" y2="52.00" class="grid"/>
  <text x="56" y="56.00" text-anchor="end" class="axis">132</text>
  <line x1="64" y1="94.00" x2="976" y2="94.00" class="grid"/>
  <text x="56" y="98.00" text-anchor="end" class="axis">110</text>
  <line x1="64" y1="136.00" x2="976" y2="136.00" class="grid"/>
  <text x="56" y="140.00" text-anchor="end" class="axis">88</text>
  <line x1="64" y1="178.00" x2="976" y2="178.00" class="grid"/>
  <text x="56" y="182.00" text-anchor="end" class="axis">66</text>
  <line x1="64" y1="220.00" x2="976" y2="220.00" class="grid"/>
  <text x="56" y="224.00" text-anchor="end" class="axis">44</text>
  <line x1="64" y1="262.00" x2="976" y2="262.00" class="grid"/>
  <text x="56" y="266.00" text-anchor="end" class="axis">22</text>
  <line x1="64" y1="304.00" x2="976" y2="304.00" class="grid"/>
  <text x="56" y="308.00" text-anchor="end" class="axis">0</text>
  <path d="M 64.00 304 L 64.00 304.00 L 93.42 172.27 L 122.84 160.82 L 152.26 181.82 L 181.68 242.91 L 211.10 244.82 L 240.52 239.09 L 269.94 237.18 L 299.35 223.82 L 328.77 246.73 L 358.19 252.45 L 387.61 250.55 L 417.03 237.18 L 446.45 220.00 L 475.87 254.36 L 505.29 241.00 L 534.71 179.91 L 564.13 151.27 L 593.55 149.36 L 622.97 52.00 L 652.39 124.55 L 681.81 149.36 L 711.23 116.91 L 740.65 147.45 L 770.06 160.82 L 799.48 147.45 L 828.90 128.36 L 858.32 116.91 L 887.74 155.09 L 917.16 153.18 L 946.58 137.91 L 976.00 145.55 L 976.00 304 Z" fill="url(#fill-daily-black)"/>
  <polyline class="line" points="64.00,304.00 93.42,172.27 122.84,160.82 152.26,181.82 181.68,242.91 211.10,244.82 240.52,239.09 269.94,237.18 299.35,223.82 328.77,246.73 358.19,252.45 387.61,250.55 417.03,237.18 446.45,220.00 475.87,254.36 505.29,241.00 534.71,179.91 564.13,151.27 593.55,149.36 622.97,52.00 652.39,124.55 681.81,149.36 711.23,116.91 740.65,147.45 770.06,160.82 799.48,147.45 828.90,128.36 858.32,116.91 887.74,155.09 917.16,153.18 946.58,137.91 976.00,145.55"/>
  <circle class="dot" cx="976.00" cy="145.55" r="4.5"/>
  
  <text class="axis" x="64.00" y="336" text-anchor="start">2026-03-10</text>
  <text class="axis" x="240.52" y="336" text-anchor="middle">2026-03-16</text>
  <text class="axis" x="417.03" y="336" text-anchor="middle">2026-03-22</text>
  <text class="axis" x="593.55" y="336" text-anchor="middle">2026-03-28</text>
  <text class="axis" x="770.06" y="336" text-anchor="middle">2026-04-03</text>
  <text class="axis" x="946.58" y="336" text-anchor="middle">2026-04-09</text>
  <text class="axis" x="976.00" y="336" text-anchor="end">2026-04-10</text>
  <text class="latest" x="976" y="34" text-anchor="end">Latest day: 83</text>
</svg>
