<?xml version="1.0" encoding="UTF-8"?>
<svg xmlns="http://www.w3.org/2000/svg" viewBox="0 0 1000 360" role="img" aria-label="hordesmod/kek-ui release downloads chart">
  <defs>
    <linearGradient id="fill-daily-orange" x1="0" y1="0" x2="0" y2="1">
      <stop offset="0%" stop-color="#f97316" stop-opacity="0.32"/>
      <stop offset="100%" stop-color="#f97316" stop-opacity="0.05"/>
    </linearGradient>
    <style>
      .bg { fill: #fff7ed; }
      .title { font: 700 24px Arial, sans-serif; fill: #7c2d12; }
      .sub { font: 400 13px Arial, sans-serif; fill: #9a3412; }
      .grid { stroke: #fed7aa; stroke-width: 1; }
      .axis { font: 400 12px Arial, sans-serif; fill: #c2410c; }
      .line { fill: none; stroke: #ea580c; stroke-width: 3; stroke-linecap: round; stroke-linejoin: round; }
      .dot { fill: #ea580c; }
      .value { font: 600 11px Arial, sans-serif; fill: #9a3412; }
      .latest { font: 700 14px Arial, sans-serif; fill: #7c2d12; }
    </style>
  </defs>
  <rect class="bg" x="0" y="0" width="1000" height="360" rx="16" />
  <text class="title" x="64" y="34">hordesmod/kek-ui release downloads</text>
  <text class="sub" x="64" y="352">Generated 2026-04-07</text>
  <line x1="64" y1="52.00" x2="976" y2="52.00" class="grid"/>
  <text x="56" y="56.00" text-anchor="end" class="axis">132</text>
  <line x1="64" y1="94.00" x2="976" y2="94.00" class="grid"/>
  <text x="56" y="98.00" text-anchor="end" class="axis">110</text>
  <line x1="64" y1="136.00" x2="976" y2="136.00" class="grid"/>
  <text x="56" y="140.00" text-anchor="end" class="axis">88</text>
  <line x1="64" y1="178.00" x2="976" y2="178.00" class="grid"/>
  <text x="56" y="182.00" text-anchor="end" class="axis">66</text>
  <line x1="64" y1="220.00" x2="976" y2="220.00" class="grid"/>
  <text x="56" y="224.00" text-anchor="end" class="axis">44</text>
  <line x1="64" y1="262.00" x2="976" y2="262.00" class="grid"/>
  <text x="56" y="266.00" text-anchor="end" class="axis">22</text>
  <line x1="64" y1="304.00" x2="976" y2="304.00" class="grid"/>
  <text x="56" y="308.00" text-anchor="end" class="axis">0</text>
  <path d="M 64.00 304 L 64.00 304.00 L 96.57 172.27 L 129.14 160.82 L 161.71 181.82 L 194.29 242.91 L 226.86 244.82 L 259.43 239.09 L 292.00 237.18 L 324.57 223.82 L 357.14 246.73 L 389.71 252.45 L 422.29 250.55 L 454.86 237.18 L 487.43 220.00 L 520.00 254.36 L 552.57 241.00 L 585.14 179.91 L 617.71 151.27 L 650.29 149.36 L 682.86 52.00 L 715.43 124.55 L 748.00 149.36 L 780.57 116.91 L 813.14 147.45 L 845.71 160.82 L 878.29 147.45 L 910.86 128.36 L 943.43 116.91 L 976.00 155.09 L 976.00 304 Z" fill="url(#fill-daily-orange)"/>
  <polyline class="line" points="64.00,304.00 96.57,172.27 129.14,160.82 161.71,181.82 194.29,242.91 226.86,244.82 259.43,239.09 292.00,237.18 324.57,223.82 357.14,246.73 389.71,252.45 422.29,250.55 454.86,237.18 487.43,220.00 520.00,254.36 552.57,241.00 585.14,179.91 617.71,151.27 650.29,149.36 682.86,52.00 715.43,124.55 748.00,149.36 780.57,116.91 813.14,147.45 845.71,160.82 878.29,147.45 910.86,128.36 943.43,116.91 976.00,155.09"/>
  <circle class="dot" cx="976.00" cy="155.09" r="4.5"/>
  
  <text class="axis" x="64.00" y="336" text-anchor="start">2026-03-10</text>
  <text class="axis" x="226.86" y="336" text-anchor="middle">2026-03-15</text>
  <text class="axis" x="389.71" y="336" text-anchor="middle">2026-03-20</text>
  <text class="axis" x="552.57" y="336" text-anchor="middle">2026-03-25</text>
  <text class="axis" x="715.43" y="336" text-anchor="middle">2026-03-30</text>
  <text class="axis" x="878.29" y="336" text-anchor="middle">2026-04-04</text>
  <text class="axis" x="976.00" y="336" text-anchor="end">2026-04-07</text>
  <text class="latest" x="976" y="34" text-anchor="end">Latest day: 78</text>
</svg>
