<?xml version="1.0" encoding="UTF-8"?>
<svg xmlns="http://www.w3.org/2000/svg" viewBox="0 0 1000 360" role="img" aria-label="hordesmod/kek-ui release downloads chart">
  <defs>
    <linearGradient id="fill-daily-black" x1="0" y1="0" x2="0" y2="1">
      <stop offset="0%" stop-color="#22d3ee" stop-opacity="0.32"/>
      <stop offset="100%" stop-color="#22d3ee" stop-opacity="0.05"/>
    </linearGradient>
    <style>
      .bg { fill: #0b0b0d; }
      .title { font: 700 24px Arial, sans-serif; fill: #f8fafc; }
      .sub { font: 400 13px Arial, sans-serif; fill: #cbd5e1; }
      .grid { stroke: #1f2937; stroke-width: 1; }
      .axis { font: 400 12px Arial, sans-serif; fill: #94a3b8; }
      .line { fill: none; stroke: #22d3ee; stroke-width: 3; stroke-linecap: round; stroke-linejoin: round; }
      .dot { fill: #22d3ee; }
      .value { font: 600 11px Arial, sans-serif; fill: #cbd5e1; }
      .latest { font: 700 14px Arial, sans-serif; fill: #f8fafc; }
    </style>
  </defs>
  <rect class="bg" x="0" y="0" width="1000" height="360" rx="16" />
  <text class="title" x="64" y="34">hordesmod/kek-ui release downloads</text>
  <text class="sub" x="64" y="352">Generated 2026-05-14</text>
  <line x1="64" y1="52.00" x2="976" y2="52.00" class="grid"/>
  <text x="56" y="56.00" text-anchor="end" class="axis">132</text>
  <line x1="64" y1="94.00" x2="976" y2="94.00" class="grid"/>
  <text x="56" y="98.00" text-anchor="end" class="axis">110</text>
  <line x1="64" y1="136.00" x2="976" y2="136.00" class="grid"/>
  <text x="56" y="140.00" text-anchor="end" class="axis">88</text>
  <line x1="64" y1="178.00" x2="976" y2="178.00" class="grid"/>
  <text x="56" y="182.00" text-anchor="end" class="axis">66</text>
  <line x1="64" y1="220.00" x2="976" y2="220.00" class="grid"/>
  <text x="56" y="224.00" text-anchor="end" class="axis">44</text>
  <line x1="64" y1="262.00" x2="976" y2="262.00" class="grid"/>
  <text x="56" y="266.00" text-anchor="end" class="axis">22</text>
  <line x1="64" y1="304.00" x2="976" y2="304.00" class="grid"/>
  <text x="56" y="308.00" text-anchor="end" class="axis">0</text>
  <path d="M 64.00 304 L 64.00 304.00 L 78.03 172.27 L 92.06 160.82 L 106.09 181.82 L 120.12 242.91 L 134.15 244.82 L 148.18 239.09 L 162.22 237.18 L 176.25 223.82 L 190.28 246.73 L 204.31 252.45 L 218.34 250.55 L 232.37 237.18 L 246.40 220.00 L 260.43 254.36 L 274.46 241.00 L 288.49 179.91 L 302.52 151.27 L 316.55 149.36 L 330.58 52.00 L 344.62 124.55 L 358.65 149.36 L 372.68 116.91 L 386.71 147.45 L 400.74 160.82 L 414.77 147.45 L 428.80 128.36 L 442.83 116.91 L 456.86 155.09 L 470.89 153.18 L 484.92 137.91 L 498.95 145.55 L 512.98 132.18 L 527.02 126.45 L 541.05 139.82 L 555.08 157.00 L 569.11 132.18 L 583.14 151.27 L 597.17 145.55 L 611.20 136.00 L 625.23 128.36 L 639.26 136.00 L 653.29 147.45 L 667.32 160.82 L 681.35 145.55 L 695.38 147.45 L 709.42 134.09 L 723.45 151.27 L 737.48 141.73 L 751.51 145.55 L 765.54 139.82 L 779.57 153.18 L 793.60 145.55 L 807.63 157.00 L 821.66 122.64 L 835.69 134.09 L 849.72 120.73 L 863.75 118.82 L 877.78 155.09 L 891.82 162.73 L 905.85 132.18 L 919.88 151.27 L 933.91 141.73 L 947.94 137.91 L 961.97 155.09 L 976.00 149.36 L 976.00 304 Z" fill="url(#fill-daily-black)"/>
  <polyline class="line" points="64.00,304.00 78.03,172.27 92.06,160.82 106.09,181.82 120.12,242.91 134.15,244.82 148.18,239.09 162.22,237.18 176.25,223.82 190.28,246.73 204.31,252.45 218.34,250.55 232.37,237.18 246.40,220.00 260.43,254.36 274.46,241.00 288.49,179.91 302.52,151.27 316.55,149.36 330.58,52.00 344.62,124.55 358.65,149.36 372.68,116.91 386.71,147.45 400.74,160.82 414.77,147.45 428.80,128.36 442.83,116.91 456.86,155.09 470.89,153.18 484.92,137.91 498.95,145.55 512.98,132.18 527.02,126.45 541.05,139.82 555.08,157.00 569.11,132.18 583.14,151.27 597.17,145.55 611.20,136.00 625.23,128.36 639.26,136.00 653.29,147.45 667.32,160.82 681.35,145.55 695.38,147.45 709.42,134.09 723.45,151.27 737.48,141.73 751.51,145.55 765.54,139.82 779.57,153.18 793.60,145.55 807.63,157.00 821.66,122.64 835.69,134.09 849.72,120.73 863.75,118.82 877.78,155.09 891.82,162.73 905.85,132.18 919.88,151.27 933.91,141.73 947.94,137.91 961.97,155.09 976.00,149.36"/>
  <circle class="dot" cx="976.00" cy="149.36" r="4.5"/>
  
  <text class="axis" x="64.00" y="336" text-anchor="start">2026-03-10</text>
  <text class="axis" x="246.40" y="336" text-anchor="middle">2026-03-23</text>
  <text class="axis" x="428.80" y="336" text-anchor="middle">2026-04-05</text>
  <text class="axis" x="611.20" y="336" text-anchor="middle">2026-04-18</text>
  <text class="axis" x="793.60" y="336" text-anchor="middle">2026-05-01</text>
  <text class="axis" x="976.00" y="336" text-anchor="end">2026-05-14</text>
  <text class="latest" x="976" y="34" text-anchor="end">Latest day: 81</text>
</svg>
