<?xml version="1.0" encoding="UTF-8"?>
<svg xmlns="http://www.w3.org/2000/svg" viewBox="0 0 1000 360" role="img" aria-label="hordesmod/kek-ui release downloads chart">
  <defs>
    <linearGradient id="fill-daily-orange" x1="0" y1="0" x2="0" y2="1">
      <stop offset="0%" stop-color="#f97316" stop-opacity="0.32"/>
      <stop offset="100%" stop-color="#f97316" stop-opacity="0.05"/>
    </linearGradient>
    <style>
      .bg { fill: #fff7ed; }
      .title { font: 700 24px Arial, sans-serif; fill: #7c2d12; }
      .sub { font: 400 13px Arial, sans-serif; fill: #9a3412; }
      .grid { stroke: #fed7aa; stroke-width: 1; }
      .axis { font: 400 12px Arial, sans-serif; fill: #c2410c; }
      .line { fill: none; stroke: #ea580c; stroke-width: 3; stroke-linecap: round; stroke-linejoin: round; }
      .dot { fill: #ea580c; }
      .value { font: 600 11px Arial, sans-serif; fill: #9a3412; }
      .latest { font: 700 14px Arial, sans-serif; fill: #7c2d12; }
    </style>
  </defs>
  <rect class="bg" x="0" y="0" width="1000" height="360" rx="16" />
  <text class="title" x="64" y="34">hordesmod/kek-ui release downloads</text>
  <text class="sub" x="64" y="352">Generated 2026-05-10</text>
  <line x1="64" y1="52.00" x2="976" y2="52.00" class="grid"/>
  <text x="56" y="56.00" text-anchor="end" class="axis">132</text>
  <line x1="64" y1="94.00" x2="976" y2="94.00" class="grid"/>
  <text x="56" y="98.00" text-anchor="end" class="axis">110</text>
  <line x1="64" y1="136.00" x2="976" y2="136.00" class="grid"/>
  <text x="56" y="140.00" text-anchor="end" class="axis">88</text>
  <line x1="64" y1="178.00" x2="976" y2="178.00" class="grid"/>
  <text x="56" y="182.00" text-anchor="end" class="axis">66</text>
  <line x1="64" y1="220.00" x2="976" y2="220.00" class="grid"/>
  <text x="56" y="224.00" text-anchor="end" class="axis">44</text>
  <line x1="64" y1="262.00" x2="976" y2="262.00" class="grid"/>
  <text x="56" y="266.00" text-anchor="end" class="axis">22</text>
  <line x1="64" y1="304.00" x2="976" y2="304.00" class="grid"/>
  <text x="56" y="308.00" text-anchor="end" class="axis">0</text>
  <path d="M 64.00 304 L 64.00 304.00 L 78.95 172.27 L 93.90 160.82 L 108.85 181.82 L 123.80 242.91 L 138.75 244.82 L 153.70 239.09 L 168.66 237.18 L 183.61 223.82 L 198.56 246.73 L 213.51 252.45 L 228.46 250.55 L 243.41 237.18 L 258.36 220.00 L 273.31 254.36 L 288.26 241.00 L 303.21 179.91 L 318.16 151.27 L 333.11 149.36 L 348.07 52.00 L 363.02 124.55 L 377.97 149.36 L 392.92 116.91 L 407.87 147.45 L 422.82 160.82 L 437.77 147.45 L 452.72 128.36 L 467.67 116.91 L 482.62 155.09 L 497.57 153.18 L 512.52 137.91 L 527.48 145.55 L 542.43 132.18 L 557.38 126.45 L 572.33 139.82 L 587.28 157.00 L 602.23 132.18 L 617.18 151.27 L 632.13 145.55 L 647.08 136.00 L 662.03 128.36 L 676.98 136.00 L 691.93 147.45 L 706.89 160.82 L 721.84 145.55 L 736.79 147.45 L 751.74 134.09 L 766.69 151.27 L 781.64 141.73 L 796.59 145.55 L 811.54 139.82 L 826.49 153.18 L 841.44 145.55 L 856.39 157.00 L 871.34 122.64 L 886.30 134.09 L 901.25 120.73 L 916.20 118.82 L 931.15 155.09 L 946.10 162.73 L 961.05 132.18 L 976.00 151.27 L 976.00 304 Z" fill="url(#fill-daily-orange)"/>
  <polyline class="line" points="64.00,304.00 78.95,172.27 93.90,160.82 108.85,181.82 123.80,242.91 138.75,244.82 153.70,239.09 168.66,237.18 183.61,223.82 198.56,246.73 213.51,252.45 228.46,250.55 243.41,237.18 258.36,220.00 273.31,254.36 288.26,241.00 303.21,179.91 318.16,151.27 333.11,149.36 348.07,52.00 363.02,124.55 377.97,149.36 392.92,116.91 407.87,147.45 422.82,160.82 437.77,147.45 452.72,128.36 467.67,116.91 482.62,155.09 497.57,153.18 512.52,137.91 527.48,145.55 542.43,132.18 557.38,126.45 572.33,139.82 587.28,157.00 602.23,132.18 617.18,151.27 632.13,145.55 647.08,136.00 662.03,128.36 676.98,136.00 691.93,147.45 706.89,160.82 721.84,145.55 736.79,147.45 751.74,134.09 766.69,151.27 781.64,141.73 796.59,145.55 811.54,139.82 826.49,153.18 841.44,145.55 856.39,157.00 871.34,122.64 886.30,134.09 901.25,120.73 916.20,118.82 931.15,155.09 946.10,162.73 961.05,132.18 976.00,151.27"/>
  <circle class="dot" cx="976.00" cy="151.27" r="4.5"/>
  
  <text class="axis" x="64.00" y="336" text-anchor="start">2026-03-10</text>
  <text class="axis" x="243.41" y="336" text-anchor="middle">2026-03-22</text>
  <text class="axis" x="422.82" y="336" text-anchor="middle">2026-04-03</text>
  <text class="axis" x="602.23" y="336" text-anchor="middle">2026-04-15</text>
  <text class="axis" x="781.64" y="336" text-anchor="middle">2026-04-27</text>
  <text class="axis" x="961.05" y="336" text-anchor="middle">2026-05-09</text>
  <text class="axis" x="976.00" y="336" text-anchor="end">2026-05-10</text>
  <text class="latest" x="976" y="34" text-anchor="end">Latest day: 80</text>
</svg>
