<?xml version="1.0" encoding="UTF-8"?>
<svg xmlns="http://www.w3.org/2000/svg" viewBox="0 0 1000 360" role="img" aria-label="hordesmod/kek-ui release downloads chart">
  <defs>
    <linearGradient id="fill-daily-black" x1="0" y1="0" x2="0" y2="1">
      <stop offset="0%" stop-color="#22d3ee" stop-opacity="0.32"/>
      <stop offset="100%" stop-color="#22d3ee" stop-opacity="0.05"/>
    </linearGradient>
    <style>
      .bg { fill: #0b0b0d; }
      .title { font: 700 24px Arial, sans-serif; fill: #f8fafc; }
      .sub { font: 400 13px Arial, sans-serif; fill: #cbd5e1; }
      .grid { stroke: #1f2937; stroke-width: 1; }
      .axis { font: 400 12px Arial, sans-serif; fill: #94a3b8; }
      .line { fill: none; stroke: #22d3ee; stroke-width: 3; stroke-linecap: round; stroke-linejoin: round; }
      .dot { fill: #22d3ee; }
      .value { font: 600 11px Arial, sans-serif; fill: #cbd5e1; }
      .latest { font: 700 14px Arial, sans-serif; fill: #f8fafc; }
    </style>
  </defs>
  <rect class="bg" x="0" y="0" width="1000" height="360" rx="16" />
  <text class="title" x="64" y="34">hordesmod/kek-ui release downloads</text>
  <text class="sub" x="64" y="352">Generated 2026-04-26</text>
  <line x1="64" y1="52.00" x2="976" y2="52.00" class="grid"/>
  <text x="56" y="56.00" text-anchor="end" class="axis">132</text>
  <line x1="64" y1="94.00" x2="976" y2="94.00" class="grid"/>
  <text x="56" y="98.00" text-anchor="end" class="axis">110</text>
  <line x1="64" y1="136.00" x2="976" y2="136.00" class="grid"/>
  <text x="56" y="140.00" text-anchor="end" class="axis">88</text>
  <line x1="64" y1="178.00" x2="976" y2="178.00" class="grid"/>
  <text x="56" y="182.00" text-anchor="end" class="axis">66</text>
  <line x1="64" y1="220.00" x2="976" y2="220.00" class="grid"/>
  <text x="56" y="224.00" text-anchor="end" class="axis">44</text>
  <line x1="64" y1="262.00" x2="976" y2="262.00" class="grid"/>
  <text x="56" y="266.00" text-anchor="end" class="axis">22</text>
  <line x1="64" y1="304.00" x2="976" y2="304.00" class="grid"/>
  <text x="56" y="308.00" text-anchor="end" class="axis">0</text>
  <path d="M 64.00 304 L 64.00 304.00 L 83.40 172.27 L 102.81 160.82 L 122.21 181.82 L 141.62 242.91 L 161.02 244.82 L 180.43 239.09 L 199.83 237.18 L 219.23 223.82 L 238.64 246.73 L 258.04 252.45 L 277.45 250.55 L 296.85 237.18 L 316.26 220.00 L 335.66 254.36 L 355.06 241.00 L 374.47 179.91 L 393.87 151.27 L 413.28 149.36 L 432.68 52.00 L 452.09 124.55 L 471.49 149.36 L 490.89 116.91 L 510.30 147.45 L 529.70 160.82 L 549.11 147.45 L 568.51 128.36 L 587.91 116.91 L 607.32 155.09 L 626.72 153.18 L 646.13 137.91 L 665.53 145.55 L 684.94 132.18 L 704.34 126.45 L 723.74 139.82 L 743.15 157.00 L 762.55 132.18 L 781.96 151.27 L 801.36 145.55 L 820.77 136.00 L 840.17 128.36 L 859.57 136.00 L 878.98 147.45 L 898.38 160.82 L 917.79 145.55 L 937.19 147.45 L 956.60 134.09 L 976.00 151.27 L 976.00 304 Z" fill="url(#fill-daily-black)"/>
  <polyline class="line" points="64.00,304.00 83.40,172.27 102.81,160.82 122.21,181.82 141.62,242.91 161.02,244.82 180.43,239.09 199.83,237.18 219.23,223.82 238.64,246.73 258.04,252.45 277.45,250.55 296.85,237.18 316.26,220.00 335.66,254.36 355.06,241.00 374.47,179.91 393.87,151.27 413.28,149.36 432.68,52.00 452.09,124.55 471.49,149.36 490.89,116.91 510.30,147.45 529.70,160.82 549.11,147.45 568.51,128.36 587.91,116.91 607.32,155.09 626.72,153.18 646.13,137.91 665.53,145.55 684.94,132.18 704.34,126.45 723.74,139.82 743.15,157.00 762.55,132.18 781.96,151.27 801.36,145.55 820.77,136.00 840.17,128.36 859.57,136.00 878.98,147.45 898.38,160.82 917.79,145.55 937.19,147.45 956.60,134.09 976.00,151.27"/>
  <circle class="dot" cx="976.00" cy="151.27" r="4.5"/>
  
  <text class="axis" x="64.00" y="336" text-anchor="start">2026-03-10</text>
  <text class="axis" x="238.64" y="336" text-anchor="middle">2026-03-19</text>
  <text class="axis" x="413.28" y="336" text-anchor="middle">2026-03-28</text>
  <text class="axis" x="587.91" y="336" text-anchor="middle">2026-04-06</text>
  <text class="axis" x="762.55" y="336" text-anchor="middle">2026-04-15</text>
  <text class="axis" x="937.19" y="336" text-anchor="middle">2026-04-24</text>
  <text class="axis" x="976.00" y="336" text-anchor="end">2026-04-26</text>
  <text class="latest" x="976" y="34" text-anchor="end">Latest day: 80</text>
</svg>
