<?xml version="1.0" encoding="UTF-8"?>
<svg xmlns="http://www.w3.org/2000/svg" viewBox="0 0 1000 360" role="img" aria-label="hordesmod/kek-ui release downloads chart">
  <defs>
    <linearGradient id="fill-daily-orange" x1="0" y1="0" x2="0" y2="1">
      <stop offset="0%" stop-color="#f97316" stop-opacity="0.32"/>
      <stop offset="100%" stop-color="#f97316" stop-opacity="0.05"/>
    </linearGradient>
    <style>
      .bg { fill: #fff7ed; }
      .title { font: 700 24px Arial, sans-serif; fill: #7c2d12; }
      .sub { font: 400 13px Arial, sans-serif; fill: #9a3412; }
      .grid { stroke: #fed7aa; stroke-width: 1; }
      .axis { font: 400 12px Arial, sans-serif; fill: #c2410c; }
      .line { fill: none; stroke: #ea580c; stroke-width: 3; stroke-linecap: round; stroke-linejoin: round; }
      .dot { fill: #ea580c; }
      .value { font: 600 11px Arial, sans-serif; fill: #9a3412; }
      .latest { font: 700 14px Arial, sans-serif; fill: #7c2d12; }
    </style>
  </defs>
  <rect class="bg" x="0" y="0" width="1000" height="360" rx="16" />
  <text class="title" x="64" y="34">hordesmod/kek-ui release downloads</text>
  <text class="sub" x="64" y="352">Generated 2026-05-13</text>
  <line x1="64" y1="52.00" x2="976" y2="52.00" class="grid"/>
  <text x="56" y="56.00" text-anchor="end" class="axis">132</text>
  <line x1="64" y1="94.00" x2="976" y2="94.00" class="grid"/>
  <text x="56" y="98.00" text-anchor="end" class="axis">110</text>
  <line x1="64" y1="136.00" x2="976" y2="136.00" class="grid"/>
  <text x="56" y="140.00" text-anchor="end" class="axis">88</text>
  <line x1="64" y1="178.00" x2="976" y2="178.00" class="grid"/>
  <text x="56" y="182.00" text-anchor="end" class="axis">66</text>
  <line x1="64" y1="220.00" x2="976" y2="220.00" class="grid"/>
  <text x="56" y="224.00" text-anchor="end" class="axis">44</text>
  <line x1="64" y1="262.00" x2="976" y2="262.00" class="grid"/>
  <text x="56" y="266.00" text-anchor="end" class="axis">22</text>
  <line x1="64" y1="304.00" x2="976" y2="304.00" class="grid"/>
  <text x="56" y="308.00" text-anchor="end" class="axis">0</text>
  <path d="M 64.00 304 L 64.00 304.00 L 78.25 172.27 L 92.50 160.82 L 106.75 181.82 L 121.00 242.91 L 135.25 244.82 L 149.50 239.09 L 163.75 237.18 L 178.00 223.82 L 192.25 246.73 L 206.50 252.45 L 220.75 250.55 L 235.00 237.18 L 249.25 220.00 L 263.50 254.36 L 277.75 241.00 L 292.00 179.91 L 306.25 151.27 L 320.50 149.36 L 334.75 52.00 L 349.00 124.55 L 363.25 149.36 L 377.50 116.91 L 391.75 147.45 L 406.00 160.82 L 420.25 147.45 L 434.50 128.36 L 448.75 116.91 L 463.00 155.09 L 477.25 153.18 L 491.50 137.91 L 505.75 145.55 L 520.00 132.18 L 534.25 126.45 L 548.50 139.82 L 562.75 157.00 L 577.00 132.18 L 591.25 151.27 L 605.50 145.55 L 619.75 136.00 L 634.00 128.36 L 648.25 136.00 L 662.50 147.45 L 676.75 160.82 L 691.00 145.55 L 705.25 147.45 L 719.50 134.09 L 733.75 151.27 L 748.00 141.73 L 762.25 145.55 L 776.50 139.82 L 790.75 153.18 L 805.00 145.55 L 819.25 157.00 L 833.50 122.64 L 847.75 134.09 L 862.00 120.73 L 876.25 118.82 L 890.50 155.09 L 904.75 162.73 L 919.00 132.18 L 933.25 151.27 L 947.50 141.73 L 961.75 137.91 L 976.00 155.09 L 976.00 304 Z" fill="url(#fill-daily-orange)"/>
  <polyline class="line" points="64.00,304.00 78.25,172.27 92.50,160.82 106.75,181.82 121.00,242.91 135.25,244.82 149.50,239.09 163.75,237.18 178.00,223.82 192.25,246.73 206.50,252.45 220.75,250.55 235.00,237.18 249.25,220.00 263.50,254.36 277.75,241.00 292.00,179.91 306.25,151.27 320.50,149.36 334.75,52.00 349.00,124.55 363.25,149.36 377.50,116.91 391.75,147.45 406.00,160.82 420.25,147.45 434.50,128.36 448.75,116.91 463.00,155.09 477.25,153.18 491.50,137.91 505.75,145.55 520.00,132.18 534.25,126.45 548.50,139.82 562.75,157.00 577.00,132.18 591.25,151.27 605.50,145.55 619.75,136.00 634.00,128.36 648.25,136.00 662.50,147.45 676.75,160.82 691.00,145.55 705.25,147.45 719.50,134.09 733.75,151.27 748.00,141.73 762.25,145.55 776.50,139.82 790.75,153.18 805.00,145.55 819.25,157.00 833.50,122.64 847.75,134.09 862.00,120.73 876.25,118.82 890.50,155.09 904.75,162.73 919.00,132.18 933.25,151.27 947.50,141.73 961.75,137.91 976.00,155.09"/>
  <circle class="dot" cx="976.00" cy="155.09" r="4.5"/>
  
  <text class="axis" x="64.00" y="336" text-anchor="start">2026-03-10</text>
  <text class="axis" x="235.00" y="336" text-anchor="middle">2026-03-22</text>
  <text class="axis" x="406.00" y="336" text-anchor="middle">2026-04-03</text>
  <text class="axis" x="577.00" y="336" text-anchor="middle">2026-04-15</text>
  <text class="axis" x="748.00" y="336" text-anchor="middle">2026-04-27</text>
  <text class="axis" x="919.00" y="336" text-anchor="middle">2026-05-09</text>
  <text class="axis" x="976.00" y="336" text-anchor="end">2026-05-13</text>
  <text class="latest" x="976" y="34" text-anchor="end">Latest day: 78</text>
</svg>
