<?xml version="1.0" encoding="UTF-8"?>
<svg xmlns="http://www.w3.org/2000/svg" viewBox="0 0 1000 360" role="img" aria-label="hordesmod/kek-ui release downloads chart">
  <defs>
    <linearGradient id="fill-daily-black" x1="0" y1="0" x2="0" y2="1">
      <stop offset="0%" stop-color="#22d3ee" stop-opacity="0.32"/>
      <stop offset="100%" stop-color="#22d3ee" stop-opacity="0.05"/>
    </linearGradient>
    <style>
      .bg { fill: #0b0b0d; }
      .title { font: 700 24px Arial, sans-serif; fill: #f8fafc; }
      .sub { font: 400 13px Arial, sans-serif; fill: #cbd5e1; }
      .grid { stroke: #1f2937; stroke-width: 1; }
      .axis { font: 400 12px Arial, sans-serif; fill: #94a3b8; }
      .line { fill: none; stroke: #22d3ee; stroke-width: 3; stroke-linecap: round; stroke-linejoin: round; }
      .dot { fill: #22d3ee; }
      .value { font: 600 11px Arial, sans-serif; fill: #cbd5e1; }
      .latest { font: 700 14px Arial, sans-serif; fill: #f8fafc; }
    </style>
  </defs>
  <rect class="bg" x="0" y="0" width="1000" height="360" rx="16" />
  <text class="title" x="64" y="34">hordesmod/kek-ui release downloads</text>
  <text class="sub" x="64" y="352">Generated 2026-04-19</text>
  <line x1="64" y1="52.00" x2="976" y2="52.00" class="grid"/>
  <text x="56" y="56.00" text-anchor="end" class="axis">132</text>
  <line x1="64" y1="94.00" x2="976" y2="94.00" class="grid"/>
  <text x="56" y="98.00" text-anchor="end" class="axis">110</text>
  <line x1="64" y1="136.00" x2="976" y2="136.00" class="grid"/>
  <text x="56" y="140.00" text-anchor="end" class="axis">88</text>
  <line x1="64" y1="178.00" x2="976" y2="178.00" class="grid"/>
  <text x="56" y="182.00" text-anchor="end" class="axis">66</text>
  <line x1="64" y1="220.00" x2="976" y2="220.00" class="grid"/>
  <text x="56" y="224.00" text-anchor="end" class="axis">44</text>
  <line x1="64" y1="262.00" x2="976" y2="262.00" class="grid"/>
  <text x="56" y="266.00" text-anchor="end" class="axis">22</text>
  <line x1="64" y1="304.00" x2="976" y2="304.00" class="grid"/>
  <text x="56" y="308.00" text-anchor="end" class="axis">0</text>
  <path d="M 64.00 304 L 64.00 304.00 L 86.80 172.27 L 109.60 160.82 L 132.40 181.82 L 155.20 242.91 L 178.00 244.82 L 200.80 239.09 L 223.60 237.18 L 246.40 223.82 L 269.20 246.73 L 292.00 252.45 L 314.80 250.55 L 337.60 237.18 L 360.40 220.00 L 383.20 254.36 L 406.00 241.00 L 428.80 179.91 L 451.60 151.27 L 474.40 149.36 L 497.20 52.00 L 520.00 124.55 L 542.80 149.36 L 565.60 116.91 L 588.40 147.45 L 611.20 160.82 L 634.00 147.45 L 656.80 128.36 L 679.60 116.91 L 702.40 155.09 L 725.20 153.18 L 748.00 137.91 L 770.80 145.55 L 793.60 132.18 L 816.40 126.45 L 839.20 139.82 L 862.00 157.00 L 884.80 132.18 L 907.60 151.27 L 930.40 145.55 L 953.20 136.00 L 976.00 128.36 L 976.00 304 Z" fill="url(#fill-daily-black)"/>
  <polyline class="line" points="64.00,304.00 86.80,172.27 109.60,160.82 132.40,181.82 155.20,242.91 178.00,244.82 200.80,239.09 223.60,237.18 246.40,223.82 269.20,246.73 292.00,252.45 314.80,250.55 337.60,237.18 360.40,220.00 383.20,254.36 406.00,241.00 428.80,179.91 451.60,151.27 474.40,149.36 497.20,52.00 520.00,124.55 542.80,149.36 565.60,116.91 588.40,147.45 611.20,160.82 634.00,147.45 656.80,128.36 679.60,116.91 702.40,155.09 725.20,153.18 748.00,137.91 770.80,145.55 793.60,132.18 816.40,126.45 839.20,139.82 862.00,157.00 884.80,132.18 907.60,151.27 930.40,145.55 953.20,136.00 976.00,128.36"/>
  <circle class="dot" cx="976.00" cy="128.36" r="4.5"/>
  
  <text class="axis" x="64.00" y="336" text-anchor="start">2026-03-10</text>
  <text class="axis" x="246.40" y="336" text-anchor="middle">2026-03-18</text>
  <text class="axis" x="428.80" y="336" text-anchor="middle">2026-03-26</text>
  <text class="axis" x="611.20" y="336" text-anchor="middle">2026-04-03</text>
  <text class="axis" x="793.60" y="336" text-anchor="middle">2026-04-11</text>
  <text class="axis" x="976.00" y="336" text-anchor="end">2026-04-19</text>
  <text class="latest" x="976" y="34" text-anchor="end">Latest day: 92</text>
</svg>
