<?xml version="1.0" encoding="UTF-8"?>
<svg xmlns="http://www.w3.org/2000/svg" viewBox="0 0 1000 360" role="img" aria-label="hordesmod/kek-ui release downloads chart">
  <defs>
    <linearGradient id="fill-daily-slate" x1="0" y1="0" x2="0" y2="1">
      <stop offset="0%" stop-color="#60a5fa" stop-opacity="0.32"/>
      <stop offset="100%" stop-color="#60a5fa" stop-opacity="0.05"/>
    </linearGradient>
    <style>
      .bg { fill: #0f172a; }
      .title { font: 700 24px Arial, sans-serif; fill: #e2e8f0; }
      .sub { font: 400 13px Arial, sans-serif; fill: #94a3b8; }
      .grid { stroke: #1e293b; stroke-width: 1; }
      .axis { font: 400 12px Arial, sans-serif; fill: #94a3b8; }
      .line { fill: none; stroke: #60a5fa; stroke-width: 3; stroke-linecap: round; stroke-linejoin: round; }
      .dot { fill: #60a5fa; }
      .value { font: 600 11px Arial, sans-serif; fill: #cbd5e1; }
      .latest { font: 700 14px Arial, sans-serif; fill: #e2e8f0; }
    </style>
  </defs>
  <rect class="bg" x="0" y="0" width="1000" height="360" rx="16" />
  <text class="title" x="64" y="34">hordesmod/kek-ui release downloads</text>
  <text class="sub" x="64" y="352">Generated 2026-05-12</text>
  <line x1="64" y1="52.00" x2="976" y2="52.00" class="grid"/>
  <text x="56" y="56.00" text-anchor="end" class="axis">132</text>
  <line x1="64" y1="94.00" x2="976" y2="94.00" class="grid"/>
  <text x="56" y="98.00" text-anchor="end" class="axis">110</text>
  <line x1="64" y1="136.00" x2="976" y2="136.00" class="grid"/>
  <text x="56" y="140.00" text-anchor="end" class="axis">88</text>
  <line x1="64" y1="178.00" x2="976" y2="178.00" class="grid"/>
  <text x="56" y="182.00" text-anchor="end" class="axis">66</text>
  <line x1="64" y1="220.00" x2="976" y2="220.00" class="grid"/>
  <text x="56" y="224.00" text-anchor="end" class="axis">44</text>
  <line x1="64" y1="262.00" x2="976" y2="262.00" class="grid"/>
  <text x="56" y="266.00" text-anchor="end" class="axis">22</text>
  <line x1="64" y1="304.00" x2="976" y2="304.00" class="grid"/>
  <text x="56" y="308.00" text-anchor="end" class="axis">0</text>
  <path d="M 64.00 304 L 64.00 304.00 L 78.48 172.27 L 92.95 160.82 L 107.43 181.82 L 121.90 242.91 L 136.38 244.82 L 150.86 239.09 L 165.33 237.18 L 179.81 223.82 L 194.29 246.73 L 208.76 252.45 L 223.24 250.55 L 237.71 237.18 L 252.19 220.00 L 266.67 254.36 L 281.14 241.00 L 295.62 179.91 L 310.10 151.27 L 324.57 149.36 L 339.05 52.00 L 353.52 124.55 L 368.00 149.36 L 382.48 116.91 L 396.95 147.45 L 411.43 160.82 L 425.90 147.45 L 440.38 128.36 L 454.86 116.91 L 469.33 155.09 L 483.81 153.18 L 498.29 137.91 L 512.76 145.55 L 527.24 132.18 L 541.71 126.45 L 556.19 139.82 L 570.67 157.00 L 585.14 132.18 L 599.62 151.27 L 614.10 145.55 L 628.57 136.00 L 643.05 128.36 L 657.52 136.00 L 672.00 147.45 L 686.48 160.82 L 700.95 145.55 L 715.43 147.45 L 729.90 134.09 L 744.38 151.27 L 758.86 141.73 L 773.33 145.55 L 787.81 139.82 L 802.29 153.18 L 816.76 145.55 L 831.24 157.00 L 845.71 122.64 L 860.19 134.09 L 874.67 120.73 L 889.14 118.82 L 903.62 155.09 L 918.10 162.73 L 932.57 132.18 L 947.05 151.27 L 961.52 141.73 L 976.00 137.91 L 976.00 304 Z" fill="url(#fill-daily-slate)"/>
  <polyline class="line" points="64.00,304.00 78.48,172.27 92.95,160.82 107.43,181.82 121.90,242.91 136.38,244.82 150.86,239.09 165.33,237.18 179.81,223.82 194.29,246.73 208.76,252.45 223.24,250.55 237.71,237.18 252.19,220.00 266.67,254.36 281.14,241.00 295.62,179.91 310.10,151.27 324.57,149.36 339.05,52.00 353.52,124.55 368.00,149.36 382.48,116.91 396.95,147.45 411.43,160.82 425.90,147.45 440.38,128.36 454.86,116.91 469.33,155.09 483.81,153.18 498.29,137.91 512.76,145.55 527.24,132.18 541.71,126.45 556.19,139.82 570.67,157.00 585.14,132.18 599.62,151.27 614.10,145.55 628.57,136.00 643.05,128.36 657.52,136.00 672.00,147.45 686.48,160.82 700.95,145.55 715.43,147.45 729.90,134.09 744.38,151.27 758.86,141.73 773.33,145.55 787.81,139.82 802.29,153.18 816.76,145.55 831.24,157.00 845.71,122.64 860.19,134.09 874.67,120.73 889.14,118.82 903.62,155.09 918.10,162.73 932.57,132.18 947.05,151.27 961.52,141.73 976.00,137.91"/>
  <circle class="dot" cx="976.00" cy="137.91" r="4.5"/>
  
  <text class="axis" x="64.00" y="336" text-anchor="start">2026-03-10</text>
  <text class="axis" x="237.71" y="336" text-anchor="middle">2026-03-22</text>
  <text class="axis" x="411.43" y="336" text-anchor="middle">2026-04-03</text>
  <text class="axis" x="585.14" y="336" text-anchor="middle">2026-04-15</text>
  <text class="axis" x="758.86" y="336" text-anchor="middle">2026-04-27</text>
  <text class="axis" x="932.57" y="336" text-anchor="middle">2026-05-09</text>
  <text class="axis" x="976.00" y="336" text-anchor="end">2026-05-12</text>
  <text class="latest" x="976" y="34" text-anchor="end">Latest day: 87</text>
</svg>
