<?xml version="1.0" encoding="UTF-8"?>
<svg xmlns="http://www.w3.org/2000/svg" viewBox="0 0 1000 360" role="img" aria-label="hordesmod/kek-ui release downloads chart">
  <defs>
    <linearGradient id="fill-daily-slate" x1="0" y1="0" x2="0" y2="1">
      <stop offset="0%" stop-color="#60a5fa" stop-opacity="0.32"/>
      <stop offset="100%" stop-color="#60a5fa" stop-opacity="0.05"/>
    </linearGradient>
    <style>
      .bg { fill: #0f172a; }
      .title { font: 700 24px Arial, sans-serif; fill: #e2e8f0; }
      .sub { font: 400 13px Arial, sans-serif; fill: #94a3b8; }
      .grid { stroke: #1e293b; stroke-width: 1; }
      .axis { font: 400 12px Arial, sans-serif; fill: #94a3b8; }
      .line { fill: none; stroke: #60a5fa; stroke-width: 3; stroke-linecap: round; stroke-linejoin: round; }
      .dot { fill: #60a5fa; }
      .value { font: 600 11px Arial, sans-serif; fill: #cbd5e1; }
      .latest { font: 700 14px Arial, sans-serif; fill: #e2e8f0; }
    </style>
  </defs>
  <rect class="bg" x="0" y="0" width="1000" height="360" rx="16" />
  <text class="title" x="64" y="34">hordesmod/kek-ui release downloads</text>
  <text class="sub" x="64" y="352">Generated 2026-04-28</text>
  <line x1="64" y1="52.00" x2="976" y2="52.00" class="grid"/>
  <text x="56" y="56.00" text-anchor="end" class="axis">132</text>
  <line x1="64" y1="94.00" x2="976" y2="94.00" class="grid"/>
  <text x="56" y="98.00" text-anchor="end" class="axis">110</text>
  <line x1="64" y1="136.00" x2="976" y2="136.00" class="grid"/>
  <text x="56" y="140.00" text-anchor="end" class="axis">88</text>
  <line x1="64" y1="178.00" x2="976" y2="178.00" class="grid"/>
  <text x="56" y="182.00" text-anchor="end" class="axis">66</text>
  <line x1="64" y1="220.00" x2="976" y2="220.00" class="grid"/>
  <text x="56" y="224.00" text-anchor="end" class="axis">44</text>
  <line x1="64" y1="262.00" x2="976" y2="262.00" class="grid"/>
  <text x="56" y="266.00" text-anchor="end" class="axis">22</text>
  <line x1="64" y1="304.00" x2="976" y2="304.00" class="grid"/>
  <text x="56" y="308.00" text-anchor="end" class="axis">0</text>
  <path d="M 64.00 304 L 64.00 304.00 L 82.61 172.27 L 101.22 160.82 L 119.84 181.82 L 138.45 242.91 L 157.06 244.82 L 175.67 239.09 L 194.29 237.18 L 212.90 223.82 L 231.51 246.73 L 250.12 252.45 L 268.73 250.55 L 287.35 237.18 L 305.96 220.00 L 324.57 254.36 L 343.18 241.00 L 361.80 179.91 L 380.41 151.27 L 399.02 149.36 L 417.63 52.00 L 436.24 124.55 L 454.86 149.36 L 473.47 116.91 L 492.08 147.45 L 510.69 160.82 L 529.31 147.45 L 547.92 128.36 L 566.53 116.91 L 585.14 155.09 L 603.76 153.18 L 622.37 137.91 L 640.98 145.55 L 659.59 132.18 L 678.20 126.45 L 696.82 139.82 L 715.43 157.00 L 734.04 132.18 L 752.65 151.27 L 771.27 145.55 L 789.88 136.00 L 808.49 128.36 L 827.10 136.00 L 845.71 147.45 L 864.33 160.82 L 882.94 145.55 L 901.55 147.45 L 920.16 134.09 L 938.78 151.27 L 957.39 141.73 L 976.00 145.55 L 976.00 304 Z" fill="url(#fill-daily-slate)"/>
  <polyline class="line" points="64.00,304.00 82.61,172.27 101.22,160.82 119.84,181.82 138.45,242.91 157.06,244.82 175.67,239.09 194.29,237.18 212.90,223.82 231.51,246.73 250.12,252.45 268.73,250.55 287.35,237.18 305.96,220.00 324.57,254.36 343.18,241.00 361.80,179.91 380.41,151.27 399.02,149.36 417.63,52.00 436.24,124.55 454.86,149.36 473.47,116.91 492.08,147.45 510.69,160.82 529.31,147.45 547.92,128.36 566.53,116.91 585.14,155.09 603.76,153.18 622.37,137.91 640.98,145.55 659.59,132.18 678.20,126.45 696.82,139.82 715.43,157.00 734.04,132.18 752.65,151.27 771.27,145.55 789.88,136.00 808.49,128.36 827.10,136.00 845.71,147.45 864.33,160.82 882.94,145.55 901.55,147.45 920.16,134.09 938.78,151.27 957.39,141.73 976.00,145.55"/>
  <circle class="dot" cx="976.00" cy="145.55" r="4.5"/>
  
  <text class="axis" x="64.00" y="336" text-anchor="start">2026-03-10</text>
  <text class="axis" x="231.51" y="336" text-anchor="middle">2026-03-19</text>
  <text class="axis" x="399.02" y="336" text-anchor="middle">2026-03-28</text>
  <text class="axis" x="566.53" y="336" text-anchor="middle">2026-04-06</text>
  <text class="axis" x="734.04" y="336" text-anchor="middle">2026-04-15</text>
  <text class="axis" x="901.55" y="336" text-anchor="middle">2026-04-24</text>
  <text class="axis" x="976.00" y="336" text-anchor="end">2026-04-28</text>
  <text class="latest" x="976" y="34" text-anchor="end">Latest day: 83</text>
</svg>
