<?xml version="1.0" encoding="UTF-8"?>
<svg xmlns="http://www.w3.org/2000/svg" viewBox="0 0 1000 360" role="img" aria-label="hordesmod/kek-ui release downloads chart">
  <defs>
    <linearGradient id="fill-daily-slate" x1="0" y1="0" x2="0" y2="1">
      <stop offset="0%" stop-color="#60a5fa" stop-opacity="0.32"/>
      <stop offset="100%" stop-color="#60a5fa" stop-opacity="0.05"/>
    </linearGradient>
    <style>
      .bg { fill: #0f172a; }
      .title { font: 700 24px Arial, sans-serif; fill: #e2e8f0; }
      .sub { font: 400 13px Arial, sans-serif; fill: #94a3b8; }
      .grid { stroke: #1e293b; stroke-width: 1; }
      .axis { font: 400 12px Arial, sans-serif; fill: #94a3b8; }
      .line { fill: none; stroke: #60a5fa; stroke-width: 3; stroke-linecap: round; stroke-linejoin: round; }
      .dot { fill: #60a5fa; }
      .value { font: 600 11px Arial, sans-serif; fill: #cbd5e1; }
      .latest { font: 700 14px Arial, sans-serif; fill: #e2e8f0; }
    </style>
  </defs>
  <rect class="bg" x="0" y="0" width="1000" height="360" rx="16" />
  <text class="title" x="64" y="34">hordesmod/kek-ui release downloads</text>
  <text class="sub" x="64" y="352">Generated 2026-04-22</text>
  <line x1="64" y1="52.00" x2="976" y2="52.00" class="grid"/>
  <text x="56" y="56.00" text-anchor="end" class="axis">132</text>
  <line x1="64" y1="94.00" x2="976" y2="94.00" class="grid"/>
  <text x="56" y="98.00" text-anchor="end" class="axis">110</text>
  <line x1="64" y1="136.00" x2="976" y2="136.00" class="grid"/>
  <text x="56" y="140.00" text-anchor="end" class="axis">88</text>
  <line x1="64" y1="178.00" x2="976" y2="178.00" class="grid"/>
  <text x="56" y="182.00" text-anchor="end" class="axis">66</text>
  <line x1="64" y1="220.00" x2="976" y2="220.00" class="grid"/>
  <text x="56" y="224.00" text-anchor="end" class="axis">44</text>
  <line x1="64" y1="262.00" x2="976" y2="262.00" class="grid"/>
  <text x="56" y="266.00" text-anchor="end" class="axis">22</text>
  <line x1="64" y1="304.00" x2="976" y2="304.00" class="grid"/>
  <text x="56" y="308.00" text-anchor="end" class="axis">0</text>
  <path d="M 64.00 304 L 64.00 304.00 L 85.21 172.27 L 106.42 160.82 L 127.63 181.82 L 148.84 242.91 L 170.05 244.82 L 191.26 239.09 L 212.47 237.18 L 233.67 223.82 L 254.88 246.73 L 276.09 252.45 L 297.30 250.55 L 318.51 237.18 L 339.72 220.00 L 360.93 254.36 L 382.14 241.00 L 403.35 179.91 L 424.56 151.27 L 445.77 149.36 L 466.98 52.00 L 488.19 124.55 L 509.40 149.36 L 530.60 116.91 L 551.81 147.45 L 573.02 160.82 L 594.23 147.45 L 615.44 128.36 L 636.65 116.91 L 657.86 155.09 L 679.07 153.18 L 700.28 137.91 L 721.49 145.55 L 742.70 132.18 L 763.91 126.45 L 785.12 139.82 L 806.33 157.00 L 827.53 132.18 L 848.74 151.27 L 869.95 145.55 L 891.16 136.00 L 912.37 128.36 L 933.58 136.00 L 954.79 147.45 L 976.00 160.82 L 976.00 304 Z" fill="url(#fill-daily-slate)"/>
  <polyline class="line" points="64.00,304.00 85.21,172.27 106.42,160.82 127.63,181.82 148.84,242.91 170.05,244.82 191.26,239.09 212.47,237.18 233.67,223.82 254.88,246.73 276.09,252.45 297.30,250.55 318.51,237.18 339.72,220.00 360.93,254.36 382.14,241.00 403.35,179.91 424.56,151.27 445.77,149.36 466.98,52.00 488.19,124.55 509.40,149.36 530.60,116.91 551.81,147.45 573.02,160.82 594.23,147.45 615.44,128.36 636.65,116.91 657.86,155.09 679.07,153.18 700.28,137.91 721.49,145.55 742.70,132.18 763.91,126.45 785.12,139.82 806.33,157.00 827.53,132.18 848.74,151.27 869.95,145.55 891.16,136.00 912.37,128.36 933.58,136.00 954.79,147.45 976.00,160.82"/>
  <circle class="dot" cx="976.00" cy="160.82" r="4.5"/>
  
  <text class="axis" x="64.00" y="336" text-anchor="start">2026-03-10</text>
  <text class="axis" x="233.67" y="336" text-anchor="middle">2026-03-18</text>
  <text class="axis" x="403.35" y="336" text-anchor="middle">2026-03-26</text>
  <text class="axis" x="573.02" y="336" text-anchor="middle">2026-04-03</text>
  <text class="axis" x="742.70" y="336" text-anchor="middle">2026-04-11</text>
  <text class="axis" x="912.37" y="336" text-anchor="middle">2026-04-19</text>
  <text class="axis" x="976.00" y="336" text-anchor="end">2026-04-22</text>
  <text class="latest" x="976" y="34" text-anchor="end">Latest day: 75</text>
</svg>
