<?xml version="1.0" encoding="UTF-8"?>
<svg xmlns="http://www.w3.org/2000/svg" viewBox="0 0 1000 360" role="img" aria-label="hordesmod/kek-ui release downloads chart">
  <defs>
    <linearGradient id="fill-daily-orange" x1="0" y1="0" x2="0" y2="1">
      <stop offset="0%" stop-color="#f97316" stop-opacity="0.32"/>
      <stop offset="100%" stop-color="#f97316" stop-opacity="0.05"/>
    </linearGradient>
    <style>
      .bg { fill: #fff7ed; }
      .title { font: 700 24px Arial, sans-serif; fill: #7c2d12; }
      .sub { font: 400 13px Arial, sans-serif; fill: #9a3412; }
      .grid { stroke: #fed7aa; stroke-width: 1; }
      .axis { font: 400 12px Arial, sans-serif; fill: #c2410c; }
      .line { fill: none; stroke: #ea580c; stroke-width: 3; stroke-linecap: round; stroke-linejoin: round; }
      .dot { fill: #ea580c; }
      .value { font: 600 11px Arial, sans-serif; fill: #9a3412; }
      .latest { font: 700 14px Arial, sans-serif; fill: #7c2d12; }
    </style>
  </defs>
  <rect class="bg" x="0" y="0" width="1000" height="360" rx="16" />
  <text class="title" x="64" y="34">hordesmod/kek-ui release downloads</text>
  <text class="sub" x="64" y="352">Generated 2026-04-27</text>
  <line x1="64" y1="52.00" x2="976" y2="52.00" class="grid"/>
  <text x="56" y="56.00" text-anchor="end" class="axis">132</text>
  <line x1="64" y1="94.00" x2="976" y2="94.00" class="grid"/>
  <text x="56" y="98.00" text-anchor="end" class="axis">110</text>
  <line x1="64" y1="136.00" x2="976" y2="136.00" class="grid"/>
  <text x="56" y="140.00" text-anchor="end" class="axis">88</text>
  <line x1="64" y1="178.00" x2="976" y2="178.00" class="grid"/>
  <text x="56" y="182.00" text-anchor="end" class="axis">66</text>
  <line x1="64" y1="220.00" x2="976" y2="220.00" class="grid"/>
  <text x="56" y="224.00" text-anchor="end" class="axis">44</text>
  <line x1="64" y1="262.00" x2="976" y2="262.00" class="grid"/>
  <text x="56" y="266.00" text-anchor="end" class="axis">22</text>
  <line x1="64" y1="304.00" x2="976" y2="304.00" class="grid"/>
  <text x="56" y="308.00" text-anchor="end" class="axis">0</text>
  <path d="M 64.00 304 L 64.00 304.00 L 83.00 172.27 L 102.00 160.82 L 121.00 181.82 L 140.00 242.91 L 159.00 244.82 L 178.00 239.09 L 197.00 237.18 L 216.00 223.82 L 235.00 246.73 L 254.00 252.45 L 273.00 250.55 L 292.00 237.18 L 311.00 220.00 L 330.00 254.36 L 349.00 241.00 L 368.00 179.91 L 387.00 151.27 L 406.00 149.36 L 425.00 52.00 L 444.00 124.55 L 463.00 149.36 L 482.00 116.91 L 501.00 147.45 L 520.00 160.82 L 539.00 147.45 L 558.00 128.36 L 577.00 116.91 L 596.00 155.09 L 615.00 153.18 L 634.00 137.91 L 653.00 145.55 L 672.00 132.18 L 691.00 126.45 L 710.00 139.82 L 729.00 157.00 L 748.00 132.18 L 767.00 151.27 L 786.00 145.55 L 805.00 136.00 L 824.00 128.36 L 843.00 136.00 L 862.00 147.45 L 881.00 160.82 L 900.00 145.55 L 919.00 147.45 L 938.00 134.09 L 957.00 151.27 L 976.00 141.73 L 976.00 304 Z" fill="url(#fill-daily-orange)"/>
  <polyline class="line" points="64.00,304.00 83.00,172.27 102.00,160.82 121.00,181.82 140.00,242.91 159.00,244.82 178.00,239.09 197.00,237.18 216.00,223.82 235.00,246.73 254.00,252.45 273.00,250.55 292.00,237.18 311.00,220.00 330.00,254.36 349.00,241.00 368.00,179.91 387.00,151.27 406.00,149.36 425.00,52.00 444.00,124.55 463.00,149.36 482.00,116.91 501.00,147.45 520.00,160.82 539.00,147.45 558.00,128.36 577.00,116.91 596.00,155.09 615.00,153.18 634.00,137.91 653.00,145.55 672.00,132.18 691.00,126.45 710.00,139.82 729.00,157.00 748.00,132.18 767.00,151.27 786.00,145.55 805.00,136.00 824.00,128.36 843.00,136.00 862.00,147.45 881.00,160.82 900.00,145.55 919.00,147.45 938.00,134.09 957.00,151.27 976.00,141.73"/>
  <circle class="dot" cx="976.00" cy="141.73" r="4.5"/>
  
  <text class="axis" x="64.00" y="336" text-anchor="start">2026-03-10</text>
  <text class="axis" x="235.00" y="336" text-anchor="middle">2026-03-19</text>
  <text class="axis" x="406.00" y="336" text-anchor="middle">2026-03-28</text>
  <text class="axis" x="577.00" y="336" text-anchor="middle">2026-04-06</text>
  <text class="axis" x="748.00" y="336" text-anchor="middle">2026-04-15</text>
  <text class="axis" x="919.00" y="336" text-anchor="middle">2026-04-24</text>
  <text class="axis" x="976.00" y="336" text-anchor="end">2026-04-27</text>
  <text class="latest" x="976" y="34" text-anchor="end">Latest day: 85</text>
</svg>
