<?xml version="1.0" encoding="UTF-8"?>
<svg xmlns="http://www.w3.org/2000/svg" viewBox="0 0 1000 360" role="img" aria-label="hordesmod/kek-ui release downloads chart">
  <defs>
    <linearGradient id="fill-daily-slate" x1="0" y1="0" x2="0" y2="1">
      <stop offset="0%" stop-color="#60a5fa" stop-opacity="0.32"/>
      <stop offset="100%" stop-color="#60a5fa" stop-opacity="0.05"/>
    </linearGradient>
    <style>
      .bg { fill: #0f172a; }
      .title { font: 700 24px Arial, sans-serif; fill: #e2e8f0; }
      .sub { font: 400 13px Arial, sans-serif; fill: #94a3b8; }
      .grid { stroke: #1e293b; stroke-width: 1; }
      .axis { font: 400 12px Arial, sans-serif; fill: #94a3b8; }
      .line { fill: none; stroke: #60a5fa; stroke-width: 3; stroke-linecap: round; stroke-linejoin: round; }
      .dot { fill: #60a5fa; }
      .value { font: 600 11px Arial, sans-serif; fill: #cbd5e1; }
      .latest { font: 700 14px Arial, sans-serif; fill: #e2e8f0; }
    </style>
  </defs>
  <rect class="bg" x="0" y="0" width="1000" height="360" rx="16" />
  <text class="title" x="64" y="34">hordesmod/kek-ui release downloads</text>
  <text class="sub" x="64" y="352">Generated 2026-05-06</text>
  <line x1="64" y1="52.00" x2="976" y2="52.00" class="grid"/>
  <text x="56" y="56.00" text-anchor="end" class="axis">132</text>
  <line x1="64" y1="94.00" x2="976" y2="94.00" class="grid"/>
  <text x="56" y="98.00" text-anchor="end" class="axis">110</text>
  <line x1="64" y1="136.00" x2="976" y2="136.00" class="grid"/>
  <text x="56" y="140.00" text-anchor="end" class="axis">88</text>
  <line x1="64" y1="178.00" x2="976" y2="178.00" class="grid"/>
  <text x="56" y="182.00" text-anchor="end" class="axis">66</text>
  <line x1="64" y1="220.00" x2="976" y2="220.00" class="grid"/>
  <text x="56" y="224.00" text-anchor="end" class="axis">44</text>
  <line x1="64" y1="262.00" x2="976" y2="262.00" class="grid"/>
  <text x="56" y="266.00" text-anchor="end" class="axis">22</text>
  <line x1="64" y1="304.00" x2="976" y2="304.00" class="grid"/>
  <text x="56" y="308.00" text-anchor="end" class="axis">0</text>
  <path d="M 64.00 304 L 64.00 304.00 L 80.00 172.27 L 96.00 160.82 L 112.00 181.82 L 128.00 242.91 L 144.00 244.82 L 160.00 239.09 L 176.00 237.18 L 192.00 223.82 L 208.00 246.73 L 224.00 252.45 L 240.00 250.55 L 256.00 237.18 L 272.00 220.00 L 288.00 254.36 L 304.00 241.00 L 320.00 179.91 L 336.00 151.27 L 352.00 149.36 L 368.00 52.00 L 384.00 124.55 L 400.00 149.36 L 416.00 116.91 L 432.00 147.45 L 448.00 160.82 L 464.00 147.45 L 480.00 128.36 L 496.00 116.91 L 512.00 155.09 L 528.00 153.18 L 544.00 137.91 L 560.00 145.55 L 576.00 132.18 L 592.00 126.45 L 608.00 139.82 L 624.00 157.00 L 640.00 132.18 L 656.00 151.27 L 672.00 145.55 L 688.00 136.00 L 704.00 128.36 L 720.00 136.00 L 736.00 147.45 L 752.00 160.82 L 768.00 145.55 L 784.00 147.45 L 800.00 134.09 L 816.00 151.27 L 832.00 141.73 L 848.00 145.55 L 864.00 139.82 L 880.00 153.18 L 896.00 145.55 L 912.00 157.00 L 928.00 122.64 L 944.00 134.09 L 960.00 120.73 L 976.00 118.82 L 976.00 304 Z" fill="url(#fill-daily-slate)"/>
  <polyline class="line" points="64.00,304.00 80.00,172.27 96.00,160.82 112.00,181.82 128.00,242.91 144.00,244.82 160.00,239.09 176.00,237.18 192.00,223.82 208.00,246.73 224.00,252.45 240.00,250.55 256.00,237.18 272.00,220.00 288.00,254.36 304.00,241.00 320.00,179.91 336.00,151.27 352.00,149.36 368.00,52.00 384.00,124.55 400.00,149.36 416.00,116.91 432.00,147.45 448.00,160.82 464.00,147.45 480.00,128.36 496.00,116.91 512.00,155.09 528.00,153.18 544.00,137.91 560.00,145.55 576.00,132.18 592.00,126.45 608.00,139.82 624.00,157.00 640.00,132.18 656.00,151.27 672.00,145.55 688.00,136.00 704.00,128.36 720.00,136.00 736.00,147.45 752.00,160.82 768.00,145.55 784.00,147.45 800.00,134.09 816.00,151.27 832.00,141.73 848.00,145.55 864.00,139.82 880.00,153.18 896.00,145.55 912.00,157.00 928.00,122.64 944.00,134.09 960.00,120.73 976.00,118.82"/>
  <circle class="dot" cx="976.00" cy="118.82" r="4.5"/>
  
  <text class="axis" x="64.00" y="336" text-anchor="start">2026-03-10</text>
  <text class="axis" x="240.00" y="336" text-anchor="middle">2026-03-21</text>
  <text class="axis" x="416.00" y="336" text-anchor="middle">2026-04-01</text>
  <text class="axis" x="592.00" y="336" text-anchor="middle">2026-04-12</text>
  <text class="axis" x="768.00" y="336" text-anchor="middle">2026-04-23</text>
  <text class="axis" x="944.00" y="336" text-anchor="middle">2026-05-04</text>
  <text class="axis" x="976.00" y="336" text-anchor="end">2026-05-06</text>
  <text class="latest" x="976" y="34" text-anchor="end">Latest day: 97</text>
</svg>
