<?xml version="1.0" encoding="UTF-8"?>
<svg xmlns="http://www.w3.org/2000/svg" viewBox="0 0 1000 360" role="img" aria-label="hordesmod/kek-ui release downloads chart">
  <defs>
    <linearGradient id="fill-daily-slate" x1="0" y1="0" x2="0" y2="1">
      <stop offset="0%" stop-color="#60a5fa" stop-opacity="0.32"/>
      <stop offset="100%" stop-color="#60a5fa" stop-opacity="0.05"/>
    </linearGradient>
    <style>
      .bg { fill: #0f172a; }
      .title { font: 700 24px Arial, sans-serif; fill: #e2e8f0; }
      .sub { font: 400 13px Arial, sans-serif; fill: #94a3b8; }
      .grid { stroke: #1e293b; stroke-width: 1; }
      .axis { font: 400 12px Arial, sans-serif; fill: #94a3b8; }
      .line { fill: none; stroke: #60a5fa; stroke-width: 3; stroke-linecap: round; stroke-linejoin: round; }
      .dot { fill: #60a5fa; }
      .value { font: 600 11px Arial, sans-serif; fill: #cbd5e1; }
      .latest { font: 700 14px Arial, sans-serif; fill: #e2e8f0; }
    </style>
  </defs>
  <rect class="bg" x="0" y="0" width="1000" height="360" rx="16" />
  <text class="title" x="64" y="34">hordesmod/kek-ui release downloads</text>
  <text class="sub" x="64" y="352">Generated 2026-04-12</text>
  <line x1="64" y1="52.00" x2="976" y2="52.00" class="grid"/>
  <text x="56" y="56.00" text-anchor="end" class="axis">132</text>
  <line x1="64" y1="94.00" x2="976" y2="94.00" class="grid"/>
  <text x="56" y="98.00" text-anchor="end" class="axis">110</text>
  <line x1="64" y1="136.00" x2="976" y2="136.00" class="grid"/>
  <text x="56" y="140.00" text-anchor="end" class="axis">88</text>
  <line x1="64" y1="178.00" x2="976" y2="178.00" class="grid"/>
  <text x="56" y="182.00" text-anchor="end" class="axis">66</text>
  <line x1="64" y1="220.00" x2="976" y2="220.00" class="grid"/>
  <text x="56" y="224.00" text-anchor="end" class="axis">44</text>
  <line x1="64" y1="262.00" x2="976" y2="262.00" class="grid"/>
  <text x="56" y="266.00" text-anchor="end" class="axis">22</text>
  <line x1="64" y1="304.00" x2="976" y2="304.00" class="grid"/>
  <text x="56" y="308.00" text-anchor="end" class="axis">0</text>
  <path d="M 64.00 304 L 64.00 304.00 L 91.64 172.27 L 119.27 160.82 L 146.91 181.82 L 174.55 242.91 L 202.18 244.82 L 229.82 239.09 L 257.45 237.18 L 285.09 223.82 L 312.73 246.73 L 340.36 252.45 L 368.00 250.55 L 395.64 237.18 L 423.27 220.00 L 450.91 254.36 L 478.55 241.00 L 506.18 179.91 L 533.82 151.27 L 561.45 149.36 L 589.09 52.00 L 616.73 124.55 L 644.36 149.36 L 672.00 116.91 L 699.64 147.45 L 727.27 160.82 L 754.91 147.45 L 782.55 128.36 L 810.18 116.91 L 837.82 155.09 L 865.45 153.18 L 893.09 137.91 L 920.73 145.55 L 948.36 132.18 L 976.00 126.45 L 976.00 304 Z" fill="url(#fill-daily-slate)"/>
  <polyline class="line" points="64.00,304.00 91.64,172.27 119.27,160.82 146.91,181.82 174.55,242.91 202.18,244.82 229.82,239.09 257.45,237.18 285.09,223.82 312.73,246.73 340.36,252.45 368.00,250.55 395.64,237.18 423.27,220.00 450.91,254.36 478.55,241.00 506.18,179.91 533.82,151.27 561.45,149.36 589.09,52.00 616.73,124.55 644.36,149.36 672.00,116.91 699.64,147.45 727.27,160.82 754.91,147.45 782.55,128.36 810.18,116.91 837.82,155.09 865.45,153.18 893.09,137.91 920.73,145.55 948.36,132.18 976.00,126.45"/>
  <circle class="dot" cx="976.00" cy="126.45" r="4.5"/>
  
  <text class="axis" x="64.00" y="336" text-anchor="start">2026-03-10</text>
  <text class="axis" x="229.82" y="336" text-anchor="middle">2026-03-16</text>
  <text class="axis" x="395.64" y="336" text-anchor="middle">2026-03-22</text>
  <text class="axis" x="561.45" y="336" text-anchor="middle">2026-03-28</text>
  <text class="axis" x="727.27" y="336" text-anchor="middle">2026-04-03</text>
  <text class="axis" x="893.09" y="336" text-anchor="middle">2026-04-09</text>
  <text class="axis" x="976.00" y="336" text-anchor="end">2026-04-12</text>
  <text class="latest" x="976" y="34" text-anchor="end">Latest day: 93</text>
</svg>
