<?xml version="1.0" encoding="UTF-8"?>
<svg xmlns="http://www.w3.org/2000/svg" viewBox="0 0 1000 360" role="img" aria-label="hordesmod/kek-ui release downloads chart">
  <defs>
    <linearGradient id="fill-daily-slate" x1="0" y1="0" x2="0" y2="1">
      <stop offset="0%" stop-color="#60a5fa" stop-opacity="0.32"/>
      <stop offset="100%" stop-color="#60a5fa" stop-opacity="0.05"/>
    </linearGradient>
    <style>
      .bg { fill: #0f172a; }
      .title { font: 700 24px Arial, sans-serif; fill: #e2e8f0; }
      .sub { font: 400 13px Arial, sans-serif; fill: #94a3b8; }
      .grid { stroke: #1e293b; stroke-width: 1; }
      .axis { font: 400 12px Arial, sans-serif; fill: #94a3b8; }
      .line { fill: none; stroke: #60a5fa; stroke-width: 3; stroke-linecap: round; stroke-linejoin: round; }
      .dot { fill: #60a5fa; }
      .value { font: 600 11px Arial, sans-serif; fill: #cbd5e1; }
      .latest { font: 700 14px Arial, sans-serif; fill: #e2e8f0; }
    </style>
  </defs>
  <rect class="bg" x="0" y="0" width="1000" height="360" rx="16" />
  <text class="title" x="64" y="34">hordesmod/kek-ui release downloads</text>
  <text class="sub" x="64" y="352">Generated 2026-05-17</text>
  <line x1="64" y1="52.00" x2="976" y2="52.00" class="grid"/>
  <text x="56" y="56.00" text-anchor="end" class="axis">132</text>
  <line x1="64" y1="94.00" x2="976" y2="94.00" class="grid"/>
  <text x="56" y="98.00" text-anchor="end" class="axis">110</text>
  <line x1="64" y1="136.00" x2="976" y2="136.00" class="grid"/>
  <text x="56" y="140.00" text-anchor="end" class="axis">88</text>
  <line x1="64" y1="178.00" x2="976" y2="178.00" class="grid"/>
  <text x="56" y="182.00" text-anchor="end" class="axis">66</text>
  <line x1="64" y1="220.00" x2="976" y2="220.00" class="grid"/>
  <text x="56" y="224.00" text-anchor="end" class="axis">44</text>
  <line x1="64" y1="262.00" x2="976" y2="262.00" class="grid"/>
  <text x="56" y="266.00" text-anchor="end" class="axis">22</text>
  <line x1="64" y1="304.00" x2="976" y2="304.00" class="grid"/>
  <text x="56" y="308.00" text-anchor="end" class="axis">0</text>
  <path d="M 64.00 304 L 64.00 304.00 L 77.41 172.27 L 90.82 160.82 L 104.24 181.82 L 117.65 242.91 L 131.06 244.82 L 144.47 239.09 L 157.88 237.18 L 171.29 223.82 L 184.71 246.73 L 198.12 252.45 L 211.53 250.55 L 224.94 237.18 L 238.35 220.00 L 251.76 254.36 L 265.18 241.00 L 278.59 179.91 L 292.00 151.27 L 305.41 149.36 L 318.82 52.00 L 332.24 124.55 L 345.65 149.36 L 359.06 116.91 L 372.47 147.45 L 385.88 160.82 L 399.29 147.45 L 412.71 128.36 L 426.12 116.91 L 439.53 155.09 L 452.94 153.18 L 466.35 137.91 L 479.76 145.55 L 493.18 132.18 L 506.59 126.45 L 520.00 139.82 L 533.41 157.00 L 546.82 132.18 L 560.24 151.27 L 573.65 145.55 L 587.06 136.00 L 600.47 128.36 L 613.88 136.00 L 627.29 147.45 L 640.71 160.82 L 654.12 145.55 L 667.53 147.45 L 680.94 134.09 L 694.35 151.27 L 707.76 141.73 L 721.18 145.55 L 734.59 139.82 L 748.00 153.18 L 761.41 145.55 L 774.82 157.00 L 788.24 122.64 L 801.65 134.09 L 815.06 120.73 L 828.47 118.82 L 841.88 155.09 L 855.29 162.73 L 868.71 132.18 L 882.12 151.27 L 895.53 141.73 L 908.94 137.91 L 922.35 155.09 L 935.76 149.36 L 949.18 168.45 L 962.59 136.00 L 976.00 136.00 L 976.00 304 Z" fill="url(#fill-daily-slate)"/>
  <polyline class="line" points="64.00,304.00 77.41,172.27 90.82,160.82 104.24,181.82 117.65,242.91 131.06,244.82 144.47,239.09 157.88,237.18 171.29,223.82 184.71,246.73 198.12,252.45 211.53,250.55 224.94,237.18 238.35,220.00 251.76,254.36 265.18,241.00 278.59,179.91 292.00,151.27 305.41,149.36 318.82,52.00 332.24,124.55 345.65,149.36 359.06,116.91 372.47,147.45 385.88,160.82 399.29,147.45 412.71,128.36 426.12,116.91 439.53,155.09 452.94,153.18 466.35,137.91 479.76,145.55 493.18,132.18 506.59,126.45 520.00,139.82 533.41,157.00 546.82,132.18 560.24,151.27 573.65,145.55 587.06,136.00 600.47,128.36 613.88,136.00 627.29,147.45 640.71,160.82 654.12,145.55 667.53,147.45 680.94,134.09 694.35,151.27 707.76,141.73 721.18,145.55 734.59,139.82 748.00,153.18 761.41,145.55 774.82,157.00 788.24,122.64 801.65,134.09 815.06,120.73 828.47,118.82 841.88,155.09 855.29,162.73 868.71,132.18 882.12,151.27 895.53,141.73 908.94,137.91 922.35,155.09 935.76,149.36 949.18,168.45 962.59,136.00 976.00,136.00"/>
  <circle class="dot" cx="976.00" cy="136.00" r="4.5"/>
  
  <text class="axis" x="64.00" y="336" text-anchor="start">2026-03-10</text>
  <text class="axis" x="238.35" y="336" text-anchor="middle">2026-03-23</text>
  <text class="axis" x="412.71" y="336" text-anchor="middle">2026-04-05</text>
  <text class="axis" x="587.06" y="336" text-anchor="middle">2026-04-18</text>
  <text class="axis" x="761.41" y="336" text-anchor="middle">2026-05-01</text>
  <text class="axis" x="935.76" y="336" text-anchor="middle">2026-05-14</text>
  <text class="axis" x="976.00" y="336" text-anchor="end">2026-05-17</text>
  <text class="latest" x="976" y="34" text-anchor="end">Latest day: 88</text>
</svg>
