<?xml version="1.0" encoding="UTF-8"?>
<svg xmlns="http://www.w3.org/2000/svg" viewBox="0 0 1000 360" role="img" aria-label="hordesmod/kek-ui release downloads chart">
  <defs>
    <linearGradient id="fill-daily-orange" x1="0" y1="0" x2="0" y2="1">
      <stop offset="0%" stop-color="#f97316" stop-opacity="0.32"/>
      <stop offset="100%" stop-color="#f97316" stop-opacity="0.05"/>
    </linearGradient>
    <style>
      .bg { fill: #fff7ed; }
      .title { font: 700 24px Arial, sans-serif; fill: #7c2d12; }
      .sub { font: 400 13px Arial, sans-serif; fill: #9a3412; }
      .grid { stroke: #fed7aa; stroke-width: 1; }
      .axis { font: 400 12px Arial, sans-serif; fill: #c2410c; }
      .line { fill: none; stroke: #ea580c; stroke-width: 3; stroke-linecap: round; stroke-linejoin: round; }
      .dot { fill: #ea580c; }
      .value { font: 600 11px Arial, sans-serif; fill: #9a3412; }
      .latest { font: 700 14px Arial, sans-serif; fill: #7c2d12; }
    </style>
  </defs>
  <rect class="bg" x="0" y="0" width="1000" height="360" rx="16" />
  <text class="title" x="64" y="34">hordesmod/kek-ui release downloads</text>
  <text class="sub" x="64" y="352">Generated 2026-04-29</text>
  <line x1="64" y1="52.00" x2="976" y2="52.00" class="grid"/>
  <text x="56" y="56.00" text-anchor="end" class="axis">132</text>
  <line x1="64" y1="94.00" x2="976" y2="94.00" class="grid"/>
  <text x="56" y="98.00" text-anchor="end" class="axis">110</text>
  <line x1="64" y1="136.00" x2="976" y2="136.00" class="grid"/>
  <text x="56" y="140.00" text-anchor="end" class="axis">88</text>
  <line x1="64" y1="178.00" x2="976" y2="178.00" class="grid"/>
  <text x="56" y="182.00" text-anchor="end" class="axis">66</text>
  <line x1="64" y1="220.00" x2="976" y2="220.00" class="grid"/>
  <text x="56" y="224.00" text-anchor="end" class="axis">44</text>
  <line x1="64" y1="262.00" x2="976" y2="262.00" class="grid"/>
  <text x="56" y="266.00" text-anchor="end" class="axis">22</text>
  <line x1="64" y1="304.00" x2="976" y2="304.00" class="grid"/>
  <text x="56" y="308.00" text-anchor="end" class="axis">0</text>
  <path d="M 64.00 304 L 64.00 304.00 L 82.24 172.27 L 100.48 160.82 L 118.72 181.82 L 136.96 242.91 L 155.20 244.82 L 173.44 239.09 L 191.68 237.18 L 209.92 223.82 L 228.16 246.73 L 246.40 252.45 L 264.64 250.55 L 282.88 237.18 L 301.12 220.00 L 319.36 254.36 L 337.60 241.00 L 355.84 179.91 L 374.08 151.27 L 392.32 149.36 L 410.56 52.00 L 428.80 124.55 L 447.04 149.36 L 465.28 116.91 L 483.52 147.45 L 501.76 160.82 L 520.00 147.45 L 538.24 128.36 L 556.48 116.91 L 574.72 155.09 L 592.96 153.18 L 611.20 137.91 L 629.44 145.55 L 647.68 132.18 L 665.92 126.45 L 684.16 139.82 L 702.40 157.00 L 720.64 132.18 L 738.88 151.27 L 757.12 145.55 L 775.36 136.00 L 793.60 128.36 L 811.84 136.00 L 830.08 147.45 L 848.32 160.82 L 866.56 145.55 L 884.80 147.45 L 903.04 134.09 L 921.28 151.27 L 939.52 141.73 L 957.76 145.55 L 976.00 139.82 L 976.00 304 Z" fill="url(#fill-daily-orange)"/>
  <polyline class="line" points="64.00,304.00 82.24,172.27 100.48,160.82 118.72,181.82 136.96,242.91 155.20,244.82 173.44,239.09 191.68,237.18 209.92,223.82 228.16,246.73 246.40,252.45 264.64,250.55 282.88,237.18 301.12,220.00 319.36,254.36 337.60,241.00 355.84,179.91 374.08,151.27 392.32,149.36 410.56,52.00 428.80,124.55 447.04,149.36 465.28,116.91 483.52,147.45 501.76,160.82 520.00,147.45 538.24,128.36 556.48,116.91 574.72,155.09 592.96,153.18 611.20,137.91 629.44,145.55 647.68,132.18 665.92,126.45 684.16,139.82 702.40,157.00 720.64,132.18 738.88,151.27 757.12,145.55 775.36,136.00 793.60,128.36 811.84,136.00 830.08,147.45 848.32,160.82 866.56,145.55 884.80,147.45 903.04,134.09 921.28,151.27 939.52,141.73 957.76,145.55 976.00,139.82"/>
  <circle class="dot" cx="976.00" cy="139.82" r="4.5"/>
  
  <text class="axis" x="64.00" y="336" text-anchor="start">2026-03-10</text>
  <text class="axis" x="246.40" y="336" text-anchor="middle">2026-03-20</text>
  <text class="axis" x="428.80" y="336" text-anchor="middle">2026-03-30</text>
  <text class="axis" x="611.20" y="336" text-anchor="middle">2026-04-09</text>
  <text class="axis" x="793.60" y="336" text-anchor="middle">2026-04-19</text>
  <text class="axis" x="976.00" y="336" text-anchor="end">2026-04-29</text>
  <text class="latest" x="976" y="34" text-anchor="end">Latest day: 86</text>
</svg>
