<?xml version="1.0" encoding="UTF-8"?>
<svg xmlns="http://www.w3.org/2000/svg" viewBox="0 0 1000 360" role="img" aria-label="hordesmod/kek-ui release downloads chart">
  <defs>
    <linearGradient id="fill-daily-orange" x1="0" y1="0" x2="0" y2="1">
      <stop offset="0%" stop-color="#f97316" stop-opacity="0.32"/>
      <stop offset="100%" stop-color="#f97316" stop-opacity="0.05"/>
    </linearGradient>
    <style>
      .bg { fill: #fff7ed; }
      .title { font: 700 24px Arial, sans-serif; fill: #7c2d12; }
      .sub { font: 400 13px Arial, sans-serif; fill: #9a3412; }
      .grid { stroke: #fed7aa; stroke-width: 1; }
      .axis { font: 400 12px Arial, sans-serif; fill: #c2410c; }
      .line { fill: none; stroke: #ea580c; stroke-width: 3; stroke-linecap: round; stroke-linejoin: round; }
      .dot { fill: #ea580c; }
      .value { font: 600 11px Arial, sans-serif; fill: #9a3412; }
      .latest { font: 700 14px Arial, sans-serif; fill: #7c2d12; }
    </style>
  </defs>
  <rect class="bg" x="0" y="0" width="1000" height="360" rx="16" />
  <text class="title" x="64" y="34">hordesmod/kek-ui release downloads</text>
  <text class="sub" x="64" y="352">Generated 2026-03-27</text>
  <line x1="64" y1="52.00" x2="976" y2="52.00" class="grid"/>
  <text x="56" y="56.00" text-anchor="end" class="axis">80</text>
  <line x1="64" y1="94.00" x2="976" y2="94.00" class="grid"/>
  <text x="56" y="98.00" text-anchor="end" class="axis">67</text>
  <line x1="64" y1="136.00" x2="976" y2="136.00" class="grid"/>
  <text x="56" y="140.00" text-anchor="end" class="axis">53</text>
  <line x1="64" y1="178.00" x2="976" y2="178.00" class="grid"/>
  <text x="56" y="182.00" text-anchor="end" class="axis">40</text>
  <line x1="64" y1="220.00" x2="976" y2="220.00" class="grid"/>
  <text x="56" y="224.00" text-anchor="end" class="axis">27</text>
  <line x1="64" y1="262.00" x2="976" y2="262.00" class="grid"/>
  <text x="56" y="266.00" text-anchor="end" class="axis">13</text>
  <line x1="64" y1="304.00" x2="976" y2="304.00" class="grid"/>
  <text x="56" y="308.00" text-anchor="end" class="axis">0</text>
  <path d="M 64.00 304 L 64.00 304.00 L 117.65 86.65 L 171.29 67.75 L 224.94 102.40 L 278.59 203.20 L 332.24 206.35 L 385.88 196.90 L 439.53 193.75 L 493.18 171.70 L 546.82 209.50 L 600.47 218.95 L 654.12 215.80 L 707.76 193.75 L 761.41 165.40 L 815.06 222.10 L 868.71 200.05 L 922.35 99.25 L 976.00 52.00 L 976.00 304 Z" fill="url(#fill-daily-orange)"/>
  <polyline class="line" points="64.00,304.00 117.65,86.65 171.29,67.75 224.94,102.40 278.59,203.20 332.24,206.35 385.88,196.90 439.53,193.75 493.18,171.70 546.82,209.50 600.47,218.95 654.12,215.80 707.76,193.75 761.41,165.40 815.06,222.10 868.71,200.05 922.35,99.25 976.00,52.00"/>
  <circle class="dot" cx="976.00" cy="52.00" r="4.5"/>
  
  <text class="axis" x="64.00" y="336" text-anchor="start">2026-03-10</text>
  <text class="axis" x="224.94" y="336" text-anchor="middle">2026-03-13</text>
  <text class="axis" x="385.88" y="336" text-anchor="middle">2026-03-16</text>
  <text class="axis" x="546.82" y="336" text-anchor="middle">2026-03-19</text>
  <text class="axis" x="707.76" y="336" text-anchor="middle">2026-03-22</text>
  <text class="axis" x="868.71" y="336" text-anchor="middle">2026-03-25</text>
  <text class="axis" x="976.00" y="336" text-anchor="end">2026-03-27</text>
  <text class="latest" x="976" y="34" text-anchor="end">Latest day: 80</text>
</svg>
