<?xml version="1.0" encoding="UTF-8"?>
<svg xmlns="http://www.w3.org/2000/svg" viewBox="0 0 1000 360" role="img" aria-label="hordesmod/kek-ui release downloads chart">
  <defs>
    <linearGradient id="fill-daily-black" x1="0" y1="0" x2="0" y2="1">
      <stop offset="0%" stop-color="#22d3ee" stop-opacity="0.32"/>
      <stop offset="100%" stop-color="#22d3ee" stop-opacity="0.05"/>
    </linearGradient>
    <style>
      .bg { fill: #0b0b0d; }
      .title { font: 700 24px Arial, sans-serif; fill: #f8fafc; }
      .sub { font: 400 13px Arial, sans-serif; fill: #cbd5e1; }
      .grid { stroke: #1f2937; stroke-width: 1; }
      .axis { font: 400 12px Arial, sans-serif; fill: #94a3b8; }
      .line { fill: none; stroke: #22d3ee; stroke-width: 3; stroke-linecap: round; stroke-linejoin: round; }
      .dot { fill: #22d3ee; }
      .value { font: 600 11px Arial, sans-serif; fill: #cbd5e1; }
      .latest { font: 700 14px Arial, sans-serif; fill: #f8fafc; }
    </style>
  </defs>
  <rect class="bg" x="0" y="0" width="1000" height="360" rx="16" />
  <text class="title" x="64" y="34">hordesmod/kek-ui release downloads</text>
  <text class="sub" x="64" y="352">Generated 2026-04-24</text>
  <line x1="64" y1="52.00" x2="976" y2="52.00" class="grid"/>
  <text x="56" y="56.00" text-anchor="end" class="axis">132</text>
  <line x1="64" y1="94.00" x2="976" y2="94.00" class="grid"/>
  <text x="56" y="98.00" text-anchor="end" class="axis">110</text>
  <line x1="64" y1="136.00" x2="976" y2="136.00" class="grid"/>
  <text x="56" y="140.00" text-anchor="end" class="axis">88</text>
  <line x1="64" y1="178.00" x2="976" y2="178.00" class="grid"/>
  <text x="56" y="182.00" text-anchor="end" class="axis">66</text>
  <line x1="64" y1="220.00" x2="976" y2="220.00" class="grid"/>
  <text x="56" y="224.00" text-anchor="end" class="axis">44</text>
  <line x1="64" y1="262.00" x2="976" y2="262.00" class="grid"/>
  <text x="56" y="266.00" text-anchor="end" class="axis">22</text>
  <line x1="64" y1="304.00" x2="976" y2="304.00" class="grid"/>
  <text x="56" y="308.00" text-anchor="end" class="axis">0</text>
  <path d="M 64.00 304 L 64.00 304.00 L 84.27 172.27 L 104.53 160.82 L 124.80 181.82 L 145.07 242.91 L 165.33 244.82 L 185.60 239.09 L 205.87 237.18 L 226.13 223.82 L 246.40 246.73 L 266.67 252.45 L 286.93 250.55 L 307.20 237.18 L 327.47 220.00 L 347.73 254.36 L 368.00 241.00 L 388.27 179.91 L 408.53 151.27 L 428.80 149.36 L 449.07 52.00 L 469.33 124.55 L 489.60 149.36 L 509.87 116.91 L 530.13 147.45 L 550.40 160.82 L 570.67 147.45 L 590.93 128.36 L 611.20 116.91 L 631.47 155.09 L 651.73 153.18 L 672.00 137.91 L 692.27 145.55 L 712.53 132.18 L 732.80 126.45 L 753.07 139.82 L 773.33 157.00 L 793.60 132.18 L 813.87 151.27 L 834.13 145.55 L 854.40 136.00 L 874.67 128.36 L 894.93 136.00 L 915.20 147.45 L 935.47 160.82 L 955.73 145.55 L 976.00 147.45 L 976.00 304 Z" fill="url(#fill-daily-black)"/>
  <polyline class="line" points="64.00,304.00 84.27,172.27 104.53,160.82 124.80,181.82 145.07,242.91 165.33,244.82 185.60,239.09 205.87,237.18 226.13,223.82 246.40,246.73 266.67,252.45 286.93,250.55 307.20,237.18 327.47,220.00 347.73,254.36 368.00,241.00 388.27,179.91 408.53,151.27 428.80,149.36 449.07,52.00 469.33,124.55 489.60,149.36 509.87,116.91 530.13,147.45 550.40,160.82 570.67,147.45 590.93,128.36 611.20,116.91 631.47,155.09 651.73,153.18 672.00,137.91 692.27,145.55 712.53,132.18 732.80,126.45 753.07,139.82 773.33,157.00 793.60,132.18 813.87,151.27 834.13,145.55 854.40,136.00 874.67,128.36 894.93,136.00 915.20,147.45 935.47,160.82 955.73,145.55 976.00,147.45"/>
  <circle class="dot" cx="976.00" cy="147.45" r="4.5"/>
  
  <text class="axis" x="64.00" y="336" text-anchor="start">2026-03-10</text>
  <text class="axis" x="246.40" y="336" text-anchor="middle">2026-03-19</text>
  <text class="axis" x="428.80" y="336" text-anchor="middle">2026-03-28</text>
  <text class="axis" x="611.20" y="336" text-anchor="middle">2026-04-06</text>
  <text class="axis" x="793.60" y="336" text-anchor="middle">2026-04-15</text>
  <text class="axis" x="976.00" y="336" text-anchor="end">2026-04-24</text>
  <text class="latest" x="976" y="34" text-anchor="end">Latest day: 82</text>
</svg>
