<?xml version="1.0" encoding="UTF-8"?>
<svg xmlns="http://www.w3.org/2000/svg" viewBox="0 0 1000 360" role="img" aria-label="hordesmod/kek-ui release downloads chart">
  <defs>
    <linearGradient id="fill-daily-orange" x1="0" y1="0" x2="0" y2="1">
      <stop offset="0%" stop-color="#f97316" stop-opacity="0.32"/>
      <stop offset="100%" stop-color="#f97316" stop-opacity="0.05"/>
    </linearGradient>
    <style>
      .bg { fill: #fff7ed; }
      .title { font: 700 24px Arial, sans-serif; fill: #7c2d12; }
      .sub { font: 400 13px Arial, sans-serif; fill: #9a3412; }
      .grid { stroke: #fed7aa; stroke-width: 1; }
      .axis { font: 400 12px Arial, sans-serif; fill: #c2410c; }
      .line { fill: none; stroke: #ea580c; stroke-width: 3; stroke-linecap: round; stroke-linejoin: round; }
      .dot { fill: #ea580c; }
      .value { font: 600 11px Arial, sans-serif; fill: #9a3412; }
      .latest { font: 700 14px Arial, sans-serif; fill: #7c2d12; }
    </style>
  </defs>
  <rect class="bg" x="0" y="0" width="1000" height="360" rx="16" />
  <text class="title" x="64" y="34">hordesmod/kek-ui release downloads</text>
  <text class="sub" x="64" y="352">Generated 2026-05-15</text>
  <line x1="64" y1="52.00" x2="976" y2="52.00" class="grid"/>
  <text x="56" y="56.00" text-anchor="end" class="axis">132</text>
  <line x1="64" y1="94.00" x2="976" y2="94.00" class="grid"/>
  <text x="56" y="98.00" text-anchor="end" class="axis">110</text>
  <line x1="64" y1="136.00" x2="976" y2="136.00" class="grid"/>
  <text x="56" y="140.00" text-anchor="end" class="axis">88</text>
  <line x1="64" y1="178.00" x2="976" y2="178.00" class="grid"/>
  <text x="56" y="182.00" text-anchor="end" class="axis">66</text>
  <line x1="64" y1="220.00" x2="976" y2="220.00" class="grid"/>
  <text x="56" y="224.00" text-anchor="end" class="axis">44</text>
  <line x1="64" y1="262.00" x2="976" y2="262.00" class="grid"/>
  <text x="56" y="266.00" text-anchor="end" class="axis">22</text>
  <line x1="64" y1="304.00" x2="976" y2="304.00" class="grid"/>
  <text x="56" y="308.00" text-anchor="end" class="axis">0</text>
  <path d="M 64.00 304 L 64.00 304.00 L 77.82 172.27 L 91.64 160.82 L 105.45 181.82 L 119.27 242.91 L 133.09 244.82 L 146.91 239.09 L 160.73 237.18 L 174.55 223.82 L 188.36 246.73 L 202.18 252.45 L 216.00 250.55 L 229.82 237.18 L 243.64 220.00 L 257.45 254.36 L 271.27 241.00 L 285.09 179.91 L 298.91 151.27 L 312.73 149.36 L 326.55 52.00 L 340.36 124.55 L 354.18 149.36 L 368.00 116.91 L 381.82 147.45 L 395.64 160.82 L 409.45 147.45 L 423.27 128.36 L 437.09 116.91 L 450.91 155.09 L 464.73 153.18 L 478.55 137.91 L 492.36 145.55 L 506.18 132.18 L 520.00 126.45 L 533.82 139.82 L 547.64 157.00 L 561.45 132.18 L 575.27 151.27 L 589.09 145.55 L 602.91 136.00 L 616.73 128.36 L 630.55 136.00 L 644.36 147.45 L 658.18 160.82 L 672.00 145.55 L 685.82 147.45 L 699.64 134.09 L 713.45 151.27 L 727.27 141.73 L 741.09 145.55 L 754.91 139.82 L 768.73 153.18 L 782.55 145.55 L 796.36 157.00 L 810.18 122.64 L 824.00 134.09 L 837.82 120.73 L 851.64 118.82 L 865.45 155.09 L 879.27 162.73 L 893.09 132.18 L 906.91 151.27 L 920.73 141.73 L 934.55 137.91 L 948.36 155.09 L 962.18 149.36 L 976.00 168.45 L 976.00 304 Z" fill="url(#fill-daily-orange)"/>
  <polyline class="line" points="64.00,304.00 77.82,172.27 91.64,160.82 105.45,181.82 119.27,242.91 133.09,244.82 146.91,239.09 160.73,237.18 174.55,223.82 188.36,246.73 202.18,252.45 216.00,250.55 229.82,237.18 243.64,220.00 257.45,254.36 271.27,241.00 285.09,179.91 298.91,151.27 312.73,149.36 326.55,52.00 340.36,124.55 354.18,149.36 368.00,116.91 381.82,147.45 395.64,160.82 409.45,147.45 423.27,128.36 437.09,116.91 450.91,155.09 464.73,153.18 478.55,137.91 492.36,145.55 506.18,132.18 520.00,126.45 533.82,139.82 547.64,157.00 561.45,132.18 575.27,151.27 589.09,145.55 602.91,136.00 616.73,128.36 630.55,136.00 644.36,147.45 658.18,160.82 672.00,145.55 685.82,147.45 699.64,134.09 713.45,151.27 727.27,141.73 741.09,145.55 754.91,139.82 768.73,153.18 782.55,145.55 796.36,157.00 810.18,122.64 824.00,134.09 837.82,120.73 851.64,118.82 865.45,155.09 879.27,162.73 893.09,132.18 906.91,151.27 920.73,141.73 934.55,137.91 948.36,155.09 962.18,149.36 976.00,168.45"/>
  <circle class="dot" cx="976.00" cy="168.45" r="4.5"/>
  
  <text class="axis" x="64.00" y="336" text-anchor="start">2026-03-10</text>
  <text class="axis" x="243.64" y="336" text-anchor="middle">2026-03-23</text>
  <text class="axis" x="423.27" y="336" text-anchor="middle">2026-04-05</text>
  <text class="axis" x="602.91" y="336" text-anchor="middle">2026-04-18</text>
  <text class="axis" x="782.55" y="336" text-anchor="middle">2026-05-01</text>
  <text class="axis" x="962.18" y="336" text-anchor="middle">2026-05-14</text>
  <text class="axis" x="976.00" y="336" text-anchor="end">2026-05-15</text>
  <text class="latest" x="976" y="34" text-anchor="end">Latest day: 71</text>
</svg>
