<?xml version="1.0" encoding="UTF-8"?>
<svg xmlns="http://www.w3.org/2000/svg" viewBox="0 0 1000 360" role="img" aria-label="hordesmod/kek-ui release downloads chart">
  <defs>
    <linearGradient id="fill-daily-orange" x1="0" y1="0" x2="0" y2="1">
      <stop offset="0%" stop-color="#f97316" stop-opacity="0.32"/>
      <stop offset="100%" stop-color="#f97316" stop-opacity="0.05"/>
    </linearGradient>
    <style>
      .bg { fill: #fff7ed; }
      .title { font: 700 24px Arial, sans-serif; fill: #7c2d12; }
      .sub { font: 400 13px Arial, sans-serif; fill: #9a3412; }
      .grid { stroke: #fed7aa; stroke-width: 1; }
      .axis { font: 400 12px Arial, sans-serif; fill: #c2410c; }
      .line { fill: none; stroke: #ea580c; stroke-width: 3; stroke-linecap: round; stroke-linejoin: round; }
      .dot { fill: #ea580c; }
      .value { font: 600 11px Arial, sans-serif; fill: #9a3412; }
      .latest { font: 700 14px Arial, sans-serif; fill: #7c2d12; }
    </style>
  </defs>
  <rect class="bg" x="0" y="0" width="1000" height="360" rx="16" />
  <text class="title" x="64" y="34">hordesmod/kek-ui release downloads</text>
  <text class="sub" x="64" y="352">Generated 2026-04-08</text>
  <line x1="64" y1="52.00" x2="976" y2="52.00" class="grid"/>
  <text x="56" y="56.00" text-anchor="end" class="axis">132</text>
  <line x1="64" y1="94.00" x2="976" y2="94.00" class="grid"/>
  <text x="56" y="98.00" text-anchor="end" class="axis">110</text>
  <line x1="64" y1="136.00" x2="976" y2="136.00" class="grid"/>
  <text x="56" y="140.00" text-anchor="end" class="axis">88</text>
  <line x1="64" y1="178.00" x2="976" y2="178.00" class="grid"/>
  <text x="56" y="182.00" text-anchor="end" class="axis">66</text>
  <line x1="64" y1="220.00" x2="976" y2="220.00" class="grid"/>
  <text x="56" y="224.00" text-anchor="end" class="axis">44</text>
  <line x1="64" y1="262.00" x2="976" y2="262.00" class="grid"/>
  <text x="56" y="266.00" text-anchor="end" class="axis">22</text>
  <line x1="64" y1="304.00" x2="976" y2="304.00" class="grid"/>
  <text x="56" y="308.00" text-anchor="end" class="axis">0</text>
  <path d="M 64.00 304 L 64.00 304.00 L 95.45 172.27 L 126.90 160.82 L 158.34 181.82 L 189.79 242.91 L 221.24 244.82 L 252.69 239.09 L 284.14 237.18 L 315.59 223.82 L 347.03 246.73 L 378.48 252.45 L 409.93 250.55 L 441.38 237.18 L 472.83 220.00 L 504.28 254.36 L 535.72 241.00 L 567.17 179.91 L 598.62 151.27 L 630.07 149.36 L 661.52 52.00 L 692.97 124.55 L 724.41 149.36 L 755.86 116.91 L 787.31 147.45 L 818.76 160.82 L 850.21 147.45 L 881.66 128.36 L 913.10 116.91 L 944.55 155.09 L 976.00 153.18 L 976.00 304 Z" fill="url(#fill-daily-orange)"/>
  <polyline class="line" points="64.00,304.00 95.45,172.27 126.90,160.82 158.34,181.82 189.79,242.91 221.24,244.82 252.69,239.09 284.14,237.18 315.59,223.82 347.03,246.73 378.48,252.45 409.93,250.55 441.38,237.18 472.83,220.00 504.28,254.36 535.72,241.00 567.17,179.91 598.62,151.27 630.07,149.36 661.52,52.00 692.97,124.55 724.41,149.36 755.86,116.91 787.31,147.45 818.76,160.82 850.21,147.45 881.66,128.36 913.10,116.91 944.55,155.09 976.00,153.18"/>
  <circle class="dot" cx="976.00" cy="153.18" r="4.5"/>
  
  <text class="axis" x="64.00" y="336" text-anchor="start">2026-03-10</text>
  <text class="axis" x="221.24" y="336" text-anchor="middle">2026-03-15</text>
  <text class="axis" x="378.48" y="336" text-anchor="middle">2026-03-20</text>
  <text class="axis" x="535.72" y="336" text-anchor="middle">2026-03-25</text>
  <text class="axis" x="692.97" y="336" text-anchor="middle">2026-03-30</text>
  <text class="axis" x="850.21" y="336" text-anchor="middle">2026-04-04</text>
  <text class="axis" x="976.00" y="336" text-anchor="end">2026-04-08</text>
  <text class="latest" x="976" y="34" text-anchor="end">Latest day: 79</text>
</svg>
