<?xml version="1.0" encoding="UTF-8"?>
<svg xmlns="http://www.w3.org/2000/svg" viewBox="0 0 1000 360" role="img" aria-label="hordesmod/kek-ui release downloads chart">
  <defs>
    <linearGradient id="fill-daily-orange" x1="0" y1="0" x2="0" y2="1">
      <stop offset="0%" stop-color="#f97316" stop-opacity="0.32"/>
      <stop offset="100%" stop-color="#f97316" stop-opacity="0.05"/>
    </linearGradient>
    <style>
      .bg { fill: #fff7ed; }
      .title { font: 700 24px Arial, sans-serif; fill: #7c2d12; }
      .sub { font: 400 13px Arial, sans-serif; fill: #9a3412; }
      .grid { stroke: #fed7aa; stroke-width: 1; }
      .axis { font: 400 12px Arial, sans-serif; fill: #c2410c; }
      .line { fill: none; stroke: #ea580c; stroke-width: 3; stroke-linecap: round; stroke-linejoin: round; }
      .dot { fill: #ea580c; }
      .value { font: 600 11px Arial, sans-serif; fill: #9a3412; }
      .latest { font: 700 14px Arial, sans-serif; fill: #7c2d12; }
    </style>
  </defs>
  <rect class="bg" x="0" y="0" width="1000" height="360" rx="16" />
  <text class="title" x="64" y="34">hordesmod/kek-ui release downloads</text>
  <text class="sub" x="64" y="352">Generated 2026-05-03</text>
  <line x1="64" y1="52.00" x2="976" y2="52.00" class="grid"/>
  <text x="56" y="56.00" text-anchor="end" class="axis">132</text>
  <line x1="64" y1="94.00" x2="976" y2="94.00" class="grid"/>
  <text x="56" y="98.00" text-anchor="end" class="axis">110</text>
  <line x1="64" y1="136.00" x2="976" y2="136.00" class="grid"/>
  <text x="56" y="140.00" text-anchor="end" class="axis">88</text>
  <line x1="64" y1="178.00" x2="976" y2="178.00" class="grid"/>
  <text x="56" y="182.00" text-anchor="end" class="axis">66</text>
  <line x1="64" y1="220.00" x2="976" y2="220.00" class="grid"/>
  <text x="56" y="224.00" text-anchor="end" class="axis">44</text>
  <line x1="64" y1="262.00" x2="976" y2="262.00" class="grid"/>
  <text x="56" y="266.00" text-anchor="end" class="axis">22</text>
  <line x1="64" y1="304.00" x2="976" y2="304.00" class="grid"/>
  <text x="56" y="308.00" text-anchor="end" class="axis">0</text>
  <path d="M 64.00 304 L 64.00 304.00 L 80.89 172.27 L 97.78 160.82 L 114.67 181.82 L 131.56 242.91 L 148.44 244.82 L 165.33 239.09 L 182.22 237.18 L 199.11 223.82 L 216.00 246.73 L 232.89 252.45 L 249.78 250.55 L 266.67 237.18 L 283.56 220.00 L 300.44 254.36 L 317.33 241.00 L 334.22 179.91 L 351.11 151.27 L 368.00 149.36 L 384.89 52.00 L 401.78 124.55 L 418.67 149.36 L 435.56 116.91 L 452.44 147.45 L 469.33 160.82 L 486.22 147.45 L 503.11 128.36 L 520.00 116.91 L 536.89 155.09 L 553.78 153.18 L 570.67 137.91 L 587.56 145.55 L 604.44 132.18 L 621.33 126.45 L 638.22 139.82 L 655.11 157.00 L 672.00 132.18 L 688.89 151.27 L 705.78 145.55 L 722.67 136.00 L 739.56 128.36 L 756.44 136.00 L 773.33 147.45 L 790.22 160.82 L 807.11 145.55 L 824.00 147.45 L 840.89 134.09 L 857.78 151.27 L 874.67 141.73 L 891.56 145.55 L 908.44 139.82 L 925.33 153.18 L 942.22 145.55 L 959.11 157.00 L 976.00 122.64 L 976.00 304 Z" fill="url(#fill-daily-orange)"/>
  <polyline class="line" points="64.00,304.00 80.89,172.27 97.78,160.82 114.67,181.82 131.56,242.91 148.44,244.82 165.33,239.09 182.22,237.18 199.11,223.82 216.00,246.73 232.89,252.45 249.78,250.55 266.67,237.18 283.56,220.00 300.44,254.36 317.33,241.00 334.22,179.91 351.11,151.27 368.00,149.36 384.89,52.00 401.78,124.55 418.67,149.36 435.56,116.91 452.44,147.45 469.33,160.82 486.22,147.45 503.11,128.36 520.00,116.91 536.89,155.09 553.78,153.18 570.67,137.91 587.56,145.55 604.44,132.18 621.33,126.45 638.22,139.82 655.11,157.00 672.00,132.18 688.89,151.27 705.78,145.55 722.67,136.00 739.56,128.36 756.44,136.00 773.33,147.45 790.22,160.82 807.11,145.55 824.00,147.45 840.89,134.09 857.78,151.27 874.67,141.73 891.56,145.55 908.44,139.82 925.33,153.18 942.22,145.55 959.11,157.00 976.00,122.64"/>
  <circle class="dot" cx="976.00" cy="122.64" r="4.5"/>
  
  <text class="axis" x="64.00" y="336" text-anchor="start">2026-03-10</text>
  <text class="axis" x="232.89" y="336" text-anchor="middle">2026-03-20</text>
  <text class="axis" x="401.78" y="336" text-anchor="middle">2026-03-30</text>
  <text class="axis" x="570.67" y="336" text-anchor="middle">2026-04-09</text>
  <text class="axis" x="739.56" y="336" text-anchor="middle">2026-04-19</text>
  <text class="axis" x="908.44" y="336" text-anchor="middle">2026-04-29</text>
  <text class="axis" x="976.00" y="336" text-anchor="end">2026-05-03</text>
  <text class="latest" x="976" y="34" text-anchor="end">Latest day: 95</text>
</svg>
