<?xml version="1.0" encoding="UTF-8"?>
<svg xmlns="http://www.w3.org/2000/svg" viewBox="0 0 1000 360" role="img" aria-label="hordesmod/kek-ui release downloads chart">
  <defs>
    <linearGradient id="fill-daily-orange" x1="0" y1="0" x2="0" y2="1">
      <stop offset="0%" stop-color="#f97316" stop-opacity="0.32"/>
      <stop offset="100%" stop-color="#f97316" stop-opacity="0.05"/>
    </linearGradient>
    <style>
      .bg { fill: #fff7ed; }
      .title { font: 700 24px Arial, sans-serif; fill: #7c2d12; }
      .sub { font: 400 13px Arial, sans-serif; fill: #9a3412; }
      .grid { stroke: #fed7aa; stroke-width: 1; }
      .axis { font: 400 12px Arial, sans-serif; fill: #c2410c; }
      .line { fill: none; stroke: #ea580c; stroke-width: 3; stroke-linecap: round; stroke-linejoin: round; }
      .dot { fill: #ea580c; }
      .value { font: 600 11px Arial, sans-serif; fill: #9a3412; }
      .latest { font: 700 14px Arial, sans-serif; fill: #7c2d12; }
    </style>
  </defs>
  <rect class="bg" x="0" y="0" width="1000" height="360" rx="16" />
  <text class="title" x="64" y="34">hordesmod/kek-ui release downloads</text>
  <text class="sub" x="64" y="352">Generated 2026-05-19</text>
  <line x1="64" y1="52.00" x2="976" y2="52.00" class="grid"/>
  <text x="56" y="56.00" text-anchor="end" class="axis">132</text>
  <line x1="64" y1="94.00" x2="976" y2="94.00" class="grid"/>
  <text x="56" y="98.00" text-anchor="end" class="axis">110</text>
  <line x1="64" y1="136.00" x2="976" y2="136.00" class="grid"/>
  <text x="56" y="140.00" text-anchor="end" class="axis">88</text>
  <line x1="64" y1="178.00" x2="976" y2="178.00" class="grid"/>
  <text x="56" y="182.00" text-anchor="end" class="axis">66</text>
  <line x1="64" y1="220.00" x2="976" y2="220.00" class="grid"/>
  <text x="56" y="224.00" text-anchor="end" class="axis">44</text>
  <line x1="64" y1="262.00" x2="976" y2="262.00" class="grid"/>
  <text x="56" y="266.00" text-anchor="end" class="axis">22</text>
  <line x1="64" y1="304.00" x2="976" y2="304.00" class="grid"/>
  <text x="56" y="308.00" text-anchor="end" class="axis">0</text>
  <path d="M 64.00 304 L 64.00 304.00 L 77.03 172.27 L 90.06 160.82 L 103.09 181.82 L 116.11 242.91 L 129.14 244.82 L 142.17 239.09 L 155.20 237.18 L 168.23 223.82 L 181.26 246.73 L 194.29 252.45 L 207.31 250.55 L 220.34 237.18 L 233.37 220.00 L 246.40 254.36 L 259.43 241.00 L 272.46 179.91 L 285.49 151.27 L 298.51 149.36 L 311.54 52.00 L 324.57 124.55 L 337.60 149.36 L 350.63 116.91 L 363.66 147.45 L 376.69 160.82 L 389.71 147.45 L 402.74 128.36 L 415.77 116.91 L 428.80 155.09 L 441.83 153.18 L 454.86 137.91 L 467.89 145.55 L 480.91 132.18 L 493.94 126.45 L 506.97 139.82 L 520.00 157.00 L 533.03 132.18 L 546.06 151.27 L 559.09 145.55 L 572.11 136.00 L 585.14 128.36 L 598.17 136.00 L 611.20 147.45 L 624.23 160.82 L 637.26 145.55 L 650.29 147.45 L 663.31 134.09 L 676.34 151.27 L 689.37 141.73 L 702.40 145.55 L 715.43 139.82 L 728.46 153.18 L 741.49 145.55 L 754.51 157.00 L 767.54 122.64 L 780.57 134.09 L 793.60 120.73 L 806.63 118.82 L 819.66 155.09 L 832.69 162.73 L 845.71 132.18 L 858.74 151.27 L 871.77 141.73 L 884.80 137.91 L 897.83 155.09 L 910.86 149.36 L 923.89 168.45 L 936.91 136.00 L 949.94 136.00 L 962.97 137.91 L 976.00 151.27 L 976.00 304 Z" fill="url(#fill-daily-orange)"/>
  <polyline class="line" points="64.00,304.00 77.03,172.27 90.06,160.82 103.09,181.82 116.11,242.91 129.14,244.82 142.17,239.09 155.20,237.18 168.23,223.82 181.26,246.73 194.29,252.45 207.31,250.55 220.34,237.18 233.37,220.00 246.40,254.36 259.43,241.00 272.46,179.91 285.49,151.27 298.51,149.36 311.54,52.00 324.57,124.55 337.60,149.36 350.63,116.91 363.66,147.45 376.69,160.82 389.71,147.45 402.74,128.36 415.77,116.91 428.80,155.09 441.83,153.18 454.86,137.91 467.89,145.55 480.91,132.18 493.94,126.45 506.97,139.82 520.00,157.00 533.03,132.18 546.06,151.27 559.09,145.55 572.11,136.00 585.14,128.36 598.17,136.00 611.20,147.45 624.23,160.82 637.26,145.55 650.29,147.45 663.31,134.09 676.34,151.27 689.37,141.73 702.40,145.55 715.43,139.82 728.46,153.18 741.49,145.55 754.51,157.00 767.54,122.64 780.57,134.09 793.60,120.73 806.63,118.82 819.66,155.09 832.69,162.73 845.71,132.18 858.74,151.27 871.77,141.73 884.80,137.91 897.83,155.09 910.86,149.36 923.89,168.45 936.91,136.00 949.94,136.00 962.97,137.91 976.00,151.27"/>
  <circle class="dot" cx="976.00" cy="151.27" r="4.5"/>
  
  <text class="axis" x="64.00" y="336" text-anchor="start">2026-03-10</text>
  <text class="axis" x="246.40" y="336" text-anchor="middle">2026-03-24</text>
  <text class="axis" x="428.80" y="336" text-anchor="middle">2026-04-07</text>
  <text class="axis" x="611.20" y="336" text-anchor="middle">2026-04-21</text>
  <text class="axis" x="793.60" y="336" text-anchor="middle">2026-05-05</text>
  <text class="axis" x="976.00" y="336" text-anchor="end">2026-05-19</text>
  <text class="latest" x="976" y="34" text-anchor="end">Latest day: 80</text>
</svg>
