<?xml version="1.0" encoding="UTF-8"?>
<svg xmlns="http://www.w3.org/2000/svg" viewBox="0 0 1000 360" role="img" aria-label="hordesmod/kek-ui release downloads chart">
  <defs>
    <linearGradient id="fill-daily-orange" x1="0" y1="0" x2="0" y2="1">
      <stop offset="0%" stop-color="#f97316" stop-opacity="0.32"/>
      <stop offset="100%" stop-color="#f97316" stop-opacity="0.05"/>
    </linearGradient>
    <style>
      .bg { fill: #fff7ed; }
      .title { font: 700 24px Arial, sans-serif; fill: #7c2d12; }
      .sub { font: 400 13px Arial, sans-serif; fill: #9a3412; }
      .grid { stroke: #fed7aa; stroke-width: 1; }
      .axis { font: 400 12px Arial, sans-serif; fill: #c2410c; }
      .line { fill: none; stroke: #ea580c; stroke-width: 3; stroke-linecap: round; stroke-linejoin: round; }
      .dot { fill: #ea580c; }
      .value { font: 600 11px Arial, sans-serif; fill: #9a3412; }
      .latest { font: 700 14px Arial, sans-serif; fill: #7c2d12; }
    </style>
  </defs>
  <rect class="bg" x="0" y="0" width="1000" height="360" rx="16" />
  <text class="title" x="64" y="34">hordesmod/kek-ui release downloads</text>
  <text class="sub" x="64" y="352">Generated 2026-05-11</text>
  <line x1="64" y1="52.00" x2="976" y2="52.00" class="grid"/>
  <text x="56" y="56.00" text-anchor="end" class="axis">132</text>
  <line x1="64" y1="94.00" x2="976" y2="94.00" class="grid"/>
  <text x="56" y="98.00" text-anchor="end" class="axis">110</text>
  <line x1="64" y1="136.00" x2="976" y2="136.00" class="grid"/>
  <text x="56" y="140.00" text-anchor="end" class="axis">88</text>
  <line x1="64" y1="178.00" x2="976" y2="178.00" class="grid"/>
  <text x="56" y="182.00" text-anchor="end" class="axis">66</text>
  <line x1="64" y1="220.00" x2="976" y2="220.00" class="grid"/>
  <text x="56" y="224.00" text-anchor="end" class="axis">44</text>
  <line x1="64" y1="262.00" x2="976" y2="262.00" class="grid"/>
  <text x="56" y="266.00" text-anchor="end" class="axis">22</text>
  <line x1="64" y1="304.00" x2="976" y2="304.00" class="grid"/>
  <text x="56" y="308.00" text-anchor="end" class="axis">0</text>
  <path d="M 64.00 304 L 64.00 304.00 L 78.71 172.27 L 93.42 160.82 L 108.13 181.82 L 122.84 242.91 L 137.55 244.82 L 152.26 239.09 L 166.97 237.18 L 181.68 223.82 L 196.39 246.73 L 211.10 252.45 L 225.81 250.55 L 240.52 237.18 L 255.23 220.00 L 269.94 254.36 L 284.65 241.00 L 299.35 179.91 L 314.06 151.27 L 328.77 149.36 L 343.48 52.00 L 358.19 124.55 L 372.90 149.36 L 387.61 116.91 L 402.32 147.45 L 417.03 160.82 L 431.74 147.45 L 446.45 128.36 L 461.16 116.91 L 475.87 155.09 L 490.58 153.18 L 505.29 137.91 L 520.00 145.55 L 534.71 132.18 L 549.42 126.45 L 564.13 139.82 L 578.84 157.00 L 593.55 132.18 L 608.26 151.27 L 622.97 145.55 L 637.68 136.00 L 652.39 128.36 L 667.10 136.00 L 681.81 147.45 L 696.52 160.82 L 711.23 145.55 L 725.94 147.45 L 740.65 134.09 L 755.35 151.27 L 770.06 141.73 L 784.77 145.55 L 799.48 139.82 L 814.19 153.18 L 828.90 145.55 L 843.61 157.00 L 858.32 122.64 L 873.03 134.09 L 887.74 120.73 L 902.45 118.82 L 917.16 155.09 L 931.87 162.73 L 946.58 132.18 L 961.29 151.27 L 976.00 141.73 L 976.00 304 Z" fill="url(#fill-daily-orange)"/>
  <polyline class="line" points="64.00,304.00 78.71,172.27 93.42,160.82 108.13,181.82 122.84,242.91 137.55,244.82 152.26,239.09 166.97,237.18 181.68,223.82 196.39,246.73 211.10,252.45 225.81,250.55 240.52,237.18 255.23,220.00 269.94,254.36 284.65,241.00 299.35,179.91 314.06,151.27 328.77,149.36 343.48,52.00 358.19,124.55 372.90,149.36 387.61,116.91 402.32,147.45 417.03,160.82 431.74,147.45 446.45,128.36 461.16,116.91 475.87,155.09 490.58,153.18 505.29,137.91 520.00,145.55 534.71,132.18 549.42,126.45 564.13,139.82 578.84,157.00 593.55,132.18 608.26,151.27 622.97,145.55 637.68,136.00 652.39,128.36 667.10,136.00 681.81,147.45 696.52,160.82 711.23,145.55 725.94,147.45 740.65,134.09 755.35,151.27 770.06,141.73 784.77,145.55 799.48,139.82 814.19,153.18 828.90,145.55 843.61,157.00 858.32,122.64 873.03,134.09 887.74,120.73 902.45,118.82 917.16,155.09 931.87,162.73 946.58,132.18 961.29,151.27 976.00,141.73"/>
  <circle class="dot" cx="976.00" cy="141.73" r="4.5"/>
  
  <text class="axis" x="64.00" y="336" text-anchor="start">2026-03-10</text>
  <text class="axis" x="240.52" y="336" text-anchor="middle">2026-03-22</text>
  <text class="axis" x="417.03" y="336" text-anchor="middle">2026-04-03</text>
  <text class="axis" x="593.55" y="336" text-anchor="middle">2026-04-15</text>
  <text class="axis" x="770.06" y="336" text-anchor="middle">2026-04-27</text>
  <text class="axis" x="946.58" y="336" text-anchor="middle">2026-05-09</text>
  <text class="axis" x="976.00" y="336" text-anchor="end">2026-05-11</text>
  <text class="latest" x="976" y="34" text-anchor="end">Latest day: 85</text>
</svg>
