<?xml version="1.0" encoding="UTF-8"?>
<svg xmlns="http://www.w3.org/2000/svg" viewBox="0 0 1000 360" role="img" aria-label="hordesmod/kek-ui release downloads chart">
  <defs>
    <linearGradient id="fill-daily-slate" x1="0" y1="0" x2="0" y2="1">
      <stop offset="0%" stop-color="#60a5fa" stop-opacity="0.32"/>
      <stop offset="100%" stop-color="#60a5fa" stop-opacity="0.05"/>
    </linearGradient>
    <style>
      .bg { fill: #0f172a; }
      .title { font: 700 24px Arial, sans-serif; fill: #e2e8f0; }
      .sub { font: 400 13px Arial, sans-serif; fill: #94a3b8; }
      .grid { stroke: #1e293b; stroke-width: 1; }
      .axis { font: 400 12px Arial, sans-serif; fill: #94a3b8; }
      .line { fill: none; stroke: #60a5fa; stroke-width: 3; stroke-linecap: round; stroke-linejoin: round; }
      .dot { fill: #60a5fa; }
      .value { font: 600 11px Arial, sans-serif; fill: #cbd5e1; }
      .latest { font: 700 14px Arial, sans-serif; fill: #e2e8f0; }
    </style>
  </defs>
  <rect class="bg" x="0" y="0" width="1000" height="360" rx="16" />
  <text class="title" x="64" y="34">hordesmod/kek-ui release downloads</text>
  <text class="sub" x="64" y="352">Generated 2026-04-15</text>
  <line x1="64" y1="52.00" x2="976" y2="52.00" class="grid"/>
  <text x="56" y="56.00" text-anchor="end" class="axis">132</text>
  <line x1="64" y1="94.00" x2="976" y2="94.00" class="grid"/>
  <text x="56" y="98.00" text-anchor="end" class="axis">110</text>
  <line x1="64" y1="136.00" x2="976" y2="136.00" class="grid"/>
  <text x="56" y="140.00" text-anchor="end" class="axis">88</text>
  <line x1="64" y1="178.00" x2="976" y2="178.00" class="grid"/>
  <text x="56" y="182.00" text-anchor="end" class="axis">66</text>
  <line x1="64" y1="220.00" x2="976" y2="220.00" class="grid"/>
  <text x="56" y="224.00" text-anchor="end" class="axis">44</text>
  <line x1="64" y1="262.00" x2="976" y2="262.00" class="grid"/>
  <text x="56" y="266.00" text-anchor="end" class="axis">22</text>
  <line x1="64" y1="304.00" x2="976" y2="304.00" class="grid"/>
  <text x="56" y="308.00" text-anchor="end" class="axis">0</text>
  <path d="M 64.00 304 L 64.00 304.00 L 89.33 172.27 L 114.67 160.82 L 140.00 181.82 L 165.33 242.91 L 190.67 244.82 L 216.00 239.09 L 241.33 237.18 L 266.67 223.82 L 292.00 246.73 L 317.33 252.45 L 342.67 250.55 L 368.00 237.18 L 393.33 220.00 L 418.67 254.36 L 444.00 241.00 L 469.33 179.91 L 494.67 151.27 L 520.00 149.36 L 545.33 52.00 L 570.67 124.55 L 596.00 149.36 L 621.33 116.91 L 646.67 147.45 L 672.00 160.82 L 697.33 147.45 L 722.67 128.36 L 748.00 116.91 L 773.33 155.09 L 798.67 153.18 L 824.00 137.91 L 849.33 145.55 L 874.67 132.18 L 900.00 126.45 L 925.33 139.82 L 950.67 157.00 L 976.00 132.18 L 976.00 304 Z" fill="url(#fill-daily-slate)"/>
  <polyline class="line" points="64.00,304.00 89.33,172.27 114.67,160.82 140.00,181.82 165.33,242.91 190.67,244.82 216.00,239.09 241.33,237.18 266.67,223.82 292.00,246.73 317.33,252.45 342.67,250.55 368.00,237.18 393.33,220.00 418.67,254.36 444.00,241.00 469.33,179.91 494.67,151.27 520.00,149.36 545.33,52.00 570.67,124.55 596.00,149.36 621.33,116.91 646.67,147.45 672.00,160.82 697.33,147.45 722.67,128.36 748.00,116.91 773.33,155.09 798.67,153.18 824.00,137.91 849.33,145.55 874.67,132.18 900.00,126.45 925.33,139.82 950.67,157.00 976.00,132.18"/>
  <circle class="dot" cx="976.00" cy="132.18" r="4.5"/>
  
  <text class="axis" x="64.00" y="336" text-anchor="start">2026-03-10</text>
  <text class="axis" x="241.33" y="336" text-anchor="middle">2026-03-17</text>
  <text class="axis" x="418.67" y="336" text-anchor="middle">2026-03-24</text>
  <text class="axis" x="596.00" y="336" text-anchor="middle">2026-03-31</text>
  <text class="axis" x="773.33" y="336" text-anchor="middle">2026-04-07</text>
  <text class="axis" x="950.67" y="336" text-anchor="middle">2026-04-14</text>
  <text class="axis" x="976.00" y="336" text-anchor="end">2026-04-15</text>
  <text class="latest" x="976" y="34" text-anchor="end">Latest day: 90</text>
</svg>
