<?xml version="1.0" encoding="UTF-8"?>
<svg xmlns="http://www.w3.org/2000/svg" viewBox="0 0 1000 360" role="img" aria-label="hordesmod/kek-ui release downloads chart">
  <defs>
    <linearGradient id="fill-daily-black" x1="0" y1="0" x2="0" y2="1">
      <stop offset="0%" stop-color="#22d3ee" stop-opacity="0.32"/>
      <stop offset="100%" stop-color="#22d3ee" stop-opacity="0.05"/>
    </linearGradient>
    <style>
      .bg { fill: #0b0b0d; }
      .title { font: 700 24px Arial, sans-serif; fill: #f8fafc; }
      .sub { font: 400 13px Arial, sans-serif; fill: #cbd5e1; }
      .grid { stroke: #1f2937; stroke-width: 1; }
      .axis { font: 400 12px Arial, sans-serif; fill: #94a3b8; }
      .line { fill: none; stroke: #22d3ee; stroke-width: 3; stroke-linecap: round; stroke-linejoin: round; }
      .dot { fill: #22d3ee; }
      .value { font: 600 11px Arial, sans-serif; fill: #cbd5e1; }
      .latest { font: 700 14px Arial, sans-serif; fill: #f8fafc; }
    </style>
  </defs>
  <rect class="bg" x="0" y="0" width="1000" height="360" rx="16" />
  <text class="title" x="64" y="34">hordesmod/kek-ui release downloads</text>
  <text class="sub" x="64" y="352">Generated 2026-05-05</text>
  <line x1="64" y1="52.00" x2="976" y2="52.00" class="grid"/>
  <text x="56" y="56.00" text-anchor="end" class="axis">132</text>
  <line x1="64" y1="94.00" x2="976" y2="94.00" class="grid"/>
  <text x="56" y="98.00" text-anchor="end" class="axis">110</text>
  <line x1="64" y1="136.00" x2="976" y2="136.00" class="grid"/>
  <text x="56" y="140.00" text-anchor="end" class="axis">88</text>
  <line x1="64" y1="178.00" x2="976" y2="178.00" class="grid"/>
  <text x="56" y="182.00" text-anchor="end" class="axis">66</text>
  <line x1="64" y1="220.00" x2="976" y2="220.00" class="grid"/>
  <text x="56" y="224.00" text-anchor="end" class="axis">44</text>
  <line x1="64" y1="262.00" x2="976" y2="262.00" class="grid"/>
  <text x="56" y="266.00" text-anchor="end" class="axis">22</text>
  <line x1="64" y1="304.00" x2="976" y2="304.00" class="grid"/>
  <text x="56" y="308.00" text-anchor="end" class="axis">0</text>
  <path d="M 64.00 304 L 64.00 304.00 L 80.29 172.27 L 96.57 160.82 L 112.86 181.82 L 129.14 242.91 L 145.43 244.82 L 161.71 239.09 L 178.00 237.18 L 194.29 223.82 L 210.57 246.73 L 226.86 252.45 L 243.14 250.55 L 259.43 237.18 L 275.71 220.00 L 292.00 254.36 L 308.29 241.00 L 324.57 179.91 L 340.86 151.27 L 357.14 149.36 L 373.43 52.00 L 389.71 124.55 L 406.00 149.36 L 422.29 116.91 L 438.57 147.45 L 454.86 160.82 L 471.14 147.45 L 487.43 128.36 L 503.71 116.91 L 520.00 155.09 L 536.29 153.18 L 552.57 137.91 L 568.86 145.55 L 585.14 132.18 L 601.43 126.45 L 617.71 139.82 L 634.00 157.00 L 650.29 132.18 L 666.57 151.27 L 682.86 145.55 L 699.14 136.00 L 715.43 128.36 L 731.71 136.00 L 748.00 147.45 L 764.29 160.82 L 780.57 145.55 L 796.86 147.45 L 813.14 134.09 L 829.43 151.27 L 845.71 141.73 L 862.00 145.55 L 878.29 139.82 L 894.57 153.18 L 910.86 145.55 L 927.14 157.00 L 943.43 122.64 L 959.71 134.09 L 976.00 120.73 L 976.00 304 Z" fill="url(#fill-daily-black)"/>
  <polyline class="line" points="64.00,304.00 80.29,172.27 96.57,160.82 112.86,181.82 129.14,242.91 145.43,244.82 161.71,239.09 178.00,237.18 194.29,223.82 210.57,246.73 226.86,252.45 243.14,250.55 259.43,237.18 275.71,220.00 292.00,254.36 308.29,241.00 324.57,179.91 340.86,151.27 357.14,149.36 373.43,52.00 389.71,124.55 406.00,149.36 422.29,116.91 438.57,147.45 454.86,160.82 471.14,147.45 487.43,128.36 503.71,116.91 520.00,155.09 536.29,153.18 552.57,137.91 568.86,145.55 585.14,132.18 601.43,126.45 617.71,139.82 634.00,157.00 650.29,132.18 666.57,151.27 682.86,145.55 699.14,136.00 715.43,128.36 731.71,136.00 748.00,147.45 764.29,160.82 780.57,145.55 796.86,147.45 813.14,134.09 829.43,151.27 845.71,141.73 862.00,145.55 878.29,139.82 894.57,153.18 910.86,145.55 927.14,157.00 943.43,122.64 959.71,134.09 976.00,120.73"/>
  <circle class="dot" cx="976.00" cy="120.73" r="4.5"/>
  
  <text class="axis" x="64.00" y="336" text-anchor="start">2026-03-10</text>
  <text class="axis" x="243.14" y="336" text-anchor="middle">2026-03-21</text>
  <text class="axis" x="422.29" y="336" text-anchor="middle">2026-04-01</text>
  <text class="axis" x="601.43" y="336" text-anchor="middle">2026-04-12</text>
  <text class="axis" x="780.57" y="336" text-anchor="middle">2026-04-23</text>
  <text class="axis" x="959.71" y="336" text-anchor="middle">2026-05-04</text>
  <text class="axis" x="976.00" y="336" text-anchor="end">2026-05-05</text>
  <text class="latest" x="976" y="34" text-anchor="end">Latest day: 96</text>
</svg>
