<?xml version="1.0" encoding="UTF-8"?>
<svg xmlns="http://www.w3.org/2000/svg" viewBox="0 0 1000 360" role="img" aria-label="hordesmod/kek-ui release downloads chart">
  <defs>
    <linearGradient id="fill-daily-slate" x1="0" y1="0" x2="0" y2="1">
      <stop offset="0%" stop-color="#60a5fa" stop-opacity="0.32"/>
      <stop offset="100%" stop-color="#60a5fa" stop-opacity="0.05"/>
    </linearGradient>
    <style>
      .bg { fill: #0f172a; }
      .title { font: 700 24px Arial, sans-serif; fill: #e2e8f0; }
      .sub { font: 400 13px Arial, sans-serif; fill: #94a3b8; }
      .grid { stroke: #1e293b; stroke-width: 1; }
      .axis { font: 400 12px Arial, sans-serif; fill: #94a3b8; }
      .line { fill: none; stroke: #60a5fa; stroke-width: 3; stroke-linecap: round; stroke-linejoin: round; }
      .dot { fill: #60a5fa; }
      .value { font: 600 11px Arial, sans-serif; fill: #cbd5e1; }
      .latest { font: 700 14px Arial, sans-serif; fill: #e2e8f0; }
    </style>
  </defs>
  <rect class="bg" x="0" y="0" width="1000" height="360" rx="16" />
  <text class="title" x="64" y="34">hordesmod/kek-ui release downloads</text>
  <text class="sub" x="64" y="352">Generated 2026-04-30</text>
  <line x1="64" y1="52.00" x2="976" y2="52.00" class="grid"/>
  <text x="56" y="56.00" text-anchor="end" class="axis">132</text>
  <line x1="64" y1="94.00" x2="976" y2="94.00" class="grid"/>
  <text x="56" y="98.00" text-anchor="end" class="axis">110</text>
  <line x1="64" y1="136.00" x2="976" y2="136.00" class="grid"/>
  <text x="56" y="140.00" text-anchor="end" class="axis">88</text>
  <line x1="64" y1="178.00" x2="976" y2="178.00" class="grid"/>
  <text x="56" y="182.00" text-anchor="end" class="axis">66</text>
  <line x1="64" y1="220.00" x2="976" y2="220.00" class="grid"/>
  <text x="56" y="224.00" text-anchor="end" class="axis">44</text>
  <line x1="64" y1="262.00" x2="976" y2="262.00" class="grid"/>
  <text x="56" y="266.00" text-anchor="end" class="axis">22</text>
  <line x1="64" y1="304.00" x2="976" y2="304.00" class="grid"/>
  <text x="56" y="308.00" text-anchor="end" class="axis">0</text>
  <path d="M 64.00 304 L 64.00 304.00 L 81.88 172.27 L 99.76 160.82 L 117.65 181.82 L 135.53 242.91 L 153.41 244.82 L 171.29 239.09 L 189.18 237.18 L 207.06 223.82 L 224.94 246.73 L 242.82 252.45 L 260.71 250.55 L 278.59 237.18 L 296.47 220.00 L 314.35 254.36 L 332.24 241.00 L 350.12 179.91 L 368.00 151.27 L 385.88 149.36 L 403.76 52.00 L 421.65 124.55 L 439.53 149.36 L 457.41 116.91 L 475.29 147.45 L 493.18 160.82 L 511.06 147.45 L 528.94 128.36 L 546.82 116.91 L 564.71 155.09 L 582.59 153.18 L 600.47 137.91 L 618.35 145.55 L 636.24 132.18 L 654.12 126.45 L 672.00 139.82 L 689.88 157.00 L 707.76 132.18 L 725.65 151.27 L 743.53 145.55 L 761.41 136.00 L 779.29 128.36 L 797.18 136.00 L 815.06 147.45 L 832.94 160.82 L 850.82 145.55 L 868.71 147.45 L 886.59 134.09 L 904.47 151.27 L 922.35 141.73 L 940.24 145.55 L 958.12 139.82 L 976.00 153.18 L 976.00 304 Z" fill="url(#fill-daily-slate)"/>
  <polyline class="line" points="64.00,304.00 81.88,172.27 99.76,160.82 117.65,181.82 135.53,242.91 153.41,244.82 171.29,239.09 189.18,237.18 207.06,223.82 224.94,246.73 242.82,252.45 260.71,250.55 278.59,237.18 296.47,220.00 314.35,254.36 332.24,241.00 350.12,179.91 368.00,151.27 385.88,149.36 403.76,52.00 421.65,124.55 439.53,149.36 457.41,116.91 475.29,147.45 493.18,160.82 511.06,147.45 528.94,128.36 546.82,116.91 564.71,155.09 582.59,153.18 600.47,137.91 618.35,145.55 636.24,132.18 654.12,126.45 672.00,139.82 689.88,157.00 707.76,132.18 725.65,151.27 743.53,145.55 761.41,136.00 779.29,128.36 797.18,136.00 815.06,147.45 832.94,160.82 850.82,145.55 868.71,147.45 886.59,134.09 904.47,151.27 922.35,141.73 940.24,145.55 958.12,139.82 976.00,153.18"/>
  <circle class="dot" cx="976.00" cy="153.18" r="4.5"/>
  
  <text class="axis" x="64.00" y="336" text-anchor="start">2026-03-10</text>
  <text class="axis" x="242.82" y="336" text-anchor="middle">2026-03-20</text>
  <text class="axis" x="421.65" y="336" text-anchor="middle">2026-03-30</text>
  <text class="axis" x="600.47" y="336" text-anchor="middle">2026-04-09</text>
  <text class="axis" x="779.29" y="336" text-anchor="middle">2026-04-19</text>
  <text class="axis" x="958.12" y="336" text-anchor="middle">2026-04-29</text>
  <text class="axis" x="976.00" y="336" text-anchor="end">2026-04-30</text>
  <text class="latest" x="976" y="34" text-anchor="end">Latest day: 79</text>
</svg>
