<?xml version="1.0" encoding="UTF-8"?>
<svg xmlns="http://www.w3.org/2000/svg" viewBox="0 0 1000 360" role="img" aria-label="hordesmod/kek-ui release downloads chart">
  <defs>
    <linearGradient id="fill-daily-slate" x1="0" y1="0" x2="0" y2="1">
      <stop offset="0%" stop-color="#60a5fa" stop-opacity="0.32"/>
      <stop offset="100%" stop-color="#60a5fa" stop-opacity="0.05"/>
    </linearGradient>
    <style>
      .bg { fill: #0f172a; }
      .title { font: 700 24px Arial, sans-serif; fill: #e2e8f0; }
      .sub { font: 400 13px Arial, sans-serif; fill: #94a3b8; }
      .grid { stroke: #1e293b; stroke-width: 1; }
      .axis { font: 400 12px Arial, sans-serif; fill: #94a3b8; }
      .line { fill: none; stroke: #60a5fa; stroke-width: 3; stroke-linecap: round; stroke-linejoin: round; }
      .dot { fill: #60a5fa; }
      .value { font: 600 11px Arial, sans-serif; fill: #cbd5e1; }
      .latest { font: 700 14px Arial, sans-serif; fill: #e2e8f0; }
    </style>
  </defs>
  <rect class="bg" x="0" y="0" width="1000" height="360" rx="16" />
  <text class="title" x="64" y="34">hordesmod/kek-ui release downloads</text>
  <text class="sub" x="64" y="352">Generated 2026-04-21</text>
  <line x1="64" y1="52.00" x2="976" y2="52.00" class="grid"/>
  <text x="56" y="56.00" text-anchor="end" class="axis">132</text>
  <line x1="64" y1="94.00" x2="976" y2="94.00" class="grid"/>
  <text x="56" y="98.00" text-anchor="end" class="axis">110</text>
  <line x1="64" y1="136.00" x2="976" y2="136.00" class="grid"/>
  <text x="56" y="140.00" text-anchor="end" class="axis">88</text>
  <line x1="64" y1="178.00" x2="976" y2="178.00" class="grid"/>
  <text x="56" y="182.00" text-anchor="end" class="axis">66</text>
  <line x1="64" y1="220.00" x2="976" y2="220.00" class="grid"/>
  <text x="56" y="224.00" text-anchor="end" class="axis">44</text>
  <line x1="64" y1="262.00" x2="976" y2="262.00" class="grid"/>
  <text x="56" y="266.00" text-anchor="end" class="axis">22</text>
  <line x1="64" y1="304.00" x2="976" y2="304.00" class="grid"/>
  <text x="56" y="308.00" text-anchor="end" class="axis">0</text>
  <path d="M 64.00 304 L 64.00 304.00 L 85.71 172.27 L 107.43 160.82 L 129.14 181.82 L 150.86 242.91 L 172.57 244.82 L 194.29 239.09 L 216.00 237.18 L 237.71 223.82 L 259.43 246.73 L 281.14 252.45 L 302.86 250.55 L 324.57 237.18 L 346.29 220.00 L 368.00 254.36 L 389.71 241.00 L 411.43 179.91 L 433.14 151.27 L 454.86 149.36 L 476.57 52.00 L 498.29 124.55 L 520.00 149.36 L 541.71 116.91 L 563.43 147.45 L 585.14 160.82 L 606.86 147.45 L 628.57 128.36 L 650.29 116.91 L 672.00 155.09 L 693.71 153.18 L 715.43 137.91 L 737.14 145.55 L 758.86 132.18 L 780.57 126.45 L 802.29 139.82 L 824.00 157.00 L 845.71 132.18 L 867.43 151.27 L 889.14 145.55 L 910.86 136.00 L 932.57 128.36 L 954.29 136.00 L 976.00 147.45 L 976.00 304 Z" fill="url(#fill-daily-slate)"/>
  <polyline class="line" points="64.00,304.00 85.71,172.27 107.43,160.82 129.14,181.82 150.86,242.91 172.57,244.82 194.29,239.09 216.00,237.18 237.71,223.82 259.43,246.73 281.14,252.45 302.86,250.55 324.57,237.18 346.29,220.00 368.00,254.36 389.71,241.00 411.43,179.91 433.14,151.27 454.86,149.36 476.57,52.00 498.29,124.55 520.00,149.36 541.71,116.91 563.43,147.45 585.14,160.82 606.86,147.45 628.57,128.36 650.29,116.91 672.00,155.09 693.71,153.18 715.43,137.91 737.14,145.55 758.86,132.18 780.57,126.45 802.29,139.82 824.00,157.00 845.71,132.18 867.43,151.27 889.14,145.55 910.86,136.00 932.57,128.36 954.29,136.00 976.00,147.45"/>
  <circle class="dot" cx="976.00" cy="147.45" r="4.5"/>
  
  <text class="axis" x="64.00" y="336" text-anchor="start">2026-03-10</text>
  <text class="axis" x="237.71" y="336" text-anchor="middle">2026-03-18</text>
  <text class="axis" x="411.43" y="336" text-anchor="middle">2026-03-26</text>
  <text class="axis" x="585.14" y="336" text-anchor="middle">2026-04-03</text>
  <text class="axis" x="758.86" y="336" text-anchor="middle">2026-04-11</text>
  <text class="axis" x="932.57" y="336" text-anchor="middle">2026-04-19</text>
  <text class="axis" x="976.00" y="336" text-anchor="end">2026-04-21</text>
  <text class="latest" x="976" y="34" text-anchor="end">Latest day: 82</text>
</svg>
