<?xml version="1.0" encoding="UTF-8"?>
<svg xmlns="http://www.w3.org/2000/svg" viewBox="0 0 1000 360" role="img" aria-label="hordesmod/kek-ui release downloads chart">
  <defs>
    <linearGradient id="fill-daily-black" x1="0" y1="0" x2="0" y2="1">
      <stop offset="0%" stop-color="#22d3ee" stop-opacity="0.32"/>
      <stop offset="100%" stop-color="#22d3ee" stop-opacity="0.05"/>
    </linearGradient>
    <style>
      .bg { fill: #0b0b0d; }
      .title { font: 700 24px Arial, sans-serif; fill: #f8fafc; }
      .sub { font: 400 13px Arial, sans-serif; fill: #cbd5e1; }
      .grid { stroke: #1f2937; stroke-width: 1; }
      .axis { font: 400 12px Arial, sans-serif; fill: #94a3b8; }
      .line { fill: none; stroke: #22d3ee; stroke-width: 3; stroke-linecap: round; stroke-linejoin: round; }
      .dot { fill: #22d3ee; }
      .value { font: 600 11px Arial, sans-serif; fill: #cbd5e1; }
      .latest { font: 700 14px Arial, sans-serif; fill: #f8fafc; }
    </style>
  </defs>
  <rect class="bg" x="0" y="0" width="1000" height="360" rx="16" />
  <text class="title" x="64" y="34">hordesmod/kek-ui release downloads</text>
  <text class="sub" x="64" y="352">Generated 2026-05-20</text>
  <line x1="64" y1="52.00" x2="976" y2="52.00" class="grid"/>
  <text x="56" y="56.00" text-anchor="end" class="axis">132</text>
  <line x1="64" y1="94.00" x2="976" y2="94.00" class="grid"/>
  <text x="56" y="98.00" text-anchor="end" class="axis">110</text>
  <line x1="64" y1="136.00" x2="976" y2="136.00" class="grid"/>
  <text x="56" y="140.00" text-anchor="end" class="axis">88</text>
  <line x1="64" y1="178.00" x2="976" y2="178.00" class="grid"/>
  <text x="56" y="182.00" text-anchor="end" class="axis">66</text>
  <line x1="64" y1="220.00" x2="976" y2="220.00" class="grid"/>
  <text x="56" y="224.00" text-anchor="end" class="axis">44</text>
  <line x1="64" y1="262.00" x2="976" y2="262.00" class="grid"/>
  <text x="56" y="266.00" text-anchor="end" class="axis">22</text>
  <line x1="64" y1="304.00" x2="976" y2="304.00" class="grid"/>
  <text x="56" y="308.00" text-anchor="end" class="axis">0</text>
  <path d="M 64.00 304 L 64.00 304.00 L 76.85 172.27 L 89.69 160.82 L 102.54 181.82 L 115.38 242.91 L 128.23 244.82 L 141.07 239.09 L 153.92 237.18 L 166.76 223.82 L 179.61 246.73 L 192.45 252.45 L 205.30 250.55 L 218.14 237.18 L 230.99 220.00 L 243.83 254.36 L 256.68 241.00 L 269.52 179.91 L 282.37 151.27 L 295.21 149.36 L 308.06 52.00 L 320.90 124.55 L 333.75 149.36 L 346.59 116.91 L 359.44 147.45 L 372.28 160.82 L 385.13 147.45 L 397.97 128.36 L 410.82 116.91 L 423.66 155.09 L 436.51 153.18 L 449.35 137.91 L 462.20 145.55 L 475.04 132.18 L 487.89 126.45 L 500.73 139.82 L 513.58 157.00 L 526.42 132.18 L 539.27 151.27 L 552.11 145.55 L 564.96 136.00 L 577.80 128.36 L 590.65 136.00 L 603.49 147.45 L 616.34 160.82 L 629.18 145.55 L 642.03 147.45 L 654.87 134.09 L 667.72 151.27 L 680.56 141.73 L 693.41 145.55 L 706.25 139.82 L 719.10 153.18 L 731.94 145.55 L 744.79 157.00 L 757.63 122.64 L 770.48 134.09 L 783.32 120.73 L 796.17 118.82 L 809.01 155.09 L 821.86 162.73 L 834.70 132.18 L 847.55 151.27 L 860.39 141.73 L 873.24 137.91 L 886.08 155.09 L 898.93 149.36 L 911.77 168.45 L 924.62 136.00 L 937.46 136.00 L 950.31 137.91 L 963.15 151.27 L 976.00 151.27 L 976.00 304 Z" fill="url(#fill-daily-black)"/>
  <polyline class="line" points="64.00,304.00 76.85,172.27 89.69,160.82 102.54,181.82 115.38,242.91 128.23,244.82 141.07,239.09 153.92,237.18 166.76,223.82 179.61,246.73 192.45,252.45 205.30,250.55 218.14,237.18 230.99,220.00 243.83,254.36 256.68,241.00 269.52,179.91 282.37,151.27 295.21,149.36 308.06,52.00 320.90,124.55 333.75,149.36 346.59,116.91 359.44,147.45 372.28,160.82 385.13,147.45 397.97,128.36 410.82,116.91 423.66,155.09 436.51,153.18 449.35,137.91 462.20,145.55 475.04,132.18 487.89,126.45 500.73,139.82 513.58,157.00 526.42,132.18 539.27,151.27 552.11,145.55 564.96,136.00 577.80,128.36 590.65,136.00 603.49,147.45 616.34,160.82 629.18,145.55 642.03,147.45 654.87,134.09 667.72,151.27 680.56,141.73 693.41,145.55 706.25,139.82 719.10,153.18 731.94,145.55 744.79,157.00 757.63,122.64 770.48,134.09 783.32,120.73 796.17,118.82 809.01,155.09 821.86,162.73 834.70,132.18 847.55,151.27 860.39,141.73 873.24,137.91 886.08,155.09 898.93,149.36 911.77,168.45 924.62,136.00 937.46,136.00 950.31,137.91 963.15,151.27 976.00,151.27"/>
  <circle class="dot" cx="976.00" cy="151.27" r="4.5"/>
  
  <text class="axis" x="64.00" y="336" text-anchor="start">2026-03-10</text>
  <text class="axis" x="243.83" y="336" text-anchor="middle">2026-03-24</text>
  <text class="axis" x="423.66" y="336" text-anchor="middle">2026-04-07</text>
  <text class="axis" x="603.49" y="336" text-anchor="middle">2026-04-21</text>
  <text class="axis" x="783.32" y="336" text-anchor="middle">2026-05-05</text>
  <text class="axis" x="963.15" y="336" text-anchor="middle">2026-05-19</text>
  <text class="axis" x="976.00" y="336" text-anchor="end">2026-05-20</text>
  <text class="latest" x="976" y="34" text-anchor="end">Latest day: 80</text>
</svg>
