<?xml version="1.0" encoding="UTF-8"?>
<svg xmlns="http://www.w3.org/2000/svg" viewBox="0 0 1000 360" role="img" aria-label="hordesmod/kek-ui release downloads chart">
  <defs>
    <linearGradient id="fill-daily-black" x1="0" y1="0" x2="0" y2="1">
      <stop offset="0%" stop-color="#22d3ee" stop-opacity="0.32"/>
      <stop offset="100%" stop-color="#22d3ee" stop-opacity="0.05"/>
    </linearGradient>
    <style>
      .bg { fill: #0b0b0d; }
      .title { font: 700 24px Arial, sans-serif; fill: #f8fafc; }
      .sub { font: 400 13px Arial, sans-serif; fill: #cbd5e1; }
      .grid { stroke: #1f2937; stroke-width: 1; }
      .axis { font: 400 12px Arial, sans-serif; fill: #94a3b8; }
      .line { fill: none; stroke: #22d3ee; stroke-width: 3; stroke-linecap: round; stroke-linejoin: round; }
      .dot { fill: #22d3ee; }
      .value { font: 600 11px Arial, sans-serif; fill: #cbd5e1; }
      .latest { font: 700 14px Arial, sans-serif; fill: #f8fafc; }
    </style>
  </defs>
  <rect class="bg" x="0" y="0" width="1000" height="360" rx="16" />
  <text class="title" x="64" y="34">hordesmod/kek-ui release downloads</text>
  <text class="sub" x="64" y="352">Generated 2026-04-14</text>
  <line x1="64" y1="52.00" x2="976" y2="52.00" class="grid"/>
  <text x="56" y="56.00" text-anchor="end" class="axis">132</text>
  <line x1="64" y1="94.00" x2="976" y2="94.00" class="grid"/>
  <text x="56" y="98.00" text-anchor="end" class="axis">110</text>
  <line x1="64" y1="136.00" x2="976" y2="136.00" class="grid"/>
  <text x="56" y="140.00" text-anchor="end" class="axis">88</text>
  <line x1="64" y1="178.00" x2="976" y2="178.00" class="grid"/>
  <text x="56" y="182.00" text-anchor="end" class="axis">66</text>
  <line x1="64" y1="220.00" x2="976" y2="220.00" class="grid"/>
  <text x="56" y="224.00" text-anchor="end" class="axis">44</text>
  <line x1="64" y1="262.00" x2="976" y2="262.00" class="grid"/>
  <text x="56" y="266.00" text-anchor="end" class="axis">22</text>
  <line x1="64" y1="304.00" x2="976" y2="304.00" class="grid"/>
  <text x="56" y="308.00" text-anchor="end" class="axis">0</text>
  <path d="M 64.00 304 L 64.00 304.00 L 90.06 172.27 L 116.11 160.82 L 142.17 181.82 L 168.23 242.91 L 194.29 244.82 L 220.34 239.09 L 246.40 237.18 L 272.46 223.82 L 298.51 246.73 L 324.57 252.45 L 350.63 250.55 L 376.69 237.18 L 402.74 220.00 L 428.80 254.36 L 454.86 241.00 L 480.91 179.91 L 506.97 151.27 L 533.03 149.36 L 559.09 52.00 L 585.14 124.55 L 611.20 149.36 L 637.26 116.91 L 663.31 147.45 L 689.37 160.82 L 715.43 147.45 L 741.49 128.36 L 767.54 116.91 L 793.60 155.09 L 819.66 153.18 L 845.71 137.91 L 871.77 145.55 L 897.83 132.18 L 923.89 126.45 L 949.94 139.82 L 976.00 157.00 L 976.00 304 Z" fill="url(#fill-daily-black)"/>
  <polyline class="line" points="64.00,304.00 90.06,172.27 116.11,160.82 142.17,181.82 168.23,242.91 194.29,244.82 220.34,239.09 246.40,237.18 272.46,223.82 298.51,246.73 324.57,252.45 350.63,250.55 376.69,237.18 402.74,220.00 428.80,254.36 454.86,241.00 480.91,179.91 506.97,151.27 533.03,149.36 559.09,52.00 585.14,124.55 611.20,149.36 637.26,116.91 663.31,147.45 689.37,160.82 715.43,147.45 741.49,128.36 767.54,116.91 793.60,155.09 819.66,153.18 845.71,137.91 871.77,145.55 897.83,132.18 923.89,126.45 949.94,139.82 976.00,157.00"/>
  <circle class="dot" cx="976.00" cy="157.00" r="4.5"/>
  
  <text class="axis" x="64.00" y="336" text-anchor="start">2026-03-10</text>
  <text class="axis" x="246.40" y="336" text-anchor="middle">2026-03-17</text>
  <text class="axis" x="428.80" y="336" text-anchor="middle">2026-03-24</text>
  <text class="axis" x="611.20" y="336" text-anchor="middle">2026-03-31</text>
  <text class="axis" x="793.60" y="336" text-anchor="middle">2026-04-07</text>
  <text class="axis" x="976.00" y="336" text-anchor="end">2026-04-14</text>
  <text class="latest" x="976" y="34" text-anchor="end">Latest day: 77</text>
</svg>
