<?xml version="1.0" encoding="UTF-8"?>
<svg xmlns="http://www.w3.org/2000/svg" viewBox="0 0 1000 360" role="img" aria-label="hordesmod/kek-ui release downloads chart">
  <defs>
    <linearGradient id="fill-monthly-black" x1="0" y1="0" x2="0" y2="1">
      <stop offset="0%" stop-color="#22d3ee" stop-opacity="0.32"/>
      <stop offset="100%" stop-color="#22d3ee" stop-opacity="0.05"/>
    </linearGradient>
    <style>
      .bg { fill: #0b0b0d; }
      .title { font: 700 24px Arial, sans-serif; fill: #f8fafc; }
      .sub { font: 400 13px Arial, sans-serif; fill: #cbd5e1; }
      .grid { stroke: #1f2937; stroke-width: 1; }
      .axis { font: 400 12px Arial, sans-serif; fill: #94a3b8; }
      .line { fill: none; stroke: #22d3ee; stroke-width: 3; stroke-linecap: round; stroke-linejoin: round; }
      .dot { fill: #22d3ee; }
      .value { font: 600 11px Arial, sans-serif; fill: #cbd5e1; }
      .latest { font: 700 14px Arial, sans-serif; fill: #f8fafc; }
    </style>
  </defs>
  <rect class="bg" x="0" y="0" width="1000" height="360" rx="16" />
  <text class="title" x="64" y="34">hordesmod/kek-ui release downloads</text>
  <text class="sub" x="64" y="352">Generated 2026-04-21</text>
  <line x1="64" y1="52.00" x2="976" y2="52.00" class="grid"/>
  <text x="56" y="56.00" text-anchor="end" class="axis">2,439</text>
  <line x1="64" y1="94.00" x2="976" y2="94.00" class="grid"/>
  <text x="56" y="98.00" text-anchor="end" class="axis">2,033</text>
  <line x1="64" y1="136.00" x2="976" y2="136.00" class="grid"/>
  <text x="56" y="140.00" text-anchor="end" class="axis">1,626</text>
  <line x1="64" y1="178.00" x2="976" y2="178.00" class="grid"/>
  <text x="56" y="182.00" text-anchor="end" class="axis">1,220</text>
  <line x1="64" y1="220.00" x2="976" y2="220.00" class="grid"/>
  <text x="56" y="224.00" text-anchor="end" class="axis">813</text>
  <line x1="64" y1="262.00" x2="976" y2="262.00" class="grid"/>
  <text x="56" y="266.00" text-anchor="end" class="axis">407</text>
  <line x1="64" y1="304.00" x2="976" y2="304.00" class="grid"/>
  <text x="56" y="308.00" text-anchor="end" class="axis">0</text>
  <path d="M 64.00 304 L 64.00 304.00 L 85.71 296.87 L 107.43 289.12 L 129.14 282.51 L 150.86 279.20 L 172.57 276.00 L 194.29 272.49 L 216.00 268.87 L 237.71 264.53 L 259.43 261.43 L 281.14 258.64 L 302.86 255.75 L 324.57 252.13 L 346.29 247.59 L 368.00 244.90 L 389.71 241.49 L 411.43 234.77 L 433.14 226.51 L 454.86 218.14 L 476.57 204.50 L 498.29 194.79 L 520.00 186.42 L 541.71 176.30 L 563.43 167.82 L 585.14 160.07 L 606.86 151.60 L 628.57 142.10 L 650.29 131.97 L 672.00 123.91 L 693.71 115.75 L 715.43 106.76 L 737.14 105.31 L 758.86 103.76 L 780.57 100.77 L 802.29 95.19 L 824.00 90.44 L 845.71 84.65 L 867.43 80.00 L 889.14 75.76 L 910.86 69.77 L 932.57 63.06 L 954.29 56.86 L 976.00 52.00 L 976.00 304 Z" fill="url(#fill-monthly-black)"/>
  <polyline class="line" points="64.00,304.00 85.71,296.87 107.43,289.12 129.14,282.51 150.86,279.20 172.57,276.00 194.29,272.49 216.00,268.87 237.71,264.53 259.43,261.43 281.14,258.64 302.86,255.75 324.57,252.13 346.29,247.59 368.00,244.90 389.71,241.49 411.43,234.77 433.14,226.51 454.86,218.14 476.57,204.50 498.29,194.79 520.00,186.42 541.71,176.30 563.43,167.82 585.14,160.07 606.86,151.60 628.57,142.10 650.29,131.97 672.00,123.91 693.71,115.75 715.43,106.76 737.14,105.31 758.86,103.76 780.57,100.77 802.29,95.19 824.00,90.44 845.71,84.65 867.43,80.00 889.14,75.76 910.86,69.77 932.57,63.06 954.29,56.86 976.00,52.00"/>
  <circle class="dot" cx="976.00" cy="52.00" r="4.5"/>
  
  <text class="axis" x="64.00" y="336" text-anchor="start">2026-03-10</text>
  <text class="axis" x="237.71" y="336" text-anchor="middle">2026-03-18</text>
  <text class="axis" x="411.43" y="336" text-anchor="middle">2026-03-26</text>
  <text class="axis" x="585.14" y="336" text-anchor="middle">2026-04-03</text>
  <text class="axis" x="758.86" y="336" text-anchor="middle">2026-04-11</text>
  <text class="axis" x="932.57" y="336" text-anchor="middle">2026-04-19</text>
  <text class="axis" x="976.00" y="336" text-anchor="end">2026-04-21</text>
  <text class="latest" x="976" y="34" text-anchor="end">Latest month: 2,439</text>
</svg>
