<?xml version="1.0" encoding="UTF-8"?>
<svg xmlns="http://www.w3.org/2000/svg" viewBox="0 0 1000 360" role="img" aria-label="hordesmod/kek-ui release downloads chart">
  <defs>
    <linearGradient id="fill-monthly-slate" x1="0" y1="0" x2="0" y2="1">
      <stop offset="0%" stop-color="#60a5fa" stop-opacity="0.32"/>
      <stop offset="100%" stop-color="#60a5fa" stop-opacity="0.05"/>
    </linearGradient>
    <style>
      .bg { fill: #0f172a; }
      .title { font: 700 24px Arial, sans-serif; fill: #e2e8f0; }
      .sub { font: 400 13px Arial, sans-serif; fill: #94a3b8; }
      .grid { stroke: #1e293b; stroke-width: 1; }
      .axis { font: 400 12px Arial, sans-serif; fill: #94a3b8; }
      .line { fill: none; stroke: #60a5fa; stroke-width: 3; stroke-linecap: round; stroke-linejoin: round; }
      .dot { fill: #60a5fa; }
      .value { font: 600 11px Arial, sans-serif; fill: #cbd5e1; }
      .latest { font: 700 14px Arial, sans-serif; fill: #e2e8f0; }
    </style>
  </defs>
  <rect class="bg" x="0" y="0" width="1000" height="360" rx="16" />
  <text class="title" x="64" y="34">hordesmod/kek-ui release downloads</text>
  <text class="sub" x="64" y="352">Generated 2026-04-27</text>
  <line x1="64" y1="52.00" x2="976" y2="52.00" class="grid"/>
  <text x="56" y="56.00" text-anchor="end" class="axis">2,604</text>
  <line x1="64" y1="94.00" x2="976" y2="94.00" class="grid"/>
  <text x="56" y="98.00" text-anchor="end" class="axis">2,170</text>
  <line x1="64" y1="136.00" x2="976" y2="136.00" class="grid"/>
  <text x="56" y="140.00" text-anchor="end" class="axis">1,736</text>
  <line x1="64" y1="178.00" x2="976" y2="178.00" class="grid"/>
  <text x="56" y="182.00" text-anchor="end" class="axis">1,302</text>
  <line x1="64" y1="220.00" x2="976" y2="220.00" class="grid"/>
  <text x="56" y="224.00" text-anchor="end" class="axis">868</text>
  <line x1="64" y1="262.00" x2="976" y2="262.00" class="grid"/>
  <text x="56" y="266.00" text-anchor="end" class="axis">434</text>
  <line x1="64" y1="304.00" x2="976" y2="304.00" class="grid"/>
  <text x="56" y="308.00" text-anchor="end" class="axis">0</text>
  <path d="M 64.00 304 L 64.00 304.00 L 83.00 297.32 L 102.00 290.06 L 121.00 283.87 L 140.00 280.77 L 159.00 277.77 L 178.00 274.48 L 197.00 271.10 L 216.00 267.03 L 235.00 264.13 L 254.00 261.52 L 273.00 258.81 L 292.00 255.42 L 311.00 251.16 L 330.00 248.65 L 349.00 245.45 L 368.00 239.16 L 387.00 231.42 L 406.00 223.58 L 425.00 210.81 L 444.00 201.71 L 463.00 193.87 L 482.00 184.39 L 501.00 176.45 L 520.00 169.19 L 539.00 161.26 L 558.00 152.35 L 577.00 142.87 L 596.00 135.32 L 615.00 127.68 L 634.00 119.26 L 653.00 117.90 L 672.00 116.45 L 691.00 113.65 L 710.00 108.42 L 729.00 103.97 L 748.00 98.55 L 767.00 94.19 L 786.00 90.23 L 805.00 84.61 L 824.00 78.32 L 843.00 72.52 L 862.00 67.97 L 881.00 64.97 L 900.00 59.45 L 919.00 54.71 L 938.00 52.39 L 957.00 52.39 L 976.00 52.00 L 976.00 304 Z" fill="url(#fill-monthly-slate)"/>
  <polyline class="line" points="64.00,304.00 83.00,297.32 102.00,290.06 121.00,283.87 140.00,280.77 159.00,277.77 178.00,274.48 197.00,271.10 216.00,267.03 235.00,264.13 254.00,261.52 273.00,258.81 292.00,255.42 311.00,251.16 330.00,248.65 349.00,245.45 368.00,239.16 387.00,231.42 406.00,223.58 425.00,210.81 444.00,201.71 463.00,193.87 482.00,184.39 501.00,176.45 520.00,169.19 539.00,161.26 558.00,152.35 577.00,142.87 596.00,135.32 615.00,127.68 634.00,119.26 653.00,117.90 672.00,116.45 691.00,113.65 710.00,108.42 729.00,103.97 748.00,98.55 767.00,94.19 786.00,90.23 805.00,84.61 824.00,78.32 843.00,72.52 862.00,67.97 881.00,64.97 900.00,59.45 919.00,54.71 938.00,52.39 957.00,52.39 976.00,52.00"/>
  <circle class="dot" cx="976.00" cy="52.00" r="4.5"/>
  
  <text class="axis" x="64.00" y="336" text-anchor="start">2026-03-10</text>
  <text class="axis" x="235.00" y="336" text-anchor="middle">2026-03-19</text>
  <text class="axis" x="406.00" y="336" text-anchor="middle">2026-03-28</text>
  <text class="axis" x="577.00" y="336" text-anchor="middle">2026-04-06</text>
  <text class="axis" x="748.00" y="336" text-anchor="middle">2026-04-15</text>
  <text class="axis" x="919.00" y="336" text-anchor="middle">2026-04-24</text>
  <text class="axis" x="976.00" y="336" text-anchor="end">2026-04-27</text>
  <text class="latest" x="976" y="34" text-anchor="end">Latest month: 2,604</text>
</svg>
