<?xml version="1.0" encoding="UTF-8"?>
<svg xmlns="http://www.w3.org/2000/svg" viewBox="0 0 1000 360" role="img" aria-label="hordesmod/kek-ui release downloads chart">
  <defs>
    <linearGradient id="fill-monthly-orange" x1="0" y1="0" x2="0" y2="1">
      <stop offset="0%" stop-color="#f97316" stop-opacity="0.32"/>
      <stop offset="100%" stop-color="#f97316" stop-opacity="0.05"/>
    </linearGradient>
    <style>
      .bg { fill: #fff7ed; }
      .title { font: 700 24px Arial, sans-serif; fill: #7c2d12; }
      .sub { font: 400 13px Arial, sans-serif; fill: #9a3412; }
      .grid { stroke: #fed7aa; stroke-width: 1; }
      .axis { font: 400 12px Arial, sans-serif; fill: #c2410c; }
      .line { fill: none; stroke: #ea580c; stroke-width: 3; stroke-linecap: round; stroke-linejoin: round; }
      .dot { fill: #ea580c; }
      .value { font: 600 11px Arial, sans-serif; fill: #9a3412; }
      .latest { font: 700 14px Arial, sans-serif; fill: #7c2d12; }
    </style>
  </defs>
  <rect class="bg" x="0" y="0" width="1000" height="360" rx="16" />
  <text class="title" x="64" y="34">hordesmod/kek-ui release downloads</text>
  <text class="sub" x="64" y="352">Generated 2026-05-18</text>
  <line x1="64" y1="52.00" x2="976" y2="52.00" class="grid"/>
  <text x="56" y="56.00" text-anchor="end" class="axis">2,604</text>
  <line x1="64" y1="94.00" x2="976" y2="94.00" class="grid"/>
  <text x="56" y="98.00" text-anchor="end" class="axis">2,170</text>
  <line x1="64" y1="136.00" x2="976" y2="136.00" class="grid"/>
  <text x="56" y="140.00" text-anchor="end" class="axis">1,736</text>
  <line x1="64" y1="178.00" x2="976" y2="178.00" class="grid"/>
  <text x="56" y="182.00" text-anchor="end" class="axis">1,302</text>
  <line x1="64" y1="220.00" x2="976" y2="220.00" class="grid"/>
  <text x="56" y="224.00" text-anchor="end" class="axis">868</text>
  <line x1="64" y1="262.00" x2="976" y2="262.00" class="grid"/>
  <text x="56" y="266.00" text-anchor="end" class="axis">434</text>
  <line x1="64" y1="304.00" x2="976" y2="304.00" class="grid"/>
  <text x="56" y="308.00" text-anchor="end" class="axis">0</text>
  <path d="M 64.00 304 L 64.00 304.00 L 77.22 297.32 L 90.43 290.06 L 103.65 283.87 L 116.87 280.77 L 130.09 277.77 L 143.30 274.48 L 156.52 271.10 L 169.74 267.03 L 182.96 264.13 L 196.17 261.52 L 209.39 258.81 L 222.61 255.42 L 235.83 251.16 L 249.04 248.65 L 262.26 245.45 L 275.48 239.16 L 288.70 231.42 L 301.91 223.58 L 315.13 210.81 L 328.35 201.71 L 341.57 193.87 L 354.78 184.39 L 368.00 176.45 L 381.22 169.19 L 394.43 161.26 L 407.65 152.35 L 420.87 142.87 L 434.09 135.32 L 447.30 127.68 L 460.52 119.26 L 473.74 117.90 L 486.96 116.45 L 500.17 113.65 L 513.39 108.42 L 526.61 103.97 L 539.83 98.55 L 553.04 94.19 L 566.26 90.23 L 579.48 84.61 L 592.70 78.32 L 605.91 72.52 L 619.13 67.97 L 632.35 64.97 L 645.57 59.45 L 658.78 54.71 L 672.00 52.39 L 685.22 52.39 L 698.43 52.00 L 711.65 56.74 L 724.87 57.52 L 738.09 57.71 L 751.30 59.16 L 764.52 59.65 L 777.74 57.71 L 790.96 57.03 L 804.17 56.65 L 817.39 56.74 L 830.61 56.74 L 843.83 57.23 L 857.04 56.94 L 870.26 57.23 L 883.48 57.71 L 896.70 58.29 L 909.91 59.06 L 923.13 58.68 L 936.35 60.52 L 949.57 59.74 L 962.78 59.26 L 976.00 59.35 L 976.00 304 Z" fill="url(#fill-monthly-orange)"/>
  <polyline class="line" points="64.00,304.00 77.22,297.32 90.43,290.06 103.65,283.87 116.87,280.77 130.09,277.77 143.30,274.48 156.52,271.10 169.74,267.03 182.96,264.13 196.17,261.52 209.39,258.81 222.61,255.42 235.83,251.16 249.04,248.65 262.26,245.45 275.48,239.16 288.70,231.42 301.91,223.58 315.13,210.81 328.35,201.71 341.57,193.87 354.78,184.39 368.00,176.45 381.22,169.19 394.43,161.26 407.65,152.35 420.87,142.87 434.09,135.32 447.30,127.68 460.52,119.26 473.74,117.90 486.96,116.45 500.17,113.65 513.39,108.42 526.61,103.97 539.83,98.55 553.04,94.19 566.26,90.23 579.48,84.61 592.70,78.32 605.91,72.52 619.13,67.97 632.35,64.97 645.57,59.45 658.78,54.71 672.00,52.39 685.22,52.39 698.43,52.00 711.65,56.74 724.87,57.52 738.09,57.71 751.30,59.16 764.52,59.65 777.74,57.71 790.96,57.03 804.17,56.65 817.39,56.74 830.61,56.74 843.83,57.23 857.04,56.94 870.26,57.23 883.48,57.71 896.70,58.29 909.91,59.06 923.13,58.68 936.35,60.52 949.57,59.74 962.78,59.26 976.00,59.35"/>
  <circle class="dot" cx="976.00" cy="59.35" r="4.5"/>
  
  <text class="axis" x="64.00" y="336" text-anchor="start">2026-03-10</text>
  <text class="axis" x="235.83" y="336" text-anchor="middle">2026-03-23</text>
  <text class="axis" x="407.65" y="336" text-anchor="middle">2026-04-05</text>
  <text class="axis" x="579.48" y="336" text-anchor="middle">2026-04-18</text>
  <text class="axis" x="751.30" y="336" text-anchor="middle">2026-05-01</text>
  <text class="axis" x="923.13" y="336" text-anchor="middle">2026-05-14</text>
  <text class="axis" x="976.00" y="336" text-anchor="end">2026-05-18</text>
  <text class="latest" x="976" y="34" text-anchor="end">Latest month: 2,528</text>
</svg>
