<?xml version="1.0" encoding="UTF-8"?>
<svg xmlns="http://www.w3.org/2000/svg" viewBox="0 0 1000 360" role="img" aria-label="hordesmod/kek-ui release downloads chart">
  <defs>
    <linearGradient id="fill-monthly-orange" x1="0" y1="0" x2="0" y2="1">
      <stop offset="0%" stop-color="#f97316" stop-opacity="0.32"/>
      <stop offset="100%" stop-color="#f97316" stop-opacity="0.05"/>
    </linearGradient>
    <style>
      .bg { fill: #fff7ed; }
      .title { font: 700 24px Arial, sans-serif; fill: #7c2d12; }
      .sub { font: 400 13px Arial, sans-serif; fill: #9a3412; }
      .grid { stroke: #fed7aa; stroke-width: 1; }
      .axis { font: 400 12px Arial, sans-serif; fill: #c2410c; }
      .line { fill: none; stroke: #ea580c; stroke-width: 3; stroke-linecap: round; stroke-linejoin: round; }
      .dot { fill: #ea580c; }
      .value { font: 600 11px Arial, sans-serif; fill: #9a3412; }
      .latest { font: 700 14px Arial, sans-serif; fill: #7c2d12; }
    </style>
  </defs>
  <rect class="bg" x="0" y="0" width="1000" height="360" rx="16" />
  <text class="title" x="64" y="34">hordesmod/kek-ui release downloads</text>
  <text class="sub" x="64" y="352">Generated 2026-05-12</text>
  <line x1="64" y1="52.00" x2="976" y2="52.00" class="grid"/>
  <text x="56" y="56.00" text-anchor="end" class="axis">2,604</text>
  <line x1="64" y1="94.00" x2="976" y2="94.00" class="grid"/>
  <text x="56" y="98.00" text-anchor="end" class="axis">2,170</text>
  <line x1="64" y1="136.00" x2="976" y2="136.00" class="grid"/>
  <text x="56" y="140.00" text-anchor="end" class="axis">1,736</text>
  <line x1="64" y1="178.00" x2="976" y2="178.00" class="grid"/>
  <text x="56" y="182.00" text-anchor="end" class="axis">1,302</text>
  <line x1="64" y1="220.00" x2="976" y2="220.00" class="grid"/>
  <text x="56" y="224.00" text-anchor="end" class="axis">868</text>
  <line x1="64" y1="262.00" x2="976" y2="262.00" class="grid"/>
  <text x="56" y="266.00" text-anchor="end" class="axis">434</text>
  <line x1="64" y1="304.00" x2="976" y2="304.00" class="grid"/>
  <text x="56" y="308.00" text-anchor="end" class="axis">0</text>
  <path d="M 64.00 304 L 64.00 304.00 L 78.48 297.32 L 92.95 290.06 L 107.43 283.87 L 121.90 280.77 L 136.38 277.77 L 150.86 274.48 L 165.33 271.10 L 179.81 267.03 L 194.29 264.13 L 208.76 261.52 L 223.24 258.81 L 237.71 255.42 L 252.19 251.16 L 266.67 248.65 L 281.14 245.45 L 295.62 239.16 L 310.10 231.42 L 324.57 223.58 L 339.05 210.81 L 353.52 201.71 L 368.00 193.87 L 382.48 184.39 L 396.95 176.45 L 411.43 169.19 L 425.90 161.26 L 440.38 152.35 L 454.86 142.87 L 469.33 135.32 L 483.81 127.68 L 498.29 119.26 L 512.76 117.90 L 527.24 116.45 L 541.71 113.65 L 556.19 108.42 L 570.67 103.97 L 585.14 98.55 L 599.62 94.19 L 614.10 90.23 L 628.57 84.61 L 643.05 78.32 L 657.52 72.52 L 672.00 67.97 L 686.48 64.97 L 700.95 59.45 L 715.43 54.71 L 729.90 52.39 L 744.38 52.39 L 758.86 52.00 L 773.33 56.74 L 787.81 57.52 L 802.29 57.71 L 816.76 59.16 L 831.24 59.65 L 845.71 57.71 L 860.19 57.03 L 874.67 56.65 L 889.14 56.74 L 903.62 56.74 L 918.10 57.23 L 932.57 56.94 L 947.05 57.23 L 961.52 57.71 L 976.00 58.29 L 976.00 304 Z" fill="url(#fill-monthly-orange)"/>
  <polyline class="line" points="64.00,304.00 78.48,297.32 92.95,290.06 107.43,283.87 121.90,280.77 136.38,277.77 150.86,274.48 165.33,271.10 179.81,267.03 194.29,264.13 208.76,261.52 223.24,258.81 237.71,255.42 252.19,251.16 266.67,248.65 281.14,245.45 295.62,239.16 310.10,231.42 324.57,223.58 339.05,210.81 353.52,201.71 368.00,193.87 382.48,184.39 396.95,176.45 411.43,169.19 425.90,161.26 440.38,152.35 454.86,142.87 469.33,135.32 483.81,127.68 498.29,119.26 512.76,117.90 527.24,116.45 541.71,113.65 556.19,108.42 570.67,103.97 585.14,98.55 599.62,94.19 614.10,90.23 628.57,84.61 643.05,78.32 657.52,72.52 672.00,67.97 686.48,64.97 700.95,59.45 715.43,54.71 729.90,52.39 744.38,52.39 758.86,52.00 773.33,56.74 787.81,57.52 802.29,57.71 816.76,59.16 831.24,59.65 845.71,57.71 860.19,57.03 874.67,56.65 889.14,56.74 903.62,56.74 918.10,57.23 932.57,56.94 947.05,57.23 961.52,57.71 976.00,58.29"/>
  <circle class="dot" cx="976.00" cy="58.29" r="4.5"/>
  
  <text class="axis" x="64.00" y="336" text-anchor="start">2026-03-10</text>
  <text class="axis" x="237.71" y="336" text-anchor="middle">2026-03-22</text>
  <text class="axis" x="411.43" y="336" text-anchor="middle">2026-04-03</text>
  <text class="axis" x="585.14" y="336" text-anchor="middle">2026-04-15</text>
  <text class="axis" x="758.86" y="336" text-anchor="middle">2026-04-27</text>
  <text class="axis" x="932.57" y="336" text-anchor="middle">2026-05-09</text>
  <text class="axis" x="976.00" y="336" text-anchor="end">2026-05-12</text>
  <text class="latest" x="976" y="34" text-anchor="end">Latest month: 2,539</text>
</svg>
