<?xml version="1.0" encoding="UTF-8"?>
<svg xmlns="http://www.w3.org/2000/svg" viewBox="0 0 1000 360" role="img" aria-label="hordesmod/kek-ui release downloads chart">
  <defs>
    <linearGradient id="fill-monthly-black" x1="0" y1="0" x2="0" y2="1">
      <stop offset="0%" stop-color="#22d3ee" stop-opacity="0.32"/>
      <stop offset="100%" stop-color="#22d3ee" stop-opacity="0.05"/>
    </linearGradient>
    <style>
      .bg { fill: #0b0b0d; }
      .title { font: 700 24px Arial, sans-serif; fill: #f8fafc; }
      .sub { font: 400 13px Arial, sans-serif; fill: #cbd5e1; }
      .grid { stroke: #1f2937; stroke-width: 1; }
      .axis { font: 400 12px Arial, sans-serif; fill: #94a3b8; }
      .line { fill: none; stroke: #22d3ee; stroke-width: 3; stroke-linecap: round; stroke-linejoin: round; }
      .dot { fill: #22d3ee; }
      .value { font: 600 11px Arial, sans-serif; fill: #cbd5e1; }
      .latest { font: 700 14px Arial, sans-serif; fill: #f8fafc; }
    </style>
  </defs>
  <rect class="bg" x="0" y="0" width="1000" height="360" rx="16" />
  <text class="title" x="64" y="34">hordesmod/kek-ui release downloads</text>
  <text class="sub" x="64" y="352">Generated 2026-05-13</text>
  <line x1="64" y1="52.00" x2="976" y2="52.00" class="grid"/>
  <text x="56" y="56.00" text-anchor="end" class="axis">2,604</text>
  <line x1="64" y1="94.00" x2="976" y2="94.00" class="grid"/>
  <text x="56" y="98.00" text-anchor="end" class="axis">2,170</text>
  <line x1="64" y1="136.00" x2="976" y2="136.00" class="grid"/>
  <text x="56" y="140.00" text-anchor="end" class="axis">1,736</text>
  <line x1="64" y1="178.00" x2="976" y2="178.00" class="grid"/>
  <text x="56" y="182.00" text-anchor="end" class="axis">1,302</text>
  <line x1="64" y1="220.00" x2="976" y2="220.00" class="grid"/>
  <text x="56" y="224.00" text-anchor="end" class="axis">868</text>
  <line x1="64" y1="262.00" x2="976" y2="262.00" class="grid"/>
  <text x="56" y="266.00" text-anchor="end" class="axis">434</text>
  <line x1="64" y1="304.00" x2="976" y2="304.00" class="grid"/>
  <text x="56" y="308.00" text-anchor="end" class="axis">0</text>
  <path d="M 64.00 304 L 64.00 304.00 L 78.25 297.32 L 92.50 290.06 L 106.75 283.87 L 121.00 280.77 L 135.25 277.77 L 149.50 274.48 L 163.75 271.10 L 178.00 267.03 L 192.25 264.13 L 206.50 261.52 L 220.75 258.81 L 235.00 255.42 L 249.25 251.16 L 263.50 248.65 L 277.75 245.45 L 292.00 239.16 L 306.25 231.42 L 320.50 223.58 L 334.75 210.81 L 349.00 201.71 L 363.25 193.87 L 377.50 184.39 L 391.75 176.45 L 406.00 169.19 L 420.25 161.26 L 434.50 152.35 L 448.75 142.87 L 463.00 135.32 L 477.25 127.68 L 491.50 119.26 L 505.75 117.90 L 520.00 116.45 L 534.25 113.65 L 548.50 108.42 L 562.75 103.97 L 577.00 98.55 L 591.25 94.19 L 605.50 90.23 L 619.75 84.61 L 634.00 78.32 L 648.25 72.52 L 662.50 67.97 L 676.75 64.97 L 691.00 59.45 L 705.25 54.71 L 719.50 52.39 L 733.75 52.39 L 748.00 52.00 L 762.25 56.74 L 776.50 57.52 L 790.75 57.71 L 805.00 59.16 L 819.25 59.65 L 833.50 57.71 L 847.75 57.03 L 862.00 56.65 L 876.25 56.74 L 890.50 56.74 L 904.75 57.23 L 919.00 56.94 L 933.25 57.23 L 947.50 57.71 L 961.75 58.29 L 976.00 59.06 L 976.00 304 Z" fill="url(#fill-monthly-black)"/>
  <polyline class="line" points="64.00,304.00 78.25,297.32 92.50,290.06 106.75,283.87 121.00,280.77 135.25,277.77 149.50,274.48 163.75,271.10 178.00,267.03 192.25,264.13 206.50,261.52 220.75,258.81 235.00,255.42 249.25,251.16 263.50,248.65 277.75,245.45 292.00,239.16 306.25,231.42 320.50,223.58 334.75,210.81 349.00,201.71 363.25,193.87 377.50,184.39 391.75,176.45 406.00,169.19 420.25,161.26 434.50,152.35 448.75,142.87 463.00,135.32 477.25,127.68 491.50,119.26 505.75,117.90 520.00,116.45 534.25,113.65 548.50,108.42 562.75,103.97 577.00,98.55 591.25,94.19 605.50,90.23 619.75,84.61 634.00,78.32 648.25,72.52 662.50,67.97 676.75,64.97 691.00,59.45 705.25,54.71 719.50,52.39 733.75,52.39 748.00,52.00 762.25,56.74 776.50,57.52 790.75,57.71 805.00,59.16 819.25,59.65 833.50,57.71 847.75,57.03 862.00,56.65 876.25,56.74 890.50,56.74 904.75,57.23 919.00,56.94 933.25,57.23 947.50,57.71 961.75,58.29 976.00,59.06"/>
  <circle class="dot" cx="976.00" cy="59.06" r="4.5"/>
  
  <text class="axis" x="64.00" y="336" text-anchor="start">2026-03-10</text>
  <text class="axis" x="235.00" y="336" text-anchor="middle">2026-03-22</text>
  <text class="axis" x="406.00" y="336" text-anchor="middle">2026-04-03</text>
  <text class="axis" x="577.00" y="336" text-anchor="middle">2026-04-15</text>
  <text class="axis" x="748.00" y="336" text-anchor="middle">2026-04-27</text>
  <text class="axis" x="919.00" y="336" text-anchor="middle">2026-05-09</text>
  <text class="axis" x="976.00" y="336" text-anchor="end">2026-05-13</text>
  <text class="latest" x="976" y="34" text-anchor="end">Latest month: 2,531</text>
</svg>
