<?xml version="1.0" encoding="UTF-8"?>
<svg xmlns="http://www.w3.org/2000/svg" viewBox="0 0 1000 360" role="img" aria-label="hordesmod/kek-ui release downloads chart">
  <defs>
    <linearGradient id="fill-monthly-black" x1="0" y1="0" x2="0" y2="1">
      <stop offset="0%" stop-color="#22d3ee" stop-opacity="0.32"/>
      <stop offset="100%" stop-color="#22d3ee" stop-opacity="0.05"/>
    </linearGradient>
    <style>
      .bg { fill: #0b0b0d; }
      .title { font: 700 24px Arial, sans-serif; fill: #f8fafc; }
      .sub { font: 400 13px Arial, sans-serif; fill: #cbd5e1; }
      .grid { stroke: #1f2937; stroke-width: 1; }
      .axis { font: 400 12px Arial, sans-serif; fill: #94a3b8; }
      .line { fill: none; stroke: #22d3ee; stroke-width: 3; stroke-linecap: round; stroke-linejoin: round; }
      .dot { fill: #22d3ee; }
      .value { font: 600 11px Arial, sans-serif; fill: #cbd5e1; }
      .latest { font: 700 14px Arial, sans-serif; fill: #f8fafc; }
    </style>
  </defs>
  <rect class="bg" x="0" y="0" width="1000" height="360" rx="16" />
  <text class="title" x="64" y="34">hordesmod/kek-ui release downloads</text>
  <text class="sub" x="64" y="352">Generated 2026-05-01</text>
  <line x1="64" y1="52.00" x2="976" y2="52.00" class="grid"/>
  <text x="56" y="56.00" text-anchor="end" class="axis">2,604</text>
  <line x1="64" y1="94.00" x2="976" y2="94.00" class="grid"/>
  <text x="56" y="98.00" text-anchor="end" class="axis">2,170</text>
  <line x1="64" y1="136.00" x2="976" y2="136.00" class="grid"/>
  <text x="56" y="140.00" text-anchor="end" class="axis">1,736</text>
  <line x1="64" y1="178.00" x2="976" y2="178.00" class="grid"/>
  <text x="56" y="182.00" text-anchor="end" class="axis">1,302</text>
  <line x1="64" y1="220.00" x2="976" y2="220.00" class="grid"/>
  <text x="56" y="224.00" text-anchor="end" class="axis">868</text>
  <line x1="64" y1="262.00" x2="976" y2="262.00" class="grid"/>
  <text x="56" y="266.00" text-anchor="end" class="axis">434</text>
  <line x1="64" y1="304.00" x2="976" y2="304.00" class="grid"/>
  <text x="56" y="308.00" text-anchor="end" class="axis">0</text>
  <path d="M 64.00 304 L 64.00 304.00 L 81.54 297.32 L 99.08 290.06 L 116.62 283.87 L 134.15 280.77 L 151.69 277.77 L 169.23 274.48 L 186.77 271.10 L 204.31 267.03 L 221.85 264.13 L 239.38 261.52 L 256.92 258.81 L 274.46 255.42 L 292.00 251.16 L 309.54 248.65 L 327.08 245.45 L 344.62 239.16 L 362.15 231.42 L 379.69 223.58 L 397.23 210.81 L 414.77 201.71 L 432.31 193.87 L 449.85 184.39 L 467.38 176.45 L 484.92 169.19 L 502.46 161.26 L 520.00 152.35 L 537.54 142.87 L 555.08 135.32 L 572.62 127.68 L 590.15 119.26 L 607.69 117.90 L 625.23 116.45 L 642.77 113.65 L 660.31 108.42 L 677.85 103.97 L 695.38 98.55 L 712.92 94.19 L 730.46 90.23 L 748.00 84.61 L 765.54 78.32 L 783.08 72.52 L 800.62 67.97 L 818.15 64.97 L 835.69 59.45 L 853.23 54.71 L 870.77 52.39 L 888.31 52.39 L 905.85 52.00 L 923.38 56.74 L 940.92 57.52 L 958.46 57.71 L 976.00 59.16 L 976.00 304 Z" fill="url(#fill-monthly-black)"/>
  <polyline class="line" points="64.00,304.00 81.54,297.32 99.08,290.06 116.62,283.87 134.15,280.77 151.69,277.77 169.23,274.48 186.77,271.10 204.31,267.03 221.85,264.13 239.38,261.52 256.92,258.81 274.46,255.42 292.00,251.16 309.54,248.65 327.08,245.45 344.62,239.16 362.15,231.42 379.69,223.58 397.23,210.81 414.77,201.71 432.31,193.87 449.85,184.39 467.38,176.45 484.92,169.19 502.46,161.26 520.00,152.35 537.54,142.87 555.08,135.32 572.62,127.68 590.15,119.26 607.69,117.90 625.23,116.45 642.77,113.65 660.31,108.42 677.85,103.97 695.38,98.55 712.92,94.19 730.46,90.23 748.00,84.61 765.54,78.32 783.08,72.52 800.62,67.97 818.15,64.97 835.69,59.45 853.23,54.71 870.77,52.39 888.31,52.39 905.85,52.00 923.38,56.74 940.92,57.52 958.46,57.71 976.00,59.16"/>
  <circle class="dot" cx="976.00" cy="59.16" r="4.5"/>
  
  <text class="axis" x="64.00" y="336" text-anchor="start">2026-03-10</text>
  <text class="axis" x="239.38" y="336" text-anchor="middle">2026-03-20</text>
  <text class="axis" x="414.77" y="336" text-anchor="middle">2026-03-30</text>
  <text class="axis" x="590.15" y="336" text-anchor="middle">2026-04-09</text>
  <text class="axis" x="765.54" y="336" text-anchor="middle">2026-04-19</text>
  <text class="axis" x="940.92" y="336" text-anchor="middle">2026-04-29</text>
  <text class="axis" x="976.00" y="336" text-anchor="end">2026-05-01</text>
  <text class="latest" x="976" y="34" text-anchor="end">Latest month: 2,530</text>
</svg>
