<?xml version="1.0" encoding="UTF-8"?>
<svg xmlns="http://www.w3.org/2000/svg" viewBox="0 0 1000 360" role="img" aria-label="hordesmod/kek-ui release downloads chart">
  <defs>
    <linearGradient id="fill-monthly-slate" x1="0" y1="0" x2="0" y2="1">
      <stop offset="0%" stop-color="#60a5fa" stop-opacity="0.32"/>
      <stop offset="100%" stop-color="#60a5fa" stop-opacity="0.05"/>
    </linearGradient>
    <style>
      .bg { fill: #0f172a; }
      .title { font: 700 24px Arial, sans-serif; fill: #e2e8f0; }
      .sub { font: 400 13px Arial, sans-serif; fill: #94a3b8; }
      .grid { stroke: #1e293b; stroke-width: 1; }
      .axis { font: 400 12px Arial, sans-serif; fill: #94a3b8; }
      .line { fill: none; stroke: #60a5fa; stroke-width: 3; stroke-linecap: round; stroke-linejoin: round; }
      .dot { fill: #60a5fa; }
      .value { font: 600 11px Arial, sans-serif; fill: #cbd5e1; }
      .latest { font: 700 14px Arial, sans-serif; fill: #e2e8f0; }
    </style>
  </defs>
  <rect class="bg" x="0" y="0" width="1000" height="360" rx="16" />
  <text class="title" x="64" y="34">hordesmod/kek-ui release downloads</text>
  <text class="sub" x="64" y="352">Generated 2026-04-04</text>
  <line x1="64" y1="52.00" x2="976" y2="52.00" class="grid"/>
  <text x="56" y="56.00" text-anchor="end" class="axis">1,475</text>
  <line x1="64" y1="94.00" x2="976" y2="94.00" class="grid"/>
  <text x="56" y="98.00" text-anchor="end" class="axis">1,229</text>
  <line x1="64" y1="136.00" x2="976" y2="136.00" class="grid"/>
  <text x="56" y="140.00" text-anchor="end" class="axis">983</text>
  <line x1="64" y1="178.00" x2="976" y2="178.00" class="grid"/>
  <text x="56" y="182.00" text-anchor="end" class="axis">738</text>
  <line x1="64" y1="220.00" x2="976" y2="220.00" class="grid"/>
  <text x="56" y="224.00" text-anchor="end" class="axis">492</text>
  <line x1="64" y1="262.00" x2="976" y2="262.00" class="grid"/>
  <text x="56" y="266.00" text-anchor="end" class="axis">246</text>
  <line x1="64" y1="304.00" x2="976" y2="304.00" class="grid"/>
  <text x="56" y="308.00" text-anchor="end" class="axis">0</text>
  <path d="M 64.00 304 L 64.00 304.00 L 100.48 292.21 L 136.96 279.40 L 173.44 268.46 L 209.92 263.00 L 246.40 257.70 L 282.88 251.89 L 319.36 245.91 L 355.84 238.74 L 392.32 233.61 L 428.80 229.00 L 465.28 224.21 L 501.76 218.23 L 538.24 210.72 L 574.72 206.28 L 611.20 200.64 L 647.68 189.53 L 684.16 175.86 L 720.64 162.03 L 757.12 139.47 L 793.60 123.41 L 830.08 109.58 L 866.56 92.83 L 903.04 78.82 L 939.52 66.01 L 976.00 52.00 L 976.00 304 Z" fill="url(#fill-monthly-slate)"/>
  <polyline class="line" points="64.00,304.00 100.48,292.21 136.96,279.40 173.44,268.46 209.92,263.00 246.40,257.70 282.88,251.89 319.36,245.91 355.84,238.74 392.32,233.61 428.80,229.00 465.28,224.21 501.76,218.23 538.24,210.72 574.72,206.28 611.20,200.64 647.68,189.53 684.16,175.86 720.64,162.03 757.12,139.47 793.60,123.41 830.08,109.58 866.56,92.83 903.04,78.82 939.52,66.01 976.00,52.00"/>
  <circle class="dot" cx="976.00" cy="52.00" r="4.5"/>
  
  <text class="axis" x="64.00" y="336" text-anchor="start">2026-03-10</text>
  <text class="axis" x="246.40" y="336" text-anchor="middle">2026-03-15</text>
  <text class="axis" x="428.80" y="336" text-anchor="middle">2026-03-20</text>
  <text class="axis" x="611.20" y="336" text-anchor="middle">2026-03-25</text>
  <text class="axis" x="793.60" y="336" text-anchor="middle">2026-03-30</text>
  <text class="axis" x="976.00" y="336" text-anchor="end">2026-04-04</text>
  <text class="latest" x="976" y="34" text-anchor="end">Latest month: 1,475</text>
</svg>
