<?xml version="1.0" encoding="UTF-8"?>
<svg xmlns="http://www.w3.org/2000/svg" viewBox="0 0 1000 360" role="img" aria-label="hordesmod/kek-ui release downloads chart">
  <defs>
    <linearGradient id="fill-monthly-slate" x1="0" y1="0" x2="0" y2="1">
      <stop offset="0%" stop-color="#60a5fa" stop-opacity="0.32"/>
      <stop offset="100%" stop-color="#60a5fa" stop-opacity="0.05"/>
    </linearGradient>
    <style>
      .bg { fill: #0f172a; }
      .title { font: 700 24px Arial, sans-serif; fill: #e2e8f0; }
      .sub { font: 400 13px Arial, sans-serif; fill: #94a3b8; }
      .grid { stroke: #1e293b; stroke-width: 1; }
      .axis { font: 400 12px Arial, sans-serif; fill: #94a3b8; }
      .line { fill: none; stroke: #60a5fa; stroke-width: 3; stroke-linecap: round; stroke-linejoin: round; }
      .dot { fill: #60a5fa; }
      .value { font: 600 11px Arial, sans-serif; fill: #cbd5e1; }
      .latest { font: 700 14px Arial, sans-serif; fill: #e2e8f0; }
    </style>
  </defs>
  <rect class="bg" x="0" y="0" width="1000" height="360" rx="16" />
  <text class="title" x="64" y="34">hordesmod/kek-ui release downloads</text>
  <text class="sub" x="64" y="352">Generated 2026-04-11</text>
  <line x1="64" y1="52.00" x2="976" y2="52.00" class="grid"/>
  <text x="56" y="56.00" text-anchor="end" class="axis">1,938</text>
  <line x1="64" y1="94.00" x2="976" y2="94.00" class="grid"/>
  <text x="56" y="98.00" text-anchor="end" class="axis">1,615</text>
  <line x1="64" y1="136.00" x2="976" y2="136.00" class="grid"/>
  <text x="56" y="140.00" text-anchor="end" class="axis">1,292</text>
  <line x1="64" y1="178.00" x2="976" y2="178.00" class="grid"/>
  <text x="56" y="182.00" text-anchor="end" class="axis">969</text>
  <line x1="64" y1="220.00" x2="976" y2="220.00" class="grid"/>
  <text x="56" y="224.00" text-anchor="end" class="axis">646</text>
  <line x1="64" y1="262.00" x2="976" y2="262.00" class="grid"/>
  <text x="56" y="266.00" text-anchor="end" class="axis">323</text>
  <line x1="64" y1="304.00" x2="976" y2="304.00" class="grid"/>
  <text x="56" y="308.00" text-anchor="end" class="axis">0</text>
  <path d="M 64.00 304 L 64.00 304.00 L 92.50 295.03 L 121.00 285.28 L 149.50 276.95 L 178.00 272.79 L 206.50 268.76 L 235.00 264.34 L 263.50 259.79 L 292.00 254.33 L 320.50 250.43 L 349.00 246.92 L 377.50 243.28 L 406.00 238.72 L 434.50 233.00 L 463.00 229.62 L 491.50 225.33 L 520.00 216.88 L 548.50 206.48 L 577.00 195.94 L 605.50 178.78 L 634.00 166.56 L 662.50 156.02 L 691.00 143.28 L 719.50 132.62 L 748.00 122.87 L 776.50 112.20 L 805.00 100.24 L 833.50 87.50 L 862.00 77.36 L 890.50 67.08 L 919.00 55.77 L 947.50 53.95 L 976.00 52.00 L 976.00 304 Z" fill="url(#fill-monthly-slate)"/>
  <polyline class="line" points="64.00,304.00 92.50,295.03 121.00,285.28 149.50,276.95 178.00,272.79 206.50,268.76 235.00,264.34 263.50,259.79 292.00,254.33 320.50,250.43 349.00,246.92 377.50,243.28 406.00,238.72 434.50,233.00 463.00,229.62 491.50,225.33 520.00,216.88 548.50,206.48 577.00,195.94 605.50,178.78 634.00,166.56 662.50,156.02 691.00,143.28 719.50,132.62 748.00,122.87 776.50,112.20 805.00,100.24 833.50,87.50 862.00,77.36 890.50,67.08 919.00,55.77 947.50,53.95 976.00,52.00"/>
  <circle class="dot" cx="976.00" cy="52.00" r="4.5"/>
  
  <text class="axis" x="64.00" y="336" text-anchor="start">2026-03-10</text>
  <text class="axis" x="235.00" y="336" text-anchor="middle">2026-03-16</text>
  <text class="axis" x="406.00" y="336" text-anchor="middle">2026-03-22</text>
  <text class="axis" x="577.00" y="336" text-anchor="middle">2026-03-28</text>
  <text class="axis" x="748.00" y="336" text-anchor="middle">2026-04-03</text>
  <text class="axis" x="919.00" y="336" text-anchor="middle">2026-04-09</text>
  <text class="axis" x="976.00" y="336" text-anchor="end">2026-04-11</text>
  <text class="latest" x="976" y="34" text-anchor="end">Latest month: 1,938</text>
</svg>
