<?xml version="1.0" encoding="UTF-8"?>
<svg xmlns="http://www.w3.org/2000/svg" viewBox="0 0 1000 360" role="img" aria-label="hordesmod/kek-ui release downloads chart">
  <defs>
    <linearGradient id="fill-monthly-black" x1="0" y1="0" x2="0" y2="1">
      <stop offset="0%" stop-color="#22d3ee" stop-opacity="0.32"/>
      <stop offset="100%" stop-color="#22d3ee" stop-opacity="0.05"/>
    </linearGradient>
    <style>
      .bg { fill: #0b0b0d; }
      .title { font: 700 24px Arial, sans-serif; fill: #f8fafc; }
      .sub { font: 400 13px Arial, sans-serif; fill: #cbd5e1; }
      .grid { stroke: #1f2937; stroke-width: 1; }
      .axis { font: 400 12px Arial, sans-serif; fill: #94a3b8; }
      .line { fill: none; stroke: #22d3ee; stroke-width: 3; stroke-linecap: round; stroke-linejoin: round; }
      .dot { fill: #22d3ee; }
      .value { font: 600 11px Arial, sans-serif; fill: #cbd5e1; }
      .latest { font: 700 14px Arial, sans-serif; fill: #f8fafc; }
    </style>
  </defs>
  <rect class="bg" x="0" y="0" width="1000" height="360" rx="16" />
  <text class="title" x="64" y="34">hordesmod/kek-ui release downloads</text>
  <text class="sub" x="64" y="352">Generated 2026-04-16</text>
  <line x1="64" y1="52.00" x2="976" y2="52.00" class="grid"/>
  <text x="56" y="56.00" text-anchor="end" class="axis">2,168</text>
  <line x1="64" y1="94.00" x2="976" y2="94.00" class="grid"/>
  <text x="56" y="98.00" text-anchor="end" class="axis">1,807</text>
  <line x1="64" y1="136.00" x2="976" y2="136.00" class="grid"/>
  <text x="56" y="140.00" text-anchor="end" class="axis">1,445</text>
  <line x1="64" y1="178.00" x2="976" y2="178.00" class="grid"/>
  <text x="56" y="182.00" text-anchor="end" class="axis">1,084</text>
  <line x1="64" y1="220.00" x2="976" y2="220.00" class="grid"/>
  <text x="56" y="224.00" text-anchor="end" class="axis">723</text>
  <line x1="64" y1="262.00" x2="976" y2="262.00" class="grid"/>
  <text x="56" y="266.00" text-anchor="end" class="axis">361</text>
  <line x1="64" y1="304.00" x2="976" y2="304.00" class="grid"/>
  <text x="56" y="308.00" text-anchor="end" class="axis">0</text>
  <path d="M 64.00 304 L 64.00 304.00 L 88.65 295.98 L 113.30 287.26 L 137.95 279.82 L 162.59 276.10 L 187.24 272.50 L 211.89 268.55 L 236.54 264.48 L 261.19 259.60 L 285.84 256.11 L 310.49 252.97 L 335.14 249.72 L 359.78 245.65 L 384.43 240.54 L 409.08 237.51 L 433.73 233.68 L 458.38 226.12 L 483.03 216.82 L 507.68 207.41 L 532.32 192.06 L 556.97 181.14 L 581.62 171.72 L 606.27 160.33 L 630.92 150.80 L 655.57 142.08 L 680.22 132.55 L 704.86 121.86 L 729.51 110.47 L 754.16 101.40 L 778.81 92.22 L 803.46 82.11 L 828.11 80.48 L 852.76 78.73 L 877.41 75.36 L 902.05 69.09 L 926.70 63.74 L 951.35 57.23 L 976.00 52.00 L 976.00 304 Z" fill="url(#fill-monthly-black)"/>
  <polyline class="line" points="64.00,304.00 88.65,295.98 113.30,287.26 137.95,279.82 162.59,276.10 187.24,272.50 211.89,268.55 236.54,264.48 261.19,259.60 285.84,256.11 310.49,252.97 335.14,249.72 359.78,245.65 384.43,240.54 409.08,237.51 433.73,233.68 458.38,226.12 483.03,216.82 507.68,207.41 532.32,192.06 556.97,181.14 581.62,171.72 606.27,160.33 630.92,150.80 655.57,142.08 680.22,132.55 704.86,121.86 729.51,110.47 754.16,101.40 778.81,92.22 803.46,82.11 828.11,80.48 852.76,78.73 877.41,75.36 902.05,69.09 926.70,63.74 951.35,57.23 976.00,52.00"/>
  <circle class="dot" cx="976.00" cy="52.00" r="4.5"/>
  
  <text class="axis" x="64.00" y="336" text-anchor="start">2026-03-10</text>
  <text class="axis" x="236.54" y="336" text-anchor="middle">2026-03-17</text>
  <text class="axis" x="409.08" y="336" text-anchor="middle">2026-03-24</text>
  <text class="axis" x="581.62" y="336" text-anchor="middle">2026-03-31</text>
  <text class="axis" x="754.16" y="336" text-anchor="middle">2026-04-07</text>
  <text class="axis" x="926.70" y="336" text-anchor="middle">2026-04-14</text>
  <text class="axis" x="976.00" y="336" text-anchor="end">2026-04-16</text>
  <text class="latest" x="976" y="34" text-anchor="end">Latest month: 2,168</text>
</svg>
