<?xml version="1.0" encoding="UTF-8"?>
<svg xmlns="http://www.w3.org/2000/svg" viewBox="0 0 1000 360" role="img" aria-label="hordesmod/kek-ui release downloads chart">
  <defs>
    <linearGradient id="fill-monthly-black" x1="0" y1="0" x2="0" y2="1">
      <stop offset="0%" stop-color="#22d3ee" stop-opacity="0.32"/>
      <stop offset="100%" stop-color="#22d3ee" stop-opacity="0.05"/>
    </linearGradient>
    <style>
      .bg { fill: #0b0b0d; }
      .title { font: 700 24px Arial, sans-serif; fill: #f8fafc; }
      .sub { font: 400 13px Arial, sans-serif; fill: #cbd5e1; }
      .grid { stroke: #1f2937; stroke-width: 1; }
      .axis { font: 400 12px Arial, sans-serif; fill: #94a3b8; }
      .line { fill: none; stroke: #22d3ee; stroke-width: 3; stroke-linecap: round; stroke-linejoin: round; }
      .dot { fill: #22d3ee; }
      .value { font: 600 11px Arial, sans-serif; fill: #cbd5e1; }
      .latest { font: 700 14px Arial, sans-serif; fill: #f8fafc; }
    </style>
  </defs>
  <rect class="bg" x="0" y="0" width="1000" height="360" rx="16" />
  <text class="title" x="64" y="34">hordesmod/kek-ui release downloads</text>
  <text class="sub" x="64" y="352">Generated 2026-03-27</text>
  <line x1="64" y1="52.00" x2="976" y2="52.00" class="grid"/>
  <text x="56" y="56.00" text-anchor="end" class="axis">750</text>
  <line x1="64" y1="94.00" x2="976" y2="94.00" class="grid"/>
  <text x="56" y="98.00" text-anchor="end" class="axis">625</text>
  <line x1="64" y1="136.00" x2="976" y2="136.00" class="grid"/>
  <text x="56" y="140.00" text-anchor="end" class="axis">500</text>
  <line x1="64" y1="178.00" x2="976" y2="178.00" class="grid"/>
  <text x="56" y="182.00" text-anchor="end" class="axis">375</text>
  <line x1="64" y1="220.00" x2="976" y2="220.00" class="grid"/>
  <text x="56" y="224.00" text-anchor="end" class="axis">250</text>
  <line x1="64" y1="262.00" x2="976" y2="262.00" class="grid"/>
  <text x="56" y="266.00" text-anchor="end" class="axis">125</text>
  <line x1="64" y1="304.00" x2="976" y2="304.00" class="grid"/>
  <text x="56" y="308.00" text-anchor="end" class="axis">0</text>
  <path d="M 64.00 304 L 64.00 304.00 L 117.65 280.82 L 171.29 255.62 L 224.94 234.11 L 278.59 223.36 L 332.24 212.94 L 385.88 201.52 L 439.53 189.76 L 493.18 175.65 L 546.82 165.57 L 600.47 156.50 L 654.12 147.09 L 707.76 135.33 L 761.41 120.54 L 815.06 111.81 L 868.71 100.72 L 922.35 78.88 L 976.00 52.00 L 976.00 304 Z" fill="url(#fill-monthly-black)"/>
  <polyline class="line" points="64.00,304.00 117.65,280.82 171.29,255.62 224.94,234.11 278.59,223.36 332.24,212.94 385.88,201.52 439.53,189.76 493.18,175.65 546.82,165.57 600.47,156.50 654.12,147.09 707.76,135.33 761.41,120.54 815.06,111.81 868.71,100.72 922.35,78.88 976.00,52.00"/>
  <circle class="dot" cx="976.00" cy="52.00" r="4.5"/>
  
  <text class="axis" x="64.00" y="336" text-anchor="start">2026-03-10</text>
  <text class="axis" x="224.94" y="336" text-anchor="middle">2026-03-13</text>
  <text class="axis" x="385.88" y="336" text-anchor="middle">2026-03-16</text>
  <text class="axis" x="546.82" y="336" text-anchor="middle">2026-03-19</text>
  <text class="axis" x="707.76" y="336" text-anchor="middle">2026-03-22</text>
  <text class="axis" x="868.71" y="336" text-anchor="middle">2026-03-25</text>
  <text class="axis" x="976.00" y="336" text-anchor="end">2026-03-27</text>
  <text class="latest" x="976" y="34" text-anchor="end">Latest month: 750</text>
</svg>
