<?xml version="1.0" encoding="UTF-8"?>
<svg xmlns="http://www.w3.org/2000/svg" viewBox="0 0 1000 360" role="img" aria-label="hordesmod/kek-ui release downloads chart">
  <defs>
    <linearGradient id="fill-monthly-slate" x1="0" y1="0" x2="0" y2="1">
      <stop offset="0%" stop-color="#60a5fa" stop-opacity="0.32"/>
      <stop offset="100%" stop-color="#60a5fa" stop-opacity="0.05"/>
    </linearGradient>
    <style>
      .bg { fill: #0f172a; }
      .title { font: 700 24px Arial, sans-serif; fill: #e2e8f0; }
      .sub { font: 400 13px Arial, sans-serif; fill: #94a3b8; }
      .grid { stroke: #1e293b; stroke-width: 1; }
      .axis { font: 400 12px Arial, sans-serif; fill: #94a3b8; }
      .line { fill: none; stroke: #60a5fa; stroke-width: 3; stroke-linecap: round; stroke-linejoin: round; }
      .dot { fill: #60a5fa; }
      .value { font: 600 11px Arial, sans-serif; fill: #cbd5e1; }
      .latest { font: 700 14px Arial, sans-serif; fill: #e2e8f0; }
    </style>
  </defs>
  <rect class="bg" x="0" y="0" width="1000" height="360" rx="16" />
  <text class="title" x="64" y="34">hordesmod/kek-ui release downloads</text>
  <text class="sub" x="64" y="352">Generated 2026-05-04</text>
  <line x1="64" y1="52.00" x2="976" y2="52.00" class="grid"/>
  <text x="56" y="56.00" text-anchor="end" class="axis">2,604</text>
  <line x1="64" y1="94.00" x2="976" y2="94.00" class="grid"/>
  <text x="56" y="98.00" text-anchor="end" class="axis">2,170</text>
  <line x1="64" y1="136.00" x2="976" y2="136.00" class="grid"/>
  <text x="56" y="140.00" text-anchor="end" class="axis">1,736</text>
  <line x1="64" y1="178.00" x2="976" y2="178.00" class="grid"/>
  <text x="56" y="182.00" text-anchor="end" class="axis">1,302</text>
  <line x1="64" y1="220.00" x2="976" y2="220.00" class="grid"/>
  <text x="56" y="224.00" text-anchor="end" class="axis">868</text>
  <line x1="64" y1="262.00" x2="976" y2="262.00" class="grid"/>
  <text x="56" y="266.00" text-anchor="end" class="axis">434</text>
  <line x1="64" y1="304.00" x2="976" y2="304.00" class="grid"/>
  <text x="56" y="308.00" text-anchor="end" class="axis">0</text>
  <path d="M 64.00 304 L 64.00 304.00 L 80.58 297.32 L 97.16 290.06 L 113.75 283.87 L 130.33 280.77 L 146.91 277.77 L 163.49 274.48 L 180.07 271.10 L 196.65 267.03 L 213.24 264.13 L 229.82 261.52 L 246.40 258.81 L 262.98 255.42 L 279.56 251.16 L 296.15 248.65 L 312.73 245.45 L 329.31 239.16 L 345.89 231.42 L 362.47 223.58 L 379.05 210.81 L 395.64 201.71 L 412.22 193.87 L 428.80 184.39 L 445.38 176.45 L 461.96 169.19 L 478.55 161.26 L 495.13 152.35 L 511.71 142.87 L 528.29 135.32 L 544.87 127.68 L 561.45 119.26 L 578.04 117.90 L 594.62 116.45 L 611.20 113.65 L 627.78 108.42 L 644.36 103.97 L 660.95 98.55 L 677.53 94.19 L 694.11 90.23 L 710.69 84.61 L 727.27 78.32 L 743.85 72.52 L 760.44 67.97 L 777.02 64.97 L 793.60 59.45 L 810.18 54.71 L 826.76 52.39 L 843.35 52.39 L 859.93 52.00 L 876.51 56.74 L 893.09 57.52 L 909.67 57.71 L 926.25 59.16 L 942.84 59.65 L 959.42 57.71 L 976.00 57.03 L 976.00 304 Z" fill="url(#fill-monthly-slate)"/>
  <polyline class="line" points="64.00,304.00 80.58,297.32 97.16,290.06 113.75,283.87 130.33,280.77 146.91,277.77 163.49,274.48 180.07,271.10 196.65,267.03 213.24,264.13 229.82,261.52 246.40,258.81 262.98,255.42 279.56,251.16 296.15,248.65 312.73,245.45 329.31,239.16 345.89,231.42 362.47,223.58 379.05,210.81 395.64,201.71 412.22,193.87 428.80,184.39 445.38,176.45 461.96,169.19 478.55,161.26 495.13,152.35 511.71,142.87 528.29,135.32 544.87,127.68 561.45,119.26 578.04,117.90 594.62,116.45 611.20,113.65 627.78,108.42 644.36,103.97 660.95,98.55 677.53,94.19 694.11,90.23 710.69,84.61 727.27,78.32 743.85,72.52 760.44,67.97 777.02,64.97 793.60,59.45 810.18,54.71 826.76,52.39 843.35,52.39 859.93,52.00 876.51,56.74 893.09,57.52 909.67,57.71 926.25,59.16 942.84,59.65 959.42,57.71 976.00,57.03"/>
  <circle class="dot" cx="976.00" cy="57.03" r="4.5"/>
  
  <text class="axis" x="64.00" y="336" text-anchor="start">2026-03-10</text>
  <text class="axis" x="246.40" y="336" text-anchor="middle">2026-03-21</text>
  <text class="axis" x="428.80" y="336" text-anchor="middle">2026-04-01</text>
  <text class="axis" x="611.20" y="336" text-anchor="middle">2026-04-12</text>
  <text class="axis" x="793.60" y="336" text-anchor="middle">2026-04-23</text>
  <text class="axis" x="976.00" y="336" text-anchor="end">2026-05-04</text>
  <text class="latest" x="976" y="34" text-anchor="end">Latest month: 2,552</text>
</svg>
