<?xml version="1.0" encoding="UTF-8"?>
<svg xmlns="http://www.w3.org/2000/svg" viewBox="0 0 1000 360" role="img" aria-label="hordesmod/kek-ui release downloads chart">
  <defs>
    <linearGradient id="fill-monthly-orange" x1="0" y1="0" x2="0" y2="1">
      <stop offset="0%" stop-color="#f97316" stop-opacity="0.32"/>
      <stop offset="100%" stop-color="#f97316" stop-opacity="0.05"/>
    </linearGradient>
    <style>
      .bg { fill: #fff7ed; }
      .title { font: 700 24px Arial, sans-serif; fill: #7c2d12; }
      .sub { font: 400 13px Arial, sans-serif; fill: #9a3412; }
      .grid { stroke: #fed7aa; stroke-width: 1; }
      .axis { font: 400 12px Arial, sans-serif; fill: #c2410c; }
      .line { fill: none; stroke: #ea580c; stroke-width: 3; stroke-linecap: round; stroke-linejoin: round; }
      .dot { fill: #ea580c; }
      .value { font: 600 11px Arial, sans-serif; fill: #9a3412; }
      .latest { font: 700 14px Arial, sans-serif; fill: #7c2d12; }
    </style>
  </defs>
  <rect class="bg" x="0" y="0" width="1000" height="360" rx="16" />
  <text class="title" x="64" y="34">hordesmod/kek-ui release downloads</text>
  <text class="sub" x="64" y="352">Generated 2026-04-22</text>
  <line x1="64" y1="52.00" x2="976" y2="52.00" class="grid"/>
  <text x="56" y="56.00" text-anchor="end" class="axis">2,470</text>
  <line x1="64" y1="94.00" x2="976" y2="94.00" class="grid"/>
  <text x="56" y="98.00" text-anchor="end" class="axis">2,058</text>
  <line x1="64" y1="136.00" x2="976" y2="136.00" class="grid"/>
  <text x="56" y="140.00" text-anchor="end" class="axis">1,647</text>
  <line x1="64" y1="178.00" x2="976" y2="178.00" class="grid"/>
  <text x="56" y="182.00" text-anchor="end" class="axis">1,235</text>
  <line x1="64" y1="220.00" x2="976" y2="220.00" class="grid"/>
  <text x="56" y="224.00" text-anchor="end" class="axis">823</text>
  <line x1="64" y1="262.00" x2="976" y2="262.00" class="grid"/>
  <text x="56" y="266.00" text-anchor="end" class="axis">412</text>
  <line x1="64" y1="304.00" x2="976" y2="304.00" class="grid"/>
  <text x="56" y="308.00" text-anchor="end" class="axis">0</text>
  <path d="M 64.00 304 L 64.00 304.00 L 85.21 296.96 L 106.42 289.31 L 127.63 282.78 L 148.84 279.51 L 170.05 276.35 L 191.26 272.88 L 212.47 269.31 L 233.67 265.03 L 254.88 261.97 L 276.09 259.21 L 297.30 256.35 L 318.51 252.78 L 339.72 248.29 L 360.93 245.64 L 382.14 242.28 L 403.35 235.64 L 424.56 227.48 L 445.77 219.22 L 466.98 205.75 L 488.19 196.16 L 509.40 187.90 L 530.60 177.90 L 551.81 169.53 L 573.02 161.88 L 594.23 153.51 L 615.44 144.13 L 636.65 134.13 L 657.86 126.17 L 679.07 118.11 L 700.28 109.24 L 721.49 107.81 L 742.70 106.28 L 763.91 103.32 L 785.12 97.81 L 806.33 93.12 L 827.53 87.40 L 848.74 82.81 L 869.95 78.63 L 891.16 72.71 L 912.37 66.08 L 933.58 59.96 L 954.79 55.16 L 976.00 52.00 L 976.00 304 Z" fill="url(#fill-monthly-orange)"/>
  <polyline class="line" points="64.00,304.00 85.21,296.96 106.42,289.31 127.63,282.78 148.84,279.51 170.05,276.35 191.26,272.88 212.47,269.31 233.67,265.03 254.88,261.97 276.09,259.21 297.30,256.35 318.51,252.78 339.72,248.29 360.93,245.64 382.14,242.28 403.35,235.64 424.56,227.48 445.77,219.22 466.98,205.75 488.19,196.16 509.40,187.90 530.60,177.90 551.81,169.53 573.02,161.88 594.23,153.51 615.44,144.13 636.65,134.13 657.86,126.17 679.07,118.11 700.28,109.24 721.49,107.81 742.70,106.28 763.91,103.32 785.12,97.81 806.33,93.12 827.53,87.40 848.74,82.81 869.95,78.63 891.16,72.71 912.37,66.08 933.58,59.96 954.79,55.16 976.00,52.00"/>
  <circle class="dot" cx="976.00" cy="52.00" r="4.5"/>
  
  <text class="axis" x="64.00" y="336" text-anchor="start">2026-03-10</text>
  <text class="axis" x="233.67" y="336" text-anchor="middle">2026-03-18</text>
  <text class="axis" x="403.35" y="336" text-anchor="middle">2026-03-26</text>
  <text class="axis" x="573.02" y="336" text-anchor="middle">2026-04-03</text>
  <text class="axis" x="742.70" y="336" text-anchor="middle">2026-04-11</text>
  <text class="axis" x="912.37" y="336" text-anchor="middle">2026-04-19</text>
  <text class="axis" x="976.00" y="336" text-anchor="end">2026-04-22</text>
  <text class="latest" x="976" y="34" text-anchor="end">Latest month: 2,470</text>
</svg>
