<?xml version="1.0" encoding="UTF-8"?>
<svg xmlns="http://www.w3.org/2000/svg" viewBox="0 0 1000 360" role="img" aria-label="hordesmod/kek-ui release downloads chart">
  <defs>
    <linearGradient id="fill-monthly-orange" x1="0" y1="0" x2="0" y2="1">
      <stop offset="0%" stop-color="#f97316" stop-opacity="0.32"/>
      <stop offset="100%" stop-color="#f97316" stop-opacity="0.05"/>
    </linearGradient>
    <style>
      .bg { fill: #fff7ed; }
      .title { font: 700 24px Arial, sans-serif; fill: #7c2d12; }
      .sub { font: 400 13px Arial, sans-serif; fill: #9a3412; }
      .grid { stroke: #fed7aa; stroke-width: 1; }
      .axis { font: 400 12px Arial, sans-serif; fill: #c2410c; }
      .line { fill: none; stroke: #ea580c; stroke-width: 3; stroke-linecap: round; stroke-linejoin: round; }
      .dot { fill: #ea580c; }
      .value { font: 600 11px Arial, sans-serif; fill: #9a3412; }
      .latest { font: 700 14px Arial, sans-serif; fill: #7c2d12; }
    </style>
  </defs>
  <rect class="bg" x="0" y="0" width="1000" height="360" rx="16" />
  <text class="title" x="64" y="34">hordesmod/kek-ui release downloads</text>
  <text class="sub" x="64" y="352">Generated 2026-04-05</text>
  <line x1="64" y1="52.00" x2="976" y2="52.00" class="grid"/>
  <text x="56" y="56.00" text-anchor="end" class="axis">1,567</text>
  <line x1="64" y1="94.00" x2="976" y2="94.00" class="grid"/>
  <text x="56" y="98.00" text-anchor="end" class="axis">1,306</text>
  <line x1="64" y1="136.00" x2="976" y2="136.00" class="grid"/>
  <text x="56" y="140.00" text-anchor="end" class="axis">1,045</text>
  <line x1="64" y1="178.00" x2="976" y2="178.00" class="grid"/>
  <text x="56" y="182.00" text-anchor="end" class="axis">784</text>
  <line x1="64" y1="220.00" x2="976" y2="220.00" class="grid"/>
  <text x="56" y="224.00" text-anchor="end" class="axis">522</text>
  <line x1="64" y1="262.00" x2="976" y2="262.00" class="grid"/>
  <text x="56" y="266.00" text-anchor="end" class="axis">261</text>
  <line x1="64" y1="304.00" x2="976" y2="304.00" class="grid"/>
  <text x="56" y="308.00" text-anchor="end" class="axis">0</text>
  <path d="M 64.00 304 L 64.00 304.00 L 99.08 292.90 L 134.15 280.84 L 169.23 270.55 L 204.31 265.40 L 239.38 260.42 L 274.46 254.95 L 309.54 249.32 L 344.62 242.57 L 379.69 237.74 L 414.77 233.40 L 449.85 228.90 L 484.92 223.27 L 520.00 216.19 L 555.08 212.01 L 590.15 206.71 L 625.23 196.25 L 660.31 183.39 L 695.38 170.36 L 730.46 149.13 L 765.54 134.02 L 800.62 120.99 L 835.69 105.23 L 870.77 92.04 L 905.85 79.98 L 940.92 66.80 L 976.00 52.00 L 976.00 304 Z" fill="url(#fill-monthly-orange)"/>
  <polyline class="line" points="64.00,304.00 99.08,292.90 134.15,280.84 169.23,270.55 204.31,265.40 239.38,260.42 274.46,254.95 309.54,249.32 344.62,242.57 379.69,237.74 414.77,233.40 449.85,228.90 484.92,223.27 520.00,216.19 555.08,212.01 590.15,206.71 625.23,196.25 660.31,183.39 695.38,170.36 730.46,149.13 765.54,134.02 800.62,120.99 835.69,105.23 870.77,92.04 905.85,79.98 940.92,66.80 976.00,52.00"/>
  <circle class="dot" cx="976.00" cy="52.00" r="4.5"/>
  
  <text class="axis" x="64.00" y="336" text-anchor="start">2026-03-10</text>
  <text class="axis" x="239.38" y="336" text-anchor="middle">2026-03-15</text>
  <text class="axis" x="414.77" y="336" text-anchor="middle">2026-03-20</text>
  <text class="axis" x="590.15" y="336" text-anchor="middle">2026-03-25</text>
  <text class="axis" x="765.54" y="336" text-anchor="middle">2026-03-30</text>
  <text class="axis" x="940.92" y="336" text-anchor="middle">2026-04-04</text>
  <text class="axis" x="976.00" y="336" text-anchor="end">2026-04-05</text>
  <text class="latest" x="976" y="34" text-anchor="end">Latest month: 1,567</text>
</svg>
