<?xml version="1.0" encoding="UTF-8"?>
<svg xmlns="http://www.w3.org/2000/svg" viewBox="0 0 1000 360" role="img" aria-label="hordesmod/kek-ui release downloads chart">
  <defs>
    <linearGradient id="fill-monthly-slate" x1="0" y1="0" x2="0" y2="1">
      <stop offset="0%" stop-color="#60a5fa" stop-opacity="0.32"/>
      <stop offset="100%" stop-color="#60a5fa" stop-opacity="0.05"/>
    </linearGradient>
    <style>
      .bg { fill: #0f172a; }
      .title { font: 700 24px Arial, sans-serif; fill: #e2e8f0; }
      .sub { font: 400 13px Arial, sans-serif; fill: #94a3b8; }
      .grid { stroke: #1e293b; stroke-width: 1; }
      .axis { font: 400 12px Arial, sans-serif; fill: #94a3b8; }
      .line { fill: none; stroke: #60a5fa; stroke-width: 3; stroke-linecap: round; stroke-linejoin: round; }
      .dot { fill: #60a5fa; }
      .value { font: 600 11px Arial, sans-serif; fill: #cbd5e1; }
      .latest { font: 700 14px Arial, sans-serif; fill: #e2e8f0; }
    </style>
  </defs>
  <rect class="bg" x="0" y="0" width="1000" height="360" rx="16" />
  <text class="title" x="64" y="34">hordesmod/kek-ui release downloads</text>
  <text class="sub" x="64" y="352">Generated 2026-04-23</text>
  <line x1="64" y1="52.00" x2="976" y2="52.00" class="grid"/>
  <text x="56" y="56.00" text-anchor="end" class="axis">2,527</text>
  <line x1="64" y1="94.00" x2="976" y2="94.00" class="grid"/>
  <text x="56" y="98.00" text-anchor="end" class="axis">2,106</text>
  <line x1="64" y1="136.00" x2="976" y2="136.00" class="grid"/>
  <text x="56" y="140.00" text-anchor="end" class="axis">1,685</text>
  <line x1="64" y1="178.00" x2="976" y2="178.00" class="grid"/>
  <text x="56" y="182.00" text-anchor="end" class="axis">1,264</text>
  <line x1="64" y1="220.00" x2="976" y2="220.00" class="grid"/>
  <text x="56" y="224.00" text-anchor="end" class="axis">842</text>
  <line x1="64" y1="262.00" x2="976" y2="262.00" class="grid"/>
  <text x="56" y="266.00" text-anchor="end" class="axis">421</text>
  <line x1="64" y1="304.00" x2="976" y2="304.00" class="grid"/>
  <text x="56" y="308.00" text-anchor="end" class="axis">0</text>
  <path d="M 64.00 304 L 64.00 304.00 L 84.73 297.12 L 105.45 289.64 L 126.18 283.26 L 146.91 280.07 L 167.64 276.98 L 188.36 273.58 L 209.09 270.09 L 229.82 265.91 L 250.55 262.91 L 271.27 260.22 L 292.00 257.43 L 312.73 253.94 L 333.45 249.55 L 354.18 246.96 L 374.91 243.67 L 395.64 237.19 L 416.36 229.21 L 437.09 221.13 L 457.82 207.97 L 478.55 198.59 L 499.27 190.52 L 520.00 180.74 L 540.73 172.57 L 561.45 165.09 L 582.18 156.91 L 602.91 147.73 L 623.64 137.96 L 644.36 130.18 L 665.09 122.30 L 685.82 113.63 L 706.55 112.23 L 727.27 110.74 L 748.00 107.84 L 768.73 102.46 L 789.45 97.87 L 810.18 92.29 L 830.91 87.80 L 851.64 83.71 L 872.36 77.93 L 893.09 71.45 L 913.82 65.46 L 934.55 60.78 L 955.27 57.68 L 976.00 52.00 L 976.00 304 Z" fill="url(#fill-monthly-slate)"/>
  <polyline class="line" points="64.00,304.00 84.73,297.12 105.45,289.64 126.18,283.26 146.91,280.07 167.64,276.98 188.36,273.58 209.09,270.09 229.82,265.91 250.55,262.91 271.27,260.22 292.00,257.43 312.73,253.94 333.45,249.55 354.18,246.96 374.91,243.67 395.64,237.19 416.36,229.21 437.09,221.13 457.82,207.97 478.55,198.59 499.27,190.52 520.00,180.74 540.73,172.57 561.45,165.09 582.18,156.91 602.91,147.73 623.64,137.96 644.36,130.18 665.09,122.30 685.82,113.63 706.55,112.23 727.27,110.74 748.00,107.84 768.73,102.46 789.45,97.87 810.18,92.29 830.91,87.80 851.64,83.71 872.36,77.93 893.09,71.45 913.82,65.46 934.55,60.78 955.27,57.68 976.00,52.00"/>
  <circle class="dot" cx="976.00" cy="52.00" r="4.5"/>
  
  <text class="axis" x="64.00" y="336" text-anchor="start">2026-03-10</text>
  <text class="axis" x="229.82" y="336" text-anchor="middle">2026-03-18</text>
  <text class="axis" x="395.64" y="336" text-anchor="middle">2026-03-26</text>
  <text class="axis" x="561.45" y="336" text-anchor="middle">2026-04-03</text>
  <text class="axis" x="727.27" y="336" text-anchor="middle">2026-04-11</text>
  <text class="axis" x="893.09" y="336" text-anchor="middle">2026-04-19</text>
  <text class="axis" x="976.00" y="336" text-anchor="end">2026-04-23</text>
  <text class="latest" x="976" y="34" text-anchor="end">Latest month: 2,527</text>
</svg>
