<?xml version="1.0" encoding="UTF-8"?>
<svg xmlns="http://www.w3.org/2000/svg" viewBox="0 0 1000 360" role="img" aria-label="hordesmod/kek-ui release downloads chart">
  <defs>
    <linearGradient id="fill-monthly-orange" x1="0" y1="0" x2="0" y2="1">
      <stop offset="0%" stop-color="#f97316" stop-opacity="0.32"/>
      <stop offset="100%" stop-color="#f97316" stop-opacity="0.05"/>
    </linearGradient>
    <style>
      .bg { fill: #fff7ed; }
      .title { font: 700 24px Arial, sans-serif; fill: #7c2d12; }
      .sub { font: 400 13px Arial, sans-serif; fill: #9a3412; }
      .grid { stroke: #fed7aa; stroke-width: 1; }
      .axis { font: 400 12px Arial, sans-serif; fill: #c2410c; }
      .line { fill: none; stroke: #ea580c; stroke-width: 3; stroke-linecap: round; stroke-linejoin: round; }
      .dot { fill: #ea580c; }
      .value { font: 600 11px Arial, sans-serif; fill: #9a3412; }
      .latest { font: 700 14px Arial, sans-serif; fill: #7c2d12; }
    </style>
  </defs>
  <rect class="bg" x="0" y="0" width="1000" height="360" rx="16" />
  <text class="title" x="64" y="34">hordesmod/kek-ui release downloads</text>
  <text class="sub" x="64" y="352">Generated 2026-05-10</text>
  <line x1="64" y1="52.00" x2="976" y2="52.00" class="grid"/>
  <text x="56" y="56.00" text-anchor="end" class="axis">2,604</text>
  <line x1="64" y1="94.00" x2="976" y2="94.00" class="grid"/>
  <text x="56" y="98.00" text-anchor="end" class="axis">2,170</text>
  <line x1="64" y1="136.00" x2="976" y2="136.00" class="grid"/>
  <text x="56" y="140.00" text-anchor="end" class="axis">1,736</text>
  <line x1="64" y1="178.00" x2="976" y2="178.00" class="grid"/>
  <text x="56" y="182.00" text-anchor="end" class="axis">1,302</text>
  <line x1="64" y1="220.00" x2="976" y2="220.00" class="grid"/>
  <text x="56" y="224.00" text-anchor="end" class="axis">868</text>
  <line x1="64" y1="262.00" x2="976" y2="262.00" class="grid"/>
  <text x="56" y="266.00" text-anchor="end" class="axis">434</text>
  <line x1="64" y1="304.00" x2="976" y2="304.00" class="grid"/>
  <text x="56" y="308.00" text-anchor="end" class="axis">0</text>
  <path d="M 64.00 304 L 64.00 304.00 L 78.95 297.32 L 93.90 290.06 L 108.85 283.87 L 123.80 280.77 L 138.75 277.77 L 153.70 274.48 L 168.66 271.10 L 183.61 267.03 L 198.56 264.13 L 213.51 261.52 L 228.46 258.81 L 243.41 255.42 L 258.36 251.16 L 273.31 248.65 L 288.26 245.45 L 303.21 239.16 L 318.16 231.42 L 333.11 223.58 L 348.07 210.81 L 363.02 201.71 L 377.97 193.87 L 392.92 184.39 L 407.87 176.45 L 422.82 169.19 L 437.77 161.26 L 452.72 152.35 L 467.67 142.87 L 482.62 135.32 L 497.57 127.68 L 512.52 119.26 L 527.48 117.90 L 542.43 116.45 L 557.38 113.65 L 572.33 108.42 L 587.28 103.97 L 602.23 98.55 L 617.18 94.19 L 632.13 90.23 L 647.08 84.61 L 662.03 78.32 L 676.98 72.52 L 691.93 67.97 L 706.89 64.97 L 721.84 59.45 L 736.79 54.71 L 751.74 52.39 L 766.69 52.39 L 781.64 52.00 L 796.59 56.74 L 811.54 57.52 L 826.49 57.71 L 841.44 59.16 L 856.39 59.65 L 871.34 57.71 L 886.30 57.03 L 901.25 56.65 L 916.20 56.74 L 931.15 56.74 L 946.10 57.23 L 961.05 56.94 L 976.00 57.23 L 976.00 304 Z" fill="url(#fill-monthly-orange)"/>
  <polyline class="line" points="64.00,304.00 78.95,297.32 93.90,290.06 108.85,283.87 123.80,280.77 138.75,277.77 153.70,274.48 168.66,271.10 183.61,267.03 198.56,264.13 213.51,261.52 228.46,258.81 243.41,255.42 258.36,251.16 273.31,248.65 288.26,245.45 303.21,239.16 318.16,231.42 333.11,223.58 348.07,210.81 363.02,201.71 377.97,193.87 392.92,184.39 407.87,176.45 422.82,169.19 437.77,161.26 452.72,152.35 467.67,142.87 482.62,135.32 497.57,127.68 512.52,119.26 527.48,117.90 542.43,116.45 557.38,113.65 572.33,108.42 587.28,103.97 602.23,98.55 617.18,94.19 632.13,90.23 647.08,84.61 662.03,78.32 676.98,72.52 691.93,67.97 706.89,64.97 721.84,59.45 736.79,54.71 751.74,52.39 766.69,52.39 781.64,52.00 796.59,56.74 811.54,57.52 826.49,57.71 841.44,59.16 856.39,59.65 871.34,57.71 886.30,57.03 901.25,56.65 916.20,56.74 931.15,56.74 946.10,57.23 961.05,56.94 976.00,57.23"/>
  <circle class="dot" cx="976.00" cy="57.23" r="4.5"/>
  
  <text class="axis" x="64.00" y="336" text-anchor="start">2026-03-10</text>
  <text class="axis" x="243.41" y="336" text-anchor="middle">2026-03-22</text>
  <text class="axis" x="422.82" y="336" text-anchor="middle">2026-04-03</text>
  <text class="axis" x="602.23" y="336" text-anchor="middle">2026-04-15</text>
  <text class="axis" x="781.64" y="336" text-anchor="middle">2026-04-27</text>
  <text class="axis" x="961.05" y="336" text-anchor="middle">2026-05-09</text>
  <text class="axis" x="976.00" y="336" text-anchor="end">2026-05-10</text>
  <text class="latest" x="976" y="34" text-anchor="end">Latest month: 2,550</text>
</svg>
