<?xml version="1.0" encoding="UTF-8"?>
<svg xmlns="http://www.w3.org/2000/svg" viewBox="0 0 1000 360" role="img" aria-label="hordesmod/kek-ui release downloads chart">
  <defs>
    <linearGradient id="fill-monthly-slate" x1="0" y1="0" x2="0" y2="1">
      <stop offset="0%" stop-color="#60a5fa" stop-opacity="0.32"/>
      <stop offset="100%" stop-color="#60a5fa" stop-opacity="0.05"/>
    </linearGradient>
    <style>
      .bg { fill: #0f172a; }
      .title { font: 700 24px Arial, sans-serif; fill: #e2e8f0; }
      .sub { font: 400 13px Arial, sans-serif; fill: #94a3b8; }
      .grid { stroke: #1e293b; stroke-width: 1; }
      .axis { font: 400 12px Arial, sans-serif; fill: #94a3b8; }
      .line { fill: none; stroke: #60a5fa; stroke-width: 3; stroke-linecap: round; stroke-linejoin: round; }
      .dot { fill: #60a5fa; }
      .value { font: 600 11px Arial, sans-serif; fill: #cbd5e1; }
      .latest { font: 700 14px Arial, sans-serif; fill: #e2e8f0; }
    </style>
  </defs>
  <rect class="bg" x="0" y="0" width="1000" height="360" rx="16" />
  <text class="title" x="64" y="34">hordesmod/kek-ui release downloads</text>
  <text class="sub" x="64" y="352">Generated 2026-04-14</text>
  <line x1="64" y1="52.00" x2="976" y2="52.00" class="grid"/>
  <text x="56" y="56.00" text-anchor="end" class="axis">2,067</text>
  <line x1="64" y1="94.00" x2="976" y2="94.00" class="grid"/>
  <text x="56" y="98.00" text-anchor="end" class="axis">1,723</text>
  <line x1="64" y1="136.00" x2="976" y2="136.00" class="grid"/>
  <text x="56" y="140.00" text-anchor="end" class="axis">1,378</text>
  <line x1="64" y1="178.00" x2="976" y2="178.00" class="grid"/>
  <text x="56" y="182.00" text-anchor="end" class="axis">1,034</text>
  <line x1="64" y1="220.00" x2="976" y2="220.00" class="grid"/>
  <text x="56" y="224.00" text-anchor="end" class="axis">689</text>
  <line x1="64" y1="262.00" x2="976" y2="262.00" class="grid"/>
  <text x="56" y="266.00" text-anchor="end" class="axis">345</text>
  <line x1="64" y1="304.00" x2="976" y2="304.00" class="grid"/>
  <text x="56" y="308.00" text-anchor="end" class="axis">0</text>
  <path d="M 64.00 304 L 64.00 304.00 L 90.06 295.59 L 116.11 286.44 L 142.17 278.64 L 168.23 274.74 L 194.29 270.96 L 220.34 266.82 L 246.40 262.55 L 272.46 257.43 L 298.51 253.77 L 324.57 250.48 L 350.63 247.07 L 376.69 242.80 L 402.74 237.43 L 428.80 234.26 L 454.86 230.24 L 480.91 222.32 L 506.97 212.56 L 533.03 202.69 L 559.09 186.60 L 585.14 175.13 L 611.20 165.26 L 637.26 153.31 L 663.31 143.31 L 689.37 134.17 L 715.43 124.17 L 741.49 112.96 L 767.54 101.01 L 793.60 91.50 L 819.66 81.87 L 845.71 71.26 L 871.77 69.56 L 897.83 67.73 L 923.89 64.19 L 949.94 57.61 L 976.00 52.00 L 976.00 304 Z" fill="url(#fill-monthly-slate)"/>
  <polyline class="line" points="64.00,304.00 90.06,295.59 116.11,286.44 142.17,278.64 168.23,274.74 194.29,270.96 220.34,266.82 246.40,262.55 272.46,257.43 298.51,253.77 324.57,250.48 350.63,247.07 376.69,242.80 402.74,237.43 428.80,234.26 454.86,230.24 480.91,222.32 506.97,212.56 533.03,202.69 559.09,186.60 585.14,175.13 611.20,165.26 637.26,153.31 663.31,143.31 689.37,134.17 715.43,124.17 741.49,112.96 767.54,101.01 793.60,91.50 819.66,81.87 845.71,71.26 871.77,69.56 897.83,67.73 923.89,64.19 949.94,57.61 976.00,52.00"/>
  <circle class="dot" cx="976.00" cy="52.00" r="4.5"/>
  
  <text class="axis" x="64.00" y="336" text-anchor="start">2026-03-10</text>
  <text class="axis" x="246.40" y="336" text-anchor="middle">2026-03-17</text>
  <text class="axis" x="428.80" y="336" text-anchor="middle">2026-03-24</text>
  <text class="axis" x="611.20" y="336" text-anchor="middle">2026-03-31</text>
  <text class="axis" x="793.60" y="336" text-anchor="middle">2026-04-07</text>
  <text class="axis" x="976.00" y="336" text-anchor="end">2026-04-14</text>
  <text class="latest" x="976" y="34" text-anchor="end">Latest month: 2,067</text>
</svg>
