<?xml version="1.0" encoding="UTF-8"?>
<svg xmlns="http://www.w3.org/2000/svg" viewBox="0 0 1000 360" role="img" aria-label="hordesmod/kek-ui release downloads chart">
  <defs>
    <linearGradient id="fill-monthly-slate" x1="0" y1="0" x2="0" y2="1">
      <stop offset="0%" stop-color="#60a5fa" stop-opacity="0.32"/>
      <stop offset="100%" stop-color="#60a5fa" stop-opacity="0.05"/>
    </linearGradient>
    <style>
      .bg { fill: #0f172a; }
      .title { font: 700 24px Arial, sans-serif; fill: #e2e8f0; }
      .sub { font: 400 13px Arial, sans-serif; fill: #94a3b8; }
      .grid { stroke: #1e293b; stroke-width: 1; }
      .axis { font: 400 12px Arial, sans-serif; fill: #94a3b8; }
      .line { fill: none; stroke: #60a5fa; stroke-width: 3; stroke-linecap: round; stroke-linejoin: round; }
      .dot { fill: #60a5fa; }
      .value { font: 600 11px Arial, sans-serif; fill: #cbd5e1; }
      .latest { font: 700 14px Arial, sans-serif; fill: #e2e8f0; }
    </style>
  </defs>
  <rect class="bg" x="0" y="0" width="1000" height="360" rx="16" />
  <text class="title" x="64" y="34">hordesmod/kek-ui release downloads</text>
  <text class="sub" x="64" y="352">Generated 2026-04-09</text>
  <line x1="64" y1="52.00" x2="976" y2="52.00" class="grid"/>
  <text x="56" y="56.00" text-anchor="end" class="axis">1,909</text>
  <line x1="64" y1="94.00" x2="976" y2="94.00" class="grid"/>
  <text x="56" y="98.00" text-anchor="end" class="axis">1,591</text>
  <line x1="64" y1="136.00" x2="976" y2="136.00" class="grid"/>
  <text x="56" y="140.00" text-anchor="end" class="axis">1,273</text>
  <line x1="64" y1="178.00" x2="976" y2="178.00" class="grid"/>
  <text x="56" y="182.00" text-anchor="end" class="axis">955</text>
  <line x1="64" y1="220.00" x2="976" y2="220.00" class="grid"/>
  <text x="56" y="224.00" text-anchor="end" class="axis">636</text>
  <line x1="64" y1="262.00" x2="976" y2="262.00" class="grid"/>
  <text x="56" y="266.00" text-anchor="end" class="axis">318</text>
  <line x1="64" y1="304.00" x2="976" y2="304.00" class="grid"/>
  <text x="56" y="308.00" text-anchor="end" class="axis">0</text>
  <path d="M 64.00 304 L 64.00 304.00 L 94.40 294.89 L 124.80 284.99 L 155.20 276.54 L 185.60 272.32 L 216.00 268.23 L 246.40 263.74 L 276.80 259.12 L 307.20 253.57 L 337.60 249.61 L 368.00 246.05 L 398.40 242.35 L 428.80 237.73 L 459.20 231.92 L 489.60 228.49 L 520.00 224.14 L 550.40 215.56 L 580.80 205.00 L 611.20 194.30 L 641.60 176.88 L 672.00 164.47 L 702.40 153.78 L 732.80 140.84 L 763.20 130.02 L 793.60 120.12 L 824.00 109.29 L 854.40 97.15 L 884.80 84.21 L 915.20 73.91 L 945.60 63.48 L 976.00 52.00 L 976.00 304 Z" fill="url(#fill-monthly-slate)"/>
  <polyline class="line" points="64.00,304.00 94.40,294.89 124.80,284.99 155.20,276.54 185.60,272.32 216.00,268.23 246.40,263.74 276.80,259.12 307.20,253.57 337.60,249.61 368.00,246.05 398.40,242.35 428.80,237.73 459.20,231.92 489.60,228.49 520.00,224.14 550.40,215.56 580.80,205.00 611.20,194.30 641.60,176.88 672.00,164.47 702.40,153.78 732.80,140.84 763.20,130.02 793.60,120.12 824.00,109.29 854.40,97.15 884.80,84.21 915.20,73.91 945.60,63.48 976.00,52.00"/>
  <circle class="dot" cx="976.00" cy="52.00" r="4.5"/>
  
  <text class="axis" x="64.00" y="336" text-anchor="start">2026-03-10</text>
  <text class="axis" x="246.40" y="336" text-anchor="middle">2026-03-16</text>
  <text class="axis" x="428.80" y="336" text-anchor="middle">2026-03-22</text>
  <text class="axis" x="611.20" y="336" text-anchor="middle">2026-03-28</text>
  <text class="axis" x="793.60" y="336" text-anchor="middle">2026-04-03</text>
  <text class="axis" x="976.00" y="336" text-anchor="end">2026-04-09</text>
  <text class="latest" x="976" y="34" text-anchor="end">Latest month: 1,909</text>
</svg>
