<?xml version="1.0" encoding="UTF-8"?>
<svg xmlns="http://www.w3.org/2000/svg" viewBox="0 0 1000 360" role="img" aria-label="hordesmod/kek-ui release downloads chart">
  <defs>
    <linearGradient id="fill-monthly-black" x1="0" y1="0" x2="0" y2="1">
      <stop offset="0%" stop-color="#22d3ee" stop-opacity="0.32"/>
      <stop offset="100%" stop-color="#22d3ee" stop-opacity="0.05"/>
    </linearGradient>
    <style>
      .bg { fill: #0b0b0d; }
      .title { font: 700 24px Arial, sans-serif; fill: #f8fafc; }
      .sub { font: 400 13px Arial, sans-serif; fill: #cbd5e1; }
      .grid { stroke: #1f2937; stroke-width: 1; }
      .axis { font: 400 12px Arial, sans-serif; fill: #94a3b8; }
      .line { fill: none; stroke: #22d3ee; stroke-width: 3; stroke-linecap: round; stroke-linejoin: round; }
      .dot { fill: #22d3ee; }
      .value { font: 600 11px Arial, sans-serif; fill: #cbd5e1; }
      .latest { font: 700 14px Arial, sans-serif; fill: #f8fafc; }
    </style>
  </defs>
  <rect class="bg" x="0" y="0" width="1000" height="360" rx="16" />
  <text class="title" x="64" y="34">hordesmod/kek-ui release downloads</text>
  <text class="sub" x="64" y="352">Generated 2026-05-19</text>
  <line x1="64" y1="52.00" x2="976" y2="52.00" class="grid"/>
  <text x="56" y="56.00" text-anchor="end" class="axis">2,604</text>
  <line x1="64" y1="94.00" x2="976" y2="94.00" class="grid"/>
  <text x="56" y="98.00" text-anchor="end" class="axis">2,170</text>
  <line x1="64" y1="136.00" x2="976" y2="136.00" class="grid"/>
  <text x="56" y="140.00" text-anchor="end" class="axis">1,736</text>
  <line x1="64" y1="178.00" x2="976" y2="178.00" class="grid"/>
  <text x="56" y="182.00" text-anchor="end" class="axis">1,302</text>
  <line x1="64" y1="220.00" x2="976" y2="220.00" class="grid"/>
  <text x="56" y="224.00" text-anchor="end" class="axis">868</text>
  <line x1="64" y1="262.00" x2="976" y2="262.00" class="grid"/>
  <text x="56" y="266.00" text-anchor="end" class="axis">434</text>
  <line x1="64" y1="304.00" x2="976" y2="304.00" class="grid"/>
  <text x="56" y="308.00" text-anchor="end" class="axis">0</text>
  <path d="M 64.00 304 L 64.00 304.00 L 77.03 297.32 L 90.06 290.06 L 103.09 283.87 L 116.11 280.77 L 129.14 277.77 L 142.17 274.48 L 155.20 271.10 L 168.23 267.03 L 181.26 264.13 L 194.29 261.52 L 207.31 258.81 L 220.34 255.42 L 233.37 251.16 L 246.40 248.65 L 259.43 245.45 L 272.46 239.16 L 285.49 231.42 L 298.51 223.58 L 311.54 210.81 L 324.57 201.71 L 337.60 193.87 L 350.63 184.39 L 363.66 176.45 L 376.69 169.19 L 389.71 161.26 L 402.74 152.35 L 415.77 142.87 L 428.80 135.32 L 441.83 127.68 L 454.86 119.26 L 467.89 117.90 L 480.91 116.45 L 493.94 113.65 L 506.97 108.42 L 520.00 103.97 L 533.03 98.55 L 546.06 94.19 L 559.09 90.23 L 572.11 84.61 L 585.14 78.32 L 598.17 72.52 L 611.20 67.97 L 624.23 64.97 L 637.26 59.45 L 650.29 54.71 L 663.31 52.39 L 676.34 52.39 L 689.37 52.00 L 702.40 56.74 L 715.43 57.52 L 728.46 57.71 L 741.49 59.16 L 754.51 59.65 L 767.54 57.71 L 780.57 57.03 L 793.60 56.65 L 806.63 56.74 L 819.66 56.74 L 832.69 57.23 L 845.71 56.94 L 858.74 57.23 L 871.77 57.71 L 884.80 58.29 L 897.83 59.06 L 910.86 58.68 L 923.89 60.52 L 936.91 59.74 L 949.94 59.26 L 962.97 59.35 L 976.00 60.52 L 976.00 304 Z" fill="url(#fill-monthly-black)"/>
  <polyline class="line" points="64.00,304.00 77.03,297.32 90.06,290.06 103.09,283.87 116.11,280.77 129.14,277.77 142.17,274.48 155.20,271.10 168.23,267.03 181.26,264.13 194.29,261.52 207.31,258.81 220.34,255.42 233.37,251.16 246.40,248.65 259.43,245.45 272.46,239.16 285.49,231.42 298.51,223.58 311.54,210.81 324.57,201.71 337.60,193.87 350.63,184.39 363.66,176.45 376.69,169.19 389.71,161.26 402.74,152.35 415.77,142.87 428.80,135.32 441.83,127.68 454.86,119.26 467.89,117.90 480.91,116.45 493.94,113.65 506.97,108.42 520.00,103.97 533.03,98.55 546.06,94.19 559.09,90.23 572.11,84.61 585.14,78.32 598.17,72.52 611.20,67.97 624.23,64.97 637.26,59.45 650.29,54.71 663.31,52.39 676.34,52.39 689.37,52.00 702.40,56.74 715.43,57.52 728.46,57.71 741.49,59.16 754.51,59.65 767.54,57.71 780.57,57.03 793.60,56.65 806.63,56.74 819.66,56.74 832.69,57.23 845.71,56.94 858.74,57.23 871.77,57.71 884.80,58.29 897.83,59.06 910.86,58.68 923.89,60.52 936.91,59.74 949.94,59.26 962.97,59.35 976.00,60.52"/>
  <circle class="dot" cx="976.00" cy="60.52" r="4.5"/>
  
  <text class="axis" x="64.00" y="336" text-anchor="start">2026-03-10</text>
  <text class="axis" x="246.40" y="336" text-anchor="middle">2026-03-24</text>
  <text class="axis" x="428.80" y="336" text-anchor="middle">2026-04-07</text>
  <text class="axis" x="611.20" y="336" text-anchor="middle">2026-04-21</text>
  <text class="axis" x="793.60" y="336" text-anchor="middle">2026-05-05</text>
  <text class="axis" x="976.00" y="336" text-anchor="end">2026-05-19</text>
  <text class="latest" x="976" y="34" text-anchor="end">Latest month: 2,516</text>
</svg>
