<?xml version="1.0" encoding="UTF-8"?>
<svg xmlns="http://www.w3.org/2000/svg" viewBox="0 0 1000 360" role="img" aria-label="hordesmod/kek-ui release downloads chart">
  <defs>
    <linearGradient id="fill-monthly-black" x1="0" y1="0" x2="0" y2="1">
      <stop offset="0%" stop-color="#22d3ee" stop-opacity="0.32"/>
      <stop offset="100%" stop-color="#22d3ee" stop-opacity="0.05"/>
    </linearGradient>
    <style>
      .bg { fill: #0b0b0d; }
      .title { font: 700 24px Arial, sans-serif; fill: #f8fafc; }
      .sub { font: 400 13px Arial, sans-serif; fill: #cbd5e1; }
      .grid { stroke: #1f2937; stroke-width: 1; }
      .axis { font: 400 12px Arial, sans-serif; fill: #94a3b8; }
      .line { fill: none; stroke: #22d3ee; stroke-width: 3; stroke-linecap: round; stroke-linejoin: round; }
      .dot { fill: #22d3ee; }
      .value { font: 600 11px Arial, sans-serif; fill: #cbd5e1; }
      .latest { font: 700 14px Arial, sans-serif; fill: #f8fafc; }
    </style>
  </defs>
  <rect class="bg" x="0" y="0" width="1000" height="360" rx="16" />
  <text class="title" x="64" y="34">hordesmod/kek-ui release downloads</text>
  <text class="sub" x="64" y="352">Generated 2026-04-06</text>
  <line x1="64" y1="52.00" x2="976" y2="52.00" class="grid"/>
  <text x="56" y="56.00" text-anchor="end" class="axis">1,665</text>
  <line x1="64" y1="94.00" x2="976" y2="94.00" class="grid"/>
  <text x="56" y="98.00" text-anchor="end" class="axis">1,388</text>
  <line x1="64" y1="136.00" x2="976" y2="136.00" class="grid"/>
  <text x="56" y="140.00" text-anchor="end" class="axis">1,110</text>
  <line x1="64" y1="178.00" x2="976" y2="178.00" class="grid"/>
  <text x="56" y="182.00" text-anchor="end" class="axis">833</text>
  <line x1="64" y1="220.00" x2="976" y2="220.00" class="grid"/>
  <text x="56" y="224.00" text-anchor="end" class="axis">555</text>
  <line x1="64" y1="262.00" x2="976" y2="262.00" class="grid"/>
  <text x="56" y="266.00" text-anchor="end" class="axis">278</text>
  <line x1="64" y1="304.00" x2="976" y2="304.00" class="grid"/>
  <text x="56" y="308.00" text-anchor="end" class="axis">0</text>
  <path d="M 64.00 304 L 64.00 304.00 L 97.78 293.56 L 131.56 282.21 L 165.33 272.52 L 199.11 267.68 L 232.89 262.98 L 266.67 257.84 L 300.44 252.54 L 334.22 246.18 L 368.00 241.64 L 401.78 237.56 L 435.56 233.32 L 469.33 228.02 L 503.11 221.36 L 536.89 217.43 L 570.67 212.43 L 604.44 202.59 L 638.22 190.49 L 672.00 178.23 L 705.78 158.25 L 739.56 144.02 L 773.33 131.76 L 807.11 116.93 L 840.89 104.52 L 874.67 93.17 L 908.44 80.76 L 942.22 66.83 L 976.00 52.00 L 976.00 304 Z" fill="url(#fill-monthly-black)"/>
  <polyline class="line" points="64.00,304.00 97.78,293.56 131.56,282.21 165.33,272.52 199.11,267.68 232.89,262.98 266.67,257.84 300.44,252.54 334.22,246.18 368.00,241.64 401.78,237.56 435.56,233.32 469.33,228.02 503.11,221.36 536.89,217.43 570.67,212.43 604.44,202.59 638.22,190.49 672.00,178.23 705.78,158.25 739.56,144.02 773.33,131.76 807.11,116.93 840.89,104.52 874.67,93.17 908.44,80.76 942.22,66.83 976.00,52.00"/>
  <circle class="dot" cx="976.00" cy="52.00" r="4.5"/>
  
  <text class="axis" x="64.00" y="336" text-anchor="start">2026-03-10</text>
  <text class="axis" x="232.89" y="336" text-anchor="middle">2026-03-15</text>
  <text class="axis" x="401.78" y="336" text-anchor="middle">2026-03-20</text>
  <text class="axis" x="570.67" y="336" text-anchor="middle">2026-03-25</text>
  <text class="axis" x="739.56" y="336" text-anchor="middle">2026-03-30</text>
  <text class="axis" x="908.44" y="336" text-anchor="middle">2026-04-04</text>
  <text class="axis" x="976.00" y="336" text-anchor="end">2026-04-06</text>
  <text class="latest" x="976" y="34" text-anchor="end">Latest month: 1,665</text>
</svg>
