<?xml version="1.0" encoding="UTF-8"?>
<svg xmlns="http://www.w3.org/2000/svg" viewBox="0 0 1000 360" role="img" aria-label="hordesmod/kek-ui release downloads chart">
  <defs>
    <linearGradient id="fill-monthly-orange" x1="0" y1="0" x2="0" y2="1">
      <stop offset="0%" stop-color="#f97316" stop-opacity="0.32"/>
      <stop offset="100%" stop-color="#f97316" stop-opacity="0.05"/>
    </linearGradient>
    <style>
      .bg { fill: #fff7ed; }
      .title { font: 700 24px Arial, sans-serif; fill: #7c2d12; }
      .sub { font: 400 13px Arial, sans-serif; fill: #9a3412; }
      .grid { stroke: #fed7aa; stroke-width: 1; }
      .axis { font: 400 12px Arial, sans-serif; fill: #c2410c; }
      .line { fill: none; stroke: #ea580c; stroke-width: 3; stroke-linecap: round; stroke-linejoin: round; }
      .dot { fill: #ea580c; }
      .value { font: 600 11px Arial, sans-serif; fill: #9a3412; }
      .latest { font: 700 14px Arial, sans-serif; fill: #7c2d12; }
    </style>
  </defs>
  <rect class="bg" x="0" y="0" width="1000" height="360" rx="16" />
  <text class="title" x="64" y="34">hordesmod/kek-ui release downloads</text>
  <text class="sub" x="64" y="352">Generated 2026-05-06</text>
  <line x1="64" y1="52.00" x2="976" y2="52.00" class="grid"/>
  <text x="56" y="56.00" text-anchor="end" class="axis">2,604</text>
  <line x1="64" y1="94.00" x2="976" y2="94.00" class="grid"/>
  <text x="56" y="98.00" text-anchor="end" class="axis">2,170</text>
  <line x1="64" y1="136.00" x2="976" y2="136.00" class="grid"/>
  <text x="56" y="140.00" text-anchor="end" class="axis">1,736</text>
  <line x1="64" y1="178.00" x2="976" y2="178.00" class="grid"/>
  <text x="56" y="182.00" text-anchor="end" class="axis">1,302</text>
  <line x1="64" y1="220.00" x2="976" y2="220.00" class="grid"/>
  <text x="56" y="224.00" text-anchor="end" class="axis">868</text>
  <line x1="64" y1="262.00" x2="976" y2="262.00" class="grid"/>
  <text x="56" y="266.00" text-anchor="end" class="axis">434</text>
  <line x1="64" y1="304.00" x2="976" y2="304.00" class="grid"/>
  <text x="56" y="308.00" text-anchor="end" class="axis">0</text>
  <path d="M 64.00 304 L 64.00 304.00 L 80.00 297.32 L 96.00 290.06 L 112.00 283.87 L 128.00 280.77 L 144.00 277.77 L 160.00 274.48 L 176.00 271.10 L 192.00 267.03 L 208.00 264.13 L 224.00 261.52 L 240.00 258.81 L 256.00 255.42 L 272.00 251.16 L 288.00 248.65 L 304.00 245.45 L 320.00 239.16 L 336.00 231.42 L 352.00 223.58 L 368.00 210.81 L 384.00 201.71 L 400.00 193.87 L 416.00 184.39 L 432.00 176.45 L 448.00 169.19 L 464.00 161.26 L 480.00 152.35 L 496.00 142.87 L 512.00 135.32 L 528.00 127.68 L 544.00 119.26 L 560.00 117.90 L 576.00 116.45 L 592.00 113.65 L 608.00 108.42 L 624.00 103.97 L 640.00 98.55 L 656.00 94.19 L 672.00 90.23 L 688.00 84.61 L 704.00 78.32 L 720.00 72.52 L 736.00 67.97 L 752.00 64.97 L 768.00 59.45 L 784.00 54.71 L 800.00 52.39 L 816.00 52.39 L 832.00 52.00 L 848.00 56.74 L 864.00 57.52 L 880.00 57.71 L 896.00 59.16 L 912.00 59.65 L 928.00 57.71 L 944.00 57.03 L 960.00 56.65 L 976.00 56.74 L 976.00 304 Z" fill="url(#fill-monthly-orange)"/>
  <polyline class="line" points="64.00,304.00 80.00,297.32 96.00,290.06 112.00,283.87 128.00,280.77 144.00,277.77 160.00,274.48 176.00,271.10 192.00,267.03 208.00,264.13 224.00,261.52 240.00,258.81 256.00,255.42 272.00,251.16 288.00,248.65 304.00,245.45 320.00,239.16 336.00,231.42 352.00,223.58 368.00,210.81 384.00,201.71 400.00,193.87 416.00,184.39 432.00,176.45 448.00,169.19 464.00,161.26 480.00,152.35 496.00,142.87 512.00,135.32 528.00,127.68 544.00,119.26 560.00,117.90 576.00,116.45 592.00,113.65 608.00,108.42 624.00,103.97 640.00,98.55 656.00,94.19 672.00,90.23 688.00,84.61 704.00,78.32 720.00,72.52 736.00,67.97 752.00,64.97 768.00,59.45 784.00,54.71 800.00,52.39 816.00,52.39 832.00,52.00 848.00,56.74 864.00,57.52 880.00,57.71 896.00,59.16 912.00,59.65 928.00,57.71 944.00,57.03 960.00,56.65 976.00,56.74"/>
  <circle class="dot" cx="976.00" cy="56.74" r="4.5"/>
  
  <text class="axis" x="64.00" y="336" text-anchor="start">2026-03-10</text>
  <text class="axis" x="240.00" y="336" text-anchor="middle">2026-03-21</text>
  <text class="axis" x="416.00" y="336" text-anchor="middle">2026-04-01</text>
  <text class="axis" x="592.00" y="336" text-anchor="middle">2026-04-12</text>
  <text class="axis" x="768.00" y="336" text-anchor="middle">2026-04-23</text>
  <text class="axis" x="944.00" y="336" text-anchor="middle">2026-05-04</text>
  <text class="axis" x="976.00" y="336" text-anchor="end">2026-05-06</text>
  <text class="latest" x="976" y="34" text-anchor="end">Latest month: 2,555</text>
</svg>
