<?xml version="1.0" encoding="UTF-8"?>
<svg xmlns="http://www.w3.org/2000/svg" viewBox="0 0 1000 360" role="img" aria-label="hordesmod/kek-ui release downloads chart">
  <defs>
    <linearGradient id="fill-monthly-black" x1="0" y1="0" x2="0" y2="1">
      <stop offset="0%" stop-color="#22d3ee" stop-opacity="0.32"/>
      <stop offset="100%" stop-color="#22d3ee" stop-opacity="0.05"/>
    </linearGradient>
    <style>
      .bg { fill: #0b0b0d; }
      .title { font: 700 24px Arial, sans-serif; fill: #f8fafc; }
      .sub { font: 400 13px Arial, sans-serif; fill: #cbd5e1; }
      .grid { stroke: #1f2937; stroke-width: 1; }
      .axis { font: 400 12px Arial, sans-serif; fill: #94a3b8; }
      .line { fill: none; stroke: #22d3ee; stroke-width: 3; stroke-linecap: round; stroke-linejoin: round; }
      .dot { fill: #22d3ee; }
      .value { font: 600 11px Arial, sans-serif; fill: #cbd5e1; }
      .latest { font: 700 14px Arial, sans-serif; fill: #f8fafc; }
    </style>
  </defs>
  <rect class="bg" x="0" y="0" width="1000" height="360" rx="16" />
  <text class="title" x="64" y="34">hordesmod/kek-ui release downloads</text>
  <text class="sub" x="64" y="352">Generated 2026-04-26</text>
  <line x1="64" y1="52.00" x2="976" y2="52.00" class="grid"/>
  <text x="56" y="56.00" text-anchor="end" class="axis">2,600</text>
  <line x1="64" y1="94.00" x2="976" y2="94.00" class="grid"/>
  <text x="56" y="98.00" text-anchor="end" class="axis">2,167</text>
  <line x1="64" y1="136.00" x2="976" y2="136.00" class="grid"/>
  <text x="56" y="140.00" text-anchor="end" class="axis">1,733</text>
  <line x1="64" y1="178.00" x2="976" y2="178.00" class="grid"/>
  <text x="56" y="182.00" text-anchor="end" class="axis">1,300</text>
  <line x1="64" y1="220.00" x2="976" y2="220.00" class="grid"/>
  <text x="56" y="224.00" text-anchor="end" class="axis">867</text>
  <line x1="64" y1="262.00" x2="976" y2="262.00" class="grid"/>
  <text x="56" y="266.00" text-anchor="end" class="axis">433</text>
  <line x1="64" y1="304.00" x2="976" y2="304.00" class="grid"/>
  <text x="56" y="308.00" text-anchor="end" class="axis">0</text>
  <path d="M 64.00 304 L 64.00 304.00 L 83.40 297.31 L 102.81 290.04 L 122.21 283.84 L 141.62 280.74 L 161.02 277.73 L 180.43 274.44 L 199.83 271.05 L 219.23 266.98 L 238.64 264.07 L 258.04 261.45 L 277.45 258.74 L 296.85 255.34 L 316.26 251.08 L 335.66 248.56 L 355.06 245.36 L 374.47 239.06 L 393.87 231.31 L 413.28 223.46 L 432.68 210.66 L 452.09 201.55 L 471.49 193.70 L 490.89 184.20 L 510.30 176.26 L 529.70 168.99 L 549.11 161.04 L 568.51 152.12 L 587.91 142.62 L 607.32 135.06 L 626.72 127.41 L 646.13 118.97 L 665.53 117.62 L 684.94 116.16 L 704.34 113.35 L 723.74 108.12 L 743.15 103.66 L 762.55 98.23 L 781.96 93.87 L 801.36 89.90 L 820.77 84.28 L 840.17 77.98 L 859.57 72.16 L 878.98 67.60 L 898.38 64.60 L 917.79 59.08 L 937.19 54.33 L 956.60 52.00 L 976.00 52.00 L 976.00 304 Z" fill="url(#fill-monthly-black)"/>
  <polyline class="line" points="64.00,304.00 83.40,297.31 102.81,290.04 122.21,283.84 141.62,280.74 161.02,277.73 180.43,274.44 199.83,271.05 219.23,266.98 238.64,264.07 258.04,261.45 277.45,258.74 296.85,255.34 316.26,251.08 335.66,248.56 355.06,245.36 374.47,239.06 393.87,231.31 413.28,223.46 432.68,210.66 452.09,201.55 471.49,193.70 490.89,184.20 510.30,176.26 529.70,168.99 549.11,161.04 568.51,152.12 587.91,142.62 607.32,135.06 626.72,127.41 646.13,118.97 665.53,117.62 684.94,116.16 704.34,113.35 723.74,108.12 743.15,103.66 762.55,98.23 781.96,93.87 801.36,89.90 820.77,84.28 840.17,77.98 859.57,72.16 878.98,67.60 898.38,64.60 917.79,59.08 937.19,54.33 956.60,52.00 976.00,52.00"/>
  <circle class="dot" cx="976.00" cy="52.00" r="4.5"/>
  
  <text class="axis" x="64.00" y="336" text-anchor="start">2026-03-10</text>
  <text class="axis" x="238.64" y="336" text-anchor="middle">2026-03-19</text>
  <text class="axis" x="413.28" y="336" text-anchor="middle">2026-03-28</text>
  <text class="axis" x="587.91" y="336" text-anchor="middle">2026-04-06</text>
  <text class="axis" x="762.55" y="336" text-anchor="middle">2026-04-15</text>
  <text class="axis" x="937.19" y="336" text-anchor="middle">2026-04-24</text>
  <text class="axis" x="976.00" y="336" text-anchor="end">2026-04-26</text>
  <text class="latest" x="976" y="34" text-anchor="end">Latest month: 2,600</text>
</svg>
