<?xml version="1.0" encoding="UTF-8"?>
<svg xmlns="http://www.w3.org/2000/svg" viewBox="0 0 1000 360" role="img" aria-label="hordesmod/kek-ui release downloads chart">
  <defs>
    <linearGradient id="fill-monthly-orange" x1="0" y1="0" x2="0" y2="1">
      <stop offset="0%" stop-color="#f97316" stop-opacity="0.32"/>
      <stop offset="100%" stop-color="#f97316" stop-opacity="0.05"/>
    </linearGradient>
    <style>
      .bg { fill: #fff7ed; }
      .title { font: 700 24px Arial, sans-serif; fill: #7c2d12; }
      .sub { font: 400 13px Arial, sans-serif; fill: #9a3412; }
      .grid { stroke: #fed7aa; stroke-width: 1; }
      .axis { font: 400 12px Arial, sans-serif; fill: #c2410c; }
      .line { fill: none; stroke: #ea580c; stroke-width: 3; stroke-linecap: round; stroke-linejoin: round; }
      .dot { fill: #ea580c; }
      .value { font: 600 11px Arial, sans-serif; fill: #9a3412; }
      .latest { font: 700 14px Arial, sans-serif; fill: #7c2d12; }
    </style>
  </defs>
  <rect class="bg" x="0" y="0" width="1000" height="360" rx="16" />
  <text class="title" x="64" y="34">hordesmod/kek-ui release downloads</text>
  <text class="sub" x="64" y="352">Generated 2026-04-30</text>
  <line x1="64" y1="52.00" x2="976" y2="52.00" class="grid"/>
  <text x="56" y="56.00" text-anchor="end" class="axis">2,604</text>
  <line x1="64" y1="94.00" x2="976" y2="94.00" class="grid"/>
  <text x="56" y="98.00" text-anchor="end" class="axis">2,170</text>
  <line x1="64" y1="136.00" x2="976" y2="136.00" class="grid"/>
  <text x="56" y="140.00" text-anchor="end" class="axis">1,736</text>
  <line x1="64" y1="178.00" x2="976" y2="178.00" class="grid"/>
  <text x="56" y="182.00" text-anchor="end" class="axis">1,302</text>
  <line x1="64" y1="220.00" x2="976" y2="220.00" class="grid"/>
  <text x="56" y="224.00" text-anchor="end" class="axis">868</text>
  <line x1="64" y1="262.00" x2="976" y2="262.00" class="grid"/>
  <text x="56" y="266.00" text-anchor="end" class="axis">434</text>
  <line x1="64" y1="304.00" x2="976" y2="304.00" class="grid"/>
  <text x="56" y="308.00" text-anchor="end" class="axis">0</text>
  <path d="M 64.00 304 L 64.00 304.00 L 81.88 297.32 L 99.76 290.06 L 117.65 283.87 L 135.53 280.77 L 153.41 277.77 L 171.29 274.48 L 189.18 271.10 L 207.06 267.03 L 224.94 264.13 L 242.82 261.52 L 260.71 258.81 L 278.59 255.42 L 296.47 251.16 L 314.35 248.65 L 332.24 245.45 L 350.12 239.16 L 368.00 231.42 L 385.88 223.58 L 403.76 210.81 L 421.65 201.71 L 439.53 193.87 L 457.41 184.39 L 475.29 176.45 L 493.18 169.19 L 511.06 161.26 L 528.94 152.35 L 546.82 142.87 L 564.71 135.32 L 582.59 127.68 L 600.47 119.26 L 618.35 117.90 L 636.24 116.45 L 654.12 113.65 L 672.00 108.42 L 689.88 103.97 L 707.76 98.55 L 725.65 94.19 L 743.53 90.23 L 761.41 84.61 L 779.29 78.32 L 797.18 72.52 L 815.06 67.97 L 832.94 64.97 L 850.82 59.45 L 868.71 54.71 L 886.59 52.39 L 904.47 52.39 L 922.35 52.00 L 940.24 56.74 L 958.12 57.52 L 976.00 57.71 L 976.00 304 Z" fill="url(#fill-monthly-orange)"/>
  <polyline class="line" points="64.00,304.00 81.88,297.32 99.76,290.06 117.65,283.87 135.53,280.77 153.41,277.77 171.29,274.48 189.18,271.10 207.06,267.03 224.94,264.13 242.82,261.52 260.71,258.81 278.59,255.42 296.47,251.16 314.35,248.65 332.24,245.45 350.12,239.16 368.00,231.42 385.88,223.58 403.76,210.81 421.65,201.71 439.53,193.87 457.41,184.39 475.29,176.45 493.18,169.19 511.06,161.26 528.94,152.35 546.82,142.87 564.71,135.32 582.59,127.68 600.47,119.26 618.35,117.90 636.24,116.45 654.12,113.65 672.00,108.42 689.88,103.97 707.76,98.55 725.65,94.19 743.53,90.23 761.41,84.61 779.29,78.32 797.18,72.52 815.06,67.97 832.94,64.97 850.82,59.45 868.71,54.71 886.59,52.39 904.47,52.39 922.35,52.00 940.24,56.74 958.12,57.52 976.00,57.71"/>
  <circle class="dot" cx="976.00" cy="57.71" r="4.5"/>
  
  <text class="axis" x="64.00" y="336" text-anchor="start">2026-03-10</text>
  <text class="axis" x="242.82" y="336" text-anchor="middle">2026-03-20</text>
  <text class="axis" x="421.65" y="336" text-anchor="middle">2026-03-30</text>
  <text class="axis" x="600.47" y="336" text-anchor="middle">2026-04-09</text>
  <text class="axis" x="779.29" y="336" text-anchor="middle">2026-04-19</text>
  <text class="axis" x="958.12" y="336" text-anchor="middle">2026-04-29</text>
  <text class="axis" x="976.00" y="336" text-anchor="end">2026-04-30</text>
  <text class="latest" x="976" y="34" text-anchor="end">Latest month: 2,545</text>
</svg>
