<?xml version="1.0" encoding="UTF-8"?>
<svg xmlns="http://www.w3.org/2000/svg" viewBox="0 0 1000 360" role="img" aria-label="hordesmod/kek-ui release downloads chart">
  <defs>
    <linearGradient id="fill-monthly-slate" x1="0" y1="0" x2="0" y2="1">
      <stop offset="0%" stop-color="#60a5fa" stop-opacity="0.32"/>
      <stop offset="100%" stop-color="#60a5fa" stop-opacity="0.05"/>
    </linearGradient>
    <style>
      .bg { fill: #0f172a; }
      .title { font: 700 24px Arial, sans-serif; fill: #e2e8f0; }
      .sub { font: 400 13px Arial, sans-serif; fill: #94a3b8; }
      .grid { stroke: #1e293b; stroke-width: 1; }
      .axis { font: 400 12px Arial, sans-serif; fill: #94a3b8; }
      .line { fill: none; stroke: #60a5fa; stroke-width: 3; stroke-linecap: round; stroke-linejoin: round; }
      .dot { fill: #60a5fa; }
      .value { font: 600 11px Arial, sans-serif; fill: #cbd5e1; }
      .latest { font: 700 14px Arial, sans-serif; fill: #e2e8f0; }
    </style>
  </defs>
  <rect class="bg" x="0" y="0" width="1000" height="360" rx="16" />
  <text class="title" x="64" y="34">hordesmod/kek-ui release downloads</text>
  <text class="sub" x="64" y="352">Generated 2026-05-14</text>
  <line x1="64" y1="52.00" x2="976" y2="52.00" class="grid"/>
  <text x="56" y="56.00" text-anchor="end" class="axis">2,604</text>
  <line x1="64" y1="94.00" x2="976" y2="94.00" class="grid"/>
  <text x="56" y="98.00" text-anchor="end" class="axis">2,170</text>
  <line x1="64" y1="136.00" x2="976" y2="136.00" class="grid"/>
  <text x="56" y="140.00" text-anchor="end" class="axis">1,736</text>
  <line x1="64" y1="178.00" x2="976" y2="178.00" class="grid"/>
  <text x="56" y="182.00" text-anchor="end" class="axis">1,302</text>
  <line x1="64" y1="220.00" x2="976" y2="220.00" class="grid"/>
  <text x="56" y="224.00" text-anchor="end" class="axis">868</text>
  <line x1="64" y1="262.00" x2="976" y2="262.00" class="grid"/>
  <text x="56" y="266.00" text-anchor="end" class="axis">434</text>
  <line x1="64" y1="304.00" x2="976" y2="304.00" class="grid"/>
  <text x="56" y="308.00" text-anchor="end" class="axis">0</text>
  <path d="M 64.00 304 L 64.00 304.00 L 78.03 297.32 L 92.06 290.06 L 106.09 283.87 L 120.12 280.77 L 134.15 277.77 L 148.18 274.48 L 162.22 271.10 L 176.25 267.03 L 190.28 264.13 L 204.31 261.52 L 218.34 258.81 L 232.37 255.42 L 246.40 251.16 L 260.43 248.65 L 274.46 245.45 L 288.49 239.16 L 302.52 231.42 L 316.55 223.58 L 330.58 210.81 L 344.62 201.71 L 358.65 193.87 L 372.68 184.39 L 386.71 176.45 L 400.74 169.19 L 414.77 161.26 L 428.80 152.35 L 442.83 142.87 L 456.86 135.32 L 470.89 127.68 L 484.92 119.26 L 498.95 117.90 L 512.98 116.45 L 527.02 113.65 L 541.05 108.42 L 555.08 103.97 L 569.11 98.55 L 583.14 94.19 L 597.17 90.23 L 611.20 84.61 L 625.23 78.32 L 639.26 72.52 L 653.29 67.97 L 667.32 64.97 L 681.35 59.45 L 695.38 54.71 L 709.42 52.39 L 723.45 52.39 L 737.48 52.00 L 751.51 56.74 L 765.54 57.52 L 779.57 57.71 L 793.60 59.16 L 807.63 59.65 L 821.66 57.71 L 835.69 57.03 L 849.72 56.65 L 863.75 56.74 L 877.78 56.74 L 891.82 57.23 L 905.85 56.94 L 919.88 57.23 L 933.91 57.71 L 947.94 58.29 L 961.97 59.06 L 976.00 58.68 L 976.00 304 Z" fill="url(#fill-monthly-slate)"/>
  <polyline class="line" points="64.00,304.00 78.03,297.32 92.06,290.06 106.09,283.87 120.12,280.77 134.15,277.77 148.18,274.48 162.22,271.10 176.25,267.03 190.28,264.13 204.31,261.52 218.34,258.81 232.37,255.42 246.40,251.16 260.43,248.65 274.46,245.45 288.49,239.16 302.52,231.42 316.55,223.58 330.58,210.81 344.62,201.71 358.65,193.87 372.68,184.39 386.71,176.45 400.74,169.19 414.77,161.26 428.80,152.35 442.83,142.87 456.86,135.32 470.89,127.68 484.92,119.26 498.95,117.90 512.98,116.45 527.02,113.65 541.05,108.42 555.08,103.97 569.11,98.55 583.14,94.19 597.17,90.23 611.20,84.61 625.23,78.32 639.26,72.52 653.29,67.97 667.32,64.97 681.35,59.45 695.38,54.71 709.42,52.39 723.45,52.39 737.48,52.00 751.51,56.74 765.54,57.52 779.57,57.71 793.60,59.16 807.63,59.65 821.66,57.71 835.69,57.03 849.72,56.65 863.75,56.74 877.78,56.74 891.82,57.23 905.85,56.94 919.88,57.23 933.91,57.71 947.94,58.29 961.97,59.06 976.00,58.68"/>
  <circle class="dot" cx="976.00" cy="58.68" r="4.5"/>
  
  <text class="axis" x="64.00" y="336" text-anchor="start">2026-03-10</text>
  <text class="axis" x="246.40" y="336" text-anchor="middle">2026-03-23</text>
  <text class="axis" x="428.80" y="336" text-anchor="middle">2026-04-05</text>
  <text class="axis" x="611.20" y="336" text-anchor="middle">2026-04-18</text>
  <text class="axis" x="793.60" y="336" text-anchor="middle">2026-05-01</text>
  <text class="axis" x="976.00" y="336" text-anchor="end">2026-05-14</text>
  <text class="latest" x="976" y="34" text-anchor="end">Latest month: 2,535</text>
</svg>
