<?xml version="1.0" encoding="UTF-8"?>
<svg xmlns="http://www.w3.org/2000/svg" viewBox="0 0 1000 360" role="img" aria-label="hordesmod/kek-ui release downloads chart">
  <defs>
    <linearGradient id="fill-monthly-orange" x1="0" y1="0" x2="0" y2="1">
      <stop offset="0%" stop-color="#f97316" stop-opacity="0.32"/>
      <stop offset="100%" stop-color="#f97316" stop-opacity="0.05"/>
    </linearGradient>
    <style>
      .bg { fill: #fff7ed; }
      .title { font: 700 24px Arial, sans-serif; fill: #7c2d12; }
      .sub { font: 400 13px Arial, sans-serif; fill: #9a3412; }
      .grid { stroke: #fed7aa; stroke-width: 1; }
      .axis { font: 400 12px Arial, sans-serif; fill: #c2410c; }
      .line { fill: none; stroke: #ea580c; stroke-width: 3; stroke-linecap: round; stroke-linejoin: round; }
      .dot { fill: #ea580c; }
      .value { font: 600 11px Arial, sans-serif; fill: #9a3412; }
      .latest { font: 700 14px Arial, sans-serif; fill: #7c2d12; }
    </style>
  </defs>
  <rect class="bg" x="0" y="0" width="1000" height="360" rx="16" />
  <text class="title" x="64" y="34">hordesmod/kek-ui release downloads</text>
  <text class="sub" x="64" y="352">Generated 2026-05-02</text>
  <line x1="64" y1="52.00" x2="976" y2="52.00" class="grid"/>
  <text x="56" y="56.00" text-anchor="end" class="axis">2,604</text>
  <line x1="64" y1="94.00" x2="976" y2="94.00" class="grid"/>
  <text x="56" y="98.00" text-anchor="end" class="axis">2,170</text>
  <line x1="64" y1="136.00" x2="976" y2="136.00" class="grid"/>
  <text x="56" y="140.00" text-anchor="end" class="axis">1,736</text>
  <line x1="64" y1="178.00" x2="976" y2="178.00" class="grid"/>
  <text x="56" y="182.00" text-anchor="end" class="axis">1,302</text>
  <line x1="64" y1="220.00" x2="976" y2="220.00" class="grid"/>
  <text x="56" y="224.00" text-anchor="end" class="axis">868</text>
  <line x1="64" y1="262.00" x2="976" y2="262.00" class="grid"/>
  <text x="56" y="266.00" text-anchor="end" class="axis">434</text>
  <line x1="64" y1="304.00" x2="976" y2="304.00" class="grid"/>
  <text x="56" y="308.00" text-anchor="end" class="axis">0</text>
  <path d="M 64.00 304 L 64.00 304.00 L 81.21 297.32 L 98.42 290.06 L 115.62 283.87 L 132.83 280.77 L 150.04 277.77 L 167.25 274.48 L 184.45 271.10 L 201.66 267.03 L 218.87 264.13 L 236.08 261.52 L 253.28 258.81 L 270.49 255.42 L 287.70 251.16 L 304.91 248.65 L 322.11 245.45 L 339.32 239.16 L 356.53 231.42 L 373.74 223.58 L 390.94 210.81 L 408.15 201.71 L 425.36 193.87 L 442.57 184.39 L 459.77 176.45 L 476.98 169.19 L 494.19 161.26 L 511.40 152.35 L 528.60 142.87 L 545.81 135.32 L 563.02 127.68 L 580.23 119.26 L 597.43 117.90 L 614.64 116.45 L 631.85 113.65 L 649.06 108.42 L 666.26 103.97 L 683.47 98.55 L 700.68 94.19 L 717.89 90.23 L 735.09 84.61 L 752.30 78.32 L 769.51 72.52 L 786.72 67.97 L 803.92 64.97 L 821.13 59.45 L 838.34 54.71 L 855.55 52.39 L 872.75 52.39 L 889.96 52.00 L 907.17 56.74 L 924.38 57.52 L 941.58 57.71 L 958.79 59.16 L 976.00 59.65 L 976.00 304 Z" fill="url(#fill-monthly-orange)"/>
  <polyline class="line" points="64.00,304.00 81.21,297.32 98.42,290.06 115.62,283.87 132.83,280.77 150.04,277.77 167.25,274.48 184.45,271.10 201.66,267.03 218.87,264.13 236.08,261.52 253.28,258.81 270.49,255.42 287.70,251.16 304.91,248.65 322.11,245.45 339.32,239.16 356.53,231.42 373.74,223.58 390.94,210.81 408.15,201.71 425.36,193.87 442.57,184.39 459.77,176.45 476.98,169.19 494.19,161.26 511.40,152.35 528.60,142.87 545.81,135.32 563.02,127.68 580.23,119.26 597.43,117.90 614.64,116.45 631.85,113.65 649.06,108.42 666.26,103.97 683.47,98.55 700.68,94.19 717.89,90.23 735.09,84.61 752.30,78.32 769.51,72.52 786.72,67.97 803.92,64.97 821.13,59.45 838.34,54.71 855.55,52.39 872.75,52.39 889.96,52.00 907.17,56.74 924.38,57.52 941.58,57.71 958.79,59.16 976.00,59.65"/>
  <circle class="dot" cx="976.00" cy="59.65" r="4.5"/>
  
  <text class="axis" x="64.00" y="336" text-anchor="start">2026-03-10</text>
  <text class="axis" x="236.08" y="336" text-anchor="middle">2026-03-20</text>
  <text class="axis" x="408.15" y="336" text-anchor="middle">2026-03-30</text>
  <text class="axis" x="580.23" y="336" text-anchor="middle">2026-04-09</text>
  <text class="axis" x="752.30" y="336" text-anchor="middle">2026-04-19</text>
  <text class="axis" x="924.38" y="336" text-anchor="middle">2026-04-29</text>
  <text class="axis" x="976.00" y="336" text-anchor="end">2026-05-02</text>
  <text class="latest" x="976" y="34" text-anchor="end">Latest month: 2,525</text>
</svg>
