<?xml version="1.0" encoding="UTF-8"?>
<svg xmlns="http://www.w3.org/2000/svg" viewBox="0 0 1000 360" role="img" aria-label="hordesmod/kek-ui release downloads chart">
  <defs>
    <linearGradient id="fill-monthly-slate" x1="0" y1="0" x2="0" y2="1">
      <stop offset="0%" stop-color="#60a5fa" stop-opacity="0.32"/>
      <stop offset="100%" stop-color="#60a5fa" stop-opacity="0.05"/>
    </linearGradient>
    <style>
      .bg { fill: #0f172a; }
      .title { font: 700 24px Arial, sans-serif; fill: #e2e8f0; }
      .sub { font: 400 13px Arial, sans-serif; fill: #94a3b8; }
      .grid { stroke: #1e293b; stroke-width: 1; }
      .axis { font: 400 12px Arial, sans-serif; fill: #94a3b8; }
      .line { fill: none; stroke: #60a5fa; stroke-width: 3; stroke-linecap: round; stroke-linejoin: round; }
      .dot { fill: #60a5fa; }
      .value { font: 600 11px Arial, sans-serif; fill: #cbd5e1; }
      .latest { font: 700 14px Arial, sans-serif; fill: #e2e8f0; }
    </style>
  </defs>
  <rect class="bg" x="0" y="0" width="1000" height="360" rx="16" />
  <text class="title" x="64" y="34">hordesmod/kek-ui release downloads</text>
  <text class="sub" x="64" y="352">Generated 2026-03-29</text>
  <line x1="64" y1="52.00" x2="976" y2="52.00" class="grid"/>
  <text x="56" y="56.00" text-anchor="end" class="axis">963</text>
  <line x1="64" y1="94.00" x2="976" y2="94.00" class="grid"/>
  <text x="56" y="98.00" text-anchor="end" class="axis">803</text>
  <line x1="64" y1="136.00" x2="976" y2="136.00" class="grid"/>
  <text x="56" y="140.00" text-anchor="end" class="axis">642</text>
  <line x1="64" y1="178.00" x2="976" y2="178.00" class="grid"/>
  <text x="56" y="182.00" text-anchor="end" class="axis">482</text>
  <line x1="64" y1="220.00" x2="976" y2="220.00" class="grid"/>
  <text x="56" y="224.00" text-anchor="end" class="axis">321</text>
  <line x1="64" y1="262.00" x2="976" y2="262.00" class="grid"/>
  <text x="56" y="266.00" text-anchor="end" class="axis">161</text>
  <line x1="64" y1="304.00" x2="976" y2="304.00" class="grid"/>
  <text x="56" y="308.00" text-anchor="end" class="axis">0</text>
  <path d="M 64.00 304 L 64.00 304.00 L 112.00 285.94 L 160.00 266.32 L 208.00 249.57 L 256.00 241.20 L 304.00 233.08 L 352.00 224.19 L 400.00 215.03 L 448.00 204.04 L 496.00 196.19 L 544.00 189.12 L 592.00 181.79 L 640.00 172.64 L 688.00 161.12 L 736.00 154.32 L 784.00 145.68 L 832.00 128.67 L 880.00 107.74 L 928.00 86.54 L 976.00 52.00 L 976.00 304 Z" fill="url(#fill-monthly-slate)"/>
  <polyline class="line" points="64.00,304.00 112.00,285.94 160.00,266.32 208.00,249.57 256.00,241.20 304.00,233.08 352.00,224.19 400.00,215.03 448.00,204.04 496.00,196.19 544.00,189.12 592.00,181.79 640.00,172.64 688.00,161.12 736.00,154.32 784.00,145.68 832.00,128.67 880.00,107.74 928.00,86.54 976.00,52.00"/>
  <circle class="dot" cx="976.00" cy="52.00" r="4.5"/>
  
  <text class="axis" x="64.00" y="336" text-anchor="start">2026-03-10</text>
  <text class="axis" x="208.00" y="336" text-anchor="middle">2026-03-13</text>
  <text class="axis" x="352.00" y="336" text-anchor="middle">2026-03-16</text>
  <text class="axis" x="496.00" y="336" text-anchor="middle">2026-03-19</text>
  <text class="axis" x="640.00" y="336" text-anchor="middle">2026-03-22</text>
  <text class="axis" x="784.00" y="336" text-anchor="middle">2026-03-25</text>
  <text class="axis" x="928.00" y="336" text-anchor="middle">2026-03-28</text>
  <text class="axis" x="976.00" y="336" text-anchor="end">2026-03-29</text>
  <text class="latest" x="976" y="34" text-anchor="end">Latest month: 963</text>
</svg>
