<?xml version="1.0" encoding="UTF-8"?>
<svg xmlns="http://www.w3.org/2000/svg" viewBox="0 0 1000 360" role="img" aria-label="hordesmod/kek-ui release downloads chart">
  <defs>
    <linearGradient id="fill-monthly-slate" x1="0" y1="0" x2="0" y2="1">
      <stop offset="0%" stop-color="#60a5fa" stop-opacity="0.32"/>
      <stop offset="100%" stop-color="#60a5fa" stop-opacity="0.05"/>
    </linearGradient>
    <style>
      .bg { fill: #0f172a; }
      .title { font: 700 24px Arial, sans-serif; fill: #e2e8f0; }
      .sub { font: 400 13px Arial, sans-serif; fill: #94a3b8; }
      .grid { stroke: #1e293b; stroke-width: 1; }
      .axis { font: 400 12px Arial, sans-serif; fill: #94a3b8; }
      .line { fill: none; stroke: #60a5fa; stroke-width: 3; stroke-linecap: round; stroke-linejoin: round; }
      .dot { fill: #60a5fa; }
      .value { font: 600 11px Arial, sans-serif; fill: #cbd5e1; }
      .latest { font: 700 14px Arial, sans-serif; fill: #e2e8f0; }
    </style>
  </defs>
  <rect class="bg" x="0" y="0" width="1000" height="360" rx="16" />
  <text class="title" x="64" y="34">hordesmod/kek-ui release downloads</text>
  <text class="sub" x="64" y="352">Generated 2026-05-11</text>
  <line x1="64" y1="52.00" x2="976" y2="52.00" class="grid"/>
  <text x="56" y="56.00" text-anchor="end" class="axis">2,604</text>
  <line x1="64" y1="94.00" x2="976" y2="94.00" class="grid"/>
  <text x="56" y="98.00" text-anchor="end" class="axis">2,170</text>
  <line x1="64" y1="136.00" x2="976" y2="136.00" class="grid"/>
  <text x="56" y="140.00" text-anchor="end" class="axis">1,736</text>
  <line x1="64" y1="178.00" x2="976" y2="178.00" class="grid"/>
  <text x="56" y="182.00" text-anchor="end" class="axis">1,302</text>
  <line x1="64" y1="220.00" x2="976" y2="220.00" class="grid"/>
  <text x="56" y="224.00" text-anchor="end" class="axis">868</text>
  <line x1="64" y1="262.00" x2="976" y2="262.00" class="grid"/>
  <text x="56" y="266.00" text-anchor="end" class="axis">434</text>
  <line x1="64" y1="304.00" x2="976" y2="304.00" class="grid"/>
  <text x="56" y="308.00" text-anchor="end" class="axis">0</text>
  <path d="M 64.00 304 L 64.00 304.00 L 78.71 297.32 L 93.42 290.06 L 108.13 283.87 L 122.84 280.77 L 137.55 277.77 L 152.26 274.48 L 166.97 271.10 L 181.68 267.03 L 196.39 264.13 L 211.10 261.52 L 225.81 258.81 L 240.52 255.42 L 255.23 251.16 L 269.94 248.65 L 284.65 245.45 L 299.35 239.16 L 314.06 231.42 L 328.77 223.58 L 343.48 210.81 L 358.19 201.71 L 372.90 193.87 L 387.61 184.39 L 402.32 176.45 L 417.03 169.19 L 431.74 161.26 L 446.45 152.35 L 461.16 142.87 L 475.87 135.32 L 490.58 127.68 L 505.29 119.26 L 520.00 117.90 L 534.71 116.45 L 549.42 113.65 L 564.13 108.42 L 578.84 103.97 L 593.55 98.55 L 608.26 94.19 L 622.97 90.23 L 637.68 84.61 L 652.39 78.32 L 667.10 72.52 L 681.81 67.97 L 696.52 64.97 L 711.23 59.45 L 725.94 54.71 L 740.65 52.39 L 755.35 52.39 L 770.06 52.00 L 784.77 56.74 L 799.48 57.52 L 814.19 57.71 L 828.90 59.16 L 843.61 59.65 L 858.32 57.71 L 873.03 57.03 L 887.74 56.65 L 902.45 56.74 L 917.16 56.74 L 931.87 57.23 L 946.58 56.94 L 961.29 57.23 L 976.00 57.71 L 976.00 304 Z" fill="url(#fill-monthly-slate)"/>
  <polyline class="line" points="64.00,304.00 78.71,297.32 93.42,290.06 108.13,283.87 122.84,280.77 137.55,277.77 152.26,274.48 166.97,271.10 181.68,267.03 196.39,264.13 211.10,261.52 225.81,258.81 240.52,255.42 255.23,251.16 269.94,248.65 284.65,245.45 299.35,239.16 314.06,231.42 328.77,223.58 343.48,210.81 358.19,201.71 372.90,193.87 387.61,184.39 402.32,176.45 417.03,169.19 431.74,161.26 446.45,152.35 461.16,142.87 475.87,135.32 490.58,127.68 505.29,119.26 520.00,117.90 534.71,116.45 549.42,113.65 564.13,108.42 578.84,103.97 593.55,98.55 608.26,94.19 622.97,90.23 637.68,84.61 652.39,78.32 667.10,72.52 681.81,67.97 696.52,64.97 711.23,59.45 725.94,54.71 740.65,52.39 755.35,52.39 770.06,52.00 784.77,56.74 799.48,57.52 814.19,57.71 828.90,59.16 843.61,59.65 858.32,57.71 873.03,57.03 887.74,56.65 902.45,56.74 917.16,56.74 931.87,57.23 946.58,56.94 961.29,57.23 976.00,57.71"/>
  <circle class="dot" cx="976.00" cy="57.71" r="4.5"/>
  
  <text class="axis" x="64.00" y="336" text-anchor="start">2026-03-10</text>
  <text class="axis" x="240.52" y="336" text-anchor="middle">2026-03-22</text>
  <text class="axis" x="417.03" y="336" text-anchor="middle">2026-04-03</text>
  <text class="axis" x="593.55" y="336" text-anchor="middle">2026-04-15</text>
  <text class="axis" x="770.06" y="336" text-anchor="middle">2026-04-27</text>
  <text class="axis" x="946.58" y="336" text-anchor="middle">2026-05-09</text>
  <text class="axis" x="976.00" y="336" text-anchor="end">2026-05-11</text>
  <text class="latest" x="976" y="34" text-anchor="end">Latest month: 2,545</text>
</svg>
