<?xml version="1.0" encoding="UTF-8"?>
<svg xmlns="http://www.w3.org/2000/svg" viewBox="0 0 1000 360" role="img" aria-label="hordesmod/kek-ui release downloads chart">
  <defs>
    <linearGradient id="fill-monthly-slate" x1="0" y1="0" x2="0" y2="1">
      <stop offset="0%" stop-color="#60a5fa" stop-opacity="0.32"/>
      <stop offset="100%" stop-color="#60a5fa" stop-opacity="0.05"/>
    </linearGradient>
    <style>
      .bg { fill: #0f172a; }
      .title { font: 700 24px Arial, sans-serif; fill: #e2e8f0; }
      .sub { font: 400 13px Arial, sans-serif; fill: #94a3b8; }
      .grid { stroke: #1e293b; stroke-width: 1; }
      .axis { font: 400 12px Arial, sans-serif; fill: #94a3b8; }
      .line { fill: none; stroke: #60a5fa; stroke-width: 3; stroke-linecap: round; stroke-linejoin: round; }
      .dot { fill: #60a5fa; }
      .value { font: 600 11px Arial, sans-serif; fill: #cbd5e1; }
      .latest { font: 700 14px Arial, sans-serif; fill: #e2e8f0; }
    </style>
  </defs>
  <rect class="bg" x="0" y="0" width="1000" height="360" rx="16" />
  <text class="title" x="64" y="34">hordesmod/kek-ui release downloads</text>
  <text class="sub" x="64" y="352">Generated 2026-05-03</text>
  <line x1="64" y1="52.00" x2="976" y2="52.00" class="grid"/>
  <text x="56" y="56.00" text-anchor="end" class="axis">2,604</text>
  <line x1="64" y1="94.00" x2="976" y2="94.00" class="grid"/>
  <text x="56" y="98.00" text-anchor="end" class="axis">2,170</text>
  <line x1="64" y1="136.00" x2="976" y2="136.00" class="grid"/>
  <text x="56" y="140.00" text-anchor="end" class="axis">1,736</text>
  <line x1="64" y1="178.00" x2="976" y2="178.00" class="grid"/>
  <text x="56" y="182.00" text-anchor="end" class="axis">1,302</text>
  <line x1="64" y1="220.00" x2="976" y2="220.00" class="grid"/>
  <text x="56" y="224.00" text-anchor="end" class="axis">868</text>
  <line x1="64" y1="262.00" x2="976" y2="262.00" class="grid"/>
  <text x="56" y="266.00" text-anchor="end" class="axis">434</text>
  <line x1="64" y1="304.00" x2="976" y2="304.00" class="grid"/>
  <text x="56" y="308.00" text-anchor="end" class="axis">0</text>
  <path d="M 64.00 304 L 64.00 304.00 L 80.89 297.32 L 97.78 290.06 L 114.67 283.87 L 131.56 280.77 L 148.44 277.77 L 165.33 274.48 L 182.22 271.10 L 199.11 267.03 L 216.00 264.13 L 232.89 261.52 L 249.78 258.81 L 266.67 255.42 L 283.56 251.16 L 300.44 248.65 L 317.33 245.45 L 334.22 239.16 L 351.11 231.42 L 368.00 223.58 L 384.89 210.81 L 401.78 201.71 L 418.67 193.87 L 435.56 184.39 L 452.44 176.45 L 469.33 169.19 L 486.22 161.26 L 503.11 152.35 L 520.00 142.87 L 536.89 135.32 L 553.78 127.68 L 570.67 119.26 L 587.56 117.90 L 604.44 116.45 L 621.33 113.65 L 638.22 108.42 L 655.11 103.97 L 672.00 98.55 L 688.89 94.19 L 705.78 90.23 L 722.67 84.61 L 739.56 78.32 L 756.44 72.52 L 773.33 67.97 L 790.22 64.97 L 807.11 59.45 L 824.00 54.71 L 840.89 52.39 L 857.78 52.39 L 874.67 52.00 L 891.56 56.74 L 908.44 57.52 L 925.33 57.71 L 942.22 59.16 L 959.11 59.65 L 976.00 57.71 L 976.00 304 Z" fill="url(#fill-monthly-slate)"/>
  <polyline class="line" points="64.00,304.00 80.89,297.32 97.78,290.06 114.67,283.87 131.56,280.77 148.44,277.77 165.33,274.48 182.22,271.10 199.11,267.03 216.00,264.13 232.89,261.52 249.78,258.81 266.67,255.42 283.56,251.16 300.44,248.65 317.33,245.45 334.22,239.16 351.11,231.42 368.00,223.58 384.89,210.81 401.78,201.71 418.67,193.87 435.56,184.39 452.44,176.45 469.33,169.19 486.22,161.26 503.11,152.35 520.00,142.87 536.89,135.32 553.78,127.68 570.67,119.26 587.56,117.90 604.44,116.45 621.33,113.65 638.22,108.42 655.11,103.97 672.00,98.55 688.89,94.19 705.78,90.23 722.67,84.61 739.56,78.32 756.44,72.52 773.33,67.97 790.22,64.97 807.11,59.45 824.00,54.71 840.89,52.39 857.78,52.39 874.67,52.00 891.56,56.74 908.44,57.52 925.33,57.71 942.22,59.16 959.11,59.65 976.00,57.71"/>
  <circle class="dot" cx="976.00" cy="57.71" r="4.5"/>
  
  <text class="axis" x="64.00" y="336" text-anchor="start">2026-03-10</text>
  <text class="axis" x="232.89" y="336" text-anchor="middle">2026-03-20</text>
  <text class="axis" x="401.78" y="336" text-anchor="middle">2026-03-30</text>
  <text class="axis" x="570.67" y="336" text-anchor="middle">2026-04-09</text>
  <text class="axis" x="739.56" y="336" text-anchor="middle">2026-04-19</text>
  <text class="axis" x="908.44" y="336" text-anchor="middle">2026-04-29</text>
  <text class="axis" x="976.00" y="336" text-anchor="end">2026-05-03</text>
  <text class="latest" x="976" y="34" text-anchor="end">Latest month: 2,545</text>
</svg>
