<?xml version="1.0" encoding="UTF-8"?>
<svg xmlns="http://www.w3.org/2000/svg" viewBox="0 0 1000 360" role="img" aria-label="hordesmod/kek-ui release downloads chart">
  <defs>
    <linearGradient id="fill-monthly-slate" x1="0" y1="0" x2="0" y2="1">
      <stop offset="0%" stop-color="#60a5fa" stop-opacity="0.32"/>
      <stop offset="100%" stop-color="#60a5fa" stop-opacity="0.05"/>
    </linearGradient>
    <style>
      .bg { fill: #0f172a; }
      .title { font: 700 24px Arial, sans-serif; fill: #e2e8f0; }
      .sub { font: 400 13px Arial, sans-serif; fill: #94a3b8; }
      .grid { stroke: #1e293b; stroke-width: 1; }
      .axis { font: 400 12px Arial, sans-serif; fill: #94a3b8; }
      .line { fill: none; stroke: #60a5fa; stroke-width: 3; stroke-linecap: round; stroke-linejoin: round; }
      .dot { fill: #60a5fa; }
      .value { font: 600 11px Arial, sans-serif; fill: #cbd5e1; }
      .latest { font: 700 14px Arial, sans-serif; fill: #e2e8f0; }
    </style>
  </defs>
  <rect class="bg" x="0" y="0" width="1000" height="360" rx="16" />
  <text class="title" x="64" y="34">hordesmod/kek-ui release downloads</text>
  <text class="sub" x="64" y="352">Generated 2026-05-05</text>
  <line x1="64" y1="52.00" x2="976" y2="52.00" class="grid"/>
  <text x="56" y="56.00" text-anchor="end" class="axis">2,604</text>
  <line x1="64" y1="94.00" x2="976" y2="94.00" class="grid"/>
  <text x="56" y="98.00" text-anchor="end" class="axis">2,170</text>
  <line x1="64" y1="136.00" x2="976" y2="136.00" class="grid"/>
  <text x="56" y="140.00" text-anchor="end" class="axis">1,736</text>
  <line x1="64" y1="178.00" x2="976" y2="178.00" class="grid"/>
  <text x="56" y="182.00" text-anchor="end" class="axis">1,302</text>
  <line x1="64" y1="220.00" x2="976" y2="220.00" class="grid"/>
  <text x="56" y="224.00" text-anchor="end" class="axis">868</text>
  <line x1="64" y1="262.00" x2="976" y2="262.00" class="grid"/>
  <text x="56" y="266.00" text-anchor="end" class="axis">434</text>
  <line x1="64" y1="304.00" x2="976" y2="304.00" class="grid"/>
  <text x="56" y="308.00" text-anchor="end" class="axis">0</text>
  <path d="M 64.00 304 L 64.00 304.00 L 80.29 297.32 L 96.57 290.06 L 112.86 283.87 L 129.14 280.77 L 145.43 277.77 L 161.71 274.48 L 178.00 271.10 L 194.29 267.03 L 210.57 264.13 L 226.86 261.52 L 243.14 258.81 L 259.43 255.42 L 275.71 251.16 L 292.00 248.65 L 308.29 245.45 L 324.57 239.16 L 340.86 231.42 L 357.14 223.58 L 373.43 210.81 L 389.71 201.71 L 406.00 193.87 L 422.29 184.39 L 438.57 176.45 L 454.86 169.19 L 471.14 161.26 L 487.43 152.35 L 503.71 142.87 L 520.00 135.32 L 536.29 127.68 L 552.57 119.26 L 568.86 117.90 L 585.14 116.45 L 601.43 113.65 L 617.71 108.42 L 634.00 103.97 L 650.29 98.55 L 666.57 94.19 L 682.86 90.23 L 699.14 84.61 L 715.43 78.32 L 731.71 72.52 L 748.00 67.97 L 764.29 64.97 L 780.57 59.45 L 796.86 54.71 L 813.14 52.39 L 829.43 52.39 L 845.71 52.00 L 862.00 56.74 L 878.29 57.52 L 894.57 57.71 L 910.86 59.16 L 927.14 59.65 L 943.43 57.71 L 959.71 57.03 L 976.00 56.65 L 976.00 304 Z" fill="url(#fill-monthly-slate)"/>
  <polyline class="line" points="64.00,304.00 80.29,297.32 96.57,290.06 112.86,283.87 129.14,280.77 145.43,277.77 161.71,274.48 178.00,271.10 194.29,267.03 210.57,264.13 226.86,261.52 243.14,258.81 259.43,255.42 275.71,251.16 292.00,248.65 308.29,245.45 324.57,239.16 340.86,231.42 357.14,223.58 373.43,210.81 389.71,201.71 406.00,193.87 422.29,184.39 438.57,176.45 454.86,169.19 471.14,161.26 487.43,152.35 503.71,142.87 520.00,135.32 536.29,127.68 552.57,119.26 568.86,117.90 585.14,116.45 601.43,113.65 617.71,108.42 634.00,103.97 650.29,98.55 666.57,94.19 682.86,90.23 699.14,84.61 715.43,78.32 731.71,72.52 748.00,67.97 764.29,64.97 780.57,59.45 796.86,54.71 813.14,52.39 829.43,52.39 845.71,52.00 862.00,56.74 878.29,57.52 894.57,57.71 910.86,59.16 927.14,59.65 943.43,57.71 959.71,57.03 976.00,56.65"/>
  <circle class="dot" cx="976.00" cy="56.65" r="4.5"/>
  
  <text class="axis" x="64.00" y="336" text-anchor="start">2026-03-10</text>
  <text class="axis" x="243.14" y="336" text-anchor="middle">2026-03-21</text>
  <text class="axis" x="422.29" y="336" text-anchor="middle">2026-04-01</text>
  <text class="axis" x="601.43" y="336" text-anchor="middle">2026-04-12</text>
  <text class="axis" x="780.57" y="336" text-anchor="middle">2026-04-23</text>
  <text class="axis" x="959.71" y="336" text-anchor="middle">2026-05-04</text>
  <text class="axis" x="976.00" y="336" text-anchor="end">2026-05-05</text>
  <text class="latest" x="976" y="34" text-anchor="end">Latest month: 2,556</text>
</svg>
