<?xml version="1.0" encoding="UTF-8"?>
<svg xmlns="http://www.w3.org/2000/svg" viewBox="0 0 1000 360" role="img" aria-label="hordesmod/kek-ui release downloads chart">
  <defs>
    <linearGradient id="fill-monthly-black" x1="0" y1="0" x2="0" y2="1">
      <stop offset="0%" stop-color="#22d3ee" stop-opacity="0.32"/>
      <stop offset="100%" stop-color="#22d3ee" stop-opacity="0.05"/>
    </linearGradient>
    <style>
      .bg { fill: #0b0b0d; }
      .title { font: 700 24px Arial, sans-serif; fill: #f8fafc; }
      .sub { font: 400 13px Arial, sans-serif; fill: #cbd5e1; }
      .grid { stroke: #1f2937; stroke-width: 1; }
      .axis { font: 400 12px Arial, sans-serif; fill: #94a3b8; }
      .line { fill: none; stroke: #22d3ee; stroke-width: 3; stroke-linecap: round; stroke-linejoin: round; }
      .dot { fill: #22d3ee; }
      .value { font: 600 11px Arial, sans-serif; fill: #cbd5e1; }
      .latest { font: 700 14px Arial, sans-serif; fill: #f8fafc; }
    </style>
  </defs>
  <rect class="bg" x="0" y="0" width="1000" height="360" rx="16" />
  <text class="title" x="64" y="34">hordesmod/kek-ui release downloads</text>
  <text class="sub" x="64" y="352">Generated 2026-05-16</text>
  <line x1="64" y1="52.00" x2="976" y2="52.00" class="grid"/>
  <text x="56" y="56.00" text-anchor="end" class="axis">2,604</text>
  <line x1="64" y1="94.00" x2="976" y2="94.00" class="grid"/>
  <text x="56" y="98.00" text-anchor="end" class="axis">2,170</text>
  <line x1="64" y1="136.00" x2="976" y2="136.00" class="grid"/>
  <text x="56" y="140.00" text-anchor="end" class="axis">1,736</text>
  <line x1="64" y1="178.00" x2="976" y2="178.00" class="grid"/>
  <text x="56" y="182.00" text-anchor="end" class="axis">1,302</text>
  <line x1="64" y1="220.00" x2="976" y2="220.00" class="grid"/>
  <text x="56" y="224.00" text-anchor="end" class="axis">868</text>
  <line x1="64" y1="262.00" x2="976" y2="262.00" class="grid"/>
  <text x="56" y="266.00" text-anchor="end" class="axis">434</text>
  <line x1="64" y1="304.00" x2="976" y2="304.00" class="grid"/>
  <text x="56" y="308.00" text-anchor="end" class="axis">0</text>
  <path d="M 64.00 304 L 64.00 304.00 L 77.61 297.32 L 91.22 290.06 L 104.84 283.87 L 118.45 280.77 L 132.06 277.77 L 145.67 274.48 L 159.28 271.10 L 172.90 267.03 L 186.51 264.13 L 200.12 261.52 L 213.73 258.81 L 227.34 255.42 L 240.96 251.16 L 254.57 248.65 L 268.18 245.45 L 281.79 239.16 L 295.40 231.42 L 309.01 223.58 L 322.63 210.81 L 336.24 201.71 L 349.85 193.87 L 363.46 184.39 L 377.07 176.45 L 390.69 169.19 L 404.30 161.26 L 417.91 152.35 L 431.52 142.87 L 445.13 135.32 L 458.75 127.68 L 472.36 119.26 L 485.97 117.90 L 499.58 116.45 L 513.19 113.65 L 526.81 108.42 L 540.42 103.97 L 554.03 98.55 L 567.64 94.19 L 581.25 90.23 L 594.87 84.61 L 608.48 78.32 L 622.09 72.52 L 635.70 67.97 L 649.31 64.97 L 662.93 59.45 L 676.54 54.71 L 690.15 52.39 L 703.76 52.39 L 717.37 52.00 L 730.99 56.74 L 744.60 57.52 L 758.21 57.71 L 771.82 59.16 L 785.43 59.65 L 799.04 57.71 L 812.66 57.03 L 826.27 56.65 L 839.88 56.74 L 853.49 56.74 L 867.10 57.23 L 880.72 56.94 L 894.33 57.23 L 907.94 57.71 L 921.55 58.29 L 935.16 59.06 L 948.78 58.68 L 962.39 60.52 L 976.00 59.74 L 976.00 304 Z" fill="url(#fill-monthly-black)"/>
  <polyline class="line" points="64.00,304.00 77.61,297.32 91.22,290.06 104.84,283.87 118.45,280.77 132.06,277.77 145.67,274.48 159.28,271.10 172.90,267.03 186.51,264.13 200.12,261.52 213.73,258.81 227.34,255.42 240.96,251.16 254.57,248.65 268.18,245.45 281.79,239.16 295.40,231.42 309.01,223.58 322.63,210.81 336.24,201.71 349.85,193.87 363.46,184.39 377.07,176.45 390.69,169.19 404.30,161.26 417.91,152.35 431.52,142.87 445.13,135.32 458.75,127.68 472.36,119.26 485.97,117.90 499.58,116.45 513.19,113.65 526.81,108.42 540.42,103.97 554.03,98.55 567.64,94.19 581.25,90.23 594.87,84.61 608.48,78.32 622.09,72.52 635.70,67.97 649.31,64.97 662.93,59.45 676.54,54.71 690.15,52.39 703.76,52.39 717.37,52.00 730.99,56.74 744.60,57.52 758.21,57.71 771.82,59.16 785.43,59.65 799.04,57.71 812.66,57.03 826.27,56.65 839.88,56.74 853.49,56.74 867.10,57.23 880.72,56.94 894.33,57.23 907.94,57.71 921.55,58.29 935.16,59.06 948.78,58.68 962.39,60.52 976.00,59.74"/>
  <circle class="dot" cx="976.00" cy="59.74" r="4.5"/>
  
  <text class="axis" x="64.00" y="336" text-anchor="start">2026-03-10</text>
  <text class="axis" x="240.96" y="336" text-anchor="middle">2026-03-23</text>
  <text class="axis" x="417.91" y="336" text-anchor="middle">2026-04-05</text>
  <text class="axis" x="594.87" y="336" text-anchor="middle">2026-04-18</text>
  <text class="axis" x="771.82" y="336" text-anchor="middle">2026-05-01</text>
  <text class="axis" x="948.78" y="336" text-anchor="middle">2026-05-14</text>
  <text class="axis" x="976.00" y="336" text-anchor="end">2026-05-16</text>
  <text class="latest" x="976" y="34" text-anchor="end">Latest month: 2,524</text>
</svg>
