<?xml version="1.0" encoding="UTF-8"?>
<svg xmlns="http://www.w3.org/2000/svg" viewBox="0 0 1000 360" role="img" aria-label="hordesmod/kek-ui release downloads chart">
  <defs>
    <linearGradient id="fill-monthly-black" x1="0" y1="0" x2="0" y2="1">
      <stop offset="0%" stop-color="#22d3ee" stop-opacity="0.32"/>
      <stop offset="100%" stop-color="#22d3ee" stop-opacity="0.05"/>
    </linearGradient>
    <style>
      .bg { fill: #0b0b0d; }
      .title { font: 700 24px Arial, sans-serif; fill: #f8fafc; }
      .sub { font: 400 13px Arial, sans-serif; fill: #cbd5e1; }
      .grid { stroke: #1f2937; stroke-width: 1; }
      .axis { font: 400 12px Arial, sans-serif; fill: #94a3b8; }
      .line { fill: none; stroke: #22d3ee; stroke-width: 3; stroke-linecap: round; stroke-linejoin: round; }
      .dot { fill: #22d3ee; }
      .value { font: 600 11px Arial, sans-serif; fill: #cbd5e1; }
      .latest { font: 700 14px Arial, sans-serif; fill: #f8fafc; }
    </style>
  </defs>
  <rect class="bg" x="0" y="0" width="1000" height="360" rx="16" />
  <text class="title" x="64" y="34">hordesmod/kek-ui release downloads</text>
  <text class="sub" x="64" y="352">Generated 2026-04-17</text>
  <line x1="64" y1="52.00" x2="976" y2="52.00" class="grid"/>
  <text x="56" y="56.00" text-anchor="end" class="axis">2,209</text>
  <line x1="64" y1="94.00" x2="976" y2="94.00" class="grid"/>
  <text x="56" y="98.00" text-anchor="end" class="axis">1,841</text>
  <line x1="64" y1="136.00" x2="976" y2="136.00" class="grid"/>
  <text x="56" y="140.00" text-anchor="end" class="axis">1,473</text>
  <line x1="64" y1="178.00" x2="976" y2="178.00" class="grid"/>
  <text x="56" y="182.00" text-anchor="end" class="axis">1,105</text>
  <line x1="64" y1="220.00" x2="976" y2="220.00" class="grid"/>
  <text x="56" y="224.00" text-anchor="end" class="axis">736</text>
  <line x1="64" y1="262.00" x2="976" y2="262.00" class="grid"/>
  <text x="56" y="266.00" text-anchor="end" class="axis">368</text>
  <line x1="64" y1="304.00" x2="976" y2="304.00" class="grid"/>
  <text x="56" y="308.00" text-anchor="end" class="axis">0</text>
  <path d="M 64.00 304 L 64.00 304.00 L 88.00 296.13 L 112.00 287.57 L 136.00 280.27 L 160.00 276.62 L 184.00 273.08 L 208.00 269.21 L 232.00 265.21 L 256.00 260.42 L 280.00 257.00 L 304.00 253.92 L 328.00 250.73 L 352.00 246.73 L 376.00 241.71 L 400.00 238.75 L 424.00 234.98 L 448.00 227.57 L 472.00 218.44 L 496.00 209.20 L 520.00 194.14 L 544.00 183.42 L 568.00 174.18 L 592.00 163.00 L 616.00 153.64 L 640.00 145.09 L 664.00 135.73 L 688.00 125.24 L 712.00 114.06 L 736.00 105.16 L 760.00 96.15 L 784.00 86.22 L 808.00 84.63 L 832.00 82.92 L 856.00 79.61 L 880.00 73.45 L 904.00 68.20 L 928.00 61.81 L 952.00 56.68 L 976.00 52.00 L 976.00 304 Z" fill="url(#fill-monthly-black)"/>
  <polyline class="line" points="64.00,304.00 88.00,296.13 112.00,287.57 136.00,280.27 160.00,276.62 184.00,273.08 208.00,269.21 232.00,265.21 256.00,260.42 280.00,257.00 304.00,253.92 328.00,250.73 352.00,246.73 376.00,241.71 400.00,238.75 424.00,234.98 448.00,227.57 472.00,218.44 496.00,209.20 520.00,194.14 544.00,183.42 568.00,174.18 592.00,163.00 616.00,153.64 640.00,145.09 664.00,135.73 688.00,125.24 712.00,114.06 736.00,105.16 760.00,96.15 784.00,86.22 808.00,84.63 832.00,82.92 856.00,79.61 880.00,73.45 904.00,68.20 928.00,61.81 952.00,56.68 976.00,52.00"/>
  <circle class="dot" cx="976.00" cy="52.00" r="4.5"/>
  
  <text class="axis" x="64.00" y="336" text-anchor="start">2026-03-10</text>
  <text class="axis" x="232.00" y="336" text-anchor="middle">2026-03-17</text>
  <text class="axis" x="400.00" y="336" text-anchor="middle">2026-03-24</text>
  <text class="axis" x="568.00" y="336" text-anchor="middle">2026-03-31</text>
  <text class="axis" x="736.00" y="336" text-anchor="middle">2026-04-07</text>
  <text class="axis" x="904.00" y="336" text-anchor="middle">2026-04-14</text>
  <text class="axis" x="976.00" y="336" text-anchor="end">2026-04-17</text>
  <text class="latest" x="976" y="34" text-anchor="end">Latest month: 2,209</text>
</svg>
