<?xml version="1.0" encoding="UTF-8"?>
<svg xmlns="http://www.w3.org/2000/svg" viewBox="0 0 1000 360" role="img" aria-label="hordesmod/kek-ui release downloads chart">
  <defs>
    <linearGradient id="fill-monthly-slate" x1="0" y1="0" x2="0" y2="1">
      <stop offset="0%" stop-color="#60a5fa" stop-opacity="0.32"/>
      <stop offset="100%" stop-color="#60a5fa" stop-opacity="0.05"/>
    </linearGradient>
    <style>
      .bg { fill: #0f172a; }
      .title { font: 700 24px Arial, sans-serif; fill: #e2e8f0; }
      .sub { font: 400 13px Arial, sans-serif; fill: #94a3b8; }
      .grid { stroke: #1e293b; stroke-width: 1; }
      .axis { font: 400 12px Arial, sans-serif; fill: #94a3b8; }
      .line { fill: none; stroke: #60a5fa; stroke-width: 3; stroke-linecap: round; stroke-linejoin: round; }
      .dot { fill: #60a5fa; }
      .value { font: 600 11px Arial, sans-serif; fill: #cbd5e1; }
      .latest { font: 700 14px Arial, sans-serif; fill: #e2e8f0; }
    </style>
  </defs>
  <rect class="bg" x="0" y="0" width="1000" height="360" rx="16" />
  <text class="title" x="64" y="34">hordesmod/kek-ui release downloads</text>
  <text class="sub" x="64" y="352">Generated 2026-04-18</text>
  <line x1="64" y1="52.00" x2="976" y2="52.00" class="grid"/>
  <text x="56" y="56.00" text-anchor="end" class="axis">2,267</text>
  <line x1="64" y1="94.00" x2="976" y2="94.00" class="grid"/>
  <text x="56" y="98.00" text-anchor="end" class="axis">1,889</text>
  <line x1="64" y1="136.00" x2="976" y2="136.00" class="grid"/>
  <text x="56" y="140.00" text-anchor="end" class="axis">1,511</text>
  <line x1="64" y1="178.00" x2="976" y2="178.00" class="grid"/>
  <text x="56" y="182.00" text-anchor="end" class="axis">1,134</text>
  <line x1="64" y1="220.00" x2="976" y2="220.00" class="grid"/>
  <text x="56" y="224.00" text-anchor="end" class="axis">756</text>
  <line x1="64" y1="262.00" x2="976" y2="262.00" class="grid"/>
  <text x="56" y="266.00" text-anchor="end" class="axis">378</text>
  <line x1="64" y1="304.00" x2="976" y2="304.00" class="grid"/>
  <text x="56" y="308.00" text-anchor="end" class="axis">0</text>
  <path d="M 64.00 304 L 64.00 304.00 L 87.38 296.33 L 110.77 287.99 L 134.15 280.88 L 157.54 277.32 L 180.92 273.88 L 204.31 270.10 L 227.69 266.21 L 251.08 261.54 L 274.46 258.20 L 297.85 255.20 L 321.23 252.09 L 344.62 248.20 L 368.00 243.31 L 391.38 240.42 L 414.77 236.75 L 438.15 229.52 L 461.54 220.63 L 484.92 211.63 L 508.31 196.95 L 531.69 186.50 L 555.08 177.50 L 578.46 166.61 L 601.85 157.49 L 625.23 149.15 L 648.62 140.04 L 672.00 129.81 L 695.38 118.92 L 718.77 110.25 L 742.15 101.47 L 765.54 91.80 L 788.92 90.24 L 812.31 88.57 L 835.69 85.35 L 859.08 79.35 L 882.46 74.23 L 905.85 68.01 L 929.23 63.00 L 952.62 58.45 L 976.00 52.00 L 976.00 304 Z" fill="url(#fill-monthly-slate)"/>
  <polyline class="line" points="64.00,304.00 87.38,296.33 110.77,287.99 134.15,280.88 157.54,277.32 180.92,273.88 204.31,270.10 227.69,266.21 251.08,261.54 274.46,258.20 297.85,255.20 321.23,252.09 344.62,248.20 368.00,243.31 391.38,240.42 414.77,236.75 438.15,229.52 461.54,220.63 484.92,211.63 508.31,196.95 531.69,186.50 555.08,177.50 578.46,166.61 601.85,157.49 625.23,149.15 648.62,140.04 672.00,129.81 695.38,118.92 718.77,110.25 742.15,101.47 765.54,91.80 788.92,90.24 812.31,88.57 835.69,85.35 859.08,79.35 882.46,74.23 905.85,68.01 929.23,63.00 952.62,58.45 976.00,52.00"/>
  <circle class="dot" cx="976.00" cy="52.00" r="4.5"/>
  
  <text class="axis" x="64.00" y="336" text-anchor="start">2026-03-10</text>
  <text class="axis" x="227.69" y="336" text-anchor="middle">2026-03-17</text>
  <text class="axis" x="391.38" y="336" text-anchor="middle">2026-03-24</text>
  <text class="axis" x="555.08" y="336" text-anchor="middle">2026-03-31</text>
  <text class="axis" x="718.77" y="336" text-anchor="middle">2026-04-07</text>
  <text class="axis" x="882.46" y="336" text-anchor="middle">2026-04-14</text>
  <text class="axis" x="976.00" y="336" text-anchor="end">2026-04-18</text>
  <text class="latest" x="976" y="34" text-anchor="end">Latest month: 2,267</text>
</svg>
