<?xml version="1.0" encoding="UTF-8"?>
<svg xmlns="http://www.w3.org/2000/svg" viewBox="0 0 1000 360" role="img" aria-label="hordesmod/kek-ui release downloads chart">
  <defs>
    <linearGradient id="fill-monthly-orange" x1="0" y1="0" x2="0" y2="1">
      <stop offset="0%" stop-color="#f97316" stop-opacity="0.32"/>
      <stop offset="100%" stop-color="#f97316" stop-opacity="0.05"/>
    </linearGradient>
    <style>
      .bg { fill: #fff7ed; }
      .title { font: 700 24px Arial, sans-serif; fill: #7c2d12; }
      .sub { font: 400 13px Arial, sans-serif; fill: #9a3412; }
      .grid { stroke: #fed7aa; stroke-width: 1; }
      .axis { font: 400 12px Arial, sans-serif; fill: #c2410c; }
      .line { fill: none; stroke: #ea580c; stroke-width: 3; stroke-linecap: round; stroke-linejoin: round; }
      .dot { fill: #ea580c; }
      .value { font: 600 11px Arial, sans-serif; fill: #9a3412; }
      .latest { font: 700 14px Arial, sans-serif; fill: #7c2d12; }
    </style>
  </defs>
  <rect class="bg" x="0" y="0" width="1000" height="360" rx="16" />
  <text class="title" x="64" y="34">hordesmod/kek-ui release downloads</text>
  <text class="sub" x="64" y="352">Generated 2026-04-25</text>
  <line x1="64" y1="52.00" x2="976" y2="52.00" class="grid"/>
  <text x="56" y="56.00" text-anchor="end" class="axis">2,600</text>
  <line x1="64" y1="94.00" x2="976" y2="94.00" class="grid"/>
  <text x="56" y="98.00" text-anchor="end" class="axis">2,167</text>
  <line x1="64" y1="136.00" x2="976" y2="136.00" class="grid"/>
  <text x="56" y="140.00" text-anchor="end" class="axis">1,733</text>
  <line x1="64" y1="178.00" x2="976" y2="178.00" class="grid"/>
  <text x="56" y="182.00" text-anchor="end" class="axis">1,300</text>
  <line x1="64" y1="220.00" x2="976" y2="220.00" class="grid"/>
  <text x="56" y="224.00" text-anchor="end" class="axis">867</text>
  <line x1="64" y1="262.00" x2="976" y2="262.00" class="grid"/>
  <text x="56" y="266.00" text-anchor="end" class="axis">433</text>
  <line x1="64" y1="304.00" x2="976" y2="304.00" class="grid"/>
  <text x="56" y="308.00" text-anchor="end" class="axis">0</text>
  <path d="M 64.00 304 L 64.00 304.00 L 83.83 297.31 L 103.65 290.04 L 123.48 283.84 L 143.30 280.74 L 163.13 277.73 L 182.96 274.44 L 202.78 271.05 L 222.61 266.98 L 242.43 264.07 L 262.26 261.45 L 282.09 258.74 L 301.91 255.34 L 321.74 251.08 L 341.57 248.56 L 361.39 245.36 L 381.22 239.06 L 401.04 231.31 L 420.87 223.46 L 440.70 210.66 L 460.52 201.55 L 480.35 193.70 L 500.17 184.20 L 520.00 176.26 L 539.83 168.99 L 559.65 161.04 L 579.48 152.12 L 599.30 142.62 L 619.13 135.06 L 638.96 127.41 L 658.78 118.97 L 678.61 117.62 L 698.43 116.16 L 718.26 113.35 L 738.09 108.12 L 757.91 103.66 L 777.74 98.23 L 797.57 93.87 L 817.39 89.90 L 837.22 84.28 L 857.04 77.98 L 876.87 72.16 L 896.70 67.60 L 916.52 64.60 L 936.35 59.08 L 956.17 54.33 L 976.00 52.00 L 976.00 304 Z" fill="url(#fill-monthly-orange)"/>
  <polyline class="line" points="64.00,304.00 83.83,297.31 103.65,290.04 123.48,283.84 143.30,280.74 163.13,277.73 182.96,274.44 202.78,271.05 222.61,266.98 242.43,264.07 262.26,261.45 282.09,258.74 301.91,255.34 321.74,251.08 341.57,248.56 361.39,245.36 381.22,239.06 401.04,231.31 420.87,223.46 440.70,210.66 460.52,201.55 480.35,193.70 500.17,184.20 520.00,176.26 539.83,168.99 559.65,161.04 579.48,152.12 599.30,142.62 619.13,135.06 638.96,127.41 658.78,118.97 678.61,117.62 698.43,116.16 718.26,113.35 738.09,108.12 757.91,103.66 777.74,98.23 797.57,93.87 817.39,89.90 837.22,84.28 857.04,77.98 876.87,72.16 896.70,67.60 916.52,64.60 936.35,59.08 956.17,54.33 976.00,52.00"/>
  <circle class="dot" cx="976.00" cy="52.00" r="4.5"/>
  
  <text class="axis" x="64.00" y="336" text-anchor="start">2026-03-10</text>
  <text class="axis" x="242.43" y="336" text-anchor="middle">2026-03-19</text>
  <text class="axis" x="420.87" y="336" text-anchor="middle">2026-03-28</text>
  <text class="axis" x="599.30" y="336" text-anchor="middle">2026-04-06</text>
  <text class="axis" x="777.74" y="336" text-anchor="middle">2026-04-15</text>
  <text class="axis" x="956.17" y="336" text-anchor="middle">2026-04-24</text>
  <text class="axis" x="976.00" y="336" text-anchor="end">2026-04-25</text>
  <text class="latest" x="976" y="34" text-anchor="end">Latest month: 2,600</text>
</svg>
