<?xml version="1.0" encoding="UTF-8"?>
<svg xmlns="http://www.w3.org/2000/svg" viewBox="0 0 1000 360" role="img" aria-label="hordesmod/kek-ui release downloads chart">
  <defs>
    <linearGradient id="fill-monthly-orange" x1="0" y1="0" x2="0" y2="1">
      <stop offset="0%" stop-color="#f97316" stop-opacity="0.32"/>
      <stop offset="100%" stop-color="#f97316" stop-opacity="0.05"/>
    </linearGradient>
    <style>
      .bg { fill: #fff7ed; }
      .title { font: 700 24px Arial, sans-serif; fill: #7c2d12; }
      .sub { font: 400 13px Arial, sans-serif; fill: #9a3412; }
      .grid { stroke: #fed7aa; stroke-width: 1; }
      .axis { font: 400 12px Arial, sans-serif; fill: #c2410c; }
      .line { fill: none; stroke: #ea580c; stroke-width: 3; stroke-linecap: round; stroke-linejoin: round; }
      .dot { fill: #ea580c; }
      .value { font: 600 11px Arial, sans-serif; fill: #9a3412; }
      .latest { font: 700 14px Arial, sans-serif; fill: #7c2d12; }
    </style>
  </defs>
  <rect class="bg" x="0" y="0" width="1000" height="360" rx="16" />
  <text class="title" x="64" y="34">hordesmod/kek-ui release downloads</text>
  <text class="sub" x="64" y="352">Generated 2026-05-08</text>
  <line x1="64" y1="52.00" x2="976" y2="52.00" class="grid"/>
  <text x="56" y="56.00" text-anchor="end" class="axis">2,604</text>
  <line x1="64" y1="94.00" x2="976" y2="94.00" class="grid"/>
  <text x="56" y="98.00" text-anchor="end" class="axis">2,170</text>
  <line x1="64" y1="136.00" x2="976" y2="136.00" class="grid"/>
  <text x="56" y="140.00" text-anchor="end" class="axis">1,736</text>
  <line x1="64" y1="178.00" x2="976" y2="178.00" class="grid"/>
  <text x="56" y="182.00" text-anchor="end" class="axis">1,302</text>
  <line x1="64" y1="220.00" x2="976" y2="220.00" class="grid"/>
  <text x="56" y="224.00" text-anchor="end" class="axis">868</text>
  <line x1="64" y1="262.00" x2="976" y2="262.00" class="grid"/>
  <text x="56" y="266.00" text-anchor="end" class="axis">434</text>
  <line x1="64" y1="304.00" x2="976" y2="304.00" class="grid"/>
  <text x="56" y="308.00" text-anchor="end" class="axis">0</text>
  <path d="M 64.00 304 L 64.00 304.00 L 79.46 297.32 L 94.92 290.06 L 110.37 283.87 L 125.83 280.77 L 141.29 277.77 L 156.75 274.48 L 172.20 271.10 L 187.66 267.03 L 203.12 264.13 L 218.58 261.52 L 234.03 258.81 L 249.49 255.42 L 264.95 251.16 L 280.41 248.65 L 295.86 245.45 L 311.32 239.16 L 326.78 231.42 L 342.24 223.58 L 357.69 210.81 L 373.15 201.71 L 388.61 193.87 L 404.07 184.39 L 419.53 176.45 L 434.98 169.19 L 450.44 161.26 L 465.90 152.35 L 481.36 142.87 L 496.81 135.32 L 512.27 127.68 L 527.73 119.26 L 543.19 117.90 L 558.64 116.45 L 574.10 113.65 L 589.56 108.42 L 605.02 103.97 L 620.47 98.55 L 635.93 94.19 L 651.39 90.23 L 666.85 84.61 L 682.31 78.32 L 697.76 72.52 L 713.22 67.97 L 728.68 64.97 L 744.14 59.45 L 759.59 54.71 L 775.05 52.39 L 790.51 52.39 L 805.97 52.00 L 821.42 56.74 L 836.88 57.52 L 852.34 57.71 L 867.80 59.16 L 883.25 59.65 L 898.71 57.71 L 914.17 57.03 L 929.63 56.65 L 945.08 56.74 L 960.54 56.74 L 976.00 57.23 L 976.00 304 Z" fill="url(#fill-monthly-orange)"/>
  <polyline class="line" points="64.00,304.00 79.46,297.32 94.92,290.06 110.37,283.87 125.83,280.77 141.29,277.77 156.75,274.48 172.20,271.10 187.66,267.03 203.12,264.13 218.58,261.52 234.03,258.81 249.49,255.42 264.95,251.16 280.41,248.65 295.86,245.45 311.32,239.16 326.78,231.42 342.24,223.58 357.69,210.81 373.15,201.71 388.61,193.87 404.07,184.39 419.53,176.45 434.98,169.19 450.44,161.26 465.90,152.35 481.36,142.87 496.81,135.32 512.27,127.68 527.73,119.26 543.19,117.90 558.64,116.45 574.10,113.65 589.56,108.42 605.02,103.97 620.47,98.55 635.93,94.19 651.39,90.23 666.85,84.61 682.31,78.32 697.76,72.52 713.22,67.97 728.68,64.97 744.14,59.45 759.59,54.71 775.05,52.39 790.51,52.39 805.97,52.00 821.42,56.74 836.88,57.52 852.34,57.71 867.80,59.16 883.25,59.65 898.71,57.71 914.17,57.03 929.63,56.65 945.08,56.74 960.54,56.74 976.00,57.23"/>
  <circle class="dot" cx="976.00" cy="57.23" r="4.5"/>
  
  <text class="axis" x="64.00" y="336" text-anchor="start">2026-03-10</text>
  <text class="axis" x="234.03" y="336" text-anchor="middle">2026-03-21</text>
  <text class="axis" x="404.07" y="336" text-anchor="middle">2026-04-01</text>
  <text class="axis" x="574.10" y="336" text-anchor="middle">2026-04-12</text>
  <text class="axis" x="744.14" y="336" text-anchor="middle">2026-04-23</text>
  <text class="axis" x="914.17" y="336" text-anchor="middle">2026-05-04</text>
  <text class="axis" x="976.00" y="336" text-anchor="end">2026-05-08</text>
  <text class="latest" x="976" y="34" text-anchor="end">Latest month: 2,550</text>
</svg>
