<?xml version="1.0" encoding="UTF-8"?>
<svg xmlns="http://www.w3.org/2000/svg" viewBox="0 0 1000 360" role="img" aria-label="hordesmod/kek-ui release downloads chart">
  <defs>
    <linearGradient id="fill-monthly-black" x1="0" y1="0" x2="0" y2="1">
      <stop offset="0%" stop-color="#22d3ee" stop-opacity="0.32"/>
      <stop offset="100%" stop-color="#22d3ee" stop-opacity="0.05"/>
    </linearGradient>
    <style>
      .bg { fill: #0b0b0d; }
      .title { font: 700 24px Arial, sans-serif; fill: #f8fafc; }
      .sub { font: 400 13px Arial, sans-serif; fill: #cbd5e1; }
      .grid { stroke: #1f2937; stroke-width: 1; }
      .axis { font: 400 12px Arial, sans-serif; fill: #94a3b8; }
      .line { fill: none; stroke: #22d3ee; stroke-width: 3; stroke-linecap: round; stroke-linejoin: round; }
      .dot { fill: #22d3ee; }
      .value { font: 600 11px Arial, sans-serif; fill: #cbd5e1; }
      .latest { font: 700 14px Arial, sans-serif; fill: #f8fafc; }
    </style>
  </defs>
  <rect class="bg" x="0" y="0" width="1000" height="360" rx="16" />
  <text class="title" x="64" y="34">hordesmod/kek-ui release downloads</text>
  <text class="sub" x="64" y="352">Generated 2026-03-28</text>
  <line x1="64" y1="52.00" x2="976" y2="52.00" class="grid"/>
  <text x="56" y="56.00" text-anchor="end" class="axis">831</text>
  <line x1="64" y1="94.00" x2="976" y2="94.00" class="grid"/>
  <text x="56" y="98.00" text-anchor="end" class="axis">693</text>
  <line x1="64" y1="136.00" x2="976" y2="136.00" class="grid"/>
  <text x="56" y="140.00" text-anchor="end" class="axis">554</text>
  <line x1="64" y1="178.00" x2="976" y2="178.00" class="grid"/>
  <text x="56" y="182.00" text-anchor="end" class="axis">416</text>
  <line x1="64" y1="220.00" x2="976" y2="220.00" class="grid"/>
  <text x="56" y="224.00" text-anchor="end" class="axis">277</text>
  <line x1="64" y1="262.00" x2="976" y2="262.00" class="grid"/>
  <text x="56" y="266.00" text-anchor="end" class="axis">139</text>
  <line x1="64" y1="304.00" x2="976" y2="304.00" class="grid"/>
  <text x="56" y="308.00" text-anchor="end" class="axis">0</text>
  <path d="M 64.00 304 L 64.00 304.00 L 114.67 283.08 L 165.33 260.33 L 216.00 240.92 L 266.67 231.22 L 317.33 221.82 L 368.00 211.51 L 418.67 200.90 L 469.33 188.16 L 520.00 179.06 L 570.67 170.87 L 621.33 162.38 L 672.00 151.77 L 722.67 138.43 L 773.33 130.54 L 824.00 120.53 L 874.67 100.82 L 925.33 76.56 L 976.00 52.00 L 976.00 304 Z" fill="url(#fill-monthly-black)"/>
  <polyline class="line" points="64.00,304.00 114.67,283.08 165.33,260.33 216.00,240.92 266.67,231.22 317.33,221.82 368.00,211.51 418.67,200.90 469.33,188.16 520.00,179.06 570.67,170.87 621.33,162.38 672.00,151.77 722.67,138.43 773.33,130.54 824.00,120.53 874.67,100.82 925.33,76.56 976.00,52.00"/>
  <circle class="dot" cx="976.00" cy="52.00" r="4.5"/>
  
  <text class="axis" x="64.00" y="336" text-anchor="start">2026-03-10</text>
  <text class="axis" x="216.00" y="336" text-anchor="middle">2026-03-13</text>
  <text class="axis" x="368.00" y="336" text-anchor="middle">2026-03-16</text>
  <text class="axis" x="520.00" y="336" text-anchor="middle">2026-03-19</text>
  <text class="axis" x="672.00" y="336" text-anchor="middle">2026-03-22</text>
  <text class="axis" x="824.00" y="336" text-anchor="middle">2026-03-25</text>
  <text class="axis" x="976.00" y="336" text-anchor="end">2026-03-28</text>
  <text class="latest" x="976" y="34" text-anchor="end">Latest month: 831</text>
</svg>
