<?xml version="1.0" encoding="UTF-8"?>
<svg xmlns="http://www.w3.org/2000/svg" viewBox="0 0 1000 360" role="img" aria-label="hordesmod/kek-ui release downloads chart">
  <defs>
    <linearGradient id="fill-monthly-orange" x1="0" y1="0" x2="0" y2="1">
      <stop offset="0%" stop-color="#f97316" stop-opacity="0.32"/>
      <stop offset="100%" stop-color="#f97316" stop-opacity="0.05"/>
    </linearGradient>
    <style>
      .bg { fill: #fff7ed; }
      .title { font: 700 24px Arial, sans-serif; fill: #7c2d12; }
      .sub { font: 400 13px Arial, sans-serif; fill: #9a3412; }
      .grid { stroke: #fed7aa; stroke-width: 1; }
      .axis { font: 400 12px Arial, sans-serif; fill: #c2410c; }
      .line { fill: none; stroke: #ea580c; stroke-width: 3; stroke-linecap: round; stroke-linejoin: round; }
      .dot { fill: #ea580c; }
      .value { font: 600 11px Arial, sans-serif; fill: #9a3412; }
      .latest { font: 700 14px Arial, sans-serif; fill: #7c2d12; }
    </style>
  </defs>
  <rect class="bg" x="0" y="0" width="1000" height="360" rx="16" />
  <text class="title" x="64" y="34">hordesmod/kek-ui release downloads</text>
  <text class="sub" x="64" y="352">Generated 2026-04-20</text>
  <line x1="64" y1="52.00" x2="976" y2="52.00" class="grid"/>
  <text x="56" y="56.00" text-anchor="end" class="axis">2,392</text>
  <line x1="64" y1="94.00" x2="976" y2="94.00" class="grid"/>
  <text x="56" y="98.00" text-anchor="end" class="axis">1,993</text>
  <line x1="64" y1="136.00" x2="976" y2="136.00" class="grid"/>
  <text x="56" y="140.00" text-anchor="end" class="axis">1,595</text>
  <line x1="64" y1="178.00" x2="976" y2="178.00" class="grid"/>
  <text x="56" y="182.00" text-anchor="end" class="axis">1,196</text>
  <line x1="64" y1="220.00" x2="976" y2="220.00" class="grid"/>
  <text x="56" y="224.00" text-anchor="end" class="axis">797</text>
  <line x1="64" y1="262.00" x2="976" y2="262.00" class="grid"/>
  <text x="56" y="266.00" text-anchor="end" class="axis">399</text>
  <line x1="64" y1="304.00" x2="976" y2="304.00" class="grid"/>
  <text x="56" y="308.00" text-anchor="end" class="axis">0</text>
  <path d="M 64.00 304 L 64.00 304.00 L 86.24 296.73 L 108.49 288.83 L 130.73 282.09 L 152.98 278.72 L 175.22 275.45 L 197.46 271.87 L 219.71 268.18 L 241.95 263.76 L 264.20 260.60 L 286.44 257.75 L 308.68 254.80 L 330.93 251.11 L 353.17 246.48 L 375.41 243.74 L 397.66 240.26 L 419.90 233.41 L 442.15 224.99 L 464.39 216.45 L 486.63 202.55 L 508.88 192.64 L 531.12 184.11 L 553.37 173.79 L 575.61 165.15 L 597.85 157.25 L 620.10 148.61 L 642.34 138.91 L 664.59 128.59 L 686.83 120.37 L 709.07 112.05 L 731.32 102.88 L 753.56 101.41 L 775.80 99.83 L 798.05 96.77 L 820.29 91.09 L 842.54 86.24 L 864.78 80.34 L 887.02 75.60 L 909.27 71.28 L 931.51 65.17 L 953.76 58.32 L 976.00 52.00 L 976.00 304 Z" fill="url(#fill-monthly-orange)"/>
  <polyline class="line" points="64.00,304.00 86.24,296.73 108.49,288.83 130.73,282.09 152.98,278.72 175.22,275.45 197.46,271.87 219.71,268.18 241.95,263.76 264.20,260.60 286.44,257.75 308.68,254.80 330.93,251.11 353.17,246.48 375.41,243.74 397.66,240.26 419.90,233.41 442.15,224.99 464.39,216.45 486.63,202.55 508.88,192.64 531.12,184.11 553.37,173.79 575.61,165.15 597.85,157.25 620.10,148.61 642.34,138.91 664.59,128.59 686.83,120.37 709.07,112.05 731.32,102.88 753.56,101.41 775.80,99.83 798.05,96.77 820.29,91.09 842.54,86.24 864.78,80.34 887.02,75.60 909.27,71.28 931.51,65.17 953.76,58.32 976.00,52.00"/>
  <circle class="dot" cx="976.00" cy="52.00" r="4.5"/>
  
  <text class="axis" x="64.00" y="336" text-anchor="start">2026-03-10</text>
  <text class="axis" x="241.95" y="336" text-anchor="middle">2026-03-18</text>
  <text class="axis" x="419.90" y="336" text-anchor="middle">2026-03-26</text>
  <text class="axis" x="597.85" y="336" text-anchor="middle">2026-04-03</text>
  <text class="axis" x="775.80" y="336" text-anchor="middle">2026-04-11</text>
  <text class="axis" x="953.76" y="336" text-anchor="middle">2026-04-19</text>
  <text class="axis" x="976.00" y="336" text-anchor="end">2026-04-20</text>
  <text class="latest" x="976" y="34" text-anchor="end">Latest month: 2,392</text>
</svg>
