<?xml version="1.0" encoding="UTF-8"?>
<svg xmlns="http://www.w3.org/2000/svg" viewBox="0 0 1000 360" role="img" aria-label="hordesmod/kek-ui release downloads chart">
  <defs>
    <linearGradient id="fill-monthly-black" x1="0" y1="0" x2="0" y2="1">
      <stop offset="0%" stop-color="#22d3ee" stop-opacity="0.32"/>
      <stop offset="100%" stop-color="#22d3ee" stop-opacity="0.05"/>
    </linearGradient>
    <style>
      .bg { fill: #0b0b0d; }
      .title { font: 700 24px Arial, sans-serif; fill: #f8fafc; }
      .sub { font: 400 13px Arial, sans-serif; fill: #cbd5e1; }
      .grid { stroke: #1f2937; stroke-width: 1; }
      .axis { font: 400 12px Arial, sans-serif; fill: #94a3b8; }
      .line { fill: none; stroke: #22d3ee; stroke-width: 3; stroke-linecap: round; stroke-linejoin: round; }
      .dot { fill: #22d3ee; }
      .value { font: 600 11px Arial, sans-serif; fill: #cbd5e1; }
      .latest { font: 700 14px Arial, sans-serif; fill: #f8fafc; }
    </style>
  </defs>
  <rect class="bg" x="0" y="0" width="1000" height="360" rx="16" />
  <text class="title" x="64" y="34">hordesmod/kek-ui release downloads</text>
  <text class="sub" x="64" y="352">Generated 2026-05-20</text>
  <line x1="64" y1="52.00" x2="976" y2="52.00" class="grid"/>
  <text x="56" y="56.00" text-anchor="end" class="axis">2,604</text>
  <line x1="64" y1="94.00" x2="976" y2="94.00" class="grid"/>
  <text x="56" y="98.00" text-anchor="end" class="axis">2,170</text>
  <line x1="64" y1="136.00" x2="976" y2="136.00" class="grid"/>
  <text x="56" y="140.00" text-anchor="end" class="axis">1,736</text>
  <line x1="64" y1="178.00" x2="976" y2="178.00" class="grid"/>
  <text x="56" y="182.00" text-anchor="end" class="axis">1,302</text>
  <line x1="64" y1="220.00" x2="976" y2="220.00" class="grid"/>
  <text x="56" y="224.00" text-anchor="end" class="axis">868</text>
  <line x1="64" y1="262.00" x2="976" y2="262.00" class="grid"/>
  <text x="56" y="266.00" text-anchor="end" class="axis">434</text>
  <line x1="64" y1="304.00" x2="976" y2="304.00" class="grid"/>
  <text x="56" y="308.00" text-anchor="end" class="axis">0</text>
  <path d="M 64.00 304 L 64.00 304.00 L 76.85 297.32 L 89.69 290.06 L 102.54 283.87 L 115.38 280.77 L 128.23 277.77 L 141.07 274.48 L 153.92 271.10 L 166.76 267.03 L 179.61 264.13 L 192.45 261.52 L 205.30 258.81 L 218.14 255.42 L 230.99 251.16 L 243.83 248.65 L 256.68 245.45 L 269.52 239.16 L 282.37 231.42 L 295.21 223.58 L 308.06 210.81 L 320.90 201.71 L 333.75 193.87 L 346.59 184.39 L 359.44 176.45 L 372.28 169.19 L 385.13 161.26 L 397.97 152.35 L 410.82 142.87 L 423.66 135.32 L 436.51 127.68 L 449.35 119.26 L 462.20 117.90 L 475.04 116.45 L 487.89 113.65 L 500.73 108.42 L 513.58 103.97 L 526.42 98.55 L 539.27 94.19 L 552.11 90.23 L 564.96 84.61 L 577.80 78.32 L 590.65 72.52 L 603.49 67.97 L 616.34 64.97 L 629.18 59.45 L 642.03 54.71 L 654.87 52.39 L 667.72 52.39 L 680.56 52.00 L 693.41 56.74 L 706.25 57.52 L 719.10 57.71 L 731.94 59.16 L 744.79 59.65 L 757.63 57.71 L 770.48 57.03 L 783.32 56.65 L 796.17 56.74 L 809.01 56.74 L 821.86 57.23 L 834.70 56.94 L 847.55 57.23 L 860.39 57.71 L 873.24 58.29 L 886.08 59.06 L 898.93 58.68 L 911.77 60.52 L 924.62 59.74 L 937.46 59.26 L 950.31 59.35 L 963.15 60.52 L 976.00 61.29 L 976.00 304 Z" fill="url(#fill-monthly-black)"/>
  <polyline class="line" points="64.00,304.00 76.85,297.32 89.69,290.06 102.54,283.87 115.38,280.77 128.23,277.77 141.07,274.48 153.92,271.10 166.76,267.03 179.61,264.13 192.45,261.52 205.30,258.81 218.14,255.42 230.99,251.16 243.83,248.65 256.68,245.45 269.52,239.16 282.37,231.42 295.21,223.58 308.06,210.81 320.90,201.71 333.75,193.87 346.59,184.39 359.44,176.45 372.28,169.19 385.13,161.26 397.97,152.35 410.82,142.87 423.66,135.32 436.51,127.68 449.35,119.26 462.20,117.90 475.04,116.45 487.89,113.65 500.73,108.42 513.58,103.97 526.42,98.55 539.27,94.19 552.11,90.23 564.96,84.61 577.80,78.32 590.65,72.52 603.49,67.97 616.34,64.97 629.18,59.45 642.03,54.71 654.87,52.39 667.72,52.39 680.56,52.00 693.41,56.74 706.25,57.52 719.10,57.71 731.94,59.16 744.79,59.65 757.63,57.71 770.48,57.03 783.32,56.65 796.17,56.74 809.01,56.74 821.86,57.23 834.70,56.94 847.55,57.23 860.39,57.71 873.24,58.29 886.08,59.06 898.93,58.68 911.77,60.52 924.62,59.74 937.46,59.26 950.31,59.35 963.15,60.52 976.00,61.29"/>
  <circle class="dot" cx="976.00" cy="61.29" r="4.5"/>
  
  <text class="axis" x="64.00" y="336" text-anchor="start">2026-03-10</text>
  <text class="axis" x="243.83" y="336" text-anchor="middle">2026-03-24</text>
  <text class="axis" x="423.66" y="336" text-anchor="middle">2026-04-07</text>
  <text class="axis" x="603.49" y="336" text-anchor="middle">2026-04-21</text>
  <text class="axis" x="783.32" y="336" text-anchor="middle">2026-05-05</text>
  <text class="axis" x="963.15" y="336" text-anchor="middle">2026-05-19</text>
  <text class="axis" x="976.00" y="336" text-anchor="end">2026-05-20</text>
  <text class="latest" x="976" y="34" text-anchor="end">Latest month: 2,508</text>
</svg>
