<?xml version="1.0" encoding="UTF-8"?>
<svg xmlns="http://www.w3.org/2000/svg" viewBox="0 0 1000 360" role="img" aria-label="hordesmod/kek-ui release downloads chart">
  <defs>
    <linearGradient id="fill-monthly-black" x1="0" y1="0" x2="0" y2="1">
      <stop offset="0%" stop-color="#22d3ee" stop-opacity="0.32"/>
      <stop offset="100%" stop-color="#22d3ee" stop-opacity="0.05"/>
    </linearGradient>
    <style>
      .bg { fill: #0b0b0d; }
      .title { font: 700 24px Arial, sans-serif; fill: #f8fafc; }
      .sub { font: 400 13px Arial, sans-serif; fill: #cbd5e1; }
      .grid { stroke: #1f2937; stroke-width: 1; }
      .axis { font: 400 12px Arial, sans-serif; fill: #94a3b8; }
      .line { fill: none; stroke: #22d3ee; stroke-width: 3; stroke-linecap: round; stroke-linejoin: round; }
      .dot { fill: #22d3ee; }
      .value { font: 600 11px Arial, sans-serif; fill: #cbd5e1; }
      .latest { font: 700 14px Arial, sans-serif; fill: #f8fafc; }
    </style>
  </defs>
  <rect class="bg" x="0" y="0" width="1000" height="360" rx="16" />
  <text class="title" x="64" y="34">hordesmod/kek-ui release downloads</text>
  <text class="sub" x="64" y="352">Generated 2026-04-13</text>
  <line x1="64" y1="52.00" x2="976" y2="52.00" class="grid"/>
  <text x="56" y="56.00" text-anchor="end" class="axis">2,021</text>
  <line x1="64" y1="94.00" x2="976" y2="94.00" class="grid"/>
  <text x="56" y="98.00" text-anchor="end" class="axis">1,684</text>
  <line x1="64" y1="136.00" x2="976" y2="136.00" class="grid"/>
  <text x="56" y="140.00" text-anchor="end" class="axis">1,347</text>
  <line x1="64" y1="178.00" x2="976" y2="178.00" class="grid"/>
  <text x="56" y="182.00" text-anchor="end" class="axis">1,011</text>
  <line x1="64" y1="220.00" x2="976" y2="220.00" class="grid"/>
  <text x="56" y="224.00" text-anchor="end" class="axis">674</text>
  <line x1="64" y1="262.00" x2="976" y2="262.00" class="grid"/>
  <text x="56" y="266.00" text-anchor="end" class="axis">337</text>
  <line x1="64" y1="304.00" x2="976" y2="304.00" class="grid"/>
  <text x="56" y="308.00" text-anchor="end" class="axis">0</text>
  <path d="M 64.00 304 L 64.00 304.00 L 90.82 295.40 L 117.65 286.04 L 144.47 278.06 L 171.29 274.07 L 198.12 270.21 L 224.94 265.97 L 251.76 261.61 L 278.59 256.37 L 305.41 252.63 L 332.24 249.26 L 359.06 245.77 L 385.88 241.41 L 412.71 235.92 L 439.53 232.68 L 466.35 228.56 L 493.18 220.46 L 520.00 210.48 L 546.82 200.38 L 573.65 183.92 L 600.47 172.20 L 627.29 162.10 L 654.12 149.88 L 680.94 139.66 L 707.76 130.31 L 734.59 120.08 L 761.41 108.61 L 788.24 96.39 L 815.06 86.66 L 841.88 76.81 L 868.71 65.97 L 895.53 64.22 L 922.35 62.35 L 949.18 58.73 L 976.00 52.00 L 976.00 304 Z" fill="url(#fill-monthly-black)"/>
  <polyline class="line" points="64.00,304.00 90.82,295.40 117.65,286.04 144.47,278.06 171.29,274.07 198.12,270.21 224.94,265.97 251.76,261.61 278.59,256.37 305.41,252.63 332.24,249.26 359.06,245.77 385.88,241.41 412.71,235.92 439.53,232.68 466.35,228.56 493.18,220.46 520.00,210.48 546.82,200.38 573.65,183.92 600.47,172.20 627.29,162.10 654.12,149.88 680.94,139.66 707.76,130.31 734.59,120.08 761.41,108.61 788.24,96.39 815.06,86.66 841.88,76.81 868.71,65.97 895.53,64.22 922.35,62.35 949.18,58.73 976.00,52.00"/>
  <circle class="dot" cx="976.00" cy="52.00" r="4.5"/>
  
  <text class="axis" x="64.00" y="336" text-anchor="start">2026-03-10</text>
  <text class="axis" x="224.94" y="336" text-anchor="middle">2026-03-16</text>
  <text class="axis" x="385.88" y="336" text-anchor="middle">2026-03-22</text>
  <text class="axis" x="546.82" y="336" text-anchor="middle">2026-03-28</text>
  <text class="axis" x="707.76" y="336" text-anchor="middle">2026-04-03</text>
  <text class="axis" x="868.71" y="336" text-anchor="middle">2026-04-09</text>
  <text class="axis" x="976.00" y="336" text-anchor="end">2026-04-13</text>
  <text class="latest" x="976" y="34" text-anchor="end">Latest month: 2,021</text>
</svg>
