<?xml version="1.0" encoding="UTF-8"?>
<svg xmlns="http://www.w3.org/2000/svg" viewBox="0 0 1000 360" role="img" aria-label="hordesmod/kek-ui release downloads chart">
  <defs>
    <linearGradient id="fill-monthly-black" x1="0" y1="0" x2="0" y2="1">
      <stop offset="0%" stop-color="#22d3ee" stop-opacity="0.32"/>
      <stop offset="100%" stop-color="#22d3ee" stop-opacity="0.05"/>
    </linearGradient>
    <style>
      .bg { fill: #0b0b0d; }
      .title { font: 700 24px Arial, sans-serif; fill: #f8fafc; }
      .sub { font: 400 13px Arial, sans-serif; fill: #cbd5e1; }
      .grid { stroke: #1f2937; stroke-width: 1; }
      .axis { font: 400 12px Arial, sans-serif; fill: #94a3b8; }
      .line { fill: none; stroke: #22d3ee; stroke-width: 3; stroke-linecap: round; stroke-linejoin: round; }
      .dot { fill: #22d3ee; }
      .value { font: 600 11px Arial, sans-serif; fill: #cbd5e1; }
      .latest { font: 700 14px Arial, sans-serif; fill: #f8fafc; }
    </style>
  </defs>
  <rect class="bg" x="0" y="0" width="1000" height="360" rx="16" />
  <text class="title" x="64" y="34">hordesmod/kek-ui release downloads</text>
  <text class="sub" x="64" y="352">Generated 2026-05-15</text>
  <line x1="64" y1="52.00" x2="976" y2="52.00" class="grid"/>
  <text x="56" y="56.00" text-anchor="end" class="axis">2,604</text>
  <line x1="64" y1="94.00" x2="976" y2="94.00" class="grid"/>
  <text x="56" y="98.00" text-anchor="end" class="axis">2,170</text>
  <line x1="64" y1="136.00" x2="976" y2="136.00" class="grid"/>
  <text x="56" y="140.00" text-anchor="end" class="axis">1,736</text>
  <line x1="64" y1="178.00" x2="976" y2="178.00" class="grid"/>
  <text x="56" y="182.00" text-anchor="end" class="axis">1,302</text>
  <line x1="64" y1="220.00" x2="976" y2="220.00" class="grid"/>
  <text x="56" y="224.00" text-anchor="end" class="axis">868</text>
  <line x1="64" y1="262.00" x2="976" y2="262.00" class="grid"/>
  <text x="56" y="266.00" text-anchor="end" class="axis">434</text>
  <line x1="64" y1="304.00" x2="976" y2="304.00" class="grid"/>
  <text x="56" y="308.00" text-anchor="end" class="axis">0</text>
  <path d="M 64.00 304 L 64.00 304.00 L 77.82 297.32 L 91.64 290.06 L 105.45 283.87 L 119.27 280.77 L 133.09 277.77 L 146.91 274.48 L 160.73 271.10 L 174.55 267.03 L 188.36 264.13 L 202.18 261.52 L 216.00 258.81 L 229.82 255.42 L 243.64 251.16 L 257.45 248.65 L 271.27 245.45 L 285.09 239.16 L 298.91 231.42 L 312.73 223.58 L 326.55 210.81 L 340.36 201.71 L 354.18 193.87 L 368.00 184.39 L 381.82 176.45 L 395.64 169.19 L 409.45 161.26 L 423.27 152.35 L 437.09 142.87 L 450.91 135.32 L 464.73 127.68 L 478.55 119.26 L 492.36 117.90 L 506.18 116.45 L 520.00 113.65 L 533.82 108.42 L 547.64 103.97 L 561.45 98.55 L 575.27 94.19 L 589.09 90.23 L 602.91 84.61 L 616.73 78.32 L 630.55 72.52 L 644.36 67.97 L 658.18 64.97 L 672.00 59.45 L 685.82 54.71 L 699.64 52.39 L 713.45 52.39 L 727.27 52.00 L 741.09 56.74 L 754.91 57.52 L 768.73 57.71 L 782.55 59.16 L 796.36 59.65 L 810.18 57.71 L 824.00 57.03 L 837.82 56.65 L 851.64 56.74 L 865.45 56.74 L 879.27 57.23 L 893.09 56.94 L 906.91 57.23 L 920.73 57.71 L 934.55 58.29 L 948.36 59.06 L 962.18 58.68 L 976.00 60.52 L 976.00 304 Z" fill="url(#fill-monthly-black)"/>
  <polyline class="line" points="64.00,304.00 77.82,297.32 91.64,290.06 105.45,283.87 119.27,280.77 133.09,277.77 146.91,274.48 160.73,271.10 174.55,267.03 188.36,264.13 202.18,261.52 216.00,258.81 229.82,255.42 243.64,251.16 257.45,248.65 271.27,245.45 285.09,239.16 298.91,231.42 312.73,223.58 326.55,210.81 340.36,201.71 354.18,193.87 368.00,184.39 381.82,176.45 395.64,169.19 409.45,161.26 423.27,152.35 437.09,142.87 450.91,135.32 464.73,127.68 478.55,119.26 492.36,117.90 506.18,116.45 520.00,113.65 533.82,108.42 547.64,103.97 561.45,98.55 575.27,94.19 589.09,90.23 602.91,84.61 616.73,78.32 630.55,72.52 644.36,67.97 658.18,64.97 672.00,59.45 685.82,54.71 699.64,52.39 713.45,52.39 727.27,52.00 741.09,56.74 754.91,57.52 768.73,57.71 782.55,59.16 796.36,59.65 810.18,57.71 824.00,57.03 837.82,56.65 851.64,56.74 865.45,56.74 879.27,57.23 893.09,56.94 906.91,57.23 920.73,57.71 934.55,58.29 948.36,59.06 962.18,58.68 976.00,60.52"/>
  <circle class="dot" cx="976.00" cy="60.52" r="4.5"/>
  
  <text class="axis" x="64.00" y="336" text-anchor="start">2026-03-10</text>
  <text class="axis" x="243.64" y="336" text-anchor="middle">2026-03-23</text>
  <text class="axis" x="423.27" y="336" text-anchor="middle">2026-04-05</text>
  <text class="axis" x="602.91" y="336" text-anchor="middle">2026-04-18</text>
  <text class="axis" x="782.55" y="336" text-anchor="middle">2026-05-01</text>
  <text class="axis" x="962.18" y="336" text-anchor="middle">2026-05-14</text>
  <text class="axis" x="976.00" y="336" text-anchor="end">2026-05-15</text>
  <text class="latest" x="976" y="34" text-anchor="end">Latest month: 2,516</text>
</svg>
