<?xml version="1.0" encoding="UTF-8"?>
<svg xmlns="http://www.w3.org/2000/svg" viewBox="0 0 1000 360" role="img" aria-label="hordesmod/kek-ui release downloads chart">
  <defs>
    <linearGradient id="fill-monthly-slate" x1="0" y1="0" x2="0" y2="1">
      <stop offset="0%" stop-color="#60a5fa" stop-opacity="0.32"/>
      <stop offset="100%" stop-color="#60a5fa" stop-opacity="0.05"/>
    </linearGradient>
    <style>
      .bg { fill: #0f172a; }
      .title { font: 700 24px Arial, sans-serif; fill: #e2e8f0; }
      .sub { font: 400 13px Arial, sans-serif; fill: #94a3b8; }
      .grid { stroke: #1e293b; stroke-width: 1; }
      .axis { font: 400 12px Arial, sans-serif; fill: #94a3b8; }
      .line { fill: none; stroke: #60a5fa; stroke-width: 3; stroke-linecap: round; stroke-linejoin: round; }
      .dot { fill: #60a5fa; }
      .value { font: 600 11px Arial, sans-serif; fill: #cbd5e1; }
      .latest { font: 700 14px Arial, sans-serif; fill: #e2e8f0; }
    </style>
  </defs>
  <rect class="bg" x="0" y="0" width="1000" height="360" rx="16" />
  <text class="title" x="64" y="34">hordesmod/kek-ui release downloads</text>
  <text class="sub" x="64" y="352">Generated 2026-04-01</text>
  <line x1="64" y1="52.00" x2="976" y2="52.00" class="grid"/>
  <text x="56" y="56.00" text-anchor="end" class="axis">1,236</text>
  <line x1="64" y1="94.00" x2="976" y2="94.00" class="grid"/>
  <text x="56" y="98.00" text-anchor="end" class="axis">1,030</text>
  <line x1="64" y1="136.00" x2="976" y2="136.00" class="grid"/>
  <text x="56" y="140.00" text-anchor="end" class="axis">824</text>
  <line x1="64" y1="178.00" x2="976" y2="178.00" class="grid"/>
  <text x="56" y="182.00" text-anchor="end" class="axis">618</text>
  <line x1="64" y1="220.00" x2="976" y2="220.00" class="grid"/>
  <text x="56" y="224.00" text-anchor="end" class="axis">412</text>
  <line x1="64" y1="262.00" x2="976" y2="262.00" class="grid"/>
  <text x="56" y="266.00" text-anchor="end" class="axis">206</text>
  <line x1="64" y1="304.00" x2="976" y2="304.00" class="grid"/>
  <text x="56" y="308.00" text-anchor="end" class="axis">0</text>
  <path d="M 64.00 304 L 64.00 304.00 L 105.45 289.93 L 146.91 274.64 L 188.36 261.59 L 229.82 255.07 L 271.27 248.75 L 312.73 241.82 L 354.18 234.68 L 395.64 226.12 L 437.09 220.00 L 478.55 214.50 L 520.00 208.79 L 561.45 201.65 L 602.91 192.68 L 644.36 187.38 L 685.82 180.65 L 727.27 167.40 L 768.73 151.09 L 810.18 134.57 L 851.64 107.66 L 893.09 88.50 L 934.55 71.98 L 976.00 52.00 L 976.00 304 Z" fill="url(#fill-monthly-slate)"/>
  <polyline class="line" points="64.00,304.00 105.45,289.93 146.91,274.64 188.36,261.59 229.82,255.07 271.27,248.75 312.73,241.82 354.18,234.68 395.64,226.12 437.09,220.00 478.55,214.50 520.00,208.79 561.45,201.65 602.91,192.68 644.36,187.38 685.82,180.65 727.27,167.40 768.73,151.09 810.18,134.57 851.64,107.66 893.09,88.50 934.55,71.98 976.00,52.00"/>
  <circle class="dot" cx="976.00" cy="52.00" r="4.5"/>
  
  <text class="axis" x="64.00" y="336" text-anchor="start">2026-03-10</text>
  <text class="axis" x="229.82" y="336" text-anchor="middle">2026-03-14</text>
  <text class="axis" x="395.64" y="336" text-anchor="middle">2026-03-18</text>
  <text class="axis" x="561.45" y="336" text-anchor="middle">2026-03-22</text>
  <text class="axis" x="727.27" y="336" text-anchor="middle">2026-03-26</text>
  <text class="axis" x="893.09" y="336" text-anchor="middle">2026-03-30</text>
  <text class="axis" x="976.00" y="336" text-anchor="end">2026-04-01</text>
  <text class="latest" x="976" y="34" text-anchor="end">Latest month: 1,236</text>
</svg>
