<?xml version="1.0" encoding="UTF-8"?>
<svg xmlns="http://www.w3.org/2000/svg" viewBox="0 0 1000 360" role="img" aria-label="hordesmod/kek-ui release downloads chart">
  <defs>
    <linearGradient id="fill-monthly-slate" x1="0" y1="0" x2="0" y2="1">
      <stop offset="0%" stop-color="#60a5fa" stop-opacity="0.32"/>
      <stop offset="100%" stop-color="#60a5fa" stop-opacity="0.05"/>
    </linearGradient>
    <style>
      .bg { fill: #0f172a; }
      .title { font: 700 24px Arial, sans-serif; fill: #e2e8f0; }
      .sub { font: 400 13px Arial, sans-serif; fill: #94a3b8; }
      .grid { stroke: #1e293b; stroke-width: 1; }
      .axis { font: 400 12px Arial, sans-serif; fill: #94a3b8; }
      .line { fill: none; stroke: #60a5fa; stroke-width: 3; stroke-linecap: round; stroke-linejoin: round; }
      .dot { fill: #60a5fa; }
      .value { font: 600 11px Arial, sans-serif; fill: #cbd5e1; }
      .latest { font: 700 14px Arial, sans-serif; fill: #e2e8f0; }
    </style>
  </defs>
  <rect class="bg" x="0" y="0" width="1000" height="360" rx="16" />
  <text class="title" x="64" y="34">hordesmod/kek-ui release downloads</text>
  <text class="sub" x="64" y="352">Generated 2026-05-09</text>
  <line x1="64" y1="52.00" x2="976" y2="52.00" class="grid"/>
  <text x="56" y="56.00" text-anchor="end" class="axis">2,604</text>
  <line x1="64" y1="94.00" x2="976" y2="94.00" class="grid"/>
  <text x="56" y="98.00" text-anchor="end" class="axis">2,170</text>
  <line x1="64" y1="136.00" x2="976" y2="136.00" class="grid"/>
  <text x="56" y="140.00" text-anchor="end" class="axis">1,736</text>
  <line x1="64" y1="178.00" x2="976" y2="178.00" class="grid"/>
  <text x="56" y="182.00" text-anchor="end" class="axis">1,302</text>
  <line x1="64" y1="220.00" x2="976" y2="220.00" class="grid"/>
  <text x="56" y="224.00" text-anchor="end" class="axis">868</text>
  <line x1="64" y1="262.00" x2="976" y2="262.00" class="grid"/>
  <text x="56" y="266.00" text-anchor="end" class="axis">434</text>
  <line x1="64" y1="304.00" x2="976" y2="304.00" class="grid"/>
  <text x="56" y="308.00" text-anchor="end" class="axis">0</text>
  <path d="M 64.00 304 L 64.00 304.00 L 79.20 297.32 L 94.40 290.06 L 109.60 283.87 L 124.80 280.77 L 140.00 277.77 L 155.20 274.48 L 170.40 271.10 L 185.60 267.03 L 200.80 264.13 L 216.00 261.52 L 231.20 258.81 L 246.40 255.42 L 261.60 251.16 L 276.80 248.65 L 292.00 245.45 L 307.20 239.16 L 322.40 231.42 L 337.60 223.58 L 352.80 210.81 L 368.00 201.71 L 383.20 193.87 L 398.40 184.39 L 413.60 176.45 L 428.80 169.19 L 444.00 161.26 L 459.20 152.35 L 474.40 142.87 L 489.60 135.32 L 504.80 127.68 L 520.00 119.26 L 535.20 117.90 L 550.40 116.45 L 565.60 113.65 L 580.80 108.42 L 596.00 103.97 L 611.20 98.55 L 626.40 94.19 L 641.60 90.23 L 656.80 84.61 L 672.00 78.32 L 687.20 72.52 L 702.40 67.97 L 717.60 64.97 L 732.80 59.45 L 748.00 54.71 L 763.20 52.39 L 778.40 52.39 L 793.60 52.00 L 808.80 56.74 L 824.00 57.52 L 839.20 57.71 L 854.40 59.16 L 869.60 59.65 L 884.80 57.71 L 900.00 57.03 L 915.20 56.65 L 930.40 56.74 L 945.60 56.74 L 960.80 57.23 L 976.00 56.94 L 976.00 304 Z" fill="url(#fill-monthly-slate)"/>
  <polyline class="line" points="64.00,304.00 79.20,297.32 94.40,290.06 109.60,283.87 124.80,280.77 140.00,277.77 155.20,274.48 170.40,271.10 185.60,267.03 200.80,264.13 216.00,261.52 231.20,258.81 246.40,255.42 261.60,251.16 276.80,248.65 292.00,245.45 307.20,239.16 322.40,231.42 337.60,223.58 352.80,210.81 368.00,201.71 383.20,193.87 398.40,184.39 413.60,176.45 428.80,169.19 444.00,161.26 459.20,152.35 474.40,142.87 489.60,135.32 504.80,127.68 520.00,119.26 535.20,117.90 550.40,116.45 565.60,113.65 580.80,108.42 596.00,103.97 611.20,98.55 626.40,94.19 641.60,90.23 656.80,84.61 672.00,78.32 687.20,72.52 702.40,67.97 717.60,64.97 732.80,59.45 748.00,54.71 763.20,52.39 778.40,52.39 793.60,52.00 808.80,56.74 824.00,57.52 839.20,57.71 854.40,59.16 869.60,59.65 884.80,57.71 900.00,57.03 915.20,56.65 930.40,56.74 945.60,56.74 960.80,57.23 976.00,56.94"/>
  <circle class="dot" cx="976.00" cy="56.94" r="4.5"/>
  
  <text class="axis" x="64.00" y="336" text-anchor="start">2026-03-10</text>
  <text class="axis" x="246.40" y="336" text-anchor="middle">2026-03-22</text>
  <text class="axis" x="428.80" y="336" text-anchor="middle">2026-04-03</text>
  <text class="axis" x="611.20" y="336" text-anchor="middle">2026-04-15</text>
  <text class="axis" x="793.60" y="336" text-anchor="middle">2026-04-27</text>
  <text class="axis" x="976.00" y="336" text-anchor="end">2026-05-09</text>
  <text class="latest" x="976" y="34" text-anchor="end">Latest month: 2,553</text>
</svg>
