<?xml version="1.0" encoding="UTF-8"?>
<svg xmlns="http://www.w3.org/2000/svg" viewBox="0 0 1000 360" role="img" aria-label="hordesmod/kek-ui release downloads chart">
  <defs>
    <linearGradient id="fill-monthly-orange" x1="0" y1="0" x2="0" y2="1">
      <stop offset="0%" stop-color="#f97316" stop-opacity="0.32"/>
      <stop offset="100%" stop-color="#f97316" stop-opacity="0.05"/>
    </linearGradient>
    <style>
      .bg { fill: #fff7ed; }
      .title { font: 700 24px Arial, sans-serif; fill: #7c2d12; }
      .sub { font: 400 13px Arial, sans-serif; fill: #9a3412; }
      .grid { stroke: #fed7aa; stroke-width: 1; }
      .axis { font: 400 12px Arial, sans-serif; fill: #c2410c; }
      .line { fill: none; stroke: #ea580c; stroke-width: 3; stroke-linecap: round; stroke-linejoin: round; }
      .dot { fill: #ea580c; }
      .value { font: 600 11px Arial, sans-serif; fill: #9a3412; }
      .latest { font: 700 14px Arial, sans-serif; fill: #7c2d12; }
    </style>
  </defs>
  <rect class="bg" x="0" y="0" width="1000" height="360" rx="16" />
  <text class="title" x="64" y="34">hordesmod/kek-ui release downloads</text>
  <text class="sub" x="64" y="352">Generated 2026-04-24</text>
  <line x1="64" y1="52.00" x2="976" y2="52.00" class="grid"/>
  <text x="56" y="56.00" text-anchor="end" class="axis">2,576</text>
  <line x1="64" y1="94.00" x2="976" y2="94.00" class="grid"/>
  <text x="56" y="98.00" text-anchor="end" class="axis">2,147</text>
  <line x1="64" y1="136.00" x2="976" y2="136.00" class="grid"/>
  <text x="56" y="140.00" text-anchor="end" class="axis">1,717</text>
  <line x1="64" y1="178.00" x2="976" y2="178.00" class="grid"/>
  <text x="56" y="182.00" text-anchor="end" class="axis">1,288</text>
  <line x1="64" y1="220.00" x2="976" y2="220.00" class="grid"/>
  <text x="56" y="224.00" text-anchor="end" class="axis">859</text>
  <line x1="64" y1="262.00" x2="976" y2="262.00" class="grid"/>
  <text x="56" y="266.00" text-anchor="end" class="axis">429</text>
  <line x1="64" y1="304.00" x2="976" y2="304.00" class="grid"/>
  <text x="56" y="308.00" text-anchor="end" class="axis">0</text>
  <path d="M 64.00 304 L 64.00 304.00 L 84.27 297.25 L 104.53 289.91 L 124.80 283.65 L 145.07 280.52 L 165.33 277.49 L 185.60 274.16 L 205.87 270.74 L 226.13 266.63 L 246.40 263.70 L 266.67 261.05 L 286.93 258.32 L 307.20 254.89 L 327.47 250.59 L 347.73 248.04 L 368.00 244.82 L 388.27 238.46 L 408.53 230.63 L 428.80 222.71 L 449.07 209.79 L 469.33 200.60 L 489.60 192.67 L 509.87 183.09 L 530.13 175.07 L 550.40 167.73 L 570.67 159.71 L 590.93 150.71 L 611.20 141.12 L 631.47 133.49 L 651.73 125.76 L 672.00 117.25 L 692.27 115.88 L 712.53 114.41 L 732.80 111.58 L 753.07 106.29 L 773.33 101.79 L 793.60 96.32 L 813.87 91.91 L 834.13 87.90 L 854.40 82.23 L 874.67 75.87 L 894.93 70.00 L 915.20 65.40 L 935.47 62.37 L 955.73 56.79 L 976.00 52.00 L 976.00 304 Z" fill="url(#fill-monthly-orange)"/>
  <polyline class="line" points="64.00,304.00 84.27,297.25 104.53,289.91 124.80,283.65 145.07,280.52 165.33,277.49 185.60,274.16 205.87,270.74 226.13,266.63 246.40,263.70 266.67,261.05 286.93,258.32 307.20,254.89 327.47,250.59 347.73,248.04 368.00,244.82 388.27,238.46 408.53,230.63 428.80,222.71 449.07,209.79 469.33,200.60 489.60,192.67 509.87,183.09 530.13,175.07 550.40,167.73 570.67,159.71 590.93,150.71 611.20,141.12 631.47,133.49 651.73,125.76 672.00,117.25 692.27,115.88 712.53,114.41 732.80,111.58 753.07,106.29 773.33,101.79 793.60,96.32 813.87,91.91 834.13,87.90 854.40,82.23 874.67,75.87 894.93,70.00 915.20,65.40 935.47,62.37 955.73,56.79 976.00,52.00"/>
  <circle class="dot" cx="976.00" cy="52.00" r="4.5"/>
  
  <text class="axis" x="64.00" y="336" text-anchor="start">2026-03-10</text>
  <text class="axis" x="246.40" y="336" text-anchor="middle">2026-03-19</text>
  <text class="axis" x="428.80" y="336" text-anchor="middle">2026-03-28</text>
  <text class="axis" x="611.20" y="336" text-anchor="middle">2026-04-06</text>
  <text class="axis" x="793.60" y="336" text-anchor="middle">2026-04-15</text>
  <text class="axis" x="976.00" y="336" text-anchor="end">2026-04-24</text>
  <text class="latest" x="976" y="34" text-anchor="end">Latest month: 2,576</text>
</svg>
