<?xml version="1.0" encoding="UTF-8"?>
<svg xmlns="http://www.w3.org/2000/svg" viewBox="0 0 1000 360" role="img" aria-label="hordesmod/kek-ui release downloads chart">
  <defs>
    <linearGradient id="fill-monthly-black" x1="0" y1="0" x2="0" y2="1">
      <stop offset="0%" stop-color="#22d3ee" stop-opacity="0.32"/>
      <stop offset="100%" stop-color="#22d3ee" stop-opacity="0.05"/>
    </linearGradient>
    <style>
      .bg { fill: #0b0b0d; }
      .title { font: 700 24px Arial, sans-serif; fill: #f8fafc; }
      .sub { font: 400 13px Arial, sans-serif; fill: #cbd5e1; }
      .grid { stroke: #1f2937; stroke-width: 1; }
      .axis { font: 400 12px Arial, sans-serif; fill: #94a3b8; }
      .line { fill: none; stroke: #22d3ee; stroke-width: 3; stroke-linecap: round; stroke-linejoin: round; }
      .dot { fill: #22d3ee; }
      .value { font: 600 11px Arial, sans-serif; fill: #cbd5e1; }
      .latest { font: 700 14px Arial, sans-serif; fill: #f8fafc; }
    </style>
  </defs>
  <rect class="bg" x="0" y="0" width="1000" height="360" rx="16" />
  <text class="title" x="64" y="34">hordesmod/kek-ui release downloads</text>
  <text class="sub" x="64" y="352">Generated 2026-05-17</text>
  <line x1="64" y1="52.00" x2="976" y2="52.00" class="grid"/>
  <text x="56" y="56.00" text-anchor="end" class="axis">2,604</text>
  <line x1="64" y1="94.00" x2="976" y2="94.00" class="grid"/>
  <text x="56" y="98.00" text-anchor="end" class="axis">2,170</text>
  <line x1="64" y1="136.00" x2="976" y2="136.00" class="grid"/>
  <text x="56" y="140.00" text-anchor="end" class="axis">1,736</text>
  <line x1="64" y1="178.00" x2="976" y2="178.00" class="grid"/>
  <text x="56" y="182.00" text-anchor="end" class="axis">1,302</text>
  <line x1="64" y1="220.00" x2="976" y2="220.00" class="grid"/>
  <text x="56" y="224.00" text-anchor="end" class="axis">868</text>
  <line x1="64" y1="262.00" x2="976" y2="262.00" class="grid"/>
  <text x="56" y="266.00" text-anchor="end" class="axis">434</text>
  <line x1="64" y1="304.00" x2="976" y2="304.00" class="grid"/>
  <text x="56" y="308.00" text-anchor="end" class="axis">0</text>
  <path d="M 64.00 304 L 64.00 304.00 L 77.41 297.32 L 90.82 290.06 L 104.24 283.87 L 117.65 280.77 L 131.06 277.77 L 144.47 274.48 L 157.88 271.10 L 171.29 267.03 L 184.71 264.13 L 198.12 261.52 L 211.53 258.81 L 224.94 255.42 L 238.35 251.16 L 251.76 248.65 L 265.18 245.45 L 278.59 239.16 L 292.00 231.42 L 305.41 223.58 L 318.82 210.81 L 332.24 201.71 L 345.65 193.87 L 359.06 184.39 L 372.47 176.45 L 385.88 169.19 L 399.29 161.26 L 412.71 152.35 L 426.12 142.87 L 439.53 135.32 L 452.94 127.68 L 466.35 119.26 L 479.76 117.90 L 493.18 116.45 L 506.59 113.65 L 520.00 108.42 L 533.41 103.97 L 546.82 98.55 L 560.24 94.19 L 573.65 90.23 L 587.06 84.61 L 600.47 78.32 L 613.88 72.52 L 627.29 67.97 L 640.71 64.97 L 654.12 59.45 L 667.53 54.71 L 680.94 52.39 L 694.35 52.39 L 707.76 52.00 L 721.18 56.74 L 734.59 57.52 L 748.00 57.71 L 761.41 59.16 L 774.82 59.65 L 788.24 57.71 L 801.65 57.03 L 815.06 56.65 L 828.47 56.74 L 841.88 56.74 L 855.29 57.23 L 868.71 56.94 L 882.12 57.23 L 895.53 57.71 L 908.94 58.29 L 922.35 59.06 L 935.76 58.68 L 949.18 60.52 L 962.59 59.74 L 976.00 59.26 L 976.00 304 Z" fill="url(#fill-monthly-black)"/>
  <polyline class="line" points="64.00,304.00 77.41,297.32 90.82,290.06 104.24,283.87 117.65,280.77 131.06,277.77 144.47,274.48 157.88,271.10 171.29,267.03 184.71,264.13 198.12,261.52 211.53,258.81 224.94,255.42 238.35,251.16 251.76,248.65 265.18,245.45 278.59,239.16 292.00,231.42 305.41,223.58 318.82,210.81 332.24,201.71 345.65,193.87 359.06,184.39 372.47,176.45 385.88,169.19 399.29,161.26 412.71,152.35 426.12,142.87 439.53,135.32 452.94,127.68 466.35,119.26 479.76,117.90 493.18,116.45 506.59,113.65 520.00,108.42 533.41,103.97 546.82,98.55 560.24,94.19 573.65,90.23 587.06,84.61 600.47,78.32 613.88,72.52 627.29,67.97 640.71,64.97 654.12,59.45 667.53,54.71 680.94,52.39 694.35,52.39 707.76,52.00 721.18,56.74 734.59,57.52 748.00,57.71 761.41,59.16 774.82,59.65 788.24,57.71 801.65,57.03 815.06,56.65 828.47,56.74 841.88,56.74 855.29,57.23 868.71,56.94 882.12,57.23 895.53,57.71 908.94,58.29 922.35,59.06 935.76,58.68 949.18,60.52 962.59,59.74 976.00,59.26"/>
  <circle class="dot" cx="976.00" cy="59.26" r="4.5"/>
  
  <text class="axis" x="64.00" y="336" text-anchor="start">2026-03-10</text>
  <text class="axis" x="238.35" y="336" text-anchor="middle">2026-03-23</text>
  <text class="axis" x="412.71" y="336" text-anchor="middle">2026-04-05</text>
  <text class="axis" x="587.06" y="336" text-anchor="middle">2026-04-18</text>
  <text class="axis" x="761.41" y="336" text-anchor="middle">2026-05-01</text>
  <text class="axis" x="935.76" y="336" text-anchor="middle">2026-05-14</text>
  <text class="axis" x="976.00" y="336" text-anchor="end">2026-05-17</text>
  <text class="latest" x="976" y="34" text-anchor="end">Latest month: 2,529</text>
</svg>
