<?xml version="1.0" encoding="UTF-8"?>
<svg xmlns="http://www.w3.org/2000/svg" viewBox="0 0 1000 360" role="img" aria-label="hordesmod/kek-ui release downloads chart">
  <defs>
    <linearGradient id="fill-monthly-orange" x1="0" y1="0" x2="0" y2="1">
      <stop offset="0%" stop-color="#f97316" stop-opacity="0.32"/>
      <stop offset="100%" stop-color="#f97316" stop-opacity="0.05"/>
    </linearGradient>
    <style>
      .bg { fill: #fff7ed; }
      .title { font: 700 24px Arial, sans-serif; fill: #7c2d12; }
      .sub { font: 400 13px Arial, sans-serif; fill: #9a3412; }
      .grid { stroke: #fed7aa; stroke-width: 1; }
      .axis { font: 400 12px Arial, sans-serif; fill: #c2410c; }
      .line { fill: none; stroke: #ea580c; stroke-width: 3; stroke-linecap: round; stroke-linejoin: round; }
      .dot { fill: #ea580c; }
      .value { font: 600 11px Arial, sans-serif; fill: #9a3412; }
      .latest { font: 700 14px Arial, sans-serif; fill: #7c2d12; }
    </style>
  </defs>
  <rect class="bg" x="0" y="0" width="1000" height="360" rx="16" />
  <text class="title" x="64" y="34">hordesmod/kek-ui release downloads</text>
  <text class="sub" x="64" y="352">Generated 2026-05-07</text>
  <line x1="64" y1="52.00" x2="976" y2="52.00" class="grid"/>
  <text x="56" y="56.00" text-anchor="end" class="axis">2,604</text>
  <line x1="64" y1="94.00" x2="976" y2="94.00" class="grid"/>
  <text x="56" y="98.00" text-anchor="end" class="axis">2,170</text>
  <line x1="64" y1="136.00" x2="976" y2="136.00" class="grid"/>
  <text x="56" y="140.00" text-anchor="end" class="axis">1,736</text>
  <line x1="64" y1="178.00" x2="976" y2="178.00" class="grid"/>
  <text x="56" y="182.00" text-anchor="end" class="axis">1,302</text>
  <line x1="64" y1="220.00" x2="976" y2="220.00" class="grid"/>
  <text x="56" y="224.00" text-anchor="end" class="axis">868</text>
  <line x1="64" y1="262.00" x2="976" y2="262.00" class="grid"/>
  <text x="56" y="266.00" text-anchor="end" class="axis">434</text>
  <line x1="64" y1="304.00" x2="976" y2="304.00" class="grid"/>
  <text x="56" y="308.00" text-anchor="end" class="axis">0</text>
  <path d="M 64.00 304 L 64.00 304.00 L 79.72 297.32 L 95.45 290.06 L 111.17 283.87 L 126.90 280.77 L 142.62 277.77 L 158.34 274.48 L 174.07 271.10 L 189.79 267.03 L 205.52 264.13 L 221.24 261.52 L 236.97 258.81 L 252.69 255.42 L 268.41 251.16 L 284.14 248.65 L 299.86 245.45 L 315.59 239.16 L 331.31 231.42 L 347.03 223.58 L 362.76 210.81 L 378.48 201.71 L 394.21 193.87 L 409.93 184.39 L 425.66 176.45 L 441.38 169.19 L 457.10 161.26 L 472.83 152.35 L 488.55 142.87 L 504.28 135.32 L 520.00 127.68 L 535.72 119.26 L 551.45 117.90 L 567.17 116.45 L 582.90 113.65 L 598.62 108.42 L 614.34 103.97 L 630.07 98.55 L 645.79 94.19 L 661.52 90.23 L 677.24 84.61 L 692.97 78.32 L 708.69 72.52 L 724.41 67.97 L 740.14 64.97 L 755.86 59.45 L 771.59 54.71 L 787.31 52.39 L 803.03 52.39 L 818.76 52.00 L 834.48 56.74 L 850.21 57.52 L 865.93 57.71 L 881.66 59.16 L 897.38 59.65 L 913.10 57.71 L 928.83 57.03 L 944.55 56.65 L 960.28 56.74 L 976.00 56.74 L 976.00 304 Z" fill="url(#fill-monthly-orange)"/>
  <polyline class="line" points="64.00,304.00 79.72,297.32 95.45,290.06 111.17,283.87 126.90,280.77 142.62,277.77 158.34,274.48 174.07,271.10 189.79,267.03 205.52,264.13 221.24,261.52 236.97,258.81 252.69,255.42 268.41,251.16 284.14,248.65 299.86,245.45 315.59,239.16 331.31,231.42 347.03,223.58 362.76,210.81 378.48,201.71 394.21,193.87 409.93,184.39 425.66,176.45 441.38,169.19 457.10,161.26 472.83,152.35 488.55,142.87 504.28,135.32 520.00,127.68 535.72,119.26 551.45,117.90 567.17,116.45 582.90,113.65 598.62,108.42 614.34,103.97 630.07,98.55 645.79,94.19 661.52,90.23 677.24,84.61 692.97,78.32 708.69,72.52 724.41,67.97 740.14,64.97 755.86,59.45 771.59,54.71 787.31,52.39 803.03,52.39 818.76,52.00 834.48,56.74 850.21,57.52 865.93,57.71 881.66,59.16 897.38,59.65 913.10,57.71 928.83,57.03 944.55,56.65 960.28,56.74 976.00,56.74"/>
  <circle class="dot" cx="976.00" cy="56.74" r="4.5"/>
  
  <text class="axis" x="64.00" y="336" text-anchor="start">2026-03-10</text>
  <text class="axis" x="236.97" y="336" text-anchor="middle">2026-03-21</text>
  <text class="axis" x="409.93" y="336" text-anchor="middle">2026-04-01</text>
  <text class="axis" x="582.90" y="336" text-anchor="middle">2026-04-12</text>
  <text class="axis" x="755.86" y="336" text-anchor="middle">2026-04-23</text>
  <text class="axis" x="928.83" y="336" text-anchor="middle">2026-05-04</text>
  <text class="axis" x="976.00" y="336" text-anchor="end">2026-05-07</text>
  <text class="latest" x="976" y="34" text-anchor="end">Latest month: 2,555</text>
</svg>
