<?xml version="1.0" encoding="UTF-8"?>
<svg xmlns="http://www.w3.org/2000/svg" viewBox="0 0 1000 360" role="img" aria-label="hordesmod/kek-ui release downloads chart">
  <defs>
    <linearGradient id="fill-monthly-orange" x1="0" y1="0" x2="0" y2="1">
      <stop offset="0%" stop-color="#f97316" stop-opacity="0.32"/>
      <stop offset="100%" stop-color="#f97316" stop-opacity="0.05"/>
    </linearGradient>
    <style>
      .bg { fill: #fff7ed; }
      .title { font: 700 24px Arial, sans-serif; fill: #7c2d12; }
      .sub { font: 400 13px Arial, sans-serif; fill: #9a3412; }
      .grid { stroke: #fed7aa; stroke-width: 1; }
      .axis { font: 400 12px Arial, sans-serif; fill: #c2410c; }
      .line { fill: none; stroke: #ea580c; stroke-width: 3; stroke-linecap: round; stroke-linejoin: round; }
      .dot { fill: #ea580c; }
      .value { font: 600 11px Arial, sans-serif; fill: #9a3412; }
      .latest { font: 700 14px Arial, sans-serif; fill: #7c2d12; }
    </style>
  </defs>
  <rect class="bg" x="0" y="0" width="1000" height="360" rx="16" />
  <text class="title" x="64" y="34">hordesmod/kek-ui release downloads</text>
  <text class="sub" x="64" y="352">Generated 2026-04-28</text>
  <line x1="64" y1="52.00" x2="976" y2="52.00" class="grid"/>
  <text x="56" y="56.00" text-anchor="end" class="axis">2,604</text>
  <line x1="64" y1="94.00" x2="976" y2="94.00" class="grid"/>
  <text x="56" y="98.00" text-anchor="end" class="axis">2,170</text>
  <line x1="64" y1="136.00" x2="976" y2="136.00" class="grid"/>
  <text x="56" y="140.00" text-anchor="end" class="axis">1,736</text>
  <line x1="64" y1="178.00" x2="976" y2="178.00" class="grid"/>
  <text x="56" y="182.00" text-anchor="end" class="axis">1,302</text>
  <line x1="64" y1="220.00" x2="976" y2="220.00" class="grid"/>
  <text x="56" y="224.00" text-anchor="end" class="axis">868</text>
  <line x1="64" y1="262.00" x2="976" y2="262.00" class="grid"/>
  <text x="56" y="266.00" text-anchor="end" class="axis">434</text>
  <line x1="64" y1="304.00" x2="976" y2="304.00" class="grid"/>
  <text x="56" y="308.00" text-anchor="end" class="axis">0</text>
  <path d="M 64.00 304 L 64.00 304.00 L 82.61 297.32 L 101.22 290.06 L 119.84 283.87 L 138.45 280.77 L 157.06 277.77 L 175.67 274.48 L 194.29 271.10 L 212.90 267.03 L 231.51 264.13 L 250.12 261.52 L 268.73 258.81 L 287.35 255.42 L 305.96 251.16 L 324.57 248.65 L 343.18 245.45 L 361.80 239.16 L 380.41 231.42 L 399.02 223.58 L 417.63 210.81 L 436.24 201.71 L 454.86 193.87 L 473.47 184.39 L 492.08 176.45 L 510.69 169.19 L 529.31 161.26 L 547.92 152.35 L 566.53 142.87 L 585.14 135.32 L 603.76 127.68 L 622.37 119.26 L 640.98 117.90 L 659.59 116.45 L 678.20 113.65 L 696.82 108.42 L 715.43 103.97 L 734.04 98.55 L 752.65 94.19 L 771.27 90.23 L 789.88 84.61 L 808.49 78.32 L 827.10 72.52 L 845.71 67.97 L 864.33 64.97 L 882.94 59.45 L 901.55 54.71 L 920.16 52.39 L 938.78 52.39 L 957.39 52.00 L 976.00 56.74 L 976.00 304 Z" fill="url(#fill-monthly-orange)"/>
  <polyline class="line" points="64.00,304.00 82.61,297.32 101.22,290.06 119.84,283.87 138.45,280.77 157.06,277.77 175.67,274.48 194.29,271.10 212.90,267.03 231.51,264.13 250.12,261.52 268.73,258.81 287.35,255.42 305.96,251.16 324.57,248.65 343.18,245.45 361.80,239.16 380.41,231.42 399.02,223.58 417.63,210.81 436.24,201.71 454.86,193.87 473.47,184.39 492.08,176.45 510.69,169.19 529.31,161.26 547.92,152.35 566.53,142.87 585.14,135.32 603.76,127.68 622.37,119.26 640.98,117.90 659.59,116.45 678.20,113.65 696.82,108.42 715.43,103.97 734.04,98.55 752.65,94.19 771.27,90.23 789.88,84.61 808.49,78.32 827.10,72.52 845.71,67.97 864.33,64.97 882.94,59.45 901.55,54.71 920.16,52.39 938.78,52.39 957.39,52.00 976.00,56.74"/>
  <circle class="dot" cx="976.00" cy="56.74" r="4.5"/>
  
  <text class="axis" x="64.00" y="336" text-anchor="start">2026-03-10</text>
  <text class="axis" x="231.51" y="336" text-anchor="middle">2026-03-19</text>
  <text class="axis" x="399.02" y="336" text-anchor="middle">2026-03-28</text>
  <text class="axis" x="566.53" y="336" text-anchor="middle">2026-04-06</text>
  <text class="axis" x="734.04" y="336" text-anchor="middle">2026-04-15</text>
  <text class="axis" x="901.55" y="336" text-anchor="middle">2026-04-24</text>
  <text class="axis" x="976.00" y="336" text-anchor="end">2026-04-28</text>
  <text class="latest" x="976" y="34" text-anchor="end">Latest month: 2,555</text>
</svg>
