<?xml version="1.0" encoding="UTF-8"?>
<svg xmlns="http://www.w3.org/2000/svg" viewBox="0 0 1000 360" role="img" aria-label="hordesmod/kek-ui release downloads chart">
  <defs>
    <linearGradient id="fill-monthly-black" x1="0" y1="0" x2="0" y2="1">
      <stop offset="0%" stop-color="#22d3ee" stop-opacity="0.32"/>
      <stop offset="100%" stop-color="#22d3ee" stop-opacity="0.05"/>
    </linearGradient>
    <style>
      .bg { fill: #0b0b0d; }
      .title { font: 700 24px Arial, sans-serif; fill: #f8fafc; }
      .sub { font: 400 13px Arial, sans-serif; fill: #cbd5e1; }
      .grid { stroke: #1f2937; stroke-width: 1; }
      .axis { font: 400 12px Arial, sans-serif; fill: #94a3b8; }
      .line { fill: none; stroke: #22d3ee; stroke-width: 3; stroke-linecap: round; stroke-linejoin: round; }
      .dot { fill: #22d3ee; }
      .value { font: 600 11px Arial, sans-serif; fill: #cbd5e1; }
      .latest { font: 700 14px Arial, sans-serif; fill: #f8fafc; }
    </style>
  </defs>
  <rect class="bg" x="0" y="0" width="1000" height="360" rx="16" />
  <text class="title" x="64" y="34">hordesmod/kek-ui release downloads</text>
  <text class="sub" x="64" y="352">Generated 2026-04-29</text>
  <line x1="64" y1="52.00" x2="976" y2="52.00" class="grid"/>
  <text x="56" y="56.00" text-anchor="end" class="axis">2,604</text>
  <line x1="64" y1="94.00" x2="976" y2="94.00" class="grid"/>
  <text x="56" y="98.00" text-anchor="end" class="axis">2,170</text>
  <line x1="64" y1="136.00" x2="976" y2="136.00" class="grid"/>
  <text x="56" y="140.00" text-anchor="end" class="axis">1,736</text>
  <line x1="64" y1="178.00" x2="976" y2="178.00" class="grid"/>
  <text x="56" y="182.00" text-anchor="end" class="axis">1,302</text>
  <line x1="64" y1="220.00" x2="976" y2="220.00" class="grid"/>
  <text x="56" y="224.00" text-anchor="end" class="axis">868</text>
  <line x1="64" y1="262.00" x2="976" y2="262.00" class="grid"/>
  <text x="56" y="266.00" text-anchor="end" class="axis">434</text>
  <line x1="64" y1="304.00" x2="976" y2="304.00" class="grid"/>
  <text x="56" y="308.00" text-anchor="end" class="axis">0</text>
  <path d="M 64.00 304 L 64.00 304.00 L 82.24 297.32 L 100.48 290.06 L 118.72 283.87 L 136.96 280.77 L 155.20 277.77 L 173.44 274.48 L 191.68 271.10 L 209.92 267.03 L 228.16 264.13 L 246.40 261.52 L 264.64 258.81 L 282.88 255.42 L 301.12 251.16 L 319.36 248.65 L 337.60 245.45 L 355.84 239.16 L 374.08 231.42 L 392.32 223.58 L 410.56 210.81 L 428.80 201.71 L 447.04 193.87 L 465.28 184.39 L 483.52 176.45 L 501.76 169.19 L 520.00 161.26 L 538.24 152.35 L 556.48 142.87 L 574.72 135.32 L 592.96 127.68 L 611.20 119.26 L 629.44 117.90 L 647.68 116.45 L 665.92 113.65 L 684.16 108.42 L 702.40 103.97 L 720.64 98.55 L 738.88 94.19 L 757.12 90.23 L 775.36 84.61 L 793.60 78.32 L 811.84 72.52 L 830.08 67.97 L 848.32 64.97 L 866.56 59.45 L 884.80 54.71 L 903.04 52.39 L 921.28 52.39 L 939.52 52.00 L 957.76 56.74 L 976.00 57.52 L 976.00 304 Z" fill="url(#fill-monthly-black)"/>
  <polyline class="line" points="64.00,304.00 82.24,297.32 100.48,290.06 118.72,283.87 136.96,280.77 155.20,277.77 173.44,274.48 191.68,271.10 209.92,267.03 228.16,264.13 246.40,261.52 264.64,258.81 282.88,255.42 301.12,251.16 319.36,248.65 337.60,245.45 355.84,239.16 374.08,231.42 392.32,223.58 410.56,210.81 428.80,201.71 447.04,193.87 465.28,184.39 483.52,176.45 501.76,169.19 520.00,161.26 538.24,152.35 556.48,142.87 574.72,135.32 592.96,127.68 611.20,119.26 629.44,117.90 647.68,116.45 665.92,113.65 684.16,108.42 702.40,103.97 720.64,98.55 738.88,94.19 757.12,90.23 775.36,84.61 793.60,78.32 811.84,72.52 830.08,67.97 848.32,64.97 866.56,59.45 884.80,54.71 903.04,52.39 921.28,52.39 939.52,52.00 957.76,56.74 976.00,57.52"/>
  <circle class="dot" cx="976.00" cy="57.52" r="4.5"/>
  
  <text class="axis" x="64.00" y="336" text-anchor="start">2026-03-10</text>
  <text class="axis" x="246.40" y="336" text-anchor="middle">2026-03-20</text>
  <text class="axis" x="428.80" y="336" text-anchor="middle">2026-03-30</text>
  <text class="axis" x="611.20" y="336" text-anchor="middle">2026-04-09</text>
  <text class="axis" x="793.60" y="336" text-anchor="middle">2026-04-19</text>
  <text class="axis" x="976.00" y="336" text-anchor="end">2026-04-29</text>
  <text class="latest" x="976" y="34" text-anchor="end">Latest month: 2,547</text>
</svg>
