<?xml version="1.0" encoding="UTF-8"?>
<svg xmlns="http://www.w3.org/2000/svg" viewBox="0 0 1000 360" role="img" aria-label="hordesmod/kek-ui release downloads chart">
  <defs>
    <linearGradient id="fill-total-trend-slate" x1="0" y1="0" x2="0" y2="1">
      <stop offset="0%" stop-color="#60a5fa" stop-opacity="0.32"/>
      <stop offset="100%" stop-color="#60a5fa" stop-opacity="0.05"/>
    </linearGradient>
    <style>
      .bg { fill: #0f172a; }
      .title { font: 700 24px Arial, sans-serif; fill: #e2e8f0; }
      .sub { font: 400 13px Arial, sans-serif; fill: #94a3b8; }
      .grid { stroke: #1e293b; stroke-width: 1; }
      .axis { font: 400 12px Arial, sans-serif; fill: #94a3b8; }
      .line { fill: none; stroke: #60a5fa; stroke-width: 3; stroke-linecap: round; stroke-linejoin: round; }
      .dot { fill: #60a5fa; }
      .value { font: 600 11px Arial, sans-serif; fill: #cbd5e1; }
      .latest { font: 700 14px Arial, sans-serif; fill: #e2e8f0; }
    </style>
  </defs>
  <rect class="bg" x="0" y="0" width="1000" height="360" rx="16" />
  <text class="title" x="64" y="34">hordesmod/kek-ui release downloads</text>
  <text class="sub" x="64" y="352">Generated 2026-04-10</text>
  <line x1="64" y1="52.00" x2="976" y2="52.00" class="grid"/>
  <text x="56" y="56.00" text-anchor="end" class="axis">64,330</text>
  <line x1="64" y1="94.00" x2="976" y2="94.00" class="grid"/>
  <text x="56" y="98.00" text-anchor="end" class="axis">53,608</text>
  <line x1="64" y1="136.00" x2="976" y2="136.00" class="grid"/>
  <text x="56" y="140.00" text-anchor="end" class="axis">42,887</text>
  <line x1="64" y1="178.00" x2="976" y2="178.00" class="grid"/>
  <text x="56" y="182.00" text-anchor="end" class="axis">32,165</text>
  <line x1="64" y1="220.00" x2="976" y2="220.00" class="grid"/>
  <text x="56" y="224.00" text-anchor="end" class="axis">21,443</text>
  <line x1="64" y1="262.00" x2="976" y2="262.00" class="grid"/>
  <text x="56" y="266.00" text-anchor="end" class="axis">10,722</text>
  <line x1="64" y1="304.00" x2="976" y2="304.00" class="grid"/>
  <text x="56" y="308.00" text-anchor="end" class="axis">0</text>
  <path d="M 64.00 304 L 64.00 59.80 L 93.42 59.53 L 122.84 59.24 L 152.26 58.99 L 181.68 58.86 L 211.10 58.74 L 240.52 58.61 L 269.94 58.47 L 299.35 58.31 L 328.77 58.19 L 358.19 58.08 L 387.61 57.97 L 417.03 57.84 L 446.45 57.66 L 475.87 57.56 L 505.29 57.43 L 534.71 57.18 L 564.13 56.87 L 593.55 56.55 L 622.97 56.03 L 652.39 55.66 L 681.81 55.35 L 711.23 54.96 L 740.65 54.64 L 770.06 54.35 L 799.48 54.03 L 828.90 53.66 L 858.32 53.28 L 887.74 52.98 L 917.16 52.67 L 946.58 52.33 L 976.00 52.00 L 976.00 304 Z" fill="url(#fill-total-trend-slate)"/>
  <polyline class="line" points="64.00,59.80 93.42,59.53 122.84,59.24 152.26,58.99 181.68,58.86 211.10,58.74 240.52,58.61 269.94,58.47 299.35,58.31 328.77,58.19 358.19,58.08 387.61,57.97 417.03,57.84 446.45,57.66 475.87,57.56 505.29,57.43 534.71,57.18 564.13,56.87 593.55,56.55 622.97,56.03 652.39,55.66 681.81,55.35 711.23,54.96 740.65,54.64 770.06,54.35 799.48,54.03 828.90,53.66 858.32,53.28 887.74,52.98 917.16,52.67 946.58,52.33 976.00,52.00"/>
  <circle class="dot" cx="976.00" cy="52.00" r="4.5"/>
  
  <text class="axis" x="64.00" y="336" text-anchor="start">2026-03-10</text>
  <text class="axis" x="240.52" y="336" text-anchor="middle">2026-03-16</text>
  <text class="axis" x="417.03" y="336" text-anchor="middle">2026-03-22</text>
  <text class="axis" x="593.55" y="336" text-anchor="middle">2026-03-28</text>
  <text class="axis" x="770.06" y="336" text-anchor="middle">2026-04-03</text>
  <text class="axis" x="946.58" y="336" text-anchor="middle">2026-04-09</text>
  <text class="axis" x="976.00" y="336" text-anchor="end">2026-04-10</text>
  <text class="latest" x="976" y="34" text-anchor="end">Latest total: 64,330</text>
</svg>
