<?xml version="1.0" encoding="UTF-8"?>
<svg xmlns="http://www.w3.org/2000/svg" viewBox="0 0 1000 360" role="img" aria-label="hordesmod/kek-ui release downloads chart">
  <defs>
    <linearGradient id="fill-total-trend-black" x1="0" y1="0" x2="0" y2="1">
      <stop offset="0%" stop-color="#22d3ee" stop-opacity="0.32"/>
      <stop offset="100%" stop-color="#22d3ee" stop-opacity="0.05"/>
    </linearGradient>
    <style>
      .bg { fill: #0b0b0d; }
      .title { font: 700 24px Arial, sans-serif; fill: #f8fafc; }
      .sub { font: 400 13px Arial, sans-serif; fill: #cbd5e1; }
      .grid { stroke: #1f2937; stroke-width: 1; }
      .axis { font: 400 12px Arial, sans-serif; fill: #94a3b8; }
      .line { fill: none; stroke: #22d3ee; stroke-width: 3; stroke-linecap: round; stroke-linejoin: round; }
      .dot { fill: #22d3ee; }
      .value { font: 600 11px Arial, sans-serif; fill: #cbd5e1; }
      .latest { font: 700 14px Arial, sans-serif; fill: #f8fafc; }
    </style>
  </defs>
  <rect class="bg" x="0" y="0" width="1000" height="360" rx="16" />
  <text class="title" x="64" y="34">hordesmod/kek-ui release downloads</text>
  <text class="sub" x="64" y="352">Generated 2026-05-02</text>
  <line x1="64" y1="52.00" x2="976" y2="52.00" class="grid"/>
  <text x="56" y="56.00" text-anchor="end" class="axis">66,181</text>
  <line x1="64" y1="94.00" x2="976" y2="94.00" class="grid"/>
  <text x="56" y="98.00" text-anchor="end" class="axis">55,151</text>
  <line x1="64" y1="136.00" x2="976" y2="136.00" class="grid"/>
  <text x="56" y="140.00" text-anchor="end" class="axis">44,121</text>
  <line x1="64" y1="178.00" x2="976" y2="178.00" class="grid"/>
  <text x="56" y="182.00" text-anchor="end" class="axis">33,091</text>
  <line x1="64" y1="220.00" x2="976" y2="220.00" class="grid"/>
  <text x="56" y="224.00" text-anchor="end" class="axis">22,060</text>
  <line x1="64" y1="262.00" x2="976" y2="262.00" class="grid"/>
  <text x="56" y="266.00" text-anchor="end" class="axis">11,030</text>
  <line x1="64" y1="304.00" x2="976" y2="304.00" class="grid"/>
  <text x="56" y="308.00" text-anchor="end" class="axis">0</text>
  <path d="M 64.00 304 L 64.00 66.63 L 81.21 66.37 L 98.42 66.08 L 115.62 65.84 L 132.83 65.72 L 150.04 65.60 L 167.25 65.47 L 184.45 65.34 L 201.66 65.18 L 218.87 65.06 L 236.08 64.96 L 253.28 64.85 L 270.49 64.72 L 287.70 64.55 L 304.91 64.46 L 322.11 64.33 L 339.32 64.08 L 356.53 63.78 L 373.74 63.47 L 390.94 62.97 L 408.15 62.61 L 425.36 62.30 L 442.57 61.93 L 459.77 61.61 L 476.98 61.33 L 494.19 61.02 L 511.40 60.67 L 528.60 60.29 L 545.81 60.00 L 563.02 59.70 L 580.23 59.36 L 597.43 59.05 L 614.64 58.71 L 631.85 58.35 L 649.06 58.02 L 666.26 57.73 L 683.47 57.39 L 700.68 57.08 L 717.89 56.77 L 735.09 56.43 L 752.30 56.08 L 769.51 55.75 L 786.72 55.43 L 803.92 55.15 L 821.13 54.83 L 838.34 54.52 L 855.55 54.18 L 872.75 53.88 L 889.96 53.55 L 907.17 53.24 L 924.38 52.91 L 941.58 52.61 L 958.79 52.29 L 976.00 52.00 L 976.00 304 Z" fill="url(#fill-total-trend-black)"/>
  <polyline class="line" points="64.00,66.63 81.21,66.37 98.42,66.08 115.62,65.84 132.83,65.72 150.04,65.60 167.25,65.47 184.45,65.34 201.66,65.18 218.87,65.06 236.08,64.96 253.28,64.85 270.49,64.72 287.70,64.55 304.91,64.46 322.11,64.33 339.32,64.08 356.53,63.78 373.74,63.47 390.94,62.97 408.15,62.61 425.36,62.30 442.57,61.93 459.77,61.61 476.98,61.33 494.19,61.02 511.40,60.67 528.60,60.29 545.81,60.00 563.02,59.70 580.23,59.36 597.43,59.05 614.64,58.71 631.85,58.35 649.06,58.02 666.26,57.73 683.47,57.39 700.68,57.08 717.89,56.77 735.09,56.43 752.30,56.08 769.51,55.75 786.72,55.43 803.92,55.15 821.13,54.83 838.34,54.52 855.55,54.18 872.75,53.88 889.96,53.55 907.17,53.24 924.38,52.91 941.58,52.61 958.79,52.29 976.00,52.00"/>
  <circle class="dot" cx="976.00" cy="52.00" r="4.5"/>
  
  <text class="axis" x="64.00" y="336" text-anchor="start">2026-03-10</text>
  <text class="axis" x="236.08" y="336" text-anchor="middle">2026-03-20</text>
  <text class="axis" x="408.15" y="336" text-anchor="middle">2026-03-30</text>
  <text class="axis" x="580.23" y="336" text-anchor="middle">2026-04-09</text>
  <text class="axis" x="752.30" y="336" text-anchor="middle">2026-04-19</text>
  <text class="axis" x="924.38" y="336" text-anchor="middle">2026-04-29</text>
  <text class="axis" x="976.00" y="336" text-anchor="end">2026-05-02</text>
  <text class="latest" x="976" y="34" text-anchor="end">Latest total: 66,181</text>
</svg>
