<?xml version="1.0" encoding="UTF-8"?>
<svg xmlns="http://www.w3.org/2000/svg" viewBox="0 0 1000 360" role="img" aria-label="hordesmod/kek-ui release downloads chart">
  <defs>
    <linearGradient id="fill-total-trend-orange" x1="0" y1="0" x2="0" y2="1">
      <stop offset="0%" stop-color="#f97316" stop-opacity="0.32"/>
      <stop offset="100%" stop-color="#f97316" stop-opacity="0.05"/>
    </linearGradient>
    <style>
      .bg { fill: #fff7ed; }
      .title { font: 700 24px Arial, sans-serif; fill: #7c2d12; }
      .sub { font: 400 13px Arial, sans-serif; fill: #9a3412; }
      .grid { stroke: #fed7aa; stroke-width: 1; }
      .axis { font: 400 12px Arial, sans-serif; fill: #c2410c; }
      .line { fill: none; stroke: #ea580c; stroke-width: 3; stroke-linecap: round; stroke-linejoin: round; }
      .dot { fill: #ea580c; }
      .value { font: 600 11px Arial, sans-serif; fill: #9a3412; }
      .latest { font: 700 14px Arial, sans-serif; fill: #7c2d12; }
    </style>
  </defs>
  <rect class="bg" x="0" y="0" width="1000" height="360" rx="16" />
  <text class="title" x="64" y="34">hordesmod/kek-ui release downloads</text>
  <text class="sub" x="64" y="352">Generated 2026-04-15</text>
  <line x1="64" y1="52.00" x2="976" y2="52.00" class="grid"/>
  <text x="56" y="56.00" text-anchor="end" class="axis">64,766</text>
  <line x1="64" y1="94.00" x2="976" y2="94.00" class="grid"/>
  <text x="56" y="98.00" text-anchor="end" class="axis">53,972</text>
  <line x1="64" y1="136.00" x2="976" y2="136.00" class="grid"/>
  <text x="56" y="140.00" text-anchor="end" class="axis">43,177</text>
  <line x1="64" y1="178.00" x2="976" y2="178.00" class="grid"/>
  <text x="56" y="182.00" text-anchor="end" class="axis">32,383</text>
  <line x1="64" y1="220.00" x2="976" y2="220.00" class="grid"/>
  <text x="56" y="224.00" text-anchor="end" class="axis">21,589</text>
  <line x1="64" y1="262.00" x2="976" y2="262.00" class="grid"/>
  <text x="56" y="266.00" text-anchor="end" class="axis">10,794</text>
  <line x1="64" y1="304.00" x2="976" y2="304.00" class="grid"/>
  <text x="56" y="308.00" text-anchor="end" class="axis">0</text>
  <path d="M 64.00 304 L 64.00 61.45 L 89.33 61.18 L 114.67 60.89 L 140.00 60.64 L 165.33 60.51 L 190.67 60.39 L 216.00 60.26 L 241.33 60.12 L 266.67 59.96 L 292.00 59.84 L 317.33 59.74 L 342.67 59.63 L 368.00 59.49 L 393.33 59.32 L 418.67 59.22 L 444.00 59.09 L 469.33 58.84 L 494.67 58.53 L 520.00 58.21 L 545.33 57.70 L 570.67 57.33 L 596.00 57.02 L 621.33 56.64 L 646.67 56.32 L 672.00 56.03 L 697.33 55.71 L 722.67 55.35 L 748.00 54.97 L 773.33 54.67 L 798.67 54.36 L 824.00 54.02 L 849.33 53.70 L 874.67 53.35 L 900.00 52.98 L 925.33 52.65 L 950.67 52.35 L 976.00 52.00 L 976.00 304 Z" fill="url(#fill-total-trend-orange)"/>
  <polyline class="line" points="64.00,61.45 89.33,61.18 114.67,60.89 140.00,60.64 165.33,60.51 190.67,60.39 216.00,60.26 241.33,60.12 266.67,59.96 292.00,59.84 317.33,59.74 342.67,59.63 368.00,59.49 393.33,59.32 418.67,59.22 444.00,59.09 469.33,58.84 494.67,58.53 520.00,58.21 545.33,57.70 570.67,57.33 596.00,57.02 621.33,56.64 646.67,56.32 672.00,56.03 697.33,55.71 722.67,55.35 748.00,54.97 773.33,54.67 798.67,54.36 824.00,54.02 849.33,53.70 874.67,53.35 900.00,52.98 925.33,52.65 950.67,52.35 976.00,52.00"/>
  <circle class="dot" cx="976.00" cy="52.00" r="4.5"/>
  
  <text class="axis" x="64.00" y="336" text-anchor="start">2026-03-10</text>
  <text class="axis" x="241.33" y="336" text-anchor="middle">2026-03-17</text>
  <text class="axis" x="418.67" y="336" text-anchor="middle">2026-03-24</text>
  <text class="axis" x="596.00" y="336" text-anchor="middle">2026-03-31</text>
  <text class="axis" x="773.33" y="336" text-anchor="middle">2026-04-07</text>
  <text class="axis" x="950.67" y="336" text-anchor="middle">2026-04-14</text>
  <text class="axis" x="976.00" y="336" text-anchor="end">2026-04-15</text>
  <text class="latest" x="976" y="34" text-anchor="end">Latest total: 64,766</text>
</svg>
