<?xml version="1.0" encoding="UTF-8"?>
<svg xmlns="http://www.w3.org/2000/svg" viewBox="0 0 1000 360" role="img" aria-label="hordesmod/kek-ui release downloads chart">
  <defs>
    <linearGradient id="fill-total-trend-orange" x1="0" y1="0" x2="0" y2="1">
      <stop offset="0%" stop-color="#f97316" stop-opacity="0.32"/>
      <stop offset="100%" stop-color="#f97316" stop-opacity="0.05"/>
    </linearGradient>
    <style>
      .bg { fill: #fff7ed; }
      .title { font: 700 24px Arial, sans-serif; fill: #7c2d12; }
      .sub { font: 400 13px Arial, sans-serif; fill: #9a3412; }
      .grid { stroke: #fed7aa; stroke-width: 1; }
      .axis { font: 400 12px Arial, sans-serif; fill: #c2410c; }
      .line { fill: none; stroke: #ea580c; stroke-width: 3; stroke-linecap: round; stroke-linejoin: round; }
      .dot { fill: #ea580c; }
      .value { font: 600 11px Arial, sans-serif; fill: #9a3412; }
      .latest { font: 700 14px Arial, sans-serif; fill: #7c2d12; }
    </style>
  </defs>
  <rect class="bg" x="0" y="0" width="1000" height="360" rx="16" />
  <text class="title" x="64" y="34">hordesmod/kek-ui release downloads</text>
  <text class="sub" x="64" y="352">Generated 2026-05-01</text>
  <line x1="64" y1="52.00" x2="976" y2="52.00" class="grid"/>
  <text x="56" y="56.00" text-anchor="end" class="axis">66,104</text>
  <line x1="64" y1="94.00" x2="976" y2="94.00" class="grid"/>
  <text x="56" y="98.00" text-anchor="end" class="axis">55,087</text>
  <line x1="64" y1="136.00" x2="976" y2="136.00" class="grid"/>
  <text x="56" y="140.00" text-anchor="end" class="axis">44,069</text>
  <line x1="64" y1="178.00" x2="976" y2="178.00" class="grid"/>
  <text x="56" y="182.00" text-anchor="end" class="axis">33,052</text>
  <line x1="64" y1="220.00" x2="976" y2="220.00" class="grid"/>
  <text x="56" y="224.00" text-anchor="end" class="axis">22,035</text>
  <line x1="64" y1="262.00" x2="976" y2="262.00" class="grid"/>
  <text x="56" y="266.00" text-anchor="end" class="axis">11,017</text>
  <line x1="64" y1="304.00" x2="976" y2="304.00" class="grid"/>
  <text x="56" y="308.00" text-anchor="end" class="axis">0</text>
  <path d="M 64.00 304 L 64.00 66.36 L 81.54 66.09 L 99.08 65.81 L 116.62 65.56 L 134.15 65.44 L 151.69 65.32 L 169.23 65.19 L 186.77 65.06 L 204.31 64.90 L 221.85 64.79 L 239.38 64.68 L 256.92 64.58 L 274.46 64.44 L 292.00 64.28 L 309.54 64.18 L 327.08 64.05 L 344.62 63.80 L 362.15 63.50 L 379.69 63.19 L 397.23 62.69 L 414.77 62.33 L 432.31 62.02 L 449.85 61.64 L 467.38 61.33 L 484.92 61.05 L 502.46 60.73 L 520.00 60.38 L 537.54 60.01 L 555.08 59.71 L 572.62 59.41 L 590.15 59.08 L 607.69 58.76 L 625.23 58.42 L 642.77 58.07 L 660.31 57.74 L 677.85 57.44 L 695.38 57.10 L 712.92 56.80 L 730.46 56.48 L 748.00 56.14 L 765.54 55.79 L 783.08 55.46 L 800.62 55.15 L 818.15 54.86 L 835.69 54.54 L 853.23 54.23 L 870.77 53.89 L 888.31 53.59 L 905.85 53.26 L 923.38 52.95 L 940.92 52.62 L 958.46 52.32 L 976.00 52.00 L 976.00 304 Z" fill="url(#fill-total-trend-orange)"/>
  <polyline class="line" points="64.00,66.36 81.54,66.09 99.08,65.81 116.62,65.56 134.15,65.44 151.69,65.32 169.23,65.19 186.77,65.06 204.31,64.90 221.85,64.79 239.38,64.68 256.92,64.58 274.46,64.44 292.00,64.28 309.54,64.18 327.08,64.05 344.62,63.80 362.15,63.50 379.69,63.19 397.23,62.69 414.77,62.33 432.31,62.02 449.85,61.64 467.38,61.33 484.92,61.05 502.46,60.73 520.00,60.38 537.54,60.01 555.08,59.71 572.62,59.41 590.15,59.08 607.69,58.76 625.23,58.42 642.77,58.07 660.31,57.74 677.85,57.44 695.38,57.10 712.92,56.80 730.46,56.48 748.00,56.14 765.54,55.79 783.08,55.46 800.62,55.15 818.15,54.86 835.69,54.54 853.23,54.23 870.77,53.89 888.31,53.59 905.85,53.26 923.38,52.95 940.92,52.62 958.46,52.32 976.00,52.00"/>
  <circle class="dot" cx="976.00" cy="52.00" r="4.5"/>
  
  <text class="axis" x="64.00" y="336" text-anchor="start">2026-03-10</text>
  <text class="axis" x="239.38" y="336" text-anchor="middle">2026-03-20</text>
  <text class="axis" x="414.77" y="336" text-anchor="middle">2026-03-30</text>
  <text class="axis" x="590.15" y="336" text-anchor="middle">2026-04-09</text>
  <text class="axis" x="765.54" y="336" text-anchor="middle">2026-04-19</text>
  <text class="axis" x="940.92" y="336" text-anchor="middle">2026-04-29</text>
  <text class="axis" x="976.00" y="336" text-anchor="end">2026-05-01</text>
  <text class="latest" x="976" y="34" text-anchor="end">Latest total: 66,104</text>
</svg>
