<?xml version="1.0" encoding="UTF-8"?>
<svg xmlns="http://www.w3.org/2000/svg" viewBox="0 0 1000 360" role="img" aria-label="hordesmod/kek-ui release downloads chart">
  <defs>
    <linearGradient id="fill-total-trend-black" x1="0" y1="0" x2="0" y2="1">
      <stop offset="0%" stop-color="#22d3ee" stop-opacity="0.32"/>
      <stop offset="100%" stop-color="#22d3ee" stop-opacity="0.05"/>
    </linearGradient>
    <style>
      .bg { fill: #0b0b0d; }
      .title { font: 700 24px Arial, sans-serif; fill: #f8fafc; }
      .sub { font: 400 13px Arial, sans-serif; fill: #cbd5e1; }
      .grid { stroke: #1f2937; stroke-width: 1; }
      .axis { font: 400 12px Arial, sans-serif; fill: #94a3b8; }
      .line { fill: none; stroke: #22d3ee; stroke-width: 3; stroke-linecap: round; stroke-linejoin: round; }
      .dot { fill: #22d3ee; }
      .value { font: 600 11px Arial, sans-serif; fill: #cbd5e1; }
      .latest { font: 700 14px Arial, sans-serif; fill: #f8fafc; }
    </style>
  </defs>
  <rect class="bg" x="0" y="0" width="1000" height="360" rx="16" />
  <text class="title" x="64" y="34">hordesmod/kek-ui release downloads</text>
  <text class="sub" x="64" y="352">Generated 2026-04-22</text>
  <line x1="64" y1="52.00" x2="976" y2="52.00" class="grid"/>
  <text x="56" y="56.00" text-anchor="end" class="axis">65,354</text>
  <line x1="64" y1="94.00" x2="976" y2="94.00" class="grid"/>
  <text x="56" y="98.00" text-anchor="end" class="axis">54,462</text>
  <line x1="64" y1="136.00" x2="976" y2="136.00" class="grid"/>
  <text x="56" y="140.00" text-anchor="end" class="axis">43,569</text>
  <line x1="64" y1="178.00" x2="976" y2="178.00" class="grid"/>
  <text x="56" y="182.00" text-anchor="end" class="axis">32,677</text>
  <line x1="64" y1="220.00" x2="976" y2="220.00" class="grid"/>
  <text x="56" y="224.00" text-anchor="end" class="axis">21,785</text>
  <line x1="64" y1="262.00" x2="976" y2="262.00" class="grid"/>
  <text x="56" y="266.00" text-anchor="end" class="axis">10,892</text>
  <line x1="64" y1="304.00" x2="976" y2="304.00" class="grid"/>
  <text x="56" y="308.00" text-anchor="end" class="axis">0</text>
  <path d="M 64.00 304 L 64.00 63.63 L 85.21 63.36 L 106.42 63.07 L 127.63 62.83 L 148.84 62.70 L 170.05 62.58 L 191.26 62.45 L 212.47 62.32 L 233.67 62.16 L 254.88 62.04 L 276.09 61.94 L 297.30 61.83 L 318.51 61.69 L 339.72 61.52 L 360.93 61.42 L 382.14 61.30 L 403.35 61.05 L 424.56 60.74 L 445.77 60.43 L 466.98 59.92 L 488.19 59.55 L 509.40 59.24 L 530.60 58.86 L 551.81 58.55 L 573.02 58.26 L 594.23 57.94 L 615.44 57.59 L 636.65 57.21 L 657.86 56.91 L 679.07 56.60 L 700.28 56.27 L 721.49 55.95 L 742.70 55.60 L 763.91 55.24 L 785.12 54.91 L 806.33 54.61 L 827.53 54.27 L 848.74 53.96 L 869.95 53.64 L 891.16 53.30 L 912.37 52.94 L 933.58 52.61 L 954.79 52.29 L 976.00 52.00 L 976.00 304 Z" fill="url(#fill-total-trend-black)"/>
  <polyline class="line" points="64.00,63.63 85.21,63.36 106.42,63.07 127.63,62.83 148.84,62.70 170.05,62.58 191.26,62.45 212.47,62.32 233.67,62.16 254.88,62.04 276.09,61.94 297.30,61.83 318.51,61.69 339.72,61.52 360.93,61.42 382.14,61.30 403.35,61.05 424.56,60.74 445.77,60.43 466.98,59.92 488.19,59.55 509.40,59.24 530.60,58.86 551.81,58.55 573.02,58.26 594.23,57.94 615.44,57.59 636.65,57.21 657.86,56.91 679.07,56.60 700.28,56.27 721.49,55.95 742.70,55.60 763.91,55.24 785.12,54.91 806.33,54.61 827.53,54.27 848.74,53.96 869.95,53.64 891.16,53.30 912.37,52.94 933.58,52.61 954.79,52.29 976.00,52.00"/>
  <circle class="dot" cx="976.00" cy="52.00" r="4.5"/>
  
  <text class="axis" x="64.00" y="336" text-anchor="start">2026-03-10</text>
  <text class="axis" x="233.67" y="336" text-anchor="middle">2026-03-18</text>
  <text class="axis" x="403.35" y="336" text-anchor="middle">2026-03-26</text>
  <text class="axis" x="573.02" y="336" text-anchor="middle">2026-04-03</text>
  <text class="axis" x="742.70" y="336" text-anchor="middle">2026-04-11</text>
  <text class="axis" x="912.37" y="336" text-anchor="middle">2026-04-19</text>
  <text class="axis" x="976.00" y="336" text-anchor="end">2026-04-22</text>
  <text class="latest" x="976" y="34" text-anchor="end">Latest total: 65,354</text>
</svg>
