<?xml version="1.0" encoding="UTF-8"?>
<svg xmlns="http://www.w3.org/2000/svg" viewBox="0 0 1000 360" role="img" aria-label="hordesmod/kek-ui release downloads chart">
  <defs>
    <linearGradient id="fill-total-trend-orange" x1="0" y1="0" x2="0" y2="1">
      <stop offset="0%" stop-color="#f97316" stop-opacity="0.32"/>
      <stop offset="100%" stop-color="#f97316" stop-opacity="0.05"/>
    </linearGradient>
    <style>
      .bg { fill: #fff7ed; }
      .title { font: 700 24px Arial, sans-serif; fill: #7c2d12; }
      .sub { font: 400 13px Arial, sans-serif; fill: #9a3412; }
      .grid { stroke: #fed7aa; stroke-width: 1; }
      .axis { font: 400 12px Arial, sans-serif; fill: #c2410c; }
      .line { fill: none; stroke: #ea580c; stroke-width: 3; stroke-linecap: round; stroke-linejoin: round; }
      .dot { fill: #ea580c; }
      .value { font: 600 11px Arial, sans-serif; fill: #9a3412; }
      .latest { font: 700 14px Arial, sans-serif; fill: #7c2d12; }
    </style>
  </defs>
  <rect class="bg" x="0" y="0" width="1000" height="360" rx="16" />
  <text class="title" x="64" y="34">hordesmod/kek-ui release downloads</text>
  <text class="sub" x="64" y="352">Generated 2026-04-11</text>
  <line x1="64" y1="52.00" x2="976" y2="52.00" class="grid"/>
  <text x="56" y="56.00" text-anchor="end" class="axis">64,420</text>
  <line x1="64" y1="94.00" x2="976" y2="94.00" class="grid"/>
  <text x="56" y="98.00" text-anchor="end" class="axis">53,683</text>
  <line x1="64" y1="136.00" x2="976" y2="136.00" class="grid"/>
  <text x="56" y="140.00" text-anchor="end" class="axis">42,947</text>
  <line x1="64" y1="178.00" x2="976" y2="178.00" class="grid"/>
  <text x="56" y="182.00" text-anchor="end" class="axis">32,210</text>
  <line x1="64" y1="220.00" x2="976" y2="220.00" class="grid"/>
  <text x="56" y="224.00" text-anchor="end" class="axis">21,473</text>
  <line x1="64" y1="262.00" x2="976" y2="262.00" class="grid"/>
  <text x="56" y="266.00" text-anchor="end" class="axis">10,737</text>
  <line x1="64" y1="304.00" x2="976" y2="304.00" class="grid"/>
  <text x="56" y="308.00" text-anchor="end" class="axis">0</text>
  <path d="M 64.00 304 L 64.00 60.14 L 92.50 59.87 L 121.00 59.58 L 149.50 59.33 L 178.00 59.21 L 206.50 59.08 L 235.00 58.95 L 263.50 58.81 L 292.00 58.65 L 320.50 58.53 L 349.00 58.43 L 377.50 58.32 L 406.00 58.18 L 434.50 58.01 L 463.00 57.91 L 491.50 57.78 L 520.00 57.52 L 548.50 57.21 L 577.00 56.89 L 605.50 56.38 L 634.00 56.01 L 662.50 55.69 L 691.00 55.31 L 719.50 54.99 L 748.00 54.70 L 776.50 54.37 L 805.00 54.01 L 833.50 53.63 L 862.00 53.33 L 890.50 53.02 L 919.00 52.68 L 947.50 52.35 L 976.00 52.00 L 976.00 304 Z" fill="url(#fill-total-trend-orange)"/>
  <polyline class="line" points="64.00,60.14 92.50,59.87 121.00,59.58 149.50,59.33 178.00,59.21 206.50,59.08 235.00,58.95 263.50,58.81 292.00,58.65 320.50,58.53 349.00,58.43 377.50,58.32 406.00,58.18 434.50,58.01 463.00,57.91 491.50,57.78 520.00,57.52 548.50,57.21 577.00,56.89 605.50,56.38 634.00,56.01 662.50,55.69 691.00,55.31 719.50,54.99 748.00,54.70 776.50,54.37 805.00,54.01 833.50,53.63 862.00,53.33 890.50,53.02 919.00,52.68 947.50,52.35 976.00,52.00"/>
  <circle class="dot" cx="976.00" cy="52.00" r="4.5"/>
  
  <text class="axis" x="64.00" y="336" text-anchor="start">2026-03-10</text>
  <text class="axis" x="235.00" y="336" text-anchor="middle">2026-03-16</text>
  <text class="axis" x="406.00" y="336" text-anchor="middle">2026-03-22</text>
  <text class="axis" x="577.00" y="336" text-anchor="middle">2026-03-28</text>
  <text class="axis" x="748.00" y="336" text-anchor="middle">2026-04-03</text>
  <text class="axis" x="919.00" y="336" text-anchor="middle">2026-04-09</text>
  <text class="axis" x="976.00" y="336" text-anchor="end">2026-04-11</text>
  <text class="latest" x="976" y="34" text-anchor="end">Latest total: 64,420</text>
</svg>
