<?xml version="1.0" encoding="UTF-8"?>
<svg xmlns="http://www.w3.org/2000/svg" viewBox="0 0 1000 360" role="img" aria-label="hordesmod/kek-ui release downloads chart">
  <defs>
    <linearGradient id="fill-total-trend-slate" x1="0" y1="0" x2="0" y2="1">
      <stop offset="0%" stop-color="#60a5fa" stop-opacity="0.32"/>
      <stop offset="100%" stop-color="#60a5fa" stop-opacity="0.05"/>
    </linearGradient>
    <style>
      .bg { fill: #0f172a; }
      .title { font: 700 24px Arial, sans-serif; fill: #e2e8f0; }
      .sub { font: 400 13px Arial, sans-serif; fill: #94a3b8; }
      .grid { stroke: #1e293b; stroke-width: 1; }
      .axis { font: 400 12px Arial, sans-serif; fill: #94a3b8; }
      .line { fill: none; stroke: #60a5fa; stroke-width: 3; stroke-linecap: round; stroke-linejoin: round; }
      .dot { fill: #60a5fa; }
      .value { font: 600 11px Arial, sans-serif; fill: #cbd5e1; }
      .latest { font: 700 14px Arial, sans-serif; fill: #e2e8f0; }
    </style>
  </defs>
  <rect class="bg" x="0" y="0" width="1000" height="360" rx="16" />
  <text class="title" x="64" y="34">hordesmod/kek-ui release downloads</text>
  <text class="sub" x="64" y="352">Generated 2026-04-28</text>
  <line x1="64" y1="52.00" x2="976" y2="52.00" class="grid"/>
  <text x="56" y="56.00" text-anchor="end" class="axis">65,856</text>
  <line x1="64" y1="94.00" x2="976" y2="94.00" class="grid"/>
  <text x="56" y="98.00" text-anchor="end" class="axis">54,880</text>
  <line x1="64" y1="136.00" x2="976" y2="136.00" class="grid"/>
  <text x="56" y="140.00" text-anchor="end" class="axis">43,904</text>
  <line x1="64" y1="178.00" x2="976" y2="178.00" class="grid"/>
  <text x="56" y="182.00" text-anchor="end" class="axis">32,928</text>
  <line x1="64" y1="220.00" x2="976" y2="220.00" class="grid"/>
  <text x="56" y="224.00" text-anchor="end" class="axis">21,952</text>
  <line x1="64" y1="262.00" x2="976" y2="262.00" class="grid"/>
  <text x="56" y="266.00" text-anchor="end" class="axis">10,976</text>
  <line x1="64" y1="304.00" x2="976" y2="304.00" class="grid"/>
  <text x="56" y="308.00" text-anchor="end" class="axis">0</text>
  <path d="M 64.00 304 L 64.00 65.46 L 82.61 65.20 L 101.22 64.91 L 119.84 64.67 L 138.45 64.54 L 157.06 64.42 L 175.67 64.29 L 194.29 64.16 L 212.90 64.00 L 231.51 63.89 L 250.12 63.78 L 268.73 63.67 L 287.35 63.54 L 305.96 63.37 L 324.57 63.27 L 343.18 63.15 L 361.80 62.90 L 380.41 62.59 L 399.02 62.28 L 417.63 61.78 L 436.24 61.42 L 454.86 61.11 L 473.47 60.73 L 492.08 60.42 L 510.69 60.13 L 529.31 59.82 L 547.92 59.47 L 566.53 59.09 L 585.14 58.79 L 603.76 58.49 L 622.37 58.16 L 640.98 57.84 L 659.59 57.49 L 678.20 57.14 L 696.82 56.81 L 715.43 56.52 L 734.04 56.17 L 752.65 55.86 L 771.27 55.55 L 789.88 55.21 L 808.49 54.86 L 827.10 54.52 L 845.71 54.21 L 864.33 53.92 L 882.94 53.60 L 901.55 53.29 L 920.16 52.95 L 938.78 52.64 L 957.39 52.32 L 976.00 52.00 L 976.00 304 Z" fill="url(#fill-total-trend-slate)"/>
  <polyline class="line" points="64.00,65.46 82.61,65.20 101.22,64.91 119.84,64.67 138.45,64.54 157.06,64.42 175.67,64.29 194.29,64.16 212.90,64.00 231.51,63.89 250.12,63.78 268.73,63.67 287.35,63.54 305.96,63.37 324.57,63.27 343.18,63.15 361.80,62.90 380.41,62.59 399.02,62.28 417.63,61.78 436.24,61.42 454.86,61.11 473.47,60.73 492.08,60.42 510.69,60.13 529.31,59.82 547.92,59.47 566.53,59.09 585.14,58.79 603.76,58.49 622.37,58.16 640.98,57.84 659.59,57.49 678.20,57.14 696.82,56.81 715.43,56.52 734.04,56.17 752.65,55.86 771.27,55.55 789.88,55.21 808.49,54.86 827.10,54.52 845.71,54.21 864.33,53.92 882.94,53.60 901.55,53.29 920.16,52.95 938.78,52.64 957.39,52.32 976.00,52.00"/>
  <circle class="dot" cx="976.00" cy="52.00" r="4.5"/>
  
  <text class="axis" x="64.00" y="336" text-anchor="start">2026-03-10</text>
  <text class="axis" x="231.51" y="336" text-anchor="middle">2026-03-19</text>
  <text class="axis" x="399.02" y="336" text-anchor="middle">2026-03-28</text>
  <text class="axis" x="566.53" y="336" text-anchor="middle">2026-04-06</text>
  <text class="axis" x="734.04" y="336" text-anchor="middle">2026-04-15</text>
  <text class="axis" x="901.55" y="336" text-anchor="middle">2026-04-24</text>
  <text class="axis" x="976.00" y="336" text-anchor="end">2026-04-28</text>
  <text class="latest" x="976" y="34" text-anchor="end">Latest total: 65,856</text>
</svg>
