<?xml version="1.0" encoding="UTF-8"?>
<svg xmlns="http://www.w3.org/2000/svg" viewBox="0 0 1000 360" role="img" aria-label="hordesmod/kek-ui release downloads chart">
  <defs>
    <linearGradient id="fill-total-trend-black" x1="0" y1="0" x2="0" y2="1">
      <stop offset="0%" stop-color="#22d3ee" stop-opacity="0.32"/>
      <stop offset="100%" stop-color="#22d3ee" stop-opacity="0.05"/>
    </linearGradient>
    <style>
      .bg { fill: #0b0b0d; }
      .title { font: 700 24px Arial, sans-serif; fill: #f8fafc; }
      .sub { font: 400 13px Arial, sans-serif; fill: #cbd5e1; }
      .grid { stroke: #1f2937; stroke-width: 1; }
      .axis { font: 400 12px Arial, sans-serif; fill: #94a3b8; }
      .line { fill: none; stroke: #22d3ee; stroke-width: 3; stroke-linecap: round; stroke-linejoin: round; }
      .dot { fill: #22d3ee; }
      .value { font: 600 11px Arial, sans-serif; fill: #cbd5e1; }
      .latest { font: 700 14px Arial, sans-serif; fill: #f8fafc; }
    </style>
  </defs>
  <rect class="bg" x="0" y="0" width="1000" height="360" rx="16" />
  <text class="title" x="64" y="34">hordesmod/kek-ui release downloads</text>
  <text class="sub" x="64" y="352">Generated 2026-04-29</text>
  <line x1="64" y1="52.00" x2="976" y2="52.00" class="grid"/>
  <text x="56" y="56.00" text-anchor="end" class="axis">65,942</text>
  <line x1="64" y1="94.00" x2="976" y2="94.00" class="grid"/>
  <text x="56" y="98.00" text-anchor="end" class="axis">54,952</text>
  <line x1="64" y1="136.00" x2="976" y2="136.00" class="grid"/>
  <text x="56" y="140.00" text-anchor="end" class="axis">43,961</text>
  <line x1="64" y1="178.00" x2="976" y2="178.00" class="grid"/>
  <text x="56" y="182.00" text-anchor="end" class="axis">32,971</text>
  <line x1="64" y1="220.00" x2="976" y2="220.00" class="grid"/>
  <text x="56" y="224.00" text-anchor="end" class="axis">21,981</text>
  <line x1="64" y1="262.00" x2="976" y2="262.00" class="grid"/>
  <text x="56" y="266.00" text-anchor="end" class="axis">10,990</text>
  <line x1="64" y1="304.00" x2="976" y2="304.00" class="grid"/>
  <text x="56" y="308.00" text-anchor="end" class="axis">0</text>
  <path d="M 64.00 304 L 64.00 65.77 L 82.24 65.51 L 100.48 65.22 L 118.72 64.98 L 136.96 64.86 L 155.20 64.74 L 173.44 64.61 L 191.68 64.47 L 209.92 64.31 L 228.16 64.20 L 246.40 64.10 L 264.64 63.99 L 282.88 63.85 L 301.12 63.69 L 319.36 63.59 L 337.60 63.46 L 355.84 63.21 L 374.08 62.91 L 392.32 62.60 L 410.56 62.09 L 428.80 61.73 L 447.04 61.42 L 465.28 61.05 L 483.52 60.74 L 501.76 60.45 L 520.00 60.14 L 538.24 59.78 L 556.48 59.41 L 574.72 59.11 L 592.96 58.81 L 611.20 58.48 L 629.44 58.16 L 647.68 57.82 L 665.92 57.46 L 684.16 57.13 L 702.40 56.84 L 720.64 56.49 L 738.88 56.19 L 757.12 55.87 L 775.36 55.53 L 793.60 55.18 L 811.84 54.85 L 830.08 54.53 L 848.32 54.25 L 866.56 53.93 L 884.80 53.62 L 903.04 53.28 L 921.28 52.97 L 939.52 52.65 L 957.76 52.33 L 976.00 52.00 L 976.00 304 Z" fill="url(#fill-total-trend-black)"/>
  <polyline class="line" points="64.00,65.77 82.24,65.51 100.48,65.22 118.72,64.98 136.96,64.86 155.20,64.74 173.44,64.61 191.68,64.47 209.92,64.31 228.16,64.20 246.40,64.10 264.64,63.99 282.88,63.85 301.12,63.69 319.36,63.59 337.60,63.46 355.84,63.21 374.08,62.91 392.32,62.60 410.56,62.09 428.80,61.73 447.04,61.42 465.28,61.05 483.52,60.74 501.76,60.45 520.00,60.14 538.24,59.78 556.48,59.41 574.72,59.11 592.96,58.81 611.20,58.48 629.44,58.16 647.68,57.82 665.92,57.46 684.16,57.13 702.40,56.84 720.64,56.49 738.88,56.19 757.12,55.87 775.36,55.53 793.60,55.18 811.84,54.85 830.08,54.53 848.32,54.25 866.56,53.93 884.80,53.62 903.04,53.28 921.28,52.97 939.52,52.65 957.76,52.33 976.00,52.00"/>
  <circle class="dot" cx="976.00" cy="52.00" r="4.5"/>
  
  <text class="axis" x="64.00" y="336" text-anchor="start">2026-03-10</text>
  <text class="axis" x="246.40" y="336" text-anchor="middle">2026-03-20</text>
  <text class="axis" x="428.80" y="336" text-anchor="middle">2026-03-30</text>
  <text class="axis" x="611.20" y="336" text-anchor="middle">2026-04-09</text>
  <text class="axis" x="793.60" y="336" text-anchor="middle">2026-04-19</text>
  <text class="axis" x="976.00" y="336" text-anchor="end">2026-04-29</text>
  <text class="latest" x="976" y="34" text-anchor="end">Latest total: 65,942</text>
</svg>
