<?xml version="1.0" encoding="UTF-8"?>
<svg xmlns="http://www.w3.org/2000/svg" viewBox="0 0 1000 360" role="img" aria-label="hordesmod/kek-ui release downloads chart">
  <defs>
    <linearGradient id="fill-total-trend-orange" x1="0" y1="0" x2="0" y2="1">
      <stop offset="0%" stop-color="#f97316" stop-opacity="0.32"/>
      <stop offset="100%" stop-color="#f97316" stop-opacity="0.05"/>
    </linearGradient>
    <style>
      .bg { fill: #fff7ed; }
      .title { font: 700 24px Arial, sans-serif; fill: #7c2d12; }
      .sub { font: 400 13px Arial, sans-serif; fill: #9a3412; }
      .grid { stroke: #fed7aa; stroke-width: 1; }
      .axis { font: 400 12px Arial, sans-serif; fill: #c2410c; }
      .line { fill: none; stroke: #ea580c; stroke-width: 3; stroke-linecap: round; stroke-linejoin: round; }
      .dot { fill: #ea580c; }
      .value { font: 600 11px Arial, sans-serif; fill: #9a3412; }
      .latest { font: 700 14px Arial, sans-serif; fill: #7c2d12; }
    </style>
  </defs>
  <rect class="bg" x="0" y="0" width="1000" height="360" rx="16" />
  <text class="title" x="64" y="34">hordesmod/kek-ui release downloads</text>
  <text class="sub" x="64" y="352">Generated 2026-03-28</text>
  <line x1="64" y1="52.00" x2="976" y2="52.00" class="grid"/>
  <text x="56" y="56.00" text-anchor="end" class="axis">63,169</text>
  <line x1="64" y1="94.00" x2="976" y2="94.00" class="grid"/>
  <text x="56" y="98.00" text-anchor="end" class="axis">52,641</text>
  <line x1="64" y1="136.00" x2="976" y2="136.00" class="grid"/>
  <text x="56" y="140.00" text-anchor="end" class="axis">42,113</text>
  <line x1="64" y1="178.00" x2="976" y2="178.00" class="grid"/>
  <text x="56" y="182.00" text-anchor="end" class="axis">31,585</text>
  <line x1="64" y1="220.00" x2="976" y2="220.00" class="grid"/>
  <text x="56" y="224.00" text-anchor="end" class="axis">21,056</text>
  <line x1="64" y1="262.00" x2="976" y2="262.00" class="grid"/>
  <text x="56" y="266.00" text-anchor="end" class="axis">10,528</text>
  <line x1="64" y1="304.00" x2="976" y2="304.00" class="grid"/>
  <text x="56" y="308.00" text-anchor="end" class="axis">0</text>
  <path d="M 64.00 304 L 64.00 55.32 L 114.67 55.04 L 165.33 54.74 L 216.00 54.49 L 266.67 54.36 L 317.33 54.23 L 368.00 54.10 L 418.67 53.96 L 469.33 53.79 L 520.00 53.67 L 570.67 53.56 L 621.33 53.45 L 672.00 53.31 L 722.67 53.14 L 773.33 53.03 L 824.00 52.90 L 874.67 52.64 L 925.33 52.32 L 976.00 52.00 L 976.00 304 Z" fill="url(#fill-total-trend-orange)"/>
  <polyline class="line" points="64.00,55.32 114.67,55.04 165.33,54.74 216.00,54.49 266.67,54.36 317.33,54.23 368.00,54.10 418.67,53.96 469.33,53.79 520.00,53.67 570.67,53.56 621.33,53.45 672.00,53.31 722.67,53.14 773.33,53.03 824.00,52.90 874.67,52.64 925.33,52.32 976.00,52.00"/>
  <circle class="dot" cx="976.00" cy="52.00" r="4.5"/>
  
  <text class="axis" x="64.00" y="336" text-anchor="start">2026-03-10</text>
  <text class="axis" x="216.00" y="336" text-anchor="middle">2026-03-13</text>
  <text class="axis" x="368.00" y="336" text-anchor="middle">2026-03-16</text>
  <text class="axis" x="520.00" y="336" text-anchor="middle">2026-03-19</text>
  <text class="axis" x="672.00" y="336" text-anchor="middle">2026-03-22</text>
  <text class="axis" x="824.00" y="336" text-anchor="middle">2026-03-25</text>
  <text class="axis" x="976.00" y="336" text-anchor="end">2026-03-28</text>
  <text class="latest" x="976" y="34" text-anchor="end">Latest total: 63,169</text>
</svg>
