<?xml version="1.0" encoding="UTF-8"?>
<svg xmlns="http://www.w3.org/2000/svg" viewBox="0 0 1000 360" role="img" aria-label="hordesmod/kek-ui release downloads chart">
  <defs>
    <linearGradient id="fill-total-trend-orange" x1="0" y1="0" x2="0" y2="1">
      <stop offset="0%" stop-color="#f97316" stop-opacity="0.32"/>
      <stop offset="100%" stop-color="#f97316" stop-opacity="0.05"/>
    </linearGradient>
    <style>
      .bg { fill: #fff7ed; }
      .title { font: 700 24px Arial, sans-serif; fill: #7c2d12; }
      .sub { font: 400 13px Arial, sans-serif; fill: #9a3412; }
      .grid { stroke: #fed7aa; stroke-width: 1; }
      .axis { font: 400 12px Arial, sans-serif; fill: #c2410c; }
      .line { fill: none; stroke: #ea580c; stroke-width: 3; stroke-linecap: round; stroke-linejoin: round; }
      .dot { fill: #ea580c; }
      .value { font: 600 11px Arial, sans-serif; fill: #9a3412; }
      .latest { font: 700 14px Arial, sans-serif; fill: #7c2d12; }
    </style>
  </defs>
  <rect class="bg" x="0" y="0" width="1000" height="360" rx="16" />
  <text class="title" x="64" y="34">hordesmod/kek-ui release downloads</text>
  <text class="sub" x="64" y="352">Generated 2026-05-11</text>
  <line x1="64" y1="52.00" x2="976" y2="52.00" class="grid"/>
  <text x="56" y="56.00" text-anchor="end" class="axis">66,965</text>
  <line x1="64" y1="94.00" x2="976" y2="94.00" class="grid"/>
  <text x="56" y="98.00" text-anchor="end" class="axis">55,804</text>
  <line x1="64" y1="136.00" x2="976" y2="136.00" class="grid"/>
  <text x="56" y="140.00" text-anchor="end" class="axis">44,643</text>
  <line x1="64" y1="178.00" x2="976" y2="178.00" class="grid"/>
  <text x="56" y="182.00" text-anchor="end" class="axis">33,483</text>
  <line x1="64" y1="220.00" x2="976" y2="220.00" class="grid"/>
  <text x="56" y="224.00" text-anchor="end" class="axis">22,322</text>
  <line x1="64" y1="262.00" x2="976" y2="262.00" class="grid"/>
  <text x="56" y="266.00" text-anchor="end" class="axis">11,161</text>
  <line x1="64" y1="304.00" x2="976" y2="304.00" class="grid"/>
  <text x="56" y="308.00" text-anchor="end" class="axis">0</text>
  <path d="M 64.00 304 L 64.00 69.41 L 78.71 69.15 L 93.42 68.87 L 108.13 68.63 L 122.84 68.51 L 137.55 68.39 L 152.26 68.26 L 166.97 68.13 L 181.68 67.97 L 196.39 67.86 L 211.10 67.76 L 225.81 67.65 L 240.52 67.52 L 255.23 67.36 L 269.94 67.26 L 284.65 67.14 L 299.35 66.89 L 314.06 66.59 L 328.77 66.28 L 343.48 65.79 L 358.19 65.43 L 372.90 65.13 L 387.61 64.76 L 402.32 64.45 L 417.03 64.17 L 431.74 63.86 L 446.45 63.52 L 461.16 63.15 L 475.87 62.85 L 490.58 62.56 L 505.29 62.23 L 520.00 61.92 L 534.71 61.58 L 549.42 61.23 L 564.13 60.90 L 578.84 60.61 L 593.55 60.28 L 608.26 59.97 L 622.97 59.66 L 637.68 59.33 L 652.39 58.98 L 667.10 58.65 L 681.81 58.34 L 696.52 58.06 L 711.23 57.75 L 725.94 57.44 L 740.65 57.11 L 755.35 56.81 L 770.06 56.49 L 784.77 56.17 L 799.48 55.85 L 814.19 55.55 L 828.90 55.24 L 843.61 54.95 L 858.32 54.59 L 873.03 54.26 L 887.74 53.90 L 902.45 53.53 L 917.16 53.24 L 931.87 52.96 L 946.58 52.62 L 961.29 52.32 L 976.00 52.00 L 976.00 304 Z" fill="url(#fill-total-trend-orange)"/>
  <polyline class="line" points="64.00,69.41 78.71,69.15 93.42,68.87 108.13,68.63 122.84,68.51 137.55,68.39 152.26,68.26 166.97,68.13 181.68,67.97 196.39,67.86 211.10,67.76 225.81,67.65 240.52,67.52 255.23,67.36 269.94,67.26 284.65,67.14 299.35,66.89 314.06,66.59 328.77,66.28 343.48,65.79 358.19,65.43 372.90,65.13 387.61,64.76 402.32,64.45 417.03,64.17 431.74,63.86 446.45,63.52 461.16,63.15 475.87,62.85 490.58,62.56 505.29,62.23 520.00,61.92 534.71,61.58 549.42,61.23 564.13,60.90 578.84,60.61 593.55,60.28 608.26,59.97 622.97,59.66 637.68,59.33 652.39,58.98 667.10,58.65 681.81,58.34 696.52,58.06 711.23,57.75 725.94,57.44 740.65,57.11 755.35,56.81 770.06,56.49 784.77,56.17 799.48,55.85 814.19,55.55 828.90,55.24 843.61,54.95 858.32,54.59 873.03,54.26 887.74,53.90 902.45,53.53 917.16,53.24 931.87,52.96 946.58,52.62 961.29,52.32 976.00,52.00"/>
  <circle class="dot" cx="976.00" cy="52.00" r="4.5"/>
  
  <text class="axis" x="64.00" y="336" text-anchor="start">2026-03-10</text>
  <text class="axis" x="240.52" y="336" text-anchor="middle">2026-03-22</text>
  <text class="axis" x="417.03" y="336" text-anchor="middle">2026-04-03</text>
  <text class="axis" x="593.55" y="336" text-anchor="middle">2026-04-15</text>
  <text class="axis" x="770.06" y="336" text-anchor="middle">2026-04-27</text>
  <text class="axis" x="946.58" y="336" text-anchor="middle">2026-05-09</text>
  <text class="axis" x="976.00" y="336" text-anchor="end">2026-05-11</text>
  <text class="latest" x="976" y="34" text-anchor="end">Latest total: 66,965</text>
</svg>
