<?xml version="1.0" encoding="UTF-8"?>
<svg xmlns="http://www.w3.org/2000/svg" viewBox="0 0 1000 360" role="img" aria-label="hordesmod/kek-ui release downloads chart">
  <defs>
    <linearGradient id="fill-total-trend-black" x1="0" y1="0" x2="0" y2="1">
      <stop offset="0%" stop-color="#22d3ee" stop-opacity="0.32"/>
      <stop offset="100%" stop-color="#22d3ee" stop-opacity="0.05"/>
    </linearGradient>
    <style>
      .bg { fill: #0b0b0d; }
      .title { font: 700 24px Arial, sans-serif; fill: #f8fafc; }
      .sub { font: 400 13px Arial, sans-serif; fill: #cbd5e1; }
      .grid { stroke: #1f2937; stroke-width: 1; }
      .axis { font: 400 12px Arial, sans-serif; fill: #94a3b8; }
      .line { fill: none; stroke: #22d3ee; stroke-width: 3; stroke-linecap: round; stroke-linejoin: round; }
      .dot { fill: #22d3ee; }
      .value { font: 600 11px Arial, sans-serif; fill: #cbd5e1; }
      .latest { font: 700 14px Arial, sans-serif; fill: #f8fafc; }
    </style>
  </defs>
  <rect class="bg" x="0" y="0" width="1000" height="360" rx="16" />
  <text class="title" x="64" y="34">hordesmod/kek-ui release downloads</text>
  <text class="sub" x="64" y="352">Generated 2026-04-23</text>
  <line x1="64" y1="52.00" x2="976" y2="52.00" class="grid"/>
  <text x="56" y="56.00" text-anchor="end" class="axis">65,437</text>
  <line x1="64" y1="94.00" x2="976" y2="94.00" class="grid"/>
  <text x="56" y="98.00" text-anchor="end" class="axis">54,531</text>
  <line x1="64" y1="136.00" x2="976" y2="136.00" class="grid"/>
  <text x="56" y="140.00" text-anchor="end" class="axis">43,625</text>
  <line x1="64" y1="178.00" x2="976" y2="178.00" class="grid"/>
  <text x="56" y="182.00" text-anchor="end" class="axis">32,719</text>
  <line x1="64" y1="220.00" x2="976" y2="220.00" class="grid"/>
  <text x="56" y="224.00" text-anchor="end" class="axis">21,812</text>
  <line x1="64" y1="262.00" x2="976" y2="262.00" class="grid"/>
  <text x="56" y="266.00" text-anchor="end" class="axis">10,906</text>
  <line x1="64" y1="304.00" x2="976" y2="304.00" class="grid"/>
  <text x="56" y="308.00" text-anchor="end" class="axis">0</text>
  <path d="M 64.00 304 L 64.00 63.93 L 84.73 63.67 L 105.45 63.38 L 126.18 63.13 L 146.91 63.01 L 167.64 62.89 L 188.36 62.76 L 209.09 62.62 L 229.82 62.46 L 250.55 62.35 L 271.27 62.24 L 292.00 62.14 L 312.73 62.00 L 333.45 61.83 L 354.18 61.73 L 374.91 61.60 L 395.64 61.35 L 416.36 61.05 L 437.09 60.73 L 457.82 60.23 L 478.55 59.86 L 499.27 59.55 L 520.00 59.17 L 540.73 58.86 L 561.45 58.57 L 582.18 58.25 L 602.91 57.90 L 623.64 57.52 L 644.36 57.22 L 665.09 56.92 L 685.82 56.58 L 706.55 56.26 L 727.27 55.92 L 748.00 55.56 L 768.73 55.23 L 789.45 54.93 L 810.18 54.58 L 830.91 54.28 L 851.64 53.96 L 872.36 53.62 L 893.09 53.26 L 913.82 52.92 L 934.55 52.61 L 955.27 52.32 L 976.00 52.00 L 976.00 304 Z" fill="url(#fill-total-trend-black)"/>
  <polyline class="line" points="64.00,63.93 84.73,63.67 105.45,63.38 126.18,63.13 146.91,63.01 167.64,62.89 188.36,62.76 209.09,62.62 229.82,62.46 250.55,62.35 271.27,62.24 292.00,62.14 312.73,62.00 333.45,61.83 354.18,61.73 374.91,61.60 395.64,61.35 416.36,61.05 437.09,60.73 457.82,60.23 478.55,59.86 499.27,59.55 520.00,59.17 540.73,58.86 561.45,58.57 582.18,58.25 602.91,57.90 623.64,57.52 644.36,57.22 665.09,56.92 685.82,56.58 706.55,56.26 727.27,55.92 748.00,55.56 768.73,55.23 789.45,54.93 810.18,54.58 830.91,54.28 851.64,53.96 872.36,53.62 893.09,53.26 913.82,52.92 934.55,52.61 955.27,52.32 976.00,52.00"/>
  <circle class="dot" cx="976.00" cy="52.00" r="4.5"/>
  
  <text class="axis" x="64.00" y="336" text-anchor="start">2026-03-10</text>
  <text class="axis" x="229.82" y="336" text-anchor="middle">2026-03-18</text>
  <text class="axis" x="395.64" y="336" text-anchor="middle">2026-03-26</text>
  <text class="axis" x="561.45" y="336" text-anchor="middle">2026-04-03</text>
  <text class="axis" x="727.27" y="336" text-anchor="middle">2026-04-11</text>
  <text class="axis" x="893.09" y="336" text-anchor="middle">2026-04-19</text>
  <text class="axis" x="976.00" y="336" text-anchor="end">2026-04-23</text>
  <text class="latest" x="976" y="34" text-anchor="end">Latest total: 65,437</text>
</svg>
