<?xml version="1.0" encoding="UTF-8"?>
<svg xmlns="http://www.w3.org/2000/svg" viewBox="0 0 1000 360" role="img" aria-label="hordesmod/kek-ui release downloads chart">
  <defs>
    <linearGradient id="fill-total-trend-slate" x1="0" y1="0" x2="0" y2="1">
      <stop offset="0%" stop-color="#60a5fa" stop-opacity="0.32"/>
      <stop offset="100%" stop-color="#60a5fa" stop-opacity="0.05"/>
    </linearGradient>
    <style>
      .bg { fill: #0f172a; }
      .title { font: 700 24px Arial, sans-serif; fill: #e2e8f0; }
      .sub { font: 400 13px Arial, sans-serif; fill: #94a3b8; }
      .grid { stroke: #1e293b; stroke-width: 1; }
      .axis { font: 400 12px Arial, sans-serif; fill: #94a3b8; }
      .line { fill: none; stroke: #60a5fa; stroke-width: 3; stroke-linecap: round; stroke-linejoin: round; }
      .dot { fill: #60a5fa; }
      .value { font: 600 11px Arial, sans-serif; fill: #cbd5e1; }
      .latest { font: 700 14px Arial, sans-serif; fill: #e2e8f0; }
    </style>
  </defs>
  <rect class="bg" x="0" y="0" width="1000" height="360" rx="16" />
  <text class="title" x="64" y="34">hordesmod/kek-ui release downloads</text>
  <text class="sub" x="64" y="352">Generated 2026-04-07</text>
  <line x1="64" y1="52.00" x2="976" y2="52.00" class="grid"/>
  <text x="56" y="56.00" text-anchor="end" class="axis">64,081</text>
  <line x1="64" y1="94.00" x2="976" y2="94.00" class="grid"/>
  <text x="56" y="98.00" text-anchor="end" class="axis">53,401</text>
  <line x1="64" y1="136.00" x2="976" y2="136.00" class="grid"/>
  <text x="56" y="140.00" text-anchor="end" class="axis">42,721</text>
  <line x1="64" y1="178.00" x2="976" y2="178.00" class="grid"/>
  <text x="56" y="182.00" text-anchor="end" class="axis">32,041</text>
  <line x1="64" y1="220.00" x2="976" y2="220.00" class="grid"/>
  <text x="56" y="224.00" text-anchor="end" class="axis">21,360</text>
  <line x1="64" y1="262.00" x2="976" y2="262.00" class="grid"/>
  <text x="56" y="266.00" text-anchor="end" class="axis">10,680</text>
  <line x1="64" y1="304.00" x2="976" y2="304.00" class="grid"/>
  <text x="56" y="308.00" text-anchor="end" class="axis">0</text>
  <path d="M 64.00 304 L 64.00 58.85 L 96.57 58.58 L 129.14 58.29 L 161.71 58.04 L 194.29 57.91 L 226.86 57.79 L 259.43 57.65 L 292.00 57.52 L 324.57 57.35 L 357.14 57.23 L 389.71 57.13 L 422.29 57.02 L 454.86 56.88 L 487.43 56.71 L 520.00 56.60 L 552.57 56.48 L 585.14 56.22 L 617.71 55.90 L 650.29 55.59 L 682.86 55.07 L 715.43 54.70 L 748.00 54.38 L 780.57 53.99 L 813.14 53.67 L 845.71 53.38 L 878.29 53.05 L 910.86 52.69 L 943.43 52.31 L 976.00 52.00 L 976.00 304 Z" fill="url(#fill-total-trend-slate)"/>
  <polyline class="line" points="64.00,58.85 96.57,58.58 129.14,58.29 161.71,58.04 194.29,57.91 226.86,57.79 259.43,57.65 292.00,57.52 324.57,57.35 357.14,57.23 389.71,57.13 422.29,57.02 454.86,56.88 487.43,56.71 520.00,56.60 552.57,56.48 585.14,56.22 617.71,55.90 650.29,55.59 682.86,55.07 715.43,54.70 748.00,54.38 780.57,53.99 813.14,53.67 845.71,53.38 878.29,53.05 910.86,52.69 943.43,52.31 976.00,52.00"/>
  <circle class="dot" cx="976.00" cy="52.00" r="4.5"/>
  
  <text class="axis" x="64.00" y="336" text-anchor="start">2026-03-10</text>
  <text class="axis" x="226.86" y="336" text-anchor="middle">2026-03-15</text>
  <text class="axis" x="389.71" y="336" text-anchor="middle">2026-03-20</text>
  <text class="axis" x="552.57" y="336" text-anchor="middle">2026-03-25</text>
  <text class="axis" x="715.43" y="336" text-anchor="middle">2026-03-30</text>
  <text class="axis" x="878.29" y="336" text-anchor="middle">2026-04-04</text>
  <text class="axis" x="976.00" y="336" text-anchor="end">2026-04-07</text>
  <text class="latest" x="976" y="34" text-anchor="end">Latest total: 64,081</text>
</svg>
