<?xml version="1.0" encoding="UTF-8"?>
<svg xmlns="http://www.w3.org/2000/svg" viewBox="0 0 1000 360" role="img" aria-label="hordesmod/kek-ui release downloads chart">
  <defs>
    <linearGradient id="fill-total-trend-black" x1="0" y1="0" x2="0" y2="1">
      <stop offset="0%" stop-color="#22d3ee" stop-opacity="0.32"/>
      <stop offset="100%" stop-color="#22d3ee" stop-opacity="0.05"/>
    </linearGradient>
    <style>
      .bg { fill: #0b0b0d; }
      .title { font: 700 24px Arial, sans-serif; fill: #f8fafc; }
      .sub { font: 400 13px Arial, sans-serif; fill: #cbd5e1; }
      .grid { stroke: #1f2937; stroke-width: 1; }
      .axis { font: 400 12px Arial, sans-serif; fill: #94a3b8; }
      .line { fill: none; stroke: #22d3ee; stroke-width: 3; stroke-linecap: round; stroke-linejoin: round; }
      .dot { fill: #22d3ee; }
      .value { font: 600 11px Arial, sans-serif; fill: #cbd5e1; }
      .latest { font: 700 14px Arial, sans-serif; fill: #f8fafc; }
    </style>
  </defs>
  <rect class="bg" x="0" y="0" width="1000" height="360" rx="16" />
  <text class="title" x="64" y="34">hordesmod/kek-ui release downloads</text>
  <text class="sub" x="64" y="352">Generated 2026-04-26</text>
  <line x1="64" y1="52.00" x2="976" y2="52.00" class="grid"/>
  <text x="56" y="56.00" text-anchor="end" class="axis">65,688</text>
  <line x1="64" y1="94.00" x2="976" y2="94.00" class="grid"/>
  <text x="56" y="98.00" text-anchor="end" class="axis">54,740</text>
  <line x1="64" y1="136.00" x2="976" y2="136.00" class="grid"/>
  <text x="56" y="140.00" text-anchor="end" class="axis">43,792</text>
  <line x1="64" y1="178.00" x2="976" y2="178.00" class="grid"/>
  <text x="56" y="182.00" text-anchor="end" class="axis">32,844</text>
  <line x1="64" y1="220.00" x2="976" y2="220.00" class="grid"/>
  <text x="56" y="224.00" text-anchor="end" class="axis">21,896</text>
  <line x1="64" y1="262.00" x2="976" y2="262.00" class="grid"/>
  <text x="56" y="266.00" text-anchor="end" class="axis">10,948</text>
  <line x1="64" y1="304.00" x2="976" y2="304.00" class="grid"/>
  <text x="56" y="308.00" text-anchor="end" class="axis">0</text>
  <path d="M 64.00 304 L 64.00 64.85 L 83.40 64.59 L 102.81 64.30 L 122.21 64.05 L 141.62 63.93 L 161.02 63.81 L 180.43 63.68 L 199.83 63.55 L 219.23 63.39 L 238.64 63.27 L 258.04 63.17 L 277.45 63.06 L 296.85 62.93 L 316.26 62.76 L 335.66 62.66 L 355.06 62.53 L 374.47 62.28 L 393.87 61.97 L 413.28 61.66 L 432.68 61.16 L 452.09 60.80 L 471.49 60.49 L 490.89 60.11 L 510.30 59.80 L 529.70 59.51 L 549.11 59.19 L 568.51 58.84 L 587.91 58.46 L 607.32 58.16 L 626.72 57.86 L 646.13 57.53 L 665.53 57.21 L 684.94 56.86 L 704.34 56.51 L 723.74 56.18 L 743.15 55.88 L 762.55 55.54 L 781.96 55.23 L 801.36 54.91 L 820.77 54.57 L 840.17 54.22 L 859.57 53.88 L 878.98 53.57 L 898.38 53.28 L 917.79 52.96 L 937.19 52.65 L 956.60 52.31 L 976.00 52.00 L 976.00 304 Z" fill="url(#fill-total-trend-black)"/>
  <polyline class="line" points="64.00,64.85 83.40,64.59 102.81,64.30 122.21,64.05 141.62,63.93 161.02,63.81 180.43,63.68 199.83,63.55 219.23,63.39 238.64,63.27 258.04,63.17 277.45,63.06 296.85,62.93 316.26,62.76 335.66,62.66 355.06,62.53 374.47,62.28 393.87,61.97 413.28,61.66 432.68,61.16 452.09,60.80 471.49,60.49 490.89,60.11 510.30,59.80 529.70,59.51 549.11,59.19 568.51,58.84 587.91,58.46 607.32,58.16 626.72,57.86 646.13,57.53 665.53,57.21 684.94,56.86 704.34,56.51 723.74,56.18 743.15,55.88 762.55,55.54 781.96,55.23 801.36,54.91 820.77,54.57 840.17,54.22 859.57,53.88 878.98,53.57 898.38,53.28 917.79,52.96 937.19,52.65 956.60,52.31 976.00,52.00"/>
  <circle class="dot" cx="976.00" cy="52.00" r="4.5"/>
  
  <text class="axis" x="64.00" y="336" text-anchor="start">2026-03-10</text>
  <text class="axis" x="238.64" y="336" text-anchor="middle">2026-03-19</text>
  <text class="axis" x="413.28" y="336" text-anchor="middle">2026-03-28</text>
  <text class="axis" x="587.91" y="336" text-anchor="middle">2026-04-06</text>
  <text class="axis" x="762.55" y="336" text-anchor="middle">2026-04-15</text>
  <text class="axis" x="937.19" y="336" text-anchor="middle">2026-04-24</text>
  <text class="axis" x="976.00" y="336" text-anchor="end">2026-04-26</text>
  <text class="latest" x="976" y="34" text-anchor="end">Latest total: 65,688</text>
</svg>
