<?xml version="1.0" encoding="UTF-8"?>
<svg xmlns="http://www.w3.org/2000/svg" viewBox="0 0 1000 360" role="img" aria-label="hordesmod/kek-ui release downloads chart">
  <defs>
    <linearGradient id="fill-total-trend-orange" x1="0" y1="0" x2="0" y2="1">
      <stop offset="0%" stop-color="#f97316" stop-opacity="0.32"/>
      <stop offset="100%" stop-color="#f97316" stop-opacity="0.05"/>
    </linearGradient>
    <style>
      .bg { fill: #fff7ed; }
      .title { font: 700 24px Arial, sans-serif; fill: #7c2d12; }
      .sub { font: 400 13px Arial, sans-serif; fill: #9a3412; }
      .grid { stroke: #fed7aa; stroke-width: 1; }
      .axis { font: 400 12px Arial, sans-serif; fill: #c2410c; }
      .line { fill: none; stroke: #ea580c; stroke-width: 3; stroke-linecap: round; stroke-linejoin: round; }
      .dot { fill: #ea580c; }
      .value { font: 600 11px Arial, sans-serif; fill: #9a3412; }
      .latest { font: 700 14px Arial, sans-serif; fill: #7c2d12; }
    </style>
  </defs>
  <rect class="bg" x="0" y="0" width="1000" height="360" rx="16" />
  <text class="title" x="64" y="34">hordesmod/kek-ui release downloads</text>
  <text class="sub" x="64" y="352">Generated 2026-04-03</text>
  <line x1="64" y1="52.00" x2="976" y2="52.00" class="grid"/>
  <text x="56" y="56.00" text-anchor="end" class="axis">63,731</text>
  <line x1="64" y1="94.00" x2="976" y2="94.00" class="grid"/>
  <text x="56" y="98.00" text-anchor="end" class="axis">53,109</text>
  <line x1="64" y1="136.00" x2="976" y2="136.00" class="grid"/>
  <text x="56" y="140.00" text-anchor="end" class="axis">42,487</text>
  <line x1="64" y1="178.00" x2="976" y2="178.00" class="grid"/>
  <text x="56" y="182.00" text-anchor="end" class="axis">31,866</text>
  <line x1="64" y1="220.00" x2="976" y2="220.00" class="grid"/>
  <text x="56" y="224.00" text-anchor="end" class="axis">21,244</text>
  <line x1="64" y1="262.00" x2="976" y2="262.00" class="grid"/>
  <text x="56" y="266.00" text-anchor="end" class="axis">10,622</text>
  <line x1="64" y1="304.00" x2="976" y2="304.00" class="grid"/>
  <text x="56" y="308.00" text-anchor="end" class="axis">0</text>
  <path d="M 64.00 304 L 64.00 57.51 L 102.00 57.24 L 140.00 56.94 L 178.00 56.69 L 216.00 56.56 L 254.00 56.44 L 292.00 56.30 L 330.00 56.16 L 368.00 56.00 L 406.00 55.88 L 444.00 55.77 L 482.00 55.66 L 520.00 55.52 L 558.00 55.35 L 596.00 55.25 L 634.00 55.12 L 672.00 54.86 L 710.00 54.54 L 748.00 54.22 L 786.00 53.70 L 824.00 53.33 L 862.00 53.01 L 900.00 52.62 L 938.00 52.30 L 976.00 52.00 L 976.00 304 Z" fill="url(#fill-total-trend-orange)"/>
  <polyline class="line" points="64.00,57.51 102.00,57.24 140.00,56.94 178.00,56.69 216.00,56.56 254.00,56.44 292.00,56.30 330.00,56.16 368.00,56.00 406.00,55.88 444.00,55.77 482.00,55.66 520.00,55.52 558.00,55.35 596.00,55.25 634.00,55.12 672.00,54.86 710.00,54.54 748.00,54.22 786.00,53.70 824.00,53.33 862.00,53.01 900.00,52.62 938.00,52.30 976.00,52.00"/>
  <circle class="dot" cx="976.00" cy="52.00" r="4.5"/>
  
  <text class="axis" x="64.00" y="336" text-anchor="start">2026-03-10</text>
  <text class="axis" x="216.00" y="336" text-anchor="middle">2026-03-14</text>
  <text class="axis" x="368.00" y="336" text-anchor="middle">2026-03-18</text>
  <text class="axis" x="520.00" y="336" text-anchor="middle">2026-03-22</text>
  <text class="axis" x="672.00" y="336" text-anchor="middle">2026-03-26</text>
  <text class="axis" x="824.00" y="336" text-anchor="middle">2026-03-30</text>
  <text class="axis" x="976.00" y="336" text-anchor="end">2026-04-03</text>
  <text class="latest" x="976" y="34" text-anchor="end">Latest total: 63,731</text>
</svg>
