<?xml version="1.0" encoding="UTF-8"?>
<svg xmlns="http://www.w3.org/2000/svg" viewBox="0 0 1000 360" role="img" aria-label="hordesmod/kek-ui release downloads chart">
  <defs>
    <linearGradient id="fill-total-trend-orange" x1="0" y1="0" x2="0" y2="1">
      <stop offset="0%" stop-color="#f97316" stop-opacity="0.32"/>
      <stop offset="100%" stop-color="#f97316" stop-opacity="0.05"/>
    </linearGradient>
    <style>
      .bg { fill: #fff7ed; }
      .title { font: 700 24px Arial, sans-serif; fill: #7c2d12; }
      .sub { font: 400 13px Arial, sans-serif; fill: #9a3412; }
      .grid { stroke: #fed7aa; stroke-width: 1; }
      .axis { font: 400 12px Arial, sans-serif; fill: #c2410c; }
      .line { fill: none; stroke: #ea580c; stroke-width: 3; stroke-linecap: round; stroke-linejoin: round; }
      .dot { fill: #ea580c; }
      .value { font: 600 11px Arial, sans-serif; fill: #9a3412; }
      .latest { font: 700 14px Arial, sans-serif; fill: #7c2d12; }
    </style>
  </defs>
  <rect class="bg" x="0" y="0" width="1000" height="360" rx="16" />
  <text class="title" x="64" y="34">hordesmod/kek-ui release downloads</text>
  <text class="sub" x="64" y="352">Generated 2026-05-20</text>
  <line x1="64" y1="52.00" x2="976" y2="52.00" class="grid"/>
  <text x="56" y="56.00" text-anchor="end" class="axis">67,705</text>
  <line x1="64" y1="94.00" x2="976" y2="94.00" class="grid"/>
  <text x="56" y="98.00" text-anchor="end" class="axis">56,421</text>
  <line x1="64" y1="136.00" x2="976" y2="136.00" class="grid"/>
  <text x="56" y="140.00" text-anchor="end" class="axis">45,137</text>
  <line x1="64" y1="178.00" x2="976" y2="178.00" class="grid"/>
  <text x="56" y="182.00" text-anchor="end" class="axis">33,853</text>
  <line x1="64" y1="220.00" x2="976" y2="220.00" class="grid"/>
  <text x="56" y="224.00" text-anchor="end" class="axis">22,568</text>
  <line x1="64" y1="262.00" x2="976" y2="262.00" class="grid"/>
  <text x="56" y="266.00" text-anchor="end" class="axis">11,284</text>
  <line x1="64" y1="304.00" x2="976" y2="304.00" class="grid"/>
  <text x="56" y="308.00" text-anchor="end" class="axis">0</text>
  <path d="M 64.00 304 L 64.00 71.98 L 76.85 71.72 L 89.69 71.44 L 102.54 71.20 L 115.38 71.08 L 128.23 70.97 L 141.07 70.84 L 153.92 70.71 L 166.76 70.55 L 179.61 70.44 L 192.45 70.34 L 205.30 70.24 L 218.14 70.11 L 230.99 69.94 L 243.83 69.85 L 256.68 69.72 L 269.52 69.48 L 282.37 69.18 L 295.21 68.88 L 308.06 68.39 L 320.90 68.04 L 333.75 67.74 L 346.59 67.38 L 359.44 67.07 L 372.28 66.79 L 385.13 66.49 L 397.97 66.14 L 410.82 65.78 L 423.66 65.49 L 436.51 65.19 L 449.35 64.87 L 462.20 64.56 L 475.04 64.23 L 487.89 63.88 L 500.73 63.56 L 513.58 63.27 L 526.42 62.94 L 539.27 62.64 L 552.11 62.33 L 564.96 62.00 L 577.80 61.66 L 590.65 61.33 L 603.49 61.03 L 616.34 60.75 L 629.18 60.44 L 642.03 60.14 L 654.87 59.81 L 667.72 59.51 L 680.56 59.19 L 693.41 58.88 L 706.25 58.56 L 719.10 58.27 L 731.94 57.96 L 744.79 57.67 L 757.63 57.32 L 770.48 56.99 L 783.32 56.63 L 796.17 56.27 L 809.01 55.98 L 821.86 55.70 L 834.70 55.37 L 847.55 55.07 L 860.39 54.75 L 873.24 54.43 L 886.08 54.14 L 898.93 53.84 L 911.77 53.57 L 924.62 53.25 L 937.46 52.92 L 950.31 52.60 L 963.15 52.30 L 976.00 52.00 L 976.00 304 Z" fill="url(#fill-total-trend-orange)"/>
  <polyline class="line" points="64.00,71.98 76.85,71.72 89.69,71.44 102.54,71.20 115.38,71.08 128.23,70.97 141.07,70.84 153.92,70.71 166.76,70.55 179.61,70.44 192.45,70.34 205.30,70.24 218.14,70.11 230.99,69.94 243.83,69.85 256.68,69.72 269.52,69.48 282.37,69.18 295.21,68.88 308.06,68.39 320.90,68.04 333.75,67.74 346.59,67.38 359.44,67.07 372.28,66.79 385.13,66.49 397.97,66.14 410.82,65.78 423.66,65.49 436.51,65.19 449.35,64.87 462.20,64.56 475.04,64.23 487.89,63.88 500.73,63.56 513.58,63.27 526.42,62.94 539.27,62.64 552.11,62.33 564.96,62.00 577.80,61.66 590.65,61.33 603.49,61.03 616.34,60.75 629.18,60.44 642.03,60.14 654.87,59.81 667.72,59.51 680.56,59.19 693.41,58.88 706.25,58.56 719.10,58.27 731.94,57.96 744.79,57.67 757.63,57.32 770.48,56.99 783.32,56.63 796.17,56.27 809.01,55.98 821.86,55.70 834.70,55.37 847.55,55.07 860.39,54.75 873.24,54.43 886.08,54.14 898.93,53.84 911.77,53.57 924.62,53.25 937.46,52.92 950.31,52.60 963.15,52.30 976.00,52.00"/>
  <circle class="dot" cx="976.00" cy="52.00" r="4.5"/>
  
  <text class="axis" x="64.00" y="336" text-anchor="start">2026-03-10</text>
  <text class="axis" x="243.83" y="336" text-anchor="middle">2026-03-24</text>
  <text class="axis" x="423.66" y="336" text-anchor="middle">2026-04-07</text>
  <text class="axis" x="603.49" y="336" text-anchor="middle">2026-04-21</text>
  <text class="axis" x="783.32" y="336" text-anchor="middle">2026-05-05</text>
  <text class="axis" x="963.15" y="336" text-anchor="middle">2026-05-19</text>
  <text class="axis" x="976.00" y="336" text-anchor="end">2026-05-20</text>
  <text class="latest" x="976" y="34" text-anchor="end">Latest total: 67,705</text>
</svg>
