<?xml version="1.0" encoding="UTF-8"?>
<svg xmlns="http://www.w3.org/2000/svg" viewBox="0 0 1000 360" role="img" aria-label="hordesmod/kek-ui release downloads chart">
  <defs>
    <linearGradient id="fill-total-trend-slate" x1="0" y1="0" x2="0" y2="1">
      <stop offset="0%" stop-color="#60a5fa" stop-opacity="0.32"/>
      <stop offset="100%" stop-color="#60a5fa" stop-opacity="0.05"/>
    </linearGradient>
    <style>
      .bg { fill: #0f172a; }
      .title { font: 700 24px Arial, sans-serif; fill: #e2e8f0; }
      .sub { font: 400 13px Arial, sans-serif; fill: #94a3b8; }
      .grid { stroke: #1e293b; stroke-width: 1; }
      .axis { font: 400 12px Arial, sans-serif; fill: #94a3b8; }
      .line { fill: none; stroke: #60a5fa; stroke-width: 3; stroke-linecap: round; stroke-linejoin: round; }
      .dot { fill: #60a5fa; }
      .value { font: 600 11px Arial, sans-serif; fill: #cbd5e1; }
      .latest { font: 700 14px Arial, sans-serif; fill: #e2e8f0; }
    </style>
  </defs>
  <rect class="bg" x="0" y="0" width="1000" height="360" rx="16" />
  <text class="title" x="64" y="34">hordesmod/kek-ui release downloads</text>
  <text class="sub" x="64" y="352">Generated 2026-04-17</text>
  <line x1="64" y1="52.00" x2="976" y2="52.00" class="grid"/>
  <text x="56" y="56.00" text-anchor="end" class="axis">64,929</text>
  <line x1="64" y1="94.00" x2="976" y2="94.00" class="grid"/>
  <text x="56" y="98.00" text-anchor="end" class="axis">54,108</text>
  <line x1="64" y1="136.00" x2="976" y2="136.00" class="grid"/>
  <text x="56" y="140.00" text-anchor="end" class="axis">43,286</text>
  <line x1="64" y1="178.00" x2="976" y2="178.00" class="grid"/>
  <text x="56" y="182.00" text-anchor="end" class="axis">32,465</text>
  <line x1="64" y1="220.00" x2="976" y2="220.00" class="grid"/>
  <text x="56" y="224.00" text-anchor="end" class="axis">21,643</text>
  <line x1="64" y1="262.00" x2="976" y2="262.00" class="grid"/>
  <text x="56" y="266.00" text-anchor="end" class="axis">10,822</text>
  <line x1="64" y1="304.00" x2="976" y2="304.00" class="grid"/>
  <text x="56" y="308.00" text-anchor="end" class="axis">0</text>
  <path d="M 64.00 304 L 64.00 62.06 L 88.00 61.79 L 112.00 61.50 L 136.00 61.25 L 160.00 61.12 L 184.00 61.00 L 208.00 60.87 L 232.00 60.74 L 256.00 60.57 L 280.00 60.46 L 304.00 60.35 L 328.00 60.24 L 352.00 60.11 L 376.00 59.94 L 400.00 59.84 L 424.00 59.71 L 448.00 59.46 L 472.00 59.15 L 496.00 58.83 L 520.00 58.32 L 544.00 57.95 L 568.00 57.64 L 592.00 57.26 L 616.00 56.94 L 640.00 56.65 L 664.00 56.33 L 688.00 55.97 L 712.00 55.59 L 736.00 55.29 L 760.00 54.98 L 784.00 54.65 L 808.00 54.32 L 832.00 53.98 L 856.00 53.61 L 880.00 53.28 L 904.00 52.98 L 928.00 52.63 L 952.00 52.32 L 976.00 52.00 L 976.00 304 Z" fill="url(#fill-total-trend-slate)"/>
  <polyline class="line" points="64.00,62.06 88.00,61.79 112.00,61.50 136.00,61.25 160.00,61.12 184.00,61.00 208.00,60.87 232.00,60.74 256.00,60.57 280.00,60.46 304.00,60.35 328.00,60.24 352.00,60.11 376.00,59.94 400.00,59.84 424.00,59.71 448.00,59.46 472.00,59.15 496.00,58.83 520.00,58.32 544.00,57.95 568.00,57.64 592.00,57.26 616.00,56.94 640.00,56.65 664.00,56.33 688.00,55.97 712.00,55.59 736.00,55.29 760.00,54.98 784.00,54.65 808.00,54.32 832.00,53.98 856.00,53.61 880.00,53.28 904.00,52.98 928.00,52.63 952.00,52.32 976.00,52.00"/>
  <circle class="dot" cx="976.00" cy="52.00" r="4.5"/>
  
  <text class="axis" x="64.00" y="336" text-anchor="start">2026-03-10</text>
  <text class="axis" x="232.00" y="336" text-anchor="middle">2026-03-17</text>
  <text class="axis" x="400.00" y="336" text-anchor="middle">2026-03-24</text>
  <text class="axis" x="568.00" y="336" text-anchor="middle">2026-03-31</text>
  <text class="axis" x="736.00" y="336" text-anchor="middle">2026-04-07</text>
  <text class="axis" x="904.00" y="336" text-anchor="middle">2026-04-14</text>
  <text class="axis" x="976.00" y="336" text-anchor="end">2026-04-17</text>
  <text class="latest" x="976" y="34" text-anchor="end">Latest total: 64,929</text>
</svg>
