<?xml version="1.0" encoding="UTF-8"?>
<svg xmlns="http://www.w3.org/2000/svg" viewBox="0 0 1000 360" role="img" aria-label="hordesmod/kek-ui release downloads chart">
  <defs>
    <linearGradient id="fill-total-trend-orange" x1="0" y1="0" x2="0" y2="1">
      <stop offset="0%" stop-color="#f97316" stop-opacity="0.32"/>
      <stop offset="100%" stop-color="#f97316" stop-opacity="0.05"/>
    </linearGradient>
    <style>
      .bg { fill: #fff7ed; }
      .title { font: 700 24px Arial, sans-serif; fill: #7c2d12; }
      .sub { font: 400 13px Arial, sans-serif; fill: #9a3412; }
      .grid { stroke: #fed7aa; stroke-width: 1; }
      .axis { font: 400 12px Arial, sans-serif; fill: #c2410c; }
      .line { fill: none; stroke: #ea580c; stroke-width: 3; stroke-linecap: round; stroke-linejoin: round; }
      .dot { fill: #ea580c; }
      .value { font: 600 11px Arial, sans-serif; fill: #9a3412; }
      .latest { font: 700 14px Arial, sans-serif; fill: #7c2d12; }
    </style>
  </defs>
  <rect class="bg" x="0" y="0" width="1000" height="360" rx="16" />
  <text class="title" x="64" y="34">hordesmod/kek-ui release downloads</text>
  <text class="sub" x="64" y="352">Generated 2026-05-15</text>
  <line x1="64" y1="52.00" x2="976" y2="52.00" class="grid"/>
  <text x="56" y="56.00" text-anchor="end" class="axis">67,282</text>
  <line x1="64" y1="94.00" x2="976" y2="94.00" class="grid"/>
  <text x="56" y="98.00" text-anchor="end" class="axis">56,068</text>
  <line x1="64" y1="136.00" x2="976" y2="136.00" class="grid"/>
  <text x="56" y="140.00" text-anchor="end" class="axis">44,855</text>
  <line x1="64" y1="178.00" x2="976" y2="178.00" class="grid"/>
  <text x="56" y="182.00" text-anchor="end" class="axis">33,641</text>
  <line x1="64" y1="220.00" x2="976" y2="220.00" class="grid"/>
  <text x="56" y="224.00" text-anchor="end" class="axis">22,427</text>
  <line x1="64" y1="262.00" x2="976" y2="262.00" class="grid"/>
  <text x="56" y="266.00" text-anchor="end" class="axis">11,214</text>
  <line x1="64" y1="304.00" x2="976" y2="304.00" class="grid"/>
  <text x="56" y="308.00" text-anchor="end" class="axis">0</text>
  <path d="M 64.00 304 L 64.00 70.52 L 77.82 70.26 L 91.64 69.98 L 105.45 69.74 L 119.27 69.62 L 133.09 69.50 L 146.91 69.38 L 160.73 69.24 L 174.55 69.09 L 188.36 68.97 L 202.18 68.87 L 216.00 68.77 L 229.82 68.64 L 243.64 68.47 L 257.45 68.38 L 271.27 68.25 L 285.09 68.01 L 298.91 67.71 L 312.73 67.40 L 326.55 66.91 L 340.36 66.56 L 354.18 66.26 L 368.00 65.89 L 381.82 65.58 L 395.64 65.30 L 409.45 64.99 L 423.27 64.65 L 437.09 64.28 L 450.91 63.99 L 464.73 63.69 L 478.55 63.37 L 492.36 63.06 L 506.18 62.72 L 520.00 62.37 L 533.82 62.05 L 547.64 61.76 L 561.45 61.42 L 575.27 61.12 L 589.09 60.81 L 602.91 60.48 L 616.73 60.14 L 630.55 59.81 L 644.36 59.50 L 658.18 59.22 L 672.00 58.91 L 685.82 58.60 L 699.64 58.27 L 713.45 57.97 L 727.27 57.65 L 741.09 57.34 L 754.91 57.02 L 768.73 56.72 L 782.55 56.41 L 796.36 56.12 L 810.18 55.77 L 824.00 55.43 L 837.82 55.07 L 851.64 54.71 L 865.45 54.42 L 879.27 54.14 L 893.09 53.81 L 906.91 53.51 L 920.73 53.19 L 934.55 52.86 L 948.36 52.57 L 962.18 52.27 L 976.00 52.00 L 976.00 304 Z" fill="url(#fill-total-trend-orange)"/>
  <polyline class="line" points="64.00,70.52 77.82,70.26 91.64,69.98 105.45,69.74 119.27,69.62 133.09,69.50 146.91,69.38 160.73,69.24 174.55,69.09 188.36,68.97 202.18,68.87 216.00,68.77 229.82,68.64 243.64,68.47 257.45,68.38 271.27,68.25 285.09,68.01 298.91,67.71 312.73,67.40 326.55,66.91 340.36,66.56 354.18,66.26 368.00,65.89 381.82,65.58 395.64,65.30 409.45,64.99 423.27,64.65 437.09,64.28 450.91,63.99 464.73,63.69 478.55,63.37 492.36,63.06 506.18,62.72 520.00,62.37 533.82,62.05 547.64,61.76 561.45,61.42 575.27,61.12 589.09,60.81 602.91,60.48 616.73,60.14 630.55,59.81 644.36,59.50 658.18,59.22 672.00,58.91 685.82,58.60 699.64,58.27 713.45,57.97 727.27,57.65 741.09,57.34 754.91,57.02 768.73,56.72 782.55,56.41 796.36,56.12 810.18,55.77 824.00,55.43 837.82,55.07 851.64,54.71 865.45,54.42 879.27,54.14 893.09,53.81 906.91,53.51 920.73,53.19 934.55,52.86 948.36,52.57 962.18,52.27 976.00,52.00"/>
  <circle class="dot" cx="976.00" cy="52.00" r="4.5"/>
  
  <text class="axis" x="64.00" y="336" text-anchor="start">2026-03-10</text>
  <text class="axis" x="243.64" y="336" text-anchor="middle">2026-03-23</text>
  <text class="axis" x="423.27" y="336" text-anchor="middle">2026-04-05</text>
  <text class="axis" x="602.91" y="336" text-anchor="middle">2026-04-18</text>
  <text class="axis" x="782.55" y="336" text-anchor="middle">2026-05-01</text>
  <text class="axis" x="962.18" y="336" text-anchor="middle">2026-05-14</text>
  <text class="axis" x="976.00" y="336" text-anchor="end">2026-05-15</text>
  <text class="latest" x="976" y="34" text-anchor="end">Latest total: 67,282</text>
</svg>
