<?xml version="1.0" encoding="UTF-8"?>
<svg xmlns="http://www.w3.org/2000/svg" viewBox="0 0 1000 360" role="img" aria-label="hordesmod/kek-ui release downloads chart">
  <defs>
    <linearGradient id="fill-total-trend-slate" x1="0" y1="0" x2="0" y2="1">
      <stop offset="0%" stop-color="#60a5fa" stop-opacity="0.32"/>
      <stop offset="100%" stop-color="#60a5fa" stop-opacity="0.05"/>
    </linearGradient>
    <style>
      .bg { fill: #0f172a; }
      .title { font: 700 24px Arial, sans-serif; fill: #e2e8f0; }
      .sub { font: 400 13px Arial, sans-serif; fill: #94a3b8; }
      .grid { stroke: #1e293b; stroke-width: 1; }
      .axis { font: 400 12px Arial, sans-serif; fill: #94a3b8; }
      .line { fill: none; stroke: #60a5fa; stroke-width: 3; stroke-linecap: round; stroke-linejoin: round; }
      .dot { fill: #60a5fa; }
      .value { font: 600 11px Arial, sans-serif; fill: #cbd5e1; }
      .latest { font: 700 14px Arial, sans-serif; fill: #e2e8f0; }
    </style>
  </defs>
  <rect class="bg" x="0" y="0" width="1000" height="360" rx="16" />
  <text class="title" x="64" y="34">hordesmod/kek-ui release downloads</text>
  <text class="sub" x="64" y="352">Generated 2026-04-06</text>
  <line x1="64" y1="52.00" x2="976" y2="52.00" class="grid"/>
  <text x="56" y="56.00" text-anchor="end" class="axis">64,003</text>
  <line x1="64" y1="94.00" x2="976" y2="94.00" class="grid"/>
  <text x="56" y="98.00" text-anchor="end" class="axis">53,336</text>
  <line x1="64" y1="136.00" x2="976" y2="136.00" class="grid"/>
  <text x="56" y="140.00" text-anchor="end" class="axis">42,669</text>
  <line x1="64" y1="178.00" x2="976" y2="178.00" class="grid"/>
  <text x="56" y="182.00" text-anchor="end" class="axis">32,002</text>
  <line x1="64" y1="220.00" x2="976" y2="220.00" class="grid"/>
  <text x="56" y="224.00" text-anchor="end" class="axis">21,334</text>
  <line x1="64" y1="262.00" x2="976" y2="262.00" class="grid"/>
  <text x="56" y="266.00" text-anchor="end" class="axis">10,667</text>
  <line x1="64" y1="304.00" x2="976" y2="304.00" class="grid"/>
  <text x="56" y="308.00" text-anchor="end" class="axis">0</text>
  <path d="M 64.00 304 L 64.00 58.56 L 97.78 58.28 L 131.56 57.99 L 165.33 57.74 L 199.11 57.61 L 232.89 57.49 L 266.67 57.35 L 300.44 57.22 L 334.22 57.05 L 368.00 56.93 L 401.78 56.83 L 435.56 56.72 L 469.33 56.58 L 503.11 56.41 L 536.89 56.30 L 570.67 56.17 L 604.44 55.92 L 638.22 55.60 L 672.00 55.28 L 705.78 54.76 L 739.56 54.39 L 773.33 54.07 L 807.11 53.69 L 840.89 53.37 L 874.67 53.07 L 908.44 52.75 L 942.22 52.39 L 976.00 52.00 L 976.00 304 Z" fill="url(#fill-total-trend-slate)"/>
  <polyline class="line" points="64.00,58.56 97.78,58.28 131.56,57.99 165.33,57.74 199.11,57.61 232.89,57.49 266.67,57.35 300.44,57.22 334.22,57.05 368.00,56.93 401.78,56.83 435.56,56.72 469.33,56.58 503.11,56.41 536.89,56.30 570.67,56.17 604.44,55.92 638.22,55.60 672.00,55.28 705.78,54.76 739.56,54.39 773.33,54.07 807.11,53.69 840.89,53.37 874.67,53.07 908.44,52.75 942.22,52.39 976.00,52.00"/>
  <circle class="dot" cx="976.00" cy="52.00" r="4.5"/>
  
  <text class="axis" x="64.00" y="336" text-anchor="start">2026-03-10</text>
  <text class="axis" x="232.89" y="336" text-anchor="middle">2026-03-15</text>
  <text class="axis" x="401.78" y="336" text-anchor="middle">2026-03-20</text>
  <text class="axis" x="570.67" y="336" text-anchor="middle">2026-03-25</text>
  <text class="axis" x="739.56" y="336" text-anchor="middle">2026-03-30</text>
  <text class="axis" x="908.44" y="336" text-anchor="middle">2026-04-04</text>
  <text class="axis" x="976.00" y="336" text-anchor="end">2026-04-06</text>
  <text class="latest" x="976" y="34" text-anchor="end">Latest total: 64,003</text>
</svg>
