<?xml version="1.0" encoding="UTF-8"?>
<svg xmlns="http://www.w3.org/2000/svg" viewBox="0 0 1000 360" role="img" aria-label="hordesmod/kek-ui release downloads chart">
  <defs>
    <linearGradient id="fill-total-trend-orange" x1="0" y1="0" x2="0" y2="1">
      <stop offset="0%" stop-color="#f97316" stop-opacity="0.32"/>
      <stop offset="100%" stop-color="#f97316" stop-opacity="0.05"/>
    </linearGradient>
    <style>
      .bg { fill: #fff7ed; }
      .title { font: 700 24px Arial, sans-serif; fill: #7c2d12; }
      .sub { font: 400 13px Arial, sans-serif; fill: #9a3412; }
      .grid { stroke: #fed7aa; stroke-width: 1; }
      .axis { font: 400 12px Arial, sans-serif; fill: #c2410c; }
      .line { fill: none; stroke: #ea580c; stroke-width: 3; stroke-linecap: round; stroke-linejoin: round; }
      .dot { fill: #ea580c; }
      .value { font: 600 11px Arial, sans-serif; fill: #9a3412; }
      .latest { font: 700 14px Arial, sans-serif; fill: #7c2d12; }
    </style>
  </defs>
  <rect class="bg" x="0" y="0" width="1000" height="360" rx="16" />
  <text class="title" x="64" y="34">hordesmod/kek-ui release downloads</text>
  <text class="sub" x="64" y="352">Generated 2026-03-31</text>
  <line x1="64" y1="52.00" x2="976" y2="52.00" class="grid"/>
  <text x="56" y="56.00" text-anchor="end" class="axis">63,476</text>
  <line x1="64" y1="94.00" x2="976" y2="94.00" class="grid"/>
  <text x="56" y="98.00" text-anchor="end" class="axis">52,897</text>
  <line x1="64" y1="136.00" x2="976" y2="136.00" class="grid"/>
  <text x="56" y="140.00" text-anchor="end" class="axis">42,317</text>
  <line x1="64" y1="178.00" x2="976" y2="178.00" class="grid"/>
  <text x="56" y="182.00" text-anchor="end" class="axis">31,738</text>
  <line x1="64" y1="220.00" x2="976" y2="220.00" class="grid"/>
  <text x="56" y="224.00" text-anchor="end" class="axis">21,159</text>
  <line x1="64" y1="262.00" x2="976" y2="262.00" class="grid"/>
  <text x="56" y="266.00" text-anchor="end" class="axis">10,579</text>
  <line x1="64" y1="304.00" x2="976" y2="304.00" class="grid"/>
  <text x="56" y="308.00" text-anchor="end" class="axis">0</text>
  <path d="M 64.00 304 L 64.00 56.52 L 107.43 56.24 L 150.86 55.95 L 194.29 55.69 L 237.71 55.57 L 281.14 55.44 L 324.57 55.31 L 368.00 55.17 L 411.43 55.00 L 454.86 54.88 L 498.29 54.78 L 541.71 54.66 L 585.14 54.52 L 628.57 54.35 L 672.00 54.25 L 715.43 54.12 L 758.86 53.86 L 802.29 53.54 L 845.71 53.22 L 889.14 52.69 L 932.57 52.32 L 976.00 52.00 L 976.00 304 Z" fill="url(#fill-total-trend-orange)"/>
  <polyline class="line" points="64.00,56.52 107.43,56.24 150.86,55.95 194.29,55.69 237.71,55.57 281.14,55.44 324.57,55.31 368.00,55.17 411.43,55.00 454.86,54.88 498.29,54.78 541.71,54.66 585.14,54.52 628.57,54.35 672.00,54.25 715.43,54.12 758.86,53.86 802.29,53.54 845.71,53.22 889.14,52.69 932.57,52.32 976.00,52.00"/>
  <circle class="dot" cx="976.00" cy="52.00" r="4.5"/>
  
  <text class="axis" x="64.00" y="336" text-anchor="start">2026-03-10</text>
  <text class="axis" x="237.71" y="336" text-anchor="middle">2026-03-14</text>
  <text class="axis" x="411.43" y="336" text-anchor="middle">2026-03-18</text>
  <text class="axis" x="585.14" y="336" text-anchor="middle">2026-03-22</text>
  <text class="axis" x="758.86" y="336" text-anchor="middle">2026-03-26</text>
  <text class="axis" x="932.57" y="336" text-anchor="middle">2026-03-30</text>
  <text class="axis" x="976.00" y="336" text-anchor="end">2026-03-31</text>
  <text class="latest" x="976" y="34" text-anchor="end">Latest total: 63,476</text>
</svg>
