<?xml version="1.0" encoding="UTF-8"?>
<svg xmlns="http://www.w3.org/2000/svg" viewBox="0 0 1000 360" role="img" aria-label="hordesmod/kek-ui release downloads chart">
  <defs>
    <linearGradient id="fill-total-trend-black" x1="0" y1="0" x2="0" y2="1">
      <stop offset="0%" stop-color="#22d3ee" stop-opacity="0.32"/>
      <stop offset="100%" stop-color="#22d3ee" stop-opacity="0.05"/>
    </linearGradient>
    <style>
      .bg { fill: #0b0b0d; }
      .title { font: 700 24px Arial, sans-serif; fill: #f8fafc; }
      .sub { font: 400 13px Arial, sans-serif; fill: #cbd5e1; }
      .grid { stroke: #1f2937; stroke-width: 1; }
      .axis { font: 400 12px Arial, sans-serif; fill: #94a3b8; }
      .line { fill: none; stroke: #22d3ee; stroke-width: 3; stroke-linecap: round; stroke-linejoin: round; }
      .dot { fill: #22d3ee; }
      .value { font: 600 11px Arial, sans-serif; fill: #cbd5e1; }
      .latest { font: 700 14px Arial, sans-serif; fill: #f8fafc; }
    </style>
  </defs>
  <rect class="bg" x="0" y="0" width="1000" height="360" rx="16" />
  <text class="title" x="64" y="34">hordesmod/kek-ui release downloads</text>
  <text class="sub" x="64" y="352">Generated 2026-04-24</text>
  <line x1="64" y1="52.00" x2="976" y2="52.00" class="grid"/>
  <text x="56" y="56.00" text-anchor="end" class="axis">65,519</text>
  <line x1="64" y1="94.00" x2="976" y2="94.00" class="grid"/>
  <text x="56" y="98.00" text-anchor="end" class="axis">54,599</text>
  <line x1="64" y1="136.00" x2="976" y2="136.00" class="grid"/>
  <text x="56" y="140.00" text-anchor="end" class="axis">43,679</text>
  <line x1="64" y1="178.00" x2="976" y2="178.00" class="grid"/>
  <text x="56" y="182.00" text-anchor="end" class="axis">32,760</text>
  <line x1="64" y1="220.00" x2="976" y2="220.00" class="grid"/>
  <text x="56" y="224.00" text-anchor="end" class="axis">21,840</text>
  <line x1="64" y1="262.00" x2="976" y2="262.00" class="grid"/>
  <text x="56" y="266.00" text-anchor="end" class="axis">10,920</text>
  <line x1="64" y1="304.00" x2="976" y2="304.00" class="grid"/>
  <text x="56" y="308.00" text-anchor="end" class="axis">0</text>
  <path d="M 64.00 304 L 64.00 64.23 L 84.27 63.97 L 104.53 63.68 L 124.80 63.43 L 145.07 63.31 L 165.33 63.19 L 185.60 63.06 L 205.87 62.93 L 226.13 62.77 L 246.40 62.65 L 266.67 62.55 L 286.93 62.44 L 307.20 62.30 L 327.47 62.13 L 347.73 62.03 L 368.00 61.91 L 388.27 61.66 L 408.53 61.35 L 428.80 61.04 L 449.07 60.53 L 469.33 60.17 L 489.60 59.86 L 509.87 59.48 L 530.13 59.17 L 550.40 58.88 L 570.67 58.56 L 590.93 58.21 L 611.20 57.83 L 631.47 57.53 L 651.73 57.23 L 672.00 56.89 L 692.27 56.57 L 712.53 56.23 L 732.80 55.87 L 753.07 55.54 L 773.33 55.24 L 793.60 54.90 L 813.87 54.59 L 834.13 54.27 L 854.40 53.93 L 874.67 53.58 L 894.93 53.24 L 915.20 52.92 L 935.47 52.63 L 955.73 52.32 L 976.00 52.00 L 976.00 304 Z" fill="url(#fill-total-trend-black)"/>
  <polyline class="line" points="64.00,64.23 84.27,63.97 104.53,63.68 124.80,63.43 145.07,63.31 165.33,63.19 185.60,63.06 205.87,62.93 226.13,62.77 246.40,62.65 266.67,62.55 286.93,62.44 307.20,62.30 327.47,62.13 347.73,62.03 368.00,61.91 388.27,61.66 408.53,61.35 428.80,61.04 449.07,60.53 469.33,60.17 489.60,59.86 509.87,59.48 530.13,59.17 550.40,58.88 570.67,58.56 590.93,58.21 611.20,57.83 631.47,57.53 651.73,57.23 672.00,56.89 692.27,56.57 712.53,56.23 732.80,55.87 753.07,55.54 773.33,55.24 793.60,54.90 813.87,54.59 834.13,54.27 854.40,53.93 874.67,53.58 894.93,53.24 915.20,52.92 935.47,52.63 955.73,52.32 976.00,52.00"/>
  <circle class="dot" cx="976.00" cy="52.00" r="4.5"/>
  
  <text class="axis" x="64.00" y="336" text-anchor="start">2026-03-10</text>
  <text class="axis" x="246.40" y="336" text-anchor="middle">2026-03-19</text>
  <text class="axis" x="428.80" y="336" text-anchor="middle">2026-03-28</text>
  <text class="axis" x="611.20" y="336" text-anchor="middle">2026-04-06</text>
  <text class="axis" x="793.60" y="336" text-anchor="middle">2026-04-15</text>
  <text class="axis" x="976.00" y="336" text-anchor="end">2026-04-24</text>
  <text class="latest" x="976" y="34" text-anchor="end">Latest total: 65,519</text>
</svg>
