<?xml version="1.0" encoding="UTF-8"?>
<svg xmlns="http://www.w3.org/2000/svg" viewBox="0 0 1000 360" role="img" aria-label="hordesmod/kek-ui release downloads chart">
  <defs>
    <linearGradient id="fill-total-trend-slate" x1="0" y1="0" x2="0" y2="1">
      <stop offset="0%" stop-color="#60a5fa" stop-opacity="0.32"/>
      <stop offset="100%" stop-color="#60a5fa" stop-opacity="0.05"/>
    </linearGradient>
    <style>
      .bg { fill: #0f172a; }
      .title { font: 700 24px Arial, sans-serif; fill: #e2e8f0; }
      .sub { font: 400 13px Arial, sans-serif; fill: #94a3b8; }
      .grid { stroke: #1e293b; stroke-width: 1; }
      .axis { font: 400 12px Arial, sans-serif; fill: #94a3b8; }
      .line { fill: none; stroke: #60a5fa; stroke-width: 3; stroke-linecap: round; stroke-linejoin: round; }
      .dot { fill: #60a5fa; }
      .value { font: 600 11px Arial, sans-serif; fill: #cbd5e1; }
      .latest { font: 700 14px Arial, sans-serif; fill: #e2e8f0; }
    </style>
  </defs>
  <rect class="bg" x="0" y="0" width="1000" height="360" rx="16" />
  <text class="title" x="64" y="34">hordesmod/kek-ui release downloads</text>
  <text class="sub" x="64" y="352">Generated 2026-05-12</text>
  <line x1="64" y1="52.00" x2="976" y2="52.00" class="grid"/>
  <text x="56" y="56.00" text-anchor="end" class="axis">67,052</text>
  <line x1="64" y1="94.00" x2="976" y2="94.00" class="grid"/>
  <text x="56" y="98.00" text-anchor="end" class="axis">55,877</text>
  <line x1="64" y1="136.00" x2="976" y2="136.00" class="grid"/>
  <text x="56" y="140.00" text-anchor="end" class="axis">44,701</text>
  <line x1="64" y1="178.00" x2="976" y2="178.00" class="grid"/>
  <text x="56" y="182.00" text-anchor="end" class="axis">33,526</text>
  <line x1="64" y1="220.00" x2="976" y2="220.00" class="grid"/>
  <text x="56" y="224.00" text-anchor="end" class="axis">22,351</text>
  <line x1="64" y1="262.00" x2="976" y2="262.00" class="grid"/>
  <text x="56" y="266.00" text-anchor="end" class="axis">11,175</text>
  <line x1="64" y1="304.00" x2="976" y2="304.00" class="grid"/>
  <text x="56" y="308.00" text-anchor="end" class="axis">0</text>
  <path d="M 64.00 304 L 64.00 69.72 L 78.48 69.46 L 92.95 69.18 L 107.43 68.93 L 121.90 68.81 L 136.38 68.70 L 150.86 68.57 L 165.33 68.44 L 179.81 68.28 L 194.29 68.17 L 208.76 68.07 L 223.24 67.96 L 237.71 67.83 L 252.19 67.66 L 266.67 67.57 L 281.14 67.44 L 295.62 67.20 L 310.10 66.90 L 324.57 66.59 L 339.05 66.10 L 353.52 65.74 L 368.00 65.44 L 382.48 65.07 L 396.95 64.76 L 411.43 64.48 L 425.90 64.17 L 440.38 63.83 L 454.86 63.46 L 469.33 63.17 L 483.81 62.87 L 498.29 62.54 L 512.76 62.23 L 527.24 61.89 L 541.71 61.54 L 556.19 61.22 L 570.67 60.93 L 585.14 60.59 L 599.62 60.29 L 614.10 59.98 L 628.57 59.65 L 643.05 59.30 L 657.52 58.97 L 672.00 58.66 L 686.48 58.38 L 700.95 58.07 L 715.43 57.76 L 729.90 57.43 L 744.38 57.13 L 758.86 56.81 L 773.33 56.49 L 787.81 56.17 L 802.29 55.87 L 816.76 55.56 L 831.24 55.27 L 845.71 54.92 L 860.19 54.58 L 874.67 54.22 L 889.14 53.86 L 903.62 53.56 L 918.10 53.29 L 932.57 52.95 L 947.05 52.65 L 961.52 52.33 L 976.00 52.00 L 976.00 304 Z" fill="url(#fill-total-trend-slate)"/>
  <polyline class="line" points="64.00,69.72 78.48,69.46 92.95,69.18 107.43,68.93 121.90,68.81 136.38,68.70 150.86,68.57 165.33,68.44 179.81,68.28 194.29,68.17 208.76,68.07 223.24,67.96 237.71,67.83 252.19,67.66 266.67,67.57 281.14,67.44 295.62,67.20 310.10,66.90 324.57,66.59 339.05,66.10 353.52,65.74 368.00,65.44 382.48,65.07 396.95,64.76 411.43,64.48 425.90,64.17 440.38,63.83 454.86,63.46 469.33,63.17 483.81,62.87 498.29,62.54 512.76,62.23 527.24,61.89 541.71,61.54 556.19,61.22 570.67,60.93 585.14,60.59 599.62,60.29 614.10,59.98 628.57,59.65 643.05,59.30 657.52,58.97 672.00,58.66 686.48,58.38 700.95,58.07 715.43,57.76 729.90,57.43 744.38,57.13 758.86,56.81 773.33,56.49 787.81,56.17 802.29,55.87 816.76,55.56 831.24,55.27 845.71,54.92 860.19,54.58 874.67,54.22 889.14,53.86 903.62,53.56 918.10,53.29 932.57,52.95 947.05,52.65 961.52,52.33 976.00,52.00"/>
  <circle class="dot" cx="976.00" cy="52.00" r="4.5"/>
  
  <text class="axis" x="64.00" y="336" text-anchor="start">2026-03-10</text>
  <text class="axis" x="237.71" y="336" text-anchor="middle">2026-03-22</text>
  <text class="axis" x="411.43" y="336" text-anchor="middle">2026-04-03</text>
  <text class="axis" x="585.14" y="336" text-anchor="middle">2026-04-15</text>
  <text class="axis" x="758.86" y="336" text-anchor="middle">2026-04-27</text>
  <text class="axis" x="932.57" y="336" text-anchor="middle">2026-05-09</text>
  <text class="axis" x="976.00" y="336" text-anchor="end">2026-05-12</text>
  <text class="latest" x="976" y="34" text-anchor="end">Latest total: 67,052</text>
</svg>
