<?xml version="1.0" encoding="UTF-8"?>
<svg xmlns="http://www.w3.org/2000/svg" viewBox="0 0 1000 360" role="img" aria-label="hordesmod/kek-ui release downloads chart">
  <defs>
    <linearGradient id="fill-total-trend-slate" x1="0" y1="0" x2="0" y2="1">
      <stop offset="0%" stop-color="#60a5fa" stop-opacity="0.32"/>
      <stop offset="100%" stop-color="#60a5fa" stop-opacity="0.05"/>
    </linearGradient>
    <style>
      .bg { fill: #0f172a; }
      .title { font: 700 24px Arial, sans-serif; fill: #e2e8f0; }
      .sub { font: 400 13px Arial, sans-serif; fill: #94a3b8; }
      .grid { stroke: #1e293b; stroke-width: 1; }
      .axis { font: 400 12px Arial, sans-serif; fill: #94a3b8; }
      .line { fill: none; stroke: #60a5fa; stroke-width: 3; stroke-linecap: round; stroke-linejoin: round; }
      .dot { fill: #60a5fa; }
      .value { font: 600 11px Arial, sans-serif; fill: #cbd5e1; }
      .latest { font: 700 14px Arial, sans-serif; fill: #e2e8f0; }
    </style>
  </defs>
  <rect class="bg" x="0" y="0" width="1000" height="360" rx="16" />
  <text class="title" x="64" y="34">hordesmod/kek-ui release downloads</text>
  <text class="sub" x="64" y="352">Generated 2026-05-13</text>
  <line x1="64" y1="52.00" x2="976" y2="52.00" class="grid"/>
  <text x="56" y="56.00" text-anchor="end" class="axis">67,130</text>
  <line x1="64" y1="94.00" x2="976" y2="94.00" class="grid"/>
  <text x="56" y="98.00" text-anchor="end" class="axis">55,942</text>
  <line x1="64" y1="136.00" x2="976" y2="136.00" class="grid"/>
  <text x="56" y="140.00" text-anchor="end" class="axis">44,753</text>
  <line x1="64" y1="178.00" x2="976" y2="178.00" class="grid"/>
  <text x="56" y="182.00" text-anchor="end" class="axis">33,565</text>
  <line x1="64" y1="220.00" x2="976" y2="220.00" class="grid"/>
  <text x="56" y="224.00" text-anchor="end" class="axis">22,377</text>
  <line x1="64" y1="262.00" x2="976" y2="262.00" class="grid"/>
  <text x="56" y="266.00" text-anchor="end" class="axis">11,188</text>
  <line x1="64" y1="304.00" x2="976" y2="304.00" class="grid"/>
  <text x="56" y="308.00" text-anchor="end" class="axis">0</text>
  <path d="M 64.00 304 L 64.00 69.99 L 78.25 69.73 L 92.50 69.45 L 106.75 69.21 L 121.00 69.09 L 135.25 68.97 L 149.50 68.84 L 163.75 68.71 L 178.00 68.55 L 192.25 68.44 L 206.50 68.34 L 220.75 68.24 L 235.00 68.10 L 249.25 67.94 L 263.50 67.84 L 277.75 67.72 L 292.00 67.47 L 306.25 67.17 L 320.50 66.87 L 334.75 66.37 L 349.00 66.02 L 363.25 65.72 L 377.50 65.35 L 391.75 65.04 L 406.00 64.76 L 420.25 64.45 L 434.50 64.11 L 448.75 63.74 L 463.00 63.45 L 477.25 63.15 L 491.50 62.82 L 505.75 62.51 L 520.00 62.17 L 534.25 61.82 L 548.50 61.50 L 562.75 61.21 L 577.00 60.87 L 591.25 60.57 L 605.50 60.26 L 619.75 59.93 L 634.00 59.59 L 648.25 59.26 L 662.50 58.95 L 676.75 58.67 L 691.00 58.36 L 705.25 58.05 L 719.50 57.71 L 733.75 57.41 L 748.00 57.09 L 762.25 56.78 L 776.50 56.46 L 790.75 56.16 L 805.00 55.85 L 819.25 55.56 L 833.50 55.21 L 847.75 54.87 L 862.00 54.51 L 876.25 54.15 L 890.50 53.85 L 904.75 53.58 L 919.00 53.24 L 933.25 52.94 L 947.50 52.62 L 961.75 52.29 L 976.00 52.00 L 976.00 304 Z" fill="url(#fill-total-trend-slate)"/>
  <polyline class="line" points="64.00,69.99 78.25,69.73 92.50,69.45 106.75,69.21 121.00,69.09 135.25,68.97 149.50,68.84 163.75,68.71 178.00,68.55 192.25,68.44 206.50,68.34 220.75,68.24 235.00,68.10 249.25,67.94 263.50,67.84 277.75,67.72 292.00,67.47 306.25,67.17 320.50,66.87 334.75,66.37 349.00,66.02 363.25,65.72 377.50,65.35 391.75,65.04 406.00,64.76 420.25,64.45 434.50,64.11 448.75,63.74 463.00,63.45 477.25,63.15 491.50,62.82 505.75,62.51 520.00,62.17 534.25,61.82 548.50,61.50 562.75,61.21 577.00,60.87 591.25,60.57 605.50,60.26 619.75,59.93 634.00,59.59 648.25,59.26 662.50,58.95 676.75,58.67 691.00,58.36 705.25,58.05 719.50,57.71 733.75,57.41 748.00,57.09 762.25,56.78 776.50,56.46 790.75,56.16 805.00,55.85 819.25,55.56 833.50,55.21 847.75,54.87 862.00,54.51 876.25,54.15 890.50,53.85 904.75,53.58 919.00,53.24 933.25,52.94 947.50,52.62 961.75,52.29 976.00,52.00"/>
  <circle class="dot" cx="976.00" cy="52.00" r="4.5"/>
  
  <text class="axis" x="64.00" y="336" text-anchor="start">2026-03-10</text>
  <text class="axis" x="235.00" y="336" text-anchor="middle">2026-03-22</text>
  <text class="axis" x="406.00" y="336" text-anchor="middle">2026-04-03</text>
  <text class="axis" x="577.00" y="336" text-anchor="middle">2026-04-15</text>
  <text class="axis" x="748.00" y="336" text-anchor="middle">2026-04-27</text>
  <text class="axis" x="919.00" y="336" text-anchor="middle">2026-05-09</text>
  <text class="axis" x="976.00" y="336" text-anchor="end">2026-05-13</text>
  <text class="latest" x="976" y="34" text-anchor="end">Latest total: 67,130</text>
</svg>
