<?xml version="1.0" encoding="UTF-8"?>
<svg xmlns="http://www.w3.org/2000/svg" viewBox="0 0 1000 360" role="img" aria-label="hordesmod/kek-ui release downloads chart">
  <defs>
    <linearGradient id="fill-total-trend-slate" x1="0" y1="0" x2="0" y2="1">
      <stop offset="0%" stop-color="#60a5fa" stop-opacity="0.32"/>
      <stop offset="100%" stop-color="#60a5fa" stop-opacity="0.05"/>
    </linearGradient>
    <style>
      .bg { fill: #0f172a; }
      .title { font: 700 24px Arial, sans-serif; fill: #e2e8f0; }
      .sub { font: 400 13px Arial, sans-serif; fill: #94a3b8; }
      .grid { stroke: #1e293b; stroke-width: 1; }
      .axis { font: 400 12px Arial, sans-serif; fill: #94a3b8; }
      .line { fill: none; stroke: #60a5fa; stroke-width: 3; stroke-linecap: round; stroke-linejoin: round; }
      .dot { fill: #60a5fa; }
      .value { font: 600 11px Arial, sans-serif; fill: #cbd5e1; }
      .latest { font: 700 14px Arial, sans-serif; fill: #e2e8f0; }
    </style>
  </defs>
  <rect class="bg" x="0" y="0" width="1000" height="360" rx="16" />
  <text class="title" x="64" y="34">hordesmod/kek-ui release downloads</text>
  <text class="sub" x="64" y="352">Generated 2026-05-16</text>
  <line x1="64" y1="52.00" x2="976" y2="52.00" class="grid"/>
  <text x="56" y="56.00" text-anchor="end" class="axis">67,370</text>
  <line x1="64" y1="94.00" x2="976" y2="94.00" class="grid"/>
  <text x="56" y="98.00" text-anchor="end" class="axis">56,142</text>
  <line x1="64" y1="136.00" x2="976" y2="136.00" class="grid"/>
  <text x="56" y="140.00" text-anchor="end" class="axis">44,913</text>
  <line x1="64" y1="178.00" x2="976" y2="178.00" class="grid"/>
  <text x="56" y="182.00" text-anchor="end" class="axis">33,685</text>
  <line x1="64" y1="220.00" x2="976" y2="220.00" class="grid"/>
  <text x="56" y="224.00" text-anchor="end" class="axis">22,457</text>
  <line x1="64" y1="262.00" x2="976" y2="262.00" class="grid"/>
  <text x="56" y="266.00" text-anchor="end" class="axis">11,228</text>
  <line x1="64" y1="304.00" x2="976" y2="304.00" class="grid"/>
  <text x="56" y="308.00" text-anchor="end" class="axis">0</text>
  <path d="M 64.00 304 L 64.00 70.82 L 77.61 70.56 L 91.22 70.28 L 104.84 70.04 L 118.45 69.92 L 132.06 69.81 L 145.67 69.68 L 159.28 69.55 L 172.90 69.39 L 186.51 69.28 L 200.12 69.18 L 213.73 69.08 L 227.34 68.94 L 240.96 68.78 L 254.57 68.68 L 268.18 68.56 L 281.79 68.32 L 295.40 68.02 L 309.01 67.71 L 322.63 67.22 L 336.24 66.87 L 349.85 66.57 L 363.46 66.20 L 377.07 65.89 L 390.69 65.61 L 404.30 65.31 L 417.91 64.96 L 431.52 64.59 L 445.13 64.30 L 458.75 64.01 L 472.36 63.68 L 485.97 63.37 L 499.58 63.03 L 513.19 62.69 L 526.81 62.37 L 540.42 62.08 L 554.03 61.74 L 567.64 61.44 L 581.25 61.13 L 594.87 60.80 L 608.48 60.46 L 622.09 60.13 L 635.70 59.82 L 649.31 59.54 L 662.93 59.23 L 676.54 58.92 L 690.15 58.59 L 703.76 58.29 L 717.37 57.97 L 730.99 57.66 L 744.60 57.34 L 758.21 57.05 L 771.82 56.74 L 785.43 56.45 L 799.04 56.09 L 812.66 55.76 L 826.27 55.40 L 839.88 55.04 L 853.49 54.75 L 867.10 54.47 L 880.72 54.13 L 894.33 53.83 L 907.94 53.51 L 921.55 53.19 L 935.16 52.90 L 948.78 52.59 L 962.39 52.33 L 976.00 52.00 L 976.00 304 Z" fill="url(#fill-total-trend-slate)"/>
  <polyline class="line" points="64.00,70.82 77.61,70.56 91.22,70.28 104.84,70.04 118.45,69.92 132.06,69.81 145.67,69.68 159.28,69.55 172.90,69.39 186.51,69.28 200.12,69.18 213.73,69.08 227.34,68.94 240.96,68.78 254.57,68.68 268.18,68.56 281.79,68.32 295.40,68.02 309.01,67.71 322.63,67.22 336.24,66.87 349.85,66.57 363.46,66.20 377.07,65.89 390.69,65.61 404.30,65.31 417.91,64.96 431.52,64.59 445.13,64.30 458.75,64.01 472.36,63.68 485.97,63.37 499.58,63.03 513.19,62.69 526.81,62.37 540.42,62.08 554.03,61.74 567.64,61.44 581.25,61.13 594.87,60.80 608.48,60.46 622.09,60.13 635.70,59.82 649.31,59.54 662.93,59.23 676.54,58.92 690.15,58.59 703.76,58.29 717.37,57.97 730.99,57.66 744.60,57.34 758.21,57.05 771.82,56.74 785.43,56.45 799.04,56.09 812.66,55.76 826.27,55.40 839.88,55.04 853.49,54.75 867.10,54.47 880.72,54.13 894.33,53.83 907.94,53.51 921.55,53.19 935.16,52.90 948.78,52.59 962.39,52.33 976.00,52.00"/>
  <circle class="dot" cx="976.00" cy="52.00" r="4.5"/>
  
  <text class="axis" x="64.00" y="336" text-anchor="start">2026-03-10</text>
  <text class="axis" x="240.96" y="336" text-anchor="middle">2026-03-23</text>
  <text class="axis" x="417.91" y="336" text-anchor="middle">2026-04-05</text>
  <text class="axis" x="594.87" y="336" text-anchor="middle">2026-04-18</text>
  <text class="axis" x="771.82" y="336" text-anchor="middle">2026-05-01</text>
  <text class="axis" x="948.78" y="336" text-anchor="middle">2026-05-14</text>
  <text class="axis" x="976.00" y="336" text-anchor="end">2026-05-16</text>
  <text class="latest" x="976" y="34" text-anchor="end">Latest total: 67,370</text>
</svg>
