<?xml version="1.0" encoding="UTF-8"?>
<svg xmlns="http://www.w3.org/2000/svg" viewBox="0 0 1000 360" role="img" aria-label="hordesmod/kek-ui release downloads chart">
  <defs>
    <linearGradient id="fill-total-trend-black" x1="0" y1="0" x2="0" y2="1">
      <stop offset="0%" stop-color="#22d3ee" stop-opacity="0.32"/>
      <stop offset="100%" stop-color="#22d3ee" stop-opacity="0.05"/>
    </linearGradient>
    <style>
      .bg { fill: #0b0b0d; }
      .title { font: 700 24px Arial, sans-serif; fill: #f8fafc; }
      .sub { font: 400 13px Arial, sans-serif; fill: #cbd5e1; }
      .grid { stroke: #1f2937; stroke-width: 1; }
      .axis { font: 400 12px Arial, sans-serif; fill: #94a3b8; }
      .line { fill: none; stroke: #22d3ee; stroke-width: 3; stroke-linecap: round; stroke-linejoin: round; }
      .dot { fill: #22d3ee; }
      .value { font: 600 11px Arial, sans-serif; fill: #cbd5e1; }
      .latest { font: 700 14px Arial, sans-serif; fill: #f8fafc; }
    </style>
  </defs>
  <rect class="bg" x="0" y="0" width="1000" height="360" rx="16" />
  <text class="title" x="64" y="34">hordesmod/kek-ui release downloads</text>
  <text class="sub" x="64" y="352">Generated 2026-05-14</text>
  <line x1="64" y1="52.00" x2="976" y2="52.00" class="grid"/>
  <text x="56" y="56.00" text-anchor="end" class="axis">67,211</text>
  <line x1="64" y1="94.00" x2="976" y2="94.00" class="grid"/>
  <text x="56" y="98.00" text-anchor="end" class="axis">56,009</text>
  <line x1="64" y1="136.00" x2="976" y2="136.00" class="grid"/>
  <text x="56" y="140.00" text-anchor="end" class="axis">44,807</text>
  <line x1="64" y1="178.00" x2="976" y2="178.00" class="grid"/>
  <text x="56" y="182.00" text-anchor="end" class="axis">33,606</text>
  <line x1="64" y1="220.00" x2="976" y2="220.00" class="grid"/>
  <text x="56" y="224.00" text-anchor="end" class="axis">22,404</text>
  <line x1="64" y1="262.00" x2="976" y2="262.00" class="grid"/>
  <text x="56" y="266.00" text-anchor="end" class="axis">11,202</text>
  <line x1="64" y1="304.00" x2="976" y2="304.00" class="grid"/>
  <text x="56" y="308.00" text-anchor="end" class="axis">0</text>
  <path d="M 64.00 304 L 64.00 70.27 L 78.03 70.01 L 92.06 69.73 L 106.09 69.49 L 120.12 69.37 L 134.15 69.25 L 148.18 69.13 L 162.22 69.00 L 176.25 68.84 L 190.28 68.73 L 204.31 68.62 L 218.34 68.52 L 232.37 68.39 L 246.40 68.22 L 260.43 68.13 L 274.46 68.00 L 288.49 67.76 L 302.52 67.46 L 316.55 67.16 L 330.58 66.66 L 344.62 66.31 L 358.65 66.00 L 372.68 65.64 L 386.71 65.33 L 400.74 65.05 L 414.77 64.74 L 428.80 64.40 L 442.83 64.03 L 456.86 63.74 L 470.89 63.44 L 484.92 63.11 L 498.95 62.80 L 512.98 62.46 L 527.02 62.12 L 541.05 61.79 L 555.08 61.50 L 569.11 61.17 L 583.14 60.87 L 597.17 60.56 L 611.20 60.23 L 625.23 59.88 L 639.26 59.55 L 653.29 59.24 L 667.32 58.96 L 681.35 58.65 L 695.38 58.34 L 709.42 58.01 L 723.45 57.71 L 737.48 57.39 L 751.51 57.08 L 765.54 56.76 L 779.57 56.46 L 793.60 56.15 L 807.63 55.86 L 821.66 55.51 L 835.69 55.17 L 849.72 54.81 L 863.75 54.45 L 877.78 54.16 L 891.82 53.88 L 905.85 53.54 L 919.88 53.24 L 933.91 52.92 L 947.94 52.60 L 961.97 52.30 L 976.00 52.00 L 976.00 304 Z" fill="url(#fill-total-trend-black)"/>
  <polyline class="line" points="64.00,70.27 78.03,70.01 92.06,69.73 106.09,69.49 120.12,69.37 134.15,69.25 148.18,69.13 162.22,69.00 176.25,68.84 190.28,68.73 204.31,68.62 218.34,68.52 232.37,68.39 246.40,68.22 260.43,68.13 274.46,68.00 288.49,67.76 302.52,67.46 316.55,67.16 330.58,66.66 344.62,66.31 358.65,66.00 372.68,65.64 386.71,65.33 400.74,65.05 414.77,64.74 428.80,64.40 442.83,64.03 456.86,63.74 470.89,63.44 484.92,63.11 498.95,62.80 512.98,62.46 527.02,62.12 541.05,61.79 555.08,61.50 569.11,61.17 583.14,60.87 597.17,60.56 611.20,60.23 625.23,59.88 639.26,59.55 653.29,59.24 667.32,58.96 681.35,58.65 695.38,58.34 709.42,58.01 723.45,57.71 737.48,57.39 751.51,57.08 765.54,56.76 779.57,56.46 793.60,56.15 807.63,55.86 821.66,55.51 835.69,55.17 849.72,54.81 863.75,54.45 877.78,54.16 891.82,53.88 905.85,53.54 919.88,53.24 933.91,52.92 947.94,52.60 961.97,52.30 976.00,52.00"/>
  <circle class="dot" cx="976.00" cy="52.00" r="4.5"/>
  
  <text class="axis" x="64.00" y="336" text-anchor="start">2026-03-10</text>
  <text class="axis" x="246.40" y="336" text-anchor="middle">2026-03-23</text>
  <text class="axis" x="428.80" y="336" text-anchor="middle">2026-04-05</text>
  <text class="axis" x="611.20" y="336" text-anchor="middle">2026-04-18</text>
  <text class="axis" x="793.60" y="336" text-anchor="middle">2026-05-01</text>
  <text class="axis" x="976.00" y="336" text-anchor="end">2026-05-14</text>
  <text class="latest" x="976" y="34" text-anchor="end">Latest total: 67,211</text>
</svg>
