<?xml version="1.0" encoding="UTF-8"?>
<svg xmlns="http://www.w3.org/2000/svg" viewBox="0 0 1000 360" role="img" aria-label="hordesmod/kek-ui release downloads chart">
  <defs>
    <linearGradient id="fill-total-trend-slate" x1="0" y1="0" x2="0" y2="1">
      <stop offset="0%" stop-color="#60a5fa" stop-opacity="0.32"/>
      <stop offset="100%" stop-color="#60a5fa" stop-opacity="0.05"/>
    </linearGradient>
    <style>
      .bg { fill: #0f172a; }
      .title { font: 700 24px Arial, sans-serif; fill: #e2e8f0; }
      .sub { font: 400 13px Arial, sans-serif; fill: #94a3b8; }
      .grid { stroke: #1e293b; stroke-width: 1; }
      .axis { font: 400 12px Arial, sans-serif; fill: #94a3b8; }
      .line { fill: none; stroke: #60a5fa; stroke-width: 3; stroke-linecap: round; stroke-linejoin: round; }
      .dot { fill: #60a5fa; }
      .value { font: 600 11px Arial, sans-serif; fill: #cbd5e1; }
      .latest { font: 700 14px Arial, sans-serif; fill: #e2e8f0; }
    </style>
  </defs>
  <rect class="bg" x="0" y="0" width="1000" height="360" rx="16" />
  <text class="title" x="64" y="34">hordesmod/kek-ui release downloads</text>
  <text class="sub" x="64" y="352">Generated 2026-04-21</text>
  <line x1="64" y1="52.00" x2="976" y2="52.00" class="grid"/>
  <text x="56" y="56.00" text-anchor="end" class="axis">65,279</text>
  <line x1="64" y1="94.00" x2="976" y2="94.00" class="grid"/>
  <text x="56" y="98.00" text-anchor="end" class="axis">54,399</text>
  <line x1="64" y1="136.00" x2="976" y2="136.00" class="grid"/>
  <text x="56" y="140.00" text-anchor="end" class="axis">43,519</text>
  <line x1="64" y1="178.00" x2="976" y2="178.00" class="grid"/>
  <text x="56" y="182.00" text-anchor="end" class="axis">32,640</text>
  <line x1="64" y1="220.00" x2="976" y2="220.00" class="grid"/>
  <text x="56" y="224.00" text-anchor="end" class="axis">21,760</text>
  <line x1="64" y1="262.00" x2="976" y2="262.00" class="grid"/>
  <text x="56" y="266.00" text-anchor="end" class="axis">10,880</text>
  <line x1="64" y1="304.00" x2="976" y2="304.00" class="grid"/>
  <text x="56" y="308.00" text-anchor="end" class="axis">0</text>
  <path d="M 64.00 304 L 64.00 63.35 L 85.71 63.09 L 107.43 62.80 L 129.14 62.55 L 150.86 62.43 L 172.57 62.31 L 194.29 62.18 L 216.00 62.04 L 237.71 61.88 L 259.43 61.76 L 281.14 61.66 L 302.86 61.55 L 324.57 61.42 L 346.29 61.25 L 368.00 61.15 L 389.71 61.02 L 411.43 60.77 L 433.14 60.46 L 454.86 60.15 L 476.57 59.64 L 498.29 59.27 L 520.00 58.96 L 541.71 58.58 L 563.43 58.27 L 585.14 57.98 L 606.86 57.66 L 628.57 57.30 L 650.29 56.93 L 672.00 56.62 L 693.71 56.32 L 715.43 55.98 L 737.14 55.66 L 758.86 55.32 L 780.57 54.96 L 802.29 54.63 L 824.00 54.33 L 845.71 53.98 L 867.43 53.67 L 889.14 53.35 L 910.86 53.01 L 932.57 52.66 L 954.29 52.32 L 976.00 52.00 L 976.00 304 Z" fill="url(#fill-total-trend-slate)"/>
  <polyline class="line" points="64.00,63.35 85.71,63.09 107.43,62.80 129.14,62.55 150.86,62.43 172.57,62.31 194.29,62.18 216.00,62.04 237.71,61.88 259.43,61.76 281.14,61.66 302.86,61.55 324.57,61.42 346.29,61.25 368.00,61.15 389.71,61.02 411.43,60.77 433.14,60.46 454.86,60.15 476.57,59.64 498.29,59.27 520.00,58.96 541.71,58.58 563.43,58.27 585.14,57.98 606.86,57.66 628.57,57.30 650.29,56.93 672.00,56.62 693.71,56.32 715.43,55.98 737.14,55.66 758.86,55.32 780.57,54.96 802.29,54.63 824.00,54.33 845.71,53.98 867.43,53.67 889.14,53.35 910.86,53.01 932.57,52.66 954.29,52.32 976.00,52.00"/>
  <circle class="dot" cx="976.00" cy="52.00" r="4.5"/>
  
  <text class="axis" x="64.00" y="336" text-anchor="start">2026-03-10</text>
  <text class="axis" x="237.71" y="336" text-anchor="middle">2026-03-18</text>
  <text class="axis" x="411.43" y="336" text-anchor="middle">2026-03-26</text>
  <text class="axis" x="585.14" y="336" text-anchor="middle">2026-04-03</text>
  <text class="axis" x="758.86" y="336" text-anchor="middle">2026-04-11</text>
  <text class="axis" x="932.57" y="336" text-anchor="middle">2026-04-19</text>
  <text class="axis" x="976.00" y="336" text-anchor="end">2026-04-21</text>
  <text class="latest" x="976" y="34" text-anchor="end">Latest total: 65,279</text>
</svg>
