<?xml version="1.0" encoding="UTF-8"?>
<svg xmlns="http://www.w3.org/2000/svg" viewBox="0 0 1000 360" role="img" aria-label="hordesmod/kek-ui release downloads chart">
  <defs>
    <linearGradient id="fill-total-trend-black" x1="0" y1="0" x2="0" y2="1">
      <stop offset="0%" stop-color="#22d3ee" stop-opacity="0.32"/>
      <stop offset="100%" stop-color="#22d3ee" stop-opacity="0.05"/>
    </linearGradient>
    <style>
      .bg { fill: #0b0b0d; }
      .title { font: 700 24px Arial, sans-serif; fill: #f8fafc; }
      .sub { font: 400 13px Arial, sans-serif; fill: #cbd5e1; }
      .grid { stroke: #1f2937; stroke-width: 1; }
      .axis { font: 400 12px Arial, sans-serif; fill: #94a3b8; }
      .line { fill: none; stroke: #22d3ee; stroke-width: 3; stroke-linecap: round; stroke-linejoin: round; }
      .dot { fill: #22d3ee; }
      .value { font: 600 11px Arial, sans-serif; fill: #cbd5e1; }
      .latest { font: 700 14px Arial, sans-serif; fill: #f8fafc; }
    </style>
  </defs>
  <rect class="bg" x="0" y="0" width="1000" height="360" rx="16" />
  <text class="title" x="64" y="34">hordesmod/kek-ui release downloads</text>
  <text class="sub" x="64" y="352">Generated 2026-05-06</text>
  <line x1="64" y1="52.00" x2="976" y2="52.00" class="grid"/>
  <text x="56" y="56.00" text-anchor="end" class="axis">66,558</text>
  <line x1="64" y1="94.00" x2="976" y2="94.00" class="grid"/>
  <text x="56" y="98.00" text-anchor="end" class="axis">55,465</text>
  <line x1="64" y1="136.00" x2="976" y2="136.00" class="grid"/>
  <text x="56" y="140.00" text-anchor="end" class="axis">44,372</text>
  <line x1="64" y1="178.00" x2="976" y2="178.00" class="grid"/>
  <text x="56" y="182.00" text-anchor="end" class="axis">33,279</text>
  <line x1="64" y1="220.00" x2="976" y2="220.00" class="grid"/>
  <text x="56" y="224.00" text-anchor="end" class="axis">22,186</text>
  <line x1="64" y1="262.00" x2="976" y2="262.00" class="grid"/>
  <text x="56" y="266.00" text-anchor="end" class="axis">11,093</text>
  <line x1="64" y1="304.00" x2="976" y2="304.00" class="grid"/>
  <text x="56" y="308.00" text-anchor="end" class="axis">0</text>
  <path d="M 64.00 304 L 64.00 67.98 L 80.00 67.72 L 96.00 67.43 L 112.00 67.19 L 128.00 67.07 L 144.00 66.95 L 160.00 66.82 L 176.00 66.69 L 192.00 66.53 L 208.00 66.42 L 224.00 66.32 L 240.00 66.21 L 256.00 66.08 L 272.00 65.91 L 288.00 65.81 L 304.00 65.69 L 320.00 65.44 L 336.00 65.14 L 352.00 64.83 L 368.00 64.33 L 384.00 63.98 L 400.00 63.67 L 416.00 63.30 L 432.00 62.99 L 448.00 62.70 L 464.00 62.39 L 480.00 62.04 L 496.00 61.67 L 512.00 61.38 L 528.00 61.08 L 544.00 60.75 L 560.00 60.44 L 576.00 60.09 L 592.00 59.74 L 608.00 59.42 L 624.00 59.13 L 640.00 58.78 L 656.00 58.48 L 672.00 58.17 L 688.00 57.83 L 704.00 57.49 L 720.00 57.15 L 736.00 56.84 L 752.00 56.56 L 768.00 56.24 L 784.00 55.93 L 800.00 55.60 L 816.00 55.29 L 832.00 54.97 L 848.00 54.66 L 864.00 54.33 L 880.00 54.03 L 896.00 53.72 L 912.00 53.43 L 928.00 53.07 L 944.00 52.73 L 960.00 52.37 L 976.00 52.00 L 976.00 304 Z" fill="url(#fill-total-trend-black)"/>
  <polyline class="line" points="64.00,67.98 80.00,67.72 96.00,67.43 112.00,67.19 128.00,67.07 144.00,66.95 160.00,66.82 176.00,66.69 192.00,66.53 208.00,66.42 224.00,66.32 240.00,66.21 256.00,66.08 272.00,65.91 288.00,65.81 304.00,65.69 320.00,65.44 336.00,65.14 352.00,64.83 368.00,64.33 384.00,63.98 400.00,63.67 416.00,63.30 432.00,62.99 448.00,62.70 464.00,62.39 480.00,62.04 496.00,61.67 512.00,61.38 528.00,61.08 544.00,60.75 560.00,60.44 576.00,60.09 592.00,59.74 608.00,59.42 624.00,59.13 640.00,58.78 656.00,58.48 672.00,58.17 688.00,57.83 704.00,57.49 720.00,57.15 736.00,56.84 752.00,56.56 768.00,56.24 784.00,55.93 800.00,55.60 816.00,55.29 832.00,54.97 848.00,54.66 864.00,54.33 880.00,54.03 896.00,53.72 912.00,53.43 928.00,53.07 944.00,52.73 960.00,52.37 976.00,52.00"/>
  <circle class="dot" cx="976.00" cy="52.00" r="4.5"/>
  
  <text class="axis" x="64.00" y="336" text-anchor="start">2026-03-10</text>
  <text class="axis" x="240.00" y="336" text-anchor="middle">2026-03-21</text>
  <text class="axis" x="416.00" y="336" text-anchor="middle">2026-04-01</text>
  <text class="axis" x="592.00" y="336" text-anchor="middle">2026-04-12</text>
  <text class="axis" x="768.00" y="336" text-anchor="middle">2026-04-23</text>
  <text class="axis" x="944.00" y="336" text-anchor="middle">2026-05-04</text>
  <text class="axis" x="976.00" y="336" text-anchor="end">2026-05-06</text>
  <text class="latest" x="976" y="34" text-anchor="end">Latest total: 66,558</text>
</svg>
