<?xml version="1.0" encoding="UTF-8"?>
<svg xmlns="http://www.w3.org/2000/svg" viewBox="0 0 1000 360" role="img" aria-label="hordesmod/kek-ui release downloads chart">
  <defs>
    <linearGradient id="fill-total-trend-slate" x1="0" y1="0" x2="0" y2="1">
      <stop offset="0%" stop-color="#60a5fa" stop-opacity="0.32"/>
      <stop offset="100%" stop-color="#60a5fa" stop-opacity="0.05"/>
    </linearGradient>
    <style>
      .bg { fill: #0f172a; }
      .title { font: 700 24px Arial, sans-serif; fill: #e2e8f0; }
      .sub { font: 400 13px Arial, sans-serif; fill: #94a3b8; }
      .grid { stroke: #1e293b; stroke-width: 1; }
      .axis { font: 400 12px Arial, sans-serif; fill: #94a3b8; }
      .line { fill: none; stroke: #60a5fa; stroke-width: 3; stroke-linecap: round; stroke-linejoin: round; }
      .dot { fill: #60a5fa; }
      .value { font: 600 11px Arial, sans-serif; fill: #cbd5e1; }
      .latest { font: 700 14px Arial, sans-serif; fill: #e2e8f0; }
    </style>
  </defs>
  <rect class="bg" x="0" y="0" width="1000" height="360" rx="16" />
  <text class="title" x="64" y="34">hordesmod/kek-ui release downloads</text>
  <text class="sub" x="64" y="352">Generated 2026-04-09</text>
  <line x1="64" y1="52.00" x2="976" y2="52.00" class="grid"/>
  <text x="56" y="56.00" text-anchor="end" class="axis">64,247</text>
  <line x1="64" y1="94.00" x2="976" y2="94.00" class="grid"/>
  <text x="56" y="98.00" text-anchor="end" class="axis">53,539</text>
  <line x1="64" y1="136.00" x2="976" y2="136.00" class="grid"/>
  <text x="56" y="140.00" text-anchor="end" class="axis">42,831</text>
  <line x1="64" y1="178.00" x2="976" y2="178.00" class="grid"/>
  <text x="56" y="182.00" text-anchor="end" class="axis">32,124</text>
  <line x1="64" y1="220.00" x2="976" y2="220.00" class="grid"/>
  <text x="56" y="224.00" text-anchor="end" class="axis">21,416</text>
  <line x1="64" y1="262.00" x2="976" y2="262.00" class="grid"/>
  <text x="56" y="266.00" text-anchor="end" class="axis">10,708</text>
  <line x1="64" y1="304.00" x2="976" y2="304.00" class="grid"/>
  <text x="56" y="308.00" text-anchor="end" class="axis">0</text>
  <path d="M 64.00 304 L 64.00 59.49 L 94.40 59.22 L 124.80 58.92 L 155.20 58.67 L 185.60 58.55 L 216.00 58.42 L 246.40 58.29 L 276.80 58.15 L 307.20 57.99 L 337.60 57.87 L 368.00 57.77 L 398.40 57.66 L 428.80 57.52 L 459.20 57.35 L 489.60 57.24 L 520.00 57.11 L 550.40 56.86 L 580.80 56.55 L 611.20 56.23 L 641.60 55.71 L 672.00 55.34 L 702.40 55.02 L 732.80 54.64 L 763.20 54.32 L 793.60 54.02 L 824.00 53.70 L 854.40 53.34 L 884.80 52.96 L 915.20 52.65 L 945.60 52.34 L 976.00 52.00 L 976.00 304 Z" fill="url(#fill-total-trend-slate)"/>
  <polyline class="line" points="64.00,59.49 94.40,59.22 124.80,58.92 155.20,58.67 185.60,58.55 216.00,58.42 246.40,58.29 276.80,58.15 307.20,57.99 337.60,57.87 368.00,57.77 398.40,57.66 428.80,57.52 459.20,57.35 489.60,57.24 520.00,57.11 550.40,56.86 580.80,56.55 611.20,56.23 641.60,55.71 672.00,55.34 702.40,55.02 732.80,54.64 763.20,54.32 793.60,54.02 824.00,53.70 854.40,53.34 884.80,52.96 915.20,52.65 945.60,52.34 976.00,52.00"/>
  <circle class="dot" cx="976.00" cy="52.00" r="4.5"/>
  
  <text class="axis" x="64.00" y="336" text-anchor="start">2026-03-10</text>
  <text class="axis" x="246.40" y="336" text-anchor="middle">2026-03-16</text>
  <text class="axis" x="428.80" y="336" text-anchor="middle">2026-03-22</text>
  <text class="axis" x="611.20" y="336" text-anchor="middle">2026-03-28</text>
  <text class="axis" x="793.60" y="336" text-anchor="middle">2026-04-03</text>
  <text class="axis" x="976.00" y="336" text-anchor="end">2026-04-09</text>
  <text class="latest" x="976" y="34" text-anchor="end">Latest total: 64,247</text>
</svg>
