<?xml version="1.0" encoding="UTF-8"?>
<svg xmlns="http://www.w3.org/2000/svg" viewBox="0 0 1000 360" role="img" aria-label="hordesmod/kek-ui release downloads chart">
  <defs>
    <linearGradient id="fill-total-trend-orange" x1="0" y1="0" x2="0" y2="1">
      <stop offset="0%" stop-color="#f97316" stop-opacity="0.32"/>
      <stop offset="100%" stop-color="#f97316" stop-opacity="0.05"/>
    </linearGradient>
    <style>
      .bg { fill: #fff7ed; }
      .title { font: 700 24px Arial, sans-serif; fill: #7c2d12; }
      .sub { font: 400 13px Arial, sans-serif; fill: #9a3412; }
      .grid { stroke: #fed7aa; stroke-width: 1; }
      .axis { font: 400 12px Arial, sans-serif; fill: #c2410c; }
      .line { fill: none; stroke: #ea580c; stroke-width: 3; stroke-linecap: round; stroke-linejoin: round; }
      .dot { fill: #ea580c; }
      .value { font: 600 11px Arial, sans-serif; fill: #9a3412; }
      .latest { font: 700 14px Arial, sans-serif; fill: #7c2d12; }
    </style>
  </defs>
  <rect class="bg" x="0" y="0" width="1000" height="360" rx="16" />
  <text class="title" x="64" y="34">hordesmod/kek-ui release downloads</text>
  <text class="sub" x="64" y="352">Generated 2026-05-09</text>
  <line x1="64" y1="52.00" x2="976" y2="52.00" class="grid"/>
  <text x="56" y="56.00" text-anchor="end" class="axis">66,800</text>
  <line x1="64" y1="94.00" x2="976" y2="94.00" class="grid"/>
  <text x="56" y="98.00" text-anchor="end" class="axis">55,667</text>
  <line x1="64" y1="136.00" x2="976" y2="136.00" class="grid"/>
  <text x="56" y="140.00" text-anchor="end" class="axis">44,533</text>
  <line x1="64" y1="178.00" x2="976" y2="178.00" class="grid"/>
  <text x="56" y="182.00" text-anchor="end" class="axis">33,400</text>
  <line x1="64" y1="220.00" x2="976" y2="220.00" class="grid"/>
  <text x="56" y="224.00" text-anchor="end" class="axis">22,267</text>
  <line x1="64" y1="262.00" x2="976" y2="262.00" class="grid"/>
  <text x="56" y="266.00" text-anchor="end" class="axis">11,133</text>
  <line x1="64" y1="304.00" x2="976" y2="304.00" class="grid"/>
  <text x="56" y="308.00" text-anchor="end" class="axis">0</text>
  <path d="M 64.00 304 L 64.00 68.83 L 79.20 68.57 L 94.40 68.29 L 109.60 68.05 L 124.80 67.93 L 140.00 67.81 L 155.20 67.68 L 170.40 67.55 L 185.60 67.39 L 200.80 67.28 L 216.00 67.18 L 231.20 67.07 L 246.40 66.94 L 261.60 66.77 L 276.80 66.67 L 292.00 66.55 L 307.20 66.31 L 322.40 66.00 L 337.60 65.70 L 352.80 65.20 L 368.00 64.85 L 383.20 64.54 L 398.40 64.17 L 413.60 63.86 L 428.80 63.58 L 444.00 63.27 L 459.20 62.92 L 474.40 62.55 L 489.60 62.26 L 504.80 61.96 L 520.00 61.63 L 535.20 61.32 L 550.40 60.98 L 565.60 60.63 L 580.80 60.30 L 596.00 60.01 L 611.20 59.67 L 626.40 59.37 L 641.60 59.06 L 656.80 58.73 L 672.00 58.38 L 687.20 58.05 L 702.40 57.74 L 717.60 57.45 L 732.80 57.14 L 748.00 56.83 L 763.20 56.50 L 778.40 56.19 L 793.60 55.87 L 808.80 55.56 L 824.00 55.24 L 839.20 54.94 L 854.40 54.63 L 869.60 54.34 L 884.80 53.98 L 900.00 53.64 L 915.20 53.28 L 930.40 52.91 L 945.60 52.62 L 960.80 52.34 L 976.00 52.00 L 976.00 304 Z" fill="url(#fill-total-trend-orange)"/>
  <polyline class="line" points="64.00,68.83 79.20,68.57 94.40,68.29 109.60,68.05 124.80,67.93 140.00,67.81 155.20,67.68 170.40,67.55 185.60,67.39 200.80,67.28 216.00,67.18 231.20,67.07 246.40,66.94 261.60,66.77 276.80,66.67 292.00,66.55 307.20,66.31 322.40,66.00 337.60,65.70 352.80,65.20 368.00,64.85 383.20,64.54 398.40,64.17 413.60,63.86 428.80,63.58 444.00,63.27 459.20,62.92 474.40,62.55 489.60,62.26 504.80,61.96 520.00,61.63 535.20,61.32 550.40,60.98 565.60,60.63 580.80,60.30 596.00,60.01 611.20,59.67 626.40,59.37 641.60,59.06 656.80,58.73 672.00,58.38 687.20,58.05 702.40,57.74 717.60,57.45 732.80,57.14 748.00,56.83 763.20,56.50 778.40,56.19 793.60,55.87 808.80,55.56 824.00,55.24 839.20,54.94 854.40,54.63 869.60,54.34 884.80,53.98 900.00,53.64 915.20,53.28 930.40,52.91 945.60,52.62 960.80,52.34 976.00,52.00"/>
  <circle class="dot" cx="976.00" cy="52.00" r="4.5"/>
  
  <text class="axis" x="64.00" y="336" text-anchor="start">2026-03-10</text>
  <text class="axis" x="246.40" y="336" text-anchor="middle">2026-03-22</text>
  <text class="axis" x="428.80" y="336" text-anchor="middle">2026-04-03</text>
  <text class="axis" x="611.20" y="336" text-anchor="middle">2026-04-15</text>
  <text class="axis" x="793.60" y="336" text-anchor="middle">2026-04-27</text>
  <text class="axis" x="976.00" y="336" text-anchor="end">2026-05-09</text>
  <text class="latest" x="976" y="34" text-anchor="end">Latest total: 66,800</text>
</svg>
