<?xml version="1.0" encoding="UTF-8"?>
<svg xmlns="http://www.w3.org/2000/svg" viewBox="0 0 1000 360" role="img" aria-label="hordesmod/kek-ui release downloads chart">
  <defs>
    <linearGradient id="fill-total-trend-slate" x1="0" y1="0" x2="0" y2="1">
      <stop offset="0%" stop-color="#60a5fa" stop-opacity="0.32"/>
      <stop offset="100%" stop-color="#60a5fa" stop-opacity="0.05"/>
    </linearGradient>
    <style>
      .bg { fill: #0f172a; }
      .title { font: 700 24px Arial, sans-serif; fill: #e2e8f0; }
      .sub { font: 400 13px Arial, sans-serif; fill: #94a3b8; }
      .grid { stroke: #1e293b; stroke-width: 1; }
      .axis { font: 400 12px Arial, sans-serif; fill: #94a3b8; }
      .line { fill: none; stroke: #60a5fa; stroke-width: 3; stroke-linecap: round; stroke-linejoin: round; }
      .dot { fill: #60a5fa; }
      .value { font: 600 11px Arial, sans-serif; fill: #cbd5e1; }
      .latest { font: 700 14px Arial, sans-serif; fill: #e2e8f0; }
    </style>
  </defs>
  <rect class="bg" x="0" y="0" width="1000" height="360" rx="16" />
  <text class="title" x="64" y="34">hordesmod/kek-ui release downloads</text>
  <text class="sub" x="64" y="352">Generated 2026-05-03</text>
  <line x1="64" y1="52.00" x2="976" y2="52.00" class="grid"/>
  <text x="56" y="56.00" text-anchor="end" class="axis">66,276</text>
  <line x1="64" y1="94.00" x2="976" y2="94.00" class="grid"/>
  <text x="56" y="98.00" text-anchor="end" class="axis">55,230</text>
  <line x1="64" y1="136.00" x2="976" y2="136.00" class="grid"/>
  <text x="56" y="140.00" text-anchor="end" class="axis">44,184</text>
  <line x1="64" y1="178.00" x2="976" y2="178.00" class="grid"/>
  <text x="56" y="182.00" text-anchor="end" class="axis">33,138</text>
  <line x1="64" y1="220.00" x2="976" y2="220.00" class="grid"/>
  <text x="56" y="224.00" text-anchor="end" class="axis">22,092</text>
  <line x1="64" y1="262.00" x2="976" y2="262.00" class="grid"/>
  <text x="56" y="266.00" text-anchor="end" class="axis">11,046</text>
  <line x1="64" y1="304.00" x2="976" y2="304.00" class="grid"/>
  <text x="56" y="308.00" text-anchor="end" class="axis">0</text>
  <path d="M 64.00 304 L 64.00 66.97 L 80.89 66.71 L 97.78 66.43 L 114.67 66.18 L 131.56 66.06 L 148.44 65.94 L 165.33 65.81 L 182.22 65.68 L 199.11 65.52 L 216.00 65.41 L 232.89 65.30 L 249.78 65.20 L 266.67 65.06 L 283.56 64.90 L 300.44 64.80 L 317.33 64.67 L 334.22 64.43 L 351.11 64.12 L 368.00 63.81 L 384.89 63.31 L 401.78 62.95 L 418.67 62.65 L 435.56 62.27 L 452.44 61.96 L 469.33 61.68 L 486.22 61.37 L 503.11 61.02 L 520.00 60.64 L 536.89 60.35 L 553.78 60.05 L 570.67 59.71 L 587.56 59.40 L 604.44 59.06 L 621.33 58.70 L 638.22 58.38 L 655.11 58.08 L 672.00 57.74 L 688.89 57.44 L 705.78 57.12 L 722.67 56.79 L 739.56 56.44 L 756.44 56.10 L 773.33 55.79 L 790.22 55.51 L 807.11 55.19 L 824.00 54.88 L 840.89 54.54 L 857.78 54.24 L 874.67 53.91 L 891.56 53.60 L 908.44 53.27 L 925.33 52.97 L 942.22 52.65 L 959.11 52.36 L 976.00 52.00 L 976.00 304 Z" fill="url(#fill-total-trend-slate)"/>
  <polyline class="line" points="64.00,66.97 80.89,66.71 97.78,66.43 114.67,66.18 131.56,66.06 148.44,65.94 165.33,65.81 182.22,65.68 199.11,65.52 216.00,65.41 232.89,65.30 249.78,65.20 266.67,65.06 283.56,64.90 300.44,64.80 317.33,64.67 334.22,64.43 351.11,64.12 368.00,63.81 384.89,63.31 401.78,62.95 418.67,62.65 435.56,62.27 452.44,61.96 469.33,61.68 486.22,61.37 503.11,61.02 520.00,60.64 536.89,60.35 553.78,60.05 570.67,59.71 587.56,59.40 604.44,59.06 621.33,58.70 638.22,58.38 655.11,58.08 672.00,57.74 688.89,57.44 705.78,57.12 722.67,56.79 739.56,56.44 756.44,56.10 773.33,55.79 790.22,55.51 807.11,55.19 824.00,54.88 840.89,54.54 857.78,54.24 874.67,53.91 891.56,53.60 908.44,53.27 925.33,52.97 942.22,52.65 959.11,52.36 976.00,52.00"/>
  <circle class="dot" cx="976.00" cy="52.00" r="4.5"/>
  
  <text class="axis" x="64.00" y="336" text-anchor="start">2026-03-10</text>
  <text class="axis" x="232.89" y="336" text-anchor="middle">2026-03-20</text>
  <text class="axis" x="401.78" y="336" text-anchor="middle">2026-03-30</text>
  <text class="axis" x="570.67" y="336" text-anchor="middle">2026-04-09</text>
  <text class="axis" x="739.56" y="336" text-anchor="middle">2026-04-19</text>
  <text class="axis" x="908.44" y="336" text-anchor="middle">2026-04-29</text>
  <text class="axis" x="976.00" y="336" text-anchor="end">2026-05-03</text>
  <text class="latest" x="976" y="34" text-anchor="end">Latest total: 66,276</text>
</svg>
