<?xml version="1.0" encoding="UTF-8"?>
<svg xmlns="http://www.w3.org/2000/svg" viewBox="0 0 1000 360" role="img" aria-label="hordesmod/kek-ui release downloads chart">
  <defs>
    <linearGradient id="fill-total-trend-slate" x1="0" y1="0" x2="0" y2="1">
      <stop offset="0%" stop-color="#60a5fa" stop-opacity="0.32"/>
      <stop offset="100%" stop-color="#60a5fa" stop-opacity="0.05"/>
    </linearGradient>
    <style>
      .bg { fill: #0f172a; }
      .title { font: 700 24px Arial, sans-serif; fill: #e2e8f0; }
      .sub { font: 400 13px Arial, sans-serif; fill: #94a3b8; }
      .grid { stroke: #1e293b; stroke-width: 1; }
      .axis { font: 400 12px Arial, sans-serif; fill: #94a3b8; }
      .line { fill: none; stroke: #60a5fa; stroke-width: 3; stroke-linecap: round; stroke-linejoin: round; }
      .dot { fill: #60a5fa; }
      .value { font: 600 11px Arial, sans-serif; fill: #cbd5e1; }
      .latest { font: 700 14px Arial, sans-serif; fill: #e2e8f0; }
    </style>
  </defs>
  <rect class="bg" x="0" y="0" width="1000" height="360" rx="16" />
  <text class="title" x="64" y="34">hordesmod/kek-ui release downloads</text>
  <text class="sub" x="64" y="352">Generated 2026-05-04</text>
  <line x1="64" y1="52.00" x2="976" y2="52.00" class="grid"/>
  <text x="56" y="56.00" text-anchor="end" class="axis">66,365</text>
  <line x1="64" y1="94.00" x2="976" y2="94.00" class="grid"/>
  <text x="56" y="98.00" text-anchor="end" class="axis">55,304</text>
  <line x1="64" y1="136.00" x2="976" y2="136.00" class="grid"/>
  <text x="56" y="140.00" text-anchor="end" class="axis">44,243</text>
  <line x1="64" y1="178.00" x2="976" y2="178.00" class="grid"/>
  <text x="56" y="182.00" text-anchor="end" class="axis">33,183</text>
  <line x1="64" y1="220.00" x2="976" y2="220.00" class="grid"/>
  <text x="56" y="224.00" text-anchor="end" class="axis">22,122</text>
  <line x1="64" y1="262.00" x2="976" y2="262.00" class="grid"/>
  <text x="56" y="266.00" text-anchor="end" class="axis">11,061</text>
  <line x1="64" y1="304.00" x2="976" y2="304.00" class="grid"/>
  <text x="56" y="308.00" text-anchor="end" class="axis">0</text>
  <path d="M 64.00 304 L 64.00 67.29 L 80.58 67.03 L 97.16 66.74 L 113.75 66.50 L 130.33 66.38 L 146.91 66.26 L 163.49 66.13 L 180.07 66.00 L 196.65 65.84 L 213.24 65.73 L 229.82 65.62 L 246.40 65.52 L 262.98 65.39 L 279.56 65.22 L 296.15 65.12 L 312.73 64.99 L 329.31 64.75 L 345.89 64.44 L 362.47 64.14 L 379.05 63.63 L 395.64 63.28 L 412.22 62.97 L 428.80 62.60 L 445.38 62.29 L 461.96 62.00 L 478.55 61.69 L 495.13 61.34 L 511.71 60.97 L 528.29 60.67 L 544.87 60.37 L 561.45 60.04 L 578.04 59.73 L 594.62 59.39 L 611.20 59.03 L 627.78 58.71 L 644.36 58.41 L 660.95 58.07 L 677.53 57.77 L 694.11 57.45 L 710.69 57.12 L 727.27 56.77 L 743.85 56.44 L 760.44 56.12 L 777.02 55.84 L 793.60 55.52 L 810.18 55.21 L 826.76 54.87 L 843.35 54.57 L 859.93 54.25 L 876.51 53.93 L 893.09 53.61 L 909.67 53.31 L 926.25 52.99 L 942.84 52.70 L 959.42 52.34 L 976.00 52.00 L 976.00 304 Z" fill="url(#fill-total-trend-slate)"/>
  <polyline class="line" points="64.00,67.29 80.58,67.03 97.16,66.74 113.75,66.50 130.33,66.38 146.91,66.26 163.49,66.13 180.07,66.00 196.65,65.84 213.24,65.73 229.82,65.62 246.40,65.52 262.98,65.39 279.56,65.22 296.15,65.12 312.73,64.99 329.31,64.75 345.89,64.44 362.47,64.14 379.05,63.63 395.64,63.28 412.22,62.97 428.80,62.60 445.38,62.29 461.96,62.00 478.55,61.69 495.13,61.34 511.71,60.97 528.29,60.67 544.87,60.37 561.45,60.04 578.04,59.73 594.62,59.39 611.20,59.03 627.78,58.71 644.36,58.41 660.95,58.07 677.53,57.77 694.11,57.45 710.69,57.12 727.27,56.77 743.85,56.44 760.44,56.12 777.02,55.84 793.60,55.52 810.18,55.21 826.76,54.87 843.35,54.57 859.93,54.25 876.51,53.93 893.09,53.61 909.67,53.31 926.25,52.99 942.84,52.70 959.42,52.34 976.00,52.00"/>
  <circle class="dot" cx="976.00" cy="52.00" r="4.5"/>
  
  <text class="axis" x="64.00" y="336" text-anchor="start">2026-03-10</text>
  <text class="axis" x="246.40" y="336" text-anchor="middle">2026-03-21</text>
  <text class="axis" x="428.80" y="336" text-anchor="middle">2026-04-01</text>
  <text class="axis" x="611.20" y="336" text-anchor="middle">2026-04-12</text>
  <text class="axis" x="793.60" y="336" text-anchor="middle">2026-04-23</text>
  <text class="axis" x="976.00" y="336" text-anchor="end">2026-05-04</text>
  <text class="latest" x="976" y="34" text-anchor="end">Latest total: 66,365</text>
</svg>
