<?xml version="1.0" encoding="UTF-8"?>
<svg xmlns="http://www.w3.org/2000/svg" viewBox="0 0 1000 360" role="img" aria-label="hordesmod/kek-ui release downloads chart">
  <defs>
    <linearGradient id="fill-total-trend-slate" x1="0" y1="0" x2="0" y2="1">
      <stop offset="0%" stop-color="#60a5fa" stop-opacity="0.32"/>
      <stop offset="100%" stop-color="#60a5fa" stop-opacity="0.05"/>
    </linearGradient>
    <style>
      .bg { fill: #0f172a; }
      .title { font: 700 24px Arial, sans-serif; fill: #e2e8f0; }
      .sub { font: 400 13px Arial, sans-serif; fill: #94a3b8; }
      .grid { stroke: #1e293b; stroke-width: 1; }
      .axis { font: 400 12px Arial, sans-serif; fill: #94a3b8; }
      .line { fill: none; stroke: #60a5fa; stroke-width: 3; stroke-linecap: round; stroke-linejoin: round; }
      .dot { fill: #60a5fa; }
      .value { font: 600 11px Arial, sans-serif; fill: #cbd5e1; }
      .latest { font: 700 14px Arial, sans-serif; fill: #e2e8f0; }
    </style>
  </defs>
  <rect class="bg" x="0" y="0" width="1000" height="360" rx="16" />
  <text class="title" x="64" y="34">hordesmod/kek-ui release downloads</text>
  <text class="sub" x="64" y="352">Generated 2026-04-30</text>
  <line x1="64" y1="52.00" x2="976" y2="52.00" class="grid"/>
  <text x="56" y="56.00" text-anchor="end" class="axis">66,021</text>
  <line x1="64" y1="94.00" x2="976" y2="94.00" class="grid"/>
  <text x="56" y="98.00" text-anchor="end" class="axis">55,018</text>
  <line x1="64" y1="136.00" x2="976" y2="136.00" class="grid"/>
  <text x="56" y="140.00" text-anchor="end" class="axis">44,014</text>
  <line x1="64" y1="178.00" x2="976" y2="178.00" class="grid"/>
  <text x="56" y="182.00" text-anchor="end" class="axis">33,011</text>
  <line x1="64" y1="220.00" x2="976" y2="220.00" class="grid"/>
  <text x="56" y="224.00" text-anchor="end" class="axis">22,007</text>
  <line x1="64" y1="262.00" x2="976" y2="262.00" class="grid"/>
  <text x="56" y="266.00" text-anchor="end" class="axis">11,004</text>
  <line x1="64" y1="304.00" x2="976" y2="304.00" class="grid"/>
  <text x="56" y="308.00" text-anchor="end" class="axis">0</text>
  <path d="M 64.00 304 L 64.00 66.06 L 81.88 65.79 L 99.76 65.51 L 117.65 65.26 L 135.53 65.14 L 153.41 65.02 L 171.29 64.89 L 189.18 64.76 L 207.06 64.60 L 224.94 64.49 L 242.82 64.38 L 260.71 64.28 L 278.59 64.14 L 296.47 63.97 L 314.35 63.87 L 332.24 63.75 L 350.12 63.50 L 368.00 63.20 L 385.88 62.89 L 403.76 62.38 L 421.65 62.02 L 439.53 61.71 L 457.41 61.34 L 475.29 61.03 L 493.18 60.74 L 511.06 60.43 L 528.94 60.08 L 546.82 59.70 L 564.71 59.40 L 582.59 59.10 L 600.47 58.77 L 618.35 58.45 L 636.24 58.11 L 654.12 57.76 L 672.00 57.43 L 689.88 57.13 L 707.76 56.79 L 725.65 56.48 L 743.53 56.17 L 761.41 55.83 L 779.29 55.48 L 797.18 55.15 L 815.06 54.83 L 832.94 54.55 L 850.82 54.23 L 868.71 53.92 L 886.59 53.58 L 904.47 53.27 L 922.35 52.95 L 940.24 52.63 L 958.12 52.30 L 976.00 52.00 L 976.00 304 Z" fill="url(#fill-total-trend-slate)"/>
  <polyline class="line" points="64.00,66.06 81.88,65.79 99.76,65.51 117.65,65.26 135.53,65.14 153.41,65.02 171.29,64.89 189.18,64.76 207.06,64.60 224.94,64.49 242.82,64.38 260.71,64.28 278.59,64.14 296.47,63.97 314.35,63.87 332.24,63.75 350.12,63.50 368.00,63.20 385.88,62.89 403.76,62.38 421.65,62.02 439.53,61.71 457.41,61.34 475.29,61.03 493.18,60.74 511.06,60.43 528.94,60.08 546.82,59.70 564.71,59.40 582.59,59.10 600.47,58.77 618.35,58.45 636.24,58.11 654.12,57.76 672.00,57.43 689.88,57.13 707.76,56.79 725.65,56.48 743.53,56.17 761.41,55.83 779.29,55.48 797.18,55.15 815.06,54.83 832.94,54.55 850.82,54.23 868.71,53.92 886.59,53.58 904.47,53.27 922.35,52.95 940.24,52.63 958.12,52.30 976.00,52.00"/>
  <circle class="dot" cx="976.00" cy="52.00" r="4.5"/>
  
  <text class="axis" x="64.00" y="336" text-anchor="start">2026-03-10</text>
  <text class="axis" x="242.82" y="336" text-anchor="middle">2026-03-20</text>
  <text class="axis" x="421.65" y="336" text-anchor="middle">2026-03-30</text>
  <text class="axis" x="600.47" y="336" text-anchor="middle">2026-04-09</text>
  <text class="axis" x="779.29" y="336" text-anchor="middle">2026-04-19</text>
  <text class="axis" x="958.12" y="336" text-anchor="middle">2026-04-29</text>
  <text class="axis" x="976.00" y="336" text-anchor="end">2026-04-30</text>
  <text class="latest" x="976" y="34" text-anchor="end">Latest total: 66,021</text>
</svg>
