<?xml version="1.0" encoding="UTF-8"?>
<svg xmlns="http://www.w3.org/2000/svg" viewBox="0 0 1000 360" role="img" aria-label="hordesmod/kek-ui release downloads chart">
  <defs>
    <linearGradient id="fill-total-trend-slate" x1="0" y1="0" x2="0" y2="1">
      <stop offset="0%" stop-color="#60a5fa" stop-opacity="0.32"/>
      <stop offset="100%" stop-color="#60a5fa" stop-opacity="0.05"/>
    </linearGradient>
    <style>
      .bg { fill: #0f172a; }
      .title { font: 700 24px Arial, sans-serif; fill: #e2e8f0; }
      .sub { font: 400 13px Arial, sans-serif; fill: #94a3b8; }
      .grid { stroke: #1e293b; stroke-width: 1; }
      .axis { font: 400 12px Arial, sans-serif; fill: #94a3b8; }
      .line { fill: none; stroke: #60a5fa; stroke-width: 3; stroke-linecap: round; stroke-linejoin: round; }
      .dot { fill: #60a5fa; }
      .value { font: 600 11px Arial, sans-serif; fill: #cbd5e1; }
      .latest { font: 700 14px Arial, sans-serif; fill: #e2e8f0; }
    </style>
  </defs>
  <rect class="bg" x="0" y="0" width="1000" height="360" rx="16" />
  <text class="title" x="64" y="34">hordesmod/kek-ui release downloads</text>
  <text class="sub" x="64" y="352">Generated 2026-05-19</text>
  <line x1="64" y1="52.00" x2="976" y2="52.00" class="grid"/>
  <text x="56" y="56.00" text-anchor="end" class="axis">67,625</text>
  <line x1="64" y1="94.00" x2="976" y2="94.00" class="grid"/>
  <text x="56" y="98.00" text-anchor="end" class="axis">56,354</text>
  <line x1="64" y1="136.00" x2="976" y2="136.00" class="grid"/>
  <text x="56" y="140.00" text-anchor="end" class="axis">45,083</text>
  <line x1="64" y1="178.00" x2="976" y2="178.00" class="grid"/>
  <text x="56" y="182.00" text-anchor="end" class="axis">33,813</text>
  <line x1="64" y1="220.00" x2="976" y2="220.00" class="grid"/>
  <text x="56" y="224.00" text-anchor="end" class="axis">22,542</text>
  <line x1="64" y1="262.00" x2="976" y2="262.00" class="grid"/>
  <text x="56" y="266.00" text-anchor="end" class="axis">11,271</text>
  <line x1="64" y1="304.00" x2="976" y2="304.00" class="grid"/>
  <text x="56" y="308.00" text-anchor="end" class="axis">0</text>
  <path d="M 64.00 304 L 64.00 71.70 L 77.03 71.44 L 90.06 71.17 L 103.09 70.93 L 116.11 70.81 L 129.14 70.69 L 142.17 70.57 L 155.20 70.43 L 168.23 70.28 L 181.26 70.17 L 194.29 70.07 L 207.31 69.96 L 220.34 69.83 L 233.37 69.67 L 246.40 69.57 L 259.43 69.45 L 272.46 69.20 L 285.49 68.91 L 298.51 68.60 L 311.54 68.11 L 324.57 67.76 L 337.60 67.46 L 350.63 67.10 L 363.66 66.79 L 376.69 66.51 L 389.71 66.21 L 402.74 65.86 L 415.77 65.50 L 428.80 65.21 L 441.83 64.91 L 454.86 64.59 L 467.89 64.28 L 480.91 63.94 L 493.94 63.60 L 506.97 63.28 L 520.00 62.99 L 533.03 62.65 L 546.06 62.36 L 559.09 62.05 L 572.11 61.72 L 585.14 61.38 L 598.17 61.05 L 611.20 60.74 L 624.23 60.46 L 637.26 60.15 L 650.29 59.85 L 663.31 59.52 L 676.34 59.22 L 689.37 58.90 L 702.40 58.59 L 715.43 58.27 L 728.46 57.98 L 741.49 57.67 L 754.51 57.38 L 767.54 57.03 L 780.57 56.70 L 793.60 56.34 L 806.63 55.98 L 819.66 55.69 L 832.69 55.41 L 845.71 55.07 L 858.74 54.78 L 871.77 54.46 L 884.80 54.14 L 897.83 53.84 L 910.86 53.54 L 923.89 53.28 L 936.91 52.95 L 949.94 52.62 L 962.97 52.30 L 976.00 52.00 L 976.00 304 Z" fill="url(#fill-total-trend-slate)"/>
  <polyline class="line" points="64.00,71.70 77.03,71.44 90.06,71.17 103.09,70.93 116.11,70.81 129.14,70.69 142.17,70.57 155.20,70.43 168.23,70.28 181.26,70.17 194.29,70.07 207.31,69.96 220.34,69.83 233.37,69.67 246.40,69.57 259.43,69.45 272.46,69.20 285.49,68.91 298.51,68.60 311.54,68.11 324.57,67.76 337.60,67.46 350.63,67.10 363.66,66.79 376.69,66.51 389.71,66.21 402.74,65.86 415.77,65.50 428.80,65.21 441.83,64.91 454.86,64.59 467.89,64.28 480.91,63.94 493.94,63.60 506.97,63.28 520.00,62.99 533.03,62.65 546.06,62.36 559.09,62.05 572.11,61.72 585.14,61.38 598.17,61.05 611.20,60.74 624.23,60.46 637.26,60.15 650.29,59.85 663.31,59.52 676.34,59.22 689.37,58.90 702.40,58.59 715.43,58.27 728.46,57.98 741.49,57.67 754.51,57.38 767.54,57.03 780.57,56.70 793.60,56.34 806.63,55.98 819.66,55.69 832.69,55.41 845.71,55.07 858.74,54.78 871.77,54.46 884.80,54.14 897.83,53.84 910.86,53.54 923.89,53.28 936.91,52.95 949.94,52.62 962.97,52.30 976.00,52.00"/>
  <circle class="dot" cx="976.00" cy="52.00" r="4.5"/>
  
  <text class="axis" x="64.00" y="336" text-anchor="start">2026-03-10</text>
  <text class="axis" x="246.40" y="336" text-anchor="middle">2026-03-24</text>
  <text class="axis" x="428.80" y="336" text-anchor="middle">2026-04-07</text>
  <text class="axis" x="611.20" y="336" text-anchor="middle">2026-04-21</text>
  <text class="axis" x="793.60" y="336" text-anchor="middle">2026-05-05</text>
  <text class="axis" x="976.00" y="336" text-anchor="end">2026-05-19</text>
  <text class="latest" x="976" y="34" text-anchor="end">Latest total: 67,625</text>
</svg>
