<?xml version="1.0" encoding="UTF-8"?>
<svg xmlns="http://www.w3.org/2000/svg" viewBox="0 0 1000 360" role="img" aria-label="hordesmod/kek-ui release downloads chart">
  <defs>
    <linearGradient id="fill-total-trend-black" x1="0" y1="0" x2="0" y2="1">
      <stop offset="0%" stop-color="#22d3ee" stop-opacity="0.32"/>
      <stop offset="100%" stop-color="#22d3ee" stop-opacity="0.05"/>
    </linearGradient>
    <style>
      .bg { fill: #0b0b0d; }
      .title { font: 700 24px Arial, sans-serif; fill: #f8fafc; }
      .sub { font: 400 13px Arial, sans-serif; fill: #cbd5e1; }
      .grid { stroke: #1f2937; stroke-width: 1; }
      .axis { font: 400 12px Arial, sans-serif; fill: #94a3b8; }
      .line { fill: none; stroke: #22d3ee; stroke-width: 3; stroke-linecap: round; stroke-linejoin: round; }
      .dot { fill: #22d3ee; }
      .value { font: 600 11px Arial, sans-serif; fill: #cbd5e1; }
      .latest { font: 700 14px Arial, sans-serif; fill: #f8fafc; }
    </style>
  </defs>
  <rect class="bg" x="0" y="0" width="1000" height="360" rx="16" />
  <text class="title" x="64" y="34">hordesmod/kek-ui release downloads</text>
  <text class="sub" x="64" y="352">Generated 2026-05-05</text>
  <line x1="64" y1="52.00" x2="976" y2="52.00" class="grid"/>
  <text x="56" y="56.00" text-anchor="end" class="axis">66,461</text>
  <line x1="64" y1="94.00" x2="976" y2="94.00" class="grid"/>
  <text x="56" y="98.00" text-anchor="end" class="axis">55,384</text>
  <line x1="64" y1="136.00" x2="976" y2="136.00" class="grid"/>
  <text x="56" y="140.00" text-anchor="end" class="axis">44,307</text>
  <line x1="64" y1="178.00" x2="976" y2="178.00" class="grid"/>
  <text x="56" y="182.00" text-anchor="end" class="axis">33,231</text>
  <line x1="64" y1="220.00" x2="976" y2="220.00" class="grid"/>
  <text x="56" y="224.00" text-anchor="end" class="axis">22,154</text>
  <line x1="64" y1="262.00" x2="976" y2="262.00" class="grid"/>
  <text x="56" y="266.00" text-anchor="end" class="axis">11,077</text>
  <line x1="64" y1="304.00" x2="976" y2="304.00" class="grid"/>
  <text x="56" y="308.00" text-anchor="end" class="axis">0</text>
  <path d="M 64.00 304 L 64.00 67.63 L 80.29 67.37 L 96.57 67.09 L 112.86 66.84 L 129.14 66.72 L 145.43 66.61 L 161.71 66.48 L 178.00 66.34 L 194.29 66.18 L 210.57 66.07 L 226.86 65.97 L 243.14 65.86 L 259.43 65.73 L 275.71 65.56 L 292.00 65.46 L 308.29 65.34 L 324.57 65.09 L 340.86 64.79 L 357.14 64.48 L 373.43 63.98 L 389.71 63.63 L 406.00 63.32 L 422.29 62.95 L 438.57 62.64 L 454.86 62.35 L 471.14 62.04 L 487.43 61.69 L 503.71 61.32 L 520.00 61.02 L 536.29 60.72 L 552.57 60.39 L 568.86 60.08 L 585.14 59.74 L 601.43 59.39 L 617.71 59.06 L 634.00 58.77 L 650.29 58.43 L 666.57 58.12 L 682.86 57.81 L 699.14 57.48 L 715.43 57.13 L 731.71 56.79 L 748.00 56.48 L 764.29 56.20 L 780.57 55.88 L 796.86 55.57 L 813.14 55.23 L 829.43 54.93 L 845.71 54.61 L 862.00 54.29 L 878.29 53.97 L 894.57 53.67 L 910.86 53.35 L 927.14 53.06 L 943.43 52.70 L 959.71 52.36 L 976.00 52.00 L 976.00 304 Z" fill="url(#fill-total-trend-black)"/>
  <polyline class="line" points="64.00,67.63 80.29,67.37 96.57,67.09 112.86,66.84 129.14,66.72 145.43,66.61 161.71,66.48 178.00,66.34 194.29,66.18 210.57,66.07 226.86,65.97 243.14,65.86 259.43,65.73 275.71,65.56 292.00,65.46 308.29,65.34 324.57,65.09 340.86,64.79 357.14,64.48 373.43,63.98 389.71,63.63 406.00,63.32 422.29,62.95 438.57,62.64 454.86,62.35 471.14,62.04 487.43,61.69 503.71,61.32 520.00,61.02 536.29,60.72 552.57,60.39 568.86,60.08 585.14,59.74 601.43,59.39 617.71,59.06 634.00,58.77 650.29,58.43 666.57,58.12 682.86,57.81 699.14,57.48 715.43,57.13 731.71,56.79 748.00,56.48 764.29,56.20 780.57,55.88 796.86,55.57 813.14,55.23 829.43,54.93 845.71,54.61 862.00,54.29 878.29,53.97 894.57,53.67 910.86,53.35 927.14,53.06 943.43,52.70 959.71,52.36 976.00,52.00"/>
  <circle class="dot" cx="976.00" cy="52.00" r="4.5"/>
  
  <text class="axis" x="64.00" y="336" text-anchor="start">2026-03-10</text>
  <text class="axis" x="243.14" y="336" text-anchor="middle">2026-03-21</text>
  <text class="axis" x="422.29" y="336" text-anchor="middle">2026-04-01</text>
  <text class="axis" x="601.43" y="336" text-anchor="middle">2026-04-12</text>
  <text class="axis" x="780.57" y="336" text-anchor="middle">2026-04-23</text>
  <text class="axis" x="959.71" y="336" text-anchor="middle">2026-05-04</text>
  <text class="axis" x="976.00" y="336" text-anchor="end">2026-05-05</text>
  <text class="latest" x="976" y="34" text-anchor="end">Latest total: 66,461</text>
</svg>
