<?xml version="1.0" encoding="UTF-8"?>
<svg xmlns="http://www.w3.org/2000/svg" viewBox="0 0 1000 360" role="img" aria-label="hordesmod/kek-ui release downloads chart">
  <defs>
    <linearGradient id="fill-total-trend-orange" x1="0" y1="0" x2="0" y2="1">
      <stop offset="0%" stop-color="#f97316" stop-opacity="0.32"/>
      <stop offset="100%" stop-color="#f97316" stop-opacity="0.05"/>
    </linearGradient>
    <style>
      .bg { fill: #fff7ed; }
      .title { font: 700 24px Arial, sans-serif; fill: #7c2d12; }
      .sub { font: 400 13px Arial, sans-serif; fill: #9a3412; }
      .grid { stroke: #fed7aa; stroke-width: 1; }
      .axis { font: 400 12px Arial, sans-serif; fill: #c2410c; }
      .line { fill: none; stroke: #ea580c; stroke-width: 3; stroke-linecap: round; stroke-linejoin: round; }
      .dot { fill: #ea580c; }
      .value { font: 600 11px Arial, sans-serif; fill: #9a3412; }
      .latest { font: 700 14px Arial, sans-serif; fill: #7c2d12; }
    </style>
  </defs>
  <rect class="bg" x="0" y="0" width="1000" height="360" rx="16" />
  <text class="title" x="64" y="34">hordesmod/kek-ui release downloads</text>
  <text class="sub" x="64" y="352">Generated 2026-05-10</text>
  <line x1="64" y1="52.00" x2="976" y2="52.00" class="grid"/>
  <text x="56" y="56.00" text-anchor="end" class="axis">66,880</text>
  <line x1="64" y1="94.00" x2="976" y2="94.00" class="grid"/>
  <text x="56" y="98.00" text-anchor="end" class="axis">55,733</text>
  <line x1="64" y1="136.00" x2="976" y2="136.00" class="grid"/>
  <text x="56" y="140.00" text-anchor="end" class="axis">44,587</text>
  <line x1="64" y1="178.00" x2="976" y2="178.00" class="grid"/>
  <text x="56" y="182.00" text-anchor="end" class="axis">33,440</text>
  <line x1="64" y1="220.00" x2="976" y2="220.00" class="grid"/>
  <text x="56" y="224.00" text-anchor="end" class="axis">22,293</text>
  <line x1="64" y1="262.00" x2="976" y2="262.00" class="grid"/>
  <text x="56" y="266.00" text-anchor="end" class="axis">11,147</text>
  <line x1="64" y1="304.00" x2="976" y2="304.00" class="grid"/>
  <text x="56" y="308.00" text-anchor="end" class="axis">0</text>
  <path d="M 64.00 304 L 64.00 69.11 L 78.95 68.85 L 93.90 68.57 L 108.85 68.33 L 123.80 68.21 L 138.75 68.09 L 153.70 67.96 L 168.66 67.83 L 183.61 67.67 L 198.56 67.56 L 213.51 67.46 L 228.46 67.35 L 243.41 67.22 L 258.36 67.06 L 273.31 66.96 L 288.26 66.83 L 303.21 66.59 L 318.16 66.29 L 333.11 65.98 L 348.07 65.49 L 363.02 65.13 L 377.97 64.83 L 392.92 64.46 L 407.87 64.15 L 422.82 63.87 L 437.77 63.56 L 452.72 63.21 L 467.67 62.84 L 482.62 62.55 L 497.57 62.25 L 512.52 61.92 L 527.48 61.61 L 542.43 61.27 L 557.38 60.92 L 572.33 60.59 L 587.28 60.30 L 602.23 59.97 L 617.18 59.66 L 632.13 59.35 L 647.08 59.02 L 662.03 58.67 L 676.98 58.34 L 691.93 58.03 L 706.89 57.75 L 721.84 57.44 L 736.79 57.13 L 751.74 56.79 L 766.69 56.49 L 781.64 56.17 L 796.59 55.86 L 811.54 55.53 L 826.49 55.24 L 841.44 54.92 L 856.39 54.63 L 871.34 54.28 L 886.30 53.94 L 901.25 53.58 L 916.20 53.21 L 931.15 52.92 L 946.10 52.64 L 961.05 52.30 L 976.00 52.00 L 976.00 304 Z" fill="url(#fill-total-trend-orange)"/>
  <polyline class="line" points="64.00,69.11 78.95,68.85 93.90,68.57 108.85,68.33 123.80,68.21 138.75,68.09 153.70,67.96 168.66,67.83 183.61,67.67 198.56,67.56 213.51,67.46 228.46,67.35 243.41,67.22 258.36,67.06 273.31,66.96 288.26,66.83 303.21,66.59 318.16,66.29 333.11,65.98 348.07,65.49 363.02,65.13 377.97,64.83 392.92,64.46 407.87,64.15 422.82,63.87 437.77,63.56 452.72,63.21 467.67,62.84 482.62,62.55 497.57,62.25 512.52,61.92 527.48,61.61 542.43,61.27 557.38,60.92 572.33,60.59 587.28,60.30 602.23,59.97 617.18,59.66 632.13,59.35 647.08,59.02 662.03,58.67 676.98,58.34 691.93,58.03 706.89,57.75 721.84,57.44 736.79,57.13 751.74,56.79 766.69,56.49 781.64,56.17 796.59,55.86 811.54,55.53 826.49,55.24 841.44,54.92 856.39,54.63 871.34,54.28 886.30,53.94 901.25,53.58 916.20,53.21 931.15,52.92 946.10,52.64 961.05,52.30 976.00,52.00"/>
  <circle class="dot" cx="976.00" cy="52.00" r="4.5"/>
  
  <text class="axis" x="64.00" y="336" text-anchor="start">2026-03-10</text>
  <text class="axis" x="243.41" y="336" text-anchor="middle">2026-03-22</text>
  <text class="axis" x="422.82" y="336" text-anchor="middle">2026-04-03</text>
  <text class="axis" x="602.23" y="336" text-anchor="middle">2026-04-15</text>
  <text class="axis" x="781.64" y="336" text-anchor="middle">2026-04-27</text>
  <text class="axis" x="961.05" y="336" text-anchor="middle">2026-05-09</text>
  <text class="axis" x="976.00" y="336" text-anchor="end">2026-05-10</text>
  <text class="latest" x="976" y="34" text-anchor="end">Latest total: 66,880</text>
</svg>
