<?xml version="1.0" encoding="UTF-8"?>
<svg xmlns="http://www.w3.org/2000/svg" viewBox="0 0 1000 360" role="img" aria-label="hordesmod/kek-ui release downloads chart">
  <defs>
    <linearGradient id="fill-total-trend-slate" x1="0" y1="0" x2="0" y2="1">
      <stop offset="0%" stop-color="#60a5fa" stop-opacity="0.32"/>
      <stop offset="100%" stop-color="#60a5fa" stop-opacity="0.05"/>
    </linearGradient>
    <style>
      .bg { fill: #0f172a; }
      .title { font: 700 24px Arial, sans-serif; fill: #e2e8f0; }
      .sub { font: 400 13px Arial, sans-serif; fill: #94a3b8; }
      .grid { stroke: #1e293b; stroke-width: 1; }
      .axis { font: 400 12px Arial, sans-serif; fill: #94a3b8; }
      .line { fill: none; stroke: #60a5fa; stroke-width: 3; stroke-linecap: round; stroke-linejoin: round; }
      .dot { fill: #60a5fa; }
      .value { font: 600 11px Arial, sans-serif; fill: #cbd5e1; }
      .latest { font: 700 14px Arial, sans-serif; fill: #e2e8f0; }
    </style>
  </defs>
  <rect class="bg" x="0" y="0" width="1000" height="360" rx="16" />
  <text class="title" x="64" y="34">hordesmod/kek-ui release downloads</text>
  <text class="sub" x="64" y="352">Generated 2026-04-05</text>
  <line x1="64" y1="52.00" x2="976" y2="52.00" class="grid"/>
  <text x="56" y="56.00" text-anchor="end" class="axis">63,905</text>
  <line x1="64" y1="94.00" x2="976" y2="94.00" class="grid"/>
  <text x="56" y="98.00" text-anchor="end" class="axis">53,254</text>
  <line x1="64" y1="136.00" x2="976" y2="136.00" class="grid"/>
  <text x="56" y="140.00" text-anchor="end" class="axis">42,603</text>
  <line x1="64" y1="178.00" x2="976" y2="178.00" class="grid"/>
  <text x="56" y="182.00" text-anchor="end" class="axis">31,953</text>
  <line x1="64" y1="220.00" x2="976" y2="220.00" class="grid"/>
  <text x="56" y="224.00" text-anchor="end" class="axis">21,302</text>
  <line x1="64" y1="262.00" x2="976" y2="262.00" class="grid"/>
  <text x="56" y="266.00" text-anchor="end" class="axis">10,651</text>
  <line x1="64" y1="304.00" x2="976" y2="304.00" class="grid"/>
  <text x="56" y="308.00" text-anchor="end" class="axis">0</text>
  <path d="M 64.00 304 L 64.00 58.18 L 99.08 57.91 L 134.15 57.61 L 169.23 57.36 L 204.31 57.23 L 239.38 57.11 L 274.46 56.98 L 309.54 56.84 L 344.62 56.67 L 379.69 56.55 L 414.77 56.45 L 449.85 56.34 L 484.92 56.20 L 520.00 56.03 L 555.08 55.92 L 590.15 55.79 L 625.23 55.54 L 660.31 55.22 L 695.38 54.90 L 730.46 54.38 L 765.54 54.01 L 800.62 53.69 L 835.69 53.31 L 870.77 52.98 L 905.85 52.69 L 940.92 52.36 L 976.00 52.00 L 976.00 304 Z" fill="url(#fill-total-trend-slate)"/>
  <polyline class="line" points="64.00,58.18 99.08,57.91 134.15,57.61 169.23,57.36 204.31,57.23 239.38,57.11 274.46,56.98 309.54,56.84 344.62,56.67 379.69,56.55 414.77,56.45 449.85,56.34 484.92,56.20 520.00,56.03 555.08,55.92 590.15,55.79 625.23,55.54 660.31,55.22 695.38,54.90 730.46,54.38 765.54,54.01 800.62,53.69 835.69,53.31 870.77,52.98 905.85,52.69 940.92,52.36 976.00,52.00"/>
  <circle class="dot" cx="976.00" cy="52.00" r="4.5"/>
  
  <text class="axis" x="64.00" y="336" text-anchor="start">2026-03-10</text>
  <text class="axis" x="239.38" y="336" text-anchor="middle">2026-03-15</text>
  <text class="axis" x="414.77" y="336" text-anchor="middle">2026-03-20</text>
  <text class="axis" x="590.15" y="336" text-anchor="middle">2026-03-25</text>
  <text class="axis" x="765.54" y="336" text-anchor="middle">2026-03-30</text>
  <text class="axis" x="940.92" y="336" text-anchor="middle">2026-04-04</text>
  <text class="axis" x="976.00" y="336" text-anchor="end">2026-04-05</text>
  <text class="latest" x="976" y="34" text-anchor="end">Latest total: 63,905</text>
</svg>
