<?xml version="1.0" encoding="UTF-8"?>
<svg xmlns="http://www.w3.org/2000/svg" viewBox="0 0 1000 360" role="img" aria-label="hordesmod/kek-ui release downloads chart">
  <defs>
    <linearGradient id="fill-total-trend-orange" x1="0" y1="0" x2="0" y2="1">
      <stop offset="0%" stop-color="#f97316" stop-opacity="0.32"/>
      <stop offset="100%" stop-color="#f97316" stop-opacity="0.05"/>
    </linearGradient>
    <style>
      .bg { fill: #fff7ed; }
      .title { font: 700 24px Arial, sans-serif; fill: #7c2d12; }
      .sub { font: 400 13px Arial, sans-serif; fill: #9a3412; }
      .grid { stroke: #fed7aa; stroke-width: 1; }
      .axis { font: 400 12px Arial, sans-serif; fill: #c2410c; }
      .line { fill: none; stroke: #ea580c; stroke-width: 3; stroke-linecap: round; stroke-linejoin: round; }
      .dot { fill: #ea580c; }
      .value { font: 600 11px Arial, sans-serif; fill: #9a3412; }
      .latest { font: 700 14px Arial, sans-serif; fill: #7c2d12; }
    </style>
  </defs>
  <rect class="bg" x="0" y="0" width="1000" height="360" rx="16" />
  <text class="title" x="64" y="34">hordesmod/kek-ui release downloads</text>
  <text class="sub" x="64" y="352">Generated 2026-04-20</text>
  <line x1="64" y1="52.00" x2="976" y2="52.00" class="grid"/>
  <text x="56" y="56.00" text-anchor="end" class="axis">65,197</text>
  <line x1="64" y1="94.00" x2="976" y2="94.00" class="grid"/>
  <text x="56" y="98.00" text-anchor="end" class="axis">54,331</text>
  <line x1="64" y1="136.00" x2="976" y2="136.00" class="grid"/>
  <text x="56" y="140.00" text-anchor="end" class="axis">43,465</text>
  <line x1="64" y1="178.00" x2="976" y2="178.00" class="grid"/>
  <text x="56" y="182.00" text-anchor="end" class="axis">32,599</text>
  <line x1="64" y1="220.00" x2="976" y2="220.00" class="grid"/>
  <text x="56" y="224.00" text-anchor="end" class="axis">21,732</text>
  <line x1="64" y1="262.00" x2="976" y2="262.00" class="grid"/>
  <text x="56" y="266.00" text-anchor="end" class="axis">10,866</text>
  <line x1="64" y1="304.00" x2="976" y2="304.00" class="grid"/>
  <text x="56" y="308.00" text-anchor="end" class="axis">0</text>
  <path d="M 64.00 304 L 64.00 63.05 L 86.24 62.78 L 108.49 62.49 L 130.73 62.25 L 152.98 62.12 L 175.22 62.00 L 197.46 61.87 L 219.71 61.74 L 241.95 61.57 L 264.20 61.46 L 286.44 61.35 L 308.68 61.25 L 330.93 61.11 L 353.17 60.94 L 375.41 60.84 L 397.66 60.71 L 419.90 60.46 L 442.15 60.15 L 464.39 59.84 L 486.63 59.33 L 508.88 58.97 L 531.12 58.65 L 553.37 58.27 L 575.61 57.96 L 597.85 57.67 L 620.10 57.35 L 642.34 56.99 L 664.59 56.62 L 686.83 56.31 L 709.07 56.01 L 731.32 55.67 L 753.56 55.35 L 775.80 55.00 L 798.05 54.64 L 820.29 54.31 L 842.54 54.01 L 864.78 53.67 L 887.02 53.36 L 909.27 53.04 L 931.51 52.70 L 953.76 52.34 L 976.00 52.00 L 976.00 304 Z" fill="url(#fill-total-trend-orange)"/>
  <polyline class="line" points="64.00,63.05 86.24,62.78 108.49,62.49 130.73,62.25 152.98,62.12 175.22,62.00 197.46,61.87 219.71,61.74 241.95,61.57 264.20,61.46 286.44,61.35 308.68,61.25 330.93,61.11 353.17,60.94 375.41,60.84 397.66,60.71 419.90,60.46 442.15,60.15 464.39,59.84 486.63,59.33 508.88,58.97 531.12,58.65 553.37,58.27 575.61,57.96 597.85,57.67 620.10,57.35 642.34,56.99 664.59,56.62 686.83,56.31 709.07,56.01 731.32,55.67 753.56,55.35 775.80,55.00 798.05,54.64 820.29,54.31 842.54,54.01 864.78,53.67 887.02,53.36 909.27,53.04 931.51,52.70 953.76,52.34 976.00,52.00"/>
  <circle class="dot" cx="976.00" cy="52.00" r="4.5"/>
  
  <text class="axis" x="64.00" y="336" text-anchor="start">2026-03-10</text>
  <text class="axis" x="241.95" y="336" text-anchor="middle">2026-03-18</text>
  <text class="axis" x="419.90" y="336" text-anchor="middle">2026-03-26</text>
  <text class="axis" x="597.85" y="336" text-anchor="middle">2026-04-03</text>
  <text class="axis" x="775.80" y="336" text-anchor="middle">2026-04-11</text>
  <text class="axis" x="953.76" y="336" text-anchor="middle">2026-04-19</text>
  <text class="axis" x="976.00" y="336" text-anchor="end">2026-04-20</text>
  <text class="latest" x="976" y="34" text-anchor="end">Latest total: 65,197</text>
</svg>
