<?xml version="1.0" encoding="UTF-8"?>
<svg xmlns="http://www.w3.org/2000/svg" viewBox="0 0 1000 360" role="img" aria-label="hordesmod/kek-ui release downloads chart">
  <defs>
    <linearGradient id="fill-total-trend-orange" x1="0" y1="0" x2="0" y2="1">
      <stop offset="0%" stop-color="#f97316" stop-opacity="0.32"/>
      <stop offset="100%" stop-color="#f97316" stop-opacity="0.05"/>
    </linearGradient>
    <style>
      .bg { fill: #fff7ed; }
      .title { font: 700 24px Arial, sans-serif; fill: #7c2d12; }
      .sub { font: 400 13px Arial, sans-serif; fill: #9a3412; }
      .grid { stroke: #fed7aa; stroke-width: 1; }
      .axis { font: 400 12px Arial, sans-serif; fill: #c2410c; }
      .line { fill: none; stroke: #ea580c; stroke-width: 3; stroke-linecap: round; stroke-linejoin: round; }
      .dot { fill: #ea580c; }
      .value { font: 600 11px Arial, sans-serif; fill: #9a3412; }
      .latest { font: 700 14px Arial, sans-serif; fill: #7c2d12; }
    </style>
  </defs>
  <rect class="bg" x="0" y="0" width="1000" height="360" rx="16" />
  <text class="title" x="64" y="34">hordesmod/kek-ui release downloads</text>
  <text class="sub" x="64" y="352">Generated 2026-05-17</text>
  <line x1="64" y1="52.00" x2="976" y2="52.00" class="grid"/>
  <text x="56" y="56.00" text-anchor="end" class="axis">67,458</text>
  <line x1="64" y1="94.00" x2="976" y2="94.00" class="grid"/>
  <text x="56" y="98.00" text-anchor="end" class="axis">56,215</text>
  <line x1="64" y1="136.00" x2="976" y2="136.00" class="grid"/>
  <text x="56" y="140.00" text-anchor="end" class="axis">44,972</text>
  <line x1="64" y1="178.00" x2="976" y2="178.00" class="grid"/>
  <text x="56" y="182.00" text-anchor="end" class="axis">33,729</text>
  <line x1="64" y1="220.00" x2="976" y2="220.00" class="grid"/>
  <text x="56" y="224.00" text-anchor="end" class="axis">22,486</text>
  <line x1="64" y1="262.00" x2="976" y2="262.00" class="grid"/>
  <text x="56" y="266.00" text-anchor="end" class="axis">11,243</text>
  <line x1="64" y1="304.00" x2="976" y2="304.00" class="grid"/>
  <text x="56" y="308.00" text-anchor="end" class="axis">0</text>
  <path d="M 64.00 304 L 64.00 71.13 L 77.41 70.87 L 90.82 70.59 L 104.24 70.35 L 117.65 70.23 L 131.06 70.11 L 144.47 69.99 L 157.88 69.86 L 171.29 69.70 L 184.71 69.59 L 198.12 69.49 L 211.53 69.38 L 224.94 69.25 L 238.35 69.09 L 251.76 68.99 L 265.18 68.87 L 278.59 68.62 L 292.00 68.32 L 305.41 68.02 L 318.82 67.53 L 332.24 67.18 L 345.65 66.88 L 359.06 66.51 L 372.47 66.20 L 385.88 65.92 L 399.29 65.62 L 412.71 65.27 L 426.12 64.91 L 439.53 64.62 L 452.94 64.32 L 466.35 64.00 L 479.76 63.69 L 493.18 63.35 L 506.59 63.00 L 520.00 62.68 L 533.41 62.39 L 546.82 62.06 L 560.24 61.76 L 573.65 61.45 L 587.06 61.12 L 600.47 60.78 L 613.88 60.45 L 627.29 60.14 L 640.71 59.86 L 654.12 59.55 L 667.53 59.24 L 680.94 58.91 L 694.35 58.61 L 707.76 58.29 L 721.18 57.98 L 734.59 57.66 L 748.00 57.37 L 761.41 57.06 L 774.82 56.77 L 788.24 56.42 L 801.65 56.08 L 815.06 55.72 L 828.47 55.36 L 841.88 55.07 L 855.29 54.79 L 868.71 54.46 L 882.12 54.16 L 895.53 53.84 L 908.94 53.52 L 922.35 53.23 L 935.76 52.92 L 949.18 52.66 L 962.59 52.33 L 976.00 52.00 L 976.00 304 Z" fill="url(#fill-total-trend-orange)"/>
  <polyline class="line" points="64.00,71.13 77.41,70.87 90.82,70.59 104.24,70.35 117.65,70.23 131.06,70.11 144.47,69.99 157.88,69.86 171.29,69.70 184.71,69.59 198.12,69.49 211.53,69.38 224.94,69.25 238.35,69.09 251.76,68.99 265.18,68.87 278.59,68.62 292.00,68.32 305.41,68.02 318.82,67.53 332.24,67.18 345.65,66.88 359.06,66.51 372.47,66.20 385.88,65.92 399.29,65.62 412.71,65.27 426.12,64.91 439.53,64.62 452.94,64.32 466.35,64.00 479.76,63.69 493.18,63.35 506.59,63.00 520.00,62.68 533.41,62.39 546.82,62.06 560.24,61.76 573.65,61.45 587.06,61.12 600.47,60.78 613.88,60.45 627.29,60.14 640.71,59.86 654.12,59.55 667.53,59.24 680.94,58.91 694.35,58.61 707.76,58.29 721.18,57.98 734.59,57.66 748.00,57.37 761.41,57.06 774.82,56.77 788.24,56.42 801.65,56.08 815.06,55.72 828.47,55.36 841.88,55.07 855.29,54.79 868.71,54.46 882.12,54.16 895.53,53.84 908.94,53.52 922.35,53.23 935.76,52.92 949.18,52.66 962.59,52.33 976.00,52.00"/>
  <circle class="dot" cx="976.00" cy="52.00" r="4.5"/>
  
  <text class="axis" x="64.00" y="336" text-anchor="start">2026-03-10</text>
  <text class="axis" x="238.35" y="336" text-anchor="middle">2026-03-23</text>
  <text class="axis" x="412.71" y="336" text-anchor="middle">2026-04-05</text>
  <text class="axis" x="587.06" y="336" text-anchor="middle">2026-04-18</text>
  <text class="axis" x="761.41" y="336" text-anchor="middle">2026-05-01</text>
  <text class="axis" x="935.76" y="336" text-anchor="middle">2026-05-14</text>
  <text class="axis" x="976.00" y="336" text-anchor="end">2026-05-17</text>
  <text class="latest" x="976" y="34" text-anchor="end">Latest total: 67,458</text>
</svg>
