<?xml version="1.0" encoding="UTF-8"?>
<svg xmlns="http://www.w3.org/2000/svg" viewBox="0 0 1000 360" role="img" aria-label="hordesmod/kek-ui release downloads chart">
  <defs>
    <linearGradient id="fill-total-trend-slate" x1="0" y1="0" x2="0" y2="1">
      <stop offset="0%" stop-color="#60a5fa" stop-opacity="0.32"/>
      <stop offset="100%" stop-color="#60a5fa" stop-opacity="0.05"/>
    </linearGradient>
    <style>
      .bg { fill: #0f172a; }
      .title { font: 700 24px Arial, sans-serif; fill: #e2e8f0; }
      .sub { font: 400 13px Arial, sans-serif; fill: #94a3b8; }
      .grid { stroke: #1e293b; stroke-width: 1; }
      .axis { font: 400 12px Arial, sans-serif; fill: #94a3b8; }
      .line { fill: none; stroke: #60a5fa; stroke-width: 3; stroke-linecap: round; stroke-linejoin: round; }
      .dot { fill: #60a5fa; }
      .value { font: 600 11px Arial, sans-serif; fill: #cbd5e1; }
      .latest { font: 700 14px Arial, sans-serif; fill: #e2e8f0; }
    </style>
  </defs>
  <rect class="bg" x="0" y="0" width="1000" height="360" rx="16" />
  <text class="title" x="64" y="34">hordesmod/kek-ui release downloads</text>
  <text class="sub" x="64" y="352">Generated 2026-04-19</text>
  <line x1="64" y1="52.00" x2="976" y2="52.00" class="grid"/>
  <text x="56" y="56.00" text-anchor="end" class="axis">65,109</text>
  <line x1="64" y1="94.00" x2="976" y2="94.00" class="grid"/>
  <text x="56" y="98.00" text-anchor="end" class="axis">54,258</text>
  <line x1="64" y1="136.00" x2="976" y2="136.00" class="grid"/>
  <text x="56" y="140.00" text-anchor="end" class="axis">43,406</text>
  <line x1="64" y1="178.00" x2="976" y2="178.00" class="grid"/>
  <text x="56" y="182.00" text-anchor="end" class="axis">32,555</text>
  <line x1="64" y1="220.00" x2="976" y2="220.00" class="grid"/>
  <text x="56" y="224.00" text-anchor="end" class="axis">21,703</text>
  <line x1="64" y1="262.00" x2="976" y2="262.00" class="grid"/>
  <text x="56" y="266.00" text-anchor="end" class="axis">10,852</text>
  <line x1="64" y1="304.00" x2="976" y2="304.00" class="grid"/>
  <text x="56" y="308.00" text-anchor="end" class="axis">0</text>
  <path d="M 64.00 304 L 64.00 62.72 L 86.80 62.46 L 109.60 62.17 L 132.40 61.92 L 155.20 61.80 L 178.00 61.68 L 200.80 61.54 L 223.60 61.41 L 246.40 61.25 L 269.20 61.13 L 292.00 61.03 L 314.80 60.92 L 337.60 60.78 L 360.40 60.61 L 383.20 60.51 L 406.00 60.38 L 428.80 60.13 L 451.60 59.82 L 474.40 59.51 L 497.20 59.00 L 520.00 58.63 L 542.80 58.32 L 565.60 57.94 L 588.40 57.62 L 611.20 57.33 L 634.00 57.02 L 656.80 56.66 L 679.60 56.28 L 702.40 55.98 L 725.20 55.67 L 748.00 55.34 L 770.80 55.02 L 793.60 54.67 L 816.40 54.31 L 839.20 53.97 L 862.00 53.68 L 884.80 53.33 L 907.60 53.02 L 930.40 52.70 L 953.20 52.36 L 976.00 52.00 L 976.00 304 Z" fill="url(#fill-total-trend-slate)"/>
  <polyline class="line" points="64.00,62.72 86.80,62.46 109.60,62.17 132.40,61.92 155.20,61.80 178.00,61.68 200.80,61.54 223.60,61.41 246.40,61.25 269.20,61.13 292.00,61.03 314.80,60.92 337.60,60.78 360.40,60.61 383.20,60.51 406.00,60.38 428.80,60.13 451.60,59.82 474.40,59.51 497.20,59.00 520.00,58.63 542.80,58.32 565.60,57.94 588.40,57.62 611.20,57.33 634.00,57.02 656.80,56.66 679.60,56.28 702.40,55.98 725.20,55.67 748.00,55.34 770.80,55.02 793.60,54.67 816.40,54.31 839.20,53.97 862.00,53.68 884.80,53.33 907.60,53.02 930.40,52.70 953.20,52.36 976.00,52.00"/>
  <circle class="dot" cx="976.00" cy="52.00" r="4.5"/>
  
  <text class="axis" x="64.00" y="336" text-anchor="start">2026-03-10</text>
  <text class="axis" x="246.40" y="336" text-anchor="middle">2026-03-18</text>
  <text class="axis" x="428.80" y="336" text-anchor="middle">2026-03-26</text>
  <text class="axis" x="611.20" y="336" text-anchor="middle">2026-04-03</text>
  <text class="axis" x="793.60" y="336" text-anchor="middle">2026-04-11</text>
  <text class="axis" x="976.00" y="336" text-anchor="end">2026-04-19</text>
  <text class="latest" x="976" y="34" text-anchor="end">Latest total: 65,109</text>
</svg>
