<?xml version="1.0" encoding="UTF-8"?>
<svg xmlns="http://www.w3.org/2000/svg" viewBox="0 0 1000 360" role="img" aria-label="hordesmod/kek-ui release downloads chart">
  <defs>
    <linearGradient id="fill-total-trend-orange" x1="0" y1="0" x2="0" y2="1">
      <stop offset="0%" stop-color="#f97316" stop-opacity="0.32"/>
      <stop offset="100%" stop-color="#f97316" stop-opacity="0.05"/>
    </linearGradient>
    <style>
      .bg { fill: #fff7ed; }
      .title { font: 700 24px Arial, sans-serif; fill: #7c2d12; }
      .sub { font: 400 13px Arial, sans-serif; fill: #9a3412; }
      .grid { stroke: #fed7aa; stroke-width: 1; }
      .axis { font: 400 12px Arial, sans-serif; fill: #c2410c; }
      .line { fill: none; stroke: #ea580c; stroke-width: 3; stroke-linecap: round; stroke-linejoin: round; }
      .dot { fill: #ea580c; }
      .value { font: 600 11px Arial, sans-serif; fill: #9a3412; }
      .latest { font: 700 14px Arial, sans-serif; fill: #7c2d12; }
    </style>
  </defs>
  <rect class="bg" x="0" y="0" width="1000" height="360" rx="16" />
  <text class="title" x="64" y="34">hordesmod/kek-ui release downloads</text>
  <text class="sub" x="64" y="352">Generated 2026-04-13</text>
  <line x1="64" y1="52.00" x2="976" y2="52.00" class="grid"/>
  <text x="56" y="56.00" text-anchor="end" class="axis">64,599</text>
  <line x1="64" y1="94.00" x2="976" y2="94.00" class="grid"/>
  <text x="56" y="98.00" text-anchor="end" class="axis">53,833</text>
  <line x1="64" y1="136.00" x2="976" y2="136.00" class="grid"/>
  <text x="56" y="140.00" text-anchor="end" class="axis">43,066</text>
  <line x1="64" y1="178.00" x2="976" y2="178.00" class="grid"/>
  <text x="56" y="182.00" text-anchor="end" class="axis">32,300</text>
  <line x1="64" y1="220.00" x2="976" y2="220.00" class="grid"/>
  <text x="56" y="224.00" text-anchor="end" class="axis">21,533</text>
  <line x1="64" y1="262.00" x2="976" y2="262.00" class="grid"/>
  <text x="56" y="266.00" text-anchor="end" class="axis">10,767</text>
  <line x1="64" y1="304.00" x2="976" y2="304.00" class="grid"/>
  <text x="56" y="308.00" text-anchor="end" class="axis">0</text>
  <path d="M 64.00 304 L 64.00 60.82 L 90.82 60.55 L 117.65 60.26 L 144.47 60.01 L 171.29 59.88 L 198.12 59.76 L 224.94 59.63 L 251.76 59.49 L 278.59 59.33 L 305.41 59.21 L 332.24 59.11 L 359.06 59.00 L 385.88 58.86 L 412.71 58.69 L 439.53 58.59 L 466.35 58.46 L 493.18 58.21 L 520.00 57.89 L 546.82 57.58 L 573.65 57.06 L 600.47 56.70 L 627.29 56.38 L 654.12 56.00 L 680.94 55.68 L 707.76 55.39 L 734.59 55.07 L 761.41 54.71 L 788.24 54.32 L 815.06 54.02 L 841.88 53.71 L 868.71 53.37 L 895.53 53.05 L 922.35 52.70 L 949.18 52.34 L 976.00 52.00 L 976.00 304 Z" fill="url(#fill-total-trend-orange)"/>
  <polyline class="line" points="64.00,60.82 90.82,60.55 117.65,60.26 144.47,60.01 171.29,59.88 198.12,59.76 224.94,59.63 251.76,59.49 278.59,59.33 305.41,59.21 332.24,59.11 359.06,59.00 385.88,58.86 412.71,58.69 439.53,58.59 466.35,58.46 493.18,58.21 520.00,57.89 546.82,57.58 573.65,57.06 600.47,56.70 627.29,56.38 654.12,56.00 680.94,55.68 707.76,55.39 734.59,55.07 761.41,54.71 788.24,54.32 815.06,54.02 841.88,53.71 868.71,53.37 895.53,53.05 922.35,52.70 949.18,52.34 976.00,52.00"/>
  <circle class="dot" cx="976.00" cy="52.00" r="4.5"/>
  
  <text class="axis" x="64.00" y="336" text-anchor="start">2026-03-10</text>
  <text class="axis" x="224.94" y="336" text-anchor="middle">2026-03-16</text>
  <text class="axis" x="385.88" y="336" text-anchor="middle">2026-03-22</text>
  <text class="axis" x="546.82" y="336" text-anchor="middle">2026-03-28</text>
  <text class="axis" x="707.76" y="336" text-anchor="middle">2026-04-03</text>
  <text class="axis" x="868.71" y="336" text-anchor="middle">2026-04-09</text>
  <text class="axis" x="976.00" y="336" text-anchor="end">2026-04-13</text>
  <text class="latest" x="976" y="34" text-anchor="end">Latest total: 64,599</text>
</svg>
