<?xml version="1.0" encoding="UTF-8"?>
<svg xmlns="http://www.w3.org/2000/svg" viewBox="0 0 1000 360" role="img" aria-label="hordesmod/kek-ui release downloads chart">
  <defs>
    <linearGradient id="fill-weekly-slate" x1="0" y1="0" x2="0" y2="1">
      <stop offset="0%" stop-color="#60a5fa" stop-opacity="0.32"/>
      <stop offset="100%" stop-color="#60a5fa" stop-opacity="0.05"/>
    </linearGradient>
    <style>
      .bg { fill: #0f172a; }
      .title { font: 700 24px Arial, sans-serif; fill: #e2e8f0; }
      .sub { font: 400 13px Arial, sans-serif; fill: #94a3b8; }
      .grid { stroke: #1e293b; stroke-width: 1; }
      .axis { font: 400 12px Arial, sans-serif; fill: #94a3b8; }
      .line { fill: none; stroke: #60a5fa; stroke-width: 3; stroke-linecap: round; stroke-linejoin: round; }
      .dot { fill: #60a5fa; }
      .value { font: 600 11px Arial, sans-serif; fill: #cbd5e1; }
      .latest { font: 700 14px Arial, sans-serif; fill: #e2e8f0; }
    </style>
  </defs>
  <rect class="bg" x="0" y="0" width="1000" height="360" rx="16" />
  <text class="title" x="64" y="34">hordesmod/kek-ui release downloads</text>
  <text class="sub" x="64" y="352">Generated 2026-04-10</text>
  <line x1="64" y1="52.00" x2="976" y2="52.00" class="grid"/>
  <text x="56" y="56.00" text-anchor="end" class="axis">648</text>
  <line x1="64" y1="94.00" x2="976" y2="94.00" class="grid"/>
  <text x="56" y="98.00" text-anchor="end" class="axis">540</text>
  <line x1="64" y1="136.00" x2="976" y2="136.00" class="grid"/>
  <text x="56" y="140.00" text-anchor="end" class="axis">432</text>
  <line x1="64" y1="178.00" x2="976" y2="178.00" class="grid"/>
  <text x="56" y="182.00" text-anchor="end" class="axis">324</text>
  <line x1="64" y1="220.00" x2="976" y2="220.00" class="grid"/>
  <text x="56" y="224.00" text-anchor="end" class="axis">216</text>
  <line x1="64" y1="262.00" x2="976" y2="262.00" class="grid"/>
  <text x="56" y="266.00" text-anchor="end" class="axis">108</text>
  <line x1="64" y1="304.00" x2="976" y2="304.00" class="grid"/>
  <text x="56" y="308.00" text-anchor="end" class="axis">0</text>
  <path d="M 64.00 304 L 64.00 304.00 L 93.42 277.17 L 122.84 248.00 L 152.26 223.11 L 181.68 210.67 L 211.10 198.61 L 240.52 185.39 L 269.94 171.78 L 299.35 182.28 L 328.77 199.78 L 358.19 214.17 L 387.61 215.72 L 417.03 214.17 L 446.45 210.28 L 475.87 213.78 L 505.29 217.28 L 534.71 203.67 L 564.13 183.06 L 593.55 162.44 L 622.97 124.72 L 652.39 105.28 L 681.81 83.89 L 711.23 58.61 L 740.65 52.00 L 770.06 53.94 L 799.48 53.56 L 828.90 69.11 L 858.32 67.56 L 887.74 68.72 L 917.16 76.11 L 946.58 74.17 L 976.00 71.06 L 976.00 304 Z" fill="url(#fill-weekly-slate)"/>
  <polyline class="line" points="64.00,304.00 93.42,277.17 122.84,248.00 152.26,223.11 181.68,210.67 211.10,198.61 240.52,185.39 269.94,171.78 299.35,182.28 328.77,199.78 358.19,214.17 387.61,215.72 417.03,214.17 446.45,210.28 475.87,213.78 505.29,217.28 534.71,203.67 564.13,183.06 593.55,162.44 622.97,124.72 652.39,105.28 681.81,83.89 711.23,58.61 740.65,52.00 770.06,53.94 799.48,53.56 828.90,69.11 858.32,67.56 887.74,68.72 917.16,76.11 946.58,74.17 976.00,71.06"/>
  <circle class="dot" cx="976.00" cy="71.06" r="4.5"/>
  
  <text class="axis" x="64.00" y="336" text-anchor="start">2026-03-10</text>
  <text class="axis" x="240.52" y="336" text-anchor="middle">2026-03-16</text>
  <text class="axis" x="417.03" y="336" text-anchor="middle">2026-03-22</text>
  <text class="axis" x="593.55" y="336" text-anchor="middle">2026-03-28</text>
  <text class="axis" x="770.06" y="336" text-anchor="middle">2026-04-03</text>
  <text class="axis" x="946.58" y="336" text-anchor="middle">2026-04-09</text>
  <text class="axis" x="976.00" y="336" text-anchor="end">2026-04-10</text>
  <text class="latest" x="976" y="34" text-anchor="end">Latest week: 599</text>
</svg>
