<?xml version="1.0" encoding="UTF-8"?>
<svg xmlns="http://www.w3.org/2000/svg" viewBox="0 0 1000 360" role="img" aria-label="hordesmod/kek-ui release downloads chart">
  <defs>
    <linearGradient id="fill-weekly-orange" x1="0" y1="0" x2="0" y2="1">
      <stop offset="0%" stop-color="#f97316" stop-opacity="0.32"/>
      <stop offset="100%" stop-color="#f97316" stop-opacity="0.05"/>
    </linearGradient>
    <style>
      .bg { fill: #fff7ed; }
      .title { font: 700 24px Arial, sans-serif; fill: #7c2d12; }
      .sub { font: 400 13px Arial, sans-serif; fill: #9a3412; }
      .grid { stroke: #fed7aa; stroke-width: 1; }
      .axis { font: 400 12px Arial, sans-serif; fill: #c2410c; }
      .line { fill: none; stroke: #ea580c; stroke-width: 3; stroke-linecap: round; stroke-linejoin: round; }
      .dot { fill: #ea580c; }
      .value { font: 600 11px Arial, sans-serif; fill: #9a3412; }
      .latest { font: 700 14px Arial, sans-serif; fill: #7c2d12; }
    </style>
  </defs>
  <rect class="bg" x="0" y="0" width="1000" height="360" rx="16" />
  <text class="title" x="64" y="34">hordesmod/kek-ui release downloads</text>
  <text class="sub" x="64" y="352">Generated 2026-04-18</text>
  <line x1="64" y1="52.00" x2="976" y2="52.00" class="grid"/>
  <text x="56" y="56.00" text-anchor="end" class="axis">648</text>
  <line x1="64" y1="94.00" x2="976" y2="94.00" class="grid"/>
  <text x="56" y="98.00" text-anchor="end" class="axis">540</text>
  <line x1="64" y1="136.00" x2="976" y2="136.00" class="grid"/>
  <text x="56" y="140.00" text-anchor="end" class="axis">432</text>
  <line x1="64" y1="178.00" x2="976" y2="178.00" class="grid"/>
  <text x="56" y="182.00" text-anchor="end" class="axis">324</text>
  <line x1="64" y1="220.00" x2="976" y2="220.00" class="grid"/>
  <text x="56" y="224.00" text-anchor="end" class="axis">216</text>
  <line x1="64" y1="262.00" x2="976" y2="262.00" class="grid"/>
  <text x="56" y="266.00" text-anchor="end" class="axis">108</text>
  <line x1="64" y1="304.00" x2="976" y2="304.00" class="grid"/>
  <text x="56" y="308.00" text-anchor="end" class="axis">0</text>
  <path d="M 64.00 304 L 64.00 304.00 L 87.38 277.17 L 110.77 248.00 L 134.15 223.11 L 157.54 210.67 L 180.92 198.61 L 204.31 185.39 L 227.69 171.78 L 251.08 182.28 L 274.46 199.78 L 297.85 214.17 L 321.23 215.72 L 344.62 214.17 L 368.00 210.28 L 391.38 213.78 L 414.77 217.28 L 438.15 203.67 L 461.54 183.06 L 484.92 162.44 L 508.31 124.72 L 531.69 105.28 L 555.08 83.89 L 578.46 58.61 L 601.85 52.00 L 625.23 53.94 L 648.62 53.56 L 672.00 69.11 L 695.38 67.56 L 718.77 68.72 L 742.15 76.11 L 765.54 74.17 L 788.92 71.06 L 812.31 67.94 L 835.69 67.56 L 859.08 72.22 L 882.46 72.61 L 905.85 68.33 L 929.23 71.06 L 952.62 71.06 L 976.00 71.83 L 976.00 304 Z" fill="url(#fill-weekly-orange)"/>
  <polyline class="line" points="64.00,304.00 87.38,277.17 110.77,248.00 134.15,223.11 157.54,210.67 180.92,198.61 204.31,185.39 227.69,171.78 251.08,182.28 274.46,199.78 297.85,214.17 321.23,215.72 344.62,214.17 368.00,210.28 391.38,213.78 414.77,217.28 438.15,203.67 461.54,183.06 484.92,162.44 508.31,124.72 531.69,105.28 555.08,83.89 578.46,58.61 601.85,52.00 625.23,53.94 648.62,53.56 672.00,69.11 695.38,67.56 718.77,68.72 742.15,76.11 765.54,74.17 788.92,71.06 812.31,67.94 835.69,67.56 859.08,72.22 882.46,72.61 905.85,68.33 929.23,71.06 952.62,71.06 976.00,71.83"/>
  <circle class="dot" cx="976.00" cy="71.83" r="4.5"/>
  
  <text class="axis" x="64.00" y="336" text-anchor="start">2026-03-10</text>
  <text class="axis" x="227.69" y="336" text-anchor="middle">2026-03-17</text>
  <text class="axis" x="391.38" y="336" text-anchor="middle">2026-03-24</text>
  <text class="axis" x="555.08" y="336" text-anchor="middle">2026-03-31</text>
  <text class="axis" x="718.77" y="336" text-anchor="middle">2026-04-07</text>
  <text class="axis" x="882.46" y="336" text-anchor="middle">2026-04-14</text>
  <text class="axis" x="976.00" y="336" text-anchor="end">2026-04-18</text>
  <text class="latest" x="976" y="34" text-anchor="end">Latest week: 597</text>
</svg>
