<?xml version="1.0" encoding="UTF-8"?>
<svg xmlns="http://www.w3.org/2000/svg" viewBox="0 0 1000 360" role="img" aria-label="hordesmod/kek-ui release downloads chart">
  <defs>
    <linearGradient id="fill-weekly-black" x1="0" y1="0" x2="0" y2="1">
      <stop offset="0%" stop-color="#22d3ee" stop-opacity="0.32"/>
      <stop offset="100%" stop-color="#22d3ee" stop-opacity="0.05"/>
    </linearGradient>
    <style>
      .bg { fill: #0b0b0d; }
      .title { font: 700 24px Arial, sans-serif; fill: #f8fafc; }
      .sub { font: 400 13px Arial, sans-serif; fill: #cbd5e1; }
      .grid { stroke: #1f2937; stroke-width: 1; }
      .axis { font: 400 12px Arial, sans-serif; fill: #94a3b8; }
      .line { fill: none; stroke: #22d3ee; stroke-width: 3; stroke-linecap: round; stroke-linejoin: round; }
      .dot { fill: #22d3ee; }
      .value { font: 600 11px Arial, sans-serif; fill: #cbd5e1; }
      .latest { font: 700 14px Arial, sans-serif; fill: #f8fafc; }
    </style>
  </defs>
  <rect class="bg" x="0" y="0" width="1000" height="360" rx="16" />
  <text class="title" x="64" y="34">hordesmod/kek-ui release downloads</text>
  <text class="sub" x="64" y="352">Generated 2026-05-02</text>
  <line x1="64" y1="52.00" x2="976" y2="52.00" class="grid"/>
  <text x="56" y="56.00" text-anchor="end" class="axis">648</text>
  <line x1="64" y1="94.00" x2="976" y2="94.00" class="grid"/>
  <text x="56" y="98.00" text-anchor="end" class="axis">540</text>
  <line x1="64" y1="136.00" x2="976" y2="136.00" class="grid"/>
  <text x="56" y="140.00" text-anchor="end" class="axis">432</text>
  <line x1="64" y1="178.00" x2="976" y2="178.00" class="grid"/>
  <text x="56" y="182.00" text-anchor="end" class="axis">324</text>
  <line x1="64" y1="220.00" x2="976" y2="220.00" class="grid"/>
  <text x="56" y="224.00" text-anchor="end" class="axis">216</text>
  <line x1="64" y1="262.00" x2="976" y2="262.00" class="grid"/>
  <text x="56" y="266.00" text-anchor="end" class="axis">108</text>
  <line x1="64" y1="304.00" x2="976" y2="304.00" class="grid"/>
  <text x="56" y="308.00" text-anchor="end" class="axis">0</text>
  <path d="M 64.00 304 L 64.00 304.00 L 81.21 277.17 L 98.42 248.00 L 115.62 223.11 L 132.83 210.67 L 150.04 198.61 L 167.25 185.39 L 184.45 171.78 L 201.66 182.28 L 218.87 199.78 L 236.08 214.17 L 253.28 215.72 L 270.49 214.17 L 287.70 210.28 L 304.91 213.78 L 322.11 217.28 L 339.32 203.67 L 356.53 183.06 L 373.74 162.44 L 390.94 124.72 L 408.15 105.28 L 425.36 83.89 L 442.57 58.61 L 459.77 52.00 L 476.98 53.94 L 494.19 53.56 L 511.40 69.11 L 528.60 67.56 L 545.81 68.72 L 563.02 76.11 L 580.23 74.17 L 597.43 71.06 L 614.64 67.94 L 631.85 67.56 L 649.06 72.22 L 666.26 72.61 L 683.47 68.33 L 700.68 71.06 L 717.89 71.06 L 735.09 71.83 L 752.30 72.22 L 769.51 71.44 L 786.72 69.50 L 803.92 75.33 L 821.13 74.17 L 838.34 74.56 L 855.55 74.17 L 872.75 78.83 L 889.96 80.00 L 907.17 79.61 L 924.38 75.33 L 941.58 76.89 L 958.79 76.50 L 976.00 81.17 L 976.00 304 Z" fill="url(#fill-weekly-black)"/>
  <polyline class="line" points="64.00,304.00 81.21,277.17 98.42,248.00 115.62,223.11 132.83,210.67 150.04,198.61 167.25,185.39 184.45,171.78 201.66,182.28 218.87,199.78 236.08,214.17 253.28,215.72 270.49,214.17 287.70,210.28 304.91,213.78 322.11,217.28 339.32,203.67 356.53,183.06 373.74,162.44 390.94,124.72 408.15,105.28 425.36,83.89 442.57,58.61 459.77,52.00 476.98,53.94 494.19,53.56 511.40,69.11 528.60,67.56 545.81,68.72 563.02,76.11 580.23,74.17 597.43,71.06 614.64,67.94 631.85,67.56 649.06,72.22 666.26,72.61 683.47,68.33 700.68,71.06 717.89,71.06 735.09,71.83 752.30,72.22 769.51,71.44 786.72,69.50 803.92,75.33 821.13,74.17 838.34,74.56 855.55,74.17 872.75,78.83 889.96,80.00 907.17,79.61 924.38,75.33 941.58,76.89 958.79,76.50 976.00,81.17"/>
  <circle class="dot" cx="976.00" cy="81.17" r="4.5"/>
  
  <text class="axis" x="64.00" y="336" text-anchor="start">2026-03-10</text>
  <text class="axis" x="236.08" y="336" text-anchor="middle">2026-03-20</text>
  <text class="axis" x="408.15" y="336" text-anchor="middle">2026-03-30</text>
  <text class="axis" x="580.23" y="336" text-anchor="middle">2026-04-09</text>
  <text class="axis" x="752.30" y="336" text-anchor="middle">2026-04-19</text>
  <text class="axis" x="924.38" y="336" text-anchor="middle">2026-04-29</text>
  <text class="axis" x="976.00" y="336" text-anchor="end">2026-05-02</text>
  <text class="latest" x="976" y="34" text-anchor="end">Latest week: 573</text>
</svg>
