<?xml version="1.0" encoding="UTF-8"?>
<svg xmlns="http://www.w3.org/2000/svg" viewBox="0 0 1000 360" role="img" aria-label="hordesmod/kek-ui release downloads chart">
  <defs>
    <linearGradient id="fill-weekly-orange" x1="0" y1="0" x2="0" y2="1">
      <stop offset="0%" stop-color="#f97316" stop-opacity="0.32"/>
      <stop offset="100%" stop-color="#f97316" stop-opacity="0.05"/>
    </linearGradient>
    <style>
      .bg { fill: #fff7ed; }
      .title { font: 700 24px Arial, sans-serif; fill: #7c2d12; }
      .sub { font: 400 13px Arial, sans-serif; fill: #9a3412; }
      .grid { stroke: #fed7aa; stroke-width: 1; }
      .axis { font: 400 12px Arial, sans-serif; fill: #c2410c; }
      .line { fill: none; stroke: #ea580c; stroke-width: 3; stroke-linecap: round; stroke-linejoin: round; }
      .dot { fill: #ea580c; }
      .value { font: 600 11px Arial, sans-serif; fill: #9a3412; }
      .latest { font: 700 14px Arial, sans-serif; fill: #7c2d12; }
    </style>
  </defs>
  <rect class="bg" x="0" y="0" width="1000" height="360" rx="16" />
  <text class="title" x="64" y="34">hordesmod/kek-ui release downloads</text>
  <text class="sub" x="64" y="352">Generated 2026-05-20</text>
  <line x1="64" y1="52.00" x2="976" y2="52.00" class="grid"/>
  <text x="56" y="56.00" text-anchor="end" class="axis">648</text>
  <line x1="64" y1="94.00" x2="976" y2="94.00" class="grid"/>
  <text x="56" y="98.00" text-anchor="end" class="axis">540</text>
  <line x1="64" y1="136.00" x2="976" y2="136.00" class="grid"/>
  <text x="56" y="140.00" text-anchor="end" class="axis">432</text>
  <line x1="64" y1="178.00" x2="976" y2="178.00" class="grid"/>
  <text x="56" y="182.00" text-anchor="end" class="axis">324</text>
  <line x1="64" y1="220.00" x2="976" y2="220.00" class="grid"/>
  <text x="56" y="224.00" text-anchor="end" class="axis">216</text>
  <line x1="64" y1="262.00" x2="976" y2="262.00" class="grid"/>
  <text x="56" y="266.00" text-anchor="end" class="axis">108</text>
  <line x1="64" y1="304.00" x2="976" y2="304.00" class="grid"/>
  <text x="56" y="308.00" text-anchor="end" class="axis">0</text>
  <path d="M 64.00 304 L 64.00 304.00 L 76.85 277.17 L 89.69 248.00 L 102.54 223.11 L 115.38 210.67 L 128.23 198.61 L 141.07 185.39 L 153.92 171.78 L 166.76 182.28 L 179.61 199.78 L 192.45 214.17 L 205.30 215.72 L 218.14 214.17 L 230.99 210.28 L 243.83 213.78 L 256.68 217.28 L 269.52 203.67 L 282.37 183.06 L 295.21 162.44 L 308.06 124.72 L 320.90 105.28 L 333.75 83.89 L 346.59 58.61 L 359.44 52.00 L 372.28 53.94 L 385.13 53.56 L 397.97 69.11 L 410.82 67.56 L 423.66 68.72 L 436.51 76.11 L 449.35 74.17 L 462.20 71.06 L 475.04 67.94 L 487.89 67.56 L 500.73 72.22 L 513.58 72.61 L 526.42 68.33 L 539.27 71.06 L 552.11 71.06 L 564.96 71.83 L 577.80 72.22 L 590.65 71.44 L 603.49 69.50 L 616.34 75.33 L 629.18 74.17 L 642.03 74.56 L 654.87 74.17 L 667.72 78.83 L 680.56 80.00 L 693.41 79.61 L 706.25 75.33 L 719.10 76.89 L 731.94 76.50 L 744.79 81.17 L 757.63 75.33 L 770.48 73.78 L 783.32 68.72 L 796.17 64.44 L 809.01 64.83 L 821.86 68.33 L 834.70 63.28 L 847.55 69.11 L 860.39 70.67 L 873.24 74.17 L 886.08 81.56 L 898.93 80.39 L 911.77 81.56 L 924.62 82.33 L 937.46 79.22 L 950.31 78.44 L 963.15 81.17 L 976.00 80.39 L 976.00 304 Z" fill="url(#fill-weekly-orange)"/>
  <polyline class="line" points="64.00,304.00 76.85,277.17 89.69,248.00 102.54,223.11 115.38,210.67 128.23,198.61 141.07,185.39 153.92,171.78 166.76,182.28 179.61,199.78 192.45,214.17 205.30,215.72 218.14,214.17 230.99,210.28 243.83,213.78 256.68,217.28 269.52,203.67 282.37,183.06 295.21,162.44 308.06,124.72 320.90,105.28 333.75,83.89 346.59,58.61 359.44,52.00 372.28,53.94 385.13,53.56 397.97,69.11 410.82,67.56 423.66,68.72 436.51,76.11 449.35,74.17 462.20,71.06 475.04,67.94 487.89,67.56 500.73,72.22 513.58,72.61 526.42,68.33 539.27,71.06 552.11,71.06 564.96,71.83 577.80,72.22 590.65,71.44 603.49,69.50 616.34,75.33 629.18,74.17 642.03,74.56 654.87,74.17 667.72,78.83 680.56,80.00 693.41,79.61 706.25,75.33 719.10,76.89 731.94,76.50 744.79,81.17 757.63,75.33 770.48,73.78 783.32,68.72 796.17,64.44 809.01,64.83 821.86,68.33 834.70,63.28 847.55,69.11 860.39,70.67 873.24,74.17 886.08,81.56 898.93,80.39 911.77,81.56 924.62,82.33 937.46,79.22 950.31,78.44 963.15,81.17 976.00,80.39"/>
  <circle class="dot" cx="976.00" cy="80.39" r="4.5"/>
  
  <text class="axis" x="64.00" y="336" text-anchor="start">2026-03-10</text>
  <text class="axis" x="243.83" y="336" text-anchor="middle">2026-03-24</text>
  <text class="axis" x="423.66" y="336" text-anchor="middle">2026-04-07</text>
  <text class="axis" x="603.49" y="336" text-anchor="middle">2026-04-21</text>
  <text class="axis" x="783.32" y="336" text-anchor="middle">2026-05-05</text>
  <text class="axis" x="963.15" y="336" text-anchor="middle">2026-05-19</text>
  <text class="axis" x="976.00" y="336" text-anchor="end">2026-05-20</text>
  <text class="latest" x="976" y="34" text-anchor="end">Latest week: 575</text>
</svg>
