<?xml version="1.0" encoding="UTF-8"?>
<svg xmlns="http://www.w3.org/2000/svg" viewBox="0 0 1000 360" role="img" aria-label="hordesmod/kek-ui release downloads chart">
  <defs>
    <linearGradient id="fill-weekly-slate" x1="0" y1="0" x2="0" y2="1">
      <stop offset="0%" stop-color="#60a5fa" stop-opacity="0.32"/>
      <stop offset="100%" stop-color="#60a5fa" stop-opacity="0.05"/>
    </linearGradient>
    <style>
      .bg { fill: #0f172a; }
      .title { font: 700 24px Arial, sans-serif; fill: #e2e8f0; }
      .sub { font: 400 13px Arial, sans-serif; fill: #94a3b8; }
      .grid { stroke: #1e293b; stroke-width: 1; }
      .axis { font: 400 12px Arial, sans-serif; fill: #94a3b8; }
      .line { fill: none; stroke: #60a5fa; stroke-width: 3; stroke-linecap: round; stroke-linejoin: round; }
      .dot { fill: #60a5fa; }
      .value { font: 600 11px Arial, sans-serif; fill: #cbd5e1; }
      .latest { font: 700 14px Arial, sans-serif; fill: #e2e8f0; }
    </style>
  </defs>
  <rect class="bg" x="0" y="0" width="1000" height="360" rx="16" />
  <text class="title" x="64" y="34">hordesmod/kek-ui release downloads</text>
  <text class="sub" x="64" y="352">Generated 2026-04-07</text>
  <line x1="64" y1="52.00" x2="976" y2="52.00" class="grid"/>
  <text x="56" y="56.00" text-anchor="end" class="axis">648</text>
  <line x1="64" y1="94.00" x2="976" y2="94.00" class="grid"/>
  <text x="56" y="98.00" text-anchor="end" class="axis">540</text>
  <line x1="64" y1="136.00" x2="976" y2="136.00" class="grid"/>
  <text x="56" y="140.00" text-anchor="end" class="axis">432</text>
  <line x1="64" y1="178.00" x2="976" y2="178.00" class="grid"/>
  <text x="56" y="182.00" text-anchor="end" class="axis">324</text>
  <line x1="64" y1="220.00" x2="976" y2="220.00" class="grid"/>
  <text x="56" y="224.00" text-anchor="end" class="axis">216</text>
  <line x1="64" y1="262.00" x2="976" y2="262.00" class="grid"/>
  <text x="56" y="266.00" text-anchor="end" class="axis">108</text>
  <line x1="64" y1="304.00" x2="976" y2="304.00" class="grid"/>
  <text x="56" y="308.00" text-anchor="end" class="axis">0</text>
  <path d="M 64.00 304 L 64.00 304.00 L 96.57 277.17 L 129.14 248.00 L 161.71 223.11 L 194.29 210.67 L 226.86 198.61 L 259.43 185.39 L 292.00 171.78 L 324.57 182.28 L 357.14 199.78 L 389.71 214.17 L 422.29 215.72 L 454.86 214.17 L 487.43 210.28 L 520.00 213.78 L 552.57 217.28 L 585.14 203.67 L 617.71 183.06 L 650.29 162.44 L 682.86 124.72 L 715.43 105.28 L 748.00 83.89 L 780.57 58.61 L 813.14 52.00 L 845.71 53.94 L 878.29 53.56 L 910.86 69.11 L 943.43 67.56 L 976.00 68.72 L 976.00 304 Z" fill="url(#fill-weekly-slate)"/>
  <polyline class="line" points="64.00,304.00 96.57,277.17 129.14,248.00 161.71,223.11 194.29,210.67 226.86,198.61 259.43,185.39 292.00,171.78 324.57,182.28 357.14,199.78 389.71,214.17 422.29,215.72 454.86,214.17 487.43,210.28 520.00,213.78 552.57,217.28 585.14,203.67 617.71,183.06 650.29,162.44 682.86,124.72 715.43,105.28 748.00,83.89 780.57,58.61 813.14,52.00 845.71,53.94 878.29,53.56 910.86,69.11 943.43,67.56 976.00,68.72"/>
  <circle class="dot" cx="976.00" cy="68.72" r="4.5"/>
  
  <text class="axis" x="64.00" y="336" text-anchor="start">2026-03-10</text>
  <text class="axis" x="226.86" y="336" text-anchor="middle">2026-03-15</text>
  <text class="axis" x="389.71" y="336" text-anchor="middle">2026-03-20</text>
  <text class="axis" x="552.57" y="336" text-anchor="middle">2026-03-25</text>
  <text class="axis" x="715.43" y="336" text-anchor="middle">2026-03-30</text>
  <text class="axis" x="878.29" y="336" text-anchor="middle">2026-04-04</text>
  <text class="axis" x="976.00" y="336" text-anchor="end">2026-04-07</text>
  <text class="latest" x="976" y="34" text-anchor="end">Latest week: 605</text>
</svg>
