<?xml version="1.0" encoding="UTF-8"?>
<svg xmlns="http://www.w3.org/2000/svg" viewBox="0 0 1000 360" role="img" aria-label="hordesmod/kek-ui release downloads chart">
  <defs>
    <linearGradient id="fill-weekly-black" x1="0" y1="0" x2="0" y2="1">
      <stop offset="0%" stop-color="#22d3ee" stop-opacity="0.32"/>
      <stop offset="100%" stop-color="#22d3ee" stop-opacity="0.05"/>
    </linearGradient>
    <style>
      .bg { fill: #0b0b0d; }
      .title { font: 700 24px Arial, sans-serif; fill: #f8fafc; }
      .sub { font: 400 13px Arial, sans-serif; fill: #cbd5e1; }
      .grid { stroke: #1f2937; stroke-width: 1; }
      .axis { font: 400 12px Arial, sans-serif; fill: #94a3b8; }
      .line { fill: none; stroke: #22d3ee; stroke-width: 3; stroke-linecap: round; stroke-linejoin: round; }
      .dot { fill: #22d3ee; }
      .value { font: 600 11px Arial, sans-serif; fill: #cbd5e1; }
      .latest { font: 700 14px Arial, sans-serif; fill: #f8fafc; }
    </style>
  </defs>
  <rect class="bg" x="0" y="0" width="1000" height="360" rx="16" />
  <text class="title" x="64" y="34">hordesmod/kek-ui release downloads</text>
  <text class="sub" x="64" y="352">Generated 2026-05-15</text>
  <line x1="64" y1="52.00" x2="976" y2="52.00" class="grid"/>
  <text x="56" y="56.00" text-anchor="end" class="axis">648</text>
  <line x1="64" y1="94.00" x2="976" y2="94.00" class="grid"/>
  <text x="56" y="98.00" text-anchor="end" class="axis">540</text>
  <line x1="64" y1="136.00" x2="976" y2="136.00" class="grid"/>
  <text x="56" y="140.00" text-anchor="end" class="axis">432</text>
  <line x1="64" y1="178.00" x2="976" y2="178.00" class="grid"/>
  <text x="56" y="182.00" text-anchor="end" class="axis">324</text>
  <line x1="64" y1="220.00" x2="976" y2="220.00" class="grid"/>
  <text x="56" y="224.00" text-anchor="end" class="axis">216</text>
  <line x1="64" y1="262.00" x2="976" y2="262.00" class="grid"/>
  <text x="56" y="266.00" text-anchor="end" class="axis">108</text>
  <line x1="64" y1="304.00" x2="976" y2="304.00" class="grid"/>
  <text x="56" y="308.00" text-anchor="end" class="axis">0</text>
  <path d="M 64.00 304 L 64.00 304.00 L 77.82 277.17 L 91.64 248.00 L 105.45 223.11 L 119.27 210.67 L 133.09 198.61 L 146.91 185.39 L 160.73 171.78 L 174.55 182.28 L 188.36 199.78 L 202.18 214.17 L 216.00 215.72 L 229.82 214.17 L 243.64 210.28 L 257.45 213.78 L 271.27 217.28 L 285.09 203.67 L 298.91 183.06 L 312.73 162.44 L 326.55 124.72 L 340.36 105.28 L 354.18 83.89 L 368.00 58.61 L 381.82 52.00 L 395.64 53.94 L 409.45 53.56 L 423.27 69.11 L 437.09 67.56 L 450.91 68.72 L 464.73 76.11 L 478.55 74.17 L 492.36 71.06 L 506.18 67.94 L 520.00 67.56 L 533.82 72.22 L 547.64 72.61 L 561.45 68.33 L 575.27 71.06 L 589.09 71.06 L 602.91 71.83 L 616.73 72.22 L 630.55 71.44 L 644.36 69.50 L 658.18 75.33 L 672.00 74.17 L 685.82 74.56 L 699.64 74.17 L 713.45 78.83 L 727.27 80.00 L 741.09 79.61 L 754.91 75.33 L 768.73 76.89 L 782.55 76.50 L 796.36 81.17 L 810.18 75.33 L 824.00 73.78 L 837.82 68.72 L 851.64 64.44 L 865.45 64.83 L 879.27 68.33 L 893.09 63.28 L 906.91 69.11 L 920.73 70.67 L 934.55 74.17 L 948.36 81.56 L 962.18 80.39 L 976.00 81.56 L 976.00 304 Z" fill="url(#fill-weekly-black)"/>
  <polyline class="line" points="64.00,304.00 77.82,277.17 91.64,248.00 105.45,223.11 119.27,210.67 133.09,198.61 146.91,185.39 160.73,171.78 174.55,182.28 188.36,199.78 202.18,214.17 216.00,215.72 229.82,214.17 243.64,210.28 257.45,213.78 271.27,217.28 285.09,203.67 298.91,183.06 312.73,162.44 326.55,124.72 340.36,105.28 354.18,83.89 368.00,58.61 381.82,52.00 395.64,53.94 409.45,53.56 423.27,69.11 437.09,67.56 450.91,68.72 464.73,76.11 478.55,74.17 492.36,71.06 506.18,67.94 520.00,67.56 533.82,72.22 547.64,72.61 561.45,68.33 575.27,71.06 589.09,71.06 602.91,71.83 616.73,72.22 630.55,71.44 644.36,69.50 658.18,75.33 672.00,74.17 685.82,74.56 699.64,74.17 713.45,78.83 727.27,80.00 741.09,79.61 754.91,75.33 768.73,76.89 782.55,76.50 796.36,81.17 810.18,75.33 824.00,73.78 837.82,68.72 851.64,64.44 865.45,64.83 879.27,68.33 893.09,63.28 906.91,69.11 920.73,70.67 934.55,74.17 948.36,81.56 962.18,80.39 976.00,81.56"/>
  <circle class="dot" cx="976.00" cy="81.56" r="4.5"/>
  
  <text class="axis" x="64.00" y="336" text-anchor="start">2026-03-10</text>
  <text class="axis" x="243.64" y="336" text-anchor="middle">2026-03-23</text>
  <text class="axis" x="423.27" y="336" text-anchor="middle">2026-04-05</text>
  <text class="axis" x="602.91" y="336" text-anchor="middle">2026-04-18</text>
  <text class="axis" x="782.55" y="336" text-anchor="middle">2026-05-01</text>
  <text class="axis" x="962.18" y="336" text-anchor="middle">2026-05-14</text>
  <text class="axis" x="976.00" y="336" text-anchor="end">2026-05-15</text>
  <text class="latest" x="976" y="34" text-anchor="end">Latest week: 572</text>
</svg>
