<?xml version="1.0" encoding="UTF-8"?>
<svg xmlns="http://www.w3.org/2000/svg" viewBox="0 0 1000 360" role="img" aria-label="hordesmod/kek-ui release downloads chart">
  <defs>
    <linearGradient id="fill-weekly-orange" x1="0" y1="0" x2="0" y2="1">
      <stop offset="0%" stop-color="#f97316" stop-opacity="0.32"/>
      <stop offset="100%" stop-color="#f97316" stop-opacity="0.05"/>
    </linearGradient>
    <style>
      .bg { fill: #fff7ed; }
      .title { font: 700 24px Arial, sans-serif; fill: #7c2d12; }
      .sub { font: 400 13px Arial, sans-serif; fill: #9a3412; }
      .grid { stroke: #fed7aa; stroke-width: 1; }
      .axis { font: 400 12px Arial, sans-serif; fill: #c2410c; }
      .line { fill: none; stroke: #ea580c; stroke-width: 3; stroke-linecap: round; stroke-linejoin: round; }
      .dot { fill: #ea580c; }
      .value { font: 600 11px Arial, sans-serif; fill: #9a3412; }
      .latest { font: 700 14px Arial, sans-serif; fill: #7c2d12; }
    </style>
  </defs>
  <rect class="bg" x="0" y="0" width="1000" height="360" rx="16" />
  <text class="title" x="64" y="34">hordesmod/kek-ui release downloads</text>
  <text class="sub" x="64" y="352">Generated 2026-05-13</text>
  <line x1="64" y1="52.00" x2="976" y2="52.00" class="grid"/>
  <text x="56" y="56.00" text-anchor="end" class="axis">648</text>
  <line x1="64" y1="94.00" x2="976" y2="94.00" class="grid"/>
  <text x="56" y="98.00" text-anchor="end" class="axis">540</text>
  <line x1="64" y1="136.00" x2="976" y2="136.00" class="grid"/>
  <text x="56" y="140.00" text-anchor="end" class="axis">432</text>
  <line x1="64" y1="178.00" x2="976" y2="178.00" class="grid"/>
  <text x="56" y="182.00" text-anchor="end" class="axis">324</text>
  <line x1="64" y1="220.00" x2="976" y2="220.00" class="grid"/>
  <text x="56" y="224.00" text-anchor="end" class="axis">216</text>
  <line x1="64" y1="262.00" x2="976" y2="262.00" class="grid"/>
  <text x="56" y="266.00" text-anchor="end" class="axis">108</text>
  <line x1="64" y1="304.00" x2="976" y2="304.00" class="grid"/>
  <text x="56" y="308.00" text-anchor="end" class="axis">0</text>
  <path d="M 64.00 304 L 64.00 304.00 L 78.25 277.17 L 92.50 248.00 L 106.75 223.11 L 121.00 210.67 L 135.25 198.61 L 149.50 185.39 L 163.75 171.78 L 178.00 182.28 L 192.25 199.78 L 206.50 214.17 L 220.75 215.72 L 235.00 214.17 L 249.25 210.28 L 263.50 213.78 L 277.75 217.28 L 292.00 203.67 L 306.25 183.06 L 320.50 162.44 L 334.75 124.72 L 349.00 105.28 L 363.25 83.89 L 377.50 58.61 L 391.75 52.00 L 406.00 53.94 L 420.25 53.56 L 434.50 69.11 L 448.75 67.56 L 463.00 68.72 L 477.25 76.11 L 491.50 74.17 L 505.75 71.06 L 520.00 67.94 L 534.25 67.56 L 548.50 72.22 L 562.75 72.61 L 577.00 68.33 L 591.25 71.06 L 605.50 71.06 L 619.75 71.83 L 634.00 72.22 L 648.25 71.44 L 662.50 69.50 L 676.75 75.33 L 691.00 74.17 L 705.25 74.56 L 719.50 74.17 L 733.75 78.83 L 748.00 80.00 L 762.25 79.61 L 776.50 75.33 L 790.75 76.89 L 805.00 76.50 L 819.25 81.17 L 833.50 75.33 L 847.75 73.78 L 862.00 68.72 L 876.25 64.44 L 890.50 64.83 L 904.75 68.33 L 919.00 63.28 L 933.25 69.11 L 947.50 70.67 L 961.75 74.17 L 976.00 81.56 L 976.00 304 Z" fill="url(#fill-weekly-orange)"/>
  <polyline class="line" points="64.00,304.00 78.25,277.17 92.50,248.00 106.75,223.11 121.00,210.67 135.25,198.61 149.50,185.39 163.75,171.78 178.00,182.28 192.25,199.78 206.50,214.17 220.75,215.72 235.00,214.17 249.25,210.28 263.50,213.78 277.75,217.28 292.00,203.67 306.25,183.06 320.50,162.44 334.75,124.72 349.00,105.28 363.25,83.89 377.50,58.61 391.75,52.00 406.00,53.94 420.25,53.56 434.50,69.11 448.75,67.56 463.00,68.72 477.25,76.11 491.50,74.17 505.75,71.06 520.00,67.94 534.25,67.56 548.50,72.22 562.75,72.61 577.00,68.33 591.25,71.06 605.50,71.06 619.75,71.83 634.00,72.22 648.25,71.44 662.50,69.50 676.75,75.33 691.00,74.17 705.25,74.56 719.50,74.17 733.75,78.83 748.00,80.00 762.25,79.61 776.50,75.33 790.75,76.89 805.00,76.50 819.25,81.17 833.50,75.33 847.75,73.78 862.00,68.72 876.25,64.44 890.50,64.83 904.75,68.33 919.00,63.28 933.25,69.11 947.50,70.67 961.75,74.17 976.00,81.56"/>
  <circle class="dot" cx="976.00" cy="81.56" r="4.5"/>
  
  <text class="axis" x="64.00" y="336" text-anchor="start">2026-03-10</text>
  <text class="axis" x="235.00" y="336" text-anchor="middle">2026-03-22</text>
  <text class="axis" x="406.00" y="336" text-anchor="middle">2026-04-03</text>
  <text class="axis" x="577.00" y="336" text-anchor="middle">2026-04-15</text>
  <text class="axis" x="748.00" y="336" text-anchor="middle">2026-04-27</text>
  <text class="axis" x="919.00" y="336" text-anchor="middle">2026-05-09</text>
  <text class="axis" x="976.00" y="336" text-anchor="end">2026-05-13</text>
  <text class="latest" x="976" y="34" text-anchor="end">Latest week: 572</text>
</svg>
