<?xml version="1.0" encoding="UTF-8"?>
<svg xmlns="http://www.w3.org/2000/svg" viewBox="0 0 1000 360" role="img" aria-label="hordesmod/kek-ui release downloads chart">
  <defs>
    <linearGradient id="fill-weekly-orange" x1="0" y1="0" x2="0" y2="1">
      <stop offset="0%" stop-color="#f97316" stop-opacity="0.32"/>
      <stop offset="100%" stop-color="#f97316" stop-opacity="0.05"/>
    </linearGradient>
    <style>
      .bg { fill: #fff7ed; }
      .title { font: 700 24px Arial, sans-serif; fill: #7c2d12; }
      .sub { font: 400 13px Arial, sans-serif; fill: #9a3412; }
      .grid { stroke: #fed7aa; stroke-width: 1; }
      .axis { font: 400 12px Arial, sans-serif; fill: #c2410c; }
      .line { fill: none; stroke: #ea580c; stroke-width: 3; stroke-linecap: round; stroke-linejoin: round; }
      .dot { fill: #ea580c; }
      .value { font: 600 11px Arial, sans-serif; fill: #9a3412; }
      .latest { font: 700 14px Arial, sans-serif; fill: #7c2d12; }
    </style>
  </defs>
  <rect class="bg" x="0" y="0" width="1000" height="360" rx="16" />
  <text class="title" x="64" y="34">hordesmod/kek-ui release downloads</text>
  <text class="sub" x="64" y="352">Generated 2026-04-04</text>
  <line x1="64" y1="52.00" x2="976" y2="52.00" class="grid"/>
  <text x="56" y="56.00" text-anchor="end" class="axis">648</text>
  <line x1="64" y1="94.00" x2="976" y2="94.00" class="grid"/>
  <text x="56" y="98.00" text-anchor="end" class="axis">540</text>
  <line x1="64" y1="136.00" x2="976" y2="136.00" class="grid"/>
  <text x="56" y="140.00" text-anchor="end" class="axis">432</text>
  <line x1="64" y1="178.00" x2="976" y2="178.00" class="grid"/>
  <text x="56" y="182.00" text-anchor="end" class="axis">324</text>
  <line x1="64" y1="220.00" x2="976" y2="220.00" class="grid"/>
  <text x="56" y="224.00" text-anchor="end" class="axis">216</text>
  <line x1="64" y1="262.00" x2="976" y2="262.00" class="grid"/>
  <text x="56" y="266.00" text-anchor="end" class="axis">108</text>
  <line x1="64" y1="304.00" x2="976" y2="304.00" class="grid"/>
  <text x="56" y="308.00" text-anchor="end" class="axis">0</text>
  <path d="M 64.00 304 L 64.00 304.00 L 100.48 277.17 L 136.96 248.00 L 173.44 223.11 L 209.92 210.67 L 246.40 198.61 L 282.88 185.39 L 319.36 171.78 L 355.84 182.28 L 392.32 199.78 L 428.80 214.17 L 465.28 215.72 L 501.76 214.17 L 538.24 210.28 L 574.72 213.78 L 611.20 217.28 L 647.68 203.67 L 684.16 183.06 L 720.64 162.44 L 757.12 124.72 L 793.60 105.28 L 830.08 83.89 L 866.56 58.61 L 903.04 52.00 L 939.52 53.94 L 976.00 53.56 L 976.00 304 Z" fill="url(#fill-weekly-orange)"/>
  <polyline class="line" points="64.00,304.00 100.48,277.17 136.96,248.00 173.44,223.11 209.92,210.67 246.40,198.61 282.88,185.39 319.36,171.78 355.84,182.28 392.32,199.78 428.80,214.17 465.28,215.72 501.76,214.17 538.24,210.28 574.72,213.78 611.20,217.28 647.68,203.67 684.16,183.06 720.64,162.44 757.12,124.72 793.60,105.28 830.08,83.89 866.56,58.61 903.04,52.00 939.52,53.94 976.00,53.56"/>
  <circle class="dot" cx="976.00" cy="53.56" r="4.5"/>
  
  <text class="axis" x="64.00" y="336" text-anchor="start">2026-03-10</text>
  <text class="axis" x="246.40" y="336" text-anchor="middle">2026-03-15</text>
  <text class="axis" x="428.80" y="336" text-anchor="middle">2026-03-20</text>
  <text class="axis" x="611.20" y="336" text-anchor="middle">2026-03-25</text>
  <text class="axis" x="793.60" y="336" text-anchor="middle">2026-03-30</text>
  <text class="axis" x="976.00" y="336" text-anchor="end">2026-04-04</text>
  <text class="latest" x="976" y="34" text-anchor="end">Latest week: 644</text>
</svg>
