<?xml version="1.0" encoding="UTF-8"?>
<svg xmlns="http://www.w3.org/2000/svg" viewBox="0 0 1000 360" role="img" aria-label="hordesmod/kek-ui release downloads chart">
  <defs>
    <linearGradient id="fill-weekly-black" x1="0" y1="0" x2="0" y2="1">
      <stop offset="0%" stop-color="#22d3ee" stop-opacity="0.32"/>
      <stop offset="100%" stop-color="#22d3ee" stop-opacity="0.05"/>
    </linearGradient>
    <style>
      .bg { fill: #0b0b0d; }
      .title { font: 700 24px Arial, sans-serif; fill: #f8fafc; }
      .sub { font: 400 13px Arial, sans-serif; fill: #cbd5e1; }
      .grid { stroke: #1f2937; stroke-width: 1; }
      .axis { font: 400 12px Arial, sans-serif; fill: #94a3b8; }
      .line { fill: none; stroke: #22d3ee; stroke-width: 3; stroke-linecap: round; stroke-linejoin: round; }
      .dot { fill: #22d3ee; }
      .value { font: 600 11px Arial, sans-serif; fill: #cbd5e1; }
      .latest { font: 700 14px Arial, sans-serif; fill: #f8fafc; }
    </style>
  </defs>
  <rect class="bg" x="0" y="0" width="1000" height="360" rx="16" />
  <text class="title" x="64" y="34">hordesmod/kek-ui release downloads</text>
  <text class="sub" x="64" y="352">Generated 2026-05-04</text>
  <line x1="64" y1="52.00" x2="976" y2="52.00" class="grid"/>
  <text x="56" y="56.00" text-anchor="end" class="axis">648</text>
  <line x1="64" y1="94.00" x2="976" y2="94.00" class="grid"/>
  <text x="56" y="98.00" text-anchor="end" class="axis">540</text>
  <line x1="64" y1="136.00" x2="976" y2="136.00" class="grid"/>
  <text x="56" y="140.00" text-anchor="end" class="axis">432</text>
  <line x1="64" y1="178.00" x2="976" y2="178.00" class="grid"/>
  <text x="56" y="182.00" text-anchor="end" class="axis">324</text>
  <line x1="64" y1="220.00" x2="976" y2="220.00" class="grid"/>
  <text x="56" y="224.00" text-anchor="end" class="axis">216</text>
  <line x1="64" y1="262.00" x2="976" y2="262.00" class="grid"/>
  <text x="56" y="266.00" text-anchor="end" class="axis">108</text>
  <line x1="64" y1="304.00" x2="976" y2="304.00" class="grid"/>
  <text x="56" y="308.00" text-anchor="end" class="axis">0</text>
  <path d="M 64.00 304 L 64.00 304.00 L 80.58 277.17 L 97.16 248.00 L 113.75 223.11 L 130.33 210.67 L 146.91 198.61 L 163.49 185.39 L 180.07 171.78 L 196.65 182.28 L 213.24 199.78 L 229.82 214.17 L 246.40 215.72 L 262.98 214.17 L 279.56 210.28 L 296.15 213.78 L 312.73 217.28 L 329.31 203.67 L 345.89 183.06 L 362.47 162.44 L 379.05 124.72 L 395.64 105.28 L 412.22 83.89 L 428.80 58.61 L 445.38 52.00 L 461.96 53.94 L 478.55 53.56 L 495.13 69.11 L 511.71 67.56 L 528.29 68.72 L 544.87 76.11 L 561.45 74.17 L 578.04 71.06 L 594.62 67.94 L 611.20 67.56 L 627.78 72.22 L 644.36 72.61 L 660.95 68.33 L 677.53 71.06 L 694.11 71.06 L 710.69 71.83 L 727.27 72.22 L 743.85 71.44 L 760.44 69.50 L 777.02 75.33 L 793.60 74.17 L 810.18 74.56 L 826.76 74.17 L 843.35 78.83 L 859.93 80.00 L 876.51 79.61 L 893.09 75.33 L 909.67 76.89 L 926.25 76.50 L 942.84 81.17 L 959.42 75.33 L 976.00 73.78 L 976.00 304 Z" fill="url(#fill-weekly-black)"/>
  <polyline class="line" points="64.00,304.00 80.58,277.17 97.16,248.00 113.75,223.11 130.33,210.67 146.91,198.61 163.49,185.39 180.07,171.78 196.65,182.28 213.24,199.78 229.82,214.17 246.40,215.72 262.98,214.17 279.56,210.28 296.15,213.78 312.73,217.28 329.31,203.67 345.89,183.06 362.47,162.44 379.05,124.72 395.64,105.28 412.22,83.89 428.80,58.61 445.38,52.00 461.96,53.94 478.55,53.56 495.13,69.11 511.71,67.56 528.29,68.72 544.87,76.11 561.45,74.17 578.04,71.06 594.62,67.94 611.20,67.56 627.78,72.22 644.36,72.61 660.95,68.33 677.53,71.06 694.11,71.06 710.69,71.83 727.27,72.22 743.85,71.44 760.44,69.50 777.02,75.33 793.60,74.17 810.18,74.56 826.76,74.17 843.35,78.83 859.93,80.00 876.51,79.61 893.09,75.33 909.67,76.89 926.25,76.50 942.84,81.17 959.42,75.33 976.00,73.78"/>
  <circle class="dot" cx="976.00" cy="73.78" r="4.5"/>
  
  <text class="axis" x="64.00" y="336" text-anchor="start">2026-03-10</text>
  <text class="axis" x="246.40" y="336" text-anchor="middle">2026-03-21</text>
  <text class="axis" x="428.80" y="336" text-anchor="middle">2026-04-01</text>
  <text class="axis" x="611.20" y="336" text-anchor="middle">2026-04-12</text>
  <text class="axis" x="793.60" y="336" text-anchor="middle">2026-04-23</text>
  <text class="axis" x="976.00" y="336" text-anchor="end">2026-05-04</text>
  <text class="latest" x="976" y="34" text-anchor="end">Latest week: 592</text>
</svg>
