<?xml version="1.0" encoding="UTF-8"?>
<svg xmlns="http://www.w3.org/2000/svg" viewBox="0 0 1000 360" role="img" aria-label="hordesmod/kek-ui release downloads chart">
  <defs>
    <linearGradient id="fill-weekly-black" x1="0" y1="0" x2="0" y2="1">
      <stop offset="0%" stop-color="#22d3ee" stop-opacity="0.32"/>
      <stop offset="100%" stop-color="#22d3ee" stop-opacity="0.05"/>
    </linearGradient>
    <style>
      .bg { fill: #0b0b0d; }
      .title { font: 700 24px Arial, sans-serif; fill: #f8fafc; }
      .sub { font: 400 13px Arial, sans-serif; fill: #cbd5e1; }
      .grid { stroke: #1f2937; stroke-width: 1; }
      .axis { font: 400 12px Arial, sans-serif; fill: #94a3b8; }
      .line { fill: none; stroke: #22d3ee; stroke-width: 3; stroke-linecap: round; stroke-linejoin: round; }
      .dot { fill: #22d3ee; }
      .value { font: 600 11px Arial, sans-serif; fill: #cbd5e1; }
      .latest { font: 700 14px Arial, sans-serif; fill: #f8fafc; }
    </style>
  </defs>
  <rect class="bg" x="0" y="0" width="1000" height="360" rx="16" />
  <text class="title" x="64" y="34">hordesmod/kek-ui release downloads</text>
  <text class="sub" x="64" y="352">Generated 2026-04-17</text>
  <line x1="64" y1="52.00" x2="976" y2="52.00" class="grid"/>
  <text x="56" y="56.00" text-anchor="end" class="axis">648</text>
  <line x1="64" y1="94.00" x2="976" y2="94.00" class="grid"/>
  <text x="56" y="98.00" text-anchor="end" class="axis">540</text>
  <line x1="64" y1="136.00" x2="976" y2="136.00" class="grid"/>
  <text x="56" y="140.00" text-anchor="end" class="axis">432</text>
  <line x1="64" y1="178.00" x2="976" y2="178.00" class="grid"/>
  <text x="56" y="182.00" text-anchor="end" class="axis">324</text>
  <line x1="64" y1="220.00" x2="976" y2="220.00" class="grid"/>
  <text x="56" y="224.00" text-anchor="end" class="axis">216</text>
  <line x1="64" y1="262.00" x2="976" y2="262.00" class="grid"/>
  <text x="56" y="266.00" text-anchor="end" class="axis">108</text>
  <line x1="64" y1="304.00" x2="976" y2="304.00" class="grid"/>
  <text x="56" y="308.00" text-anchor="end" class="axis">0</text>
  <path d="M 64.00 304 L 64.00 304.00 L 88.00 277.17 L 112.00 248.00 L 136.00 223.11 L 160.00 210.67 L 184.00 198.61 L 208.00 185.39 L 232.00 171.78 L 256.00 182.28 L 280.00 199.78 L 304.00 214.17 L 328.00 215.72 L 352.00 214.17 L 376.00 210.28 L 400.00 213.78 L 424.00 217.28 L 448.00 203.67 L 472.00 183.06 L 496.00 162.44 L 520.00 124.72 L 544.00 105.28 L 568.00 83.89 L 592.00 58.61 L 616.00 52.00 L 640.00 53.94 L 664.00 53.56 L 688.00 69.11 L 712.00 67.56 L 736.00 68.72 L 760.00 76.11 L 784.00 74.17 L 808.00 71.06 L 832.00 67.94 L 856.00 67.56 L 880.00 72.22 L 904.00 72.61 L 928.00 68.33 L 952.00 71.06 L 976.00 71.06 L 976.00 304 Z" fill="url(#fill-weekly-black)"/>
  <polyline class="line" points="64.00,304.00 88.00,277.17 112.00,248.00 136.00,223.11 160.00,210.67 184.00,198.61 208.00,185.39 232.00,171.78 256.00,182.28 280.00,199.78 304.00,214.17 328.00,215.72 352.00,214.17 376.00,210.28 400.00,213.78 424.00,217.28 448.00,203.67 472.00,183.06 496.00,162.44 520.00,124.72 544.00,105.28 568.00,83.89 592.00,58.61 616.00,52.00 640.00,53.94 664.00,53.56 688.00,69.11 712.00,67.56 736.00,68.72 760.00,76.11 784.00,74.17 808.00,71.06 832.00,67.94 856.00,67.56 880.00,72.22 904.00,72.61 928.00,68.33 952.00,71.06 976.00,71.06"/>
  <circle class="dot" cx="976.00" cy="71.06" r="4.5"/>
  
  <text class="axis" x="64.00" y="336" text-anchor="start">2026-03-10</text>
  <text class="axis" x="232.00" y="336" text-anchor="middle">2026-03-17</text>
  <text class="axis" x="400.00" y="336" text-anchor="middle">2026-03-24</text>
  <text class="axis" x="568.00" y="336" text-anchor="middle">2026-03-31</text>
  <text class="axis" x="736.00" y="336" text-anchor="middle">2026-04-07</text>
  <text class="axis" x="904.00" y="336" text-anchor="middle">2026-04-14</text>
  <text class="axis" x="976.00" y="336" text-anchor="end">2026-04-17</text>
  <text class="latest" x="976" y="34" text-anchor="end">Latest week: 599</text>
</svg>
