<?xml version="1.0" encoding="UTF-8"?>
<svg xmlns="http://www.w3.org/2000/svg" viewBox="0 0 1000 360" role="img" aria-label="hordesmod/kek-ui release downloads chart">
  <defs>
    <linearGradient id="fill-weekly-slate" x1="0" y1="0" x2="0" y2="1">
      <stop offset="0%" stop-color="#60a5fa" stop-opacity="0.32"/>
      <stop offset="100%" stop-color="#60a5fa" stop-opacity="0.05"/>
    </linearGradient>
    <style>
      .bg { fill: #0f172a; }
      .title { font: 700 24px Arial, sans-serif; fill: #e2e8f0; }
      .sub { font: 400 13px Arial, sans-serif; fill: #94a3b8; }
      .grid { stroke: #1e293b; stroke-width: 1; }
      .axis { font: 400 12px Arial, sans-serif; fill: #94a3b8; }
      .line { fill: none; stroke: #60a5fa; stroke-width: 3; stroke-linecap: round; stroke-linejoin: round; }
      .dot { fill: #60a5fa; }
      .value { font: 600 11px Arial, sans-serif; fill: #cbd5e1; }
      .latest { font: 700 14px Arial, sans-serif; fill: #e2e8f0; }
    </style>
  </defs>
  <rect class="bg" x="0" y="0" width="1000" height="360" rx="16" />
  <text class="title" x="64" y="34">hordesmod/kek-ui release downloads</text>
  <text class="sub" x="64" y="352">Generated 2026-05-01</text>
  <line x1="64" y1="52.00" x2="976" y2="52.00" class="grid"/>
  <text x="56" y="56.00" text-anchor="end" class="axis">648</text>
  <line x1="64" y1="94.00" x2="976" y2="94.00" class="grid"/>
  <text x="56" y="98.00" text-anchor="end" class="axis">540</text>
  <line x1="64" y1="136.00" x2="976" y2="136.00" class="grid"/>
  <text x="56" y="140.00" text-anchor="end" class="axis">432</text>
  <line x1="64" y1="178.00" x2="976" y2="178.00" class="grid"/>
  <text x="56" y="182.00" text-anchor="end" class="axis">324</text>
  <line x1="64" y1="220.00" x2="976" y2="220.00" class="grid"/>
  <text x="56" y="224.00" text-anchor="end" class="axis">216</text>
  <line x1="64" y1="262.00" x2="976" y2="262.00" class="grid"/>
  <text x="56" y="266.00" text-anchor="end" class="axis">108</text>
  <line x1="64" y1="304.00" x2="976" y2="304.00" class="grid"/>
  <text x="56" y="308.00" text-anchor="end" class="axis">0</text>
  <path d="M 64.00 304 L 64.00 304.00 L 81.54 277.17 L 99.08 248.00 L 116.62 223.11 L 134.15 210.67 L 151.69 198.61 L 169.23 185.39 L 186.77 171.78 L 204.31 182.28 L 221.85 199.78 L 239.38 214.17 L 256.92 215.72 L 274.46 214.17 L 292.00 210.28 L 309.54 213.78 L 327.08 217.28 L 344.62 203.67 L 362.15 183.06 L 379.69 162.44 L 397.23 124.72 L 414.77 105.28 L 432.31 83.89 L 449.85 58.61 L 467.38 52.00 L 484.92 53.94 L 502.46 53.56 L 520.00 69.11 L 537.54 67.56 L 555.08 68.72 L 572.62 76.11 L 590.15 74.17 L 607.69 71.06 L 625.23 67.94 L 642.77 67.56 L 660.31 72.22 L 677.85 72.61 L 695.38 68.33 L 712.92 71.06 L 730.46 71.06 L 748.00 71.83 L 765.54 72.22 L 783.08 71.44 L 800.62 69.50 L 818.15 75.33 L 835.69 74.17 L 853.23 74.56 L 870.77 74.17 L 888.31 78.83 L 905.85 80.00 L 923.38 79.61 L 940.92 75.33 L 958.46 76.89 L 976.00 76.50 L 976.00 304 Z" fill="url(#fill-weekly-slate)"/>
  <polyline class="line" points="64.00,304.00 81.54,277.17 99.08,248.00 116.62,223.11 134.15,210.67 151.69,198.61 169.23,185.39 186.77,171.78 204.31,182.28 221.85,199.78 239.38,214.17 256.92,215.72 274.46,214.17 292.00,210.28 309.54,213.78 327.08,217.28 344.62,203.67 362.15,183.06 379.69,162.44 397.23,124.72 414.77,105.28 432.31,83.89 449.85,58.61 467.38,52.00 484.92,53.94 502.46,53.56 520.00,69.11 537.54,67.56 555.08,68.72 572.62,76.11 590.15,74.17 607.69,71.06 625.23,67.94 642.77,67.56 660.31,72.22 677.85,72.61 695.38,68.33 712.92,71.06 730.46,71.06 748.00,71.83 765.54,72.22 783.08,71.44 800.62,69.50 818.15,75.33 835.69,74.17 853.23,74.56 870.77,74.17 888.31,78.83 905.85,80.00 923.38,79.61 940.92,75.33 958.46,76.89 976.00,76.50"/>
  <circle class="dot" cx="976.00" cy="76.50" r="4.5"/>
  
  <text class="axis" x="64.00" y="336" text-anchor="start">2026-03-10</text>
  <text class="axis" x="239.38" y="336" text-anchor="middle">2026-03-20</text>
  <text class="axis" x="414.77" y="336" text-anchor="middle">2026-03-30</text>
  <text class="axis" x="590.15" y="336" text-anchor="middle">2026-04-09</text>
  <text class="axis" x="765.54" y="336" text-anchor="middle">2026-04-19</text>
  <text class="axis" x="940.92" y="336" text-anchor="middle">2026-04-29</text>
  <text class="axis" x="976.00" y="336" text-anchor="end">2026-05-01</text>
  <text class="latest" x="976" y="34" text-anchor="end">Latest week: 585</text>
</svg>
