<?xml version="1.0" encoding="UTF-8"?>
<svg xmlns="http://www.w3.org/2000/svg" viewBox="0 0 1000 360" role="img" aria-label="hordesmod/kek-ui release downloads chart">
  <defs>
    <linearGradient id="fill-weekly-black" x1="0" y1="0" x2="0" y2="1">
      <stop offset="0%" stop-color="#22d3ee" stop-opacity="0.32"/>
      <stop offset="100%" stop-color="#22d3ee" stop-opacity="0.05"/>
    </linearGradient>
    <style>
      .bg { fill: #0b0b0d; }
      .title { font: 700 24px Arial, sans-serif; fill: #f8fafc; }
      .sub { font: 400 13px Arial, sans-serif; fill: #cbd5e1; }
      .grid { stroke: #1f2937; stroke-width: 1; }
      .axis { font: 400 12px Arial, sans-serif; fill: #94a3b8; }
      .line { fill: none; stroke: #22d3ee; stroke-width: 3; stroke-linecap: round; stroke-linejoin: round; }
      .dot { fill: #22d3ee; }
      .value { font: 600 11px Arial, sans-serif; fill: #cbd5e1; }
      .latest { font: 700 14px Arial, sans-serif; fill: #f8fafc; }
    </style>
  </defs>
  <rect class="bg" x="0" y="0" width="1000" height="360" rx="16" />
  <text class="title" x="64" y="34">hordesmod/kek-ui release downloads</text>
  <text class="sub" x="64" y="352">Generated 2026-04-28</text>
  <line x1="64" y1="52.00" x2="976" y2="52.00" class="grid"/>
  <text x="56" y="56.00" text-anchor="end" class="axis">648</text>
  <line x1="64" y1="94.00" x2="976" y2="94.00" class="grid"/>
  <text x="56" y="98.00" text-anchor="end" class="axis">540</text>
  <line x1="64" y1="136.00" x2="976" y2="136.00" class="grid"/>
  <text x="56" y="140.00" text-anchor="end" class="axis">432</text>
  <line x1="64" y1="178.00" x2="976" y2="178.00" class="grid"/>
  <text x="56" y="182.00" text-anchor="end" class="axis">324</text>
  <line x1="64" y1="220.00" x2="976" y2="220.00" class="grid"/>
  <text x="56" y="224.00" text-anchor="end" class="axis">216</text>
  <line x1="64" y1="262.00" x2="976" y2="262.00" class="grid"/>
  <text x="56" y="266.00" text-anchor="end" class="axis">108</text>
  <line x1="64" y1="304.00" x2="976" y2="304.00" class="grid"/>
  <text x="56" y="308.00" text-anchor="end" class="axis">0</text>
  <path d="M 64.00 304 L 64.00 304.00 L 82.61 277.17 L 101.22 248.00 L 119.84 223.11 L 138.45 210.67 L 157.06 198.61 L 175.67 185.39 L 194.29 171.78 L 212.90 182.28 L 231.51 199.78 L 250.12 214.17 L 268.73 215.72 L 287.35 214.17 L 305.96 210.28 L 324.57 213.78 L 343.18 217.28 L 361.80 203.67 L 380.41 183.06 L 399.02 162.44 L 417.63 124.72 L 436.24 105.28 L 454.86 83.89 L 473.47 58.61 L 492.08 52.00 L 510.69 53.94 L 529.31 53.56 L 547.92 69.11 L 566.53 67.56 L 585.14 68.72 L 603.76 76.11 L 622.37 74.17 L 640.98 71.06 L 659.59 67.94 L 678.20 67.56 L 696.82 72.22 L 715.43 72.61 L 734.04 68.33 L 752.65 71.06 L 771.27 71.06 L 789.88 71.83 L 808.49 72.22 L 827.10 71.44 L 845.71 69.50 L 864.33 75.33 L 882.94 74.17 L 901.55 74.56 L 920.16 74.17 L 938.78 78.83 L 957.39 80.00 L 976.00 79.61 L 976.00 304 Z" fill="url(#fill-weekly-black)"/>
  <polyline class="line" points="64.00,304.00 82.61,277.17 101.22,248.00 119.84,223.11 138.45,210.67 157.06,198.61 175.67,185.39 194.29,171.78 212.90,182.28 231.51,199.78 250.12,214.17 268.73,215.72 287.35,214.17 305.96,210.28 324.57,213.78 343.18,217.28 361.80,203.67 380.41,183.06 399.02,162.44 417.63,124.72 436.24,105.28 454.86,83.89 473.47,58.61 492.08,52.00 510.69,53.94 529.31,53.56 547.92,69.11 566.53,67.56 585.14,68.72 603.76,76.11 622.37,74.17 640.98,71.06 659.59,67.94 678.20,67.56 696.82,72.22 715.43,72.61 734.04,68.33 752.65,71.06 771.27,71.06 789.88,71.83 808.49,72.22 827.10,71.44 845.71,69.50 864.33,75.33 882.94,74.17 901.55,74.56 920.16,74.17 938.78,78.83 957.39,80.00 976.00,79.61"/>
  <circle class="dot" cx="976.00" cy="79.61" r="4.5"/>
  
  <text class="axis" x="64.00" y="336" text-anchor="start">2026-03-10</text>
  <text class="axis" x="231.51" y="336" text-anchor="middle">2026-03-19</text>
  <text class="axis" x="399.02" y="336" text-anchor="middle">2026-03-28</text>
  <text class="axis" x="566.53" y="336" text-anchor="middle">2026-04-06</text>
  <text class="axis" x="734.04" y="336" text-anchor="middle">2026-04-15</text>
  <text class="axis" x="901.55" y="336" text-anchor="middle">2026-04-24</text>
  <text class="axis" x="976.00" y="336" text-anchor="end">2026-04-28</text>
  <text class="latest" x="976" y="34" text-anchor="end">Latest week: 577</text>
</svg>
