<?xml version="1.0" encoding="UTF-8"?>
<svg xmlns="http://www.w3.org/2000/svg" viewBox="0 0 1000 360" role="img" aria-label="hordesmod/kek-ui release downloads chart">
  <defs>
    <linearGradient id="fill-weekly-black" x1="0" y1="0" x2="0" y2="1">
      <stop offset="0%" stop-color="#22d3ee" stop-opacity="0.32"/>
      <stop offset="100%" stop-color="#22d3ee" stop-opacity="0.05"/>
    </linearGradient>
    <style>
      .bg { fill: #0b0b0d; }
      .title { font: 700 24px Arial, sans-serif; fill: #f8fafc; }
      .sub { font: 400 13px Arial, sans-serif; fill: #cbd5e1; }
      .grid { stroke: #1f2937; stroke-width: 1; }
      .axis { font: 400 12px Arial, sans-serif; fill: #94a3b8; }
      .line { fill: none; stroke: #22d3ee; stroke-width: 3; stroke-linecap: round; stroke-linejoin: round; }
      .dot { fill: #22d3ee; }
      .value { font: 600 11px Arial, sans-serif; fill: #cbd5e1; }
      .latest { font: 700 14px Arial, sans-serif; fill: #f8fafc; }
    </style>
  </defs>
  <rect class="bg" x="0" y="0" width="1000" height="360" rx="16" />
  <text class="title" x="64" y="34">hordesmod/kek-ui release downloads</text>
  <text class="sub" x="64" y="352">Generated 2026-04-06</text>
  <line x1="64" y1="52.00" x2="976" y2="52.00" class="grid"/>
  <text x="56" y="56.00" text-anchor="end" class="axis">648</text>
  <line x1="64" y1="94.00" x2="976" y2="94.00" class="grid"/>
  <text x="56" y="98.00" text-anchor="end" class="axis">540</text>
  <line x1="64" y1="136.00" x2="976" y2="136.00" class="grid"/>
  <text x="56" y="140.00" text-anchor="end" class="axis">432</text>
  <line x1="64" y1="178.00" x2="976" y2="178.00" class="grid"/>
  <text x="56" y="182.00" text-anchor="end" class="axis">324</text>
  <line x1="64" y1="220.00" x2="976" y2="220.00" class="grid"/>
  <text x="56" y="224.00" text-anchor="end" class="axis">216</text>
  <line x1="64" y1="262.00" x2="976" y2="262.00" class="grid"/>
  <text x="56" y="266.00" text-anchor="end" class="axis">108</text>
  <line x1="64" y1="304.00" x2="976" y2="304.00" class="grid"/>
  <text x="56" y="308.00" text-anchor="end" class="axis">0</text>
  <path d="M 64.00 304 L 64.00 304.00 L 97.78 277.17 L 131.56 248.00 L 165.33 223.11 L 199.11 210.67 L 232.89 198.61 L 266.67 185.39 L 300.44 171.78 L 334.22 182.28 L 368.00 199.78 L 401.78 214.17 L 435.56 215.72 L 469.33 214.17 L 503.11 210.28 L 536.89 213.78 L 570.67 217.28 L 604.44 203.67 L 638.22 183.06 L 672.00 162.44 L 705.78 124.72 L 739.56 105.28 L 773.33 83.89 L 807.11 58.61 L 840.89 52.00 L 874.67 53.94 L 908.44 53.56 L 942.22 69.11 L 976.00 67.56 L 976.00 304 Z" fill="url(#fill-weekly-black)"/>
  <polyline class="line" points="64.00,304.00 97.78,277.17 131.56,248.00 165.33,223.11 199.11,210.67 232.89,198.61 266.67,185.39 300.44,171.78 334.22,182.28 368.00,199.78 401.78,214.17 435.56,215.72 469.33,214.17 503.11,210.28 536.89,213.78 570.67,217.28 604.44,203.67 638.22,183.06 672.00,162.44 705.78,124.72 739.56,105.28 773.33,83.89 807.11,58.61 840.89,52.00 874.67,53.94 908.44,53.56 942.22,69.11 976.00,67.56"/>
  <circle class="dot" cx="976.00" cy="67.56" r="4.5"/>
  
  <text class="axis" x="64.00" y="336" text-anchor="start">2026-03-10</text>
  <text class="axis" x="232.89" y="336" text-anchor="middle">2026-03-15</text>
  <text class="axis" x="401.78" y="336" text-anchor="middle">2026-03-20</text>
  <text class="axis" x="570.67" y="336" text-anchor="middle">2026-03-25</text>
  <text class="axis" x="739.56" y="336" text-anchor="middle">2026-03-30</text>
  <text class="axis" x="908.44" y="336" text-anchor="middle">2026-04-04</text>
  <text class="axis" x="976.00" y="336" text-anchor="end">2026-04-06</text>
  <text class="latest" x="976" y="34" text-anchor="end">Latest week: 608</text>
</svg>
