<?xml version="1.0" encoding="UTF-8"?>
<svg xmlns="http://www.w3.org/2000/svg" viewBox="0 0 1000 360" role="img" aria-label="hordesmod/kek-ui release downloads chart">
  <defs>
    <linearGradient id="fill-weekly-black" x1="0" y1="0" x2="0" y2="1">
      <stop offset="0%" stop-color="#22d3ee" stop-opacity="0.32"/>
      <stop offset="100%" stop-color="#22d3ee" stop-opacity="0.05"/>
    </linearGradient>
    <style>
      .bg { fill: #0b0b0d; }
      .title { font: 700 24px Arial, sans-serif; fill: #f8fafc; }
      .sub { font: 400 13px Arial, sans-serif; fill: #cbd5e1; }
      .grid { stroke: #1f2937; stroke-width: 1; }
      .axis { font: 400 12px Arial, sans-serif; fill: #94a3b8; }
      .line { fill: none; stroke: #22d3ee; stroke-width: 3; stroke-linecap: round; stroke-linejoin: round; }
      .dot { fill: #22d3ee; }
      .value { font: 600 11px Arial, sans-serif; fill: #cbd5e1; }
      .latest { font: 700 14px Arial, sans-serif; fill: #f8fafc; }
    </style>
  </defs>
  <rect class="bg" x="0" y="0" width="1000" height="360" rx="16" />
  <text class="title" x="64" y="34">hordesmod/kek-ui release downloads</text>
  <text class="sub" x="64" y="352">Generated 2026-05-14</text>
  <line x1="64" y1="52.00" x2="976" y2="52.00" class="grid"/>
  <text x="56" y="56.00" text-anchor="end" class="axis">648</text>
  <line x1="64" y1="94.00" x2="976" y2="94.00" class="grid"/>
  <text x="56" y="98.00" text-anchor="end" class="axis">540</text>
  <line x1="64" y1="136.00" x2="976" y2="136.00" class="grid"/>
  <text x="56" y="140.00" text-anchor="end" class="axis">432</text>
  <line x1="64" y1="178.00" x2="976" y2="178.00" class="grid"/>
  <text x="56" y="182.00" text-anchor="end" class="axis">324</text>
  <line x1="64" y1="220.00" x2="976" y2="220.00" class="grid"/>
  <text x="56" y="224.00" text-anchor="end" class="axis">216</text>
  <line x1="64" y1="262.00" x2="976" y2="262.00" class="grid"/>
  <text x="56" y="266.00" text-anchor="end" class="axis">108</text>
  <line x1="64" y1="304.00" x2="976" y2="304.00" class="grid"/>
  <text x="56" y="308.00" text-anchor="end" class="axis">0</text>
  <path d="M 64.00 304 L 64.00 304.00 L 78.03 277.17 L 92.06 248.00 L 106.09 223.11 L 120.12 210.67 L 134.15 198.61 L 148.18 185.39 L 162.22 171.78 L 176.25 182.28 L 190.28 199.78 L 204.31 214.17 L 218.34 215.72 L 232.37 214.17 L 246.40 210.28 L 260.43 213.78 L 274.46 217.28 L 288.49 203.67 L 302.52 183.06 L 316.55 162.44 L 330.58 124.72 L 344.62 105.28 L 358.65 83.89 L 372.68 58.61 L 386.71 52.00 L 400.74 53.94 L 414.77 53.56 L 428.80 69.11 L 442.83 67.56 L 456.86 68.72 L 470.89 76.11 L 484.92 74.17 L 498.95 71.06 L 512.98 67.94 L 527.02 67.56 L 541.05 72.22 L 555.08 72.61 L 569.11 68.33 L 583.14 71.06 L 597.17 71.06 L 611.20 71.83 L 625.23 72.22 L 639.26 71.44 L 653.29 69.50 L 667.32 75.33 L 681.35 74.17 L 695.38 74.56 L 709.42 74.17 L 723.45 78.83 L 737.48 80.00 L 751.51 79.61 L 765.54 75.33 L 779.57 76.89 L 793.60 76.50 L 807.63 81.17 L 821.66 75.33 L 835.69 73.78 L 849.72 68.72 L 863.75 64.44 L 877.78 64.83 L 891.82 68.33 L 905.85 63.28 L 919.88 69.11 L 933.91 70.67 L 947.94 74.17 L 961.97 81.56 L 976.00 80.39 L 976.00 304 Z" fill="url(#fill-weekly-black)"/>
  <polyline class="line" points="64.00,304.00 78.03,277.17 92.06,248.00 106.09,223.11 120.12,210.67 134.15,198.61 148.18,185.39 162.22,171.78 176.25,182.28 190.28,199.78 204.31,214.17 218.34,215.72 232.37,214.17 246.40,210.28 260.43,213.78 274.46,217.28 288.49,203.67 302.52,183.06 316.55,162.44 330.58,124.72 344.62,105.28 358.65,83.89 372.68,58.61 386.71,52.00 400.74,53.94 414.77,53.56 428.80,69.11 442.83,67.56 456.86,68.72 470.89,76.11 484.92,74.17 498.95,71.06 512.98,67.94 527.02,67.56 541.05,72.22 555.08,72.61 569.11,68.33 583.14,71.06 597.17,71.06 611.20,71.83 625.23,72.22 639.26,71.44 653.29,69.50 667.32,75.33 681.35,74.17 695.38,74.56 709.42,74.17 723.45,78.83 737.48,80.00 751.51,79.61 765.54,75.33 779.57,76.89 793.60,76.50 807.63,81.17 821.66,75.33 835.69,73.78 849.72,68.72 863.75,64.44 877.78,64.83 891.82,68.33 905.85,63.28 919.88,69.11 933.91,70.67 947.94,74.17 961.97,81.56 976.00,80.39"/>
  <circle class="dot" cx="976.00" cy="80.39" r="4.5"/>
  
  <text class="axis" x="64.00" y="336" text-anchor="start">2026-03-10</text>
  <text class="axis" x="246.40" y="336" text-anchor="middle">2026-03-23</text>
  <text class="axis" x="428.80" y="336" text-anchor="middle">2026-04-05</text>
  <text class="axis" x="611.20" y="336" text-anchor="middle">2026-04-18</text>
  <text class="axis" x="793.60" y="336" text-anchor="middle">2026-05-01</text>
  <text class="axis" x="976.00" y="336" text-anchor="end">2026-05-14</text>
  <text class="latest" x="976" y="34" text-anchor="end">Latest week: 575</text>
</svg>
