<?xml version="1.0" encoding="UTF-8"?>
<svg xmlns="http://www.w3.org/2000/svg" viewBox="0 0 1000 360" role="img" aria-label="hordesmod/kek-ui release downloads chart">
  <defs>
    <linearGradient id="fill-weekly-orange" x1="0" y1="0" x2="0" y2="1">
      <stop offset="0%" stop-color="#f97316" stop-opacity="0.32"/>
      <stop offset="100%" stop-color="#f97316" stop-opacity="0.05"/>
    </linearGradient>
    <style>
      .bg { fill: #fff7ed; }
      .title { font: 700 24px Arial, sans-serif; fill: #7c2d12; }
      .sub { font: 400 13px Arial, sans-serif; fill: #9a3412; }
      .grid { stroke: #fed7aa; stroke-width: 1; }
      .axis { font: 400 12px Arial, sans-serif; fill: #c2410c; }
      .line { fill: none; stroke: #ea580c; stroke-width: 3; stroke-linecap: round; stroke-linejoin: round; }
      .dot { fill: #ea580c; }
      .value { font: 600 11px Arial, sans-serif; fill: #9a3412; }
      .latest { font: 700 14px Arial, sans-serif; fill: #7c2d12; }
    </style>
  </defs>
  <rect class="bg" x="0" y="0" width="1000" height="360" rx="16" />
  <text class="title" x="64" y="34">hordesmod/kek-ui release downloads</text>
  <text class="sub" x="64" y="352">Generated 2026-05-08</text>
  <line x1="64" y1="52.00" x2="976" y2="52.00" class="grid"/>
  <text x="56" y="56.00" text-anchor="end" class="axis">648</text>
  <line x1="64" y1="94.00" x2="976" y2="94.00" class="grid"/>
  <text x="56" y="98.00" text-anchor="end" class="axis">540</text>
  <line x1="64" y1="136.00" x2="976" y2="136.00" class="grid"/>
  <text x="56" y="140.00" text-anchor="end" class="axis">432</text>
  <line x1="64" y1="178.00" x2="976" y2="178.00" class="grid"/>
  <text x="56" y="182.00" text-anchor="end" class="axis">324</text>
  <line x1="64" y1="220.00" x2="976" y2="220.00" class="grid"/>
  <text x="56" y="224.00" text-anchor="end" class="axis">216</text>
  <line x1="64" y1="262.00" x2="976" y2="262.00" class="grid"/>
  <text x="56" y="266.00" text-anchor="end" class="axis">108</text>
  <line x1="64" y1="304.00" x2="976" y2="304.00" class="grid"/>
  <text x="56" y="308.00" text-anchor="end" class="axis">0</text>
  <path d="M 64.00 304 L 64.00 304.00 L 79.46 277.17 L 94.92 248.00 L 110.37 223.11 L 125.83 210.67 L 141.29 198.61 L 156.75 185.39 L 172.20 171.78 L 187.66 182.28 L 203.12 199.78 L 218.58 214.17 L 234.03 215.72 L 249.49 214.17 L 264.95 210.28 L 280.41 213.78 L 295.86 217.28 L 311.32 203.67 L 326.78 183.06 L 342.24 162.44 L 357.69 124.72 L 373.15 105.28 L 388.61 83.89 L 404.07 58.61 L 419.53 52.00 L 434.98 53.94 L 450.44 53.56 L 465.90 69.11 L 481.36 67.56 L 496.81 68.72 L 512.27 76.11 L 527.73 74.17 L 543.19 71.06 L 558.64 67.94 L 574.10 67.56 L 589.56 72.22 L 605.02 72.61 L 620.47 68.33 L 635.93 71.06 L 651.39 71.06 L 666.85 71.83 L 682.31 72.22 L 697.76 71.44 L 713.22 69.50 L 728.68 75.33 L 744.14 74.17 L 759.59 74.56 L 775.05 74.17 L 790.51 78.83 L 805.97 80.00 L 821.42 79.61 L 836.88 75.33 L 852.34 76.89 L 867.80 76.50 L 883.25 81.17 L 898.71 75.33 L 914.17 73.78 L 929.63 68.72 L 945.08 64.44 L 960.54 64.83 L 976.00 68.33 L 976.00 304 Z" fill="url(#fill-weekly-orange)"/>
  <polyline class="line" points="64.00,304.00 79.46,277.17 94.92,248.00 110.37,223.11 125.83,210.67 141.29,198.61 156.75,185.39 172.20,171.78 187.66,182.28 203.12,199.78 218.58,214.17 234.03,215.72 249.49,214.17 264.95,210.28 280.41,213.78 295.86,217.28 311.32,203.67 326.78,183.06 342.24,162.44 357.69,124.72 373.15,105.28 388.61,83.89 404.07,58.61 419.53,52.00 434.98,53.94 450.44,53.56 465.90,69.11 481.36,67.56 496.81,68.72 512.27,76.11 527.73,74.17 543.19,71.06 558.64,67.94 574.10,67.56 589.56,72.22 605.02,72.61 620.47,68.33 635.93,71.06 651.39,71.06 666.85,71.83 682.31,72.22 697.76,71.44 713.22,69.50 728.68,75.33 744.14,74.17 759.59,74.56 775.05,74.17 790.51,78.83 805.97,80.00 821.42,79.61 836.88,75.33 852.34,76.89 867.80,76.50 883.25,81.17 898.71,75.33 914.17,73.78 929.63,68.72 945.08,64.44 960.54,64.83 976.00,68.33"/>
  <circle class="dot" cx="976.00" cy="68.33" r="4.5"/>
  
  <text class="axis" x="64.00" y="336" text-anchor="start">2026-03-10</text>
  <text class="axis" x="234.03" y="336" text-anchor="middle">2026-03-21</text>
  <text class="axis" x="404.07" y="336" text-anchor="middle">2026-04-01</text>
  <text class="axis" x="574.10" y="336" text-anchor="middle">2026-04-12</text>
  <text class="axis" x="744.14" y="336" text-anchor="middle">2026-04-23</text>
  <text class="axis" x="914.17" y="336" text-anchor="middle">2026-05-04</text>
  <text class="axis" x="976.00" y="336" text-anchor="end">2026-05-08</text>
  <text class="latest" x="976" y="34" text-anchor="end">Latest week: 606</text>
</svg>
