<?xml version="1.0" encoding="UTF-8"?>
<svg xmlns="http://www.w3.org/2000/svg" viewBox="0 0 1000 360" role="img" aria-label="hordesmod/kek-ui release downloads chart">
  <defs>
    <linearGradient id="fill-weekly-slate" x1="0" y1="0" x2="0" y2="1">
      <stop offset="0%" stop-color="#60a5fa" stop-opacity="0.32"/>
      <stop offset="100%" stop-color="#60a5fa" stop-opacity="0.05"/>
    </linearGradient>
    <style>
      .bg { fill: #0f172a; }
      .title { font: 700 24px Arial, sans-serif; fill: #e2e8f0; }
      .sub { font: 400 13px Arial, sans-serif; fill: #94a3b8; }
      .grid { stroke: #1e293b; stroke-width: 1; }
      .axis { font: 400 12px Arial, sans-serif; fill: #94a3b8; }
      .line { fill: none; stroke: #60a5fa; stroke-width: 3; stroke-linecap: round; stroke-linejoin: round; }
      .dot { fill: #60a5fa; }
      .value { font: 600 11px Arial, sans-serif; fill: #cbd5e1; }
      .latest { font: 700 14px Arial, sans-serif; fill: #e2e8f0; }
    </style>
  </defs>
  <rect class="bg" x="0" y="0" width="1000" height="360" rx="16" />
  <text class="title" x="64" y="34">hordesmod/kek-ui release downloads</text>
  <text class="sub" x="64" y="352">Generated 2026-04-24</text>
  <line x1="64" y1="52.00" x2="976" y2="52.00" class="grid"/>
  <text x="56" y="56.00" text-anchor="end" class="axis">648</text>
  <line x1="64" y1="94.00" x2="976" y2="94.00" class="grid"/>
  <text x="56" y="98.00" text-anchor="end" class="axis">540</text>
  <line x1="64" y1="136.00" x2="976" y2="136.00" class="grid"/>
  <text x="56" y="140.00" text-anchor="end" class="axis">432</text>
  <line x1="64" y1="178.00" x2="976" y2="178.00" class="grid"/>
  <text x="56" y="182.00" text-anchor="end" class="axis">324</text>
  <line x1="64" y1="220.00" x2="976" y2="220.00" class="grid"/>
  <text x="56" y="224.00" text-anchor="end" class="axis">216</text>
  <line x1="64" y1="262.00" x2="976" y2="262.00" class="grid"/>
  <text x="56" y="266.00" text-anchor="end" class="axis">108</text>
  <line x1="64" y1="304.00" x2="976" y2="304.00" class="grid"/>
  <text x="56" y="308.00" text-anchor="end" class="axis">0</text>
  <path d="M 64.00 304 L 64.00 304.00 L 84.27 277.17 L 104.53 248.00 L 124.80 223.11 L 145.07 210.67 L 165.33 198.61 L 185.60 185.39 L 205.87 171.78 L 226.13 182.28 L 246.40 199.78 L 266.67 214.17 L 286.93 215.72 L 307.20 214.17 L 327.47 210.28 L 347.73 213.78 L 368.00 217.28 L 388.27 203.67 L 408.53 183.06 L 428.80 162.44 L 449.07 124.72 L 469.33 105.28 L 489.60 83.89 L 509.87 58.61 L 530.13 52.00 L 550.40 53.94 L 570.67 53.56 L 590.93 69.11 L 611.20 67.56 L 631.47 68.72 L 651.73 76.11 L 672.00 74.17 L 692.27 71.06 L 712.53 67.94 L 732.80 67.56 L 753.07 72.22 L 773.33 72.61 L 793.60 68.33 L 813.87 71.06 L 834.13 71.06 L 854.40 71.83 L 874.67 72.22 L 894.93 71.44 L 915.20 69.50 L 935.47 75.33 L 955.73 74.17 L 976.00 74.56 L 976.00 304 Z" fill="url(#fill-weekly-slate)"/>
  <polyline class="line" points="64.00,304.00 84.27,277.17 104.53,248.00 124.80,223.11 145.07,210.67 165.33,198.61 185.60,185.39 205.87,171.78 226.13,182.28 246.40,199.78 266.67,214.17 286.93,215.72 307.20,214.17 327.47,210.28 347.73,213.78 368.00,217.28 388.27,203.67 408.53,183.06 428.80,162.44 449.07,124.72 469.33,105.28 489.60,83.89 509.87,58.61 530.13,52.00 550.40,53.94 570.67,53.56 590.93,69.11 611.20,67.56 631.47,68.72 651.73,76.11 672.00,74.17 692.27,71.06 712.53,67.94 732.80,67.56 753.07,72.22 773.33,72.61 793.60,68.33 813.87,71.06 834.13,71.06 854.40,71.83 874.67,72.22 894.93,71.44 915.20,69.50 935.47,75.33 955.73,74.17 976.00,74.56"/>
  <circle class="dot" cx="976.00" cy="74.56" r="4.5"/>
  
  <text class="axis" x="64.00" y="336" text-anchor="start">2026-03-10</text>
  <text class="axis" x="246.40" y="336" text-anchor="middle">2026-03-19</text>
  <text class="axis" x="428.80" y="336" text-anchor="middle">2026-03-28</text>
  <text class="axis" x="611.20" y="336" text-anchor="middle">2026-04-06</text>
  <text class="axis" x="793.60" y="336" text-anchor="middle">2026-04-15</text>
  <text class="axis" x="976.00" y="336" text-anchor="end">2026-04-24</text>
  <text class="latest" x="976" y="34" text-anchor="end">Latest week: 590</text>
</svg>
