<?xml version="1.0" encoding="UTF-8"?>
<svg xmlns="http://www.w3.org/2000/svg" viewBox="0 0 1000 360" role="img" aria-label="hordesmod/kek-ui release downloads chart">
  <defs>
    <linearGradient id="fill-weekly-orange" x1="0" y1="0" x2="0" y2="1">
      <stop offset="0%" stop-color="#f97316" stop-opacity="0.32"/>
      <stop offset="100%" stop-color="#f97316" stop-opacity="0.05"/>
    </linearGradient>
    <style>
      .bg { fill: #fff7ed; }
      .title { font: 700 24px Arial, sans-serif; fill: #7c2d12; }
      .sub { font: 400 13px Arial, sans-serif; fill: #9a3412; }
      .grid { stroke: #fed7aa; stroke-width: 1; }
      .axis { font: 400 12px Arial, sans-serif; fill: #c2410c; }
      .line { fill: none; stroke: #ea580c; stroke-width: 3; stroke-linecap: round; stroke-linejoin: round; }
      .dot { fill: #ea580c; }
      .value { font: 600 11px Arial, sans-serif; fill: #9a3412; }
      .latest { font: 700 14px Arial, sans-serif; fill: #7c2d12; }
    </style>
  </defs>
  <rect class="bg" x="0" y="0" width="1000" height="360" rx="16" />
  <text class="title" x="64" y="34">hordesmod/kek-ui release downloads</text>
  <text class="sub" x="64" y="352">Generated 2026-05-05</text>
  <line x1="64" y1="52.00" x2="976" y2="52.00" class="grid"/>
  <text x="56" y="56.00" text-anchor="end" class="axis">648</text>
  <line x1="64" y1="94.00" x2="976" y2="94.00" class="grid"/>
  <text x="56" y="98.00" text-anchor="end" class="axis">540</text>
  <line x1="64" y1="136.00" x2="976" y2="136.00" class="grid"/>
  <text x="56" y="140.00" text-anchor="end" class="axis">432</text>
  <line x1="64" y1="178.00" x2="976" y2="178.00" class="grid"/>
  <text x="56" y="182.00" text-anchor="end" class="axis">324</text>
  <line x1="64" y1="220.00" x2="976" y2="220.00" class="grid"/>
  <text x="56" y="224.00" text-anchor="end" class="axis">216</text>
  <line x1="64" y1="262.00" x2="976" y2="262.00" class="grid"/>
  <text x="56" y="266.00" text-anchor="end" class="axis">108</text>
  <line x1="64" y1="304.00" x2="976" y2="304.00" class="grid"/>
  <text x="56" y="308.00" text-anchor="end" class="axis">0</text>
  <path d="M 64.00 304 L 64.00 304.00 L 80.29 277.17 L 96.57 248.00 L 112.86 223.11 L 129.14 210.67 L 145.43 198.61 L 161.71 185.39 L 178.00 171.78 L 194.29 182.28 L 210.57 199.78 L 226.86 214.17 L 243.14 215.72 L 259.43 214.17 L 275.71 210.28 L 292.00 213.78 L 308.29 217.28 L 324.57 203.67 L 340.86 183.06 L 357.14 162.44 L 373.43 124.72 L 389.71 105.28 L 406.00 83.89 L 422.29 58.61 L 438.57 52.00 L 454.86 53.94 L 471.14 53.56 L 487.43 69.11 L 503.71 67.56 L 520.00 68.72 L 536.29 76.11 L 552.57 74.17 L 568.86 71.06 L 585.14 67.94 L 601.43 67.56 L 617.71 72.22 L 634.00 72.61 L 650.29 68.33 L 666.57 71.06 L 682.86 71.06 L 699.14 71.83 L 715.43 72.22 L 731.71 71.44 L 748.00 69.50 L 764.29 75.33 L 780.57 74.17 L 796.86 74.56 L 813.14 74.17 L 829.43 78.83 L 845.71 80.00 L 862.00 79.61 L 878.29 75.33 L 894.57 76.89 L 910.86 76.50 L 927.14 81.17 L 943.43 75.33 L 959.71 73.78 L 976.00 68.72 L 976.00 304 Z" fill="url(#fill-weekly-orange)"/>
  <polyline class="line" points="64.00,304.00 80.29,277.17 96.57,248.00 112.86,223.11 129.14,210.67 145.43,198.61 161.71,185.39 178.00,171.78 194.29,182.28 210.57,199.78 226.86,214.17 243.14,215.72 259.43,214.17 275.71,210.28 292.00,213.78 308.29,217.28 324.57,203.67 340.86,183.06 357.14,162.44 373.43,124.72 389.71,105.28 406.00,83.89 422.29,58.61 438.57,52.00 454.86,53.94 471.14,53.56 487.43,69.11 503.71,67.56 520.00,68.72 536.29,76.11 552.57,74.17 568.86,71.06 585.14,67.94 601.43,67.56 617.71,72.22 634.00,72.61 650.29,68.33 666.57,71.06 682.86,71.06 699.14,71.83 715.43,72.22 731.71,71.44 748.00,69.50 764.29,75.33 780.57,74.17 796.86,74.56 813.14,74.17 829.43,78.83 845.71,80.00 862.00,79.61 878.29,75.33 894.57,76.89 910.86,76.50 927.14,81.17 943.43,75.33 959.71,73.78 976.00,68.72"/>
  <circle class="dot" cx="976.00" cy="68.72" r="4.5"/>
  
  <text class="axis" x="64.00" y="336" text-anchor="start">2026-03-10</text>
  <text class="axis" x="243.14" y="336" text-anchor="middle">2026-03-21</text>
  <text class="axis" x="422.29" y="336" text-anchor="middle">2026-04-01</text>
  <text class="axis" x="601.43" y="336" text-anchor="middle">2026-04-12</text>
  <text class="axis" x="780.57" y="336" text-anchor="middle">2026-04-23</text>
  <text class="axis" x="959.71" y="336" text-anchor="middle">2026-05-04</text>
  <text class="axis" x="976.00" y="336" text-anchor="end">2026-05-05</text>
  <text class="latest" x="976" y="34" text-anchor="end">Latest week: 605</text>
</svg>
