<?xml version="1.0" encoding="UTF-8"?>
<svg xmlns="http://www.w3.org/2000/svg" viewBox="0 0 1000 360" role="img" aria-label="hordesmod/kek-ui release downloads chart">
  <defs>
    <linearGradient id="fill-weekly-orange" x1="0" y1="0" x2="0" y2="1">
      <stop offset="0%" stop-color="#f97316" stop-opacity="0.32"/>
      <stop offset="100%" stop-color="#f97316" stop-opacity="0.05"/>
    </linearGradient>
    <style>
      .bg { fill: #fff7ed; }
      .title { font: 700 24px Arial, sans-serif; fill: #7c2d12; }
      .sub { font: 400 13px Arial, sans-serif; fill: #9a3412; }
      .grid { stroke: #fed7aa; stroke-width: 1; }
      .axis { font: 400 12px Arial, sans-serif; fill: #c2410c; }
      .line { fill: none; stroke: #ea580c; stroke-width: 3; stroke-linecap: round; stroke-linejoin: round; }
      .dot { fill: #ea580c; }
      .value { font: 600 11px Arial, sans-serif; fill: #9a3412; }
      .latest { font: 700 14px Arial, sans-serif; fill: #7c2d12; }
    </style>
  </defs>
  <rect class="bg" x="0" y="0" width="1000" height="360" rx="16" />
  <text class="title" x="64" y="34">hordesmod/kek-ui release downloads</text>
  <text class="sub" x="64" y="352">Generated 2026-05-12</text>
  <line x1="64" y1="52.00" x2="976" y2="52.00" class="grid"/>
  <text x="56" y="56.00" text-anchor="end" class="axis">648</text>
  <line x1="64" y1="94.00" x2="976" y2="94.00" class="grid"/>
  <text x="56" y="98.00" text-anchor="end" class="axis">540</text>
  <line x1="64" y1="136.00" x2="976" y2="136.00" class="grid"/>
  <text x="56" y="140.00" text-anchor="end" class="axis">432</text>
  <line x1="64" y1="178.00" x2="976" y2="178.00" class="grid"/>
  <text x="56" y="182.00" text-anchor="end" class="axis">324</text>
  <line x1="64" y1="220.00" x2="976" y2="220.00" class="grid"/>
  <text x="56" y="224.00" text-anchor="end" class="axis">216</text>
  <line x1="64" y1="262.00" x2="976" y2="262.00" class="grid"/>
  <text x="56" y="266.00" text-anchor="end" class="axis">108</text>
  <line x1="64" y1="304.00" x2="976" y2="304.00" class="grid"/>
  <text x="56" y="308.00" text-anchor="end" class="axis">0</text>
  <path d="M 64.00 304 L 64.00 304.00 L 78.48 277.17 L 92.95 248.00 L 107.43 223.11 L 121.90 210.67 L 136.38 198.61 L 150.86 185.39 L 165.33 171.78 L 179.81 182.28 L 194.29 199.78 L 208.76 214.17 L 223.24 215.72 L 237.71 214.17 L 252.19 210.28 L 266.67 213.78 L 281.14 217.28 L 295.62 203.67 L 310.10 183.06 L 324.57 162.44 L 339.05 124.72 L 353.52 105.28 L 368.00 83.89 L 382.48 58.61 L 396.95 52.00 L 411.43 53.94 L 425.90 53.56 L 440.38 69.11 L 454.86 67.56 L 469.33 68.72 L 483.81 76.11 L 498.29 74.17 L 512.76 71.06 L 527.24 67.94 L 541.71 67.56 L 556.19 72.22 L 570.67 72.61 L 585.14 68.33 L 599.62 71.06 L 614.10 71.06 L 628.57 71.83 L 643.05 72.22 L 657.52 71.44 L 672.00 69.50 L 686.48 75.33 L 700.95 74.17 L 715.43 74.56 L 729.90 74.17 L 744.38 78.83 L 758.86 80.00 L 773.33 79.61 L 787.81 75.33 L 802.29 76.89 L 816.76 76.50 L 831.24 81.17 L 845.71 75.33 L 860.19 73.78 L 874.67 68.72 L 889.14 64.44 L 903.62 64.83 L 918.10 68.33 L 932.57 63.28 L 947.05 69.11 L 961.52 70.67 L 976.00 74.17 L 976.00 304 Z" fill="url(#fill-weekly-orange)"/>
  <polyline class="line" points="64.00,304.00 78.48,277.17 92.95,248.00 107.43,223.11 121.90,210.67 136.38,198.61 150.86,185.39 165.33,171.78 179.81,182.28 194.29,199.78 208.76,214.17 223.24,215.72 237.71,214.17 252.19,210.28 266.67,213.78 281.14,217.28 295.62,203.67 310.10,183.06 324.57,162.44 339.05,124.72 353.52,105.28 368.00,83.89 382.48,58.61 396.95,52.00 411.43,53.94 425.90,53.56 440.38,69.11 454.86,67.56 469.33,68.72 483.81,76.11 498.29,74.17 512.76,71.06 527.24,67.94 541.71,67.56 556.19,72.22 570.67,72.61 585.14,68.33 599.62,71.06 614.10,71.06 628.57,71.83 643.05,72.22 657.52,71.44 672.00,69.50 686.48,75.33 700.95,74.17 715.43,74.56 729.90,74.17 744.38,78.83 758.86,80.00 773.33,79.61 787.81,75.33 802.29,76.89 816.76,76.50 831.24,81.17 845.71,75.33 860.19,73.78 874.67,68.72 889.14,64.44 903.62,64.83 918.10,68.33 932.57,63.28 947.05,69.11 961.52,70.67 976.00,74.17"/>
  <circle class="dot" cx="976.00" cy="74.17" r="4.5"/>
  
  <text class="axis" x="64.00" y="336" text-anchor="start">2026-03-10</text>
  <text class="axis" x="237.71" y="336" text-anchor="middle">2026-03-22</text>
  <text class="axis" x="411.43" y="336" text-anchor="middle">2026-04-03</text>
  <text class="axis" x="585.14" y="336" text-anchor="middle">2026-04-15</text>
  <text class="axis" x="758.86" y="336" text-anchor="middle">2026-04-27</text>
  <text class="axis" x="932.57" y="336" text-anchor="middle">2026-05-09</text>
  <text class="axis" x="976.00" y="336" text-anchor="end">2026-05-12</text>
  <text class="latest" x="976" y="34" text-anchor="end">Latest week: 591</text>
</svg>
