<?xml version="1.0" encoding="UTF-8"?>
<svg xmlns="http://www.w3.org/2000/svg" viewBox="0 0 1000 360" role="img" aria-label="hordesmod/kek-ui release downloads chart">
  <defs>
    <linearGradient id="fill-weekly-black" x1="0" y1="0" x2="0" y2="1">
      <stop offset="0%" stop-color="#22d3ee" stop-opacity="0.32"/>
      <stop offset="100%" stop-color="#22d3ee" stop-opacity="0.05"/>
    </linearGradient>
    <style>
      .bg { fill: #0b0b0d; }
      .title { font: 700 24px Arial, sans-serif; fill: #f8fafc; }
      .sub { font: 400 13px Arial, sans-serif; fill: #cbd5e1; }
      .grid { stroke: #1f2937; stroke-width: 1; }
      .axis { font: 400 12px Arial, sans-serif; fill: #94a3b8; }
      .line { fill: none; stroke: #22d3ee; stroke-width: 3; stroke-linecap: round; stroke-linejoin: round; }
      .dot { fill: #22d3ee; }
      .value { font: 600 11px Arial, sans-serif; fill: #cbd5e1; }
      .latest { font: 700 14px Arial, sans-serif; fill: #f8fafc; }
    </style>
  </defs>
  <rect class="bg" x="0" y="0" width="1000" height="360" rx="16" />
  <text class="title" x="64" y="34">hordesmod/kek-ui release downloads</text>
  <text class="sub" x="64" y="352">Generated 2026-05-11</text>
  <line x1="64" y1="52.00" x2="976" y2="52.00" class="grid"/>
  <text x="56" y="56.00" text-anchor="end" class="axis">648</text>
  <line x1="64" y1="94.00" x2="976" y2="94.00" class="grid"/>
  <text x="56" y="98.00" text-anchor="end" class="axis">540</text>
  <line x1="64" y1="136.00" x2="976" y2="136.00" class="grid"/>
  <text x="56" y="140.00" text-anchor="end" class="axis">432</text>
  <line x1="64" y1="178.00" x2="976" y2="178.00" class="grid"/>
  <text x="56" y="182.00" text-anchor="end" class="axis">324</text>
  <line x1="64" y1="220.00" x2="976" y2="220.00" class="grid"/>
  <text x="56" y="224.00" text-anchor="end" class="axis">216</text>
  <line x1="64" y1="262.00" x2="976" y2="262.00" class="grid"/>
  <text x="56" y="266.00" text-anchor="end" class="axis">108</text>
  <line x1="64" y1="304.00" x2="976" y2="304.00" class="grid"/>
  <text x="56" y="308.00" text-anchor="end" class="axis">0</text>
  <path d="M 64.00 304 L 64.00 304.00 L 78.71 277.17 L 93.42 248.00 L 108.13 223.11 L 122.84 210.67 L 137.55 198.61 L 152.26 185.39 L 166.97 171.78 L 181.68 182.28 L 196.39 199.78 L 211.10 214.17 L 225.81 215.72 L 240.52 214.17 L 255.23 210.28 L 269.94 213.78 L 284.65 217.28 L 299.35 203.67 L 314.06 183.06 L 328.77 162.44 L 343.48 124.72 L 358.19 105.28 L 372.90 83.89 L 387.61 58.61 L 402.32 52.00 L 417.03 53.94 L 431.74 53.56 L 446.45 69.11 L 461.16 67.56 L 475.87 68.72 L 490.58 76.11 L 505.29 74.17 L 520.00 71.06 L 534.71 67.94 L 549.42 67.56 L 564.13 72.22 L 578.84 72.61 L 593.55 68.33 L 608.26 71.06 L 622.97 71.06 L 637.68 71.83 L 652.39 72.22 L 667.10 71.44 L 681.81 69.50 L 696.52 75.33 L 711.23 74.17 L 725.94 74.56 L 740.65 74.17 L 755.35 78.83 L 770.06 80.00 L 784.77 79.61 L 799.48 75.33 L 814.19 76.89 L 828.90 76.50 L 843.61 81.17 L 858.32 75.33 L 873.03 73.78 L 887.74 68.72 L 902.45 64.44 L 917.16 64.83 L 931.87 68.33 L 946.58 63.28 L 961.29 69.11 L 976.00 70.67 L 976.00 304 Z" fill="url(#fill-weekly-black)"/>
  <polyline class="line" points="64.00,304.00 78.71,277.17 93.42,248.00 108.13,223.11 122.84,210.67 137.55,198.61 152.26,185.39 166.97,171.78 181.68,182.28 196.39,199.78 211.10,214.17 225.81,215.72 240.52,214.17 255.23,210.28 269.94,213.78 284.65,217.28 299.35,203.67 314.06,183.06 328.77,162.44 343.48,124.72 358.19,105.28 372.90,83.89 387.61,58.61 402.32,52.00 417.03,53.94 431.74,53.56 446.45,69.11 461.16,67.56 475.87,68.72 490.58,76.11 505.29,74.17 520.00,71.06 534.71,67.94 549.42,67.56 564.13,72.22 578.84,72.61 593.55,68.33 608.26,71.06 622.97,71.06 637.68,71.83 652.39,72.22 667.10,71.44 681.81,69.50 696.52,75.33 711.23,74.17 725.94,74.56 740.65,74.17 755.35,78.83 770.06,80.00 784.77,79.61 799.48,75.33 814.19,76.89 828.90,76.50 843.61,81.17 858.32,75.33 873.03,73.78 887.74,68.72 902.45,64.44 917.16,64.83 931.87,68.33 946.58,63.28 961.29,69.11 976.00,70.67"/>
  <circle class="dot" cx="976.00" cy="70.67" r="4.5"/>
  
  <text class="axis" x="64.00" y="336" text-anchor="start">2026-03-10</text>
  <text class="axis" x="240.52" y="336" text-anchor="middle">2026-03-22</text>
  <text class="axis" x="417.03" y="336" text-anchor="middle">2026-04-03</text>
  <text class="axis" x="593.55" y="336" text-anchor="middle">2026-04-15</text>
  <text class="axis" x="770.06" y="336" text-anchor="middle">2026-04-27</text>
  <text class="axis" x="946.58" y="336" text-anchor="middle">2026-05-09</text>
  <text class="axis" x="976.00" y="336" text-anchor="end">2026-05-11</text>
  <text class="latest" x="976" y="34" text-anchor="end">Latest week: 600</text>
</svg>
