<?xml version="1.0" encoding="UTF-8"?>
<svg xmlns="http://www.w3.org/2000/svg" viewBox="0 0 1000 360" role="img" aria-label="hordesmod/kek-ui release downloads chart">
  <defs>
    <linearGradient id="fill-weekly-orange" x1="0" y1="0" x2="0" y2="1">
      <stop offset="0%" stop-color="#f97316" stop-opacity="0.32"/>
      <stop offset="100%" stop-color="#f97316" stop-opacity="0.05"/>
    </linearGradient>
    <style>
      .bg { fill: #fff7ed; }
      .title { font: 700 24px Arial, sans-serif; fill: #7c2d12; }
      .sub { font: 400 13px Arial, sans-serif; fill: #9a3412; }
      .grid { stroke: #fed7aa; stroke-width: 1; }
      .axis { font: 400 12px Arial, sans-serif; fill: #c2410c; }
      .line { fill: none; stroke: #ea580c; stroke-width: 3; stroke-linecap: round; stroke-linejoin: round; }
      .dot { fill: #ea580c; }
      .value { font: 600 11px Arial, sans-serif; fill: #9a3412; }
      .latest { font: 700 14px Arial, sans-serif; fill: #7c2d12; }
    </style>
  </defs>
  <rect class="bg" x="0" y="0" width="1000" height="360" rx="16" />
  <text class="title" x="64" y="34">hordesmod/kek-ui release downloads</text>
  <text class="sub" x="64" y="352">Generated 2026-05-19</text>
  <line x1="64" y1="52.00" x2="976" y2="52.00" class="grid"/>
  <text x="56" y="56.00" text-anchor="end" class="axis">648</text>
  <line x1="64" y1="94.00" x2="976" y2="94.00" class="grid"/>
  <text x="56" y="98.00" text-anchor="end" class="axis">540</text>
  <line x1="64" y1="136.00" x2="976" y2="136.00" class="grid"/>
  <text x="56" y="140.00" text-anchor="end" class="axis">432</text>
  <line x1="64" y1="178.00" x2="976" y2="178.00" class="grid"/>
  <text x="56" y="182.00" text-anchor="end" class="axis">324</text>
  <line x1="64" y1="220.00" x2="976" y2="220.00" class="grid"/>
  <text x="56" y="224.00" text-anchor="end" class="axis">216</text>
  <line x1="64" y1="262.00" x2="976" y2="262.00" class="grid"/>
  <text x="56" y="266.00" text-anchor="end" class="axis">108</text>
  <line x1="64" y1="304.00" x2="976" y2="304.00" class="grid"/>
  <text x="56" y="308.00" text-anchor="end" class="axis">0</text>
  <path d="M 64.00 304 L 64.00 304.00 L 77.03 277.17 L 90.06 248.00 L 103.09 223.11 L 116.11 210.67 L 129.14 198.61 L 142.17 185.39 L 155.20 171.78 L 168.23 182.28 L 181.26 199.78 L 194.29 214.17 L 207.31 215.72 L 220.34 214.17 L 233.37 210.28 L 246.40 213.78 L 259.43 217.28 L 272.46 203.67 L 285.49 183.06 L 298.51 162.44 L 311.54 124.72 L 324.57 105.28 L 337.60 83.89 L 350.63 58.61 L 363.66 52.00 L 376.69 53.94 L 389.71 53.56 L 402.74 69.11 L 415.77 67.56 L 428.80 68.72 L 441.83 76.11 L 454.86 74.17 L 467.89 71.06 L 480.91 67.94 L 493.94 67.56 L 506.97 72.22 L 520.00 72.61 L 533.03 68.33 L 546.06 71.06 L 559.09 71.06 L 572.11 71.83 L 585.14 72.22 L 598.17 71.44 L 611.20 69.50 L 624.23 75.33 L 637.26 74.17 L 650.29 74.56 L 663.31 74.17 L 676.34 78.83 L 689.37 80.00 L 702.40 79.61 L 715.43 75.33 L 728.46 76.89 L 741.49 76.50 L 754.51 81.17 L 767.54 75.33 L 780.57 73.78 L 793.60 68.72 L 806.63 64.44 L 819.66 64.83 L 832.69 68.33 L 845.71 63.28 L 858.74 69.11 L 871.77 70.67 L 884.80 74.17 L 897.83 81.56 L 910.86 80.39 L 923.89 81.56 L 936.91 82.33 L 949.94 79.22 L 962.97 78.44 L 976.00 81.17 L 976.00 304 Z" fill="url(#fill-weekly-orange)"/>
  <polyline class="line" points="64.00,304.00 77.03,277.17 90.06,248.00 103.09,223.11 116.11,210.67 129.14,198.61 142.17,185.39 155.20,171.78 168.23,182.28 181.26,199.78 194.29,214.17 207.31,215.72 220.34,214.17 233.37,210.28 246.40,213.78 259.43,217.28 272.46,203.67 285.49,183.06 298.51,162.44 311.54,124.72 324.57,105.28 337.60,83.89 350.63,58.61 363.66,52.00 376.69,53.94 389.71,53.56 402.74,69.11 415.77,67.56 428.80,68.72 441.83,76.11 454.86,74.17 467.89,71.06 480.91,67.94 493.94,67.56 506.97,72.22 520.00,72.61 533.03,68.33 546.06,71.06 559.09,71.06 572.11,71.83 585.14,72.22 598.17,71.44 611.20,69.50 624.23,75.33 637.26,74.17 650.29,74.56 663.31,74.17 676.34,78.83 689.37,80.00 702.40,79.61 715.43,75.33 728.46,76.89 741.49,76.50 754.51,81.17 767.54,75.33 780.57,73.78 793.60,68.72 806.63,64.44 819.66,64.83 832.69,68.33 845.71,63.28 858.74,69.11 871.77,70.67 884.80,74.17 897.83,81.56 910.86,80.39 923.89,81.56 936.91,82.33 949.94,79.22 962.97,78.44 976.00,81.17"/>
  <circle class="dot" cx="976.00" cy="81.17" r="4.5"/>
  
  <text class="axis" x="64.00" y="336" text-anchor="start">2026-03-10</text>
  <text class="axis" x="246.40" y="336" text-anchor="middle">2026-03-24</text>
  <text class="axis" x="428.80" y="336" text-anchor="middle">2026-04-07</text>
  <text class="axis" x="611.20" y="336" text-anchor="middle">2026-04-21</text>
  <text class="axis" x="793.60" y="336" text-anchor="middle">2026-05-05</text>
  <text class="axis" x="976.00" y="336" text-anchor="end">2026-05-19</text>
  <text class="latest" x="976" y="34" text-anchor="end">Latest week: 573</text>
</svg>
