<?xml version="1.0" encoding="UTF-8"?>
<svg xmlns="http://www.w3.org/2000/svg" viewBox="0 0 1000 360" role="img" aria-label="hordesmod/kek-ui release downloads chart">
  <defs>
    <linearGradient id="fill-weekly-slate" x1="0" y1="0" x2="0" y2="1">
      <stop offset="0%" stop-color="#60a5fa" stop-opacity="0.32"/>
      <stop offset="100%" stop-color="#60a5fa" stop-opacity="0.05"/>
    </linearGradient>
    <style>
      .bg { fill: #0f172a; }
      .title { font: 700 24px Arial, sans-serif; fill: #e2e8f0; }
      .sub { font: 400 13px Arial, sans-serif; fill: #94a3b8; }
      .grid { stroke: #1e293b; stroke-width: 1; }
      .axis { font: 400 12px Arial, sans-serif; fill: #94a3b8; }
      .line { fill: none; stroke: #60a5fa; stroke-width: 3; stroke-linecap: round; stroke-linejoin: round; }
      .dot { fill: #60a5fa; }
      .value { font: 600 11px Arial, sans-serif; fill: #cbd5e1; }
      .latest { font: 700 14px Arial, sans-serif; fill: #e2e8f0; }
    </style>
  </defs>
  <rect class="bg" x="0" y="0" width="1000" height="360" rx="16" />
  <text class="title" x="64" y="34">hordesmod/kek-ui release downloads</text>
  <text class="sub" x="64" y="352">Generated 2026-04-09</text>
  <line x1="64" y1="52.00" x2="976" y2="52.00" class="grid"/>
  <text x="56" y="56.00" text-anchor="end" class="axis">648</text>
  <line x1="64" y1="94.00" x2="976" y2="94.00" class="grid"/>
  <text x="56" y="98.00" text-anchor="end" class="axis">540</text>
  <line x1="64" y1="136.00" x2="976" y2="136.00" class="grid"/>
  <text x="56" y="140.00" text-anchor="end" class="axis">432</text>
  <line x1="64" y1="178.00" x2="976" y2="178.00" class="grid"/>
  <text x="56" y="182.00" text-anchor="end" class="axis">324</text>
  <line x1="64" y1="220.00" x2="976" y2="220.00" class="grid"/>
  <text x="56" y="224.00" text-anchor="end" class="axis">216</text>
  <line x1="64" y1="262.00" x2="976" y2="262.00" class="grid"/>
  <text x="56" y="266.00" text-anchor="end" class="axis">108</text>
  <line x1="64" y1="304.00" x2="976" y2="304.00" class="grid"/>
  <text x="56" y="308.00" text-anchor="end" class="axis">0</text>
  <path d="M 64.00 304 L 64.00 304.00 L 94.40 277.17 L 124.80 248.00 L 155.20 223.11 L 185.60 210.67 L 216.00 198.61 L 246.40 185.39 L 276.80 171.78 L 307.20 182.28 L 337.60 199.78 L 368.00 214.17 L 398.40 215.72 L 428.80 214.17 L 459.20 210.28 L 489.60 213.78 L 520.00 217.28 L 550.40 203.67 L 580.80 183.06 L 611.20 162.44 L 641.60 124.72 L 672.00 105.28 L 702.40 83.89 L 732.80 58.61 L 763.20 52.00 L 793.60 53.94 L 824.00 53.56 L 854.40 69.11 L 884.80 67.56 L 915.20 68.72 L 945.60 76.11 L 976.00 74.17 L 976.00 304 Z" fill="url(#fill-weekly-slate)"/>
  <polyline class="line" points="64.00,304.00 94.40,277.17 124.80,248.00 155.20,223.11 185.60,210.67 216.00,198.61 246.40,185.39 276.80,171.78 307.20,182.28 337.60,199.78 368.00,214.17 398.40,215.72 428.80,214.17 459.20,210.28 489.60,213.78 520.00,217.28 550.40,203.67 580.80,183.06 611.20,162.44 641.60,124.72 672.00,105.28 702.40,83.89 732.80,58.61 763.20,52.00 793.60,53.94 824.00,53.56 854.40,69.11 884.80,67.56 915.20,68.72 945.60,76.11 976.00,74.17"/>
  <circle class="dot" cx="976.00" cy="74.17" r="4.5"/>
  
  <text class="axis" x="64.00" y="336" text-anchor="start">2026-03-10</text>
  <text class="axis" x="246.40" y="336" text-anchor="middle">2026-03-16</text>
  <text class="axis" x="428.80" y="336" text-anchor="middle">2026-03-22</text>
  <text class="axis" x="611.20" y="336" text-anchor="middle">2026-03-28</text>
  <text class="axis" x="793.60" y="336" text-anchor="middle">2026-04-03</text>
  <text class="axis" x="976.00" y="336" text-anchor="end">2026-04-09</text>
  <text class="latest" x="976" y="34" text-anchor="end">Latest week: 591</text>
</svg>
