<?xml version="1.0" encoding="UTF-8"?>
<svg xmlns="http://www.w3.org/2000/svg" viewBox="0 0 1000 360" role="img" aria-label="hordesmod/kek-ui release downloads chart">
  <defs>
    <linearGradient id="fill-weekly-orange" x1="0" y1="0" x2="0" y2="1">
      <stop offset="0%" stop-color="#f97316" stop-opacity="0.32"/>
      <stop offset="100%" stop-color="#f97316" stop-opacity="0.05"/>
    </linearGradient>
    <style>
      .bg { fill: #fff7ed; }
      .title { font: 700 24px Arial, sans-serif; fill: #7c2d12; }
      .sub { font: 400 13px Arial, sans-serif; fill: #9a3412; }
      .grid { stroke: #fed7aa; stroke-width: 1; }
      .axis { font: 400 12px Arial, sans-serif; fill: #c2410c; }
      .line { fill: none; stroke: #ea580c; stroke-width: 3; stroke-linecap: round; stroke-linejoin: round; }
      .dot { fill: #ea580c; }
      .value { font: 600 11px Arial, sans-serif; fill: #9a3412; }
      .latest { font: 700 14px Arial, sans-serif; fill: #7c2d12; }
    </style>
  </defs>
  <rect class="bg" x="0" y="0" width="1000" height="360" rx="16" />
  <text class="title" x="64" y="34">hordesmod/kek-ui release downloads</text>
  <text class="sub" x="64" y="352">Generated 2026-04-26</text>
  <line x1="64" y1="52.00" x2="976" y2="52.00" class="grid"/>
  <text x="56" y="56.00" text-anchor="end" class="axis">648</text>
  <line x1="64" y1="94.00" x2="976" y2="94.00" class="grid"/>
  <text x="56" y="98.00" text-anchor="end" class="axis">540</text>
  <line x1="64" y1="136.00" x2="976" y2="136.00" class="grid"/>
  <text x="56" y="140.00" text-anchor="end" class="axis">432</text>
  <line x1="64" y1="178.00" x2="976" y2="178.00" class="grid"/>
  <text x="56" y="182.00" text-anchor="end" class="axis">324</text>
  <line x1="64" y1="220.00" x2="976" y2="220.00" class="grid"/>
  <text x="56" y="224.00" text-anchor="end" class="axis">216</text>
  <line x1="64" y1="262.00" x2="976" y2="262.00" class="grid"/>
  <text x="56" y="266.00" text-anchor="end" class="axis">108</text>
  <line x1="64" y1="304.00" x2="976" y2="304.00" class="grid"/>
  <text x="56" y="308.00" text-anchor="end" class="axis">0</text>
  <path d="M 64.00 304 L 64.00 304.00 L 83.40 277.17 L 102.81 248.00 L 122.21 223.11 L 141.62 210.67 L 161.02 198.61 L 180.43 185.39 L 199.83 171.78 L 219.23 182.28 L 238.64 199.78 L 258.04 214.17 L 277.45 215.72 L 296.85 214.17 L 316.26 210.28 L 335.66 213.78 L 355.06 217.28 L 374.47 203.67 L 393.87 183.06 L 413.28 162.44 L 432.68 124.72 L 452.09 105.28 L 471.49 83.89 L 490.89 58.61 L 510.30 52.00 L 529.70 53.94 L 549.11 53.56 L 568.51 69.11 L 587.91 67.56 L 607.32 68.72 L 626.72 76.11 L 646.13 74.17 L 665.53 71.06 L 684.94 67.94 L 704.34 67.56 L 723.74 72.22 L 743.15 72.61 L 762.55 68.33 L 781.96 71.06 L 801.36 71.06 L 820.77 71.83 L 840.17 72.22 L 859.57 71.44 L 878.98 69.50 L 898.38 75.33 L 917.79 74.17 L 937.19 74.56 L 956.60 74.17 L 976.00 78.83 L 976.00 304 Z" fill="url(#fill-weekly-orange)"/>
  <polyline class="line" points="64.00,304.00 83.40,277.17 102.81,248.00 122.21,223.11 141.62,210.67 161.02,198.61 180.43,185.39 199.83,171.78 219.23,182.28 238.64,199.78 258.04,214.17 277.45,215.72 296.85,214.17 316.26,210.28 335.66,213.78 355.06,217.28 374.47,203.67 393.87,183.06 413.28,162.44 432.68,124.72 452.09,105.28 471.49,83.89 490.89,58.61 510.30,52.00 529.70,53.94 549.11,53.56 568.51,69.11 587.91,67.56 607.32,68.72 626.72,76.11 646.13,74.17 665.53,71.06 684.94,67.94 704.34,67.56 723.74,72.22 743.15,72.61 762.55,68.33 781.96,71.06 801.36,71.06 820.77,71.83 840.17,72.22 859.57,71.44 878.98,69.50 898.38,75.33 917.79,74.17 937.19,74.56 956.60,74.17 976.00,78.83"/>
  <circle class="dot" cx="976.00" cy="78.83" r="4.5"/>
  
  <text class="axis" x="64.00" y="336" text-anchor="start">2026-03-10</text>
  <text class="axis" x="238.64" y="336" text-anchor="middle">2026-03-19</text>
  <text class="axis" x="413.28" y="336" text-anchor="middle">2026-03-28</text>
  <text class="axis" x="587.91" y="336" text-anchor="middle">2026-04-06</text>
  <text class="axis" x="762.55" y="336" text-anchor="middle">2026-04-15</text>
  <text class="axis" x="937.19" y="336" text-anchor="middle">2026-04-24</text>
  <text class="axis" x="976.00" y="336" text-anchor="end">2026-04-26</text>
  <text class="latest" x="976" y="34" text-anchor="end">Latest week: 579</text>
</svg>
