<?xml version="1.0" encoding="UTF-8"?>
<svg xmlns="http://www.w3.org/2000/svg" viewBox="0 0 1000 360" role="img" aria-label="hordesmod/kek-ui release downloads chart">
  <defs>
    <linearGradient id="fill-weekly-orange" x1="0" y1="0" x2="0" y2="1">
      <stop offset="0%" stop-color="#f97316" stop-opacity="0.32"/>
      <stop offset="100%" stop-color="#f97316" stop-opacity="0.05"/>
    </linearGradient>
    <style>
      .bg { fill: #fff7ed; }
      .title { font: 700 24px Arial, sans-serif; fill: #7c2d12; }
      .sub { font: 400 13px Arial, sans-serif; fill: #9a3412; }
      .grid { stroke: #fed7aa; stroke-width: 1; }
      .axis { font: 400 12px Arial, sans-serif; fill: #c2410c; }
      .line { fill: none; stroke: #ea580c; stroke-width: 3; stroke-linecap: round; stroke-linejoin: round; }
      .dot { fill: #ea580c; }
      .value { font: 600 11px Arial, sans-serif; fill: #9a3412; }
      .latest { font: 700 14px Arial, sans-serif; fill: #7c2d12; }
    </style>
  </defs>
  <rect class="bg" x="0" y="0" width="1000" height="360" rx="16" />
  <text class="title" x="64" y="34">hordesmod/kek-ui release downloads</text>
  <text class="sub" x="64" y="352">Generated 2026-04-30</text>
  <line x1="64" y1="52.00" x2="976" y2="52.00" class="grid"/>
  <text x="56" y="56.00" text-anchor="end" class="axis">648</text>
  <line x1="64" y1="94.00" x2="976" y2="94.00" class="grid"/>
  <text x="56" y="98.00" text-anchor="end" class="axis">540</text>
  <line x1="64" y1="136.00" x2="976" y2="136.00" class="grid"/>
  <text x="56" y="140.00" text-anchor="end" class="axis">432</text>
  <line x1="64" y1="178.00" x2="976" y2="178.00" class="grid"/>
  <text x="56" y="182.00" text-anchor="end" class="axis">324</text>
  <line x1="64" y1="220.00" x2="976" y2="220.00" class="grid"/>
  <text x="56" y="224.00" text-anchor="end" class="axis">216</text>
  <line x1="64" y1="262.00" x2="976" y2="262.00" class="grid"/>
  <text x="56" y="266.00" text-anchor="end" class="axis">108</text>
  <line x1="64" y1="304.00" x2="976" y2="304.00" class="grid"/>
  <text x="56" y="308.00" text-anchor="end" class="axis">0</text>
  <path d="M 64.00 304 L 64.00 304.00 L 81.88 277.17 L 99.76 248.00 L 117.65 223.11 L 135.53 210.67 L 153.41 198.61 L 171.29 185.39 L 189.18 171.78 L 207.06 182.28 L 224.94 199.78 L 242.82 214.17 L 260.71 215.72 L 278.59 214.17 L 296.47 210.28 L 314.35 213.78 L 332.24 217.28 L 350.12 203.67 L 368.00 183.06 L 385.88 162.44 L 403.76 124.72 L 421.65 105.28 L 439.53 83.89 L 457.41 58.61 L 475.29 52.00 L 493.18 53.94 L 511.06 53.56 L 528.94 69.11 L 546.82 67.56 L 564.71 68.72 L 582.59 76.11 L 600.47 74.17 L 618.35 71.06 L 636.24 67.94 L 654.12 67.56 L 672.00 72.22 L 689.88 72.61 L 707.76 68.33 L 725.65 71.06 L 743.53 71.06 L 761.41 71.83 L 779.29 72.22 L 797.18 71.44 L 815.06 69.50 L 832.94 75.33 L 850.82 74.17 L 868.71 74.56 L 886.59 74.17 L 904.47 78.83 L 922.35 80.00 L 940.24 79.61 L 958.12 75.33 L 976.00 76.89 L 976.00 304 Z" fill="url(#fill-weekly-orange)"/>
  <polyline class="line" points="64.00,304.00 81.88,277.17 99.76,248.00 117.65,223.11 135.53,210.67 153.41,198.61 171.29,185.39 189.18,171.78 207.06,182.28 224.94,199.78 242.82,214.17 260.71,215.72 278.59,214.17 296.47,210.28 314.35,213.78 332.24,217.28 350.12,203.67 368.00,183.06 385.88,162.44 403.76,124.72 421.65,105.28 439.53,83.89 457.41,58.61 475.29,52.00 493.18,53.94 511.06,53.56 528.94,69.11 546.82,67.56 564.71,68.72 582.59,76.11 600.47,74.17 618.35,71.06 636.24,67.94 654.12,67.56 672.00,72.22 689.88,72.61 707.76,68.33 725.65,71.06 743.53,71.06 761.41,71.83 779.29,72.22 797.18,71.44 815.06,69.50 832.94,75.33 850.82,74.17 868.71,74.56 886.59,74.17 904.47,78.83 922.35,80.00 940.24,79.61 958.12,75.33 976.00,76.89"/>
  <circle class="dot" cx="976.00" cy="76.89" r="4.5"/>
  
  <text class="axis" x="64.00" y="336" text-anchor="start">2026-03-10</text>
  <text class="axis" x="242.82" y="336" text-anchor="middle">2026-03-20</text>
  <text class="axis" x="421.65" y="336" text-anchor="middle">2026-03-30</text>
  <text class="axis" x="600.47" y="336" text-anchor="middle">2026-04-09</text>
  <text class="axis" x="779.29" y="336" text-anchor="middle">2026-04-19</text>
  <text class="axis" x="958.12" y="336" text-anchor="middle">2026-04-29</text>
  <text class="axis" x="976.00" y="336" text-anchor="end">2026-04-30</text>
  <text class="latest" x="976" y="34" text-anchor="end">Latest week: 584</text>
</svg>
