<?xml version="1.0" encoding="UTF-8"?>
<svg xmlns="http://www.w3.org/2000/svg" viewBox="0 0 1000 360" role="img" aria-label="hordesmod/kek-ui release downloads chart">
  <defs>
    <linearGradient id="fill-weekly-black" x1="0" y1="0" x2="0" y2="1">
      <stop offset="0%" stop-color="#22d3ee" stop-opacity="0.32"/>
      <stop offset="100%" stop-color="#22d3ee" stop-opacity="0.05"/>
    </linearGradient>
    <style>
      .bg { fill: #0b0b0d; }
      .title { font: 700 24px Arial, sans-serif; fill: #f8fafc; }
      .sub { font: 400 13px Arial, sans-serif; fill: #cbd5e1; }
      .grid { stroke: #1f2937; stroke-width: 1; }
      .axis { font: 400 12px Arial, sans-serif; fill: #94a3b8; }
      .line { fill: none; stroke: #22d3ee; stroke-width: 3; stroke-linecap: round; stroke-linejoin: round; }
      .dot { fill: #22d3ee; }
      .value { font: 600 11px Arial, sans-serif; fill: #cbd5e1; }
      .latest { font: 700 14px Arial, sans-serif; fill: #f8fafc; }
    </style>
  </defs>
  <rect class="bg" x="0" y="0" width="1000" height="360" rx="16" />
  <text class="title" x="64" y="34">hordesmod/kek-ui release downloads</text>
  <text class="sub" x="64" y="352">Generated 2026-05-16</text>
  <line x1="64" y1="52.00" x2="976" y2="52.00" class="grid"/>
  <text x="56" y="56.00" text-anchor="end" class="axis">648</text>
  <line x1="64" y1="94.00" x2="976" y2="94.00" class="grid"/>
  <text x="56" y="98.00" text-anchor="end" class="axis">540</text>
  <line x1="64" y1="136.00" x2="976" y2="136.00" class="grid"/>
  <text x="56" y="140.00" text-anchor="end" class="axis">432</text>
  <line x1="64" y1="178.00" x2="976" y2="178.00" class="grid"/>
  <text x="56" y="182.00" text-anchor="end" class="axis">324</text>
  <line x1="64" y1="220.00" x2="976" y2="220.00" class="grid"/>
  <text x="56" y="224.00" text-anchor="end" class="axis">216</text>
  <line x1="64" y1="262.00" x2="976" y2="262.00" class="grid"/>
  <text x="56" y="266.00" text-anchor="end" class="axis">108</text>
  <line x1="64" y1="304.00" x2="976" y2="304.00" class="grid"/>
  <text x="56" y="308.00" text-anchor="end" class="axis">0</text>
  <path d="M 64.00 304 L 64.00 304.00 L 77.61 277.17 L 91.22 248.00 L 104.84 223.11 L 118.45 210.67 L 132.06 198.61 L 145.67 185.39 L 159.28 171.78 L 172.90 182.28 L 186.51 199.78 L 200.12 214.17 L 213.73 215.72 L 227.34 214.17 L 240.96 210.28 L 254.57 213.78 L 268.18 217.28 L 281.79 203.67 L 295.40 183.06 L 309.01 162.44 L 322.63 124.72 L 336.24 105.28 L 349.85 83.89 L 363.46 58.61 L 377.07 52.00 L 390.69 53.94 L 404.30 53.56 L 417.91 69.11 L 431.52 67.56 L 445.13 68.72 L 458.75 76.11 L 472.36 74.17 L 485.97 71.06 L 499.58 67.94 L 513.19 67.56 L 526.81 72.22 L 540.42 72.61 L 554.03 68.33 L 567.64 71.06 L 581.25 71.06 L 594.87 71.83 L 608.48 72.22 L 622.09 71.44 L 635.70 69.50 L 649.31 75.33 L 662.93 74.17 L 676.54 74.56 L 690.15 74.17 L 703.76 78.83 L 717.37 80.00 L 730.99 79.61 L 744.60 75.33 L 758.21 76.89 L 771.82 76.50 L 785.43 81.17 L 799.04 75.33 L 812.66 73.78 L 826.27 68.72 L 839.88 64.44 L 853.49 64.83 L 867.10 68.33 L 880.72 63.28 L 894.33 69.11 L 907.94 70.67 L 921.55 74.17 L 935.16 81.56 L 948.78 80.39 L 962.39 81.56 L 976.00 82.33 L 976.00 304 Z" fill="url(#fill-weekly-black)"/>
  <polyline class="line" points="64.00,304.00 77.61,277.17 91.22,248.00 104.84,223.11 118.45,210.67 132.06,198.61 145.67,185.39 159.28,171.78 172.90,182.28 186.51,199.78 200.12,214.17 213.73,215.72 227.34,214.17 240.96,210.28 254.57,213.78 268.18,217.28 281.79,203.67 295.40,183.06 309.01,162.44 322.63,124.72 336.24,105.28 349.85,83.89 363.46,58.61 377.07,52.00 390.69,53.94 404.30,53.56 417.91,69.11 431.52,67.56 445.13,68.72 458.75,76.11 472.36,74.17 485.97,71.06 499.58,67.94 513.19,67.56 526.81,72.22 540.42,72.61 554.03,68.33 567.64,71.06 581.25,71.06 594.87,71.83 608.48,72.22 622.09,71.44 635.70,69.50 649.31,75.33 662.93,74.17 676.54,74.56 690.15,74.17 703.76,78.83 717.37,80.00 730.99,79.61 744.60,75.33 758.21,76.89 771.82,76.50 785.43,81.17 799.04,75.33 812.66,73.78 826.27,68.72 839.88,64.44 853.49,64.83 867.10,68.33 880.72,63.28 894.33,69.11 907.94,70.67 921.55,74.17 935.16,81.56 948.78,80.39 962.39,81.56 976.00,82.33"/>
  <circle class="dot" cx="976.00" cy="82.33" r="4.5"/>
  
  <text class="axis" x="64.00" y="336" text-anchor="start">2026-03-10</text>
  <text class="axis" x="240.96" y="336" text-anchor="middle">2026-03-23</text>
  <text class="axis" x="417.91" y="336" text-anchor="middle">2026-04-05</text>
  <text class="axis" x="594.87" y="336" text-anchor="middle">2026-04-18</text>
  <text class="axis" x="771.82" y="336" text-anchor="middle">2026-05-01</text>
  <text class="axis" x="948.78" y="336" text-anchor="middle">2026-05-14</text>
  <text class="axis" x="976.00" y="336" text-anchor="end">2026-05-16</text>
  <text class="latest" x="976" y="34" text-anchor="end">Latest week: 570</text>
</svg>
