<?xml version="1.0" encoding="UTF-8"?>
<svg xmlns="http://www.w3.org/2000/svg" viewBox="0 0 1000 360" role="img" aria-label="hordesmod/kek-ui release downloads chart">
  <defs>
    <linearGradient id="fill-weekly-orange" x1="0" y1="0" x2="0" y2="1">
      <stop offset="0%" stop-color="#f97316" stop-opacity="0.32"/>
      <stop offset="100%" stop-color="#f97316" stop-opacity="0.05"/>
    </linearGradient>
    <style>
      .bg { fill: #fff7ed; }
      .title { font: 700 24px Arial, sans-serif; fill: #7c2d12; }
      .sub { font: 400 13px Arial, sans-serif; fill: #9a3412; }
      .grid { stroke: #fed7aa; stroke-width: 1; }
      .axis { font: 400 12px Arial, sans-serif; fill: #c2410c; }
      .line { fill: none; stroke: #ea580c; stroke-width: 3; stroke-linecap: round; stroke-linejoin: round; }
      .dot { fill: #ea580c; }
      .value { font: 600 11px Arial, sans-serif; fill: #9a3412; }
      .latest { font: 700 14px Arial, sans-serif; fill: #7c2d12; }
    </style>
  </defs>
  <rect class="bg" x="0" y="0" width="1000" height="360" rx="16" />
  <text class="title" x="64" y="34">hordesmod/kek-ui release downloads</text>
  <text class="sub" x="64" y="352">Generated 2026-04-21</text>
  <line x1="64" y1="52.00" x2="976" y2="52.00" class="grid"/>
  <text x="56" y="56.00" text-anchor="end" class="axis">648</text>
  <line x1="64" y1="94.00" x2="976" y2="94.00" class="grid"/>
  <text x="56" y="98.00" text-anchor="end" class="axis">540</text>
  <line x1="64" y1="136.00" x2="976" y2="136.00" class="grid"/>
  <text x="56" y="140.00" text-anchor="end" class="axis">432</text>
  <line x1="64" y1="178.00" x2="976" y2="178.00" class="grid"/>
  <text x="56" y="182.00" text-anchor="end" class="axis">324</text>
  <line x1="64" y1="220.00" x2="976" y2="220.00" class="grid"/>
  <text x="56" y="224.00" text-anchor="end" class="axis">216</text>
  <line x1="64" y1="262.00" x2="976" y2="262.00" class="grid"/>
  <text x="56" y="266.00" text-anchor="end" class="axis">108</text>
  <line x1="64" y1="304.00" x2="976" y2="304.00" class="grid"/>
  <text x="56" y="308.00" text-anchor="end" class="axis">0</text>
  <path d="M 64.00 304 L 64.00 304.00 L 85.71 277.17 L 107.43 248.00 L 129.14 223.11 L 150.86 210.67 L 172.57 198.61 L 194.29 185.39 L 216.00 171.78 L 237.71 182.28 L 259.43 199.78 L 281.14 214.17 L 302.86 215.72 L 324.57 214.17 L 346.29 210.28 L 368.00 213.78 L 389.71 217.28 L 411.43 203.67 L 433.14 183.06 L 454.86 162.44 L 476.57 124.72 L 498.29 105.28 L 520.00 83.89 L 541.71 58.61 L 563.43 52.00 L 585.14 53.94 L 606.86 53.56 L 628.57 69.11 L 650.29 67.56 L 672.00 68.72 L 693.71 76.11 L 715.43 74.17 L 737.14 71.06 L 758.86 67.94 L 780.57 67.56 L 802.29 72.22 L 824.00 72.61 L 845.71 68.33 L 867.43 71.06 L 889.14 71.06 L 910.86 71.83 L 932.57 72.22 L 954.29 71.44 L 976.00 69.50 L 976.00 304 Z" fill="url(#fill-weekly-orange)"/>
  <polyline class="line" points="64.00,304.00 85.71,277.17 107.43,248.00 129.14,223.11 150.86,210.67 172.57,198.61 194.29,185.39 216.00,171.78 237.71,182.28 259.43,199.78 281.14,214.17 302.86,215.72 324.57,214.17 346.29,210.28 368.00,213.78 389.71,217.28 411.43,203.67 433.14,183.06 454.86,162.44 476.57,124.72 498.29,105.28 520.00,83.89 541.71,58.61 563.43,52.00 585.14,53.94 606.86,53.56 628.57,69.11 650.29,67.56 672.00,68.72 693.71,76.11 715.43,74.17 737.14,71.06 758.86,67.94 780.57,67.56 802.29,72.22 824.00,72.61 845.71,68.33 867.43,71.06 889.14,71.06 910.86,71.83 932.57,72.22 954.29,71.44 976.00,69.50"/>
  <circle class="dot" cx="976.00" cy="69.50" r="4.5"/>
  
  <text class="axis" x="64.00" y="336" text-anchor="start">2026-03-10</text>
  <text class="axis" x="237.71" y="336" text-anchor="middle">2026-03-18</text>
  <text class="axis" x="411.43" y="336" text-anchor="middle">2026-03-26</text>
  <text class="axis" x="585.14" y="336" text-anchor="middle">2026-04-03</text>
  <text class="axis" x="758.86" y="336" text-anchor="middle">2026-04-11</text>
  <text class="axis" x="932.57" y="336" text-anchor="middle">2026-04-19</text>
  <text class="axis" x="976.00" y="336" text-anchor="end">2026-04-21</text>
  <text class="latest" x="976" y="34" text-anchor="end">Latest week: 603</text>
</svg>
