<?xml version="1.0" encoding="UTF-8"?>
<svg xmlns="http://www.w3.org/2000/svg" viewBox="0 0 1000 360" role="img" aria-label="hordesmod/kek-ui release downloads chart">
  <defs>
    <linearGradient id="fill-weekly-orange" x1="0" y1="0" x2="0" y2="1">
      <stop offset="0%" stop-color="#f97316" stop-opacity="0.32"/>
      <stop offset="100%" stop-color="#f97316" stop-opacity="0.05"/>
    </linearGradient>
    <style>
      .bg { fill: #fff7ed; }
      .title { font: 700 24px Arial, sans-serif; fill: #7c2d12; }
      .sub { font: 400 13px Arial, sans-serif; fill: #9a3412; }
      .grid { stroke: #fed7aa; stroke-width: 1; }
      .axis { font: 400 12px Arial, sans-serif; fill: #c2410c; }
      .line { fill: none; stroke: #ea580c; stroke-width: 3; stroke-linecap: round; stroke-linejoin: round; }
      .dot { fill: #ea580c; }
      .value { font: 600 11px Arial, sans-serif; fill: #9a3412; }
      .latest { font: 700 14px Arial, sans-serif; fill: #7c2d12; }
    </style>
  </defs>
  <rect class="bg" x="0" y="0" width="1000" height="360" rx="16" />
  <text class="title" x="64" y="34">hordesmod/kek-ui release downloads</text>
  <text class="sub" x="64" y="352">Generated 2026-04-19</text>
  <line x1="64" y1="52.00" x2="976" y2="52.00" class="grid"/>
  <text x="56" y="56.00" text-anchor="end" class="axis">648</text>
  <line x1="64" y1="94.00" x2="976" y2="94.00" class="grid"/>
  <text x="56" y="98.00" text-anchor="end" class="axis">540</text>
  <line x1="64" y1="136.00" x2="976" y2="136.00" class="grid"/>
  <text x="56" y="140.00" text-anchor="end" class="axis">432</text>
  <line x1="64" y1="178.00" x2="976" y2="178.00" class="grid"/>
  <text x="56" y="182.00" text-anchor="end" class="axis">324</text>
  <line x1="64" y1="220.00" x2="976" y2="220.00" class="grid"/>
  <text x="56" y="224.00" text-anchor="end" class="axis">216</text>
  <line x1="64" y1="262.00" x2="976" y2="262.00" class="grid"/>
  <text x="56" y="266.00" text-anchor="end" class="axis">108</text>
  <line x1="64" y1="304.00" x2="976" y2="304.00" class="grid"/>
  <text x="56" y="308.00" text-anchor="end" class="axis">0</text>
  <path d="M 64.00 304 L 64.00 304.00 L 86.80 277.17 L 109.60 248.00 L 132.40 223.11 L 155.20 210.67 L 178.00 198.61 L 200.80 185.39 L 223.60 171.78 L 246.40 182.28 L 269.20 199.78 L 292.00 214.17 L 314.80 215.72 L 337.60 214.17 L 360.40 210.28 L 383.20 213.78 L 406.00 217.28 L 428.80 203.67 L 451.60 183.06 L 474.40 162.44 L 497.20 124.72 L 520.00 105.28 L 542.80 83.89 L 565.60 58.61 L 588.40 52.00 L 611.20 53.94 L 634.00 53.56 L 656.80 69.11 L 679.60 67.56 L 702.40 68.72 L 725.20 76.11 L 748.00 74.17 L 770.80 71.06 L 793.60 67.94 L 816.40 67.56 L 839.20 72.22 L 862.00 72.61 L 884.80 68.33 L 907.60 71.06 L 930.40 71.06 L 953.20 71.83 L 976.00 72.22 L 976.00 304 Z" fill="url(#fill-weekly-orange)"/>
  <polyline class="line" points="64.00,304.00 86.80,277.17 109.60,248.00 132.40,223.11 155.20,210.67 178.00,198.61 200.80,185.39 223.60,171.78 246.40,182.28 269.20,199.78 292.00,214.17 314.80,215.72 337.60,214.17 360.40,210.28 383.20,213.78 406.00,217.28 428.80,203.67 451.60,183.06 474.40,162.44 497.20,124.72 520.00,105.28 542.80,83.89 565.60,58.61 588.40,52.00 611.20,53.94 634.00,53.56 656.80,69.11 679.60,67.56 702.40,68.72 725.20,76.11 748.00,74.17 770.80,71.06 793.60,67.94 816.40,67.56 839.20,72.22 862.00,72.61 884.80,68.33 907.60,71.06 930.40,71.06 953.20,71.83 976.00,72.22"/>
  <circle class="dot" cx="976.00" cy="72.22" r="4.5"/>
  
  <text class="axis" x="64.00" y="336" text-anchor="start">2026-03-10</text>
  <text class="axis" x="246.40" y="336" text-anchor="middle">2026-03-18</text>
  <text class="axis" x="428.80" y="336" text-anchor="middle">2026-03-26</text>
  <text class="axis" x="611.20" y="336" text-anchor="middle">2026-04-03</text>
  <text class="axis" x="793.60" y="336" text-anchor="middle">2026-04-11</text>
  <text class="axis" x="976.00" y="336" text-anchor="end">2026-04-19</text>
  <text class="latest" x="976" y="34" text-anchor="end">Latest week: 596</text>
</svg>
