<?xml version="1.0" encoding="UTF-8"?>
<svg xmlns="http://www.w3.org/2000/svg" viewBox="0 0 1000 360" role="img" aria-label="hordesmod/kek-ui release downloads chart">
  <defs>
    <linearGradient id="fill-weekly-black" x1="0" y1="0" x2="0" y2="1">
      <stop offset="0%" stop-color="#22d3ee" stop-opacity="0.32"/>
      <stop offset="100%" stop-color="#22d3ee" stop-opacity="0.05"/>
    </linearGradient>
    <style>
      .bg { fill: #0b0b0d; }
      .title { font: 700 24px Arial, sans-serif; fill: #f8fafc; }
      .sub { font: 400 13px Arial, sans-serif; fill: #cbd5e1; }
      .grid { stroke: #1f2937; stroke-width: 1; }
      .axis { font: 400 12px Arial, sans-serif; fill: #94a3b8; }
      .line { fill: none; stroke: #22d3ee; stroke-width: 3; stroke-linecap: round; stroke-linejoin: round; }
      .dot { fill: #22d3ee; }
      .value { font: 600 11px Arial, sans-serif; fill: #cbd5e1; }
      .latest { font: 700 14px Arial, sans-serif; fill: #f8fafc; }
    </style>
  </defs>
  <rect class="bg" x="0" y="0" width="1000" height="360" rx="16" />
  <text class="title" x="64" y="34">hordesmod/kek-ui release downloads</text>
  <text class="sub" x="64" y="352">Generated 2026-05-10</text>
  <line x1="64" y1="52.00" x2="976" y2="52.00" class="grid"/>
  <text x="56" y="56.00" text-anchor="end" class="axis">648</text>
  <line x1="64" y1="94.00" x2="976" y2="94.00" class="grid"/>
  <text x="56" y="98.00" text-anchor="end" class="axis">540</text>
  <line x1="64" y1="136.00" x2="976" y2="136.00" class="grid"/>
  <text x="56" y="140.00" text-anchor="end" class="axis">432</text>
  <line x1="64" y1="178.00" x2="976" y2="178.00" class="grid"/>
  <text x="56" y="182.00" text-anchor="end" class="axis">324</text>
  <line x1="64" y1="220.00" x2="976" y2="220.00" class="grid"/>
  <text x="56" y="224.00" text-anchor="end" class="axis">216</text>
  <line x1="64" y1="262.00" x2="976" y2="262.00" class="grid"/>
  <text x="56" y="266.00" text-anchor="end" class="axis">108</text>
  <line x1="64" y1="304.00" x2="976" y2="304.00" class="grid"/>
  <text x="56" y="308.00" text-anchor="end" class="axis">0</text>
  <path d="M 64.00 304 L 64.00 304.00 L 78.95 277.17 L 93.90 248.00 L 108.85 223.11 L 123.80 210.67 L 138.75 198.61 L 153.70 185.39 L 168.66 171.78 L 183.61 182.28 L 198.56 199.78 L 213.51 214.17 L 228.46 215.72 L 243.41 214.17 L 258.36 210.28 L 273.31 213.78 L 288.26 217.28 L 303.21 203.67 L 318.16 183.06 L 333.11 162.44 L 348.07 124.72 L 363.02 105.28 L 377.97 83.89 L 392.92 58.61 L 407.87 52.00 L 422.82 53.94 L 437.77 53.56 L 452.72 69.11 L 467.67 67.56 L 482.62 68.72 L 497.57 76.11 L 512.52 74.17 L 527.48 71.06 L 542.43 67.94 L 557.38 67.56 L 572.33 72.22 L 587.28 72.61 L 602.23 68.33 L 617.18 71.06 L 632.13 71.06 L 647.08 71.83 L 662.03 72.22 L 676.98 71.44 L 691.93 69.50 L 706.89 75.33 L 721.84 74.17 L 736.79 74.56 L 751.74 74.17 L 766.69 78.83 L 781.64 80.00 L 796.59 79.61 L 811.54 75.33 L 826.49 76.89 L 841.44 76.50 L 856.39 81.17 L 871.34 75.33 L 886.30 73.78 L 901.25 68.72 L 916.20 64.44 L 931.15 64.83 L 946.10 68.33 L 961.05 63.28 L 976.00 69.11 L 976.00 304 Z" fill="url(#fill-weekly-black)"/>
  <polyline class="line" points="64.00,304.00 78.95,277.17 93.90,248.00 108.85,223.11 123.80,210.67 138.75,198.61 153.70,185.39 168.66,171.78 183.61,182.28 198.56,199.78 213.51,214.17 228.46,215.72 243.41,214.17 258.36,210.28 273.31,213.78 288.26,217.28 303.21,203.67 318.16,183.06 333.11,162.44 348.07,124.72 363.02,105.28 377.97,83.89 392.92,58.61 407.87,52.00 422.82,53.94 437.77,53.56 452.72,69.11 467.67,67.56 482.62,68.72 497.57,76.11 512.52,74.17 527.48,71.06 542.43,67.94 557.38,67.56 572.33,72.22 587.28,72.61 602.23,68.33 617.18,71.06 632.13,71.06 647.08,71.83 662.03,72.22 676.98,71.44 691.93,69.50 706.89,75.33 721.84,74.17 736.79,74.56 751.74,74.17 766.69,78.83 781.64,80.00 796.59,79.61 811.54,75.33 826.49,76.89 841.44,76.50 856.39,81.17 871.34,75.33 886.30,73.78 901.25,68.72 916.20,64.44 931.15,64.83 946.10,68.33 961.05,63.28 976.00,69.11"/>
  <circle class="dot" cx="976.00" cy="69.11" r="4.5"/>
  
  <text class="axis" x="64.00" y="336" text-anchor="start">2026-03-10</text>
  <text class="axis" x="243.41" y="336" text-anchor="middle">2026-03-22</text>
  <text class="axis" x="422.82" y="336" text-anchor="middle">2026-04-03</text>
  <text class="axis" x="602.23" y="336" text-anchor="middle">2026-04-15</text>
  <text class="axis" x="781.64" y="336" text-anchor="middle">2026-04-27</text>
  <text class="axis" x="961.05" y="336" text-anchor="middle">2026-05-09</text>
  <text class="axis" x="976.00" y="336" text-anchor="end">2026-05-10</text>
  <text class="latest" x="976" y="34" text-anchor="end">Latest week: 604</text>
</svg>
