<?xml version="1.0" encoding="UTF-8"?>
<svg xmlns="http://www.w3.org/2000/svg" viewBox="0 0 1000 360" role="img" aria-label="hordesmod/kek-ui release downloads chart">
  <defs>
    <linearGradient id="fill-weekly-black" x1="0" y1="0" x2="0" y2="1">
      <stop offset="0%" stop-color="#22d3ee" stop-opacity="0.32"/>
      <stop offset="100%" stop-color="#22d3ee" stop-opacity="0.05"/>
    </linearGradient>
    <style>
      .bg { fill: #0b0b0d; }
      .title { font: 700 24px Arial, sans-serif; fill: #f8fafc; }
      .sub { font: 400 13px Arial, sans-serif; fill: #cbd5e1; }
      .grid { stroke: #1f2937; stroke-width: 1; }
      .axis { font: 400 12px Arial, sans-serif; fill: #94a3b8; }
      .line { fill: none; stroke: #22d3ee; stroke-width: 3; stroke-linecap: round; stroke-linejoin: round; }
      .dot { fill: #22d3ee; }
      .value { font: 600 11px Arial, sans-serif; fill: #cbd5e1; }
      .latest { font: 700 14px Arial, sans-serif; fill: #f8fafc; }
    </style>
  </defs>
  <rect class="bg" x="0" y="0" width="1000" height="360" rx="16" />
  <text class="title" x="64" y="34">hordesmod/kek-ui release downloads</text>
  <text class="sub" x="64" y="352">Generated 2026-05-17</text>
  <line x1="64" y1="52.00" x2="976" y2="52.00" class="grid"/>
  <text x="56" y="56.00" text-anchor="end" class="axis">648</text>
  <line x1="64" y1="94.00" x2="976" y2="94.00" class="grid"/>
  <text x="56" y="98.00" text-anchor="end" class="axis">540</text>
  <line x1="64" y1="136.00" x2="976" y2="136.00" class="grid"/>
  <text x="56" y="140.00" text-anchor="end" class="axis">432</text>
  <line x1="64" y1="178.00" x2="976" y2="178.00" class="grid"/>
  <text x="56" y="182.00" text-anchor="end" class="axis">324</text>
  <line x1="64" y1="220.00" x2="976" y2="220.00" class="grid"/>
  <text x="56" y="224.00" text-anchor="end" class="axis">216</text>
  <line x1="64" y1="262.00" x2="976" y2="262.00" class="grid"/>
  <text x="56" y="266.00" text-anchor="end" class="axis">108</text>
  <line x1="64" y1="304.00" x2="976" y2="304.00" class="grid"/>
  <text x="56" y="308.00" text-anchor="end" class="axis">0</text>
  <path d="M 64.00 304 L 64.00 304.00 L 77.41 277.17 L 90.82 248.00 L 104.24 223.11 L 117.65 210.67 L 131.06 198.61 L 144.47 185.39 L 157.88 171.78 L 171.29 182.28 L 184.71 199.78 L 198.12 214.17 L 211.53 215.72 L 224.94 214.17 L 238.35 210.28 L 251.76 213.78 L 265.18 217.28 L 278.59 203.67 L 292.00 183.06 L 305.41 162.44 L 318.82 124.72 L 332.24 105.28 L 345.65 83.89 L 359.06 58.61 L 372.47 52.00 L 385.88 53.94 L 399.29 53.56 L 412.71 69.11 L 426.12 67.56 L 439.53 68.72 L 452.94 76.11 L 466.35 74.17 L 479.76 71.06 L 493.18 67.94 L 506.59 67.56 L 520.00 72.22 L 533.41 72.61 L 546.82 68.33 L 560.24 71.06 L 573.65 71.06 L 587.06 71.83 L 600.47 72.22 L 613.88 71.44 L 627.29 69.50 L 640.71 75.33 L 654.12 74.17 L 667.53 74.56 L 680.94 74.17 L 694.35 78.83 L 707.76 80.00 L 721.18 79.61 L 734.59 75.33 L 748.00 76.89 L 761.41 76.50 L 774.82 81.17 L 788.24 75.33 L 801.65 73.78 L 815.06 68.72 L 828.47 64.44 L 841.88 64.83 L 855.29 68.33 L 868.71 63.28 L 882.12 69.11 L 895.53 70.67 L 908.94 74.17 L 922.35 81.56 L 935.76 80.39 L 949.18 81.56 L 962.59 82.33 L 976.00 79.22 L 976.00 304 Z" fill="url(#fill-weekly-black)"/>
  <polyline class="line" points="64.00,304.00 77.41,277.17 90.82,248.00 104.24,223.11 117.65,210.67 131.06,198.61 144.47,185.39 157.88,171.78 171.29,182.28 184.71,199.78 198.12,214.17 211.53,215.72 224.94,214.17 238.35,210.28 251.76,213.78 265.18,217.28 278.59,203.67 292.00,183.06 305.41,162.44 318.82,124.72 332.24,105.28 345.65,83.89 359.06,58.61 372.47,52.00 385.88,53.94 399.29,53.56 412.71,69.11 426.12,67.56 439.53,68.72 452.94,76.11 466.35,74.17 479.76,71.06 493.18,67.94 506.59,67.56 520.00,72.22 533.41,72.61 546.82,68.33 560.24,71.06 573.65,71.06 587.06,71.83 600.47,72.22 613.88,71.44 627.29,69.50 640.71,75.33 654.12,74.17 667.53,74.56 680.94,74.17 694.35,78.83 707.76,80.00 721.18,79.61 734.59,75.33 748.00,76.89 761.41,76.50 774.82,81.17 788.24,75.33 801.65,73.78 815.06,68.72 828.47,64.44 841.88,64.83 855.29,68.33 868.71,63.28 882.12,69.11 895.53,70.67 908.94,74.17 922.35,81.56 935.76,80.39 949.18,81.56 962.59,82.33 976.00,79.22"/>
  <circle class="dot" cx="976.00" cy="79.22" r="4.5"/>
  
  <text class="axis" x="64.00" y="336" text-anchor="start">2026-03-10</text>
  <text class="axis" x="238.35" y="336" text-anchor="middle">2026-03-23</text>
  <text class="axis" x="412.71" y="336" text-anchor="middle">2026-04-05</text>
  <text class="axis" x="587.06" y="336" text-anchor="middle">2026-04-18</text>
  <text class="axis" x="761.41" y="336" text-anchor="middle">2026-05-01</text>
  <text class="axis" x="935.76" y="336" text-anchor="middle">2026-05-14</text>
  <text class="axis" x="976.00" y="336" text-anchor="end">2026-05-17</text>
  <text class="latest" x="976" y="34" text-anchor="end">Latest week: 578</text>
</svg>
