<?xml version="1.0" encoding="UTF-8"?>
<svg xmlns="http://www.w3.org/2000/svg" viewBox="0 0 1000 360" role="img" aria-label="hordesmod/kek-ui release downloads chart">
  <defs>
    <linearGradient id="fill-weekly-slate" x1="0" y1="0" x2="0" y2="1">
      <stop offset="0%" stop-color="#60a5fa" stop-opacity="0.32"/>
      <stop offset="100%" stop-color="#60a5fa" stop-opacity="0.05"/>
    </linearGradient>
    <style>
      .bg { fill: #0f172a; }
      .title { font: 700 24px Arial, sans-serif; fill: #e2e8f0; }
      .sub { font: 400 13px Arial, sans-serif; fill: #94a3b8; }
      .grid { stroke: #1e293b; stroke-width: 1; }
      .axis { font: 400 12px Arial, sans-serif; fill: #94a3b8; }
      .line { fill: none; stroke: #60a5fa; stroke-width: 3; stroke-linecap: round; stroke-linejoin: round; }
      .dot { fill: #60a5fa; }
      .value { font: 600 11px Arial, sans-serif; fill: #cbd5e1; }
      .latest { font: 700 14px Arial, sans-serif; fill: #e2e8f0; }
    </style>
  </defs>
  <rect class="bg" x="0" y="0" width="1000" height="360" rx="16" />
  <text class="title" x="64" y="34">hordesmod/kek-ui release downloads</text>
  <text class="sub" x="64" y="352">Generated 2026-05-09</text>
  <line x1="64" y1="52.00" x2="976" y2="52.00" class="grid"/>
  <text x="56" y="56.00" text-anchor="end" class="axis">648</text>
  <line x1="64" y1="94.00" x2="976" y2="94.00" class="grid"/>
  <text x="56" y="98.00" text-anchor="end" class="axis">540</text>
  <line x1="64" y1="136.00" x2="976" y2="136.00" class="grid"/>
  <text x="56" y="140.00" text-anchor="end" class="axis">432</text>
  <line x1="64" y1="178.00" x2="976" y2="178.00" class="grid"/>
  <text x="56" y="182.00" text-anchor="end" class="axis">324</text>
  <line x1="64" y1="220.00" x2="976" y2="220.00" class="grid"/>
  <text x="56" y="224.00" text-anchor="end" class="axis">216</text>
  <line x1="64" y1="262.00" x2="976" y2="262.00" class="grid"/>
  <text x="56" y="266.00" text-anchor="end" class="axis">108</text>
  <line x1="64" y1="304.00" x2="976" y2="304.00" class="grid"/>
  <text x="56" y="308.00" text-anchor="end" class="axis">0</text>
  <path d="M 64.00 304 L 64.00 304.00 L 79.20 277.17 L 94.40 248.00 L 109.60 223.11 L 124.80 210.67 L 140.00 198.61 L 155.20 185.39 L 170.40 171.78 L 185.60 182.28 L 200.80 199.78 L 216.00 214.17 L 231.20 215.72 L 246.40 214.17 L 261.60 210.28 L 276.80 213.78 L 292.00 217.28 L 307.20 203.67 L 322.40 183.06 L 337.60 162.44 L 352.80 124.72 L 368.00 105.28 L 383.20 83.89 L 398.40 58.61 L 413.60 52.00 L 428.80 53.94 L 444.00 53.56 L 459.20 69.11 L 474.40 67.56 L 489.60 68.72 L 504.80 76.11 L 520.00 74.17 L 535.20 71.06 L 550.40 67.94 L 565.60 67.56 L 580.80 72.22 L 596.00 72.61 L 611.20 68.33 L 626.40 71.06 L 641.60 71.06 L 656.80 71.83 L 672.00 72.22 L 687.20 71.44 L 702.40 69.50 L 717.60 75.33 L 732.80 74.17 L 748.00 74.56 L 763.20 74.17 L 778.40 78.83 L 793.60 80.00 L 808.80 79.61 L 824.00 75.33 L 839.20 76.89 L 854.40 76.50 L 869.60 81.17 L 884.80 75.33 L 900.00 73.78 L 915.20 68.72 L 930.40 64.44 L 945.60 64.83 L 960.80 68.33 L 976.00 63.28 L 976.00 304 Z" fill="url(#fill-weekly-slate)"/>
  <polyline class="line" points="64.00,304.00 79.20,277.17 94.40,248.00 109.60,223.11 124.80,210.67 140.00,198.61 155.20,185.39 170.40,171.78 185.60,182.28 200.80,199.78 216.00,214.17 231.20,215.72 246.40,214.17 261.60,210.28 276.80,213.78 292.00,217.28 307.20,203.67 322.40,183.06 337.60,162.44 352.80,124.72 368.00,105.28 383.20,83.89 398.40,58.61 413.60,52.00 428.80,53.94 444.00,53.56 459.20,69.11 474.40,67.56 489.60,68.72 504.80,76.11 520.00,74.17 535.20,71.06 550.40,67.94 565.60,67.56 580.80,72.22 596.00,72.61 611.20,68.33 626.40,71.06 641.60,71.06 656.80,71.83 672.00,72.22 687.20,71.44 702.40,69.50 717.60,75.33 732.80,74.17 748.00,74.56 763.20,74.17 778.40,78.83 793.60,80.00 808.80,79.61 824.00,75.33 839.20,76.89 854.40,76.50 869.60,81.17 884.80,75.33 900.00,73.78 915.20,68.72 930.40,64.44 945.60,64.83 960.80,68.33 976.00,63.28"/>
  <circle class="dot" cx="976.00" cy="63.28" r="4.5"/>
  
  <text class="axis" x="64.00" y="336" text-anchor="start">2026-03-10</text>
  <text class="axis" x="246.40" y="336" text-anchor="middle">2026-03-22</text>
  <text class="axis" x="428.80" y="336" text-anchor="middle">2026-04-03</text>
  <text class="axis" x="611.20" y="336" text-anchor="middle">2026-04-15</text>
  <text class="axis" x="793.60" y="336" text-anchor="middle">2026-04-27</text>
  <text class="axis" x="976.00" y="336" text-anchor="end">2026-05-09</text>
  <text class="latest" x="976" y="34" text-anchor="end">Latest week: 619</text>
</svg>
