<?xml version="1.0" encoding="UTF-8"?>
<svg xmlns="http://www.w3.org/2000/svg" viewBox="0 0 1000 360" role="img" aria-label="hordesmod/kek-ui release downloads chart">
  <defs>
    <linearGradient id="fill-weekly-slate" x1="0" y1="0" x2="0" y2="1">
      <stop offset="0%" stop-color="#60a5fa" stop-opacity="0.32"/>
      <stop offset="100%" stop-color="#60a5fa" stop-opacity="0.05"/>
    </linearGradient>
    <style>
      .bg { fill: #0f172a; }
      .title { font: 700 24px Arial, sans-serif; fill: #e2e8f0; }
      .sub { font: 400 13px Arial, sans-serif; fill: #94a3b8; }
      .grid { stroke: #1e293b; stroke-width: 1; }
      .axis { font: 400 12px Arial, sans-serif; fill: #94a3b8; }
      .line { fill: none; stroke: #60a5fa; stroke-width: 3; stroke-linecap: round; stroke-linejoin: round; }
      .dot { fill: #60a5fa; }
      .value { font: 600 11px Arial, sans-serif; fill: #cbd5e1; }
      .latest { font: 700 14px Arial, sans-serif; fill: #e2e8f0; }
    </style>
  </defs>
  <rect class="bg" x="0" y="0" width="1000" height="360" rx="16" />
  <text class="title" x="64" y="34">hordesmod/kek-ui release downloads</text>
  <text class="sub" x="64" y="352">Generated 2026-04-13</text>
  <line x1="64" y1="52.00" x2="976" y2="52.00" class="grid"/>
  <text x="56" y="56.00" text-anchor="end" class="axis">648</text>
  <line x1="64" y1="94.00" x2="976" y2="94.00" class="grid"/>
  <text x="56" y="98.00" text-anchor="end" class="axis">540</text>
  <line x1="64" y1="136.00" x2="976" y2="136.00" class="grid"/>
  <text x="56" y="140.00" text-anchor="end" class="axis">432</text>
  <line x1="64" y1="178.00" x2="976" y2="178.00" class="grid"/>
  <text x="56" y="182.00" text-anchor="end" class="axis">324</text>
  <line x1="64" y1="220.00" x2="976" y2="220.00" class="grid"/>
  <text x="56" y="224.00" text-anchor="end" class="axis">216</text>
  <line x1="64" y1="262.00" x2="976" y2="262.00" class="grid"/>
  <text x="56" y="266.00" text-anchor="end" class="axis">108</text>
  <line x1="64" y1="304.00" x2="976" y2="304.00" class="grid"/>
  <text x="56" y="308.00" text-anchor="end" class="axis">0</text>
  <path d="M 64.00 304 L 64.00 304.00 L 90.82 277.17 L 117.65 248.00 L 144.47 223.11 L 171.29 210.67 L 198.12 198.61 L 224.94 185.39 L 251.76 171.78 L 278.59 182.28 L 305.41 199.78 L 332.24 214.17 L 359.06 215.72 L 385.88 214.17 L 412.71 210.28 L 439.53 213.78 L 466.35 217.28 L 493.18 203.67 L 520.00 183.06 L 546.82 162.44 L 573.65 124.72 L 600.47 105.28 L 627.29 83.89 L 654.12 58.61 L 680.94 52.00 L 707.76 53.94 L 734.59 53.56 L 761.41 69.11 L 788.24 67.56 L 815.06 68.72 L 841.88 76.11 L 868.71 74.17 L 895.53 71.06 L 922.35 67.94 L 949.18 67.56 L 976.00 72.22 L 976.00 304 Z" fill="url(#fill-weekly-slate)"/>
  <polyline class="line" points="64.00,304.00 90.82,277.17 117.65,248.00 144.47,223.11 171.29,210.67 198.12,198.61 224.94,185.39 251.76,171.78 278.59,182.28 305.41,199.78 332.24,214.17 359.06,215.72 385.88,214.17 412.71,210.28 439.53,213.78 466.35,217.28 493.18,203.67 520.00,183.06 546.82,162.44 573.65,124.72 600.47,105.28 627.29,83.89 654.12,58.61 680.94,52.00 707.76,53.94 734.59,53.56 761.41,69.11 788.24,67.56 815.06,68.72 841.88,76.11 868.71,74.17 895.53,71.06 922.35,67.94 949.18,67.56 976.00,72.22"/>
  <circle class="dot" cx="976.00" cy="72.22" r="4.5"/>
  
  <text class="axis" x="64.00" y="336" text-anchor="start">2026-03-10</text>
  <text class="axis" x="224.94" y="336" text-anchor="middle">2026-03-16</text>
  <text class="axis" x="385.88" y="336" text-anchor="middle">2026-03-22</text>
  <text class="axis" x="546.82" y="336" text-anchor="middle">2026-03-28</text>
  <text class="axis" x="707.76" y="336" text-anchor="middle">2026-04-03</text>
  <text class="axis" x="868.71" y="336" text-anchor="middle">2026-04-09</text>
  <text class="axis" x="976.00" y="336" text-anchor="end">2026-04-13</text>
  <text class="latest" x="976" y="34" text-anchor="end">Latest week: 596</text>
</svg>
