<?xml version="1.0" encoding="UTF-8"?>
<svg xmlns="http://www.w3.org/2000/svg" viewBox="0 0 1000 360" role="img" aria-label="hordesmod/kek-ui release downloads chart">
  <defs>
    <linearGradient id="fill-weekly-orange" x1="0" y1="0" x2="0" y2="1">
      <stop offset="0%" stop-color="#f97316" stop-opacity="0.32"/>
      <stop offset="100%" stop-color="#f97316" stop-opacity="0.05"/>
    </linearGradient>
    <style>
      .bg { fill: #fff7ed; }
      .title { font: 700 24px Arial, sans-serif; fill: #7c2d12; }
      .sub { font: 400 13px Arial, sans-serif; fill: #9a3412; }
      .grid { stroke: #fed7aa; stroke-width: 1; }
      .axis { font: 400 12px Arial, sans-serif; fill: #c2410c; }
      .line { fill: none; stroke: #ea580c; stroke-width: 3; stroke-linecap: round; stroke-linejoin: round; }
      .dot { fill: #ea580c; }
      .value { font: 600 11px Arial, sans-serif; fill: #9a3412; }
      .latest { font: 700 14px Arial, sans-serif; fill: #7c2d12; }
    </style>
  </defs>
  <rect class="bg" x="0" y="0" width="1000" height="360" rx="16" />
  <text class="title" x="64" y="34">hordesmod/kek-ui release downloads</text>
  <text class="sub" x="64" y="352">Generated 2026-05-18</text>
  <line x1="64" y1="52.00" x2="976" y2="52.00" class="grid"/>
  <text x="56" y="56.00" text-anchor="end" class="axis">648</text>
  <line x1="64" y1="94.00" x2="976" y2="94.00" class="grid"/>
  <text x="56" y="98.00" text-anchor="end" class="axis">540</text>
  <line x1="64" y1="136.00" x2="976" y2="136.00" class="grid"/>
  <text x="56" y="140.00" text-anchor="end" class="axis">432</text>
  <line x1="64" y1="178.00" x2="976" y2="178.00" class="grid"/>
  <text x="56" y="182.00" text-anchor="end" class="axis">324</text>
  <line x1="64" y1="220.00" x2="976" y2="220.00" class="grid"/>
  <text x="56" y="224.00" text-anchor="end" class="axis">216</text>
  <line x1="64" y1="262.00" x2="976" y2="262.00" class="grid"/>
  <text x="56" y="266.00" text-anchor="end" class="axis">108</text>
  <line x1="64" y1="304.00" x2="976" y2="304.00" class="grid"/>
  <text x="56" y="308.00" text-anchor="end" class="axis">0</text>
  <path d="M 64.00 304 L 64.00 304.00 L 77.22 277.17 L 90.43 248.00 L 103.65 223.11 L 116.87 210.67 L 130.09 198.61 L 143.30 185.39 L 156.52 171.78 L 169.74 182.28 L 182.96 199.78 L 196.17 214.17 L 209.39 215.72 L 222.61 214.17 L 235.83 210.28 L 249.04 213.78 L 262.26 217.28 L 275.48 203.67 L 288.70 183.06 L 301.91 162.44 L 315.13 124.72 L 328.35 105.28 L 341.57 83.89 L 354.78 58.61 L 368.00 52.00 L 381.22 53.94 L 394.43 53.56 L 407.65 69.11 L 420.87 67.56 L 434.09 68.72 L 447.30 76.11 L 460.52 74.17 L 473.74 71.06 L 486.96 67.94 L 500.17 67.56 L 513.39 72.22 L 526.61 72.61 L 539.83 68.33 L 553.04 71.06 L 566.26 71.06 L 579.48 71.83 L 592.70 72.22 L 605.91 71.44 L 619.13 69.50 L 632.35 75.33 L 645.57 74.17 L 658.78 74.56 L 672.00 74.17 L 685.22 78.83 L 698.43 80.00 L 711.65 79.61 L 724.87 75.33 L 738.09 76.89 L 751.30 76.50 L 764.52 81.17 L 777.74 75.33 L 790.96 73.78 L 804.17 68.72 L 817.39 64.44 L 830.61 64.83 L 843.83 68.33 L 857.04 63.28 L 870.26 69.11 L 883.48 70.67 L 896.70 74.17 L 909.91 81.56 L 923.13 80.39 L 936.35 81.56 L 949.57 82.33 L 962.78 79.22 L 976.00 78.44 L 976.00 304 Z" fill="url(#fill-weekly-orange)"/>
  <polyline class="line" points="64.00,304.00 77.22,277.17 90.43,248.00 103.65,223.11 116.87,210.67 130.09,198.61 143.30,185.39 156.52,171.78 169.74,182.28 182.96,199.78 196.17,214.17 209.39,215.72 222.61,214.17 235.83,210.28 249.04,213.78 262.26,217.28 275.48,203.67 288.70,183.06 301.91,162.44 315.13,124.72 328.35,105.28 341.57,83.89 354.78,58.61 368.00,52.00 381.22,53.94 394.43,53.56 407.65,69.11 420.87,67.56 434.09,68.72 447.30,76.11 460.52,74.17 473.74,71.06 486.96,67.94 500.17,67.56 513.39,72.22 526.61,72.61 539.83,68.33 553.04,71.06 566.26,71.06 579.48,71.83 592.70,72.22 605.91,71.44 619.13,69.50 632.35,75.33 645.57,74.17 658.78,74.56 672.00,74.17 685.22,78.83 698.43,80.00 711.65,79.61 724.87,75.33 738.09,76.89 751.30,76.50 764.52,81.17 777.74,75.33 790.96,73.78 804.17,68.72 817.39,64.44 830.61,64.83 843.83,68.33 857.04,63.28 870.26,69.11 883.48,70.67 896.70,74.17 909.91,81.56 923.13,80.39 936.35,81.56 949.57,82.33 962.78,79.22 976.00,78.44"/>
  <circle class="dot" cx="976.00" cy="78.44" r="4.5"/>
  
  <text class="axis" x="64.00" y="336" text-anchor="start">2026-03-10</text>
  <text class="axis" x="235.83" y="336" text-anchor="middle">2026-03-23</text>
  <text class="axis" x="407.65" y="336" text-anchor="middle">2026-04-05</text>
  <text class="axis" x="579.48" y="336" text-anchor="middle">2026-04-18</text>
  <text class="axis" x="751.30" y="336" text-anchor="middle">2026-05-01</text>
  <text class="axis" x="923.13" y="336" text-anchor="middle">2026-05-14</text>
  <text class="axis" x="976.00" y="336" text-anchor="end">2026-05-18</text>
  <text class="latest" x="976" y="34" text-anchor="end">Latest week: 580</text>
</svg>
