<?xml version="1.0" encoding="UTF-8"?>
<svg xmlns="http://www.w3.org/2000/svg" viewBox="0 0 1000 360" role="img" aria-label="hordesmod/kek-ui release downloads chart">
  <defs>
    <linearGradient id="fill-weekly-slate" x1="0" y1="0" x2="0" y2="1">
      <stop offset="0%" stop-color="#60a5fa" stop-opacity="0.32"/>
      <stop offset="100%" stop-color="#60a5fa" stop-opacity="0.05"/>
    </linearGradient>
    <style>
      .bg { fill: #0f172a; }
      .title { font: 700 24px Arial, sans-serif; fill: #e2e8f0; }
      .sub { font: 400 13px Arial, sans-serif; fill: #94a3b8; }
      .grid { stroke: #1e293b; stroke-width: 1; }
      .axis { font: 400 12px Arial, sans-serif; fill: #94a3b8; }
      .line { fill: none; stroke: #60a5fa; stroke-width: 3; stroke-linecap: round; stroke-linejoin: round; }
      .dot { fill: #60a5fa; }
      .value { font: 600 11px Arial, sans-serif; fill: #cbd5e1; }
      .latest { font: 700 14px Arial, sans-serif; fill: #e2e8f0; }
    </style>
  </defs>
  <rect class="bg" x="0" y="0" width="1000" height="360" rx="16" />
  <text class="title" x="64" y="34">hordesmod/kek-ui release downloads</text>
  <text class="sub" x="64" y="352">Generated 2026-04-27</text>
  <line x1="64" y1="52.00" x2="976" y2="52.00" class="grid"/>
  <text x="56" y="56.00" text-anchor="end" class="axis">648</text>
  <line x1="64" y1="94.00" x2="976" y2="94.00" class="grid"/>
  <text x="56" y="98.00" text-anchor="end" class="axis">540</text>
  <line x1="64" y1="136.00" x2="976" y2="136.00" class="grid"/>
  <text x="56" y="140.00" text-anchor="end" class="axis">432</text>
  <line x1="64" y1="178.00" x2="976" y2="178.00" class="grid"/>
  <text x="56" y="182.00" text-anchor="end" class="axis">324</text>
  <line x1="64" y1="220.00" x2="976" y2="220.00" class="grid"/>
  <text x="56" y="224.00" text-anchor="end" class="axis">216</text>
  <line x1="64" y1="262.00" x2="976" y2="262.00" class="grid"/>
  <text x="56" y="266.00" text-anchor="end" class="axis">108</text>
  <line x1="64" y1="304.00" x2="976" y2="304.00" class="grid"/>
  <text x="56" y="308.00" text-anchor="end" class="axis">0</text>
  <path d="M 64.00 304 L 64.00 304.00 L 83.00 277.17 L 102.00 248.00 L 121.00 223.11 L 140.00 210.67 L 159.00 198.61 L 178.00 185.39 L 197.00 171.78 L 216.00 182.28 L 235.00 199.78 L 254.00 214.17 L 273.00 215.72 L 292.00 214.17 L 311.00 210.28 L 330.00 213.78 L 349.00 217.28 L 368.00 203.67 L 387.00 183.06 L 406.00 162.44 L 425.00 124.72 L 444.00 105.28 L 463.00 83.89 L 482.00 58.61 L 501.00 52.00 L 520.00 53.94 L 539.00 53.56 L 558.00 69.11 L 577.00 67.56 L 596.00 68.72 L 615.00 76.11 L 634.00 74.17 L 653.00 71.06 L 672.00 67.94 L 691.00 67.56 L 710.00 72.22 L 729.00 72.61 L 748.00 68.33 L 767.00 71.06 L 786.00 71.06 L 805.00 71.83 L 824.00 72.22 L 843.00 71.44 L 862.00 69.50 L 881.00 75.33 L 900.00 74.17 L 919.00 74.56 L 938.00 74.17 L 957.00 78.83 L 976.00 80.00 L 976.00 304 Z" fill="url(#fill-weekly-slate)"/>
  <polyline class="line" points="64.00,304.00 83.00,277.17 102.00,248.00 121.00,223.11 140.00,210.67 159.00,198.61 178.00,185.39 197.00,171.78 216.00,182.28 235.00,199.78 254.00,214.17 273.00,215.72 292.00,214.17 311.00,210.28 330.00,213.78 349.00,217.28 368.00,203.67 387.00,183.06 406.00,162.44 425.00,124.72 444.00,105.28 463.00,83.89 482.00,58.61 501.00,52.00 520.00,53.94 539.00,53.56 558.00,69.11 577.00,67.56 596.00,68.72 615.00,76.11 634.00,74.17 653.00,71.06 672.00,67.94 691.00,67.56 710.00,72.22 729.00,72.61 748.00,68.33 767.00,71.06 786.00,71.06 805.00,71.83 824.00,72.22 843.00,71.44 862.00,69.50 881.00,75.33 900.00,74.17 919.00,74.56 938.00,74.17 957.00,78.83 976.00,80.00"/>
  <circle class="dot" cx="976.00" cy="80.00" r="4.5"/>
  
  <text class="axis" x="64.00" y="336" text-anchor="start">2026-03-10</text>
  <text class="axis" x="235.00" y="336" text-anchor="middle">2026-03-19</text>
  <text class="axis" x="406.00" y="336" text-anchor="middle">2026-03-28</text>
  <text class="axis" x="577.00" y="336" text-anchor="middle">2026-04-06</text>
  <text class="axis" x="748.00" y="336" text-anchor="middle">2026-04-15</text>
  <text class="axis" x="919.00" y="336" text-anchor="middle">2026-04-24</text>
  <text class="axis" x="976.00" y="336" text-anchor="end">2026-04-27</text>
  <text class="latest" x="976" y="34" text-anchor="end">Latest week: 576</text>
</svg>
