<?xml version="1.0" encoding="UTF-8"?>
<svg xmlns="http://www.w3.org/2000/svg" viewBox="0 0 1000 360" role="img" aria-label="hordesmod/kek-ui release downloads chart">
  <defs>
    <linearGradient id="fill-weekly-black" x1="0" y1="0" x2="0" y2="1">
      <stop offset="0%" stop-color="#22d3ee" stop-opacity="0.32"/>
      <stop offset="100%" stop-color="#22d3ee" stop-opacity="0.05"/>
    </linearGradient>
    <style>
      .bg { fill: #0b0b0d; }
      .title { font: 700 24px Arial, sans-serif; fill: #f8fafc; }
      .sub { font: 400 13px Arial, sans-serif; fill: #cbd5e1; }
      .grid { stroke: #1f2937; stroke-width: 1; }
      .axis { font: 400 12px Arial, sans-serif; fill: #94a3b8; }
      .line { fill: none; stroke: #22d3ee; stroke-width: 3; stroke-linecap: round; stroke-linejoin: round; }
      .dot { fill: #22d3ee; }
      .value { font: 600 11px Arial, sans-serif; fill: #cbd5e1; }
      .latest { font: 700 14px Arial, sans-serif; fill: #f8fafc; }
    </style>
  </defs>
  <rect class="bg" x="0" y="0" width="1000" height="360" rx="16" />
  <text class="title" x="64" y="34">hordesmod/kek-ui release downloads</text>
  <text class="sub" x="64" y="352">Generated 2026-04-29</text>
  <line x1="64" y1="52.00" x2="976" y2="52.00" class="grid"/>
  <text x="56" y="56.00" text-anchor="end" class="axis">648</text>
  <line x1="64" y1="94.00" x2="976" y2="94.00" class="grid"/>
  <text x="56" y="98.00" text-anchor="end" class="axis">540</text>
  <line x1="64" y1="136.00" x2="976" y2="136.00" class="grid"/>
  <text x="56" y="140.00" text-anchor="end" class="axis">432</text>
  <line x1="64" y1="178.00" x2="976" y2="178.00" class="grid"/>
  <text x="56" y="182.00" text-anchor="end" class="axis">324</text>
  <line x1="64" y1="220.00" x2="976" y2="220.00" class="grid"/>
  <text x="56" y="224.00" text-anchor="end" class="axis">216</text>
  <line x1="64" y1="262.00" x2="976" y2="262.00" class="grid"/>
  <text x="56" y="266.00" text-anchor="end" class="axis">108</text>
  <line x1="64" y1="304.00" x2="976" y2="304.00" class="grid"/>
  <text x="56" y="308.00" text-anchor="end" class="axis">0</text>
  <path d="M 64.00 304 L 64.00 304.00 L 82.24 277.17 L 100.48 248.00 L 118.72 223.11 L 136.96 210.67 L 155.20 198.61 L 173.44 185.39 L 191.68 171.78 L 209.92 182.28 L 228.16 199.78 L 246.40 214.17 L 264.64 215.72 L 282.88 214.17 L 301.12 210.28 L 319.36 213.78 L 337.60 217.28 L 355.84 203.67 L 374.08 183.06 L 392.32 162.44 L 410.56 124.72 L 428.80 105.28 L 447.04 83.89 L 465.28 58.61 L 483.52 52.00 L 501.76 53.94 L 520.00 53.56 L 538.24 69.11 L 556.48 67.56 L 574.72 68.72 L 592.96 76.11 L 611.20 74.17 L 629.44 71.06 L 647.68 67.94 L 665.92 67.56 L 684.16 72.22 L 702.40 72.61 L 720.64 68.33 L 738.88 71.06 L 757.12 71.06 L 775.36 71.83 L 793.60 72.22 L 811.84 71.44 L 830.08 69.50 L 848.32 75.33 L 866.56 74.17 L 884.80 74.56 L 903.04 74.17 L 921.28 78.83 L 939.52 80.00 L 957.76 79.61 L 976.00 75.33 L 976.00 304 Z" fill="url(#fill-weekly-black)"/>
  <polyline class="line" points="64.00,304.00 82.24,277.17 100.48,248.00 118.72,223.11 136.96,210.67 155.20,198.61 173.44,185.39 191.68,171.78 209.92,182.28 228.16,199.78 246.40,214.17 264.64,215.72 282.88,214.17 301.12,210.28 319.36,213.78 337.60,217.28 355.84,203.67 374.08,183.06 392.32,162.44 410.56,124.72 428.80,105.28 447.04,83.89 465.28,58.61 483.52,52.00 501.76,53.94 520.00,53.56 538.24,69.11 556.48,67.56 574.72,68.72 592.96,76.11 611.20,74.17 629.44,71.06 647.68,67.94 665.92,67.56 684.16,72.22 702.40,72.61 720.64,68.33 738.88,71.06 757.12,71.06 775.36,71.83 793.60,72.22 811.84,71.44 830.08,69.50 848.32,75.33 866.56,74.17 884.80,74.56 903.04,74.17 921.28,78.83 939.52,80.00 957.76,79.61 976.00,75.33"/>
  <circle class="dot" cx="976.00" cy="75.33" r="4.5"/>
  
  <text class="axis" x="64.00" y="336" text-anchor="start">2026-03-10</text>
  <text class="axis" x="246.40" y="336" text-anchor="middle">2026-03-20</text>
  <text class="axis" x="428.80" y="336" text-anchor="middle">2026-03-30</text>
  <text class="axis" x="611.20" y="336" text-anchor="middle">2026-04-09</text>
  <text class="axis" x="793.60" y="336" text-anchor="middle">2026-04-19</text>
  <text class="axis" x="976.00" y="336" text-anchor="end">2026-04-29</text>
  <text class="latest" x="976" y="34" text-anchor="end">Latest week: 588</text>
</svg>
