<?xml version="1.0" encoding="UTF-8"?>
<svg xmlns="http://www.w3.org/2000/svg" viewBox="0 0 1000 360" role="img" aria-label="hordesmod/kek-ui release downloads chart">
  <defs>
    <linearGradient id="fill-weekly-black" x1="0" y1="0" x2="0" y2="1">
      <stop offset="0%" stop-color="#22d3ee" stop-opacity="0.32"/>
      <stop offset="100%" stop-color="#22d3ee" stop-opacity="0.05"/>
    </linearGradient>
    <style>
      .bg { fill: #0b0b0d; }
      .title { font: 700 24px Arial, sans-serif; fill: #f8fafc; }
      .sub { font: 400 13px Arial, sans-serif; fill: #cbd5e1; }
      .grid { stroke: #1f2937; stroke-width: 1; }
      .axis { font: 400 12px Arial, sans-serif; fill: #94a3b8; }
      .line { fill: none; stroke: #22d3ee; stroke-width: 3; stroke-linecap: round; stroke-linejoin: round; }
      .dot { fill: #22d3ee; }
      .value { font: 600 11px Arial, sans-serif; fill: #cbd5e1; }
      .latest { font: 700 14px Arial, sans-serif; fill: #f8fafc; }
    </style>
  </defs>
  <rect class="bg" x="0" y="0" width="1000" height="360" rx="16" />
  <text class="title" x="64" y="34">hordesmod/kek-ui release downloads</text>
  <text class="sub" x="64" y="352">Generated 2026-04-25</text>
  <line x1="64" y1="52.00" x2="976" y2="52.00" class="grid"/>
  <text x="56" y="56.00" text-anchor="end" class="axis">648</text>
  <line x1="64" y1="94.00" x2="976" y2="94.00" class="grid"/>
  <text x="56" y="98.00" text-anchor="end" class="axis">540</text>
  <line x1="64" y1="136.00" x2="976" y2="136.00" class="grid"/>
  <text x="56" y="140.00" text-anchor="end" class="axis">432</text>
  <line x1="64" y1="178.00" x2="976" y2="178.00" class="grid"/>
  <text x="56" y="182.00" text-anchor="end" class="axis">324</text>
  <line x1="64" y1="220.00" x2="976" y2="220.00" class="grid"/>
  <text x="56" y="224.00" text-anchor="end" class="axis">216</text>
  <line x1="64" y1="262.00" x2="976" y2="262.00" class="grid"/>
  <text x="56" y="266.00" text-anchor="end" class="axis">108</text>
  <line x1="64" y1="304.00" x2="976" y2="304.00" class="grid"/>
  <text x="56" y="308.00" text-anchor="end" class="axis">0</text>
  <path d="M 64.00 304 L 64.00 304.00 L 83.83 277.17 L 103.65 248.00 L 123.48 223.11 L 143.30 210.67 L 163.13 198.61 L 182.96 185.39 L 202.78 171.78 L 222.61 182.28 L 242.43 199.78 L 262.26 214.17 L 282.09 215.72 L 301.91 214.17 L 321.74 210.28 L 341.57 213.78 L 361.39 217.28 L 381.22 203.67 L 401.04 183.06 L 420.87 162.44 L 440.70 124.72 L 460.52 105.28 L 480.35 83.89 L 500.17 58.61 L 520.00 52.00 L 539.83 53.94 L 559.65 53.56 L 579.48 69.11 L 599.30 67.56 L 619.13 68.72 L 638.96 76.11 L 658.78 74.17 L 678.61 71.06 L 698.43 67.94 L 718.26 67.56 L 738.09 72.22 L 757.91 72.61 L 777.74 68.33 L 797.57 71.06 L 817.39 71.06 L 837.22 71.83 L 857.04 72.22 L 876.87 71.44 L 896.70 69.50 L 916.52 75.33 L 936.35 74.17 L 956.17 74.56 L 976.00 74.17 L 976.00 304 Z" fill="url(#fill-weekly-black)"/>
  <polyline class="line" points="64.00,304.00 83.83,277.17 103.65,248.00 123.48,223.11 143.30,210.67 163.13,198.61 182.96,185.39 202.78,171.78 222.61,182.28 242.43,199.78 262.26,214.17 282.09,215.72 301.91,214.17 321.74,210.28 341.57,213.78 361.39,217.28 381.22,203.67 401.04,183.06 420.87,162.44 440.70,124.72 460.52,105.28 480.35,83.89 500.17,58.61 520.00,52.00 539.83,53.94 559.65,53.56 579.48,69.11 599.30,67.56 619.13,68.72 638.96,76.11 658.78,74.17 678.61,71.06 698.43,67.94 718.26,67.56 738.09,72.22 757.91,72.61 777.74,68.33 797.57,71.06 817.39,71.06 837.22,71.83 857.04,72.22 876.87,71.44 896.70,69.50 916.52,75.33 936.35,74.17 956.17,74.56 976.00,74.17"/>
  <circle class="dot" cx="976.00" cy="74.17" r="4.5"/>
  
  <text class="axis" x="64.00" y="336" text-anchor="start">2026-03-10</text>
  <text class="axis" x="242.43" y="336" text-anchor="middle">2026-03-19</text>
  <text class="axis" x="420.87" y="336" text-anchor="middle">2026-03-28</text>
  <text class="axis" x="599.30" y="336" text-anchor="middle">2026-04-06</text>
  <text class="axis" x="777.74" y="336" text-anchor="middle">2026-04-15</text>
  <text class="axis" x="956.17" y="336" text-anchor="middle">2026-04-24</text>
  <text class="axis" x="976.00" y="336" text-anchor="end">2026-04-25</text>
  <text class="latest" x="976" y="34" text-anchor="end">Latest week: 591</text>
</svg>
