<?xml version="1.0" encoding="UTF-8"?>
<svg xmlns="http://www.w3.org/2000/svg" viewBox="0 0 1000 360" role="img" aria-label="hordesmod/kek-ui release downloads chart">
  <defs>
    <linearGradient id="fill-weekly-slate" x1="0" y1="0" x2="0" y2="1">
      <stop offset="0%" stop-color="#60a5fa" stop-opacity="0.32"/>
      <stop offset="100%" stop-color="#60a5fa" stop-opacity="0.05"/>
    </linearGradient>
    <style>
      .bg { fill: #0f172a; }
      .title { font: 700 24px Arial, sans-serif; fill: #e2e8f0; }
      .sub { font: 400 13px Arial, sans-serif; fill: #94a3b8; }
      .grid { stroke: #1e293b; stroke-width: 1; }
      .axis { font: 400 12px Arial, sans-serif; fill: #94a3b8; }
      .line { fill: none; stroke: #60a5fa; stroke-width: 3; stroke-linecap: round; stroke-linejoin: round; }
      .dot { fill: #60a5fa; }
      .value { font: 600 11px Arial, sans-serif; fill: #cbd5e1; }
      .latest { font: 700 14px Arial, sans-serif; fill: #e2e8f0; }
    </style>
  </defs>
  <rect class="bg" x="0" y="0" width="1000" height="360" rx="16" />
  <text class="title" x="64" y="34">hordesmod/kek-ui release downloads</text>
  <text class="sub" x="64" y="352">Generated 2026-06-03</text>
  <line x1="64" y1="52.00" x2="976" y2="52.00" class="grid"/>
  <text x="56" y="56.00" text-anchor="end" class="axis">648</text>
  <line x1="64" y1="94.00" x2="976" y2="94.00" class="grid"/>
  <text x="56" y="98.00" text-anchor="end" class="axis">540</text>
  <line x1="64" y1="136.00" x2="976" y2="136.00" class="grid"/>
  <text x="56" y="140.00" text-anchor="end" class="axis">432</text>
  <line x1="64" y1="178.00" x2="976" y2="178.00" class="grid"/>
  <text x="56" y="182.00" text-anchor="end" class="axis">324</text>
  <line x1="64" y1="220.00" x2="976" y2="220.00" class="grid"/>
  <text x="56" y="224.00" text-anchor="end" class="axis">216</text>
  <line x1="64" y1="262.00" x2="976" y2="262.00" class="grid"/>
  <text x="56" y="266.00" text-anchor="end" class="axis">108</text>
  <line x1="64" y1="304.00" x2="976" y2="304.00" class="grid"/>
  <text x="56" y="308.00" text-anchor="end" class="axis">0</text>
  <path d="M 64.00 304 L 64.00 304.00 L 74.73 277.17 L 85.46 248.00 L 96.19 223.11 L 106.92 210.67 L 117.65 198.61 L 128.38 185.39 L 139.11 171.78 L 149.84 182.28 L 160.56 199.78 L 171.29 214.17 L 182.02 215.72 L 192.75 214.17 L 203.48 210.28 L 214.21 213.78 L 224.94 217.28 L 235.67 203.67 L 246.40 183.06 L 257.13 162.44 L 267.86 124.72 L 278.59 105.28 L 289.32 83.89 L 300.05 58.61 L 310.78 52.00 L 321.51 53.94 L 332.24 53.56 L 342.96 69.11 L 353.69 67.56 L 364.42 68.72 L 375.15 76.11 L 385.88 74.17 L 396.61 71.06 L 407.34 67.94 L 418.07 67.56 L 428.80 72.22 L 439.53 72.61 L 450.26 68.33 L 460.99 71.06 L 471.72 71.06 L 482.45 71.83 L 493.18 72.22 L 503.91 71.44 L 514.64 69.50 L 525.36 75.33 L 536.09 74.17 L 546.82 74.56 L 557.55 74.17 L 568.28 78.83 L 579.01 80.00 L 589.74 79.61 L 600.47 75.33 L 611.20 76.89 L 621.93 76.50 L 632.66 81.17 L 643.39 75.33 L 654.12 73.78 L 664.85 68.72 L 675.58 64.44 L 686.31 64.83 L 697.04 68.33 L 707.76 63.28 L 718.49 69.11 L 729.22 70.67 L 739.95 74.17 L 750.68 81.56 L 761.41 80.39 L 772.14 81.56 L 782.87 82.33 L 793.60 79.22 L 804.33 78.44 L 815.06 81.17 L 825.79 80.39 L 836.52 78.44 L 847.25 73.39 L 857.98 81.94 L 868.71 83.11 L 879.44 81.17 L 890.16 84.28 L 900.89 80.00 L 911.62 86.61 L 922.35 90.11 L 933.08 85.44 L 943.81 85.44 L 954.54 92.06 L 965.27 91.67 L 976.00 99.44 L 976.00 304 Z" fill="url(#fill-weekly-slate)"/>
  <polyline class="line" points="64.00,304.00 74.73,277.17 85.46,248.00 96.19,223.11 106.92,210.67 117.65,198.61 128.38,185.39 139.11,171.78 149.84,182.28 160.56,199.78 171.29,214.17 182.02,215.72 192.75,214.17 203.48,210.28 214.21,213.78 224.94,217.28 235.67,203.67 246.40,183.06 257.13,162.44 267.86,124.72 278.59,105.28 289.32,83.89 300.05,58.61 310.78,52.00 321.51,53.94 332.24,53.56 342.96,69.11 353.69,67.56 364.42,68.72 375.15,76.11 385.88,74.17 396.61,71.06 407.34,67.94 418.07,67.56 428.80,72.22 439.53,72.61 450.26,68.33 460.99,71.06 471.72,71.06 482.45,71.83 493.18,72.22 503.91,71.44 514.64,69.50 525.36,75.33 536.09,74.17 546.82,74.56 557.55,74.17 568.28,78.83 579.01,80.00 589.74,79.61 600.47,75.33 611.20,76.89 621.93,76.50 632.66,81.17 643.39,75.33 654.12,73.78 664.85,68.72 675.58,64.44 686.31,64.83 697.04,68.33 707.76,63.28 718.49,69.11 729.22,70.67 739.95,74.17 750.68,81.56 761.41,80.39 772.14,81.56 782.87,82.33 793.60,79.22 804.33,78.44 815.06,81.17 825.79,80.39 836.52,78.44 847.25,73.39 857.98,81.94 868.71,83.11 879.44,81.17 890.16,84.28 900.89,80.00 911.62,86.61 922.35,90.11 933.08,85.44 943.81,85.44 954.54,92.06 965.27,91.67 976.00,99.44"/>
  <circle class="dot" cx="976.00" cy="99.44" r="4.5"/>
  
  <text class="axis" x="64.00" y="336" text-anchor="start">2026-03-10</text>
  <text class="axis" x="246.40" y="336" text-anchor="middle">2026-03-27</text>
  <text class="axis" x="428.80" y="336" text-anchor="middle">2026-04-13</text>
  <text class="axis" x="611.20" y="336" text-anchor="middle">2026-04-30</text>
  <text class="axis" x="793.60" y="336" text-anchor="middle">2026-05-17</text>
  <text class="axis" x="976.00" y="336" text-anchor="end">2026-06-03</text>
  <text class="latest" x="976" y="34" text-anchor="end">Latest week: 526</text>
</svg>
