<?xml version="1.0" encoding="UTF-8"?>
<svg xmlns="http://www.w3.org/2000/svg" viewBox="0 0 1000 360" role="img" aria-label="hordesmod/kek-ui release downloads chart">
  <defs>
    <linearGradient id="fill-weekly-slate" x1="0" y1="0" x2="0" y2="1">
      <stop offset="0%" stop-color="#60a5fa" stop-opacity="0.32"/>
      <stop offset="100%" stop-color="#60a5fa" stop-opacity="0.05"/>
    </linearGradient>
    <style>
      .bg { fill: #0f172a; }
      .title { font: 700 24px Arial, sans-serif; fill: #e2e8f0; }
      .sub { font: 400 13px Arial, sans-serif; fill: #94a3b8; }
      .grid { stroke: #1e293b; stroke-width: 1; }
      .axis { font: 400 12px Arial, sans-serif; fill: #94a3b8; }
      .line { fill: none; stroke: #60a5fa; stroke-width: 3; stroke-linecap: round; stroke-linejoin: round; }
      .dot { fill: #60a5fa; }
      .value { font: 600 11px Arial, sans-serif; fill: #cbd5e1; }
      .latest { font: 700 14px Arial, sans-serif; fill: #e2e8f0; }
    </style>
  </defs>
  <rect class="bg" x="0" y="0" width="1000" height="360" rx="16" />
  <text class="title" x="64" y="34">hordesmod/kek-ui release downloads</text>
  <text class="sub" x="64" y="352">Generated 2026-04-20</text>
  <line x1="64" y1="52.00" x2="976" y2="52.00" class="grid"/>
  <text x="56" y="56.00" text-anchor="end" class="axis">648</text>
  <line x1="64" y1="94.00" x2="976" y2="94.00" class="grid"/>
  <text x="56" y="98.00" text-anchor="end" class="axis">540</text>
  <line x1="64" y1="136.00" x2="976" y2="136.00" class="grid"/>
  <text x="56" y="140.00" text-anchor="end" class="axis">432</text>
  <line x1="64" y1="178.00" x2="976" y2="178.00" class="grid"/>
  <text x="56" y="182.00" text-anchor="end" class="axis">324</text>
  <line x1="64" y1="220.00" x2="976" y2="220.00" class="grid"/>
  <text x="56" y="224.00" text-anchor="end" class="axis">216</text>
  <line x1="64" y1="262.00" x2="976" y2="262.00" class="grid"/>
  <text x="56" y="266.00" text-anchor="end" class="axis">108</text>
  <line x1="64" y1="304.00" x2="976" y2="304.00" class="grid"/>
  <text x="56" y="308.00" text-anchor="end" class="axis">0</text>
  <path d="M 64.00 304 L 64.00 304.00 L 86.24 277.17 L 108.49 248.00 L 130.73 223.11 L 152.98 210.67 L 175.22 198.61 L 197.46 185.39 L 219.71 171.78 L 241.95 182.28 L 264.20 199.78 L 286.44 214.17 L 308.68 215.72 L 330.93 214.17 L 353.17 210.28 L 375.41 213.78 L 397.66 217.28 L 419.90 203.67 L 442.15 183.06 L 464.39 162.44 L 486.63 124.72 L 508.88 105.28 L 531.12 83.89 L 553.37 58.61 L 575.61 52.00 L 597.85 53.94 L 620.10 53.56 L 642.34 69.11 L 664.59 67.56 L 686.83 68.72 L 709.07 76.11 L 731.32 74.17 L 753.56 71.06 L 775.80 67.94 L 798.05 67.56 L 820.29 72.22 L 842.54 72.61 L 864.78 68.33 L 887.02 71.06 L 909.27 71.06 L 931.51 71.83 L 953.76 72.22 L 976.00 71.44 L 976.00 304 Z" fill="url(#fill-weekly-slate)"/>
  <polyline class="line" points="64.00,304.00 86.24,277.17 108.49,248.00 130.73,223.11 152.98,210.67 175.22,198.61 197.46,185.39 219.71,171.78 241.95,182.28 264.20,199.78 286.44,214.17 308.68,215.72 330.93,214.17 353.17,210.28 375.41,213.78 397.66,217.28 419.90,203.67 442.15,183.06 464.39,162.44 486.63,124.72 508.88,105.28 531.12,83.89 553.37,58.61 575.61,52.00 597.85,53.94 620.10,53.56 642.34,69.11 664.59,67.56 686.83,68.72 709.07,76.11 731.32,74.17 753.56,71.06 775.80,67.94 798.05,67.56 820.29,72.22 842.54,72.61 864.78,68.33 887.02,71.06 909.27,71.06 931.51,71.83 953.76,72.22 976.00,71.44"/>
  <circle class="dot" cx="976.00" cy="71.44" r="4.5"/>
  
  <text class="axis" x="64.00" y="336" text-anchor="start">2026-03-10</text>
  <text class="axis" x="241.95" y="336" text-anchor="middle">2026-03-18</text>
  <text class="axis" x="419.90" y="336" text-anchor="middle">2026-03-26</text>
  <text class="axis" x="597.85" y="336" text-anchor="middle">2026-04-03</text>
  <text class="axis" x="775.80" y="336" text-anchor="middle">2026-04-11</text>
  <text class="axis" x="953.76" y="336" text-anchor="middle">2026-04-19</text>
  <text class="axis" x="976.00" y="336" text-anchor="end">2026-04-20</text>
  <text class="latest" x="976" y="34" text-anchor="end">Latest week: 598</text>
</svg>
