<?xml version="1.0" encoding="UTF-8"?>
<svg xmlns="http://www.w3.org/2000/svg" viewBox="0 0 1000 360" role="img" aria-label="hordesmod/kek-ui release downloads chart">
  <defs>
    <linearGradient id="fill-weekly-slate" x1="0" y1="0" x2="0" y2="1">
      <stop offset="0%" stop-color="#60a5fa" stop-opacity="0.32"/>
      <stop offset="100%" stop-color="#60a5fa" stop-opacity="0.05"/>
    </linearGradient>
    <style>
      .bg { fill: #0f172a; }
      .title { font: 700 24px Arial, sans-serif; fill: #e2e8f0; }
      .sub { font: 400 13px Arial, sans-serif; fill: #94a3b8; }
      .grid { stroke: #1e293b; stroke-width: 1; }
      .axis { font: 400 12px Arial, sans-serif; fill: #94a3b8; }
      .line { fill: none; stroke: #60a5fa; stroke-width: 3; stroke-linecap: round; stroke-linejoin: round; }
      .dot { fill: #60a5fa; }
      .value { font: 600 11px Arial, sans-serif; fill: #cbd5e1; }
      .latest { font: 700 14px Arial, sans-serif; fill: #e2e8f0; }
    </style>
  </defs>
  <rect class="bg" x="0" y="0" width="1000" height="360" rx="16" />
  <text class="title" x="64" y="34">hordesmod/kek-ui release downloads</text>
  <text class="sub" x="64" y="352">Generated 2026-04-23</text>
  <line x1="64" y1="52.00" x2="976" y2="52.00" class="grid"/>
  <text x="56" y="56.00" text-anchor="end" class="axis">648</text>
  <line x1="64" y1="94.00" x2="976" y2="94.00" class="grid"/>
  <text x="56" y="98.00" text-anchor="end" class="axis">540</text>
  <line x1="64" y1="136.00" x2="976" y2="136.00" class="grid"/>
  <text x="56" y="140.00" text-anchor="end" class="axis">432</text>
  <line x1="64" y1="178.00" x2="976" y2="178.00" class="grid"/>
  <text x="56" y="182.00" text-anchor="end" class="axis">324</text>
  <line x1="64" y1="220.00" x2="976" y2="220.00" class="grid"/>
  <text x="56" y="224.00" text-anchor="end" class="axis">216</text>
  <line x1="64" y1="262.00" x2="976" y2="262.00" class="grid"/>
  <text x="56" y="266.00" text-anchor="end" class="axis">108</text>
  <line x1="64" y1="304.00" x2="976" y2="304.00" class="grid"/>
  <text x="56" y="308.00" text-anchor="end" class="axis">0</text>
  <path d="M 64.00 304 L 64.00 304.00 L 84.73 277.17 L 105.45 248.00 L 126.18 223.11 L 146.91 210.67 L 167.64 198.61 L 188.36 185.39 L 209.09 171.78 L 229.82 182.28 L 250.55 199.78 L 271.27 214.17 L 292.00 215.72 L 312.73 214.17 L 333.45 210.28 L 354.18 213.78 L 374.91 217.28 L 395.64 203.67 L 416.36 183.06 L 437.09 162.44 L 457.82 124.72 L 478.55 105.28 L 499.27 83.89 L 520.00 58.61 L 540.73 52.00 L 561.45 53.94 L 582.18 53.56 L 602.91 69.11 L 623.64 67.56 L 644.36 68.72 L 665.09 76.11 L 685.82 74.17 L 706.55 71.06 L 727.27 67.94 L 748.00 67.56 L 768.73 72.22 L 789.45 72.61 L 810.18 68.33 L 830.91 71.06 L 851.64 71.06 L 872.36 71.83 L 893.09 72.22 L 913.82 71.44 L 934.55 69.50 L 955.27 75.33 L 976.00 74.17 L 976.00 304 Z" fill="url(#fill-weekly-slate)"/>
  <polyline class="line" points="64.00,304.00 84.73,277.17 105.45,248.00 126.18,223.11 146.91,210.67 167.64,198.61 188.36,185.39 209.09,171.78 229.82,182.28 250.55,199.78 271.27,214.17 292.00,215.72 312.73,214.17 333.45,210.28 354.18,213.78 374.91,217.28 395.64,203.67 416.36,183.06 437.09,162.44 457.82,124.72 478.55,105.28 499.27,83.89 520.00,58.61 540.73,52.00 561.45,53.94 582.18,53.56 602.91,69.11 623.64,67.56 644.36,68.72 665.09,76.11 685.82,74.17 706.55,71.06 727.27,67.94 748.00,67.56 768.73,72.22 789.45,72.61 810.18,68.33 830.91,71.06 851.64,71.06 872.36,71.83 893.09,72.22 913.82,71.44 934.55,69.50 955.27,75.33 976.00,74.17"/>
  <circle class="dot" cx="976.00" cy="74.17" r="4.5"/>
  
  <text class="axis" x="64.00" y="336" text-anchor="start">2026-03-10</text>
  <text class="axis" x="229.82" y="336" text-anchor="middle">2026-03-18</text>
  <text class="axis" x="395.64" y="336" text-anchor="middle">2026-03-26</text>
  <text class="axis" x="561.45" y="336" text-anchor="middle">2026-04-03</text>
  <text class="axis" x="727.27" y="336" text-anchor="middle">2026-04-11</text>
  <text class="axis" x="893.09" y="336" text-anchor="middle">2026-04-19</text>
  <text class="axis" x="976.00" y="336" text-anchor="end">2026-04-23</text>
  <text class="latest" x="976" y="34" text-anchor="end">Latest week: 591</text>
</svg>
