<?xml version="1.0" encoding="UTF-8"?>
<svg xmlns="http://www.w3.org/2000/svg" viewBox="0 0 1000 360" role="img" aria-label="hordesmod/kek-ui release downloads chart">
  <defs>
    <linearGradient id="fill-weekly-black" x1="0" y1="0" x2="0" y2="1">
      <stop offset="0%" stop-color="#22d3ee" stop-opacity="0.32"/>
      <stop offset="100%" stop-color="#22d3ee" stop-opacity="0.05"/>
    </linearGradient>
    <style>
      .bg { fill: #0b0b0d; }
      .title { font: 700 24px Arial, sans-serif; fill: #f8fafc; }
      .sub { font: 400 13px Arial, sans-serif; fill: #cbd5e1; }
      .grid { stroke: #1f2937; stroke-width: 1; }
      .axis { font: 400 12px Arial, sans-serif; fill: #94a3b8; }
      .line { fill: none; stroke: #22d3ee; stroke-width: 3; stroke-linecap: round; stroke-linejoin: round; }
      .dot { fill: #22d3ee; }
      .value { font: 600 11px Arial, sans-serif; fill: #cbd5e1; }
      .latest { font: 700 14px Arial, sans-serif; fill: #f8fafc; }
    </style>
  </defs>
  <rect class="bg" x="0" y="0" width="1000" height="360" rx="16" />
  <text class="title" x="64" y="34">hordesmod/kek-ui release downloads</text>
  <text class="sub" x="64" y="352">Generated 2026-04-05</text>
  <line x1="64" y1="52.00" x2="976" y2="52.00" class="grid"/>
  <text x="56" y="56.00" text-anchor="end" class="axis">648</text>
  <line x1="64" y1="94.00" x2="976" y2="94.00" class="grid"/>
  <text x="56" y="98.00" text-anchor="end" class="axis">540</text>
  <line x1="64" y1="136.00" x2="976" y2="136.00" class="grid"/>
  <text x="56" y="140.00" text-anchor="end" class="axis">432</text>
  <line x1="64" y1="178.00" x2="976" y2="178.00" class="grid"/>
  <text x="56" y="182.00" text-anchor="end" class="axis">324</text>
  <line x1="64" y1="220.00" x2="976" y2="220.00" class="grid"/>
  <text x="56" y="224.00" text-anchor="end" class="axis">216</text>
  <line x1="64" y1="262.00" x2="976" y2="262.00" class="grid"/>
  <text x="56" y="266.00" text-anchor="end" class="axis">108</text>
  <line x1="64" y1="304.00" x2="976" y2="304.00" class="grid"/>
  <text x="56" y="308.00" text-anchor="end" class="axis">0</text>
  <path d="M 64.00 304 L 64.00 304.00 L 99.08 277.17 L 134.15 248.00 L 169.23 223.11 L 204.31 210.67 L 239.38 198.61 L 274.46 185.39 L 309.54 171.78 L 344.62 182.28 L 379.69 199.78 L 414.77 214.17 L 449.85 215.72 L 484.92 214.17 L 520.00 210.28 L 555.08 213.78 L 590.15 217.28 L 625.23 203.67 L 660.31 183.06 L 695.38 162.44 L 730.46 124.72 L 765.54 105.28 L 800.62 83.89 L 835.69 58.61 L 870.77 52.00 L 905.85 53.94 L 940.92 53.56 L 976.00 69.11 L 976.00 304 Z" fill="url(#fill-weekly-black)"/>
  <polyline class="line" points="64.00,304.00 99.08,277.17 134.15,248.00 169.23,223.11 204.31,210.67 239.38,198.61 274.46,185.39 309.54,171.78 344.62,182.28 379.69,199.78 414.77,214.17 449.85,215.72 484.92,214.17 520.00,210.28 555.08,213.78 590.15,217.28 625.23,203.67 660.31,183.06 695.38,162.44 730.46,124.72 765.54,105.28 800.62,83.89 835.69,58.61 870.77,52.00 905.85,53.94 940.92,53.56 976.00,69.11"/>
  <circle class="dot" cx="976.00" cy="69.11" r="4.5"/>
  
  <text class="axis" x="64.00" y="336" text-anchor="start">2026-03-10</text>
  <text class="axis" x="239.38" y="336" text-anchor="middle">2026-03-15</text>
  <text class="axis" x="414.77" y="336" text-anchor="middle">2026-03-20</text>
  <text class="axis" x="590.15" y="336" text-anchor="middle">2026-03-25</text>
  <text class="axis" x="765.54" y="336" text-anchor="middle">2026-03-30</text>
  <text class="axis" x="940.92" y="336" text-anchor="middle">2026-04-04</text>
  <text class="axis" x="976.00" y="336" text-anchor="end">2026-04-05</text>
  <text class="latest" x="976" y="34" text-anchor="end">Latest week: 604</text>
</svg>
