<?xml version="1.0" encoding="UTF-8"?>
<svg xmlns="http://www.w3.org/2000/svg" viewBox="0 0 1000 360" role="img" aria-label="hordesmod/kek-ui release downloads chart">
  <defs>
    <linearGradient id="fill-weekly-black" x1="0" y1="0" x2="0" y2="1">
      <stop offset="0%" stop-color="#22d3ee" stop-opacity="0.32"/>
      <stop offset="100%" stop-color="#22d3ee" stop-opacity="0.05"/>
    </linearGradient>
    <style>
      .bg { fill: #0b0b0d; }
      .title { font: 700 24px Arial, sans-serif; fill: #f8fafc; }
      .sub { font: 400 13px Arial, sans-serif; fill: #cbd5e1; }
      .grid { stroke: #1f2937; stroke-width: 1; }
      .axis { font: 400 12px Arial, sans-serif; fill: #94a3b8; }
      .line { fill: none; stroke: #22d3ee; stroke-width: 3; stroke-linecap: round; stroke-linejoin: round; }
      .dot { fill: #22d3ee; }
      .value { font: 600 11px Arial, sans-serif; fill: #cbd5e1; }
      .latest { font: 700 14px Arial, sans-serif; fill: #f8fafc; }
    </style>
  </defs>
  <rect class="bg" x="0" y="0" width="1000" height="360" rx="16" />
  <text class="title" x="64" y="34">hordesmod/kek-ui release downloads</text>
  <text class="sub" x="64" y="352">Generated 2026-04-12</text>
  <line x1="64" y1="52.00" x2="976" y2="52.00" class="grid"/>
  <text x="56" y="56.00" text-anchor="end" class="axis">648</text>
  <line x1="64" y1="94.00" x2="976" y2="94.00" class="grid"/>
  <text x="56" y="98.00" text-anchor="end" class="axis">540</text>
  <line x1="64" y1="136.00" x2="976" y2="136.00" class="grid"/>
  <text x="56" y="140.00" text-anchor="end" class="axis">432</text>
  <line x1="64" y1="178.00" x2="976" y2="178.00" class="grid"/>
  <text x="56" y="182.00" text-anchor="end" class="axis">324</text>
  <line x1="64" y1="220.00" x2="976" y2="220.00" class="grid"/>
  <text x="56" y="224.00" text-anchor="end" class="axis">216</text>
  <line x1="64" y1="262.00" x2="976" y2="262.00" class="grid"/>
  <text x="56" y="266.00" text-anchor="end" class="axis">108</text>
  <line x1="64" y1="304.00" x2="976" y2="304.00" class="grid"/>
  <text x="56" y="308.00" text-anchor="end" class="axis">0</text>
  <path d="M 64.00 304 L 64.00 304.00 L 91.64 277.17 L 119.27 248.00 L 146.91 223.11 L 174.55 210.67 L 202.18 198.61 L 229.82 185.39 L 257.45 171.78 L 285.09 182.28 L 312.73 199.78 L 340.36 214.17 L 368.00 215.72 L 395.64 214.17 L 423.27 210.28 L 450.91 213.78 L 478.55 217.28 L 506.18 203.67 L 533.82 183.06 L 561.45 162.44 L 589.09 124.72 L 616.73 105.28 L 644.36 83.89 L 672.00 58.61 L 699.64 52.00 L 727.27 53.94 L 754.91 53.56 L 782.55 69.11 L 810.18 67.56 L 837.82 68.72 L 865.45 76.11 L 893.09 74.17 L 920.73 71.06 L 948.36 67.94 L 976.00 67.56 L 976.00 304 Z" fill="url(#fill-weekly-black)"/>
  <polyline class="line" points="64.00,304.00 91.64,277.17 119.27,248.00 146.91,223.11 174.55,210.67 202.18,198.61 229.82,185.39 257.45,171.78 285.09,182.28 312.73,199.78 340.36,214.17 368.00,215.72 395.64,214.17 423.27,210.28 450.91,213.78 478.55,217.28 506.18,203.67 533.82,183.06 561.45,162.44 589.09,124.72 616.73,105.28 644.36,83.89 672.00,58.61 699.64,52.00 727.27,53.94 754.91,53.56 782.55,69.11 810.18,67.56 837.82,68.72 865.45,76.11 893.09,74.17 920.73,71.06 948.36,67.94 976.00,67.56"/>
  <circle class="dot" cx="976.00" cy="67.56" r="4.5"/>
  
  <text class="axis" x="64.00" y="336" text-anchor="start">2026-03-10</text>
  <text class="axis" x="229.82" y="336" text-anchor="middle">2026-03-16</text>
  <text class="axis" x="395.64" y="336" text-anchor="middle">2026-03-22</text>
  <text class="axis" x="561.45" y="336" text-anchor="middle">2026-03-28</text>
  <text class="axis" x="727.27" y="336" text-anchor="middle">2026-04-03</text>
  <text class="axis" x="893.09" y="336" text-anchor="middle">2026-04-09</text>
  <text class="axis" x="976.00" y="336" text-anchor="end">2026-04-12</text>
  <text class="latest" x="976" y="34" text-anchor="end">Latest week: 608</text>
</svg>
