<?xml version="1.0" encoding="UTF-8"?>
<svg xmlns="http://www.w3.org/2000/svg" viewBox="0 0 1000 360" role="img" aria-label="hordesmod/kek-ui release downloads chart">
  <defs>
    <linearGradient id="fill-weekly-orange" x1="0" y1="0" x2="0" y2="1">
      <stop offset="0%" stop-color="#f97316" stop-opacity="0.32"/>
      <stop offset="100%" stop-color="#f97316" stop-opacity="0.05"/>
    </linearGradient>
    <style>
      .bg { fill: #fff7ed; }
      .title { font: 700 24px Arial, sans-serif; fill: #7c2d12; }
      .sub { font: 400 13px Arial, sans-serif; fill: #9a3412; }
      .grid { stroke: #fed7aa; stroke-width: 1; }
      .axis { font: 400 12px Arial, sans-serif; fill: #c2410c; }
      .line { fill: none; stroke: #ea580c; stroke-width: 3; stroke-linecap: round; stroke-linejoin: round; }
      .dot { fill: #ea580c; }
      .value { font: 600 11px Arial, sans-serif; fill: #9a3412; }
      .latest { font: 700 14px Arial, sans-serif; fill: #7c2d12; }
    </style>
  </defs>
  <rect class="bg" x="0" y="0" width="1000" height="360" rx="16" />
  <text class="title" x="64" y="34">hordesmod/kek-ui release downloads</text>
  <text class="sub" x="64" y="352">Generated 2026-05-07</text>
  <line x1="64" y1="52.00" x2="976" y2="52.00" class="grid"/>
  <text x="56" y="56.00" text-anchor="end" class="axis">648</text>
  <line x1="64" y1="94.00" x2="976" y2="94.00" class="grid"/>
  <text x="56" y="98.00" text-anchor="end" class="axis">540</text>
  <line x1="64" y1="136.00" x2="976" y2="136.00" class="grid"/>
  <text x="56" y="140.00" text-anchor="end" class="axis">432</text>
  <line x1="64" y1="178.00" x2="976" y2="178.00" class="grid"/>
  <text x="56" y="182.00" text-anchor="end" class="axis">324</text>
  <line x1="64" y1="220.00" x2="976" y2="220.00" class="grid"/>
  <text x="56" y="224.00" text-anchor="end" class="axis">216</text>
  <line x1="64" y1="262.00" x2="976" y2="262.00" class="grid"/>
  <text x="56" y="266.00" text-anchor="end" class="axis">108</text>
  <line x1="64" y1="304.00" x2="976" y2="304.00" class="grid"/>
  <text x="56" y="308.00" text-anchor="end" class="axis">0</text>
  <path d="M 64.00 304 L 64.00 304.00 L 79.72 277.17 L 95.45 248.00 L 111.17 223.11 L 126.90 210.67 L 142.62 198.61 L 158.34 185.39 L 174.07 171.78 L 189.79 182.28 L 205.52 199.78 L 221.24 214.17 L 236.97 215.72 L 252.69 214.17 L 268.41 210.28 L 284.14 213.78 L 299.86 217.28 L 315.59 203.67 L 331.31 183.06 L 347.03 162.44 L 362.76 124.72 L 378.48 105.28 L 394.21 83.89 L 409.93 58.61 L 425.66 52.00 L 441.38 53.94 L 457.10 53.56 L 472.83 69.11 L 488.55 67.56 L 504.28 68.72 L 520.00 76.11 L 535.72 74.17 L 551.45 71.06 L 567.17 67.94 L 582.90 67.56 L 598.62 72.22 L 614.34 72.61 L 630.07 68.33 L 645.79 71.06 L 661.52 71.06 L 677.24 71.83 L 692.97 72.22 L 708.69 71.44 L 724.41 69.50 L 740.14 75.33 L 755.86 74.17 L 771.59 74.56 L 787.31 74.17 L 803.03 78.83 L 818.76 80.00 L 834.48 79.61 L 850.21 75.33 L 865.93 76.89 L 881.66 76.50 L 897.38 81.17 L 913.10 75.33 L 928.83 73.78 L 944.55 68.72 L 960.28 64.44 L 976.00 64.83 L 976.00 304 Z" fill="url(#fill-weekly-orange)"/>
  <polyline class="line" points="64.00,304.00 79.72,277.17 95.45,248.00 111.17,223.11 126.90,210.67 142.62,198.61 158.34,185.39 174.07,171.78 189.79,182.28 205.52,199.78 221.24,214.17 236.97,215.72 252.69,214.17 268.41,210.28 284.14,213.78 299.86,217.28 315.59,203.67 331.31,183.06 347.03,162.44 362.76,124.72 378.48,105.28 394.21,83.89 409.93,58.61 425.66,52.00 441.38,53.94 457.10,53.56 472.83,69.11 488.55,67.56 504.28,68.72 520.00,76.11 535.72,74.17 551.45,71.06 567.17,67.94 582.90,67.56 598.62,72.22 614.34,72.61 630.07,68.33 645.79,71.06 661.52,71.06 677.24,71.83 692.97,72.22 708.69,71.44 724.41,69.50 740.14,75.33 755.86,74.17 771.59,74.56 787.31,74.17 803.03,78.83 818.76,80.00 834.48,79.61 850.21,75.33 865.93,76.89 881.66,76.50 897.38,81.17 913.10,75.33 928.83,73.78 944.55,68.72 960.28,64.44 976.00,64.83"/>
  <circle class="dot" cx="976.00" cy="64.83" r="4.5"/>
  
  <text class="axis" x="64.00" y="336" text-anchor="start">2026-03-10</text>
  <text class="axis" x="236.97" y="336" text-anchor="middle">2026-03-21</text>
  <text class="axis" x="409.93" y="336" text-anchor="middle">2026-04-01</text>
  <text class="axis" x="582.90" y="336" text-anchor="middle">2026-04-12</text>
  <text class="axis" x="755.86" y="336" text-anchor="middle">2026-04-23</text>
  <text class="axis" x="928.83" y="336" text-anchor="middle">2026-05-04</text>
  <text class="axis" x="976.00" y="336" text-anchor="end">2026-05-07</text>
  <text class="latest" x="976" y="34" text-anchor="end">Latest week: 615</text>
</svg>
