<?xml version="1.0" encoding="UTF-8"?>
<svg xmlns="http://www.w3.org/2000/svg" viewBox="0 0 1000 360" role="img" aria-label="hordesmod/kek-ui release downloads chart">
  <defs>
    <linearGradient id="fill-weekly-orange" x1="0" y1="0" x2="0" y2="1">
      <stop offset="0%" stop-color="#f97316" stop-opacity="0.32"/>
      <stop offset="100%" stop-color="#f97316" stop-opacity="0.05"/>
    </linearGradient>
    <style>
      .bg { fill: #fff7ed; }
      .title { font: 700 24px Arial, sans-serif; fill: #7c2d12; }
      .sub { font: 400 13px Arial, sans-serif; fill: #9a3412; }
      .grid { stroke: #fed7aa; stroke-width: 1; }
      .axis { font: 400 12px Arial, sans-serif; fill: #c2410c; }
      .line { fill: none; stroke: #ea580c; stroke-width: 3; stroke-linecap: round; stroke-linejoin: round; }
      .dot { fill: #ea580c; }
      .value { font: 600 11px Arial, sans-serif; fill: #9a3412; }
      .latest { font: 700 14px Arial, sans-serif; fill: #7c2d12; }
    </style>
  </defs>
  <rect class="bg" x="0" y="0" width="1000" height="360" rx="16" />
  <text class="title" x="64" y="34">hordesmod/kek-ui release downloads</text>
  <text class="sub" x="64" y="352">Generated 2026-04-11</text>
  <line x1="64" y1="52.00" x2="976" y2="52.00" class="grid"/>
  <text x="56" y="56.00" text-anchor="end" class="axis">648</text>
  <line x1="64" y1="94.00" x2="976" y2="94.00" class="grid"/>
  <text x="56" y="98.00" text-anchor="end" class="axis">540</text>
  <line x1="64" y1="136.00" x2="976" y2="136.00" class="grid"/>
  <text x="56" y="140.00" text-anchor="end" class="axis">432</text>
  <line x1="64" y1="178.00" x2="976" y2="178.00" class="grid"/>
  <text x="56" y="182.00" text-anchor="end" class="axis">324</text>
  <line x1="64" y1="220.00" x2="976" y2="220.00" class="grid"/>
  <text x="56" y="224.00" text-anchor="end" class="axis">216</text>
  <line x1="64" y1="262.00" x2="976" y2="262.00" class="grid"/>
  <text x="56" y="266.00" text-anchor="end" class="axis">108</text>
  <line x1="64" y1="304.00" x2="976" y2="304.00" class="grid"/>
  <text x="56" y="308.00" text-anchor="end" class="axis">0</text>
  <path d="M 64.00 304 L 64.00 304.00 L 92.50 277.17 L 121.00 248.00 L 149.50 223.11 L 178.00 210.67 L 206.50 198.61 L 235.00 185.39 L 263.50 171.78 L 292.00 182.28 L 320.50 199.78 L 349.00 214.17 L 377.50 215.72 L 406.00 214.17 L 434.50 210.28 L 463.00 213.78 L 491.50 217.28 L 520.00 203.67 L 548.50 183.06 L 577.00 162.44 L 605.50 124.72 L 634.00 105.28 L 662.50 83.89 L 691.00 58.61 L 719.50 52.00 L 748.00 53.94 L 776.50 53.56 L 805.00 69.11 L 833.50 67.56 L 862.00 68.72 L 890.50 76.11 L 919.00 74.17 L 947.50 71.06 L 976.00 67.94 L 976.00 304 Z" fill="url(#fill-weekly-orange)"/>
  <polyline class="line" points="64.00,304.00 92.50,277.17 121.00,248.00 149.50,223.11 178.00,210.67 206.50,198.61 235.00,185.39 263.50,171.78 292.00,182.28 320.50,199.78 349.00,214.17 377.50,215.72 406.00,214.17 434.50,210.28 463.00,213.78 491.50,217.28 520.00,203.67 548.50,183.06 577.00,162.44 605.50,124.72 634.00,105.28 662.50,83.89 691.00,58.61 719.50,52.00 748.00,53.94 776.50,53.56 805.00,69.11 833.50,67.56 862.00,68.72 890.50,76.11 919.00,74.17 947.50,71.06 976.00,67.94"/>
  <circle class="dot" cx="976.00" cy="67.94" r="4.5"/>
  
  <text class="axis" x="64.00" y="336" text-anchor="start">2026-03-10</text>
  <text class="axis" x="235.00" y="336" text-anchor="middle">2026-03-16</text>
  <text class="axis" x="406.00" y="336" text-anchor="middle">2026-03-22</text>
  <text class="axis" x="577.00" y="336" text-anchor="middle">2026-03-28</text>
  <text class="axis" x="748.00" y="336" text-anchor="middle">2026-04-03</text>
  <text class="axis" x="919.00" y="336" text-anchor="middle">2026-04-09</text>
  <text class="axis" x="976.00" y="336" text-anchor="end">2026-04-11</text>
  <text class="latest" x="976" y="34" text-anchor="end">Latest week: 607</text>
</svg>
