<?xml version="1.0" encoding="UTF-8"?>
<svg xmlns="http://www.w3.org/2000/svg" viewBox="0 0 1000 360" role="img" aria-label="hordesmod/kek-ui release downloads chart">
  <defs>
    <linearGradient id="fill-weekly-orange" x1="0" y1="0" x2="0" y2="1">
      <stop offset="0%" stop-color="#f97316" stop-opacity="0.32"/>
      <stop offset="100%" stop-color="#f97316" stop-opacity="0.05"/>
    </linearGradient>
    <style>
      .bg { fill: #fff7ed; }
      .title { font: 700 24px Arial, sans-serif; fill: #7c2d12; }
      .sub { font: 400 13px Arial, sans-serif; fill: #9a3412; }
      .grid { stroke: #fed7aa; stroke-width: 1; }
      .axis { font: 400 12px Arial, sans-serif; fill: #c2410c; }
      .line { fill: none; stroke: #ea580c; stroke-width: 3; stroke-linecap: round; stroke-linejoin: round; }
      .dot { fill: #ea580c; }
      .value { font: 600 11px Arial, sans-serif; fill: #9a3412; }
      .latest { font: 700 14px Arial, sans-serif; fill: #7c2d12; }
    </style>
  </defs>
  <rect class="bg" x="0" y="0" width="1000" height="360" rx="16" />
  <text class="title" x="64" y="34">hordesmod/kek-ui release downloads</text>
  <text class="sub" x="64" y="352">Generated 2026-05-03</text>
  <line x1="64" y1="52.00" x2="976" y2="52.00" class="grid"/>
  <text x="56" y="56.00" text-anchor="end" class="axis">648</text>
  <line x1="64" y1="94.00" x2="976" y2="94.00" class="grid"/>
  <text x="56" y="98.00" text-anchor="end" class="axis">540</text>
  <line x1="64" y1="136.00" x2="976" y2="136.00" class="grid"/>
  <text x="56" y="140.00" text-anchor="end" class="axis">432</text>
  <line x1="64" y1="178.00" x2="976" y2="178.00" class="grid"/>
  <text x="56" y="182.00" text-anchor="end" class="axis">324</text>
  <line x1="64" y1="220.00" x2="976" y2="220.00" class="grid"/>
  <text x="56" y="224.00" text-anchor="end" class="axis">216</text>
  <line x1="64" y1="262.00" x2="976" y2="262.00" class="grid"/>
  <text x="56" y="266.00" text-anchor="end" class="axis">108</text>
  <line x1="64" y1="304.00" x2="976" y2="304.00" class="grid"/>
  <text x="56" y="308.00" text-anchor="end" class="axis">0</text>
  <path d="M 64.00 304 L 64.00 304.00 L 80.89 277.17 L 97.78 248.00 L 114.67 223.11 L 131.56 210.67 L 148.44 198.61 L 165.33 185.39 L 182.22 171.78 L 199.11 182.28 L 216.00 199.78 L 232.89 214.17 L 249.78 215.72 L 266.67 214.17 L 283.56 210.28 L 300.44 213.78 L 317.33 217.28 L 334.22 203.67 L 351.11 183.06 L 368.00 162.44 L 384.89 124.72 L 401.78 105.28 L 418.67 83.89 L 435.56 58.61 L 452.44 52.00 L 469.33 53.94 L 486.22 53.56 L 503.11 69.11 L 520.00 67.56 L 536.89 68.72 L 553.78 76.11 L 570.67 74.17 L 587.56 71.06 L 604.44 67.94 L 621.33 67.56 L 638.22 72.22 L 655.11 72.61 L 672.00 68.33 L 688.89 71.06 L 705.78 71.06 L 722.67 71.83 L 739.56 72.22 L 756.44 71.44 L 773.33 69.50 L 790.22 75.33 L 807.11 74.17 L 824.00 74.56 L 840.89 74.17 L 857.78 78.83 L 874.67 80.00 L 891.56 79.61 L 908.44 75.33 L 925.33 76.89 L 942.22 76.50 L 959.11 81.17 L 976.00 75.33 L 976.00 304 Z" fill="url(#fill-weekly-orange)"/>
  <polyline class="line" points="64.00,304.00 80.89,277.17 97.78,248.00 114.67,223.11 131.56,210.67 148.44,198.61 165.33,185.39 182.22,171.78 199.11,182.28 216.00,199.78 232.89,214.17 249.78,215.72 266.67,214.17 283.56,210.28 300.44,213.78 317.33,217.28 334.22,203.67 351.11,183.06 368.00,162.44 384.89,124.72 401.78,105.28 418.67,83.89 435.56,58.61 452.44,52.00 469.33,53.94 486.22,53.56 503.11,69.11 520.00,67.56 536.89,68.72 553.78,76.11 570.67,74.17 587.56,71.06 604.44,67.94 621.33,67.56 638.22,72.22 655.11,72.61 672.00,68.33 688.89,71.06 705.78,71.06 722.67,71.83 739.56,72.22 756.44,71.44 773.33,69.50 790.22,75.33 807.11,74.17 824.00,74.56 840.89,74.17 857.78,78.83 874.67,80.00 891.56,79.61 908.44,75.33 925.33,76.89 942.22,76.50 959.11,81.17 976.00,75.33"/>
  <circle class="dot" cx="976.00" cy="75.33" r="4.5"/>
  
  <text class="axis" x="64.00" y="336" text-anchor="start">2026-03-10</text>
  <text class="axis" x="232.89" y="336" text-anchor="middle">2026-03-20</text>
  <text class="axis" x="401.78" y="336" text-anchor="middle">2026-03-30</text>
  <text class="axis" x="570.67" y="336" text-anchor="middle">2026-04-09</text>
  <text class="axis" x="739.56" y="336" text-anchor="middle">2026-04-19</text>
  <text class="axis" x="908.44" y="336" text-anchor="middle">2026-04-29</text>
  <text class="axis" x="976.00" y="336" text-anchor="end">2026-05-03</text>
  <text class="latest" x="976" y="34" text-anchor="end">Latest week: 588</text>
</svg>
