<?xml version="1.0" encoding="UTF-8"?>
<svg xmlns="http://www.w3.org/2000/svg" viewBox="0 0 1000 360" role="img" aria-label="hordesmod/kek-ui release downloads chart">
  <defs>
    <linearGradient id="fill-weekly-orange" x1="0" y1="0" x2="0" y2="1">
      <stop offset="0%" stop-color="#f97316" stop-opacity="0.32"/>
      <stop offset="100%" stop-color="#f97316" stop-opacity="0.05"/>
    </linearGradient>
    <style>
      .bg { fill: #fff7ed; }
      .title { font: 700 24px Arial, sans-serif; fill: #7c2d12; }
      .sub { font: 400 13px Arial, sans-serif; fill: #9a3412; }
      .grid { stroke: #fed7aa; stroke-width: 1; }
      .axis { font: 400 12px Arial, sans-serif; fill: #c2410c; }
      .line { fill: none; stroke: #ea580c; stroke-width: 3; stroke-linecap: round; stroke-linejoin: round; }
      .dot { fill: #ea580c; }
      .value { font: 600 11px Arial, sans-serif; fill: #9a3412; }
      .latest { font: 700 14px Arial, sans-serif; fill: #7c2d12; }
    </style>
  </defs>
  <rect class="bg" x="0" y="0" width="1000" height="360" rx="16" />
  <text class="title" x="64" y="34">hordesmod/kek-ui release downloads</text>
  <text class="sub" x="64" y="352">Generated 2026-04-16</text>
  <line x1="64" y1="52.00" x2="976" y2="52.00" class="grid"/>
  <text x="56" y="56.00" text-anchor="end" class="axis">648</text>
  <line x1="64" y1="94.00" x2="976" y2="94.00" class="grid"/>
  <text x="56" y="98.00" text-anchor="end" class="axis">540</text>
  <line x1="64" y1="136.00" x2="976" y2="136.00" class="grid"/>
  <text x="56" y="140.00" text-anchor="end" class="axis">432</text>
  <line x1="64" y1="178.00" x2="976" y2="178.00" class="grid"/>
  <text x="56" y="182.00" text-anchor="end" class="axis">324</text>
  <line x1="64" y1="220.00" x2="976" y2="220.00" class="grid"/>
  <text x="56" y="224.00" text-anchor="end" class="axis">216</text>
  <line x1="64" y1="262.00" x2="976" y2="262.00" class="grid"/>
  <text x="56" y="266.00" text-anchor="end" class="axis">108</text>
  <line x1="64" y1="304.00" x2="976" y2="304.00" class="grid"/>
  <text x="56" y="308.00" text-anchor="end" class="axis">0</text>
  <path d="M 64.00 304 L 64.00 304.00 L 88.65 277.17 L 113.30 248.00 L 137.95 223.11 L 162.59 210.67 L 187.24 198.61 L 211.89 185.39 L 236.54 171.78 L 261.19 182.28 L 285.84 199.78 L 310.49 214.17 L 335.14 215.72 L 359.78 214.17 L 384.43 210.28 L 409.08 213.78 L 433.73 217.28 L 458.38 203.67 L 483.03 183.06 L 507.68 162.44 L 532.32 124.72 L 556.97 105.28 L 581.62 83.89 L 606.27 58.61 L 630.92 52.00 L 655.57 53.94 L 680.22 53.56 L 704.86 69.11 L 729.51 67.56 L 754.16 68.72 L 778.81 76.11 L 803.46 74.17 L 828.11 71.06 L 852.76 67.94 L 877.41 67.56 L 902.05 72.22 L 926.70 72.61 L 951.35 68.33 L 976.00 71.06 L 976.00 304 Z" fill="url(#fill-weekly-orange)"/>
  <polyline class="line" points="64.00,304.00 88.65,277.17 113.30,248.00 137.95,223.11 162.59,210.67 187.24,198.61 211.89,185.39 236.54,171.78 261.19,182.28 285.84,199.78 310.49,214.17 335.14,215.72 359.78,214.17 384.43,210.28 409.08,213.78 433.73,217.28 458.38,203.67 483.03,183.06 507.68,162.44 532.32,124.72 556.97,105.28 581.62,83.89 606.27,58.61 630.92,52.00 655.57,53.94 680.22,53.56 704.86,69.11 729.51,67.56 754.16,68.72 778.81,76.11 803.46,74.17 828.11,71.06 852.76,67.94 877.41,67.56 902.05,72.22 926.70,72.61 951.35,68.33 976.00,71.06"/>
  <circle class="dot" cx="976.00" cy="71.06" r="4.5"/>
  
  <text class="axis" x="64.00" y="336" text-anchor="start">2026-03-10</text>
  <text class="axis" x="236.54" y="336" text-anchor="middle">2026-03-17</text>
  <text class="axis" x="409.08" y="336" text-anchor="middle">2026-03-24</text>
  <text class="axis" x="581.62" y="336" text-anchor="middle">2026-03-31</text>
  <text class="axis" x="754.16" y="336" text-anchor="middle">2026-04-07</text>
  <text class="axis" x="926.70" y="336" text-anchor="middle">2026-04-14</text>
  <text class="axis" x="976.00" y="336" text-anchor="end">2026-04-16</text>
  <text class="latest" x="976" y="34" text-anchor="end">Latest week: 599</text>
</svg>
