<?xml version="1.0" encoding="UTF-8"?>
<svg xmlns="http://www.w3.org/2000/svg" viewBox="0 0 1000 360" role="img" aria-label="hordesmod/kek-ui release downloads chart">
  <defs>
    <linearGradient id="fill-weekly-orange" x1="0" y1="0" x2="0" y2="1">
      <stop offset="0%" stop-color="#f97316" stop-opacity="0.32"/>
      <stop offset="100%" stop-color="#f97316" stop-opacity="0.05"/>
    </linearGradient>
    <style>
      .bg { fill: #fff7ed; }
      .title { font: 700 24px Arial, sans-serif; fill: #7c2d12; }
      .sub { font: 400 13px Arial, sans-serif; fill: #9a3412; }
      .grid { stroke: #fed7aa; stroke-width: 1; }
      .axis { font: 400 12px Arial, sans-serif; fill: #c2410c; }
      .line { fill: none; stroke: #ea580c; stroke-width: 3; stroke-linecap: round; stroke-linejoin: round; }
      .dot { fill: #ea580c; }
      .value { font: 600 11px Arial, sans-serif; fill: #9a3412; }
      .latest { font: 700 14px Arial, sans-serif; fill: #7c2d12; }
    </style>
  </defs>
  <rect class="bg" x="0" y="0" width="1000" height="360" rx="16" />
  <text class="title" x="64" y="34">hordesmod/kek-ui release downloads</text>
  <text class="sub" x="64" y="352">Generated 2026-04-14</text>
  <line x1="64" y1="52.00" x2="976" y2="52.00" class="grid"/>
  <text x="56" y="56.00" text-anchor="end" class="axis">648</text>
  <line x1="64" y1="94.00" x2="976" y2="94.00" class="grid"/>
  <text x="56" y="98.00" text-anchor="end" class="axis">540</text>
  <line x1="64" y1="136.00" x2="976" y2="136.00" class="grid"/>
  <text x="56" y="140.00" text-anchor="end" class="axis">432</text>
  <line x1="64" y1="178.00" x2="976" y2="178.00" class="grid"/>
  <text x="56" y="182.00" text-anchor="end" class="axis">324</text>
  <line x1="64" y1="220.00" x2="976" y2="220.00" class="grid"/>
  <text x="56" y="224.00" text-anchor="end" class="axis">216</text>
  <line x1="64" y1="262.00" x2="976" y2="262.00" class="grid"/>
  <text x="56" y="266.00" text-anchor="end" class="axis">108</text>
  <line x1="64" y1="304.00" x2="976" y2="304.00" class="grid"/>
  <text x="56" y="308.00" text-anchor="end" class="axis">0</text>
  <path d="M 64.00 304 L 64.00 304.00 L 90.06 277.17 L 116.11 248.00 L 142.17 223.11 L 168.23 210.67 L 194.29 198.61 L 220.34 185.39 L 246.40 171.78 L 272.46 182.28 L 298.51 199.78 L 324.57 214.17 L 350.63 215.72 L 376.69 214.17 L 402.74 210.28 L 428.80 213.78 L 454.86 217.28 L 480.91 203.67 L 506.97 183.06 L 533.03 162.44 L 559.09 124.72 L 585.14 105.28 L 611.20 83.89 L 637.26 58.61 L 663.31 52.00 L 689.37 53.94 L 715.43 53.56 L 741.49 69.11 L 767.54 67.56 L 793.60 68.72 L 819.66 76.11 L 845.71 74.17 L 871.77 71.06 L 897.83 67.94 L 923.89 67.56 L 949.94 72.22 L 976.00 72.61 L 976.00 304 Z" fill="url(#fill-weekly-orange)"/>
  <polyline class="line" points="64.00,304.00 90.06,277.17 116.11,248.00 142.17,223.11 168.23,210.67 194.29,198.61 220.34,185.39 246.40,171.78 272.46,182.28 298.51,199.78 324.57,214.17 350.63,215.72 376.69,214.17 402.74,210.28 428.80,213.78 454.86,217.28 480.91,203.67 506.97,183.06 533.03,162.44 559.09,124.72 585.14,105.28 611.20,83.89 637.26,58.61 663.31,52.00 689.37,53.94 715.43,53.56 741.49,69.11 767.54,67.56 793.60,68.72 819.66,76.11 845.71,74.17 871.77,71.06 897.83,67.94 923.89,67.56 949.94,72.22 976.00,72.61"/>
  <circle class="dot" cx="976.00" cy="72.61" r="4.5"/>
  
  <text class="axis" x="64.00" y="336" text-anchor="start">2026-03-10</text>
  <text class="axis" x="246.40" y="336" text-anchor="middle">2026-03-17</text>
  <text class="axis" x="428.80" y="336" text-anchor="middle">2026-03-24</text>
  <text class="axis" x="611.20" y="336" text-anchor="middle">2026-03-31</text>
  <text class="axis" x="793.60" y="336" text-anchor="middle">2026-04-07</text>
  <text class="axis" x="976.00" y="336" text-anchor="end">2026-04-14</text>
  <text class="latest" x="976" y="34" text-anchor="end">Latest week: 595</text>
</svg>
