<?xml version="1.0" encoding="UTF-8"?>
<svg xmlns="http://www.w3.org/2000/svg" viewBox="0 0 1000 360" role="img" aria-label="hordesmod/kek-ui release downloads chart">
  <defs>
    <linearGradient id="fill-weekly-orange" x1="0" y1="0" x2="0" y2="1">
      <stop offset="0%" stop-color="#f97316" stop-opacity="0.32"/>
      <stop offset="100%" stop-color="#f97316" stop-opacity="0.05"/>
    </linearGradient>
    <style>
      .bg { fill: #fff7ed; }
      .title { font: 700 24px Arial, sans-serif; fill: #7c2d12; }
      .sub { font: 400 13px Arial, sans-serif; fill: #9a3412; }
      .grid { stroke: #fed7aa; stroke-width: 1; }
      .axis { font: 400 12px Arial, sans-serif; fill: #c2410c; }
      .line { fill: none; stroke: #ea580c; stroke-width: 3; stroke-linecap: round; stroke-linejoin: round; }
      .dot { fill: #ea580c; }
      .value { font: 600 11px Arial, sans-serif; fill: #9a3412; }
      .latest { font: 700 14px Arial, sans-serif; fill: #7c2d12; }
    </style>
  </defs>
  <rect class="bg" x="0" y="0" width="1000" height="360" rx="16" />
  <text class="title" x="64" y="34">hordesmod/kek-ui release downloads</text>
  <text class="sub" x="64" y="352">Generated 2026-04-22</text>
  <line x1="64" y1="52.00" x2="976" y2="52.00" class="grid"/>
  <text x="56" y="56.00" text-anchor="end" class="axis">648</text>
  <line x1="64" y1="94.00" x2="976" y2="94.00" class="grid"/>
  <text x="56" y="98.00" text-anchor="end" class="axis">540</text>
  <line x1="64" y1="136.00" x2="976" y2="136.00" class="grid"/>
  <text x="56" y="140.00" text-anchor="end" class="axis">432</text>
  <line x1="64" y1="178.00" x2="976" y2="178.00" class="grid"/>
  <text x="56" y="182.00" text-anchor="end" class="axis">324</text>
  <line x1="64" y1="220.00" x2="976" y2="220.00" class="grid"/>
  <text x="56" y="224.00" text-anchor="end" class="axis">216</text>
  <line x1="64" y1="262.00" x2="976" y2="262.00" class="grid"/>
  <text x="56" y="266.00" text-anchor="end" class="axis">108</text>
  <line x1="64" y1="304.00" x2="976" y2="304.00" class="grid"/>
  <text x="56" y="308.00" text-anchor="end" class="axis">0</text>
  <path d="M 64.00 304 L 64.00 304.00 L 85.21 277.17 L 106.42 248.00 L 127.63 223.11 L 148.84 210.67 L 170.05 198.61 L 191.26 185.39 L 212.47 171.78 L 233.67 182.28 L 254.88 199.78 L 276.09 214.17 L 297.30 215.72 L 318.51 214.17 L 339.72 210.28 L 360.93 213.78 L 382.14 217.28 L 403.35 203.67 L 424.56 183.06 L 445.77 162.44 L 466.98 124.72 L 488.19 105.28 L 509.40 83.89 L 530.60 58.61 L 551.81 52.00 L 573.02 53.94 L 594.23 53.56 L 615.44 69.11 L 636.65 67.56 L 657.86 68.72 L 679.07 76.11 L 700.28 74.17 L 721.49 71.06 L 742.70 67.94 L 763.91 67.56 L 785.12 72.22 L 806.33 72.61 L 827.53 68.33 L 848.74 71.06 L 869.95 71.06 L 891.16 71.83 L 912.37 72.22 L 933.58 71.44 L 954.79 69.50 L 976.00 75.33 L 976.00 304 Z" fill="url(#fill-weekly-orange)"/>
  <polyline class="line" points="64.00,304.00 85.21,277.17 106.42,248.00 127.63,223.11 148.84,210.67 170.05,198.61 191.26,185.39 212.47,171.78 233.67,182.28 254.88,199.78 276.09,214.17 297.30,215.72 318.51,214.17 339.72,210.28 360.93,213.78 382.14,217.28 403.35,203.67 424.56,183.06 445.77,162.44 466.98,124.72 488.19,105.28 509.40,83.89 530.60,58.61 551.81,52.00 573.02,53.94 594.23,53.56 615.44,69.11 636.65,67.56 657.86,68.72 679.07,76.11 700.28,74.17 721.49,71.06 742.70,67.94 763.91,67.56 785.12,72.22 806.33,72.61 827.53,68.33 848.74,71.06 869.95,71.06 891.16,71.83 912.37,72.22 933.58,71.44 954.79,69.50 976.00,75.33"/>
  <circle class="dot" cx="976.00" cy="75.33" r="4.5"/>
  
  <text class="axis" x="64.00" y="336" text-anchor="start">2026-03-10</text>
  <text class="axis" x="233.67" y="336" text-anchor="middle">2026-03-18</text>
  <text class="axis" x="403.35" y="336" text-anchor="middle">2026-03-26</text>
  <text class="axis" x="573.02" y="336" text-anchor="middle">2026-04-03</text>
  <text class="axis" x="742.70" y="336" text-anchor="middle">2026-04-11</text>
  <text class="axis" x="912.37" y="336" text-anchor="middle">2026-04-19</text>
  <text class="axis" x="976.00" y="336" text-anchor="end">2026-04-22</text>
  <text class="latest" x="976" y="34" text-anchor="end">Latest week: 588</text>
</svg>
