<?xml version="1.0" encoding="UTF-8"?>
<svg xmlns="http://www.w3.org/2000/svg" viewBox="0 0 1000 360" role="img" aria-label="hordesmod/kek-ui release downloads chart">
  <defs>
    <linearGradient id="fill-weekly-orange" x1="0" y1="0" x2="0" y2="1">
      <stop offset="0%" stop-color="#f97316" stop-opacity="0.32"/>
      <stop offset="100%" stop-color="#f97316" stop-opacity="0.05"/>
    </linearGradient>
    <style>
      .bg { fill: #fff7ed; }
      .title { font: 700 24px Arial, sans-serif; fill: #7c2d12; }
      .sub { font: 400 13px Arial, sans-serif; fill: #9a3412; }
      .grid { stroke: #fed7aa; stroke-width: 1; }
      .axis { font: 400 12px Arial, sans-serif; fill: #c2410c; }
      .line { fill: none; stroke: #ea580c; stroke-width: 3; stroke-linecap: round; stroke-linejoin: round; }
      .dot { fill: #ea580c; }
      .value { font: 600 11px Arial, sans-serif; fill: #9a3412; }
      .latest { font: 700 14px Arial, sans-serif; fill: #7c2d12; }
    </style>
  </defs>
  <rect class="bg" x="0" y="0" width="1000" height="360" rx="16" />
  <text class="title" x="64" y="34">hordesmod/kek-ui release downloads</text>
  <text class="sub" x="64" y="352">Generated 2026-05-06</text>
  <line x1="64" y1="52.00" x2="976" y2="52.00" class="grid"/>
  <text x="56" y="56.00" text-anchor="end" class="axis">648</text>
  <line x1="64" y1="94.00" x2="976" y2="94.00" class="grid"/>
  <text x="56" y="98.00" text-anchor="end" class="axis">540</text>
  <line x1="64" y1="136.00" x2="976" y2="136.00" class="grid"/>
  <text x="56" y="140.00" text-anchor="end" class="axis">432</text>
  <line x1="64" y1="178.00" x2="976" y2="178.00" class="grid"/>
  <text x="56" y="182.00" text-anchor="end" class="axis">324</text>
  <line x1="64" y1="220.00" x2="976" y2="220.00" class="grid"/>
  <text x="56" y="224.00" text-anchor="end" class="axis">216</text>
  <line x1="64" y1="262.00" x2="976" y2="262.00" class="grid"/>
  <text x="56" y="266.00" text-anchor="end" class="axis">108</text>
  <line x1="64" y1="304.00" x2="976" y2="304.00" class="grid"/>
  <text x="56" y="308.00" text-anchor="end" class="axis">0</text>
  <path d="M 64.00 304 L 64.00 304.00 L 80.00 277.17 L 96.00 248.00 L 112.00 223.11 L 128.00 210.67 L 144.00 198.61 L 160.00 185.39 L 176.00 171.78 L 192.00 182.28 L 208.00 199.78 L 224.00 214.17 L 240.00 215.72 L 256.00 214.17 L 272.00 210.28 L 288.00 213.78 L 304.00 217.28 L 320.00 203.67 L 336.00 183.06 L 352.00 162.44 L 368.00 124.72 L 384.00 105.28 L 400.00 83.89 L 416.00 58.61 L 432.00 52.00 L 448.00 53.94 L 464.00 53.56 L 480.00 69.11 L 496.00 67.56 L 512.00 68.72 L 528.00 76.11 L 544.00 74.17 L 560.00 71.06 L 576.00 67.94 L 592.00 67.56 L 608.00 72.22 L 624.00 72.61 L 640.00 68.33 L 656.00 71.06 L 672.00 71.06 L 688.00 71.83 L 704.00 72.22 L 720.00 71.44 L 736.00 69.50 L 752.00 75.33 L 768.00 74.17 L 784.00 74.56 L 800.00 74.17 L 816.00 78.83 L 832.00 80.00 L 848.00 79.61 L 864.00 75.33 L 880.00 76.89 L 896.00 76.50 L 912.00 81.17 L 928.00 75.33 L 944.00 73.78 L 960.00 68.72 L 976.00 64.44 L 976.00 304 Z" fill="url(#fill-weekly-orange)"/>
  <polyline class="line" points="64.00,304.00 80.00,277.17 96.00,248.00 112.00,223.11 128.00,210.67 144.00,198.61 160.00,185.39 176.00,171.78 192.00,182.28 208.00,199.78 224.00,214.17 240.00,215.72 256.00,214.17 272.00,210.28 288.00,213.78 304.00,217.28 320.00,203.67 336.00,183.06 352.00,162.44 368.00,124.72 384.00,105.28 400.00,83.89 416.00,58.61 432.00,52.00 448.00,53.94 464.00,53.56 480.00,69.11 496.00,67.56 512.00,68.72 528.00,76.11 544.00,74.17 560.00,71.06 576.00,67.94 592.00,67.56 608.00,72.22 624.00,72.61 640.00,68.33 656.00,71.06 672.00,71.06 688.00,71.83 704.00,72.22 720.00,71.44 736.00,69.50 752.00,75.33 768.00,74.17 784.00,74.56 800.00,74.17 816.00,78.83 832.00,80.00 848.00,79.61 864.00,75.33 880.00,76.89 896.00,76.50 912.00,81.17 928.00,75.33 944.00,73.78 960.00,68.72 976.00,64.44"/>
  <circle class="dot" cx="976.00" cy="64.44" r="4.5"/>
  
  <text class="axis" x="64.00" y="336" text-anchor="start">2026-03-10</text>
  <text class="axis" x="240.00" y="336" text-anchor="middle">2026-03-21</text>
  <text class="axis" x="416.00" y="336" text-anchor="middle">2026-04-01</text>
  <text class="axis" x="592.00" y="336" text-anchor="middle">2026-04-12</text>
  <text class="axis" x="768.00" y="336" text-anchor="middle">2026-04-23</text>
  <text class="axis" x="944.00" y="336" text-anchor="middle">2026-05-04</text>
  <text class="axis" x="976.00" y="336" text-anchor="end">2026-05-06</text>
  <text class="latest" x="976" y="34" text-anchor="end">Latest week: 616</text>
</svg>
